%TF.GenerationSoftware,KiCad,Pcbnew,7.0.8*%
%TF.CreationDate,2024-09-16T20:38:48+09:00*%
%TF.ProjectId,______,cff3c9eb-fa7f-42e6-9b69-6361645f7063,rev?*%
%TF.SameCoordinates,Original*%
%TF.FileFunction,Legend,Top*%
%TF.FilePolarity,Positive*%
%FSLAX46Y46*%
G04 Gerber Fmt 4.6, Leading zero omitted, Abs format (unit mm)*
G04 Created by KiCad (PCBNEW 7.0.8) date 2024-09-16 20:38:48*
%MOMM*%
%LPD*%
G01*
G04 APERTURE LIST*
G04 Aperture macros list*
%AMRoundRect*
0 Rectangle with rounded corners*
0 $1 Rounding radius*
0 $2 $3 $4 $5 $6 $7 $8 $9 X,Y pos of 4 corners*
0 Add a 4 corners polygon primitive as box body*
4,1,4,$2,$3,$4,$5,$6,$7,$8,$9,$2,$3,0*
0 Add four circle primitives for the rounded corners*
1,1,$1+$1,$2,$3*
1,1,$1+$1,$4,$5*
1,1,$1+$1,$6,$7*
1,1,$1+$1,$8,$9*
0 Add four rect primitives between the rounded corners*
20,1,$1+$1,$2,$3,$4,$5,0*
20,1,$1+$1,$4,$5,$6,$7,0*
20,1,$1+$1,$6,$7,$8,$9,0*
20,1,$1+$1,$8,$9,$2,$3,0*%
G04 Aperture macros list end*
%ADD10C,0.100000*%
%ADD11C,0.150000*%
%ADD12C,0.120000*%
%ADD13C,1.524000*%
%ADD14RoundRect,0.250000X-0.725000X0.600000X-0.725000X-0.600000X0.725000X-0.600000X0.725000X0.600000X0*%
%ADD15O,1.950000X1.700000*%
G04 APERTURE END LIST*
D10*
X36131667Y9107200D02*
X36274524Y9059581D01*
X36274524Y9059581D02*
X36512619Y9059581D01*
X36512619Y9059581D02*
X36607857Y9107200D01*
X36607857Y9107200D02*
X36655476Y9154820D01*
X36655476Y9154820D02*
X36703095Y9250058D01*
X36703095Y9250058D02*
X36703095Y9345296D01*
X36703095Y9345296D02*
X36655476Y9440534D01*
X36655476Y9440534D02*
X36607857Y9488153D01*
X36607857Y9488153D02*
X36512619Y9535772D01*
X36512619Y9535772D02*
X36322143Y9583391D01*
X36322143Y9583391D02*
X36226905Y9631010D01*
X36226905Y9631010D02*
X36179286Y9678629D01*
X36179286Y9678629D02*
X36131667Y9773867D01*
X36131667Y9773867D02*
X36131667Y9869105D01*
X36131667Y9869105D02*
X36179286Y9964343D01*
X36179286Y9964343D02*
X36226905Y10011962D01*
X36226905Y10011962D02*
X36322143Y10059581D01*
X36322143Y10059581D02*
X36560238Y10059581D01*
X36560238Y10059581D02*
X36703095Y10011962D01*
X37036429Y10059581D02*
X37274524Y9059581D01*
X37274524Y9059581D02*
X37465000Y9773867D01*
X37465000Y9773867D02*
X37655476Y9059581D01*
X37655476Y9059581D02*
X37893572Y10059581D01*
X38798333Y9059581D02*
X38226905Y9059581D01*
X38512619Y9059581D02*
X38512619Y10059581D01*
X38512619Y10059581D02*
X38417381Y9916724D01*
X38417381Y9916724D02*
X38322143Y9821486D01*
X38322143Y9821486D02*
X38226905Y9773867D01*
D11*
X12500819Y4846667D02*
X13215104Y4846667D01*
X13215104Y4846667D02*
X13357961Y4799048D01*
X13357961Y4799048D02*
X13453200Y4703810D01*
X13453200Y4703810D02*
X13500819Y4560953D01*
X13500819Y4560953D02*
X13500819Y4465715D01*
X13500819Y5846667D02*
X13500819Y5275239D01*
X13500819Y5560953D02*
X12500819Y5560953D01*
X12500819Y5560953D02*
X12643676Y5465715D01*
X12643676Y5465715D02*
X12738914Y5370477D01*
X12738914Y5370477D02*
X12786533Y5275239D01*
D10*
%TO.C,SW1*%
X48677102Y5207000D02*
G75*
G03*
X48677102Y5207000I-3592102J0D01*
G01*
X36195000Y9017000D02*
X50165000Y9017000D01*
X50165000Y9017000D02*
X50165000Y1397000D01*
X50165000Y1397000D02*
X36195000Y1397000D01*
X36195000Y1397000D02*
X36195000Y9017000D01*
X36195000Y9017000D02*
X38735000Y9017000D01*
X38735000Y9017000D02*
X38735000Y1397000D01*
X38735000Y1397000D02*
X36195000Y1397000D01*
X36195000Y1397000D02*
X36195000Y9017000D01*
D12*
%TO.C,J1*%
X6346000Y2930000D02*
X846000Y2930000D01*
X236000Y10240000D02*
X11956000Y10240000D01*
X6346000Y5430000D02*
X846000Y5430000D01*
X11956000Y1540000D02*
X7456000Y1540000D01*
X11956000Y8820000D02*
X7456000Y8820000D01*
X236000Y5180000D02*
X236000Y10240000D01*
X6346000Y7930000D02*
X846000Y7930000D01*
X846000Y5430000D02*
X846000Y4930000D01*
X11956000Y120000D02*
X11956000Y1540000D01*
X11046000Y7680000D02*
X11646000Y7980000D01*
X11646000Y7980000D02*
X11646000Y7380000D01*
X6346000Y2430000D02*
X6346000Y2930000D01*
X7456000Y1540000D02*
X7456000Y5180000D01*
X846000Y7930000D02*
X846000Y7430000D01*
X236000Y120000D02*
X11956000Y120000D01*
X846000Y2930000D02*
X846000Y2430000D01*
X846000Y4930000D02*
X6346000Y4930000D01*
X846000Y2430000D02*
X6346000Y2430000D01*
X6346000Y4930000D02*
X6346000Y5430000D01*
X11646000Y7380000D02*
X11046000Y7680000D01*
X11956000Y10240000D02*
X11956000Y8820000D01*
X6346000Y7430000D02*
X6346000Y7930000D01*
X236000Y5180000D02*
X236000Y120000D01*
X846000Y7430000D02*
X6346000Y7430000D01*
X7456000Y8820000D02*
X7456000Y5180000D01*
%TD*%
%LPC*%
D13*
%TO.C,SW1*%
X37465000Y2667000D03*
X37465000Y5207000D03*
X37465000Y7747000D03*
%TD*%
D14*
%TO.C,J1*%
X9546000Y7680000D03*
D15*
X9546000Y5180000D03*
X9546000Y2680000D03*
%TD*%
%LPD*%
M02*
