%TF.GenerationSoftware,KiCad,Pcbnew,7.0.8*%
%TF.CreationDate,2024-09-16T20:57:31+09:00*%
%TF.ProjectId,______,cff3c9eb-fa7f-42e6-9b69-6361645f7063,rev?*%
%TF.SameCoordinates,Original*%
%TF.FileFunction,Legend,Top*%
%TF.FilePolarity,Positive*%
%FSLAX46Y46*%
G04 Gerber Fmt 4.6, Leading zero omitted, Abs format (unit mm)*
G04 Created by KiCad (PCBNEW 7.0.8) date 2024-09-16 20:57:31*
%MOMM*%
%LPD*%
G01*
G04 APERTURE LIST*
G04 Aperture macros list*
%AMRoundRect*
0 Rectangle with rounded corners*
0 $1 Rounding radius*
0 $2 $3 $4 $5 $6 $7 $8 $9 X,Y pos of 4 corners*
0 Add a 4 corners polygon primitive as box body*
4,1,4,$2,$3,$4,$5,$6,$7,$8,$9,$2,$3,0*
0 Add four circle primitives for the rounded corners*
1,1,$1+$1,$2,$3*
1,1,$1+$1,$4,$5*
1,1,$1+$1,$6,$7*
1,1,$1+$1,$8,$9*
0 Add four rect primitives between the rounded corners*
20,1,$1+$1,$2,$3,$4,$5,0*
20,1,$1+$1,$4,$5,$6,$7,0*
20,1,$1+$1,$6,$7,$8,$9,0*
20,1,$1+$1,$8,$9,$2,$3,0*%
G04 Aperture macros list end*
%ADD10C,0.100000*%
%ADD11C,0.150000*%
%ADD12C,0.120000*%
%ADD13C,1.524000*%
%ADD14C,5.600000*%
%ADD15RoundRect,0.250000X-0.725000X0.600000X-0.725000X-0.600000X0.725000X-0.600000X0.725000X0.600000X0*%
%ADD16O,1.950000X1.700000*%
G04 APERTURE END LIST*
D10*
X35461800Y3746668D02*
X35509419Y3889525D01*
X35509419Y3889525D02*
X35509419Y4127620D01*
X35509419Y4127620D02*
X35461800Y4222858D01*
X35461800Y4222858D02*
X35414180Y4270477D01*
X35414180Y4270477D02*
X35318942Y4318096D01*
X35318942Y4318096D02*
X35223704Y4318096D01*
X35223704Y4318096D02*
X35128466Y4270477D01*
X35128466Y4270477D02*
X35080847Y4222858D01*
X35080847Y4222858D02*
X35033228Y4127620D01*
X35033228Y4127620D02*
X34985609Y3937144D01*
X34985609Y3937144D02*
X34937990Y3841906D01*
X34937990Y3841906D02*
X34890371Y3794287D01*
X34890371Y3794287D02*
X34795133Y3746668D01*
X34795133Y3746668D02*
X34699895Y3746668D01*
X34699895Y3746668D02*
X34604657Y3794287D01*
X34604657Y3794287D02*
X34557038Y3841906D01*
X34557038Y3841906D02*
X34509419Y3937144D01*
X34509419Y3937144D02*
X34509419Y4175239D01*
X34509419Y4175239D02*
X34557038Y4318096D01*
X34509419Y4651430D02*
X35509419Y4889525D01*
X35509419Y4889525D02*
X34795133Y5080001D01*
X34795133Y5080001D02*
X35509419Y5270477D01*
X35509419Y5270477D02*
X34509419Y5508572D01*
X35509419Y6413334D02*
X35509419Y5841906D01*
X35509419Y6127620D02*
X34509419Y6127620D01*
X34509419Y6127620D02*
X34652276Y6032382D01*
X34652276Y6032382D02*
X34747514Y5937144D01*
X34747514Y5937144D02*
X34795133Y5841906D01*
D11*
X12500819Y4706667D02*
X13215104Y4706667D01*
X13215104Y4706667D02*
X13357961Y4659048D01*
X13357961Y4659048D02*
X13453200Y4563810D01*
X13453200Y4563810D02*
X13500819Y4420953D01*
X13500819Y4420953D02*
X13500819Y4325715D01*
X13500819Y5706667D02*
X13500819Y5135239D01*
X13500819Y5420953D02*
X12500819Y5420953D01*
X12500819Y5420953D02*
X12643676Y5325715D01*
X12643676Y5325715D02*
X12738914Y5230477D01*
X12738914Y5230477D02*
X12786533Y5135239D01*
D10*
%TO.C,SW1*%
X36195000Y9017000D02*
X38735000Y9017000D01*
X38735000Y9017000D02*
X38735000Y1397000D01*
X38735000Y1397000D02*
X36195000Y1397000D01*
X36195000Y1397000D02*
X36195000Y9017000D01*
X36195000Y9017000D02*
X50165000Y9017000D01*
X50165000Y9017000D02*
X50165000Y1397000D01*
X50165000Y1397000D02*
X36195000Y1397000D01*
X36195000Y1397000D02*
X36195000Y9017000D01*
X48677102Y5207000D02*
G75*
G03*
X48677102Y5207000I-3592102J0D01*
G01*
D12*
%TO.C,J1*%
X11956000Y10100000D02*
X11956000Y8680000D01*
X236000Y10100000D02*
X11956000Y10100000D01*
X11956000Y8680000D02*
X7456000Y8680000D01*
X7456000Y8680000D02*
X7456000Y5040000D01*
X11646000Y7840000D02*
X11646000Y7240000D01*
X6346000Y7790000D02*
X846000Y7790000D01*
X846000Y7790000D02*
X846000Y7290000D01*
X11046000Y7540000D02*
X11646000Y7840000D01*
X6346000Y7290000D02*
X6346000Y7790000D01*
X846000Y7290000D02*
X6346000Y7290000D01*
X11646000Y7240000D02*
X11046000Y7540000D01*
X6346000Y5290000D02*
X846000Y5290000D01*
X846000Y5290000D02*
X846000Y4790000D01*
X236000Y5040000D02*
X236000Y10100000D01*
X236000Y5040000D02*
X236000Y-20000D01*
X6346000Y4790000D02*
X6346000Y5290000D01*
X846000Y4790000D02*
X6346000Y4790000D01*
X6346000Y2790000D02*
X846000Y2790000D01*
X846000Y2790000D02*
X846000Y2290000D01*
X6346000Y2290000D02*
X6346000Y2790000D01*
X846000Y2290000D02*
X6346000Y2290000D01*
X11956000Y1400000D02*
X7456000Y1400000D01*
X7456000Y1400000D02*
X7456000Y5040000D01*
X11956000Y-20000D02*
X11956000Y1400000D01*
X236000Y-20000D02*
X11956000Y-20000D01*
%TD*%
%LPC*%
D13*
%TO.C,SW1*%
X37465000Y7747000D03*
X37465000Y5207000D03*
X37465000Y2667000D03*
%TD*%
D14*
%TO.C,REF\u002A\u002A*%
X20320000Y5080000D03*
%TD*%
D15*
%TO.C,J1*%
X9546000Y7540000D03*
D16*
X9546000Y5040000D03*
X9546000Y2540000D03*
%TD*%
%LPD*%
M02*
