%TF.GenerationSoftware,KiCad,Pcbnew,8.0.5*%
%TF.CreationDate,2024-10-07T02:08:43+09:00*%
%TF.ProjectId,_____,b5fcdcfa-7f2e-46b6-9963-61645f706362,rev?*%
%TF.SameCoordinates,Original*%
%TF.FileFunction,Profile,NP*%
%FSLAX46Y46*%
G04 Gerber Fmt 4.6, Leading zero omitted, Abs format (unit mm)*
G04 Created by KiCad (PCBNEW 8.0.5) date 2024-10-07 02:08:43*
%MOMM*%
%LPD*%
G01*
G04 APERTURE LIST*
%TA.AperFunction,Profile*%
%ADD10C,0.100000*%
%TD*%
G04 APERTURE END LIST*
D10*
X141478000Y-68453000D02*
X143764000Y-68453000D01*
X136271000Y-73660000D02*
X141478000Y-68453000D01*
X143764000Y-28575000D02*
X141478000Y-28575000D01*
X23749000Y-68580000D02*
X23749000Y-28575000D01*
X49784000Y-20574000D02*
X33782000Y-20574000D01*
X51816000Y-18542000D02*
X49784000Y-20574000D01*
X31242000Y-188595000D02*
X26162000Y-183515000D01*
X31369000Y-125857000D02*
X31369000Y-73660000D01*
X26035000Y-28575000D02*
X23749000Y-28575000D01*
X26289000Y-68580000D02*
X23749000Y-68580000D01*
X143764000Y-130810000D02*
X141224000Y-130810000D01*
X117729000Y-20574000D02*
X115697000Y-18542000D01*
X26035000Y-28575000D02*
X31242000Y-23368000D01*
X31242000Y-23368000D02*
X33782000Y-23368000D01*
X136271000Y-23368000D02*
X133731000Y-23368000D01*
X141351000Y-183515000D02*
X143764000Y-183515000D01*
X143764000Y-177673000D02*
X143764000Y-130810000D01*
X73660000Y-77978000D02*
X99695000Y-77978000D01*
X99695000Y-84963000D01*
X73660000Y-84963000D01*
X73660000Y-77978000D01*
X34290000Y-102362000D02*
X49530000Y-102362000D01*
X49530000Y-128016000D01*
X34290000Y-128016000D01*
X34290000Y-102362000D01*
X133731000Y-20574000D02*
X117729000Y-20574000D01*
X143764000Y-68453000D02*
X143764000Y-28575000D01*
X136017000Y-188595000D02*
X136144000Y-188595000D01*
X31369000Y-73660000D02*
X26289000Y-68580000D01*
X33782000Y-20574000D02*
X33782000Y-23368000D01*
X109753400Y-28930600D02*
G75*
G02*
X104753400Y-28930600I-2500000J0D01*
G01*
X104753400Y-28930600D02*
G75*
G02*
X109753400Y-28930600I2500000J0D01*
G01*
X26289000Y-130937000D02*
X31242000Y-125984000D01*
X136144000Y-188595000D02*
X136271000Y-188595000D01*
X31369000Y-188595000D02*
X31242000Y-188595000D01*
X31369000Y-188595000D02*
X136017000Y-188595000D01*
X26162000Y-183515000D02*
X23876000Y-183515000D01*
X31242000Y-125984000D02*
X31369000Y-125857000D01*
X136271000Y-188595000D02*
X141351000Y-183515000D01*
X136271000Y-125857000D02*
X136271000Y-73660000D01*
X115697000Y-18542000D02*
X51816000Y-18542000D01*
X133731000Y-23368000D02*
X133731000Y-20574000D01*
X141478000Y-28575000D02*
X136271000Y-23368000D01*
X86320000Y-60833000D02*
G75*
G02*
X81320000Y-60833000I-2500000J0D01*
G01*
X81320000Y-60833000D02*
G75*
G02*
X86320000Y-60833000I2500000J0D01*
G01*
X143764000Y-183515000D02*
X143764000Y-177673000D01*
X23876000Y-130937000D02*
X26289000Y-130937000D01*
X141224000Y-130810000D02*
X136271000Y-125857000D01*
X23876000Y-183515000D02*
X23876000Y-130937000D01*
X62941200Y-28930600D02*
G75*
G02*
X57941200Y-28930600I-2500000J0D01*
G01*
X57941200Y-28930600D02*
G75*
G02*
X62941200Y-28930600I2500000J0D01*
G01*
M02*
