%TF.GenerationSoftware,KiCad,Pcbnew,8.0.5*%
%TF.CreationDate,2024-10-07T02:08:43+09:00*%
%TF.ProjectId,_____,b5fcdcfa-7f2e-46b6-9963-61645f706362,rev?*%
%TF.SameCoordinates,Original*%
%TF.FileFunction,Legend,Bot*%
%TF.FilePolarity,Positive*%
%FSLAX46Y46*%
G04 Gerber Fmt 4.6, Leading zero omitted, Abs format (unit mm)*
G04 Created by KiCad (PCBNEW 8.0.5) date 2024-10-07 02:08:43*
%MOMM*%
%LPD*%
G01*
G04 APERTURE LIST*
%ADD10C,0.150000*%
%ADD11C,0.100000*%
%ADD12C,0.508000*%
%ADD13C,0.120000*%
%ADD14C,0.200000*%
G04 APERTURE END LIST*
D10*
X41110819Y-40846476D02*
X41825104Y-40846476D01*
X41825104Y-40846476D02*
X41967961Y-40798857D01*
X41967961Y-40798857D02*
X42063200Y-40703619D01*
X42063200Y-40703619D02*
X42110819Y-40560762D01*
X42110819Y-40560762D02*
X42110819Y-40465524D01*
X42110819Y-41846476D02*
X42110819Y-41275048D01*
X42110819Y-41560762D02*
X41110819Y-41560762D01*
X41110819Y-41560762D02*
X41253676Y-41465524D01*
X41253676Y-41465524D02*
X41348914Y-41370286D01*
X41348914Y-41370286D02*
X41396533Y-41275048D01*
X41206057Y-42227429D02*
X41158438Y-42275048D01*
X41158438Y-42275048D02*
X41110819Y-42370286D01*
X41110819Y-42370286D02*
X41110819Y-42608381D01*
X41110819Y-42608381D02*
X41158438Y-42703619D01*
X41158438Y-42703619D02*
X41206057Y-42751238D01*
X41206057Y-42751238D02*
X41301295Y-42798857D01*
X41301295Y-42798857D02*
X41396533Y-42798857D01*
X41396533Y-42798857D02*
X41539390Y-42751238D01*
X41539390Y-42751238D02*
X42110819Y-42179810D01*
X42110819Y-42179810D02*
X42110819Y-42798857D01*
X44793819Y-40846476D02*
X45508104Y-40846476D01*
X45508104Y-40846476D02*
X45650961Y-40798857D01*
X45650961Y-40798857D02*
X45746200Y-40703619D01*
X45746200Y-40703619D02*
X45793819Y-40560762D01*
X45793819Y-40560762D02*
X45793819Y-40465524D01*
X45793819Y-41846476D02*
X45793819Y-41275048D01*
X45793819Y-41560762D02*
X44793819Y-41560762D01*
X44793819Y-41560762D02*
X44936676Y-41465524D01*
X44936676Y-41465524D02*
X45031914Y-41370286D01*
X45031914Y-41370286D02*
X45079533Y-41275048D01*
X44793819Y-42179810D02*
X44793819Y-42798857D01*
X44793819Y-42798857D02*
X45174771Y-42465524D01*
X45174771Y-42465524D02*
X45174771Y-42608381D01*
X45174771Y-42608381D02*
X45222390Y-42703619D01*
X45222390Y-42703619D02*
X45270009Y-42751238D01*
X45270009Y-42751238D02*
X45365247Y-42798857D01*
X45365247Y-42798857D02*
X45603342Y-42798857D01*
X45603342Y-42798857D02*
X45698580Y-42751238D01*
X45698580Y-42751238D02*
X45746200Y-42703619D01*
X45746200Y-42703619D02*
X45793819Y-42608381D01*
X45793819Y-42608381D02*
X45793819Y-42322667D01*
X45793819Y-42322667D02*
X45746200Y-42227429D01*
X45746200Y-42227429D02*
X45698580Y-42179810D01*
X94450123Y-100264819D02*
X94450123Y-100979104D01*
X94450123Y-100979104D02*
X94497742Y-101121961D01*
X94497742Y-101121961D02*
X94592980Y-101217200D01*
X94592980Y-101217200D02*
X94735837Y-101264819D01*
X94735837Y-101264819D02*
X94831075Y-101264819D01*
X94021551Y-100360057D02*
X93973932Y-100312438D01*
X93973932Y-100312438D02*
X93878694Y-100264819D01*
X93878694Y-100264819D02*
X93640599Y-100264819D01*
X93640599Y-100264819D02*
X93545361Y-100312438D01*
X93545361Y-100312438D02*
X93497742Y-100360057D01*
X93497742Y-100360057D02*
X93450123Y-100455295D01*
X93450123Y-100455295D02*
X93450123Y-100550533D01*
X93450123Y-100550533D02*
X93497742Y-100693390D01*
X93497742Y-100693390D02*
X94069170Y-101264819D01*
X94069170Y-101264819D02*
X93450123Y-101264819D01*
X92497742Y-101264819D02*
X93069170Y-101264819D01*
X92783456Y-101264819D02*
X92783456Y-100264819D01*
X92783456Y-100264819D02*
X92878694Y-100407676D01*
X92878694Y-100407676D02*
X92973932Y-100502914D01*
X92973932Y-100502914D02*
X93069170Y-100550533D01*
X42243333Y-99784819D02*
X42243333Y-100499104D01*
X42243333Y-100499104D02*
X42290952Y-100641961D01*
X42290952Y-100641961D02*
X42386190Y-100737200D01*
X42386190Y-100737200D02*
X42529047Y-100784819D01*
X42529047Y-100784819D02*
X42624285Y-100784819D01*
X41243333Y-100784819D02*
X41814761Y-100784819D01*
X41529047Y-100784819D02*
X41529047Y-99784819D01*
X41529047Y-99784819D02*
X41624285Y-99927676D01*
X41624285Y-99927676D02*
X41719523Y-100022914D01*
X41719523Y-100022914D02*
X41814761Y-100070533D01*
X36967828Y-88463500D02*
X35824971Y-88463500D01*
X36396399Y-89034928D02*
X36396399Y-87892071D01*
X47967828Y-88463500D02*
X46824971Y-88463500D01*
D11*
X84581904Y-17237419D02*
X84581904Y-18046942D01*
X84581904Y-18046942D02*
X84534285Y-18142180D01*
X84534285Y-18142180D02*
X84486666Y-18189800D01*
X84486666Y-18189800D02*
X84391428Y-18237419D01*
X84391428Y-18237419D02*
X84200952Y-18237419D01*
X84200952Y-18237419D02*
X84105714Y-18189800D01*
X84105714Y-18189800D02*
X84058095Y-18142180D01*
X84058095Y-18142180D02*
X84010476Y-18046942D01*
X84010476Y-18046942D02*
X84010476Y-17237419D01*
X83629523Y-17237419D02*
X83010476Y-17237419D01*
X83010476Y-17237419D02*
X83343809Y-17618371D01*
X83343809Y-17618371D02*
X83200952Y-17618371D01*
X83200952Y-17618371D02*
X83105714Y-17665990D01*
X83105714Y-17665990D02*
X83058095Y-17713609D01*
X83058095Y-17713609D02*
X83010476Y-17808847D01*
X83010476Y-17808847D02*
X83010476Y-18046942D01*
X83010476Y-18046942D02*
X83058095Y-18142180D01*
X83058095Y-18142180D02*
X83105714Y-18189800D01*
X83105714Y-18189800D02*
X83200952Y-18237419D01*
X83200952Y-18237419D02*
X83486666Y-18237419D01*
X83486666Y-18237419D02*
X83581904Y-18189800D01*
X83581904Y-18189800D02*
X83629523Y-18142180D01*
X88072306Y-22732419D02*
X88643734Y-22732419D01*
X88358020Y-22732419D02*
X88358020Y-21732419D01*
X88358020Y-21732419D02*
X88453258Y-21875276D01*
X88453258Y-21875276D02*
X88548496Y-21970514D01*
X88548496Y-21970514D02*
X88643734Y-22018133D01*
X102777580Y-50926904D02*
X101968057Y-50926904D01*
X101968057Y-50926904D02*
X101872819Y-50879285D01*
X101872819Y-50879285D02*
X101825200Y-50831666D01*
X101825200Y-50831666D02*
X101777580Y-50736428D01*
X101777580Y-50736428D02*
X101777580Y-50545952D01*
X101777580Y-50545952D02*
X101825200Y-50450714D01*
X101825200Y-50450714D02*
X101872819Y-50403095D01*
X101872819Y-50403095D02*
X101968057Y-50355476D01*
X101968057Y-50355476D02*
X102777580Y-50355476D01*
X102349009Y-49736428D02*
X102396628Y-49831666D01*
X102396628Y-49831666D02*
X102444247Y-49879285D01*
X102444247Y-49879285D02*
X102539485Y-49926904D01*
X102539485Y-49926904D02*
X102587104Y-49926904D01*
X102587104Y-49926904D02*
X102682342Y-49879285D01*
X102682342Y-49879285D02*
X102729961Y-49831666D01*
X102729961Y-49831666D02*
X102777580Y-49736428D01*
X102777580Y-49736428D02*
X102777580Y-49545952D01*
X102777580Y-49545952D02*
X102729961Y-49450714D01*
X102729961Y-49450714D02*
X102682342Y-49403095D01*
X102682342Y-49403095D02*
X102587104Y-49355476D01*
X102587104Y-49355476D02*
X102539485Y-49355476D01*
X102539485Y-49355476D02*
X102444247Y-49403095D01*
X102444247Y-49403095D02*
X102396628Y-49450714D01*
X102396628Y-49450714D02*
X102349009Y-49545952D01*
X102349009Y-49545952D02*
X102349009Y-49736428D01*
X102349009Y-49736428D02*
X102301390Y-49831666D01*
X102301390Y-49831666D02*
X102253771Y-49879285D01*
X102253771Y-49879285D02*
X102158533Y-49926904D01*
X102158533Y-49926904D02*
X101968057Y-49926904D01*
X101968057Y-49926904D02*
X101872819Y-49879285D01*
X101872819Y-49879285D02*
X101825200Y-49831666D01*
X101825200Y-49831666D02*
X101777580Y-49736428D01*
X101777580Y-49736428D02*
X101777580Y-49545952D01*
X101777580Y-49545952D02*
X101825200Y-49450714D01*
X101825200Y-49450714D02*
X101872819Y-49403095D01*
X101872819Y-49403095D02*
X101968057Y-49355476D01*
X101968057Y-49355476D02*
X102158533Y-49355476D01*
X102158533Y-49355476D02*
X102253771Y-49403095D01*
X102253771Y-49403095D02*
X102301390Y-49450714D01*
X102301390Y-49450714D02*
X102349009Y-49545952D01*
D10*
X64351819Y-48926905D02*
X65161342Y-48926905D01*
X65161342Y-48926905D02*
X65256580Y-48974524D01*
X65256580Y-48974524D02*
X65304200Y-49022143D01*
X65304200Y-49022143D02*
X65351819Y-49117381D01*
X65351819Y-49117381D02*
X65351819Y-49307857D01*
X65351819Y-49307857D02*
X65304200Y-49403095D01*
X65304200Y-49403095D02*
X65256580Y-49450714D01*
X65256580Y-49450714D02*
X65161342Y-49498333D01*
X65161342Y-49498333D02*
X64351819Y-49498333D01*
X65351819Y-50498333D02*
X65351819Y-49926905D01*
X65351819Y-50212619D02*
X64351819Y-50212619D01*
X64351819Y-50212619D02*
X64494676Y-50117381D01*
X64494676Y-50117381D02*
X64589914Y-50022143D01*
X64589914Y-50022143D02*
X64637533Y-49926905D01*
X64351819Y-51117381D02*
X64351819Y-51212619D01*
X64351819Y-51212619D02*
X64399438Y-51307857D01*
X64399438Y-51307857D02*
X64447057Y-51355476D01*
X64447057Y-51355476D02*
X64542295Y-51403095D01*
X64542295Y-51403095D02*
X64732771Y-51450714D01*
X64732771Y-51450714D02*
X64970866Y-51450714D01*
X64970866Y-51450714D02*
X65161342Y-51403095D01*
X65161342Y-51403095D02*
X65256580Y-51355476D01*
X65256580Y-51355476D02*
X65304200Y-51307857D01*
X65304200Y-51307857D02*
X65351819Y-51212619D01*
X65351819Y-51212619D02*
X65351819Y-51117381D01*
X65351819Y-51117381D02*
X65304200Y-51022143D01*
X65304200Y-51022143D02*
X65256580Y-50974524D01*
X65256580Y-50974524D02*
X65161342Y-50926905D01*
X65161342Y-50926905D02*
X64970866Y-50879286D01*
X64970866Y-50879286D02*
X64732771Y-50879286D01*
X64732771Y-50879286D02*
X64542295Y-50926905D01*
X64542295Y-50926905D02*
X64447057Y-50974524D01*
X64447057Y-50974524D02*
X64399438Y-51022143D01*
X64399438Y-51022143D02*
X64351819Y-51117381D01*
X94559333Y-50096009D02*
X94892666Y-50096009D01*
X94892666Y-50619819D02*
X94892666Y-49619819D01*
X94892666Y-49619819D02*
X94416476Y-49619819D01*
X93702190Y-50096009D02*
X93559333Y-50143628D01*
X93559333Y-50143628D02*
X93511714Y-50191247D01*
X93511714Y-50191247D02*
X93464095Y-50286485D01*
X93464095Y-50286485D02*
X93464095Y-50429342D01*
X93464095Y-50429342D02*
X93511714Y-50524580D01*
X93511714Y-50524580D02*
X93559333Y-50572200D01*
X93559333Y-50572200D02*
X93654571Y-50619819D01*
X93654571Y-50619819D02*
X94035523Y-50619819D01*
X94035523Y-50619819D02*
X94035523Y-49619819D01*
X94035523Y-49619819D02*
X93702190Y-49619819D01*
X93702190Y-49619819D02*
X93606952Y-49667438D01*
X93606952Y-49667438D02*
X93559333Y-49715057D01*
X93559333Y-49715057D02*
X93511714Y-49810295D01*
X93511714Y-49810295D02*
X93511714Y-49905533D01*
X93511714Y-49905533D02*
X93559333Y-50000771D01*
X93559333Y-50000771D02*
X93606952Y-50048390D01*
X93606952Y-50048390D02*
X93702190Y-50096009D01*
X93702190Y-50096009D02*
X94035523Y-50096009D01*
X93083142Y-49715057D02*
X93035523Y-49667438D01*
X93035523Y-49667438D02*
X92940285Y-49619819D01*
X92940285Y-49619819D02*
X92702190Y-49619819D01*
X92702190Y-49619819D02*
X92606952Y-49667438D01*
X92606952Y-49667438D02*
X92559333Y-49715057D01*
X92559333Y-49715057D02*
X92511714Y-49810295D01*
X92511714Y-49810295D02*
X92511714Y-49905533D01*
X92511714Y-49905533D02*
X92559333Y-50048390D01*
X92559333Y-50048390D02*
X93130761Y-50619819D01*
X93130761Y-50619819D02*
X92511714Y-50619819D01*
D11*
X84362580Y-50926904D02*
X83553057Y-50926904D01*
X83553057Y-50926904D02*
X83457819Y-50879285D01*
X83457819Y-50879285D02*
X83410200Y-50831666D01*
X83410200Y-50831666D02*
X83362580Y-50736428D01*
X83362580Y-50736428D02*
X83362580Y-50545952D01*
X83362580Y-50545952D02*
X83410200Y-50450714D01*
X83410200Y-50450714D02*
X83457819Y-50403095D01*
X83457819Y-50403095D02*
X83553057Y-50355476D01*
X83553057Y-50355476D02*
X84362580Y-50355476D01*
X83362580Y-49831666D02*
X83362580Y-49641190D01*
X83362580Y-49641190D02*
X83410200Y-49545952D01*
X83410200Y-49545952D02*
X83457819Y-49498333D01*
X83457819Y-49498333D02*
X83600676Y-49403095D01*
X83600676Y-49403095D02*
X83791152Y-49355476D01*
X83791152Y-49355476D02*
X84172104Y-49355476D01*
X84172104Y-49355476D02*
X84267342Y-49403095D01*
X84267342Y-49403095D02*
X84314961Y-49450714D01*
X84314961Y-49450714D02*
X84362580Y-49545952D01*
X84362580Y-49545952D02*
X84362580Y-49736428D01*
X84362580Y-49736428D02*
X84314961Y-49831666D01*
X84314961Y-49831666D02*
X84267342Y-49879285D01*
X84267342Y-49879285D02*
X84172104Y-49926904D01*
X84172104Y-49926904D02*
X83934009Y-49926904D01*
X83934009Y-49926904D02*
X83838771Y-49879285D01*
X83838771Y-49879285D02*
X83791152Y-49831666D01*
X83791152Y-49831666D02*
X83743533Y-49736428D01*
X83743533Y-49736428D02*
X83743533Y-49545952D01*
X83743533Y-49545952D02*
X83791152Y-49450714D01*
X83791152Y-49450714D02*
X83838771Y-49403095D01*
X83838771Y-49403095D02*
X83934009Y-49355476D01*
D10*
X80480123Y-100264819D02*
X80480123Y-100979104D01*
X80480123Y-100979104D02*
X80527742Y-101121961D01*
X80527742Y-101121961D02*
X80622980Y-101217200D01*
X80622980Y-101217200D02*
X80765837Y-101264819D01*
X80765837Y-101264819D02*
X80861075Y-101264819D01*
X80051551Y-100360057D02*
X80003932Y-100312438D01*
X80003932Y-100312438D02*
X79908694Y-100264819D01*
X79908694Y-100264819D02*
X79670599Y-100264819D01*
X79670599Y-100264819D02*
X79575361Y-100312438D01*
X79575361Y-100312438D02*
X79527742Y-100360057D01*
X79527742Y-100360057D02*
X79480123Y-100455295D01*
X79480123Y-100455295D02*
X79480123Y-100550533D01*
X79480123Y-100550533D02*
X79527742Y-100693390D01*
X79527742Y-100693390D02*
X80099170Y-101264819D01*
X80099170Y-101264819D02*
X79480123Y-101264819D01*
X78861075Y-100264819D02*
X78765837Y-100264819D01*
X78765837Y-100264819D02*
X78670599Y-100312438D01*
X78670599Y-100312438D02*
X78622980Y-100360057D01*
X78622980Y-100360057D02*
X78575361Y-100455295D01*
X78575361Y-100455295D02*
X78527742Y-100645771D01*
X78527742Y-100645771D02*
X78527742Y-100883866D01*
X78527742Y-100883866D02*
X78575361Y-101074342D01*
X78575361Y-101074342D02*
X78622980Y-101169580D01*
X78622980Y-101169580D02*
X78670599Y-101217200D01*
X78670599Y-101217200D02*
X78765837Y-101264819D01*
X78765837Y-101264819D02*
X78861075Y-101264819D01*
X78861075Y-101264819D02*
X78956313Y-101217200D01*
X78956313Y-101217200D02*
X79003932Y-101169580D01*
X79003932Y-101169580D02*
X79051551Y-101074342D01*
X79051551Y-101074342D02*
X79099170Y-100883866D01*
X79099170Y-100883866D02*
X79099170Y-100645771D01*
X79099170Y-100645771D02*
X79051551Y-100455295D01*
X79051551Y-100455295D02*
X79003932Y-100360057D01*
X79003932Y-100360057D02*
X78956313Y-100312438D01*
X78956313Y-100312438D02*
X78861075Y-100264819D01*
X58154819Y-67063666D02*
X58869104Y-67063666D01*
X58869104Y-67063666D02*
X59011961Y-67016047D01*
X59011961Y-67016047D02*
X59107200Y-66920809D01*
X59107200Y-66920809D02*
X59154819Y-66777952D01*
X59154819Y-66777952D02*
X59154819Y-66682714D01*
X58250057Y-67492238D02*
X58202438Y-67539857D01*
X58202438Y-67539857D02*
X58154819Y-67635095D01*
X58154819Y-67635095D02*
X58154819Y-67873190D01*
X58154819Y-67873190D02*
X58202438Y-67968428D01*
X58202438Y-67968428D02*
X58250057Y-68016047D01*
X58250057Y-68016047D02*
X58345295Y-68063666D01*
X58345295Y-68063666D02*
X58440533Y-68063666D01*
X58440533Y-68063666D02*
X58583390Y-68016047D01*
X58583390Y-68016047D02*
X59154819Y-67444619D01*
X59154819Y-67444619D02*
X59154819Y-68063666D01*
X90275580Y-50919142D02*
X90323200Y-50871523D01*
X90323200Y-50871523D02*
X90370819Y-50728666D01*
X90370819Y-50728666D02*
X90370819Y-50633428D01*
X90370819Y-50633428D02*
X90323200Y-50490571D01*
X90323200Y-50490571D02*
X90227961Y-50395333D01*
X90227961Y-50395333D02*
X90132723Y-50347714D01*
X90132723Y-50347714D02*
X89942247Y-50300095D01*
X89942247Y-50300095D02*
X89799390Y-50300095D01*
X89799390Y-50300095D02*
X89608914Y-50347714D01*
X89608914Y-50347714D02*
X89513676Y-50395333D01*
X89513676Y-50395333D02*
X89418438Y-50490571D01*
X89418438Y-50490571D02*
X89370819Y-50633428D01*
X89370819Y-50633428D02*
X89370819Y-50728666D01*
X89370819Y-50728666D02*
X89418438Y-50871523D01*
X89418438Y-50871523D02*
X89466057Y-50919142D01*
X90370819Y-51871523D02*
X90370819Y-51300095D01*
X90370819Y-51585809D02*
X89370819Y-51585809D01*
X89370819Y-51585809D02*
X89513676Y-51490571D01*
X89513676Y-51490571D02*
X89608914Y-51395333D01*
X89608914Y-51395333D02*
X89656533Y-51300095D01*
X89370819Y-52728666D02*
X89370819Y-52538190D01*
X89370819Y-52538190D02*
X89418438Y-52442952D01*
X89418438Y-52442952D02*
X89466057Y-52395333D01*
X89466057Y-52395333D02*
X89608914Y-52300095D01*
X89608914Y-52300095D02*
X89799390Y-52252476D01*
X89799390Y-52252476D02*
X90180342Y-52252476D01*
X90180342Y-52252476D02*
X90275580Y-52300095D01*
X90275580Y-52300095D02*
X90323200Y-52347714D01*
X90323200Y-52347714D02*
X90370819Y-52442952D01*
X90370819Y-52442952D02*
X90370819Y-52633428D01*
X90370819Y-52633428D02*
X90323200Y-52728666D01*
X90323200Y-52728666D02*
X90275580Y-52776285D01*
X90275580Y-52776285D02*
X90180342Y-52823904D01*
X90180342Y-52823904D02*
X89942247Y-52823904D01*
X89942247Y-52823904D02*
X89847009Y-52776285D01*
X89847009Y-52776285D02*
X89799390Y-52728666D01*
X89799390Y-52728666D02*
X89751771Y-52633428D01*
X89751771Y-52633428D02*
X89751771Y-52442952D01*
X89751771Y-52442952D02*
X89799390Y-52347714D01*
X89799390Y-52347714D02*
X89847009Y-52300095D01*
X89847009Y-52300095D02*
X89942247Y-52252476D01*
X76914819Y-171901666D02*
X77629104Y-171901666D01*
X77629104Y-171901666D02*
X77771961Y-171854047D01*
X77771961Y-171854047D02*
X77867200Y-171758809D01*
X77867200Y-171758809D02*
X77914819Y-171615952D01*
X77914819Y-171615952D02*
X77914819Y-171520714D01*
X77914819Y-172425476D02*
X77914819Y-172615952D01*
X77914819Y-172615952D02*
X77867200Y-172711190D01*
X77867200Y-172711190D02*
X77819580Y-172758809D01*
X77819580Y-172758809D02*
X77676723Y-172854047D01*
X77676723Y-172854047D02*
X77486247Y-172901666D01*
X77486247Y-172901666D02*
X77105295Y-172901666D01*
X77105295Y-172901666D02*
X77010057Y-172854047D01*
X77010057Y-172854047D02*
X76962438Y-172806428D01*
X76962438Y-172806428D02*
X76914819Y-172711190D01*
X76914819Y-172711190D02*
X76914819Y-172520714D01*
X76914819Y-172520714D02*
X76962438Y-172425476D01*
X76962438Y-172425476D02*
X77010057Y-172377857D01*
X77010057Y-172377857D02*
X77105295Y-172330238D01*
X77105295Y-172330238D02*
X77343390Y-172330238D01*
X77343390Y-172330238D02*
X77438628Y-172377857D01*
X77438628Y-172377857D02*
X77486247Y-172425476D01*
X77486247Y-172425476D02*
X77533866Y-172520714D01*
X77533866Y-172520714D02*
X77533866Y-172711190D01*
X77533866Y-172711190D02*
X77486247Y-172806428D01*
X77486247Y-172806428D02*
X77438628Y-172854047D01*
X77438628Y-172854047D02*
X77343390Y-172901666D01*
X94622857Y-48746580D02*
X94670476Y-48794200D01*
X94670476Y-48794200D02*
X94813333Y-48841819D01*
X94813333Y-48841819D02*
X94908571Y-48841819D01*
X94908571Y-48841819D02*
X95051428Y-48794200D01*
X95051428Y-48794200D02*
X95146666Y-48698961D01*
X95146666Y-48698961D02*
X95194285Y-48603723D01*
X95194285Y-48603723D02*
X95241904Y-48413247D01*
X95241904Y-48413247D02*
X95241904Y-48270390D01*
X95241904Y-48270390D02*
X95194285Y-48079914D01*
X95194285Y-48079914D02*
X95146666Y-47984676D01*
X95146666Y-47984676D02*
X95051428Y-47889438D01*
X95051428Y-47889438D02*
X94908571Y-47841819D01*
X94908571Y-47841819D02*
X94813333Y-47841819D01*
X94813333Y-47841819D02*
X94670476Y-47889438D01*
X94670476Y-47889438D02*
X94622857Y-47937057D01*
X93670476Y-48841819D02*
X94241904Y-48841819D01*
X93956190Y-48841819D02*
X93956190Y-47841819D01*
X93956190Y-47841819D02*
X94051428Y-47984676D01*
X94051428Y-47984676D02*
X94146666Y-48079914D01*
X94146666Y-48079914D02*
X94241904Y-48127533D01*
X92813333Y-48175152D02*
X92813333Y-48841819D01*
X93051428Y-47794200D02*
X93289523Y-48508485D01*
X93289523Y-48508485D02*
X92670476Y-48508485D01*
X41354333Y-61303819D02*
X41354333Y-62018104D01*
X41354333Y-62018104D02*
X41401952Y-62160961D01*
X41401952Y-62160961D02*
X41497190Y-62256200D01*
X41497190Y-62256200D02*
X41640047Y-62303819D01*
X41640047Y-62303819D02*
X41735285Y-62303819D01*
X40973380Y-61303819D02*
X40354333Y-61303819D01*
X40354333Y-61303819D02*
X40687666Y-61684771D01*
X40687666Y-61684771D02*
X40544809Y-61684771D01*
X40544809Y-61684771D02*
X40449571Y-61732390D01*
X40449571Y-61732390D02*
X40401952Y-61780009D01*
X40401952Y-61780009D02*
X40354333Y-61875247D01*
X40354333Y-61875247D02*
X40354333Y-62113342D01*
X40354333Y-62113342D02*
X40401952Y-62208580D01*
X40401952Y-62208580D02*
X40449571Y-62256200D01*
X40449571Y-62256200D02*
X40544809Y-62303819D01*
X40544809Y-62303819D02*
X40830523Y-62303819D01*
X40830523Y-62303819D02*
X40925761Y-62256200D01*
X40925761Y-62256200D02*
X40973380Y-62208580D01*
D12*
%TO.C,FL1*%
X86781000Y-166116000D02*
G75*
G02*
X86019000Y-166116000I-381000J0D01*
G01*
X86019000Y-166116000D02*
G75*
G02*
X86781000Y-166116000I381000J0D01*
G01*
D13*
%TO.C,J21*%
X87330600Y-88000000D02*
X93640600Y-88000000D01*
X87330600Y-99720000D02*
X87330600Y-88000000D01*
X88750600Y-95220000D02*
X88750600Y-99720000D01*
X88750600Y-99720000D02*
X87330600Y-99720000D01*
X89590600Y-99410000D02*
X89890600Y-98810000D01*
X89640600Y-88610000D02*
X89640600Y-94110000D01*
X89640600Y-94110000D02*
X90140600Y-94110000D01*
X89890600Y-98810000D02*
X90190600Y-99410000D01*
X90140600Y-88610000D02*
X89640600Y-88610000D01*
X90140600Y-94110000D02*
X90140600Y-88610000D01*
X90190600Y-99410000D02*
X89590600Y-99410000D01*
X92140600Y-88610000D02*
X92140600Y-94110000D01*
X92140600Y-94110000D02*
X92640600Y-94110000D01*
X92640600Y-88610000D02*
X92140600Y-88610000D01*
X92640600Y-94110000D02*
X92640600Y-88610000D01*
X93640600Y-95220000D02*
X88750600Y-95220000D01*
X93640600Y-95220000D02*
X98530600Y-95220000D01*
X94640600Y-88610000D02*
X94640600Y-94110000D01*
X94640600Y-94110000D02*
X95140600Y-94110000D01*
X95140600Y-88610000D02*
X94640600Y-88610000D01*
X95140600Y-94110000D02*
X95140600Y-88610000D01*
X97140600Y-88610000D02*
X97140600Y-94110000D01*
X97140600Y-94110000D02*
X97640600Y-94110000D01*
X97640600Y-88610000D02*
X97140600Y-88610000D01*
X97640600Y-94110000D02*
X97640600Y-88610000D01*
X98530600Y-95220000D02*
X98530600Y-99720000D01*
X98530600Y-99720000D02*
X99950600Y-99720000D01*
X99950600Y-88000000D02*
X93640600Y-88000000D01*
X99950600Y-99720000D02*
X99950600Y-88000000D01*
%TO.C,J1*%
X36836400Y-92338800D02*
X36836400Y-97238800D01*
X36836400Y-97238800D02*
X36246400Y-97238800D01*
X36836400Y-99458800D02*
X36246400Y-99458800D01*
X36836400Y-99458800D02*
X36836400Y-101558800D01*
X46956400Y-92338800D02*
X36836400Y-92338800D01*
X46956400Y-92338800D02*
X46956400Y-97238800D01*
X46956400Y-99458800D02*
X46956400Y-101558800D01*
X46956400Y-101558800D02*
X36836400Y-101558800D01*
X47546400Y-97238800D02*
X46956400Y-97238800D01*
X47546400Y-99458800D02*
X46956400Y-99458800D01*
X36246400Y-99458800D02*
G75*
G02*
X36246400Y-97238800I0J1110000D01*
G01*
X47546400Y-97238800D02*
G75*
G02*
X47546400Y-99458800I0J-1110000D01*
G01*
%TO.C,U3*%
D11*
X78740000Y-21590000D02*
X76200000Y-21590000D01*
X76200000Y-29210000D01*
X78740000Y-29210000D01*
X78740000Y-21590000D01*
X78740000Y-29210000D02*
X76200000Y-29210000D01*
X76200000Y-39370000D01*
X78740000Y-39370000D01*
X78740000Y-29210000D01*
X86360000Y-19050000D02*
X81280000Y-19050000D01*
X81280000Y-21590000D01*
X86360000Y-21590000D01*
X86360000Y-19050000D01*
D14*
X91440000Y-19050000D02*
X76200000Y-19050000D01*
X76200000Y-39370000D01*
X91440000Y-39370000D01*
X91440000Y-19050000D01*
D11*
X91440000Y-21590000D02*
X88900000Y-21590000D01*
X88900000Y-39370000D01*
X91440000Y-39370000D01*
X91440000Y-21590000D01*
%TO.C,U8*%
X100965000Y-47625000D02*
X90805000Y-47625000D01*
X90805000Y-45085000D01*
X100965000Y-45085000D01*
X100965000Y-47625000D01*
D14*
X100965000Y-55245000D02*
X90805000Y-55245000D01*
X90805000Y-45085000D01*
X100965000Y-45085000D01*
X100965000Y-55245000D01*
D11*
X100965000Y-55245000D02*
X90805000Y-55245000D01*
X90805000Y-52705000D01*
X100965000Y-52705000D01*
X100965000Y-55245000D01*
D13*
%TO.C,U10*%
X51315000Y-45025000D02*
X51315000Y-55305000D01*
X51315000Y-55305000D02*
X76955000Y-55305000D01*
X51375000Y-47515000D02*
X51375000Y-49165000D01*
X51375000Y-51165000D02*
X51375000Y-52815000D01*
X51375000Y-52815000D02*
X76895000Y-52815000D01*
X76895000Y-47515000D02*
X51375000Y-47515000D01*
X76895000Y-52815000D02*
X76895000Y-47515000D01*
X76955000Y-45025000D02*
X51315000Y-45025000D01*
X76955000Y-55305000D02*
X76955000Y-45025000D01*
X51375000Y-49165000D02*
G75*
G02*
X51375000Y-51165000I0J-1000000D01*
G01*
%TO.C,FB2*%
X95895000Y-49430000D02*
X95895000Y-49280000D01*
X95895000Y-50900000D02*
X95895000Y-51050000D01*
X98415000Y-49280000D02*
X95895000Y-49280000D01*
X98415000Y-49430000D02*
X98415000Y-49280000D01*
X98415000Y-50900000D02*
X98415000Y-51050000D01*
X98415000Y-51050000D02*
X95895000Y-51050000D01*
%TO.C,U9*%
D11*
X88900000Y-47625000D02*
X78740000Y-47625000D01*
X78740000Y-45085000D01*
X88900000Y-45085000D01*
X88900000Y-47625000D01*
D14*
X88900000Y-55245000D02*
X78740000Y-55245000D01*
X78740000Y-45085000D01*
X88900000Y-45085000D01*
X88900000Y-55245000D01*
D11*
X88900000Y-55245000D02*
X78740000Y-55245000D01*
X78740000Y-52705000D01*
X88900000Y-52705000D01*
X88900000Y-55245000D01*
D13*
%TO.C,J20*%
X73360600Y-88000000D02*
X79670600Y-88000000D01*
X73360600Y-99720000D02*
X73360600Y-88000000D01*
X74780600Y-95220000D02*
X74780600Y-99720000D01*
X74780600Y-99720000D02*
X73360600Y-99720000D01*
X75620600Y-99410000D02*
X75920600Y-98810000D01*
X75670600Y-88610000D02*
X75670600Y-94110000D01*
X75670600Y-94110000D02*
X76170600Y-94110000D01*
X75920600Y-98810000D02*
X76220600Y-99410000D01*
X76170600Y-88610000D02*
X75670600Y-88610000D01*
X76170600Y-94110000D02*
X76170600Y-88610000D01*
X76220600Y-99410000D02*
X75620600Y-99410000D01*
X78170600Y-88610000D02*
X78170600Y-94110000D01*
X78170600Y-94110000D02*
X78670600Y-94110000D01*
X78670600Y-88610000D02*
X78170600Y-88610000D01*
X78670600Y-94110000D02*
X78670600Y-88610000D01*
X79670600Y-95220000D02*
X74780600Y-95220000D01*
X79670600Y-95220000D02*
X84560600Y-95220000D01*
X80670600Y-88610000D02*
X80670600Y-94110000D01*
X80670600Y-94110000D02*
X81170600Y-94110000D01*
X81170600Y-88610000D02*
X80670600Y-88610000D01*
X81170600Y-94110000D02*
X81170600Y-88610000D01*
X83170600Y-88610000D02*
X83170600Y-94110000D01*
X83170600Y-94110000D02*
X83670600Y-94110000D01*
X83670600Y-88610000D02*
X83170600Y-88610000D01*
X83670600Y-94110000D02*
X83670600Y-88610000D01*
X84560600Y-95220000D02*
X84560600Y-99720000D01*
X84560600Y-99720000D02*
X85980600Y-99720000D01*
X85980600Y-88000000D02*
X79670600Y-88000000D01*
X85980600Y-99720000D02*
X85980600Y-88000000D01*
%TO.C,J2*%
X48700000Y-69597000D02*
X48700000Y-70197000D01*
X48700000Y-70197000D02*
X49300000Y-69897000D01*
X49190000Y-62287000D02*
X57610000Y-62287000D01*
X49190000Y-63507000D02*
X49190000Y-62287000D01*
X49190000Y-71287000D02*
X51390000Y-71287000D01*
X49190000Y-72507000D02*
X49190000Y-71287000D01*
X49300000Y-69897000D02*
X48700000Y-69597000D01*
X51390000Y-62287000D02*
X51390000Y-63507000D01*
X51390000Y-63507000D02*
X49190000Y-63507000D01*
X51390000Y-63507000D02*
X56390000Y-63507000D01*
X51390000Y-66067000D02*
X51390000Y-66227000D01*
X51390000Y-68567000D02*
X51390000Y-68727000D01*
X51390000Y-71287000D02*
X56390000Y-71287000D01*
X51390000Y-72507000D02*
X51390000Y-71287000D01*
X52390000Y-63507000D02*
X52390000Y-71287000D01*
X52390000Y-64577000D02*
X55810000Y-64577000D01*
X52390000Y-64897000D02*
X52390000Y-64577000D01*
X52390000Y-65217000D02*
X52390000Y-64897000D01*
X52390000Y-67077000D02*
X55810000Y-67077000D01*
X52390000Y-67397000D02*
X52390000Y-67077000D01*
X52390000Y-67717000D02*
X52390000Y-67397000D01*
X52390000Y-69577000D02*
X55810000Y-69577000D01*
X52390000Y-69897000D02*
X52390000Y-69577000D01*
X52390000Y-70217000D02*
X52390000Y-69897000D01*
X55810000Y-64577000D02*
X55890000Y-64897000D01*
X55810000Y-65217000D02*
X52390000Y-65217000D01*
X55810000Y-67077000D02*
X55890000Y-67397000D01*
X55810000Y-67717000D02*
X52390000Y-67717000D01*
X55810000Y-69577000D02*
X55890000Y-69897000D01*
X55810000Y-70217000D02*
X52390000Y-70217000D01*
X55890000Y-64897000D02*
X55810000Y-65217000D01*
X55890000Y-67397000D02*
X55810000Y-67717000D01*
X55890000Y-69897000D02*
X55810000Y-70217000D01*
X56390000Y-63507000D02*
X56390000Y-62287000D01*
X56390000Y-71287000D02*
X56390000Y-72507000D01*
X57610000Y-62287000D02*
X57610000Y-72507000D01*
X57610000Y-72507000D02*
X49190000Y-72507000D01*
%TO.C,C16*%
X89355200Y-48087233D02*
X89355200Y-48379767D01*
X90375200Y-48087233D02*
X90375200Y-48379767D01*
%TO.C,J9*%
X78400000Y-166665000D02*
X78400000Y-168275000D01*
X80010000Y-166665000D02*
X78400000Y-166665000D01*
X83900000Y-166215000D02*
X87320000Y-166215000D01*
X83900000Y-178255000D02*
X83900000Y-166215000D01*
X87320000Y-166215000D02*
X87320000Y-167265000D01*
X87320000Y-167265000D02*
X93520000Y-167265000D01*
X87320000Y-177205000D02*
X87320000Y-178255000D01*
X87320000Y-178255000D02*
X83900000Y-178255000D01*
X93520000Y-167265000D02*
X93520000Y-177205000D01*
X93520000Y-169095000D02*
X95020000Y-169095000D01*
X93520000Y-173055000D02*
X95020000Y-173055000D01*
X93520000Y-177015000D02*
X95020000Y-177015000D01*
X93520000Y-177205000D02*
X87320000Y-177205000D01*
X95020000Y-167455000D02*
X93520000Y-167455000D01*
X95020000Y-169095000D02*
X95020000Y-167455000D01*
X95020000Y-171415000D02*
X93520000Y-171415000D01*
X95020000Y-173055000D02*
X95020000Y-171415000D01*
X95020000Y-175375000D02*
X93520000Y-175375000D01*
X95020000Y-177015000D02*
X95020000Y-175375000D01*
%TO.C,C14*%
X96982233Y-47877000D02*
X97274767Y-47877000D01*
X96982233Y-48897000D02*
X97274767Y-48897000D01*
%TO.C,J3*%
X36840000Y-62770000D02*
X47060000Y-62770000D01*
X36840000Y-68990000D02*
X38060000Y-68990000D01*
X36840000Y-71190000D02*
X36840000Y-62770000D01*
X38060000Y-63990000D02*
X36840000Y-63990000D01*
X38060000Y-67990000D02*
X45840000Y-67990000D01*
X38060000Y-68990000D02*
X38060000Y-63990000D01*
X38060000Y-68990000D02*
X38060000Y-71190000D01*
X38060000Y-71190000D02*
X36840000Y-71190000D01*
X39130000Y-64570000D02*
X39450000Y-64490000D01*
X39130000Y-67990000D02*
X39130000Y-64570000D01*
X39450000Y-64490000D02*
X39770000Y-64570000D01*
X39450000Y-67990000D02*
X39130000Y-67990000D01*
X39770000Y-64570000D02*
X39770000Y-67990000D01*
X39770000Y-67990000D02*
X39450000Y-67990000D01*
X40620000Y-68990000D02*
X40780000Y-68990000D01*
X41630000Y-64570000D02*
X41950000Y-64490000D01*
X41630000Y-67990000D02*
X41630000Y-64570000D01*
X41950000Y-64490000D02*
X42270000Y-64570000D01*
X41950000Y-67990000D02*
X41630000Y-67990000D01*
X42270000Y-64570000D02*
X42270000Y-67990000D01*
X42270000Y-67990000D02*
X41950000Y-67990000D01*
X43120000Y-68990000D02*
X43280000Y-68990000D01*
X44130000Y-64570000D02*
X44450000Y-64490000D01*
X44130000Y-67990000D02*
X44130000Y-64570000D01*
X44150000Y-71680000D02*
X44750000Y-71680000D01*
X44450000Y-64490000D02*
X44770000Y-64570000D01*
X44450000Y-67990000D02*
X44130000Y-67990000D01*
X44450000Y-71080000D02*
X44150000Y-71680000D01*
X44750000Y-71680000D02*
X44450000Y-71080000D01*
X44770000Y-64570000D02*
X44770000Y-67990000D01*
X44770000Y-67990000D02*
X44450000Y-67990000D01*
X45840000Y-63990000D02*
X47060000Y-63990000D01*
X45840000Y-68990000D02*
X45840000Y-63990000D01*
X45840000Y-71190000D02*
X45840000Y-68990000D01*
X47060000Y-62770000D02*
X47060000Y-71190000D01*
X47060000Y-68990000D02*
X45840000Y-68990000D01*
X47060000Y-71190000D02*
X45840000Y-71190000D01*
%TD*%
M02*
