%TF.GenerationSoftware,KiCad,Pcbnew,8.0.5*%
%TF.CreationDate,2024-10-04T10:03:27+09:00*%
%TF.ProjectId,_____,e9a4f3fa-7f2e-46b6-9963-61645f706362,rev?*%
%TF.SameCoordinates,Original*%
%TF.FileFunction,Paste,Top*%
%TF.FilePolarity,Positive*%
%FSLAX46Y46*%
G04 Gerber Fmt 4.6, Leading zero omitted, Abs format (unit mm)*
G04 Created by KiCad (PCBNEW 8.0.5) date 2024-10-04 10:03:27*
%MOMM*%
%LPD*%
G01*
G04 APERTURE LIST*
G04 Aperture macros list*
%AMRoundRect*
0 Rectangle with rounded corners*
0 $1 Rounding radius*
0 $2 $3 $4 $5 $6 $7 $8 $9 X,Y pos of 4 corners*
0 Add a 4 corners polygon primitive as box body*
4,1,4,$2,$3,$4,$5,$6,$7,$8,$9,$2,$3,0*
0 Add four circle primitives for the rounded corners*
1,1,$1+$1,$2,$3*
1,1,$1+$1,$4,$5*
1,1,$1+$1,$6,$7*
1,1,$1+$1,$8,$9*
0 Add four rect primitives between the rounded corners*
20,1,$1+$1,$2,$3,$4,$5,0*
20,1,$1+$1,$4,$5,$6,$7,0*
20,1,$1+$1,$6,$7,$8,$9,0*
20,1,$1+$1,$8,$9,$2,$3,0*%
G04 Aperture macros list end*
%ADD10RoundRect,0.237500X-0.237500X0.250000X-0.237500X-0.250000X0.237500X-0.250000X0.237500X0.250000X0*%
%ADD11RoundRect,0.237500X-0.250000X-0.237500X0.250000X-0.237500X0.250000X0.237500X-0.250000X0.237500X0*%
%ADD12RoundRect,0.237500X0.237500X-0.300000X0.237500X0.300000X-0.237500X0.300000X-0.237500X-0.300000X0*%
%ADD13RoundRect,0.237500X0.250000X0.237500X-0.250000X0.237500X-0.250000X-0.237500X0.250000X-0.237500X0*%
%ADD14R,0.950000X1.200000*%
G04 APERTURE END LIST*
D10*
%TO.C,R5*%
X133440886Y-88238500D03*
X133440886Y-90063500D03*
%TD*%
D11*
%TO.C,R14*%
X90110386Y-84452000D03*
X91935386Y-84452000D03*
%TD*%
%TO.C,R16*%
X80077386Y-84452000D03*
X81902386Y-84452000D03*
%TD*%
%TO.C,R4*%
X135830386Y-86738000D03*
X137655386Y-86738000D03*
%TD*%
D10*
%TO.C,R17*%
X73623886Y-88365500D03*
X73623886Y-90190500D03*
%TD*%
D12*
%TO.C,C2*%
X69940886Y-99792500D03*
X69940886Y-98067500D03*
%TD*%
D10*
%TO.C,R11*%
X104230886Y-88365500D03*
X104230886Y-90190500D03*
%TD*%
%TO.C,R19*%
X61939886Y-88215000D03*
X61939886Y-90040000D03*
%TD*%
%TO.C,R23*%
X45937886Y-80110500D03*
X45937886Y-81935500D03*
%TD*%
%TO.C,R21*%
X53430886Y-88365500D03*
X53430886Y-90190500D03*
%TD*%
D11*
%TO.C,R12*%
X100524386Y-84452000D03*
X102349386Y-84452000D03*
%TD*%
%TO.C,R10*%
X110684386Y-84452000D03*
X112509386Y-84452000D03*
%TD*%
D10*
%TO.C,R15*%
X83783886Y-88365500D03*
X83783886Y-90190500D03*
%TD*%
D11*
%TO.C,R2*%
X120185886Y-79880000D03*
X122010886Y-79880000D03*
%TD*%
%TO.C,R24*%
X43247386Y-78102000D03*
X45072386Y-78102000D03*
%TD*%
D10*
%TO.C,R13*%
X94070886Y-88365500D03*
X94070886Y-90190500D03*
%TD*%
D11*
%TO.C,R8*%
X120820886Y-84452000D03*
X122645886Y-84452000D03*
%TD*%
D13*
%TO.C,R6*%
X130924386Y-84452000D03*
X129099386Y-84452000D03*
%TD*%
D11*
%TO.C,R22*%
X49597386Y-84452000D03*
X51422386Y-84452000D03*
%TD*%
D14*
%TO.C,FB1*%
X69940886Y-108970000D03*
X69940886Y-106670000D03*
%TD*%
D10*
%TO.C,R9*%
X114390886Y-88342000D03*
X114390886Y-90167000D03*
%TD*%
D11*
%TO.C,R1*%
X120185886Y-77848000D03*
X122010886Y-77848000D03*
%TD*%
%TO.C,R20*%
X59757386Y-84452000D03*
X61582386Y-84452000D03*
%TD*%
%TO.C,R18*%
X69917386Y-84452000D03*
X71742386Y-84452000D03*
%TD*%
D13*
%TO.C,R3*%
X137274386Y-78102000D03*
X135449386Y-78102000D03*
%TD*%
D10*
%TO.C,R7*%
X124677886Y-88365500D03*
X124677886Y-90190500D03*
%TD*%
M02*
