%TF.GenerationSoftware,KiCad,Pcbnew,8.0.5*%
%TF.CreationDate,2024-09-27T22:13:58+09:00*%
%TF.ProjectId,_____,e9a4f3fa-7f2e-46b6-9963-61645f706362,rev?*%
%TF.SameCoordinates,Original*%
%TF.FileFunction,Soldermask,Bot*%
%TF.FilePolarity,Negative*%
%FSLAX46Y46*%
G04 Gerber Fmt 4.6, Leading zero omitted, Abs format (unit mm)*
G04 Created by KiCad (PCBNEW 8.0.5) date 2024-09-27 22:13:58*
%MOMM*%
%LPD*%
G01*
G04 APERTURE LIST*
G04 Aperture macros list*
%AMRoundRect*
0 Rectangle with rounded corners*
0 $1 Rounding radius*
0 $2 $3 $4 $5 $6 $7 $8 $9 X,Y pos of 4 corners*
0 Add a 4 corners polygon primitive as box body*
4,1,4,$2,$3,$4,$5,$6,$7,$8,$9,$2,$3,0*
0 Add four circle primitives for the rounded corners*
1,1,$1+$1,$2,$3*
1,1,$1+$1,$4,$5*
1,1,$1+$1,$6,$7*
1,1,$1+$1,$8,$9*
0 Add four rect primitives between the rounded corners*
20,1,$1+$1,$2,$3,$4,$5,0*
20,1,$1+$1,$4,$5,$6,$7,0*
20,1,$1+$1,$6,$7,$8,$9,0*
20,1,$1+$1,$8,$9,$2,$3,0*%
G04 Aperture macros list end*
%ADD10C,5.600000*%
%ADD11R,1.700000X1.700000*%
%ADD12O,1.700000X1.700000*%
%ADD13C,1.524000*%
%ADD14R,1.600000X1.600000*%
%ADD15C,1.600000*%
%ADD16R,1.905000X2.000000*%
%ADD17O,1.905000X2.000000*%
%ADD18RoundRect,0.102000X0.750000X-0.750000X0.750000X0.750000X-0.750000X0.750000X-0.750000X-0.750000X0*%
%ADD19C,1.704000*%
G04 APERTURE END LIST*
D10*
%TO.C,REF\u002A\u002A*%
X128614886Y-79626000D03*
%TD*%
%TO.C,REF\u002A\u002A*%
X52160886Y-79626000D03*
%TD*%
D11*
%TO.C,J3*%
X114390886Y-72260000D03*
D12*
X114390886Y-74800000D03*
X114390886Y-77340000D03*
X114390886Y-79880000D03*
X116930886Y-79880000D03*
X116930886Y-77340000D03*
X116930886Y-74800000D03*
X116930886Y-72260000D03*
%TD*%
D13*
%TO.C,ToF2*%
X64479886Y-52448000D03*
X64479886Y-54988000D03*
X61939886Y-52448000D03*
X61939886Y-54988000D03*
X59399886Y-52448000D03*
X59399886Y-54988000D03*
%TD*%
D14*
%TO.C,C1*%
X85180886Y-97057000D03*
D15*
X85180886Y-99057000D03*
%TD*%
D11*
%TO.C,J2*%
X63590886Y-74165000D03*
D12*
X61050886Y-74165000D03*
X63590886Y-76705000D03*
X61050886Y-76705000D03*
X63590886Y-79245000D03*
X61050886Y-79245000D03*
%TD*%
D13*
%TO.C,ToF1*%
X117819886Y-52448000D03*
X117819886Y-54988000D03*
X115279886Y-52448000D03*
X115279886Y-54988000D03*
X112739886Y-52448000D03*
X112739886Y-54988000D03*
%TD*%
D11*
%TO.C,J1*%
X77560886Y-109090000D03*
D12*
X80100886Y-109090000D03*
X82640886Y-109090000D03*
X85180886Y-109090000D03*
X87720886Y-109090000D03*
X90260886Y-109090000D03*
X92800886Y-109090000D03*
X95340886Y-109090000D03*
X97880886Y-109090000D03*
X100420886Y-109090000D03*
X77560886Y-106550000D03*
X80100886Y-106550000D03*
X82640886Y-106550000D03*
X85180886Y-106550000D03*
X87720886Y-106550000D03*
X90260886Y-106550000D03*
X92800886Y-106550000D03*
X95340886Y-106550000D03*
X97880886Y-106550000D03*
X100420886Y-106550000D03*
%TD*%
D11*
%TO.C,J4*%
X114009886Y-59560000D03*
D12*
X114009886Y-62100000D03*
X114009886Y-64640000D03*
X114009886Y-67180000D03*
X116549886Y-67180000D03*
X116549886Y-64640000D03*
X116549886Y-62100000D03*
X116549886Y-59560000D03*
%TD*%
D11*
%TO.C,J5*%
X63209886Y-61465000D03*
D12*
X60669886Y-61465000D03*
X63209886Y-64005000D03*
X60669886Y-64005000D03*
X63209886Y-66545000D03*
X60669886Y-66545000D03*
%TD*%
D16*
%TO.C,LDO1*%
X72681886Y-99110000D03*
D17*
X75221886Y-99110000D03*
X77761886Y-99110000D03*
X80301886Y-99110000D03*
%TD*%
D18*
%TO.C,A9*%
X57220886Y-90170000D03*
D19*
X59720886Y-90170000D03*
X59720886Y-87370000D03*
X57220886Y-87370000D03*
%TD*%
D13*
%TO.C,color2*%
X87466886Y-67180000D03*
X87466886Y-64640000D03*
X87466886Y-62100000D03*
X87466886Y-59560000D03*
X84926886Y-67180000D03*
X84926886Y-64640000D03*
X84926886Y-62100000D03*
X84926886Y-59560000D03*
%TD*%
D18*
%TO.C,A6*%
X87740886Y-90170000D03*
D19*
X90240886Y-90170000D03*
X90240886Y-87370000D03*
X87740886Y-87370000D03*
%TD*%
D18*
%TO.C,A10*%
X47060886Y-90170000D03*
D19*
X49560886Y-90170000D03*
X49560886Y-87370000D03*
X47060886Y-87370000D03*
%TD*%
D18*
%TO.C,A5*%
X97940886Y-90170000D03*
D19*
X100440886Y-90170000D03*
X100440886Y-87370000D03*
X97940886Y-87370000D03*
%TD*%
D18*
%TO.C,A8*%
X67380886Y-90170000D03*
D19*
X69880886Y-90170000D03*
X69880886Y-87370000D03*
X67380886Y-87370000D03*
%TD*%
D18*
%TO.C,A1*%
X134770886Y-83820000D03*
D19*
X137270886Y-83820000D03*
X137270886Y-81020000D03*
X134770886Y-81020000D03*
%TD*%
D18*
%TO.C,A7*%
X77580886Y-90170000D03*
D19*
X80080886Y-90170000D03*
X80080886Y-87370000D03*
X77580886Y-87370000D03*
%TD*%
D13*
%TO.C,color1*%
X90514886Y-59560000D03*
X90514886Y-62100000D03*
X90514886Y-64640000D03*
X90514886Y-67180000D03*
X93054886Y-59560000D03*
X93054886Y-62100000D03*
X93054886Y-64640000D03*
X93054886Y-67180000D03*
%TD*%
D18*
%TO.C,A11*%
X40750886Y-83820000D03*
D19*
X43250886Y-83820000D03*
X43250886Y-81020000D03*
X40750886Y-81020000D03*
%TD*%
D18*
%TO.C,A2*%
X128460886Y-90170000D03*
D19*
X130960886Y-90170000D03*
X130960886Y-87370000D03*
X128460886Y-87370000D03*
%TD*%
D18*
%TO.C,A3*%
X118260886Y-90170000D03*
D19*
X120760886Y-90170000D03*
X120760886Y-87370000D03*
X118260886Y-87370000D03*
%TD*%
D18*
%TO.C,A4*%
X108100886Y-90170000D03*
D19*
X110600886Y-90170000D03*
X110600886Y-87370000D03*
X108100886Y-87370000D03*
%TD*%
M02*
