M48
; DRILL file {KiCad 8.0.5} date 2024-10-04T10:03:27+0900
; FORMAT={-:-/ absolute / inch / decimal}
; #@! TF.CreationDate,2024-10-04T10:03:27+09:00
; #@! TF.GenerationSoftware,Kicad,Pcbnew,8.0.5
; #@! TF.FileFunction,Plated,1,2,PTH
FMAT,2
INCH
; #@! TA.AperFunction,Plated,PTH,ViaDrill
T1C0.0157
; #@! TA.AperFunction,Plated,PTH,ComponentDrill
T2C0.0300
; #@! TA.AperFunction,Plated,PTH,ComponentDrill
T3C0.0315
; #@! TA.AperFunction,Plated,PTH,ComponentDrill
T4C0.0394
; #@! TA.AperFunction,Plated,PTH,ComponentDrill
T5C0.0433
; #@! TA.AperFunction,Plated,PTH,ComponentDrill
T6C0.0472
; #@! TA.AperFunction,Plated,PTH,ComponentDrill
T7C0.1260
%
G90
G05
T1
X1.6036Y-3.0449
X1.6036Y-3.1199
X1.6036Y-3.3949
X1.6036Y-3.4699
X1.6036Y-3.5449
X1.6036Y-3.6199
X1.7036Y-3.4699
X1.7036Y-3.5449
X1.7036Y-3.6199
X1.7536Y-3.0199
X1.7536Y-3.1449
X1.7736Y-3.3249
X1.7786Y-3.5449
X1.7786Y-3.6199
X1.7836Y-3.4049
X1.8528Y-3.3407
X1.8536Y-3.6199
X1.9036Y-3.0449
X1.9036Y-3.1449
X1.9036Y-3.3449
X1.9036Y-3.4949
X1.9736Y-3.6049
X2.0336Y-3.3749
X2.0436Y-3.6049
X2.0536Y-3.4849
X2.1636Y-3.3849
X2.1636Y-3.4949
X2.1636Y-3.5949
X2.2036Y-3.0449
X2.2036Y-3.1449
X2.3036Y-2.2449
X2.3036Y-2.4449
X2.3036Y-2.6699
X2.3036Y-3.0449
X2.3036Y-3.1449
X2.3036Y-3.3749
X2.3036Y-3.4949
X2.3336Y-3.2399
X2.3386Y-2.8549
X2.3786Y-2.0199
X2.4036Y-3.5949
X2.4036Y-3.7049
X2.4036Y-3.8149
X2.4286Y-2.5699
X2.4486Y-2.8549
X2.4536Y-3.2149
X2.4636Y-3.3649
X2.4736Y-3.8649
X2.4786Y-2.1199
X2.5136Y-3.4349
X2.5536Y-3.1849
X2.5536Y-3.2849
X2.5536Y-3.7449
X2.5686Y-2.9199
X2.5836Y-3.6849
X2.5936Y-3.2149
X2.6036Y-3.3349
X2.6336Y-3.6949
X2.6436Y-4.3599
X2.6786Y-2.0199
X2.6786Y-2.2199
X2.6786Y-2.5399
X2.6786Y-2.6899
X2.6936Y-3.7349
X2.7036Y-3.3649
X2.7036Y-3.7949
X2.7036Y-4.3649
X2.7086Y-4.1049
X2.7086Y-4.2399
X2.7986Y-4.2449
X2.8036Y-3.7199
X2.8036Y-3.7949
X2.8036Y-4.3299
X2.8236Y-3.6049
X2.8736Y-3.3399
X2.8786Y-2.3899
X2.8786Y-2.5399
X2.8786Y-2.6949
X2.8786Y-3.7199
X2.8836Y-3.8049
X2.8886Y-4.1849
X2.8936Y-3.9849
X2.9436Y-3.6049
X2.9536Y-3.7199
X2.9636Y-4.2449
X2.9636Y-4.3299
X2.9686Y-3.3399
X2.9686Y-3.4849
X2.9886Y-3.8049
X3.0536Y-3.7199
X3.0836Y-2.2499
X3.1036Y-3.3349
X3.1036Y-3.4949
X3.1036Y-3.7699
X3.1086Y-4.2449
X3.1136Y-3.6049
X3.1286Y-2.3899
X3.1286Y-2.5399
X3.1286Y-2.6949
X3.1536Y-4.0214
X3.1786Y-3.6949
X3.2036Y-4.2449
X3.2236Y-4.0083
X3.2336Y-3.4349
X3.2336Y-3.6049
X3.2536Y-3.6949
X3.2536Y-3.7699
X3.2536Y-3.8699
X3.2536Y-3.9199
X3.2786Y-2.2499
X3.2836Y-3.3349
X3.3036Y-4.0149
X3.3736Y-3.4449
X3.3786Y-2.4949
X3.3786Y-2.5949
X3.3836Y-3.2849
X3.3936Y-3.5549
X3.4136Y-4.1049
X3.4236Y-3.3449
X3.4336Y-3.7049
X3.4336Y-3.8349
X3.4336Y-3.9649
X3.4636Y-4.0549
X3.4736Y-3.2849
X3.4986Y-2.2449
X3.5036Y-3.3849
X3.5136Y-4.1049
X3.5536Y-3.7049
X3.5536Y-3.8449
X3.5536Y-3.9649
X3.5936Y-4.0249
X3.5986Y-2.2449
X3.6036Y-3.9649
X3.6136Y-3.5149
X3.6436Y-3.7649
X3.6536Y-3.6049
X3.6536Y-4.0949
X3.6586Y-3.3699
X3.7036Y-3.7049
X3.7036Y-4.2449
X3.7136Y-3.8149
X3.7136Y-3.9249
X3.7136Y-4.0249
X3.7286Y-2.6449
X3.7536Y-2.4449
X3.7636Y-3.5149
X3.7636Y-3.6049
X3.7886Y-3.3349
X3.7986Y-2.2449
X3.8036Y-4.2449
X3.8036Y-4.3649
X3.8336Y-3.7249
X3.8336Y-3.8149
X3.8336Y-3.9249
X3.8436Y-4.0249
X3.8536Y-2.4449
X3.8536Y-2.6449
X3.8536Y-3.2449
X3.8736Y-4.1249
X3.9236Y-2.4449
X3.9436Y-3.8149
X3.9486Y-2.2449
X3.9536Y-3.6949
X3.9736Y-3.9249
X3.9736Y-4.0049
X4.0036Y-2.4449
X4.0036Y-2.6449
X4.0036Y-4.1199
X4.0136Y-3.3749
X4.0136Y-4.3449
X4.0186Y-3.4899
X4.0286Y-4.2449
X4.0536Y-3.6049
X4.0536Y-3.7049
X4.0636Y-3.8249
X4.0636Y-3.9149
X4.0736Y-2.2449
X4.0786Y-4.0699
X4.1036Y-4.3449
X4.1286Y-4.1949
X4.1436Y-3.7449
X4.1436Y-3.8249
X4.1536Y-2.4449
X4.1536Y-3.4649
X4.1536Y-3.6049
X4.1536Y-3.9949
X4.1636Y-3.3349
X4.1986Y-2.2449
X4.2036Y-3.9199
X4.2036Y-4.2949
X4.2286Y-3.7949
X4.2286Y-4.0949
X4.2336Y-2.1199
X4.2336Y-3.4949
X4.2786Y-4.0199
X4.3036Y-2.4449
X4.3036Y-2.6449
X4.3036Y-3.4949
X4.3036Y-3.7449
X4.3036Y-4.1949
X4.3136Y-3.6049
X4.3136Y-3.6949
X4.3236Y-2.2449
X4.3786Y-2.5949
X4.3836Y-3.4949
X4.4036Y-3.2349
X4.4036Y-3.7449
X4.4136Y-3.3849
X4.4236Y-2.2449
X4.4286Y-2.5399
X4.4436Y-2.7949
X4.4536Y-3.5949
X4.4536Y-3.6949
X4.4836Y-3.3349
X4.5036Y-3.6049
X4.5036Y-3.6949
X4.5236Y-3.2449
X4.5236Y-3.4249
X4.5636Y-2.7949
X4.5636Y-3.4749
X4.5836Y-2.1149
X4.6036Y-3.2149
X4.6136Y-3.3449
X4.6536Y-2.2249
X4.6536Y-2.7949
X4.6536Y-2.8949
X4.6736Y-3.0549
X4.6786Y-2.5199
X4.6786Y-2.6099
X4.6786Y-2.6899
X4.7036Y-3.3249
X4.7136Y-3.2149
X4.8236Y-3.2149
X4.8286Y-3.0199
X4.8436Y-3.3849
X4.8436Y-3.4949
X4.9036Y-3.0199
X4.9036Y-3.1199
X4.9036Y-3.2199
X4.9436Y-3.3849
X4.9736Y-3.5449
X5.2236Y-3.0149
X5.2236Y-3.2149
X5.2286Y-3.1199
X5.2336Y-3.6049
X5.3136Y-3.6449
X5.3336Y-3.0149
X5.3536Y-3.5549
X5.3936Y-3.4649
X5.4336Y-3.5549
X5.4336Y-3.6449
X5.4436Y-3.0149
X5.4436Y-3.1249
X5.4436Y-3.2449
X5.4436Y-3.3549
T2
X2.3386Y-2.0649
X2.3386Y-2.1649
X2.4386Y-2.0649
X2.4386Y-2.1649
X2.5386Y-2.0649
X2.5386Y-2.1649
X3.3436Y-2.3449
X3.3436Y-2.4449
X3.3436Y-2.5449
X3.3436Y-2.6449
X3.4436Y-2.3449
X3.4436Y-2.4449
X3.4436Y-2.5449
X3.4436Y-2.6449
X3.5636Y-2.3449
X3.5636Y-2.4449
X3.5636Y-2.5449
X3.5636Y-2.6449
X3.6636Y-2.3449
X3.6636Y-2.4449
X3.6636Y-2.5449
X3.6636Y-2.6449
X4.4386Y-2.0649
X4.4386Y-2.1649
X4.5386Y-2.0649
X4.5386Y-2.1649
X4.6386Y-2.0649
X4.6386Y-2.1649
T3
X3.3536Y-3.8211
X3.3536Y-3.8999
T4
X1.6044Y-3.1898
X1.6044Y-3.3
X1.7028Y-3.1898
X1.7028Y-3.3
X1.8528Y-3.4398
X1.8528Y-3.55
X1.9512Y-3.4398
X1.9512Y-3.55
X2.2528Y-3.4398
X2.2528Y-3.55
X2.3512Y-3.4398
X2.3512Y-3.55
X2.3886Y-2.4199
X2.3886Y-2.5199
X2.3886Y-2.6199
X2.4036Y-2.9199
X2.4036Y-3.0199
X2.4036Y-3.1199
X2.4886Y-2.4199
X2.4886Y-2.5199
X2.4886Y-2.6199
X2.5036Y-2.9199
X2.5036Y-3.0199
X2.5036Y-3.1199
X2.6528Y-3.4398
X2.6528Y-3.55
X2.7512Y-3.4398
X2.7512Y-3.55
X3.0536Y-4.1949
X3.0536Y-4.2949
X3.0544Y-3.4398
X3.0544Y-3.55
X3.1528Y-3.4398
X3.1528Y-3.55
X3.1536Y-4.1949
X3.1536Y-4.2949
X3.2536Y-4.1949
X3.2536Y-4.2949
X3.3536Y-4.1949
X3.3536Y-4.2949
X3.4536Y-4.1949
X3.4536Y-4.2949
X3.4544Y-3.4398
X3.4544Y-3.55
X3.5528Y-3.4398
X3.5528Y-3.55
X3.5536Y-4.1949
X3.5536Y-4.2949
X3.6536Y-4.1949
X3.6536Y-4.2949
X3.7236Y-1.4689
X3.7236Y-1.5689
X3.7236Y-1.6689
X3.7236Y-1.7689
X3.7236Y-1.8689
X3.7536Y-4.1949
X3.7536Y-4.2949
X3.8536Y-4.1949
X3.8536Y-4.2949
X3.8559Y-3.4398
X3.8559Y-3.55
X3.9536Y-4.1949
X3.9536Y-4.2949
X3.9544Y-3.4398
X3.9544Y-3.55
X4.2559Y-3.4398
X4.2559Y-3.55
X4.3544Y-3.4398
X4.3544Y-3.55
X4.4886Y-2.3449
X4.4886Y-2.4449
X4.4886Y-2.5449
X4.4886Y-2.6449
X4.5036Y-2.8449
X4.5036Y-2.9449
X4.5036Y-3.0449
X4.5036Y-3.1449
X4.5886Y-2.3449
X4.5886Y-2.4449
X4.5886Y-2.5449
X4.5886Y-2.6449
X4.6036Y-2.8449
X4.6036Y-2.9449
X4.6036Y-3.0449
X4.6036Y-3.1449
X4.6236Y-1.5689
X4.6236Y-1.6689
X4.6236Y-1.7689
X4.6559Y-3.4398
X4.6559Y-3.55
X4.7544Y-3.4398
X4.7544Y-3.55
X5.0575Y-3.4398
X5.0575Y-3.55
X5.1559Y-3.4398
X5.1559Y-3.55
X5.3059Y-3.1898
X5.3059Y-3.3
X5.4044Y-3.1898
X5.4044Y-3.3
T5
X2.8615Y-3.902
X2.9615Y-3.902
X3.0615Y-3.902
X3.1615Y-3.902
T6
X3.8736Y-1.5114
X3.8736Y-1.5902
X3.8736Y-1.6689
X3.8736Y-1.7477
X3.8736Y-1.8264
X4.4444Y-1.5705
X4.4444Y-1.6689
X4.4444Y-1.7673
T7
X2.0536Y-3.1349
X5.0636Y-3.1349
M30
