%TF.GenerationSoftware,KiCad,Pcbnew,8.0.5*%
%TF.CreationDate,2024-09-27T22:13:58+09:00*%
%TF.ProjectId,_____,e9a4f3fa-7f2e-46b6-9963-61645f706362,rev?*%
%TF.SameCoordinates,Original*%
%TF.FileFunction,Copper,L1,Top*%
%TF.FilePolarity,Positive*%
%FSLAX46Y46*%
G04 Gerber Fmt 4.6, Leading zero omitted, Abs format (unit mm)*
G04 Created by KiCad (PCBNEW 8.0.5) date 2024-09-27 22:13:58*
%MOMM*%
%LPD*%
G01*
G04 APERTURE LIST*
G04 Aperture macros list*
%AMRoundRect*
0 Rectangle with rounded corners*
0 $1 Rounding radius*
0 $2 $3 $4 $5 $6 $7 $8 $9 X,Y pos of 4 corners*
0 Add a 4 corners polygon primitive as box body*
4,1,4,$2,$3,$4,$5,$6,$7,$8,$9,$2,$3,0*
0 Add four circle primitives for the rounded corners*
1,1,$1+$1,$2,$3*
1,1,$1+$1,$4,$5*
1,1,$1+$1,$6,$7*
1,1,$1+$1,$8,$9*
0 Add four rect primitives between the rounded corners*
20,1,$1+$1,$2,$3,$4,$5,0*
20,1,$1+$1,$4,$5,$6,$7,0*
20,1,$1+$1,$6,$7,$8,$9,0*
20,1,$1+$1,$8,$9,$2,$3,0*%
G04 Aperture macros list end*
%TA.AperFunction,ComponentPad*%
%ADD10C,5.600000*%
%TD*%
%TA.AperFunction,SMDPad,CuDef*%
%ADD11RoundRect,0.237500X-0.237500X0.250000X-0.237500X-0.250000X0.237500X-0.250000X0.237500X0.250000X0*%
%TD*%
%TA.AperFunction,SMDPad,CuDef*%
%ADD12RoundRect,0.237500X-0.250000X-0.237500X0.250000X-0.237500X0.250000X0.237500X-0.250000X0.237500X0*%
%TD*%
%TA.AperFunction,SMDPad,CuDef*%
%ADD13RoundRect,0.237500X0.237500X-0.300000X0.237500X0.300000X-0.237500X0.300000X-0.237500X-0.300000X0*%
%TD*%
%TA.AperFunction,ComponentPad*%
%ADD14R,1.700000X1.700000*%
%TD*%
%TA.AperFunction,ComponentPad*%
%ADD15O,1.700000X1.700000*%
%TD*%
%TA.AperFunction,ComponentPad*%
%ADD16C,1.524000*%
%TD*%
%TA.AperFunction,ComponentPad*%
%ADD17R,1.600000X1.600000*%
%TD*%
%TA.AperFunction,ComponentPad*%
%ADD18C,1.600000*%
%TD*%
%TA.AperFunction,SMDPad,CuDef*%
%ADD19RoundRect,0.237500X0.250000X0.237500X-0.250000X0.237500X-0.250000X-0.237500X0.250000X-0.237500X0*%
%TD*%
%TA.AperFunction,SMDPad,CuDef*%
%ADD20R,0.950000X1.200000*%
%TD*%
%TA.AperFunction,ComponentPad*%
%ADD21R,1.905000X2.000000*%
%TD*%
%TA.AperFunction,ComponentPad*%
%ADD22O,1.905000X2.000000*%
%TD*%
%TA.AperFunction,ComponentPad*%
%ADD23R,1.500000X1.500000*%
%TD*%
%TA.AperFunction,ComponentPad*%
%ADD24C,1.500000*%
%TD*%
%TA.AperFunction,ViaPad*%
%ADD25C,0.800000*%
%TD*%
%TA.AperFunction,Conductor*%
%ADD26C,0.500000*%
%TD*%
%TA.AperFunction,Conductor*%
%ADD27C,0.250000*%
%TD*%
G04 APERTURE END LIST*
D10*
%TO.P,REF\u002A\u002A,1*%
%TO.N,N/C*%
X128614886Y-79626000D03*
%TD*%
%TO.P,REF\u002A\u002A,1*%
%TO.N,N/C*%
X52160886Y-79626000D03*
%TD*%
D11*
%TO.P,R5,1*%
%TO.N,GND*%
X133440886Y-88238500D03*
%TO.P,R5,2*%
%TO.N,Net-(A2-Pad2)*%
X133440886Y-90063500D03*
%TD*%
D12*
%TO.P,R14,1*%
%TO.N,/Line6*%
X90110386Y-84452000D03*
%TO.P,R14,2*%
%TO.N,GND*%
X91935386Y-84452000D03*
%TD*%
%TO.P,R16,1*%
%TO.N,/Line7*%
X80077386Y-84452000D03*
%TO.P,R16,2*%
%TO.N,GND*%
X81902386Y-84452000D03*
%TD*%
%TO.P,R4,1*%
%TO.N,GND*%
X135830386Y-86738000D03*
%TO.P,R4,2*%
%TO.N,Net-(A1-Pad2)*%
X137655386Y-86738000D03*
%TD*%
D11*
%TO.P,R17,1*%
%TO.N,GND*%
X73623886Y-88365500D03*
%TO.P,R17,2*%
%TO.N,Net-(A8-Pad2)*%
X73623886Y-90190500D03*
%TD*%
D13*
%TO.P,C2,1*%
%TO.N,+5V*%
X69940886Y-99792500D03*
%TO.P,C2,2*%
%TO.N,GND*%
X69940886Y-98067500D03*
%TD*%
D14*
%TO.P,J3,1,Pin_1*%
%TO.N,+3.3V*%
X114390886Y-72260000D03*
D15*
%TO.P,J3,2,Pin_2*%
%TO.N,/SCL*%
X114390886Y-74800000D03*
%TO.P,J3,3,Pin_3*%
%TO.N,/SDA*%
X114390886Y-77340000D03*
%TO.P,J3,4,Pin_4*%
%TO.N,Net-(J3-Pin_4)*%
X114390886Y-79880000D03*
%TO.P,J3,5,Pin_5*%
%TO.N,Net-(J3-Pin_5)*%
X116930886Y-79880000D03*
%TO.P,J3,6,Pin_6*%
%TO.N,/SDA1*%
X116930886Y-77340000D03*
%TO.P,J3,7,Pin_7*%
%TO.N,/SCL1*%
X116930886Y-74800000D03*
%TO.P,J3,8,Pin_8*%
%TO.N,GND*%
X116930886Y-72260000D03*
%TD*%
D11*
%TO.P,R11,1*%
%TO.N,GND*%
X104230886Y-88365500D03*
%TO.P,R11,2*%
%TO.N,Net-(A5-Pad2)*%
X104230886Y-90190500D03*
%TD*%
%TO.P,R19,1*%
%TO.N,GND*%
X61939886Y-88215000D03*
%TO.P,R19,2*%
%TO.N,Net-(A9-Pad2)*%
X61939886Y-90040000D03*
%TD*%
%TO.P,R23,1*%
%TO.N,GND*%
X45937886Y-80110500D03*
%TO.P,R23,2*%
%TO.N,Net-(A11-Pad2)*%
X45937886Y-81935500D03*
%TD*%
D16*
%TO.P,ToF2,1,GPIO1*%
%TO.N,unconnected-(ToF2-GPIO1-Pad1)*%
X64479886Y-52448000D03*
%TO.P,ToF2,2,SCL*%
%TO.N,/SCL_*%
X64479886Y-54988000D03*
%TO.P,ToF2,3,GPIO0*%
%TO.N,/XSHUT2_*%
X61939886Y-52448000D03*
%TO.P,ToF2,4,SDA*%
%TO.N,/SDA_*%
X61939886Y-54988000D03*
%TO.P,ToF2,5,VDD*%
%TO.N,+3.3VA*%
X59399886Y-52448000D03*
%TO.P,ToF2,6,GND*%
%TO.N,GND2*%
X59399886Y-54988000D03*
%TD*%
D11*
%TO.P,R21,1*%
%TO.N,GND*%
X53430886Y-88365500D03*
%TO.P,R21,2*%
%TO.N,Net-(A10-Pad2)*%
X53430886Y-90190500D03*
%TD*%
D12*
%TO.P,R12,1*%
%TO.N,/Line5*%
X100524386Y-84452000D03*
%TO.P,R12,2*%
%TO.N,GND*%
X102349386Y-84452000D03*
%TD*%
D17*
%TO.P,C1,1*%
%TO.N,+3.3V*%
X85180886Y-97057000D03*
D18*
%TO.P,C1,2*%
%TO.N,GND*%
X85180886Y-99057000D03*
%TD*%
D12*
%TO.P,R10,1*%
%TO.N,/Line4*%
X110684386Y-84452000D03*
%TO.P,R10,2*%
%TO.N,GND*%
X112509386Y-84452000D03*
%TD*%
D11*
%TO.P,R15,1*%
%TO.N,GND*%
X83783886Y-88365500D03*
%TO.P,R15,2*%
%TO.N,Net-(A7-Pad2)*%
X83783886Y-90190500D03*
%TD*%
D12*
%TO.P,R2,1*%
%TO.N,Net-(J3-Pin_5)*%
X120185886Y-79880000D03*
%TO.P,R2,2*%
%TO.N,GND*%
X122010886Y-79880000D03*
%TD*%
%TO.P,R24,1*%
%TO.N,/Line11*%
X43247386Y-78102000D03*
%TO.P,R24,2*%
%TO.N,GND*%
X45072386Y-78102000D03*
%TD*%
D11*
%TO.P,R13,1*%
%TO.N,GND*%
X94070886Y-88365500D03*
%TO.P,R13,2*%
%TO.N,Net-(A6-Pad2)*%
X94070886Y-90190500D03*
%TD*%
D12*
%TO.P,R8,1*%
%TO.N,/Line3*%
X120820886Y-84452000D03*
%TO.P,R8,2*%
%TO.N,GND*%
X122645886Y-84452000D03*
%TD*%
D14*
%TO.P,J2,1,Pin_1*%
%TO.N,+3.3V*%
X63590886Y-74165000D03*
D15*
%TO.P,J2,2,Pin_2*%
%TO.N,GND*%
X61050886Y-74165000D03*
%TO.P,J2,3,Pin_3*%
%TO.N,/SDA*%
X63590886Y-76705000D03*
%TO.P,J2,4,Pin_4*%
%TO.N,/SCL*%
X61050886Y-76705000D03*
%TO.P,J2,5,Pin_5*%
%TO.N,/XSHUT1*%
X63590886Y-79245000D03*
%TO.P,J2,6,Pin_6*%
%TO.N,/XSHUT2*%
X61050886Y-79245000D03*
%TD*%
D16*
%TO.P,ToF1,1,GPIO1*%
%TO.N,unconnected-(ToF1-GPIO1-Pad1)*%
X117819886Y-52448000D03*
%TO.P,ToF1,2,SCL*%
%TO.N,/SCL_*%
X117819886Y-54988000D03*
%TO.P,ToF1,3,GPIO0*%
%TO.N,/XSHUT1_*%
X115279886Y-52448000D03*
%TO.P,ToF1,4,SDA*%
%TO.N,/SDA_*%
X115279886Y-54988000D03*
%TO.P,ToF1,5,VDD*%
%TO.N,+3.3VA*%
X112739886Y-52448000D03*
%TO.P,ToF1,6,GND*%
%TO.N,GND2*%
X112739886Y-54988000D03*
%TD*%
D19*
%TO.P,R6,1*%
%TO.N,/Line2*%
X130924386Y-84452000D03*
%TO.P,R6,2*%
%TO.N,GND*%
X129099386Y-84452000D03*
%TD*%
D12*
%TO.P,R22,1*%
%TO.N,/Line10*%
X49597386Y-84452000D03*
%TO.P,R22,2*%
%TO.N,GND*%
X51422386Y-84452000D03*
%TD*%
D14*
%TO.P,J1,1,Pin_1*%
%TO.N,Net-(J1-Pin_1)*%
X77560886Y-109090000D03*
D15*
%TO.P,J1,2,Pin_2*%
%TO.N,GND*%
X80100886Y-109090000D03*
%TO.P,J1,3,Pin_3*%
%TO.N,/SDA*%
X82640886Y-109090000D03*
%TO.P,J1,4,Pin_4*%
%TO.N,/SCL*%
X85180886Y-109090000D03*
%TO.P,J1,5,Pin_5*%
%TO.N,/SDA1*%
X87720886Y-109090000D03*
%TO.P,J1,6,Pin_6*%
%TO.N,/SCL1*%
X90260886Y-109090000D03*
%TO.P,J1,7,Pin_7*%
%TO.N,/XSHUT1*%
X92800886Y-109090000D03*
%TO.P,J1,8,Pin_8*%
%TO.N,/XSHUT2*%
X95340886Y-109090000D03*
%TO.P,J1,9,Pin_9*%
%TO.N,/Line1*%
X97880886Y-109090000D03*
%TO.P,J1,10,Pin_10*%
%TO.N,/Line2*%
X100420886Y-109090000D03*
%TO.P,J1,11,Pin_11*%
%TO.N,GND*%
X77560886Y-106550000D03*
%TO.P,J1,12,Pin_12*%
%TO.N,/Line11*%
X80100886Y-106550000D03*
%TO.P,J1,13,Pin_13*%
%TO.N,/Line10*%
X82640886Y-106550000D03*
%TO.P,J1,14,Pin_14*%
%TO.N,/Line9*%
X85180886Y-106550000D03*
%TO.P,J1,15,Pin_15*%
%TO.N,/Line8*%
X87720886Y-106550000D03*
%TO.P,J1,16,Pin_16*%
%TO.N,/Line7*%
X90260886Y-106550000D03*
%TO.P,J1,17,Pin_17*%
%TO.N,/Line6*%
X92800886Y-106550000D03*
%TO.P,J1,18,Pin_18*%
%TO.N,/Line5*%
X95340886Y-106550000D03*
%TO.P,J1,19,Pin_19*%
%TO.N,/Line4*%
X97880886Y-106550000D03*
%TO.P,J1,20,Pin_20*%
%TO.N,/Line3*%
X100420886Y-106550000D03*
%TD*%
D14*
%TO.P,J4,1,Pin_1*%
%TO.N,+3.3VA*%
X114009886Y-59560000D03*
D15*
%TO.P,J4,2,Pin_2*%
%TO.N,/SCL_*%
X114009886Y-62100000D03*
%TO.P,J4,3,Pin_3*%
%TO.N,/SDA_*%
X114009886Y-64640000D03*
%TO.P,J4,4,Pin_4*%
%TO.N,/c1*%
X114009886Y-67180000D03*
%TO.P,J4,5,Pin_5*%
%TO.N,/c2*%
X116549886Y-67180000D03*
%TO.P,J4,6,Pin_6*%
%TO.N,/SDA1_*%
X116549886Y-64640000D03*
%TO.P,J4,7,Pin_7*%
%TO.N,/SCL1_*%
X116549886Y-62100000D03*
%TO.P,J4,8,Pin_8*%
%TO.N,GND2*%
X116549886Y-59560000D03*
%TD*%
D20*
%TO.P,FB1,1*%
%TO.N,Net-(J1-Pin_1)*%
X69940886Y-108970000D03*
%TO.P,FB1,2*%
%TO.N,+5V*%
X69940886Y-106670000D03*
%TD*%
D11*
%TO.P,R9,1*%
%TO.N,GND*%
X114390886Y-88342000D03*
%TO.P,R9,2*%
%TO.N,Net-(A4-Pad2)*%
X114390886Y-90167000D03*
%TD*%
D12*
%TO.P,R1,1*%
%TO.N,Net-(J3-Pin_4)*%
X120185886Y-77848000D03*
%TO.P,R1,2*%
%TO.N,GND*%
X122010886Y-77848000D03*
%TD*%
%TO.P,R20,1*%
%TO.N,/Line9*%
X59757386Y-84452000D03*
%TO.P,R20,2*%
%TO.N,GND*%
X61582386Y-84452000D03*
%TD*%
D14*
%TO.P,J5,1,Pin_1*%
%TO.N,+3.3VA*%
X63209886Y-61465000D03*
D15*
%TO.P,J5,2,Pin_2*%
%TO.N,GND2*%
X60669886Y-61465000D03*
%TO.P,J5,3,Pin_3*%
%TO.N,/SDA_*%
X63209886Y-64005000D03*
%TO.P,J5,4,Pin_4*%
%TO.N,/SCL_*%
X60669886Y-64005000D03*
%TO.P,J5,5,Pin_5*%
%TO.N,/XSHUT1_*%
X63209886Y-66545000D03*
%TO.P,J5,6,Pin_6*%
%TO.N,/XSHUT2_*%
X60669886Y-66545000D03*
%TD*%
D12*
%TO.P,R18,1*%
%TO.N,/Line8*%
X69917386Y-84452000D03*
%TO.P,R18,2*%
%TO.N,GND*%
X71742386Y-84452000D03*
%TD*%
D21*
%TO.P,LDO1,1,VIN*%
%TO.N,+5V*%
X72681886Y-99110000D03*
D22*
%TO.P,LDO1,2,VOUT*%
%TO.N,+3.3V*%
X75221886Y-99110000D03*
%TO.P,LDO1,3,GND*%
%TO.N,GND*%
X77761886Y-99110000D03*
%TO.P,LDO1,4,Vc*%
%TO.N,unconnected-(LDO1-Vc-Pad4)*%
X80301886Y-99110000D03*
%TD*%
D19*
%TO.P,R3,1*%
%TO.N,/Line1*%
X137274386Y-78102000D03*
%TO.P,R3,2*%
%TO.N,GND*%
X135449386Y-78102000D03*
%TD*%
D11*
%TO.P,R7,1*%
%TO.N,GND*%
X124677886Y-88365500D03*
%TO.P,R7,2*%
%TO.N,Net-(A3-Pad2)*%
X124677886Y-90190500D03*
%TD*%
D23*
%TO.P,A9,1*%
%TO.N,+5V*%
X57220886Y-90170000D03*
D24*
%TO.P,A9,2*%
%TO.N,Net-(A9-Pad2)*%
X59720886Y-90170000D03*
%TO.P,A9,3*%
%TO.N,/Line9*%
X59720886Y-87370000D03*
%TO.P,A9,4*%
%TO.N,+3.3V*%
X57220886Y-87370000D03*
%TD*%
D16*
%TO.P,color2,1,GND*%
%TO.N,GND2*%
X87466886Y-67180000D03*
%TO.P,color2,2,SDA*%
%TO.N,/SDA1_*%
X87466886Y-64640000D03*
%TO.P,color2,3,SCL*%
%TO.N,/SCL1_*%
X87466886Y-62100000D03*
%TO.P,color2,4,VDD*%
%TO.N,+3.3VA*%
X87466886Y-59560000D03*
%TO.P,color2,5,LED-C*%
%TO.N,/c2*%
X84926886Y-67180000D03*
%TO.P,color2,6,NC*%
%TO.N,unconnected-(color2-NC-Pad6)*%
X84926886Y-64640000D03*
%TO.P,color2,7,INT*%
%TO.N,unconnected-(color2-INT-Pad7)*%
X84926886Y-62100000D03*
%TO.P,color2,8,LED-A*%
%TO.N,+3.3VA*%
X84926886Y-59560000D03*
%TD*%
D23*
%TO.P,A6,1*%
%TO.N,+5V*%
X87740886Y-90170000D03*
D24*
%TO.P,A6,2*%
%TO.N,Net-(A6-Pad2)*%
X90240886Y-90170000D03*
%TO.P,A6,3*%
%TO.N,/Line6*%
X90240886Y-87370000D03*
%TO.P,A6,4*%
%TO.N,+3.3V*%
X87740886Y-87370000D03*
%TD*%
D23*
%TO.P,A10,1*%
%TO.N,+5V*%
X47060886Y-90170000D03*
D24*
%TO.P,A10,2*%
%TO.N,Net-(A10-Pad2)*%
X49560886Y-90170000D03*
%TO.P,A10,3*%
%TO.N,/Line10*%
X49560886Y-87370000D03*
%TO.P,A10,4*%
%TO.N,+3.3V*%
X47060886Y-87370000D03*
%TD*%
D23*
%TO.P,A5,1*%
%TO.N,+5V*%
X97940886Y-90170000D03*
D24*
%TO.P,A5,2*%
%TO.N,Net-(A5-Pad2)*%
X100440886Y-90170000D03*
%TO.P,A5,3*%
%TO.N,/Line5*%
X100440886Y-87370000D03*
%TO.P,A5,4*%
%TO.N,+3.3V*%
X97940886Y-87370000D03*
%TD*%
D23*
%TO.P,A8,1*%
%TO.N,+5V*%
X67380886Y-90170000D03*
D24*
%TO.P,A8,2*%
%TO.N,Net-(A8-Pad2)*%
X69880886Y-90170000D03*
%TO.P,A8,3*%
%TO.N,/Line8*%
X69880886Y-87370000D03*
%TO.P,A8,4*%
%TO.N,+3.3V*%
X67380886Y-87370000D03*
%TD*%
D23*
%TO.P,A1,1*%
%TO.N,+5V*%
X134770886Y-83820000D03*
D24*
%TO.P,A1,2*%
%TO.N,Net-(A1-Pad2)*%
X137270886Y-83820000D03*
%TO.P,A1,3*%
%TO.N,/Line1*%
X137270886Y-81020000D03*
%TO.P,A1,4*%
%TO.N,+3.3V*%
X134770886Y-81020000D03*
%TD*%
D23*
%TO.P,A7,1*%
%TO.N,+5V*%
X77580886Y-90170000D03*
D24*
%TO.P,A7,2*%
%TO.N,Net-(A7-Pad2)*%
X80080886Y-90170000D03*
%TO.P,A7,3*%
%TO.N,/Line7*%
X80080886Y-87370000D03*
%TO.P,A7,4*%
%TO.N,+3.3V*%
X77580886Y-87370000D03*
%TD*%
D16*
%TO.P,color1,1,GND*%
%TO.N,GND2*%
X90514886Y-59560000D03*
%TO.P,color1,2,SDA*%
%TO.N,/SDA_*%
X90514886Y-62100000D03*
%TO.P,color1,3,SCL*%
%TO.N,/SCL_*%
X90514886Y-64640000D03*
%TO.P,color1,4,VDD*%
%TO.N,+3.3VA*%
X90514886Y-67180000D03*
%TO.P,color1,5,LED-C*%
%TO.N,/c1*%
X93054886Y-59560000D03*
%TO.P,color1,6,NC*%
%TO.N,unconnected-(color1-NC-Pad6)*%
X93054886Y-62100000D03*
%TO.P,color1,7,INT*%
%TO.N,unconnected-(color1-INT-Pad7)*%
X93054886Y-64640000D03*
%TO.P,color1,8,LED-A*%
%TO.N,+3.3VA*%
X93054886Y-67180000D03*
%TD*%
D23*
%TO.P,A11,1*%
%TO.N,+5V*%
X40750886Y-83820000D03*
D24*
%TO.P,A11,2*%
%TO.N,Net-(A11-Pad2)*%
X43250886Y-83820000D03*
%TO.P,A11,3*%
%TO.N,/Line11*%
X43250886Y-81020000D03*
%TO.P,A11,4*%
%TO.N,+3.3V*%
X40750886Y-81020000D03*
%TD*%
D23*
%TO.P,A2,1*%
%TO.N,+5V*%
X128460886Y-90170000D03*
D24*
%TO.P,A2,2*%
%TO.N,Net-(A2-Pad2)*%
X130960886Y-90170000D03*
%TO.P,A2,3*%
%TO.N,/Line2*%
X130960886Y-87370000D03*
%TO.P,A2,4*%
%TO.N,+3.3V*%
X128460886Y-87370000D03*
%TD*%
D23*
%TO.P,A3,1*%
%TO.N,+5V*%
X118260886Y-90170000D03*
D24*
%TO.P,A3,2*%
%TO.N,Net-(A3-Pad2)*%
X120760886Y-90170000D03*
%TO.P,A3,3*%
%TO.N,/Line3*%
X120760886Y-87370000D03*
%TO.P,A3,4*%
%TO.N,+3.3V*%
X118260886Y-87370000D03*
%TD*%
D23*
%TO.P,A4,1*%
%TO.N,+5V*%
X108100886Y-90170000D03*
D24*
%TO.P,A4,2*%
%TO.N,Net-(A4-Pad2)*%
X110600886Y-90170000D03*
%TO.P,A4,3*%
%TO.N,/Line4*%
X110600886Y-87370000D03*
%TO.P,A4,4*%
%TO.N,+3.3V*%
X108100886Y-87370000D03*
%TD*%
D25*
%TO.N,+3.3V*%
X47060886Y-84853000D03*
X64860886Y-83436000D03*
X64860886Y-80896000D03*
%TO.N,GND*%
X104865886Y-106550000D03*
X51652886Y-85722000D03*
X55970886Y-77340000D03*
X108675886Y-102105000D03*
X138266886Y-85214000D03*
X48350886Y-77340000D03*
X43270886Y-91945000D03*
X48350886Y-79880000D03*
X88990886Y-85976000D03*
X87212886Y-100708000D03*
X94324886Y-99692000D03*
X66892886Y-93850000D03*
X45048886Y-84452000D03*
X87212886Y-97406000D03*
X114898886Y-82420000D03*
X73369886Y-106296000D03*
X61050886Y-96898000D03*
X107532886Y-88770000D03*
X92800886Y-91564000D03*
X105754886Y-84706000D03*
X102071886Y-88643000D03*
X94070886Y-107820000D03*
X92546886Y-95628000D03*
X40730886Y-79245000D03*
X97372886Y-99692000D03*
X81370886Y-107820000D03*
X91784886Y-89278000D03*
X82640886Y-99565000D03*
X43270886Y-90040000D03*
X44540886Y-76705000D03*
X58510886Y-77340000D03*
X90260886Y-94104000D03*
X111850886Y-95120000D03*
X48350886Y-84960000D03*
X114898886Y-86992000D03*
X44540886Y-79880000D03*
X51906886Y-91564000D03*
X112104886Y-85976000D03*
X96610886Y-110868000D03*
X100928886Y-101724000D03*
X45302886Y-86484000D03*
X97626886Y-102232000D03*
X94070886Y-94104000D03*
X117184886Y-84960000D03*
X138266886Y-76578000D03*
X40730886Y-77340000D03*
X96610886Y-107820000D03*
X43270886Y-88135000D03*
X118200886Y-73530000D03*
X125566886Y-85976000D03*
X82640886Y-93850000D03*
X65241886Y-74165000D03*
X78830886Y-95755000D03*
X85942886Y-83436000D03*
X73115886Y-94485000D03*
X71718886Y-91564000D03*
X61050886Y-91310000D03*
X94324886Y-96898000D03*
X83910886Y-101978000D03*
X98388886Y-104772000D03*
X135472886Y-76578000D03*
X82640886Y-95755000D03*
X97372886Y-96898000D03*
X102960886Y-94104000D03*
X138012886Y-90294000D03*
X78830886Y-84706000D03*
X59272886Y-82293000D03*
X101944886Y-110360000D03*
X138012886Y-92580000D03*
X79084886Y-91564000D03*
X100166886Y-96898000D03*
X75401886Y-84833000D03*
X103214886Y-97152000D03*
X62828886Y-98168000D03*
X54954886Y-85976000D03*
X113120886Y-93850000D03*
X40730886Y-91945000D03*
X94324886Y-102232000D03*
X91276886Y-102232000D03*
X58510886Y-88770000D03*
X123026886Y-85976000D03*
X103214886Y-99438000D03*
X97372886Y-94612000D03*
X80735886Y-93850000D03*
X122518886Y-81658000D03*
X61050886Y-94104000D03*
X112866886Y-70990000D03*
X111342886Y-88770000D03*
X62574886Y-85468000D03*
X138266886Y-79372000D03*
X105500886Y-91564000D03*
X68670886Y-85468000D03*
X40730886Y-88135000D03*
X86704886Y-104264000D03*
X50128886Y-91564000D03*
X74766886Y-91564000D03*
X106770886Y-109090000D03*
X72988886Y-84833000D03*
X62320886Y-81658000D03*
X92800886Y-104010000D03*
X90260886Y-100708000D03*
X75274886Y-107820000D03*
X63844886Y-87246000D03*
X86196886Y-90294000D03*
X119724886Y-81658000D03*
X82132886Y-87246000D03*
X118708886Y-77594000D03*
X77560886Y-94485000D03*
X105500886Y-88008000D03*
X111850886Y-82166000D03*
X45175886Y-90040000D03*
X116930886Y-81658000D03*
X95594886Y-91564000D03*
X59399886Y-72514000D03*
X132805886Y-79245000D03*
X100928886Y-99692000D03*
X52160886Y-88516000D03*
X82640886Y-98295000D03*
X96229886Y-84706000D03*
X102325886Y-107820000D03*
X103595886Y-103375000D03*
X78957886Y-107820000D03*
X68416886Y-94866000D03*
X75909886Y-96644000D03*
X95594886Y-89278000D03*
X123026886Y-88770000D03*
X88228886Y-83436000D03*
X87212886Y-94104000D03*
X82132886Y-91564000D03*
X68797886Y-107693000D03*
X45175886Y-91945000D03*
X115914886Y-88262000D03*
X71083886Y-107820000D03*
X66130886Y-84706000D03*
X62193886Y-72514000D03*
X138266886Y-82420000D03*
X132678886Y-76578000D03*
X132678886Y-81658000D03*
X126328886Y-90040000D03*
X104230886Y-110360000D03*
X58510886Y-85722000D03*
X73242886Y-96644000D03*
X132932886Y-91564000D03*
X113882886Y-84706000D03*
X54954886Y-88770000D03*
X87974886Y-102994000D03*
X122645886Y-76705000D03*
X101944886Y-85722000D03*
X92927886Y-85595000D03*
X124550886Y-81785000D03*
X86958886Y-84960000D03*
X107405886Y-96390000D03*
X107405886Y-104010000D03*
X89244886Y-104264000D03*
X105246886Y-95120000D03*
X115914886Y-70990000D03*
X75401886Y-88516000D03*
X65876886Y-81658000D03*
X124550886Y-76705000D03*
X101690886Y-104645000D03*
X40730886Y-90040000D03*
X113120886Y-91310000D03*
X40730886Y-86230000D03*
X71210886Y-109979000D03*
X124550886Y-79245000D03*
X109310886Y-95120000D03*
X55970886Y-79880000D03*
X75274886Y-109979000D03*
X109310886Y-106550000D03*
X73496886Y-101216000D03*
X109564886Y-91564000D03*
X134964886Y-92580000D03*
X135980886Y-90294000D03*
X118200886Y-70990000D03*
X106770886Y-99565000D03*
X54954886Y-91310000D03*
X48350886Y-88770000D03*
X109310886Y-88770000D03*
X90260886Y-97660000D03*
X78830886Y-88770000D03*
X85688886Y-87500000D03*
X136996886Y-88008000D03*
X68797886Y-104264000D03*
X75020886Y-94485000D03*
X105246886Y-97152000D03*
X47080886Y-91945000D03*
X102960886Y-91564000D03*
X105500886Y-101470000D03*
X58510886Y-79880000D03*
X71210886Y-94485000D03*
X83402886Y-84706000D03*
%TO.N,/SCL*%
X91530886Y-100708000D03*
X97880886Y-82420000D03*
%TO.N,/SDA*%
X100420886Y-93850000D03*
X81878886Y-101812000D03*
%TO.N,/SCL1*%
X114390886Y-93850000D03*
X114390886Y-91564000D03*
X119470886Y-84452000D03*
%TO.N,/SDA1*%
X109564886Y-93850000D03*
%TO.N,/XSHUT1*%
X68670886Y-110868000D03*
X65622886Y-93596000D03*
%TO.N,/XSHUT2*%
X67146886Y-110741000D03*
X64860886Y-95120000D03*
%TO.N,/Line11*%
X80100886Y-102144000D03*
X68670886Y-96390000D03*
X71210886Y-96390000D03*
%TO.N,GND2*%
X83275886Y-57147000D03*
X62955886Y-53845000D03*
X101690886Y-67180000D03*
X95340886Y-62100000D03*
X68035886Y-56385000D03*
X103468886Y-57020000D03*
X100293886Y-57020000D03*
X73115886Y-60703000D03*
X58510886Y-57020000D03*
X61685886Y-65275000D03*
X111215886Y-65910000D03*
X109310886Y-62100000D03*
X94705886Y-67180000D03*
X105500886Y-62100000D03*
X97880886Y-62100000D03*
X107532886Y-53845000D03*
X88863886Y-57020000D03*
X78322886Y-57147000D03*
X60415886Y-51305000D03*
X85815886Y-65910000D03*
X112485886Y-64513000D03*
X68035886Y-68323000D03*
X91403886Y-57020000D03*
X106643886Y-57020000D03*
X118835886Y-68323000D03*
X116422886Y-53718000D03*
X58510886Y-67815000D03*
X112358886Y-57020000D03*
X68035886Y-64513000D03*
X79465886Y-68450000D03*
X118835886Y-66291000D03*
X79465886Y-64513000D03*
X58510886Y-62100000D03*
X68035886Y-51305000D03*
X79465886Y-60703000D03*
X118835886Y-64005000D03*
X96483886Y-57020000D03*
X73115886Y-68450000D03*
X97880886Y-67180000D03*
X109818886Y-57020000D03*
X85815886Y-63370000D03*
X73115886Y-64513000D03*
X101690886Y-62100000D03*
%TO.N,/SDA_*%
X118200886Y-56512000D03*
%TO.N,/c1*%
X109310886Y-67180000D03*
X99658886Y-62100000D03*
%TD*%
D26*
%TO.N,Net-(A1-Pad2)*%
X137270886Y-83820000D02*
X137270886Y-86353500D01*
X137270886Y-86353500D02*
X137655386Y-86738000D01*
%TO.N,/Line1*%
X137270886Y-78105500D02*
X137274386Y-78102000D01*
X137270886Y-81020000D02*
X137270886Y-78105500D01*
%TO.N,+3.3V*%
X128460886Y-87370000D02*
X127090886Y-86000000D01*
X118454886Y-83436000D02*
X127090886Y-83436000D01*
X97940886Y-87370000D02*
X97940886Y-83496000D01*
X64890886Y-75465000D02*
X64890886Y-80866000D01*
X77560886Y-83436000D02*
X83806886Y-83436000D01*
X87740886Y-87370000D02*
X87740886Y-85355146D01*
X118260886Y-87370000D02*
X118260886Y-83630000D01*
X97880886Y-83436000D02*
X108040886Y-83436000D01*
X67380886Y-87370000D02*
X67380886Y-83456000D01*
X108100886Y-83496000D02*
X108040886Y-83436000D01*
X57220886Y-83456000D02*
X57240886Y-83436000D01*
X77580886Y-87370000D02*
X77580886Y-83456000D01*
X57240886Y-83436000D02*
X48477886Y-83436000D01*
X127090886Y-86000000D02*
X127090886Y-83436000D01*
X118260886Y-83630000D02*
X118454886Y-83436000D01*
X67400886Y-83436000D02*
X77560886Y-83436000D01*
X113090886Y-73560000D02*
X113090886Y-83406000D01*
X77274886Y-97057000D02*
X85180886Y-97057000D01*
X64860886Y-83436000D02*
X67400886Y-83436000D01*
X48477886Y-83436000D02*
X47060886Y-84853000D01*
X113120886Y-83436000D02*
X118454886Y-83436000D01*
X57220886Y-87370000D02*
X57220886Y-83456000D01*
X127090886Y-83436000D02*
X132354886Y-83436000D01*
X67380886Y-83456000D02*
X67400886Y-83436000D01*
X64890886Y-80866000D02*
X64860886Y-80896000D01*
X64860886Y-83436000D02*
X57240886Y-83436000D01*
X47060886Y-84853000D02*
X47060886Y-87370000D01*
X87740886Y-85355146D02*
X89660032Y-83436000D01*
X97940886Y-83496000D02*
X97880886Y-83436000D01*
X75221886Y-99110000D02*
X77274886Y-97057000D01*
X83806886Y-83436000D02*
X87740886Y-87370000D01*
X108100886Y-87370000D02*
X108100886Y-83496000D01*
X108040886Y-83436000D02*
X113120886Y-83436000D01*
X114390886Y-72260000D02*
X113090886Y-73560000D01*
X132354886Y-83436000D02*
X134770886Y-81020000D01*
X89660032Y-83436000D02*
X97880886Y-83436000D01*
X113090886Y-83406000D02*
X113120886Y-83436000D01*
X77580886Y-83456000D02*
X77560886Y-83436000D01*
X63590886Y-74165000D02*
X64890886Y-75465000D01*
%TO.N,+5V*%
X57220886Y-90170000D02*
X57220886Y-92644000D01*
X128460886Y-90170000D02*
X128460886Y-92680000D01*
X87720886Y-92664000D02*
X77560886Y-92664000D01*
X49554886Y-92664000D02*
X47060886Y-90170000D01*
X47060886Y-90130000D02*
X40750886Y-83820000D01*
X69940886Y-106670000D02*
X75394886Y-101216000D01*
X128487886Y-92707000D02*
X133186886Y-92707000D01*
X67400886Y-92664000D02*
X57240886Y-92664000D01*
X118260886Y-90170000D02*
X118260886Y-92640000D01*
X118260886Y-92640000D02*
X118327886Y-92707000D01*
X128460886Y-92680000D02*
X128487886Y-92707000D01*
X97940886Y-92664000D02*
X97940886Y-90170000D01*
X118327886Y-92707000D02*
X128487886Y-92707000D01*
X81526804Y-100962000D02*
X85434886Y-100962000D01*
X108167886Y-92707000D02*
X118327886Y-92707000D01*
X47060886Y-90170000D02*
X47060886Y-90130000D01*
X69940886Y-99792500D02*
X71999386Y-99792500D01*
X71999386Y-99792500D02*
X72681886Y-99110000D01*
X87740886Y-90170000D02*
X87740886Y-92644000D01*
X57240886Y-92664000D02*
X49554886Y-92664000D01*
X69940886Y-106670000D02*
X69940886Y-99792500D01*
X67380886Y-92644000D02*
X67400886Y-92664000D01*
X57220886Y-92644000D02*
X57240886Y-92664000D01*
X77580886Y-90170000D02*
X77580886Y-92644000D01*
X81272804Y-101216000D02*
X81526804Y-100962000D01*
X75394886Y-101216000D02*
X81272804Y-101216000D01*
X97983886Y-92707000D02*
X97940886Y-92664000D01*
X133186886Y-92707000D02*
X134770886Y-91123000D01*
X93689886Y-92707000D02*
X97983886Y-92707000D01*
X134770886Y-91123000D02*
X134770886Y-83820000D01*
X108100886Y-90170000D02*
X108100886Y-92640000D01*
X97983886Y-92707000D02*
X108167886Y-92707000D01*
X87740886Y-92644000D02*
X87720886Y-92664000D01*
X77560886Y-92664000D02*
X67400886Y-92664000D01*
X67380886Y-90170000D02*
X67380886Y-92644000D01*
X97940886Y-92664000D02*
X87720886Y-92664000D01*
X77580886Y-92644000D02*
X77560886Y-92664000D01*
X85434886Y-100962000D02*
X93689886Y-92707000D01*
X108100886Y-92640000D02*
X108167886Y-92707000D01*
%TO.N,Net-(A2-Pad2)*%
X133334386Y-90170000D02*
X133440886Y-90063500D01*
X130960886Y-90170000D02*
X133334386Y-90170000D01*
%TO.N,/Line2*%
X130960886Y-87370000D02*
X130960886Y-84488500D01*
X130960886Y-84488500D02*
X130924386Y-84452000D01*
%TO.N,/Line3*%
X120760886Y-87370000D02*
X120760886Y-84512000D01*
X120760886Y-84512000D02*
X120820886Y-84452000D01*
%TO.N,Net-(A3-Pad2)*%
X120781386Y-90190500D02*
X120760886Y-90170000D01*
X124677886Y-90190500D02*
X120781386Y-90190500D01*
%TO.N,/Line4*%
X110600886Y-84535500D02*
X110684386Y-84452000D01*
X110600886Y-87370000D02*
X110600886Y-84535500D01*
%TO.N,Net-(A4-Pad2)*%
X114390886Y-90167000D02*
X110603886Y-90167000D01*
X110603886Y-90167000D02*
X110600886Y-90170000D01*
%TO.N,/Line5*%
X100440886Y-84535500D02*
X100524386Y-84452000D01*
X100440886Y-87370000D02*
X100440886Y-84535500D01*
%TO.N,Net-(A5-Pad2)*%
X104210386Y-90170000D02*
X104230886Y-90190500D01*
X100440886Y-90170000D02*
X104210386Y-90170000D01*
D27*
%TO.N,/SCL*%
X62225886Y-79541701D02*
X65104185Y-82420000D01*
X86450886Y-107820000D02*
X85180886Y-109090000D01*
X62225886Y-77880000D02*
X62225886Y-79541701D01*
X86450886Y-105788000D02*
X86450886Y-107820000D01*
X91530886Y-100708000D02*
X86450886Y-105788000D01*
X61050886Y-76705000D02*
X62225886Y-77880000D01*
X65104185Y-82420000D02*
X97880886Y-82420000D01*
%TO.N,/SDA*%
X84005886Y-105693000D02*
X95848886Y-93850000D01*
X84005886Y-107725000D02*
X84005886Y-105693000D01*
X81878886Y-101812000D02*
X84005886Y-103939000D01*
X82640886Y-109090000D02*
X84005886Y-107725000D01*
X95848886Y-93850000D02*
X100420886Y-93850000D01*
X84005886Y-103939000D02*
X84005886Y-105693000D01*
%TO.N,Net-(J3-Pin_4)*%
X119518886Y-78515000D02*
X115755886Y-78515000D01*
X120185886Y-77848000D02*
X119518886Y-78515000D01*
X115755886Y-78515000D02*
X114390886Y-79880000D01*
%TO.N,Net-(J3-Pin_5)*%
X120185886Y-79880000D02*
X116930886Y-79880000D01*
%TO.N,/SCL1*%
X92800886Y-111630000D02*
X90260886Y-109090000D01*
X114390886Y-91564000D02*
X115914886Y-91564000D01*
X114390886Y-96136000D02*
X110580886Y-99946000D01*
X110580886Y-107312000D02*
X106262886Y-111630000D01*
X117764886Y-88516000D02*
X118669886Y-88516000D01*
X110580886Y-99946000D02*
X110580886Y-107312000D01*
X106262886Y-111630000D02*
X92800886Y-111630000D01*
X116676886Y-90802000D02*
X116676886Y-89604000D01*
X115914886Y-91564000D02*
X116676886Y-90802000D01*
X119470886Y-87715000D02*
X119470886Y-84452000D01*
X118669886Y-88516000D02*
X119470886Y-87715000D01*
X114390886Y-93850000D02*
X114390886Y-96136000D01*
X116676886Y-89604000D02*
X117764886Y-88516000D01*
%TO.N,/SDA1*%
X93689886Y-105026000D02*
X90123185Y-105026000D01*
X88990886Y-107820000D02*
X87720886Y-109090000D01*
X88990886Y-106158299D02*
X88990886Y-107820000D01*
X104865886Y-93850000D02*
X93689886Y-105026000D01*
X90123185Y-105026000D02*
X88990886Y-106158299D01*
X109564886Y-93850000D02*
X104865886Y-93850000D01*
%TO.N,/XSHUT1*%
X68670886Y-110868000D02*
X67781886Y-109979000D01*
X67781886Y-96780305D02*
X65622886Y-94621305D01*
X67781886Y-109979000D02*
X67781886Y-96780305D01*
X65622886Y-94621305D02*
X65622886Y-93596000D01*
%TO.N,/XSHUT2*%
X67146886Y-97914000D02*
X64860886Y-95628000D01*
X67146886Y-110741000D02*
X67146886Y-97914000D01*
X64860886Y-95628000D02*
X64860886Y-95120000D01*
D26*
%TO.N,Net-(J1-Pin_1)*%
X77560886Y-109090000D02*
X70060886Y-109090000D01*
X70060886Y-109090000D02*
X69940886Y-108970000D01*
%TO.N,Net-(A6-Pad2)*%
X90240886Y-90170000D02*
X94050386Y-90170000D01*
X94050386Y-90170000D02*
X94070886Y-90190500D01*
%TO.N,/Line6*%
X90240886Y-87370000D02*
X90240886Y-84582500D01*
X90240886Y-84582500D02*
X90110386Y-84452000D01*
%TO.N,/Line7*%
X80080886Y-87370000D02*
X80080886Y-84455500D01*
X80080886Y-84455500D02*
X80077386Y-84452000D01*
%TO.N,Net-(A7-Pad2)*%
X83763386Y-90170000D02*
X83783886Y-90190500D01*
X80080886Y-90170000D02*
X83763386Y-90170000D01*
%TO.N,/Line8*%
X69880886Y-87370000D02*
X69880886Y-84488500D01*
X69880886Y-84488500D02*
X69917386Y-84452000D01*
%TO.N,Net-(A8-Pad2)*%
X73603386Y-90170000D02*
X73623886Y-90190500D01*
X69880886Y-90170000D02*
X73603386Y-90170000D01*
D27*
%TO.N,Net-(A9-Pad2)*%
X59720886Y-90170000D02*
X61809886Y-90170000D01*
X61809886Y-90170000D02*
X61939886Y-90040000D01*
D26*
%TO.N,/Line9*%
X59720886Y-87370000D02*
X59720886Y-84488500D01*
X59720886Y-84488500D02*
X59757386Y-84452000D01*
%TO.N,Net-(A10-Pad2)*%
X53410386Y-90170000D02*
X53430886Y-90190500D01*
X49560886Y-90170000D02*
X53410386Y-90170000D01*
%TO.N,/Line10*%
X49560886Y-84488500D02*
X49597386Y-84452000D01*
X49560886Y-87370000D02*
X49560886Y-84488500D01*
%TO.N,Net-(A11-Pad2)*%
X44053386Y-83820000D02*
X45937886Y-81935500D01*
X43250886Y-83820000D02*
X44053386Y-83820000D01*
%TO.N,/Line11*%
X71210886Y-96390000D02*
X68670886Y-96390000D01*
X43250886Y-78105500D02*
X43247386Y-78102000D01*
X80100886Y-102144000D02*
X80100886Y-106550000D01*
X43250886Y-81020000D02*
X43250886Y-78105500D01*
%TO.N,+3.3VA*%
X90514886Y-67180000D02*
X93054886Y-67180000D01*
X63209886Y-61465000D02*
X60611886Y-58867000D01*
X88736886Y-65096827D02*
X88736886Y-60830000D01*
X60611886Y-53660000D02*
X59399886Y-52448000D01*
X90514886Y-67180000D02*
X90514886Y-66874827D01*
X88736886Y-60830000D02*
X87466886Y-59560000D01*
X90514886Y-66874827D02*
X88736886Y-65096827D01*
X114009886Y-53718000D02*
X114009886Y-59560000D01*
X60611886Y-58867000D02*
X60611886Y-53660000D01*
X87466886Y-59560000D02*
X84926886Y-59560000D01*
X112739886Y-52448000D02*
X114009886Y-53718000D01*
D27*
%TO.N,/SDA_*%
X114771886Y-64640000D02*
X115946886Y-63465000D01*
X114009886Y-64640000D02*
X114771886Y-64640000D01*
X118200886Y-62227000D02*
X118200886Y-56512000D01*
X114009886Y-64640000D02*
X110016886Y-60647000D01*
X110016886Y-60647000D02*
X91967886Y-60647000D01*
X61939886Y-54988000D02*
X64384886Y-57433000D01*
X64384886Y-62830000D02*
X63209886Y-64005000D01*
X91967886Y-60647000D02*
X90514886Y-62100000D01*
X64384886Y-57433000D02*
X64384886Y-62830000D01*
X115946886Y-63465000D02*
X116962886Y-63465000D01*
X116962886Y-63465000D02*
X118200886Y-62227000D01*
%TO.N,/SCL_*%
X115374886Y-57433000D02*
X117819886Y-54988000D01*
X115374886Y-60735000D02*
X115374886Y-57433000D01*
X114009886Y-62100000D02*
X115374886Y-60735000D01*
%TO.N,/SDA1_*%
X112575886Y-65947000D02*
X110072886Y-68450000D01*
X88990886Y-66164000D02*
X87466886Y-64640000D01*
X90247635Y-68450000D02*
X88990886Y-67193251D01*
X110072886Y-68450000D02*
X90247635Y-68450000D01*
X115242886Y-65947000D02*
X112575886Y-65947000D01*
X88990886Y-67193251D02*
X88990886Y-66164000D01*
X116549886Y-64640000D02*
X115242886Y-65947000D01*
%TO.N,/XSHUT1_*%
X108662635Y-54988000D02*
X112289635Y-51361000D01*
X112289635Y-51361000D02*
X114192886Y-51361000D01*
X63209886Y-66545000D02*
X74766886Y-54988000D01*
X74766886Y-54988000D02*
X108662635Y-54988000D01*
X114192886Y-51361000D02*
X115279886Y-52448000D01*
D26*
%TO.N,/c1*%
X92546886Y-59560000D02*
X92521486Y-59534600D01*
D27*
X104738886Y-67180000D02*
X99658886Y-62100000D01*
D26*
X113984486Y-67154600D02*
X114009886Y-67180000D01*
D27*
X109310886Y-67180000D02*
X104738886Y-67180000D01*
%TD*%
%TA.AperFunction,Conductor*%
%TO.N,GND*%
G36*
X64295925Y-93234185D02*
G01*
X64341680Y-93286989D01*
X64352886Y-93338500D01*
X64352886Y-94584190D01*
X64333201Y-94651229D01*
X64330936Y-94654630D01*
X64236069Y-94792068D01*
X64236068Y-94792068D01*
X64175746Y-94951125D01*
X64175745Y-94951130D01*
X64155241Y-95120000D01*
X64175745Y-95288869D01*
X64175746Y-95288874D01*
X64236068Y-95447931D01*
X64279030Y-95510171D01*
X64327135Y-95579863D01*
X64332704Y-95587930D01*
X64405686Y-95652587D01*
X64442813Y-95711776D01*
X64443234Y-95713308D01*
X64464383Y-95792238D01*
X64464384Y-95792239D01*
X64476673Y-95813524D01*
X64520401Y-95889263D01*
X65612695Y-96981557D01*
X66685067Y-98053928D01*
X66718552Y-98115251D01*
X66721386Y-98141609D01*
X66721386Y-110126294D01*
X66701701Y-110193333D01*
X66679613Y-110219109D01*
X66618704Y-110273069D01*
X66522068Y-110413068D01*
X66461746Y-110572125D01*
X66461745Y-110572130D01*
X66441241Y-110741000D01*
X66461745Y-110909869D01*
X66461746Y-110909874D01*
X66522068Y-111068931D01*
X66530054Y-111080500D01*
X66618703Y-111208929D01*
X66724391Y-111302560D01*
X66746036Y-111321736D01*
X66896659Y-111400789D01*
X66896661Y-111400790D01*
X67061830Y-111441500D01*
X67231942Y-111441500D01*
X67397111Y-111400790D01*
X67520696Y-111335927D01*
X67547735Y-111321736D01*
X67547736Y-111321734D01*
X67547738Y-111321734D01*
X67675069Y-111208929D01*
X67771704Y-111068930D01*
X67771706Y-111068923D01*
X67774974Y-111062698D01*
X67823556Y-111012482D01*
X67891574Y-110996504D01*
X67957433Y-111019835D01*
X68000223Y-111075068D01*
X68000716Y-111076346D01*
X68046068Y-111195930D01*
X68046068Y-111195931D01*
X68108361Y-111286177D01*
X68142703Y-111335929D01*
X68248391Y-111429560D01*
X68270036Y-111448736D01*
X68420659Y-111527789D01*
X68420661Y-111527790D01*
X68585830Y-111568500D01*
X68755942Y-111568500D01*
X68921111Y-111527790D01*
X69000578Y-111486081D01*
X69071735Y-111448736D01*
X69071736Y-111448734D01*
X69071738Y-111448734D01*
X69199069Y-111335929D01*
X69295704Y-111195930D01*
X69356026Y-111036872D01*
X69376531Y-110868000D01*
X69356026Y-110699128D01*
X69295704Y-110540070D01*
X69199069Y-110400071D01*
X69071738Y-110287266D01*
X69071735Y-110287263D01*
X68921112Y-110208210D01*
X68755942Y-110167500D01*
X68623496Y-110167500D01*
X68556457Y-110147815D01*
X68535815Y-110131181D01*
X68243705Y-109839071D01*
X68210220Y-109777748D01*
X68207386Y-109751390D01*
X68207386Y-108325131D01*
X69165386Y-108325131D01*
X69165386Y-109614856D01*
X69165388Y-109614882D01*
X69168299Y-109639987D01*
X69168301Y-109639991D01*
X69213679Y-109742764D01*
X69213680Y-109742765D01*
X69293121Y-109822206D01*
X69395895Y-109867585D01*
X69421021Y-109870500D01*
X70460750Y-109870499D01*
X70460765Y-109870497D01*
X70460768Y-109870497D01*
X70485873Y-109867586D01*
X70485874Y-109867585D01*
X70485877Y-109867585D01*
X70588651Y-109822206D01*
X70668092Y-109742765D01*
X70680611Y-109714411D01*
X70725695Y-109661038D01*
X70792481Y-109640510D01*
X70794044Y-109640500D01*
X76286387Y-109640500D01*
X76353426Y-109660185D01*
X76399181Y-109712989D01*
X76410387Y-109764500D01*
X76410387Y-109984856D01*
X76410388Y-109984882D01*
X76413299Y-110009987D01*
X76413301Y-110009991D01*
X76458679Y-110112764D01*
X76458680Y-110112765D01*
X76538121Y-110192206D01*
X76640895Y-110237585D01*
X76666021Y-110240500D01*
X78455750Y-110240499D01*
X78455765Y-110240497D01*
X78455768Y-110240497D01*
X78480873Y-110237586D01*
X78480874Y-110237585D01*
X78480877Y-110237585D01*
X78583651Y-110192206D01*
X78663092Y-110112765D01*
X78708471Y-110009991D01*
X78711386Y-109984865D01*
X78711385Y-108195136D01*
X78711383Y-108195117D01*
X78708472Y-108170012D01*
X78708471Y-108170010D01*
X78708471Y-108170009D01*
X78663092Y-108067235D01*
X78583651Y-107987794D01*
X78563010Y-107978680D01*
X78480878Y-107942415D01*
X78455751Y-107939500D01*
X76666029Y-107939500D01*
X76666003Y-107939502D01*
X76640898Y-107942413D01*
X76640894Y-107942415D01*
X76538121Y-107987793D01*
X76458680Y-108067234D01*
X76413301Y-108170006D01*
X76413301Y-108170008D01*
X76410386Y-108195131D01*
X76410386Y-108415500D01*
X76390701Y-108482539D01*
X76337897Y-108528294D01*
X76286386Y-108539500D01*
X70840385Y-108539500D01*
X70773346Y-108519815D01*
X70727591Y-108467011D01*
X70716385Y-108415500D01*
X70716385Y-108325143D01*
X70716385Y-108325136D01*
X70716383Y-108325117D01*
X70713472Y-108300012D01*
X70713471Y-108300010D01*
X70713471Y-108300009D01*
X70668092Y-108197235D01*
X70588651Y-108117794D01*
X70588649Y-108117793D01*
X70485878Y-108072415D01*
X70460751Y-108069500D01*
X69421029Y-108069500D01*
X69421003Y-108069502D01*
X69395898Y-108072413D01*
X69395894Y-108072415D01*
X69293121Y-108117793D01*
X69213680Y-108197234D01*
X69168301Y-108300006D01*
X69168301Y-108300008D01*
X69165386Y-108325131D01*
X68207386Y-108325131D01*
X68207386Y-97142975D01*
X68227071Y-97075936D01*
X68279875Y-97030181D01*
X68349033Y-97020237D01*
X68389008Y-97033177D01*
X68420661Y-97049790D01*
X68585830Y-97090500D01*
X68755942Y-97090500D01*
X68921111Y-97049790D01*
X69051117Y-96981557D01*
X69071731Y-96970738D01*
X69071732Y-96970736D01*
X69071738Y-96970734D01*
X69071742Y-96970730D01*
X69077906Y-96966476D01*
X69078846Y-96967839D01*
X69133897Y-96941963D01*
X69152892Y-96940500D01*
X70728880Y-96940500D01*
X70795919Y-96960185D01*
X70807960Y-96969302D01*
X70810040Y-96970738D01*
X70960659Y-97049789D01*
X70960661Y-97049790D01*
X71125830Y-97090500D01*
X71295942Y-97090500D01*
X71461111Y-97049790D01*
X71591117Y-96981557D01*
X71611735Y-96970736D01*
X71611736Y-96970734D01*
X71611738Y-96970734D01*
X71739069Y-96857929D01*
X71835704Y-96717930D01*
X71896026Y-96558872D01*
X71916531Y-96390000D01*
X71896026Y-96221128D01*
X71892618Y-96212143D01*
X71844110Y-96084235D01*
X71835704Y-96062070D01*
X71739069Y-95922071D01*
X71644202Y-95838026D01*
X71611735Y-95809263D01*
X71461112Y-95730210D01*
X71295942Y-95689500D01*
X71125830Y-95689500D01*
X70960659Y-95730210D01*
X70810040Y-95809261D01*
X70803866Y-95813524D01*
X70802925Y-95812160D01*
X70747875Y-95838037D01*
X70728880Y-95839500D01*
X69152892Y-95839500D01*
X69085853Y-95819815D01*
X69073811Y-95810697D01*
X69071731Y-95809261D01*
X68921112Y-95730210D01*
X68755942Y-95689500D01*
X68585830Y-95689500D01*
X68420659Y-95730210D01*
X68270036Y-95809264D01*
X68270034Y-95809266D01*
X68223133Y-95850816D01*
X68159903Y-95880537D01*
X68140908Y-95882000D01*
X67536691Y-95882000D01*
X67469652Y-95862315D01*
X67449010Y-95845681D01*
X66084705Y-94481376D01*
X66051220Y-94420053D01*
X66048386Y-94393695D01*
X66048386Y-94210705D01*
X66068071Y-94143666D01*
X66090160Y-94117889D01*
X66151068Y-94063930D01*
X66247703Y-93923931D01*
X66247702Y-93923931D01*
X66247704Y-93923930D01*
X66308026Y-93764872D01*
X66328531Y-93596000D01*
X66308026Y-93427128D01*
X66291089Y-93382470D01*
X66285723Y-93312807D01*
X66318871Y-93251301D01*
X66380009Y-93217480D01*
X66407032Y-93214500D01*
X67328411Y-93214500D01*
X77488411Y-93214500D01*
X77488412Y-93214500D01*
X77633360Y-93214500D01*
X87648411Y-93214500D01*
X87648412Y-93214500D01*
X87793360Y-93214500D01*
X92104499Y-93214500D01*
X92171538Y-93234185D01*
X92217293Y-93286989D01*
X92227237Y-93356147D01*
X92198212Y-93419703D01*
X92192180Y-93426181D01*
X85243180Y-100375181D01*
X85181857Y-100408666D01*
X85155499Y-100411500D01*
X81454329Y-100411500D01*
X81365761Y-100435232D01*
X81314318Y-100449016D01*
X81188790Y-100521489D01*
X81188787Y-100521491D01*
X81081098Y-100629181D01*
X81019775Y-100662666D01*
X80993417Y-100665500D01*
X75322411Y-100665500D01*
X75217403Y-100693637D01*
X75182400Y-100703016D01*
X75056872Y-100775489D01*
X75056869Y-100775491D01*
X73890680Y-101941681D01*
X73829357Y-101975166D01*
X73802999Y-101978000D01*
X73548248Y-101978000D01*
X73481209Y-101958315D01*
X73460567Y-101941681D01*
X72141066Y-100622180D01*
X72107581Y-100560857D01*
X72112565Y-100491165D01*
X72154437Y-100435232D01*
X72219901Y-100410815D01*
X72228747Y-100410499D01*
X73679242Y-100410499D01*
X73679250Y-100410499D01*
X73679265Y-100410497D01*
X73679268Y-100410497D01*
X73704373Y-100407586D01*
X73704374Y-100407585D01*
X73704377Y-100407585D01*
X73807151Y-100362206D01*
X73886592Y-100282765D01*
X73890500Y-100273913D01*
X73935585Y-100220538D01*
X74002371Y-100200010D01*
X74003934Y-100200000D01*
X74484743Y-100200000D01*
X74551782Y-100219685D01*
X74557610Y-100223669D01*
X74565171Y-100229162D01*
X74670375Y-100282766D01*
X74740903Y-100318702D01*
X74834687Y-100349174D01*
X74928474Y-100379647D01*
X75018693Y-100393936D01*
X75123268Y-100410500D01*
X75123273Y-100410500D01*
X75320504Y-100410500D01*
X75414938Y-100395542D01*
X75515298Y-100379647D01*
X75702871Y-100318701D01*
X75878601Y-100229162D01*
X76038161Y-100113235D01*
X76177621Y-99973775D01*
X76293548Y-99814215D01*
X76383087Y-99638485D01*
X76444033Y-99450912D01*
X76459928Y-99350552D01*
X76474886Y-99256118D01*
X76474886Y-98963881D01*
X76444033Y-98769091D01*
X76444033Y-98769088D01*
X76442325Y-98763834D01*
X76440329Y-98693994D01*
X76472573Y-98637836D01*
X77466592Y-97643819D01*
X77527915Y-97610334D01*
X77554273Y-97607500D01*
X79942216Y-97607500D01*
X80009255Y-97627185D01*
X80055010Y-97679989D01*
X80064954Y-97749147D01*
X80035929Y-97812703D01*
X79980534Y-97849431D01*
X79820903Y-97901297D01*
X79645170Y-97990838D01*
X79485608Y-98106767D01*
X79346153Y-98246222D01*
X79230224Y-98405784D01*
X79140683Y-98581517D01*
X79079739Y-98769086D01*
X79048886Y-98963881D01*
X79048886Y-99256118D01*
X79079739Y-99450913D01*
X79140683Y-99638482D01*
X79164253Y-99684740D01*
X79230224Y-99814215D01*
X79346151Y-99973775D01*
X79485611Y-100113235D01*
X79645171Y-100229162D01*
X79733004Y-100273915D01*
X79820903Y-100318702D01*
X79914687Y-100349174D01*
X80008474Y-100379647D01*
X80098693Y-100393936D01*
X80203268Y-100410500D01*
X80203273Y-100410500D01*
X80400504Y-100410500D01*
X80494938Y-100395542D01*
X80595298Y-100379647D01*
X80782871Y-100318701D01*
X80958601Y-100229162D01*
X81118161Y-100113235D01*
X81257621Y-99973775D01*
X81373548Y-99814215D01*
X81463087Y-99638485D01*
X81524033Y-99450912D01*
X81539928Y-99350552D01*
X81554886Y-99256118D01*
X81554886Y-98963881D01*
X81524033Y-98769091D01*
X81524033Y-98769088D01*
X81463087Y-98581515D01*
X81373548Y-98405785D01*
X81257621Y-98246225D01*
X81118161Y-98106765D01*
X80958601Y-97990838D01*
X80782868Y-97901297D01*
X80623238Y-97849431D01*
X80565563Y-97809994D01*
X80538364Y-97745635D01*
X80550278Y-97676789D01*
X80597522Y-97625313D01*
X80661556Y-97607500D01*
X83956387Y-97607500D01*
X84023426Y-97627185D01*
X84069181Y-97679989D01*
X84080387Y-97731500D01*
X84080387Y-97901856D01*
X84080388Y-97901882D01*
X84083299Y-97926987D01*
X84083301Y-97926991D01*
X84128679Y-98029764D01*
X84128680Y-98029765D01*
X84208121Y-98109206D01*
X84310895Y-98154585D01*
X84336021Y-98157500D01*
X86025750Y-98157499D01*
X86025765Y-98157497D01*
X86025768Y-98157497D01*
X86050873Y-98154586D01*
X86050874Y-98154585D01*
X86050877Y-98154585D01*
X86153651Y-98109206D01*
X86233092Y-98029765D01*
X86278471Y-97926991D01*
X86281386Y-97901865D01*
X86281385Y-96212136D01*
X86279052Y-96192016D01*
X86278472Y-96187012D01*
X86278471Y-96187010D01*
X86278471Y-96187009D01*
X86233092Y-96084235D01*
X86153651Y-96004794D01*
X86133895Y-95996071D01*
X86050878Y-95959415D01*
X86025751Y-95956500D01*
X84336029Y-95956500D01*
X84336003Y-95956502D01*
X84310898Y-95959413D01*
X84310894Y-95959415D01*
X84208121Y-96004793D01*
X84128680Y-96084234D01*
X84083301Y-96187006D01*
X84083301Y-96187008D01*
X84080386Y-96212131D01*
X84080386Y-96382500D01*
X84060701Y-96449539D01*
X84007897Y-96495294D01*
X83956386Y-96506500D01*
X77202411Y-96506500D01*
X77097403Y-96534637D01*
X77062400Y-96544016D01*
X76936872Y-96616489D01*
X76936869Y-96616491D01*
X75718253Y-97835106D01*
X75656930Y-97868591D01*
X75592255Y-97865357D01*
X75515295Y-97840352D01*
X75320504Y-97809500D01*
X75320499Y-97809500D01*
X75123273Y-97809500D01*
X75123268Y-97809500D01*
X74928473Y-97840352D01*
X74740894Y-97901301D01*
X74736392Y-97903166D01*
X74735934Y-97902061D01*
X74686203Y-97914000D01*
X73914719Y-97914000D01*
X73847680Y-97894315D01*
X73827038Y-97877681D01*
X73807151Y-97857794D01*
X73704378Y-97812415D01*
X73679251Y-97809500D01*
X71684529Y-97809500D01*
X71684503Y-97809502D01*
X71659398Y-97812413D01*
X71659394Y-97812415D01*
X71556621Y-97857793D01*
X71477180Y-97937234D01*
X71431801Y-98040006D01*
X71431801Y-98040008D01*
X71431801Y-98040009D01*
X71428886Y-98065135D01*
X71428886Y-98637834D01*
X71428887Y-99118000D01*
X71409203Y-99185039D01*
X71356399Y-99230794D01*
X71304887Y-99242000D01*
X70725212Y-99242000D01*
X70658173Y-99222315D01*
X70626408Y-99192925D01*
X70562386Y-99108499D01*
X70444546Y-99019139D01*
X70444544Y-99019138D01*
X70306963Y-98964883D01*
X70306962Y-98964882D01*
X70306960Y-98964882D01*
X70220505Y-98954500D01*
X70220504Y-98954500D01*
X69661268Y-98954500D01*
X69661267Y-98954500D01*
X69574811Y-98964882D01*
X69574810Y-98964882D01*
X69437225Y-99019139D01*
X69319385Y-99108499D01*
X69230025Y-99226339D01*
X69175768Y-99363924D01*
X69175768Y-99363925D01*
X69165386Y-99450381D01*
X69165386Y-100134618D01*
X69175768Y-100221074D01*
X69175768Y-100221075D01*
X69230025Y-100358660D01*
X69298544Y-100449016D01*
X69319386Y-100476500D01*
X69341311Y-100493126D01*
X69382834Y-100549315D01*
X69390386Y-100591929D01*
X69390386Y-105694049D01*
X69370701Y-105761088D01*
X69317897Y-105806843D01*
X69316472Y-105807483D01*
X69293126Y-105817790D01*
X69293118Y-105817796D01*
X69213680Y-105897234D01*
X69168301Y-106000006D01*
X69168301Y-106000008D01*
X69165386Y-106025131D01*
X69165386Y-107314856D01*
X69165388Y-107314882D01*
X69168299Y-107339987D01*
X69168301Y-107339991D01*
X69213679Y-107442764D01*
X69213680Y-107442765D01*
X69293121Y-107522206D01*
X69395895Y-107567585D01*
X69421021Y-107570500D01*
X70460750Y-107570499D01*
X70460765Y-107570497D01*
X70460768Y-107570497D01*
X70485873Y-107567586D01*
X70485874Y-107567585D01*
X70485877Y-107567585D01*
X70588651Y-107522206D01*
X70668092Y-107442765D01*
X70713471Y-107339991D01*
X70716386Y-107314865D01*
X70716385Y-106724385D01*
X70736069Y-106657347D01*
X70752699Y-106636710D01*
X72327092Y-105062319D01*
X72388415Y-105028834D01*
X72414773Y-105026000D01*
X79426386Y-105026000D01*
X79493425Y-105045685D01*
X79539180Y-105098489D01*
X79550386Y-105150000D01*
X79550386Y-105468602D01*
X79530701Y-105535641D01*
X79491665Y-105574028D01*
X79404586Y-105627945D01*
X79247013Y-105771593D01*
X79118518Y-105941746D01*
X79023482Y-106132605D01*
X79023482Y-106132607D01*
X78965130Y-106337689D01*
X78945457Y-106549999D01*
X78945457Y-106550000D01*
X78965130Y-106762310D01*
X79023482Y-106967392D01*
X79023482Y-106967394D01*
X79118518Y-107158253D01*
X79236800Y-107314882D01*
X79247014Y-107328407D01*
X79404584Y-107472052D01*
X79585867Y-107584298D01*
X79784688Y-107661321D01*
X79994276Y-107700500D01*
X79994278Y-107700500D01*
X80207494Y-107700500D01*
X80207496Y-107700500D01*
X80417084Y-107661321D01*
X80615905Y-107584298D01*
X80797188Y-107472052D01*
X80954758Y-107328407D01*
X81083252Y-107158255D01*
X81178291Y-106967389D01*
X81236642Y-106762310D01*
X81245885Y-106662558D01*
X81271671Y-106597622D01*
X81328471Y-106556934D01*
X81369356Y-106550000D01*
X81372416Y-106550000D01*
X81439455Y-106569685D01*
X81485210Y-106622489D01*
X81495887Y-106662559D01*
X81505130Y-106762310D01*
X81563482Y-106967392D01*
X81563482Y-106967394D01*
X81658518Y-107158253D01*
X81776800Y-107314882D01*
X81787014Y-107328407D01*
X81944584Y-107472052D01*
X81944586Y-107472053D01*
X81944587Y-107472054D01*
X81973765Y-107490120D01*
X82068458Y-107548752D01*
X82074163Y-107552284D01*
X82120799Y-107604312D01*
X82132886Y-107657711D01*
X82132886Y-107982288D01*
X82113201Y-108049327D01*
X82074164Y-108087715D01*
X81944585Y-108167947D01*
X81787013Y-108311593D01*
X81658518Y-108481746D01*
X81563482Y-108672605D01*
X81563482Y-108672607D01*
X81505130Y-108877689D01*
X81485457Y-109089999D01*
X81485457Y-109090000D01*
X81505130Y-109302310D01*
X81563482Y-109507392D01*
X81563482Y-109507394D01*
X81658518Y-109698253D01*
X81752124Y-109822206D01*
X81787014Y-109868407D01*
X81944584Y-110012052D01*
X82125867Y-110124298D01*
X82324688Y-110201321D01*
X82534276Y-110240500D01*
X82534278Y-110240500D01*
X82747494Y-110240500D01*
X82747496Y-110240500D01*
X82957084Y-110201321D01*
X83155905Y-110124298D01*
X83337188Y-110012052D01*
X83471003Y-109890063D01*
X83477256Y-109884363D01*
X83540060Y-109853746D01*
X83560794Y-109852000D01*
X84260978Y-109852000D01*
X84328017Y-109871685D01*
X84344516Y-109884363D01*
X84350769Y-109890063D01*
X84484584Y-110012052D01*
X84665867Y-110124298D01*
X84864688Y-110201321D01*
X85074276Y-110240500D01*
X85074278Y-110240500D01*
X85287494Y-110240500D01*
X85287496Y-110240500D01*
X85497084Y-110201321D01*
X85695905Y-110124298D01*
X85877188Y-110012052D01*
X86011003Y-109890063D01*
X86017256Y-109884363D01*
X86080060Y-109853746D01*
X86100794Y-109852000D01*
X86800978Y-109852000D01*
X86868017Y-109871685D01*
X86884516Y-109884363D01*
X86890769Y-109890063D01*
X87024584Y-110012052D01*
X87205867Y-110124298D01*
X87404688Y-110201321D01*
X87614276Y-110240500D01*
X87614278Y-110240500D01*
X87827494Y-110240500D01*
X87827496Y-110240500D01*
X88037084Y-110201321D01*
X88235905Y-110124298D01*
X88417188Y-110012052D01*
X88551003Y-109890063D01*
X88557256Y-109884363D01*
X88620060Y-109853746D01*
X88640794Y-109852000D01*
X89340978Y-109852000D01*
X89408017Y-109871685D01*
X89424516Y-109884363D01*
X89564583Y-110012051D01*
X89564585Y-110012053D01*
X89694163Y-110092284D01*
X89740799Y-110144312D01*
X89752886Y-110197711D01*
X89752886Y-112141000D01*
X89733201Y-112208039D01*
X89680397Y-112253794D01*
X89628886Y-112265000D01*
X88990886Y-112265000D01*
X66254886Y-112265000D01*
X66187847Y-112245315D01*
X66142092Y-112192511D01*
X66130886Y-112141000D01*
X66130886Y-100200000D01*
X58634886Y-100200000D01*
X58567847Y-100180315D01*
X58522092Y-100127511D01*
X58510886Y-100076000D01*
X58510886Y-93338500D01*
X58530571Y-93271461D01*
X58583375Y-93225706D01*
X58634886Y-93214500D01*
X64228886Y-93214500D01*
X64295925Y-93234185D01*
G37*
%TD.AperFunction*%
%TA.AperFunction,Conductor*%
G36*
X113779465Y-93277185D02*
G01*
X113825220Y-93329989D01*
X113835164Y-93399147D01*
X113814475Y-93451941D01*
X113766069Y-93522066D01*
X113766068Y-93522068D01*
X113705746Y-93681125D01*
X113705745Y-93681130D01*
X113685241Y-93850000D01*
X113705745Y-94018869D01*
X113705746Y-94018874D01*
X113766068Y-94177931D01*
X113862703Y-94317930D01*
X113923612Y-94371889D01*
X113960739Y-94431078D01*
X113965386Y-94464705D01*
X113965386Y-95908390D01*
X113945701Y-95975429D01*
X113929067Y-95996071D01*
X110240403Y-99684734D01*
X110240399Y-99684740D01*
X110184384Y-99781760D01*
X110184383Y-99781763D01*
X110155386Y-99889982D01*
X110155386Y-107084390D01*
X110135701Y-107151429D01*
X110119067Y-107172071D01*
X106122957Y-111168181D01*
X106061634Y-111201666D01*
X106035276Y-111204500D01*
X93940886Y-111204500D01*
X93873847Y-111184815D01*
X93828092Y-111132011D01*
X93816886Y-111080500D01*
X93816886Y-109659871D01*
X93829885Y-109604601D01*
X93878291Y-109507389D01*
X93936642Y-109302310D01*
X93947415Y-109186047D01*
X93973201Y-109121111D01*
X94017755Y-109089194D01*
X93981383Y-109068331D01*
X93949193Y-109006318D01*
X93947415Y-108993951D01*
X93946735Y-108986613D01*
X93936642Y-108877690D01*
X93878291Y-108672611D01*
X93829885Y-108575396D01*
X93816886Y-108520126D01*
X93816886Y-107119871D01*
X93829885Y-107064601D01*
X93878291Y-106967389D01*
X93936642Y-106762310D01*
X93947415Y-106646047D01*
X93973201Y-106581111D01*
X94015508Y-106550804D01*
X94124016Y-106550804D01*
X94160389Y-106571668D01*
X94192579Y-106633681D01*
X94194357Y-106646048D01*
X94205130Y-106762310D01*
X94263482Y-106967392D01*
X94263482Y-106967394D01*
X94358518Y-107158253D01*
X94476800Y-107314882D01*
X94487014Y-107328407D01*
X94644584Y-107472052D01*
X94825867Y-107584298D01*
X95024688Y-107661321D01*
X95221499Y-107698111D01*
X95283779Y-107729779D01*
X95319052Y-107790092D01*
X95316118Y-107859900D01*
X95275909Y-107917040D01*
X95221499Y-107941888D01*
X95024688Y-107978679D01*
X95024685Y-107978679D01*
X95024685Y-107978680D01*
X94825868Y-108055701D01*
X94825866Y-108055702D01*
X94644585Y-108167947D01*
X94487013Y-108311593D01*
X94358518Y-108481746D01*
X94263482Y-108672605D01*
X94263482Y-108672607D01*
X94205130Y-108877689D01*
X94194357Y-108993951D01*
X94168571Y-109058888D01*
X94124016Y-109090804D01*
X94160389Y-109111668D01*
X94192579Y-109173681D01*
X94194357Y-109186048D01*
X94205130Y-109302310D01*
X94263482Y-109507392D01*
X94263482Y-109507394D01*
X94358518Y-109698253D01*
X94452124Y-109822206D01*
X94487014Y-109868407D01*
X94644584Y-110012052D01*
X94825867Y-110124298D01*
X95024688Y-110201321D01*
X95234276Y-110240500D01*
X95234278Y-110240500D01*
X95447494Y-110240500D01*
X95447496Y-110240500D01*
X95657084Y-110201321D01*
X95855905Y-110124298D01*
X96037188Y-110012052D01*
X96194758Y-109868407D01*
X96323252Y-109698255D01*
X96341784Y-109661038D01*
X96418289Y-109507394D01*
X96418289Y-109507393D01*
X96418291Y-109507389D01*
X96476642Y-109302310D01*
X96487415Y-109186047D01*
X96513201Y-109121111D01*
X96557755Y-109089194D01*
X96521383Y-109068331D01*
X96489193Y-109006318D01*
X96487415Y-108993951D01*
X96486735Y-108986613D01*
X96476642Y-108877690D01*
X96418291Y-108672611D01*
X96418289Y-108672606D01*
X96418289Y-108672605D01*
X96323253Y-108481746D01*
X96194758Y-108311593D01*
X96182048Y-108300006D01*
X96037188Y-108167948D01*
X95855905Y-108055702D01*
X95855903Y-108055701D01*
X95721119Y-108003486D01*
X95657084Y-107978679D01*
X95460271Y-107941888D01*
X95397992Y-107910221D01*
X95362719Y-107849908D01*
X95365653Y-107780100D01*
X95405862Y-107722960D01*
X95460270Y-107698111D01*
X95657084Y-107661321D01*
X95855905Y-107584298D01*
X96037188Y-107472052D01*
X96194758Y-107328407D01*
X96323252Y-107158255D01*
X96418291Y-106967389D01*
X96476642Y-106762310D01*
X96487415Y-106646047D01*
X96513201Y-106581111D01*
X96555508Y-106550804D01*
X96664016Y-106550804D01*
X96700389Y-106571668D01*
X96732579Y-106633681D01*
X96734357Y-106646048D01*
X96745130Y-106762310D01*
X96803482Y-106967392D01*
X96803482Y-106967394D01*
X96898518Y-107158253D01*
X97016800Y-107314882D01*
X97027014Y-107328407D01*
X97184584Y-107472052D01*
X97365867Y-107584298D01*
X97564688Y-107661321D01*
X97761499Y-107698111D01*
X97823779Y-107729779D01*
X97859052Y-107790092D01*
X97856118Y-107859900D01*
X97815909Y-107917040D01*
X97761499Y-107941888D01*
X97564688Y-107978679D01*
X97564685Y-107978679D01*
X97564685Y-107978680D01*
X97365868Y-108055701D01*
X97365866Y-108055702D01*
X97184585Y-108167947D01*
X97027013Y-108311593D01*
X96898518Y-108481746D01*
X96803482Y-108672605D01*
X96803482Y-108672607D01*
X96745130Y-108877689D01*
X96734357Y-108993951D01*
X96708571Y-109058888D01*
X96664016Y-109090804D01*
X96700389Y-109111668D01*
X96732579Y-109173681D01*
X96734357Y-109186048D01*
X96745130Y-109302310D01*
X96803482Y-109507392D01*
X96803482Y-109507394D01*
X96898518Y-109698253D01*
X96992124Y-109822206D01*
X97027014Y-109868407D01*
X97184584Y-110012052D01*
X97365867Y-110124298D01*
X97564688Y-110201321D01*
X97774276Y-110240500D01*
X97774278Y-110240500D01*
X97987494Y-110240500D01*
X97987496Y-110240500D01*
X98197084Y-110201321D01*
X98395905Y-110124298D01*
X98577188Y-110012052D01*
X98734758Y-109868407D01*
X98863252Y-109698255D01*
X98881784Y-109661038D01*
X98958289Y-109507394D01*
X98958289Y-109507393D01*
X98958291Y-109507389D01*
X99016642Y-109302310D01*
X99027415Y-109186047D01*
X99053201Y-109121111D01*
X99097755Y-109089194D01*
X99061383Y-109068331D01*
X99029193Y-109006318D01*
X99027415Y-108993951D01*
X99026735Y-108986613D01*
X99016642Y-108877690D01*
X98958291Y-108672611D01*
X98958289Y-108672606D01*
X98958289Y-108672605D01*
X98863253Y-108481746D01*
X98734758Y-108311593D01*
X98722048Y-108300006D01*
X98577188Y-108167948D01*
X98395905Y-108055702D01*
X98395903Y-108055701D01*
X98261119Y-108003486D01*
X98197084Y-107978679D01*
X98000271Y-107941888D01*
X97937992Y-107910221D01*
X97902719Y-107849908D01*
X97905653Y-107780100D01*
X97945862Y-107722960D01*
X98000270Y-107698111D01*
X98197084Y-107661321D01*
X98395905Y-107584298D01*
X98577188Y-107472052D01*
X98734758Y-107328407D01*
X98863252Y-107158255D01*
X98958291Y-106967389D01*
X99016642Y-106762310D01*
X99027415Y-106646047D01*
X99053201Y-106581111D01*
X99095508Y-106550804D01*
X99204016Y-106550804D01*
X99240389Y-106571668D01*
X99272579Y-106633681D01*
X99274357Y-106646048D01*
X99285130Y-106762310D01*
X99343482Y-106967392D01*
X99343482Y-106967394D01*
X99438518Y-107158253D01*
X99556800Y-107314882D01*
X99567014Y-107328407D01*
X99724584Y-107472052D01*
X99905867Y-107584298D01*
X100104688Y-107661321D01*
X100301499Y-107698111D01*
X100363779Y-107729779D01*
X100399052Y-107790092D01*
X100396118Y-107859900D01*
X100355909Y-107917040D01*
X100301499Y-107941888D01*
X100104688Y-107978679D01*
X100104685Y-107978679D01*
X100104685Y-107978680D01*
X99905868Y-108055701D01*
X99905866Y-108055702D01*
X99724585Y-108167947D01*
X99567013Y-108311593D01*
X99438518Y-108481746D01*
X99343482Y-108672605D01*
X99343482Y-108672607D01*
X99285130Y-108877689D01*
X99274357Y-108993951D01*
X99248571Y-109058888D01*
X99204016Y-109090804D01*
X99240389Y-109111668D01*
X99272579Y-109173681D01*
X99274357Y-109186048D01*
X99285130Y-109302310D01*
X99343482Y-109507392D01*
X99343482Y-109507394D01*
X99438518Y-109698253D01*
X99532124Y-109822206D01*
X99567014Y-109868407D01*
X99724584Y-110012052D01*
X99905867Y-110124298D01*
X100104688Y-110201321D01*
X100314276Y-110240500D01*
X100314278Y-110240500D01*
X100527494Y-110240500D01*
X100527496Y-110240500D01*
X100737084Y-110201321D01*
X100935905Y-110124298D01*
X101117188Y-110012052D01*
X101274758Y-109868407D01*
X101403252Y-109698255D01*
X101421784Y-109661038D01*
X101498289Y-109507394D01*
X101498289Y-109507393D01*
X101498291Y-109507389D01*
X101556642Y-109302310D01*
X101576315Y-109090000D01*
X101556642Y-108877690D01*
X101498291Y-108672611D01*
X101498289Y-108672606D01*
X101498289Y-108672605D01*
X101403253Y-108481746D01*
X101274758Y-108311593D01*
X101262048Y-108300006D01*
X101117188Y-108167948D01*
X100935905Y-108055702D01*
X100935903Y-108055701D01*
X100801119Y-108003486D01*
X100737084Y-107978679D01*
X100540271Y-107941888D01*
X100477992Y-107910221D01*
X100442719Y-107849908D01*
X100445653Y-107780100D01*
X100485862Y-107722960D01*
X100540270Y-107698111D01*
X100737084Y-107661321D01*
X100935905Y-107584298D01*
X101117188Y-107472052D01*
X101274758Y-107328407D01*
X101403252Y-107158255D01*
X101498291Y-106967389D01*
X101556642Y-106762310D01*
X101576315Y-106550000D01*
X101556642Y-106337690D01*
X101498291Y-106132611D01*
X101498289Y-106132606D01*
X101498289Y-106132605D01*
X101403253Y-105941746D01*
X101274758Y-105771593D01*
X101191625Y-105695807D01*
X101117188Y-105627948D01*
X100935905Y-105515702D01*
X100935903Y-105515701D01*
X100814325Y-105468602D01*
X100737084Y-105438679D01*
X100527496Y-105399500D01*
X100314276Y-105399500D01*
X100104688Y-105438679D01*
X100104685Y-105438679D01*
X100104685Y-105438680D01*
X99905868Y-105515701D01*
X99905866Y-105515702D01*
X99724585Y-105627947D01*
X99567013Y-105771593D01*
X99438518Y-105941746D01*
X99343482Y-106132605D01*
X99343482Y-106132607D01*
X99285130Y-106337689D01*
X99274357Y-106453951D01*
X99248571Y-106518888D01*
X99204016Y-106550804D01*
X99095508Y-106550804D01*
X99097755Y-106549194D01*
X99061383Y-106528331D01*
X99029193Y-106466318D01*
X99027415Y-106453951D01*
X99026735Y-106446613D01*
X99016642Y-106337690D01*
X98958291Y-106132611D01*
X98958289Y-106132606D01*
X98958289Y-106132605D01*
X98863253Y-105941746D01*
X98734758Y-105771593D01*
X98651625Y-105695807D01*
X98577188Y-105627948D01*
X98395905Y-105515702D01*
X98395903Y-105515701D01*
X98274325Y-105468602D01*
X98197084Y-105438679D01*
X97987496Y-105399500D01*
X97774276Y-105399500D01*
X97564688Y-105438679D01*
X97564685Y-105438679D01*
X97564685Y-105438680D01*
X97365868Y-105515701D01*
X97365866Y-105515702D01*
X97184585Y-105627947D01*
X97027013Y-105771593D01*
X96898518Y-105941746D01*
X96803482Y-106132605D01*
X96803482Y-106132607D01*
X96745130Y-106337689D01*
X96734357Y-106453951D01*
X96708571Y-106518888D01*
X96664016Y-106550804D01*
X96555508Y-106550804D01*
X96557755Y-106549194D01*
X96521383Y-106528331D01*
X96489193Y-106466318D01*
X96487415Y-106453951D01*
X96486735Y-106446613D01*
X96476642Y-106337690D01*
X96418291Y-106132611D01*
X96418289Y-106132606D01*
X96418289Y-106132605D01*
X96323253Y-105941746D01*
X96194758Y-105771593D01*
X96111625Y-105695807D01*
X96037188Y-105627948D01*
X95855905Y-105515702D01*
X95855903Y-105515701D01*
X95734325Y-105468602D01*
X95657084Y-105438679D01*
X95447496Y-105399500D01*
X95234276Y-105399500D01*
X95024688Y-105438679D01*
X95024685Y-105438679D01*
X95024685Y-105438680D01*
X94825868Y-105515701D01*
X94825866Y-105515702D01*
X94644585Y-105627947D01*
X94487013Y-105771593D01*
X94358518Y-105941746D01*
X94263482Y-106132605D01*
X94263482Y-106132607D01*
X94205130Y-106337689D01*
X94194357Y-106453951D01*
X94168571Y-106518888D01*
X94124016Y-106550804D01*
X94015508Y-106550804D01*
X94017755Y-106549194D01*
X93981383Y-106528331D01*
X93949193Y-106466318D01*
X93947415Y-106453951D01*
X93946735Y-106446613D01*
X93936642Y-106337690D01*
X93878291Y-106132611D01*
X93878289Y-106132606D01*
X93878289Y-106132605D01*
X93783253Y-105941746D01*
X93689649Y-105817796D01*
X93654758Y-105771593D01*
X93540176Y-105667137D01*
X93503894Y-105607426D01*
X93505655Y-105537578D01*
X93544898Y-105479771D01*
X93609165Y-105452356D01*
X93623714Y-105451500D01*
X93745902Y-105451500D01*
X93745904Y-105451500D01*
X93854123Y-105422503D01*
X93951149Y-105366485D01*
X105005815Y-94311819D01*
X105067138Y-94278334D01*
X105093496Y-94275500D01*
X108943306Y-94275500D01*
X109010345Y-94295185D01*
X109031086Y-94312957D01*
X109031089Y-94312955D01*
X109031258Y-94313105D01*
X109036119Y-94317270D01*
X109036700Y-94317926D01*
X109036702Y-94317928D01*
X109036703Y-94317929D01*
X109113101Y-94385612D01*
X109164036Y-94430736D01*
X109260523Y-94481376D01*
X109314661Y-94509790D01*
X109479830Y-94550500D01*
X109649942Y-94550500D01*
X109815111Y-94509790D01*
X109901012Y-94464705D01*
X109965735Y-94430736D01*
X109965736Y-94430734D01*
X109965738Y-94430734D01*
X110093069Y-94317929D01*
X110189704Y-94177930D01*
X110250026Y-94018872D01*
X110270531Y-93850000D01*
X110250026Y-93681128D01*
X110189704Y-93522070D01*
X110189703Y-93522068D01*
X110189702Y-93522066D01*
X110141297Y-93451941D01*
X110119413Y-93385586D01*
X110136878Y-93317935D01*
X110188145Y-93270464D01*
X110243346Y-93257500D01*
X113712426Y-93257500D01*
X113779465Y-93277185D01*
G37*
%TD.AperFunction*%
%TA.AperFunction,Conductor*%
G36*
X104645391Y-93277185D02*
G01*
X104691146Y-93329989D01*
X104701090Y-93399147D01*
X104672065Y-93462703D01*
X104640352Y-93488887D01*
X104604626Y-93509513D01*
X104604620Y-93509517D01*
X93549957Y-104564181D01*
X93488634Y-104597666D01*
X93462276Y-104600500D01*
X90067167Y-104600500D01*
X89958948Y-104629497D01*
X89958945Y-104629498D01*
X89861925Y-104685513D01*
X89861919Y-104685517D01*
X89470842Y-105076594D01*
X89409519Y-105110079D01*
X89339827Y-105105095D01*
X89295480Y-105076594D01*
X88617440Y-104398554D01*
X88583955Y-104337231D01*
X88588939Y-104267539D01*
X88617436Y-104223197D01*
X91395814Y-101444818D01*
X91457137Y-101411334D01*
X91483495Y-101408500D01*
X91615942Y-101408500D01*
X91781111Y-101367790D01*
X91860578Y-101326081D01*
X91931735Y-101288736D01*
X91931736Y-101288734D01*
X91931738Y-101288734D01*
X92059069Y-101175929D01*
X92155704Y-101035930D01*
X92216026Y-100876872D01*
X92236531Y-100708000D01*
X92216026Y-100539128D01*
X92209336Y-100521489D01*
X92166139Y-100407585D01*
X92155704Y-100380070D01*
X92155411Y-100379646D01*
X92088539Y-100282766D01*
X92059069Y-100240071D01*
X91931738Y-100127266D01*
X91931735Y-100127263D01*
X91781112Y-100048210D01*
X91615942Y-100007500D01*
X91445830Y-100007500D01*
X91280659Y-100048210D01*
X91130036Y-100127263D01*
X91002702Y-100240072D01*
X90906068Y-100380068D01*
X90845746Y-100539125D01*
X90845745Y-100539130D01*
X90825241Y-100708000D01*
X90825241Y-100708003D01*
X90829212Y-100740715D01*
X90817750Y-100809638D01*
X90793797Y-100843339D01*
X86745692Y-104891444D01*
X86684369Y-104924929D01*
X86614677Y-104919945D01*
X86570330Y-104891444D01*
X86077440Y-104398554D01*
X86043955Y-104337231D01*
X86048939Y-104267539D01*
X86077440Y-104223192D01*
X95988814Y-94311819D01*
X96050137Y-94278334D01*
X96076495Y-94275500D01*
X99799306Y-94275500D01*
X99866345Y-94295185D01*
X99887086Y-94312957D01*
X99887089Y-94312955D01*
X99887258Y-94313105D01*
X99892119Y-94317270D01*
X99892700Y-94317926D01*
X99892702Y-94317928D01*
X99892703Y-94317929D01*
X99969101Y-94385612D01*
X100020036Y-94430736D01*
X100116523Y-94481376D01*
X100170661Y-94509790D01*
X100335830Y-94550500D01*
X100505942Y-94550500D01*
X100671111Y-94509790D01*
X100757012Y-94464705D01*
X100821735Y-94430736D01*
X100821736Y-94430734D01*
X100821738Y-94430734D01*
X100949069Y-94317929D01*
X101045704Y-94177930D01*
X101106026Y-94018872D01*
X101126531Y-93850000D01*
X101106026Y-93681128D01*
X101045704Y-93522070D01*
X101045703Y-93522068D01*
X101045702Y-93522066D01*
X100997297Y-93451941D01*
X100975413Y-93385586D01*
X100992878Y-93317935D01*
X101044145Y-93270464D01*
X101099346Y-93257500D01*
X104578352Y-93257500D01*
X104645391Y-93277185D01*
G37*
%TD.AperFunction*%
%TA.AperFunction,Conductor*%
G36*
X95628391Y-93277185D02*
G01*
X95674146Y-93329989D01*
X95684090Y-93399147D01*
X95655065Y-93462703D01*
X95623352Y-93488887D01*
X95587626Y-93509513D01*
X95587620Y-93509517D01*
X85377457Y-103719681D01*
X85316134Y-103753166D01*
X85289776Y-103756000D01*
X84463148Y-103756000D01*
X84396109Y-103736315D01*
X84355761Y-103694001D01*
X84355611Y-103693742D01*
X84346371Y-103677737D01*
X84267149Y-103598515D01*
X84267148Y-103598514D01*
X84262818Y-103594184D01*
X84262807Y-103594174D01*
X82615973Y-101947339D01*
X82582488Y-101886016D01*
X82580558Y-101844715D01*
X82584531Y-101812000D01*
X82565036Y-101651446D01*
X82576496Y-101582523D01*
X82623400Y-101530737D01*
X82688132Y-101512500D01*
X85507358Y-101512500D01*
X85507360Y-101512500D01*
X85507361Y-101512500D01*
X85647371Y-101474984D01*
X85772901Y-101402510D01*
X93881592Y-93293819D01*
X93942915Y-93260334D01*
X93969273Y-93257500D01*
X95561352Y-93257500D01*
X95628391Y-93277185D01*
G37*
%TD.AperFunction*%
%TA.AperFunction,Conductor*%
G36*
X65692925Y-71771685D02*
G01*
X65738680Y-71824489D01*
X65749886Y-71876000D01*
X65749886Y-72006000D01*
X65749886Y-76070000D01*
X65749886Y-77594000D01*
X65751333Y-77711309D01*
X65752424Y-77799767D01*
X65752424Y-77799770D01*
X65792760Y-78209316D01*
X65873041Y-78612921D01*
X65873044Y-78612932D01*
X65992509Y-79006755D01*
X66149992Y-79386953D01*
X66149995Y-79386960D01*
X66150018Y-79387003D01*
X66343982Y-79749888D01*
X66343986Y-79749895D01*
X66343989Y-79749900D01*
X66525966Y-80022249D01*
X66572618Y-80092068D01*
X66572628Y-80092082D01*
X66833700Y-80410200D01*
X66856565Y-80433064D01*
X66890052Y-80494386D01*
X66892886Y-80520747D01*
X66892886Y-81870500D01*
X66873201Y-81937539D01*
X66820397Y-81983294D01*
X66768886Y-81994500D01*
X65331795Y-81994500D01*
X65264756Y-81974815D01*
X65244114Y-81958181D01*
X65050454Y-81764521D01*
X65016969Y-81703198D01*
X65021953Y-81633506D01*
X65063825Y-81577573D01*
X65104115Y-81558501D01*
X65104096Y-81558451D01*
X65104729Y-81558210D01*
X65108466Y-81556442D01*
X65108702Y-81556383D01*
X65111111Y-81555790D01*
X65190578Y-81514081D01*
X65261735Y-81476736D01*
X65261736Y-81476734D01*
X65261738Y-81476734D01*
X65389069Y-81363929D01*
X65485704Y-81223930D01*
X65546026Y-81064872D01*
X65566531Y-80896000D01*
X65546026Y-80727128D01*
X65485704Y-80568070D01*
X65463336Y-80535664D01*
X65441453Y-80469309D01*
X65441386Y-80465224D01*
X65441386Y-75392527D01*
X65441386Y-75392525D01*
X65403870Y-75252515D01*
X65403868Y-75252512D01*
X65403868Y-75252510D01*
X65403867Y-75252509D01*
X65383591Y-75217390D01*
X65383590Y-75217389D01*
X65331398Y-75126989D01*
X65331394Y-75126984D01*
X64777704Y-74573294D01*
X64744219Y-74511971D01*
X64741385Y-74485613D01*
X64741385Y-73270143D01*
X64741385Y-73270136D01*
X64740229Y-73260168D01*
X64738472Y-73245012D01*
X64738471Y-73245010D01*
X64738471Y-73245009D01*
X64693092Y-73142235D01*
X64613651Y-73062794D01*
X64613649Y-73062793D01*
X64510878Y-73017415D01*
X64485751Y-73014500D01*
X62696029Y-73014500D01*
X62696003Y-73014502D01*
X62670898Y-73017413D01*
X62670894Y-73017415D01*
X62568121Y-73062793D01*
X62488680Y-73142234D01*
X62443301Y-73245006D01*
X62443301Y-73245008D01*
X62440386Y-73270131D01*
X62440386Y-75059856D01*
X62440388Y-75059882D01*
X62443299Y-75084987D01*
X62443301Y-75084991D01*
X62488679Y-75187764D01*
X62488680Y-75187765D01*
X62568121Y-75267206D01*
X62670895Y-75312585D01*
X62696021Y-75315500D01*
X63424644Y-75315499D01*
X63491682Y-75335183D01*
X63537437Y-75387987D01*
X63547381Y-75457146D01*
X63518356Y-75520702D01*
X63459578Y-75558476D01*
X63447430Y-75561387D01*
X63274688Y-75593679D01*
X63274686Y-75593679D01*
X63274684Y-75593680D01*
X63075868Y-75670701D01*
X63075866Y-75670702D01*
X62894585Y-75782947D01*
X62737013Y-75926593D01*
X62608518Y-76096746D01*
X62513482Y-76287605D01*
X62513482Y-76287607D01*
X62455130Y-76492689D01*
X62444357Y-76608951D01*
X62418571Y-76673888D01*
X62374016Y-76705804D01*
X62410389Y-76726668D01*
X62442579Y-76788681D01*
X62444356Y-76801047D01*
X62455130Y-76917310D01*
X62502240Y-77082883D01*
X62513482Y-77122392D01*
X62513482Y-77122394D01*
X62608518Y-77313253D01*
X62611065Y-77317366D01*
X62629618Y-77384727D01*
X62608808Y-77451426D01*
X62555242Y-77496285D01*
X62485925Y-77505063D01*
X62422867Y-77474973D01*
X62417955Y-77470321D01*
X62166911Y-77219277D01*
X62133426Y-77157954D01*
X62135325Y-77097664D01*
X62186642Y-76917310D01*
X62197415Y-76801047D01*
X62223201Y-76736111D01*
X62267755Y-76704194D01*
X62231383Y-76683331D01*
X62199193Y-76621318D01*
X62197415Y-76608951D01*
X62196444Y-76598472D01*
X62186642Y-76492690D01*
X62128291Y-76287611D01*
X62128289Y-76287606D01*
X62128289Y-76287605D01*
X62033253Y-76096746D01*
X61904758Y-75926593D01*
X61888461Y-75911736D01*
X61747188Y-75782948D01*
X61565905Y-75670702D01*
X61565903Y-75670701D01*
X61466494Y-75632190D01*
X61367084Y-75593679D01*
X61157496Y-75554500D01*
X60944276Y-75554500D01*
X60734688Y-75593679D01*
X60734685Y-75593679D01*
X60734685Y-75593680D01*
X60535868Y-75670701D01*
X60535866Y-75670702D01*
X60354585Y-75782947D01*
X60197013Y-75926593D01*
X60068518Y-76096746D01*
X59973482Y-76287605D01*
X59973482Y-76287607D01*
X59922598Y-76466444D01*
X59915130Y-76492690D01*
X59895457Y-76705000D01*
X59915130Y-76917310D01*
X59962240Y-77082883D01*
X59973482Y-77122392D01*
X59973482Y-77122394D01*
X60068518Y-77313253D01*
X60195893Y-77481923D01*
X60197014Y-77483407D01*
X60354584Y-77627052D01*
X60535867Y-77739298D01*
X60734688Y-77816321D01*
X60931499Y-77853111D01*
X60993779Y-77884779D01*
X61029052Y-77945092D01*
X61026118Y-78014900D01*
X60985909Y-78072040D01*
X60931499Y-78096888D01*
X60734688Y-78133679D01*
X60734685Y-78133679D01*
X60734685Y-78133680D01*
X60535868Y-78210701D01*
X60535866Y-78210702D01*
X60354585Y-78322947D01*
X60197013Y-78466593D01*
X60068518Y-78636746D01*
X59973482Y-78827605D01*
X59973482Y-78827607D01*
X59915130Y-79032689D01*
X59895457Y-79244999D01*
X59895457Y-79245000D01*
X59915130Y-79457310D01*
X59973482Y-79662392D01*
X59973482Y-79662394D01*
X60068518Y-79853253D01*
X60197013Y-80023406D01*
X60197014Y-80023407D01*
X60354584Y-80167052D01*
X60535867Y-80279298D01*
X60734688Y-80356321D01*
X60944276Y-80395500D01*
X60944278Y-80395500D01*
X61157494Y-80395500D01*
X61157496Y-80395500D01*
X61367084Y-80356321D01*
X61565905Y-80279298D01*
X61747188Y-80167052D01*
X61904758Y-80023407D01*
X61904957Y-80023142D01*
X61905402Y-80022555D01*
X61905813Y-80022249D01*
X61908619Y-80019172D01*
X61909221Y-80019720D01*
X61961510Y-79980918D01*
X62031222Y-79976226D01*
X62092037Y-80009600D01*
X64654844Y-82572407D01*
X64688329Y-82633730D01*
X64683345Y-82703422D01*
X64641473Y-82759355D01*
X64617268Y-82772659D01*
X64617302Y-82772724D01*
X64613960Y-82774477D01*
X64611142Y-82776027D01*
X64610661Y-82776209D01*
X64460040Y-82855261D01*
X64453866Y-82859524D01*
X64452925Y-82858160D01*
X64397875Y-82884037D01*
X64378880Y-82885500D01*
X52925037Y-82885500D01*
X52857998Y-82865815D01*
X52812243Y-82813011D01*
X52802299Y-82743853D01*
X52831324Y-82680297D01*
X52890102Y-82642523D01*
X52890709Y-82642346D01*
X52896462Y-82640688D01*
X53186530Y-82557121D01*
X53508262Y-82423855D01*
X53813050Y-82255405D01*
X54097062Y-82053888D01*
X54356725Y-81821839D01*
X54588774Y-81562176D01*
X54790291Y-81278164D01*
X54958741Y-80973376D01*
X55092007Y-80651644D01*
X55188413Y-80317013D01*
X55246745Y-79973693D01*
X55266271Y-79626000D01*
X55246745Y-79278307D01*
X55188413Y-78934987D01*
X55092007Y-78600356D01*
X54958741Y-78278624D01*
X54790291Y-77973836D01*
X54588774Y-77689824D01*
X54356725Y-77430161D01*
X54097062Y-77198112D01*
X53813050Y-76996595D01*
X53508262Y-76828145D01*
X53186530Y-76694879D01*
X53019214Y-76646676D01*
X52851903Y-76598474D01*
X52851895Y-76598472D01*
X52508586Y-76540142D01*
X52508574Y-76540140D01*
X52160886Y-76520615D01*
X51813197Y-76540140D01*
X51813185Y-76540142D01*
X51469876Y-76598472D01*
X51469868Y-76598474D01*
X51135245Y-76694878D01*
X51135242Y-76694879D01*
X51110808Y-76705000D01*
X50813511Y-76828144D01*
X50508721Y-76996595D01*
X50307204Y-77139579D01*
X50224710Y-77198112D01*
X49965047Y-77430161D01*
X49732998Y-77689824D01*
X49700289Y-77735923D01*
X49531481Y-77973835D01*
X49363030Y-78278625D01*
X49284558Y-78468074D01*
X49242298Y-78570100D01*
X49229764Y-78600359D01*
X49133360Y-78934982D01*
X49133358Y-78934990D01*
X49075028Y-79278299D01*
X49075026Y-79278311D01*
X49055501Y-79626000D01*
X49075026Y-79973688D01*
X49075028Y-79973700D01*
X49133358Y-80317009D01*
X49133360Y-80317017D01*
X49135713Y-80325185D01*
X49229765Y-80651644D01*
X49363031Y-80973376D01*
X49531481Y-81278164D01*
X49732998Y-81562176D01*
X49965047Y-81821839D01*
X50224710Y-82053888D01*
X50508722Y-82255405D01*
X50813510Y-82423855D01*
X51135242Y-82557121D01*
X51423441Y-82640150D01*
X51431063Y-82642346D01*
X51490033Y-82679820D01*
X51519381Y-82743227D01*
X51509791Y-82812436D01*
X51464305Y-82865472D01*
X51397367Y-82885498D01*
X51396735Y-82885500D01*
X48405411Y-82885500D01*
X48330770Y-82905500D01*
X48330769Y-82905499D01*
X48265405Y-82923014D01*
X48265398Y-82923017D01*
X48139875Y-82995487D01*
X48139870Y-82995491D01*
X47009604Y-84125756D01*
X46951598Y-84158472D01*
X46810659Y-84193210D01*
X46660036Y-84272263D01*
X46532702Y-84385072D01*
X46436068Y-84525068D01*
X46375746Y-84684125D01*
X46375745Y-84684130D01*
X46355241Y-84853000D01*
X46375745Y-85021869D01*
X46375746Y-85021874D01*
X46436068Y-85180931D01*
X46488436Y-85256798D01*
X46510319Y-85323152D01*
X46510386Y-85327238D01*
X46510386Y-86404163D01*
X46490701Y-86471202D01*
X46465051Y-86500016D01*
X46314476Y-86623589D01*
X46183203Y-86783547D01*
X46085655Y-86966043D01*
X46025585Y-87164067D01*
X46005303Y-87370000D01*
X46025585Y-87575932D01*
X46025586Y-87575934D01*
X46085654Y-87773954D01*
X46183201Y-87956450D01*
X46183203Y-87956452D01*
X46314475Y-88116410D01*
X46386496Y-88175515D01*
X46474436Y-88247685D01*
X46656932Y-88345232D01*
X46854952Y-88405300D01*
X46854951Y-88405300D01*
X46873415Y-88407118D01*
X47060886Y-88425583D01*
X47266820Y-88405300D01*
X47464840Y-88345232D01*
X47647336Y-88247685D01*
X47807296Y-88116410D01*
X47938571Y-87956450D01*
X48036118Y-87773954D01*
X48096186Y-87575934D01*
X48116469Y-87370000D01*
X48096186Y-87164066D01*
X48036118Y-86966046D01*
X47938571Y-86783550D01*
X47807296Y-86623590D01*
X47756002Y-86581494D01*
X47656721Y-86500016D01*
X47617387Y-86442271D01*
X47611386Y-86404163D01*
X47611386Y-85327238D01*
X47631071Y-85260199D01*
X47633336Y-85256798D01*
X47654533Y-85226088D01*
X47685704Y-85180930D01*
X47746026Y-85021872D01*
X47751300Y-84978429D01*
X47778920Y-84914252D01*
X47786704Y-84905705D01*
X48597705Y-84094705D01*
X48659028Y-84061220D01*
X48728720Y-84066204D01*
X48784653Y-84108076D01*
X48809070Y-84173540D01*
X48809386Y-84182386D01*
X48809386Y-84731618D01*
X48819768Y-84818074D01*
X48819768Y-84818075D01*
X48819769Y-84818077D01*
X48868296Y-84941134D01*
X48874025Y-84955660D01*
X48963387Y-85073502D01*
X48969383Y-85079498D01*
X48967956Y-85080924D01*
X49002829Y-85128103D01*
X49010386Y-85170730D01*
X49010386Y-86404163D01*
X48990701Y-86471202D01*
X48965051Y-86500016D01*
X48814476Y-86623589D01*
X48683203Y-86783547D01*
X48585655Y-86966043D01*
X48525585Y-87164067D01*
X48505303Y-87370000D01*
X48525585Y-87575932D01*
X48525586Y-87575934D01*
X48585654Y-87773954D01*
X48683201Y-87956450D01*
X48683203Y-87956452D01*
X48814475Y-88116410D01*
X48886496Y-88175515D01*
X48974436Y-88247685D01*
X49156932Y-88345232D01*
X49354952Y-88405300D01*
X49354951Y-88405300D01*
X49373415Y-88407118D01*
X49560886Y-88425583D01*
X49766820Y-88405300D01*
X49964840Y-88345232D01*
X50147336Y-88247685D01*
X50307296Y-88116410D01*
X50438571Y-87956450D01*
X50536118Y-87773954D01*
X50596186Y-87575934D01*
X50616469Y-87370000D01*
X50596186Y-87164066D01*
X50536118Y-86966046D01*
X50438571Y-86783550D01*
X50307296Y-86623590D01*
X50256002Y-86581494D01*
X50156721Y-86500016D01*
X50117387Y-86442271D01*
X50111386Y-86404163D01*
X50111386Y-85226088D01*
X50131071Y-85159049D01*
X50160461Y-85127284D01*
X50231386Y-85073500D01*
X50270535Y-85021874D01*
X50320748Y-84955658D01*
X50375003Y-84818077D01*
X50385386Y-84731618D01*
X50385386Y-84172382D01*
X50379730Y-84125284D01*
X50391280Y-84056377D01*
X50438252Y-84004652D01*
X50502845Y-83986500D01*
X56546386Y-83986500D01*
X56613425Y-84006185D01*
X56659180Y-84058989D01*
X56670386Y-84110500D01*
X56670386Y-86404163D01*
X56650701Y-86471202D01*
X56625051Y-86500016D01*
X56474476Y-86623589D01*
X56343203Y-86783547D01*
X56245655Y-86966043D01*
X56185585Y-87164067D01*
X56165303Y-87370000D01*
X56185585Y-87575932D01*
X56185586Y-87575934D01*
X56245654Y-87773954D01*
X56343201Y-87956450D01*
X56343203Y-87956452D01*
X56474475Y-88116410D01*
X56546496Y-88175515D01*
X56634436Y-88247685D01*
X56816932Y-88345232D01*
X57014952Y-88405300D01*
X57014951Y-88405300D01*
X57033415Y-88407118D01*
X57220886Y-88425583D01*
X57426820Y-88405300D01*
X57624840Y-88345232D01*
X57807336Y-88247685D01*
X57967296Y-88116410D01*
X58098571Y-87956450D01*
X58196118Y-87773954D01*
X58256186Y-87575934D01*
X58276469Y-87370000D01*
X58256186Y-87164066D01*
X58196118Y-86966046D01*
X58098571Y-86783550D01*
X57967296Y-86623590D01*
X57916002Y-86581494D01*
X57816721Y-86500016D01*
X57777387Y-86442271D01*
X57771386Y-86404163D01*
X57771386Y-84110500D01*
X57791071Y-84043461D01*
X57843875Y-83997706D01*
X57895386Y-83986500D01*
X58851927Y-83986500D01*
X58918966Y-84006185D01*
X58964721Y-84058989D01*
X58975042Y-84125285D01*
X58969386Y-84172381D01*
X58969386Y-84731618D01*
X58979768Y-84818074D01*
X58979768Y-84818075D01*
X58979769Y-84818077D01*
X59028296Y-84941134D01*
X59034025Y-84955660D01*
X59123387Y-85073502D01*
X59129383Y-85079498D01*
X59127956Y-85080924D01*
X59162829Y-85128103D01*
X59170386Y-85170730D01*
X59170386Y-86404163D01*
X59150701Y-86471202D01*
X59125051Y-86500016D01*
X58974476Y-86623589D01*
X58843203Y-86783547D01*
X58745655Y-86966043D01*
X58685585Y-87164067D01*
X58665303Y-87370000D01*
X58685585Y-87575932D01*
X58685586Y-87575934D01*
X58745654Y-87773954D01*
X58843201Y-87956450D01*
X58843203Y-87956452D01*
X58974475Y-88116410D01*
X59046496Y-88175515D01*
X59134436Y-88247685D01*
X59316932Y-88345232D01*
X59514952Y-88405300D01*
X59514951Y-88405300D01*
X59533415Y-88407118D01*
X59720886Y-88425583D01*
X59926820Y-88405300D01*
X60124840Y-88345232D01*
X60307336Y-88247685D01*
X60467296Y-88116410D01*
X60598571Y-87956450D01*
X60696118Y-87773954D01*
X60756186Y-87575934D01*
X60776469Y-87370000D01*
X60756186Y-87164066D01*
X60696118Y-86966046D01*
X60598571Y-86783550D01*
X60467296Y-86623590D01*
X60416002Y-86581494D01*
X60316721Y-86500016D01*
X60277387Y-86442271D01*
X60271386Y-86404163D01*
X60271386Y-85226088D01*
X60291071Y-85159049D01*
X60320461Y-85127284D01*
X60391386Y-85073500D01*
X60430535Y-85021874D01*
X60480748Y-84955658D01*
X60535003Y-84818077D01*
X60545386Y-84731618D01*
X60545386Y-84172382D01*
X60539730Y-84125284D01*
X60551280Y-84056377D01*
X60598252Y-84004652D01*
X60662845Y-83986500D01*
X64378880Y-83986500D01*
X64445919Y-84006185D01*
X64457960Y-84015302D01*
X64460040Y-84016738D01*
X64591861Y-84085923D01*
X64610661Y-84095790D01*
X64775830Y-84136500D01*
X64945942Y-84136500D01*
X65111111Y-84095790D01*
X65244213Y-84025932D01*
X65261731Y-84016738D01*
X65261732Y-84016736D01*
X65261738Y-84016734D01*
X65261742Y-84016730D01*
X65267906Y-84012476D01*
X65268846Y-84013839D01*
X65323897Y-83987963D01*
X65342892Y-83986500D01*
X66706386Y-83986500D01*
X66773425Y-84006185D01*
X66819180Y-84058989D01*
X66830386Y-84110500D01*
X66830386Y-86404163D01*
X66810701Y-86471202D01*
X66785051Y-86500016D01*
X66634476Y-86623589D01*
X66503203Y-86783547D01*
X66405655Y-86966043D01*
X66345585Y-87164067D01*
X66325303Y-87370000D01*
X66345585Y-87575932D01*
X66345586Y-87575934D01*
X66405654Y-87773954D01*
X66503201Y-87956450D01*
X66503203Y-87956452D01*
X66634475Y-88116410D01*
X66706496Y-88175515D01*
X66794436Y-88247685D01*
X66976932Y-88345232D01*
X67174952Y-88405300D01*
X67174951Y-88405300D01*
X67193415Y-88407118D01*
X67380886Y-88425583D01*
X67586820Y-88405300D01*
X67784840Y-88345232D01*
X67967336Y-88247685D01*
X68127296Y-88116410D01*
X68258571Y-87956450D01*
X68356118Y-87773954D01*
X68416186Y-87575934D01*
X68436469Y-87370000D01*
X68416186Y-87164066D01*
X68356118Y-86966046D01*
X68258571Y-86783550D01*
X68127296Y-86623590D01*
X68076002Y-86581494D01*
X67976721Y-86500016D01*
X67937387Y-86442271D01*
X67931386Y-86404163D01*
X67931386Y-84110500D01*
X67951071Y-84043461D01*
X68003875Y-83997706D01*
X68055386Y-83986500D01*
X69011927Y-83986500D01*
X69078966Y-84006185D01*
X69124721Y-84058989D01*
X69135042Y-84125285D01*
X69129386Y-84172381D01*
X69129386Y-84731618D01*
X69139768Y-84818074D01*
X69139768Y-84818075D01*
X69139769Y-84818077D01*
X69188296Y-84941134D01*
X69194025Y-84955660D01*
X69283387Y-85073502D01*
X69289383Y-85079498D01*
X69287956Y-85080924D01*
X69322829Y-85128103D01*
X69330386Y-85170730D01*
X69330386Y-86404163D01*
X69310701Y-86471202D01*
X69285051Y-86500016D01*
X69134476Y-86623589D01*
X69003203Y-86783547D01*
X68905655Y-86966043D01*
X68845585Y-87164067D01*
X68825303Y-87370000D01*
X68845585Y-87575932D01*
X68845586Y-87575934D01*
X68905654Y-87773954D01*
X69003201Y-87956450D01*
X69003203Y-87956452D01*
X69134475Y-88116410D01*
X69206496Y-88175515D01*
X69294436Y-88247685D01*
X69476932Y-88345232D01*
X69674952Y-88405300D01*
X69674951Y-88405300D01*
X69693415Y-88407118D01*
X69880886Y-88425583D01*
X70086820Y-88405300D01*
X70284840Y-88345232D01*
X70467336Y-88247685D01*
X70627296Y-88116410D01*
X70758571Y-87956450D01*
X70856118Y-87773954D01*
X70916186Y-87575934D01*
X70936469Y-87370000D01*
X70916186Y-87164066D01*
X70856118Y-86966046D01*
X70758571Y-86783550D01*
X70627296Y-86623590D01*
X70576002Y-86581494D01*
X70476721Y-86500016D01*
X70437387Y-86442271D01*
X70431386Y-86404163D01*
X70431386Y-85226088D01*
X70451071Y-85159049D01*
X70480461Y-85127284D01*
X70551386Y-85073500D01*
X70590535Y-85021874D01*
X70640748Y-84955658D01*
X70695003Y-84818077D01*
X70705386Y-84731618D01*
X70705386Y-84172382D01*
X70699730Y-84125284D01*
X70711280Y-84056377D01*
X70758252Y-84004652D01*
X70822845Y-83986500D01*
X76906386Y-83986500D01*
X76973425Y-84006185D01*
X77019180Y-84058989D01*
X77030386Y-84110500D01*
X77030386Y-86404163D01*
X77010701Y-86471202D01*
X76985051Y-86500016D01*
X76834476Y-86623589D01*
X76703203Y-86783547D01*
X76605655Y-86966043D01*
X76545585Y-87164067D01*
X76525303Y-87370000D01*
X76545585Y-87575932D01*
X76545586Y-87575934D01*
X76605654Y-87773954D01*
X76703201Y-87956450D01*
X76703203Y-87956452D01*
X76834475Y-88116410D01*
X76906496Y-88175515D01*
X76994436Y-88247685D01*
X77176932Y-88345232D01*
X77374952Y-88405300D01*
X77374951Y-88405300D01*
X77393415Y-88407118D01*
X77580886Y-88425583D01*
X77786820Y-88405300D01*
X77984840Y-88345232D01*
X78167336Y-88247685D01*
X78327296Y-88116410D01*
X78458571Y-87956450D01*
X78556118Y-87773954D01*
X78616186Y-87575934D01*
X78636469Y-87370000D01*
X78616186Y-87164066D01*
X78556118Y-86966046D01*
X78458571Y-86783550D01*
X78327296Y-86623590D01*
X78276002Y-86581494D01*
X78176721Y-86500016D01*
X78137387Y-86442271D01*
X78131386Y-86404163D01*
X78131386Y-84110500D01*
X78151071Y-84043461D01*
X78203875Y-83997706D01*
X78255386Y-83986500D01*
X79171927Y-83986500D01*
X79238966Y-84006185D01*
X79284721Y-84058989D01*
X79295042Y-84125285D01*
X79289386Y-84172381D01*
X79289386Y-84731618D01*
X79299768Y-84818074D01*
X79299768Y-84818075D01*
X79299769Y-84818077D01*
X79348296Y-84941134D01*
X79354025Y-84955660D01*
X79438233Y-85066705D01*
X79443386Y-85073500D01*
X79481311Y-85102259D01*
X79522834Y-85158449D01*
X79530386Y-85201062D01*
X79530386Y-86404163D01*
X79510701Y-86471202D01*
X79485051Y-86500016D01*
X79334476Y-86623589D01*
X79203203Y-86783547D01*
X79105655Y-86966043D01*
X79045585Y-87164067D01*
X79025303Y-87370000D01*
X79045585Y-87575932D01*
X79045586Y-87575934D01*
X79105654Y-87773954D01*
X79203201Y-87956450D01*
X79203203Y-87956452D01*
X79334475Y-88116410D01*
X79406496Y-88175515D01*
X79494436Y-88247685D01*
X79676932Y-88345232D01*
X79874952Y-88405300D01*
X79874951Y-88405300D01*
X79893415Y-88407118D01*
X80080886Y-88425583D01*
X80286820Y-88405300D01*
X80484840Y-88345232D01*
X80667336Y-88247685D01*
X80827296Y-88116410D01*
X80958571Y-87956450D01*
X81056118Y-87773954D01*
X81116186Y-87575934D01*
X81136469Y-87370000D01*
X81116186Y-87164066D01*
X81056118Y-86966046D01*
X80958571Y-86783550D01*
X80827296Y-86623590D01*
X80776002Y-86581494D01*
X80676721Y-86500016D01*
X80637387Y-86442271D01*
X80631386Y-86404163D01*
X80631386Y-85195754D01*
X80651071Y-85128715D01*
X80680458Y-85096952D01*
X80711386Y-85073500D01*
X80800748Y-84955658D01*
X80855003Y-84818077D01*
X80865386Y-84731618D01*
X80865386Y-84172382D01*
X80859730Y-84125284D01*
X80871280Y-84056377D01*
X80918252Y-84004652D01*
X80982845Y-83986500D01*
X83527499Y-83986500D01*
X83594538Y-84006185D01*
X83615180Y-84022819D01*
X86668673Y-87076312D01*
X86702158Y-87137635D01*
X86704395Y-87176147D01*
X86685303Y-87369999D01*
X86705585Y-87575932D01*
X86705586Y-87575934D01*
X86765654Y-87773954D01*
X86863201Y-87956450D01*
X86863203Y-87956452D01*
X86994475Y-88116410D01*
X87066496Y-88175515D01*
X87154436Y-88247685D01*
X87336932Y-88345232D01*
X87534952Y-88405300D01*
X87534951Y-88405300D01*
X87553415Y-88407118D01*
X87740886Y-88425583D01*
X87946820Y-88405300D01*
X88144840Y-88345232D01*
X88327336Y-88247685D01*
X88487296Y-88116410D01*
X88618571Y-87956450D01*
X88716118Y-87773954D01*
X88776186Y-87575934D01*
X88796469Y-87370000D01*
X88776186Y-87164066D01*
X88716118Y-86966046D01*
X88618571Y-86783550D01*
X88487296Y-86623590D01*
X88436002Y-86581494D01*
X88336721Y-86500016D01*
X88297387Y-86442271D01*
X88291386Y-86404163D01*
X88291386Y-85634533D01*
X88311071Y-85567494D01*
X88327705Y-85546852D01*
X88716108Y-85158449D01*
X89122768Y-84751788D01*
X89184089Y-84718305D01*
X89253780Y-84723289D01*
X89309714Y-84765161D01*
X89328115Y-84811055D01*
X89330822Y-84810372D01*
X89332768Y-84818075D01*
X89332769Y-84818077D01*
X89381296Y-84941134D01*
X89387025Y-84955660D01*
X89476385Y-85073500D01*
X89594225Y-85162860D01*
X89594228Y-85162862D01*
X89611873Y-85169820D01*
X89667018Y-85212723D01*
X89690213Y-85278630D01*
X89690386Y-85285175D01*
X89690386Y-86404163D01*
X89670701Y-86471202D01*
X89645051Y-86500016D01*
X89494476Y-86623589D01*
X89363203Y-86783547D01*
X89265655Y-86966043D01*
X89205585Y-87164067D01*
X89185303Y-87370000D01*
X89205585Y-87575932D01*
X89205586Y-87575934D01*
X89265654Y-87773954D01*
X89363201Y-87956450D01*
X89363203Y-87956452D01*
X89494475Y-88116410D01*
X89566496Y-88175515D01*
X89654436Y-88247685D01*
X89836932Y-88345232D01*
X90034952Y-88405300D01*
X90034951Y-88405300D01*
X90053415Y-88407118D01*
X90240886Y-88425583D01*
X90446820Y-88405300D01*
X90644840Y-88345232D01*
X90827336Y-88247685D01*
X90987296Y-88116410D01*
X91118571Y-87956450D01*
X91216118Y-87773954D01*
X91276186Y-87575934D01*
X91296469Y-87370000D01*
X91276186Y-87164066D01*
X91216118Y-86966046D01*
X91118571Y-86783550D01*
X90987296Y-86623590D01*
X90936002Y-86581494D01*
X90836721Y-86500016D01*
X90797387Y-86442271D01*
X90791386Y-86404163D01*
X90791386Y-85053219D01*
X90811071Y-84986180D01*
X90816584Y-84978292D01*
X90833746Y-84955660D01*
X90833748Y-84955658D01*
X90888003Y-84818077D01*
X90898386Y-84731618D01*
X90898386Y-84172382D01*
X90892730Y-84125284D01*
X90904280Y-84056377D01*
X90951252Y-84004652D01*
X91015845Y-83986500D01*
X97266386Y-83986500D01*
X97333425Y-84006185D01*
X97379180Y-84058989D01*
X97390386Y-84110500D01*
X97390386Y-86404163D01*
X97370701Y-86471202D01*
X97345051Y-86500016D01*
X97194476Y-86623589D01*
X97063203Y-86783547D01*
X96965655Y-86966043D01*
X96905585Y-87164067D01*
X96885303Y-87370000D01*
X96905585Y-87575932D01*
X96905586Y-87575934D01*
X96965654Y-87773954D01*
X97063201Y-87956450D01*
X97063203Y-87956452D01*
X97194475Y-88116410D01*
X97266496Y-88175515D01*
X97354436Y-88247685D01*
X97536932Y-88345232D01*
X97734952Y-88405300D01*
X97734951Y-88405300D01*
X97753415Y-88407118D01*
X97940886Y-88425583D01*
X98146820Y-88405300D01*
X98344840Y-88345232D01*
X98527336Y-88247685D01*
X98687296Y-88116410D01*
X98818571Y-87956450D01*
X98916118Y-87773954D01*
X98976186Y-87575934D01*
X98996469Y-87370000D01*
X98976186Y-87164066D01*
X98916118Y-86966046D01*
X98818571Y-86783550D01*
X98687296Y-86623590D01*
X98636002Y-86581494D01*
X98536721Y-86500016D01*
X98497387Y-86442271D01*
X98491386Y-86404163D01*
X98491386Y-84110500D01*
X98511071Y-84043461D01*
X98563875Y-83997706D01*
X98615386Y-83986500D01*
X99618927Y-83986500D01*
X99685966Y-84006185D01*
X99731721Y-84058989D01*
X99742042Y-84125285D01*
X99736386Y-84172381D01*
X99736386Y-84731618D01*
X99746768Y-84818074D01*
X99746768Y-84818075D01*
X99746769Y-84818077D01*
X99795296Y-84941134D01*
X99801025Y-84955660D01*
X99865190Y-85040274D01*
X99890013Y-85105585D01*
X99890386Y-85115199D01*
X99890386Y-86404163D01*
X99870701Y-86471202D01*
X99845051Y-86500016D01*
X99694476Y-86623589D01*
X99563203Y-86783547D01*
X99465655Y-86966043D01*
X99405585Y-87164067D01*
X99385303Y-87370000D01*
X99405585Y-87575932D01*
X99405586Y-87575934D01*
X99465654Y-87773954D01*
X99563201Y-87956450D01*
X99563203Y-87956452D01*
X99694475Y-88116410D01*
X99766496Y-88175515D01*
X99854436Y-88247685D01*
X100036932Y-88345232D01*
X100234952Y-88405300D01*
X100234951Y-88405300D01*
X100253415Y-88407118D01*
X100440886Y-88425583D01*
X100646820Y-88405300D01*
X100844840Y-88345232D01*
X101027336Y-88247685D01*
X101187296Y-88116410D01*
X101318571Y-87956450D01*
X101416118Y-87773954D01*
X101476186Y-87575934D01*
X101496469Y-87370000D01*
X101476186Y-87164066D01*
X101416118Y-86966046D01*
X101318571Y-86783550D01*
X101187296Y-86623590D01*
X101136002Y-86581494D01*
X101036721Y-86500016D01*
X100997387Y-86442271D01*
X100991386Y-86404163D01*
X100991386Y-85261729D01*
X101011071Y-85194690D01*
X101040461Y-85162925D01*
X101158386Y-85073500D01*
X101197535Y-85021874D01*
X101247748Y-84955658D01*
X101302003Y-84818077D01*
X101312386Y-84731618D01*
X101312386Y-84172382D01*
X101306730Y-84125284D01*
X101318280Y-84056377D01*
X101365252Y-84004652D01*
X101429845Y-83986500D01*
X107426386Y-83986500D01*
X107493425Y-84006185D01*
X107539180Y-84058989D01*
X107550386Y-84110500D01*
X107550386Y-86404163D01*
X107530701Y-86471202D01*
X107505051Y-86500016D01*
X107354476Y-86623589D01*
X107223203Y-86783547D01*
X107125655Y-86966043D01*
X107065585Y-87164067D01*
X107045303Y-87370000D01*
X107065585Y-87575932D01*
X107065586Y-87575934D01*
X107125654Y-87773954D01*
X107223201Y-87956450D01*
X107223203Y-87956452D01*
X107354475Y-88116410D01*
X107426496Y-88175515D01*
X107514436Y-88247685D01*
X107696932Y-88345232D01*
X107894952Y-88405300D01*
X107894951Y-88405300D01*
X107913415Y-88407118D01*
X108100886Y-88425583D01*
X108306820Y-88405300D01*
X108504840Y-88345232D01*
X108687336Y-88247685D01*
X108847296Y-88116410D01*
X108978571Y-87956450D01*
X109076118Y-87773954D01*
X109136186Y-87575934D01*
X109156469Y-87370000D01*
X109136186Y-87164066D01*
X109076118Y-86966046D01*
X108978571Y-86783550D01*
X108847296Y-86623590D01*
X108796002Y-86581494D01*
X108696721Y-86500016D01*
X108657387Y-86442271D01*
X108651386Y-86404163D01*
X108651386Y-84110500D01*
X108671071Y-84043461D01*
X108723875Y-83997706D01*
X108775386Y-83986500D01*
X109778927Y-83986500D01*
X109845966Y-84006185D01*
X109891721Y-84058989D01*
X109902042Y-84125285D01*
X109896386Y-84172381D01*
X109896386Y-84731618D01*
X109906768Y-84818074D01*
X109906768Y-84818075D01*
X109906769Y-84818077D01*
X109955296Y-84941134D01*
X109961025Y-84955660D01*
X110025190Y-85040274D01*
X110050013Y-85105585D01*
X110050386Y-85115199D01*
X110050386Y-86404163D01*
X110030701Y-86471202D01*
X110005051Y-86500016D01*
X109854476Y-86623589D01*
X109723203Y-86783547D01*
X109625655Y-86966043D01*
X109565585Y-87164067D01*
X109545303Y-87370000D01*
X109565585Y-87575932D01*
X109565586Y-87575934D01*
X109625654Y-87773954D01*
X109723201Y-87956450D01*
X109723203Y-87956452D01*
X109854475Y-88116410D01*
X109926496Y-88175515D01*
X110014436Y-88247685D01*
X110196932Y-88345232D01*
X110394952Y-88405300D01*
X110394951Y-88405300D01*
X110413415Y-88407118D01*
X110600886Y-88425583D01*
X110806820Y-88405300D01*
X111004840Y-88345232D01*
X111187336Y-88247685D01*
X111347296Y-88116410D01*
X111478571Y-87956450D01*
X111576118Y-87773954D01*
X111636186Y-87575934D01*
X111656469Y-87370000D01*
X111636186Y-87164066D01*
X111576118Y-86966046D01*
X111478571Y-86783550D01*
X111347296Y-86623590D01*
X111296002Y-86581494D01*
X111196721Y-86500016D01*
X111157387Y-86442271D01*
X111151386Y-86404163D01*
X111151386Y-85261729D01*
X111171071Y-85194690D01*
X111200461Y-85162925D01*
X111318386Y-85073500D01*
X111357535Y-85021874D01*
X111407748Y-84955658D01*
X111462003Y-84818077D01*
X111472386Y-84731618D01*
X111472386Y-84172382D01*
X111466730Y-84125284D01*
X111478280Y-84056377D01*
X111525252Y-84004652D01*
X111589845Y-83986500D01*
X113048411Y-83986500D01*
X117586386Y-83986500D01*
X117653425Y-84006185D01*
X117699180Y-84058989D01*
X117710386Y-84110500D01*
X117710386Y-86404163D01*
X117690701Y-86471202D01*
X117665051Y-86500016D01*
X117514476Y-86623589D01*
X117383203Y-86783547D01*
X117285655Y-86966043D01*
X117225585Y-87164067D01*
X117205303Y-87370000D01*
X117225585Y-87575932D01*
X117225586Y-87575934D01*
X117285654Y-87773954D01*
X117383201Y-87956450D01*
X117383203Y-87956452D01*
X117464928Y-88056036D01*
X117492240Y-88120346D01*
X117480449Y-88189213D01*
X117456758Y-88222379D01*
X117440581Y-88238557D01*
X117424401Y-88254737D01*
X117424399Y-88254739D01*
X116398182Y-89280955D01*
X116398181Y-89280955D01*
X116398182Y-89280956D01*
X116336400Y-89342738D01*
X116336399Y-89342740D01*
X116280384Y-89439760D01*
X116280383Y-89439763D01*
X116251386Y-89547982D01*
X116251386Y-90574390D01*
X116231701Y-90641429D01*
X116215067Y-90662071D01*
X115774957Y-91102181D01*
X115713634Y-91135666D01*
X115687276Y-91138500D01*
X115012466Y-91138500D01*
X114945427Y-91118815D01*
X114924686Y-91101042D01*
X114924684Y-91101045D01*
X114924543Y-91100920D01*
X114919653Y-91096730D01*
X114919068Y-91096069D01*
X114895822Y-91075476D01*
X114858695Y-91016287D01*
X114859461Y-90946422D01*
X114897879Y-90888062D01*
X114903123Y-90883856D01*
X114959484Y-90841117D01*
X115012386Y-90801000D01*
X115101748Y-90683158D01*
X115156003Y-90545577D01*
X115166386Y-90459118D01*
X115166386Y-89874882D01*
X115164361Y-89858024D01*
X115156003Y-89788425D01*
X115156003Y-89788424D01*
X115156003Y-89788423D01*
X115101748Y-89650842D01*
X115101746Y-89650839D01*
X115012386Y-89532999D01*
X114894546Y-89443639D01*
X114894544Y-89443638D01*
X114756963Y-89389383D01*
X114756962Y-89389382D01*
X114756960Y-89389382D01*
X114670505Y-89379000D01*
X114670504Y-89379000D01*
X114111268Y-89379000D01*
X114111267Y-89379000D01*
X114024811Y-89389382D01*
X114024810Y-89389382D01*
X113887225Y-89443639D01*
X113769387Y-89532998D01*
X113743280Y-89567426D01*
X113687087Y-89608949D01*
X113644476Y-89616500D01*
X111564260Y-89616500D01*
X111497221Y-89596815D01*
X111468406Y-89571164D01*
X111347296Y-89423589D01*
X111187338Y-89292317D01*
X111187339Y-89292317D01*
X111187336Y-89292315D01*
X111004840Y-89194768D01*
X110806820Y-89134700D01*
X110806818Y-89134699D01*
X110806820Y-89134699D01*
X110600886Y-89114417D01*
X110394953Y-89134699D01*
X110196929Y-89194769D01*
X110098776Y-89247234D01*
X110014436Y-89292315D01*
X110014434Y-89292316D01*
X110014433Y-89292317D01*
X109854475Y-89423589D01*
X109723204Y-89583546D01*
X109723201Y-89583550D01*
X109716464Y-89596154D01*
X109625655Y-89766043D01*
X109565585Y-89964067D01*
X109545303Y-90170000D01*
X109565585Y-90375932D01*
X109578521Y-90418575D01*
X109625654Y-90573954D01*
X109723201Y-90756450D01*
X109747728Y-90786336D01*
X109854475Y-90916410D01*
X109930133Y-90978500D01*
X110014436Y-91047685D01*
X110196932Y-91145232D01*
X110394952Y-91205300D01*
X110394951Y-91205300D01*
X110413415Y-91207118D01*
X110600886Y-91225583D01*
X110806820Y-91205300D01*
X111004840Y-91145232D01*
X111187336Y-91047685D01*
X111347296Y-90916410D01*
X111473330Y-90762835D01*
X111531076Y-90723501D01*
X111569184Y-90717500D01*
X113644476Y-90717500D01*
X113711515Y-90737185D01*
X113743280Y-90766574D01*
X113769387Y-90801001D01*
X113878648Y-90883856D01*
X113920171Y-90940048D01*
X113924723Y-91009770D01*
X113890858Y-91070884D01*
X113885951Y-91075475D01*
X113862702Y-91096071D01*
X113766068Y-91236068D01*
X113705746Y-91395125D01*
X113705745Y-91395130D01*
X113685241Y-91564000D01*
X113705745Y-91732869D01*
X113705746Y-91732874D01*
X113766068Y-91891931D01*
X113766069Y-91891933D01*
X113814475Y-91962059D01*
X113836359Y-92028414D01*
X113818894Y-92096065D01*
X113767627Y-92143536D01*
X113712426Y-92156500D01*
X108775386Y-92156500D01*
X108708347Y-92136815D01*
X108662592Y-92084011D01*
X108651386Y-92032500D01*
X108651386Y-91344499D01*
X108671071Y-91277460D01*
X108723875Y-91231705D01*
X108775386Y-91220499D01*
X108895742Y-91220499D01*
X108895750Y-91220499D01*
X108895765Y-91220497D01*
X108895768Y-91220497D01*
X108920873Y-91217586D01*
X108920874Y-91217585D01*
X108920877Y-91217585D01*
X109023651Y-91172206D01*
X109103092Y-91092765D01*
X109148471Y-90989991D01*
X109151386Y-90964865D01*
X109151385Y-89375136D01*
X109150407Y-89366700D01*
X109148472Y-89350012D01*
X109148471Y-89350010D01*
X109148471Y-89350009D01*
X109103092Y-89247235D01*
X109023651Y-89167794D01*
X109023649Y-89167793D01*
X108920878Y-89122415D01*
X108895751Y-89119500D01*
X107306029Y-89119500D01*
X107306003Y-89119502D01*
X107280898Y-89122413D01*
X107280894Y-89122415D01*
X107178121Y-89167793D01*
X107098680Y-89247234D01*
X107053301Y-89350006D01*
X107053301Y-89350008D01*
X107050386Y-89375131D01*
X107050386Y-90964856D01*
X107050388Y-90964882D01*
X107053299Y-90989987D01*
X107053301Y-90989991D01*
X107098679Y-91092764D01*
X107098680Y-91092765D01*
X107178121Y-91172206D01*
X107280895Y-91217585D01*
X107306021Y-91220500D01*
X107426386Y-91220499D01*
X107493425Y-91240183D01*
X107539180Y-91292987D01*
X107550386Y-91344499D01*
X107550386Y-92032500D01*
X107530701Y-92099539D01*
X107477897Y-92145294D01*
X107426386Y-92156500D01*
X98615386Y-92156500D01*
X98548347Y-92136815D01*
X98502592Y-92084011D01*
X98491386Y-92032500D01*
X98491386Y-91344499D01*
X98511071Y-91277460D01*
X98563875Y-91231705D01*
X98615386Y-91220499D01*
X98735742Y-91220499D01*
X98735750Y-91220499D01*
X98735765Y-91220497D01*
X98735768Y-91220497D01*
X98760873Y-91217586D01*
X98760874Y-91217585D01*
X98760877Y-91217585D01*
X98863651Y-91172206D01*
X98943092Y-91092765D01*
X98988471Y-90989991D01*
X98991386Y-90964865D01*
X98991385Y-90170000D01*
X99385303Y-90170000D01*
X99405585Y-90375932D01*
X99418521Y-90418575D01*
X99465654Y-90573954D01*
X99563201Y-90756450D01*
X99587728Y-90786336D01*
X99694475Y-90916410D01*
X99770133Y-90978500D01*
X99854436Y-91047685D01*
X100036932Y-91145232D01*
X100234952Y-91205300D01*
X100234951Y-91205300D01*
X100253415Y-91207118D01*
X100440886Y-91225583D01*
X100646820Y-91205300D01*
X100844840Y-91145232D01*
X101027336Y-91047685D01*
X101187296Y-90916410D01*
X101310868Y-90765835D01*
X101368614Y-90726501D01*
X101406722Y-90720500D01*
X103468932Y-90720500D01*
X103535971Y-90740185D01*
X103567734Y-90769573D01*
X103583280Y-90790074D01*
X103604166Y-90817617D01*
X103609386Y-90824500D01*
X103614001Y-90828000D01*
X103702321Y-90894975D01*
X103727228Y-90913862D01*
X103864809Y-90968117D01*
X103922448Y-90975039D01*
X103951267Y-90978500D01*
X103951268Y-90978500D01*
X104510505Y-90978500D01*
X104532118Y-90975904D01*
X104596963Y-90968117D01*
X104734544Y-90913862D01*
X104852386Y-90824500D01*
X104941748Y-90706658D01*
X104996003Y-90569077D01*
X105006386Y-90482618D01*
X105006386Y-89898382D01*
X104996003Y-89811923D01*
X104941748Y-89674342D01*
X104941746Y-89674339D01*
X104852386Y-89556499D01*
X104734546Y-89467139D01*
X104734544Y-89467138D01*
X104596963Y-89412883D01*
X104596962Y-89412882D01*
X104596960Y-89412882D01*
X104510505Y-89402500D01*
X104510504Y-89402500D01*
X103951268Y-89402500D01*
X103951267Y-89402500D01*
X103864811Y-89412882D01*
X103864810Y-89412882D01*
X103727225Y-89467139D01*
X103609390Y-89556496D01*
X103609387Y-89556499D01*
X103609386Y-89556500D01*
X103598826Y-89570425D01*
X103542636Y-89611948D01*
X103500023Y-89619500D01*
X101406722Y-89619500D01*
X101339683Y-89599815D01*
X101310868Y-89574164D01*
X101187296Y-89423589D01*
X101027338Y-89292317D01*
X101027339Y-89292317D01*
X101027336Y-89292315D01*
X100844840Y-89194768D01*
X100646820Y-89134700D01*
X100646818Y-89134699D01*
X100646820Y-89134699D01*
X100440886Y-89114417D01*
X100234953Y-89134699D01*
X100036929Y-89194769D01*
X99938776Y-89247234D01*
X99854436Y-89292315D01*
X99854434Y-89292316D01*
X99854433Y-89292317D01*
X99694475Y-89423589D01*
X99563204Y-89583546D01*
X99563201Y-89583550D01*
X99556464Y-89596154D01*
X99465655Y-89766043D01*
X99405585Y-89964067D01*
X99385303Y-90170000D01*
X98991385Y-90170000D01*
X98991385Y-89375136D01*
X98990407Y-89366700D01*
X98988472Y-89350012D01*
X98988471Y-89350010D01*
X98988471Y-89350009D01*
X98943092Y-89247235D01*
X98863651Y-89167794D01*
X98863649Y-89167793D01*
X98760878Y-89122415D01*
X98735751Y-89119500D01*
X97146029Y-89119500D01*
X97146003Y-89119502D01*
X97120898Y-89122413D01*
X97120894Y-89122415D01*
X97018121Y-89167793D01*
X96938680Y-89247234D01*
X96893301Y-89350006D01*
X96893301Y-89350008D01*
X96890386Y-89375131D01*
X96890386Y-90964856D01*
X96890388Y-90964882D01*
X96893299Y-90989987D01*
X96893301Y-90989991D01*
X96938679Y-91092764D01*
X96938680Y-91092765D01*
X97018121Y-91172206D01*
X97120895Y-91217585D01*
X97146021Y-91220500D01*
X97266386Y-91220499D01*
X97333425Y-91240183D01*
X97379180Y-91292987D01*
X97390386Y-91344499D01*
X97390386Y-91989500D01*
X97370701Y-92056539D01*
X97317897Y-92102294D01*
X97266386Y-92113500D01*
X88415386Y-92113500D01*
X88348347Y-92093815D01*
X88302592Y-92041011D01*
X88291386Y-91989500D01*
X88291386Y-91344499D01*
X88311071Y-91277460D01*
X88363875Y-91231705D01*
X88415386Y-91220499D01*
X88535742Y-91220499D01*
X88535750Y-91220499D01*
X88535765Y-91220497D01*
X88535768Y-91220497D01*
X88560873Y-91217586D01*
X88560874Y-91217585D01*
X88560877Y-91217585D01*
X88663651Y-91172206D01*
X88743092Y-91092765D01*
X88788471Y-90989991D01*
X88791386Y-90964865D01*
X88791385Y-90170000D01*
X89185303Y-90170000D01*
X89205585Y-90375932D01*
X89218521Y-90418575D01*
X89265654Y-90573954D01*
X89363201Y-90756450D01*
X89387728Y-90786336D01*
X89494475Y-90916410D01*
X89570133Y-90978500D01*
X89654436Y-91047685D01*
X89836932Y-91145232D01*
X90034952Y-91205300D01*
X90034951Y-91205300D01*
X90053415Y-91207118D01*
X90240886Y-91225583D01*
X90446820Y-91205300D01*
X90644840Y-91145232D01*
X90827336Y-91047685D01*
X90987296Y-90916410D01*
X91110868Y-90765835D01*
X91168614Y-90726501D01*
X91206722Y-90720500D01*
X93308932Y-90720500D01*
X93375971Y-90740185D01*
X93407734Y-90769573D01*
X93423280Y-90790074D01*
X93444166Y-90817617D01*
X93449386Y-90824500D01*
X93454001Y-90828000D01*
X93542321Y-90894975D01*
X93567228Y-90913862D01*
X93704809Y-90968117D01*
X93762448Y-90975039D01*
X93791267Y-90978500D01*
X93791268Y-90978500D01*
X94350505Y-90978500D01*
X94372118Y-90975904D01*
X94436963Y-90968117D01*
X94574544Y-90913862D01*
X94692386Y-90824500D01*
X94781748Y-90706658D01*
X94836003Y-90569077D01*
X94846386Y-90482618D01*
X94846386Y-89898382D01*
X94836003Y-89811923D01*
X94781748Y-89674342D01*
X94781746Y-89674339D01*
X94692386Y-89556499D01*
X94574546Y-89467139D01*
X94574544Y-89467138D01*
X94436963Y-89412883D01*
X94436962Y-89412882D01*
X94436960Y-89412882D01*
X94350505Y-89402500D01*
X94350504Y-89402500D01*
X93791268Y-89402500D01*
X93791267Y-89402500D01*
X93704811Y-89412882D01*
X93704810Y-89412882D01*
X93567225Y-89467139D01*
X93449390Y-89556496D01*
X93449387Y-89556499D01*
X93449386Y-89556500D01*
X93438826Y-89570425D01*
X93382636Y-89611948D01*
X93340023Y-89619500D01*
X91206722Y-89619500D01*
X91139683Y-89599815D01*
X91110868Y-89574164D01*
X90987296Y-89423589D01*
X90827338Y-89292317D01*
X90827339Y-89292317D01*
X90827336Y-89292315D01*
X90644840Y-89194768D01*
X90446820Y-89134700D01*
X90446818Y-89134699D01*
X90446820Y-89134699D01*
X90240886Y-89114417D01*
X90034953Y-89134699D01*
X89836929Y-89194769D01*
X89738776Y-89247234D01*
X89654436Y-89292315D01*
X89654434Y-89292316D01*
X89654433Y-89292317D01*
X89494475Y-89423589D01*
X89363204Y-89583546D01*
X89363201Y-89583550D01*
X89356464Y-89596154D01*
X89265655Y-89766043D01*
X89205585Y-89964067D01*
X89185303Y-90170000D01*
X88791385Y-90170000D01*
X88791385Y-89375136D01*
X88790407Y-89366700D01*
X88788472Y-89350012D01*
X88788471Y-89350010D01*
X88788471Y-89350009D01*
X88743092Y-89247235D01*
X88663651Y-89167794D01*
X88663649Y-89167793D01*
X88560878Y-89122415D01*
X88535751Y-89119500D01*
X86946029Y-89119500D01*
X86946003Y-89119502D01*
X86920898Y-89122413D01*
X86920894Y-89122415D01*
X86818121Y-89167793D01*
X86738680Y-89247234D01*
X86693301Y-89350006D01*
X86693301Y-89350008D01*
X86690386Y-89375131D01*
X86690386Y-90964856D01*
X86690388Y-90964882D01*
X86693299Y-90989987D01*
X86693301Y-90989991D01*
X86738679Y-91092764D01*
X86738680Y-91092765D01*
X86818121Y-91172206D01*
X86920895Y-91217585D01*
X86946021Y-91220500D01*
X87066386Y-91220499D01*
X87133425Y-91240183D01*
X87179180Y-91292987D01*
X87190386Y-91344499D01*
X87190386Y-91989500D01*
X87170701Y-92056539D01*
X87117897Y-92102294D01*
X87066386Y-92113500D01*
X78255386Y-92113500D01*
X78188347Y-92093815D01*
X78142592Y-92041011D01*
X78131386Y-91989500D01*
X78131386Y-91344499D01*
X78151071Y-91277460D01*
X78203875Y-91231705D01*
X78255386Y-91220499D01*
X78375742Y-91220499D01*
X78375750Y-91220499D01*
X78375765Y-91220497D01*
X78375768Y-91220497D01*
X78400873Y-91217586D01*
X78400874Y-91217585D01*
X78400877Y-91217585D01*
X78503651Y-91172206D01*
X78583092Y-91092765D01*
X78628471Y-90989991D01*
X78631386Y-90964865D01*
X78631385Y-90170000D01*
X79025303Y-90170000D01*
X79045585Y-90375932D01*
X79058521Y-90418575D01*
X79105654Y-90573954D01*
X79203201Y-90756450D01*
X79227728Y-90786336D01*
X79334475Y-90916410D01*
X79410133Y-90978500D01*
X79494436Y-91047685D01*
X79676932Y-91145232D01*
X79874952Y-91205300D01*
X79874951Y-91205300D01*
X79893415Y-91207118D01*
X80080886Y-91225583D01*
X80286820Y-91205300D01*
X80484840Y-91145232D01*
X80667336Y-91047685D01*
X80827296Y-90916410D01*
X80950868Y-90765835D01*
X81008614Y-90726501D01*
X81046722Y-90720500D01*
X83021932Y-90720500D01*
X83088971Y-90740185D01*
X83120734Y-90769573D01*
X83136280Y-90790074D01*
X83157166Y-90817617D01*
X83162386Y-90824500D01*
X83167001Y-90828000D01*
X83255321Y-90894975D01*
X83280228Y-90913862D01*
X83417809Y-90968117D01*
X83475448Y-90975039D01*
X83504267Y-90978500D01*
X83504268Y-90978500D01*
X84063505Y-90978500D01*
X84085118Y-90975904D01*
X84149963Y-90968117D01*
X84287544Y-90913862D01*
X84405386Y-90824500D01*
X84494748Y-90706658D01*
X84549003Y-90569077D01*
X84559386Y-90482618D01*
X84559386Y-89898382D01*
X84549003Y-89811923D01*
X84494748Y-89674342D01*
X84494746Y-89674339D01*
X84405386Y-89556499D01*
X84287546Y-89467139D01*
X84287544Y-89467138D01*
X84149963Y-89412883D01*
X84149962Y-89412882D01*
X84149960Y-89412882D01*
X84063505Y-89402500D01*
X84063504Y-89402500D01*
X83504268Y-89402500D01*
X83504267Y-89402500D01*
X83417811Y-89412882D01*
X83417810Y-89412882D01*
X83280225Y-89467139D01*
X83162390Y-89556496D01*
X83162387Y-89556499D01*
X83162386Y-89556500D01*
X83151826Y-89570425D01*
X83095636Y-89611948D01*
X83053023Y-89619500D01*
X81046722Y-89619500D01*
X80979683Y-89599815D01*
X80950868Y-89574164D01*
X80827296Y-89423589D01*
X80667338Y-89292317D01*
X80667339Y-89292317D01*
X80667336Y-89292315D01*
X80484840Y-89194768D01*
X80286820Y-89134700D01*
X80286818Y-89134699D01*
X80286820Y-89134699D01*
X80080886Y-89114417D01*
X79874953Y-89134699D01*
X79676929Y-89194769D01*
X79578776Y-89247234D01*
X79494436Y-89292315D01*
X79494434Y-89292316D01*
X79494433Y-89292317D01*
X79334475Y-89423589D01*
X79203204Y-89583546D01*
X79203201Y-89583550D01*
X79196464Y-89596154D01*
X79105655Y-89766043D01*
X79045585Y-89964067D01*
X79025303Y-90170000D01*
X78631385Y-90170000D01*
X78631385Y-89375136D01*
X78630407Y-89366700D01*
X78628472Y-89350012D01*
X78628471Y-89350010D01*
X78628471Y-89350009D01*
X78583092Y-89247235D01*
X78503651Y-89167794D01*
X78503649Y-89167793D01*
X78400878Y-89122415D01*
X78375751Y-89119500D01*
X76786029Y-89119500D01*
X76786003Y-89119502D01*
X76760898Y-89122413D01*
X76760894Y-89122415D01*
X76658121Y-89167793D01*
X76578680Y-89247234D01*
X76533301Y-89350006D01*
X76533301Y-89350008D01*
X76530386Y-89375131D01*
X76530386Y-90964856D01*
X76530388Y-90964882D01*
X76533299Y-90989987D01*
X76533301Y-90989991D01*
X76578679Y-91092764D01*
X76578680Y-91092765D01*
X76658121Y-91172206D01*
X76760895Y-91217585D01*
X76786021Y-91220500D01*
X76906386Y-91220499D01*
X76973425Y-91240183D01*
X77019180Y-91292987D01*
X77030386Y-91344499D01*
X77030386Y-91989500D01*
X77010701Y-92056539D01*
X76957897Y-92102294D01*
X76906386Y-92113500D01*
X68055386Y-92113500D01*
X67988347Y-92093815D01*
X67942592Y-92041011D01*
X67931386Y-91989500D01*
X67931386Y-91344499D01*
X67951071Y-91277460D01*
X68003875Y-91231705D01*
X68055386Y-91220499D01*
X68175742Y-91220499D01*
X68175750Y-91220499D01*
X68175765Y-91220497D01*
X68175768Y-91220497D01*
X68200873Y-91217586D01*
X68200874Y-91217585D01*
X68200877Y-91217585D01*
X68303651Y-91172206D01*
X68383092Y-91092765D01*
X68428471Y-90989991D01*
X68431386Y-90964865D01*
X68431385Y-90170000D01*
X68825303Y-90170000D01*
X68845585Y-90375932D01*
X68858521Y-90418575D01*
X68905654Y-90573954D01*
X69003201Y-90756450D01*
X69027728Y-90786336D01*
X69134475Y-90916410D01*
X69210133Y-90978500D01*
X69294436Y-91047685D01*
X69476932Y-91145232D01*
X69674952Y-91205300D01*
X69674951Y-91205300D01*
X69693415Y-91207118D01*
X69880886Y-91225583D01*
X70086820Y-91205300D01*
X70284840Y-91145232D01*
X70467336Y-91047685D01*
X70627296Y-90916410D01*
X70750868Y-90765835D01*
X70808614Y-90726501D01*
X70846722Y-90720500D01*
X72861932Y-90720500D01*
X72928971Y-90740185D01*
X72960734Y-90769573D01*
X72976280Y-90790074D01*
X72997166Y-90817617D01*
X73002386Y-90824500D01*
X73007001Y-90828000D01*
X73095321Y-90894975D01*
X73120228Y-90913862D01*
X73257809Y-90968117D01*
X73315448Y-90975039D01*
X73344267Y-90978500D01*
X73344268Y-90978500D01*
X73903505Y-90978500D01*
X73925118Y-90975904D01*
X73989963Y-90968117D01*
X74127544Y-90913862D01*
X74245386Y-90824500D01*
X74334748Y-90706658D01*
X74389003Y-90569077D01*
X74399386Y-90482618D01*
X74399386Y-89898382D01*
X74389003Y-89811923D01*
X74334748Y-89674342D01*
X74334746Y-89674339D01*
X74245386Y-89556499D01*
X74127546Y-89467139D01*
X74127544Y-89467138D01*
X73989963Y-89412883D01*
X73989962Y-89412882D01*
X73989960Y-89412882D01*
X73903505Y-89402500D01*
X73903504Y-89402500D01*
X73344268Y-89402500D01*
X73344267Y-89402500D01*
X73257811Y-89412882D01*
X73257810Y-89412882D01*
X73120225Y-89467139D01*
X73002390Y-89556496D01*
X73002387Y-89556499D01*
X73002386Y-89556500D01*
X72991826Y-89570425D01*
X72935636Y-89611948D01*
X72893023Y-89619500D01*
X70846722Y-89619500D01*
X70779683Y-89599815D01*
X70750868Y-89574164D01*
X70627296Y-89423589D01*
X70467338Y-89292317D01*
X70467339Y-89292317D01*
X70467336Y-89292315D01*
X70284840Y-89194768D01*
X70086820Y-89134700D01*
X70086818Y-89134699D01*
X70086820Y-89134699D01*
X69880886Y-89114417D01*
X69674953Y-89134699D01*
X69476929Y-89194769D01*
X69378776Y-89247234D01*
X69294436Y-89292315D01*
X69294434Y-89292316D01*
X69294433Y-89292317D01*
X69134475Y-89423589D01*
X69003204Y-89583546D01*
X69003201Y-89583550D01*
X68996464Y-89596154D01*
X68905655Y-89766043D01*
X68845585Y-89964067D01*
X68825303Y-90170000D01*
X68431385Y-90170000D01*
X68431385Y-89375136D01*
X68430407Y-89366700D01*
X68428472Y-89350012D01*
X68428471Y-89350010D01*
X68428471Y-89350009D01*
X68383092Y-89247235D01*
X68303651Y-89167794D01*
X68303649Y-89167793D01*
X68200878Y-89122415D01*
X68175751Y-89119500D01*
X66586029Y-89119500D01*
X66586003Y-89119502D01*
X66560898Y-89122413D01*
X66560894Y-89122415D01*
X66458121Y-89167793D01*
X66378680Y-89247234D01*
X66333301Y-89350006D01*
X66333301Y-89350008D01*
X66330386Y-89375131D01*
X66330386Y-90964856D01*
X66330388Y-90964882D01*
X66333299Y-90989987D01*
X66333301Y-90989991D01*
X66378679Y-91092764D01*
X66378680Y-91092765D01*
X66458121Y-91172206D01*
X66560895Y-91217585D01*
X66586021Y-91220500D01*
X66706386Y-91220499D01*
X66773425Y-91240183D01*
X66819180Y-91292987D01*
X66830386Y-91344499D01*
X66830386Y-91989500D01*
X66810701Y-92056539D01*
X66757897Y-92102294D01*
X66706386Y-92113500D01*
X57895386Y-92113500D01*
X57828347Y-92093815D01*
X57782592Y-92041011D01*
X57771386Y-91989500D01*
X57771386Y-91344499D01*
X57791071Y-91277460D01*
X57843875Y-91231705D01*
X57895386Y-91220499D01*
X58015742Y-91220499D01*
X58015750Y-91220499D01*
X58015765Y-91220497D01*
X58015768Y-91220497D01*
X58040873Y-91217586D01*
X58040874Y-91217585D01*
X58040877Y-91217585D01*
X58143651Y-91172206D01*
X58223092Y-91092765D01*
X58268471Y-90989991D01*
X58271386Y-90964865D01*
X58271385Y-90170000D01*
X58665303Y-90170000D01*
X58685585Y-90375932D01*
X58698521Y-90418575D01*
X58745654Y-90573954D01*
X58843201Y-90756450D01*
X58867728Y-90786336D01*
X58974475Y-90916410D01*
X59050133Y-90978500D01*
X59134436Y-91047685D01*
X59316932Y-91145232D01*
X59514952Y-91205300D01*
X59514951Y-91205300D01*
X59533415Y-91207118D01*
X59720886Y-91225583D01*
X59926820Y-91205300D01*
X60124840Y-91145232D01*
X60307336Y-91047685D01*
X60467296Y-90916410D01*
X60598571Y-90756450D01*
X60598572Y-90756446D01*
X60598575Y-90756444D01*
X60649566Y-90661047D01*
X60698528Y-90611202D01*
X60758924Y-90595500D01*
X61197269Y-90595500D01*
X61264308Y-90615185D01*
X61296071Y-90644573D01*
X61308564Y-90661047D01*
X61318385Y-90673999D01*
X61318390Y-90674003D01*
X61432697Y-90760685D01*
X61436228Y-90763362D01*
X61573809Y-90817617D01*
X61631115Y-90824499D01*
X61660267Y-90828000D01*
X61660268Y-90828000D01*
X62219505Y-90828000D01*
X62248648Y-90824500D01*
X62305963Y-90817617D01*
X62443544Y-90763362D01*
X62561386Y-90674000D01*
X62650748Y-90556158D01*
X62705003Y-90418577D01*
X62715386Y-90332118D01*
X62715386Y-89747882D01*
X62705003Y-89661423D01*
X62650748Y-89523842D01*
X62607749Y-89467139D01*
X62561386Y-89405999D01*
X62443546Y-89316639D01*
X62443544Y-89316638D01*
X62305963Y-89262383D01*
X62305962Y-89262382D01*
X62305960Y-89262382D01*
X62219505Y-89252000D01*
X62219504Y-89252000D01*
X61660268Y-89252000D01*
X61660267Y-89252000D01*
X61573811Y-89262382D01*
X61573810Y-89262382D01*
X61436225Y-89316639D01*
X61318385Y-89405999D01*
X61229025Y-89523839D01*
X61220309Y-89545941D01*
X61174769Y-89661423D01*
X61174769Y-89661425D01*
X61172969Y-89665990D01*
X61130063Y-89721134D01*
X61064155Y-89744327D01*
X61057614Y-89744500D01*
X60758924Y-89744500D01*
X60691885Y-89724815D01*
X60649566Y-89678953D01*
X60598575Y-89583555D01*
X60598570Y-89583549D01*
X60598568Y-89583547D01*
X60483750Y-89443639D01*
X60467296Y-89423589D01*
X60307338Y-89292317D01*
X60307339Y-89292317D01*
X60307336Y-89292315D01*
X60124840Y-89194768D01*
X59926820Y-89134700D01*
X59926818Y-89134699D01*
X59926820Y-89134699D01*
X59720886Y-89114417D01*
X59514953Y-89134699D01*
X59316929Y-89194769D01*
X59218776Y-89247234D01*
X59134436Y-89292315D01*
X59134434Y-89292316D01*
X59134433Y-89292317D01*
X58974475Y-89423589D01*
X58843204Y-89583546D01*
X58843201Y-89583550D01*
X58836464Y-89596154D01*
X58745655Y-89766043D01*
X58685585Y-89964067D01*
X58665303Y-90170000D01*
X58271385Y-90170000D01*
X58271385Y-89375136D01*
X58270407Y-89366700D01*
X58268472Y-89350012D01*
X58268471Y-89350010D01*
X58268471Y-89350009D01*
X58223092Y-89247235D01*
X58143651Y-89167794D01*
X58143649Y-89167793D01*
X58040878Y-89122415D01*
X58015751Y-89119500D01*
X56426029Y-89119500D01*
X56426003Y-89119502D01*
X56400898Y-89122413D01*
X56400894Y-89122415D01*
X56298121Y-89167793D01*
X56218680Y-89247234D01*
X56173301Y-89350006D01*
X56173301Y-89350008D01*
X56170386Y-89375131D01*
X56170386Y-90964856D01*
X56170388Y-90964882D01*
X56173299Y-90989987D01*
X56173301Y-90989991D01*
X56218679Y-91092764D01*
X56218680Y-91092765D01*
X56298121Y-91172206D01*
X56400895Y-91217585D01*
X56426021Y-91220500D01*
X56546386Y-91220499D01*
X56613425Y-91240183D01*
X56659180Y-91292987D01*
X56670386Y-91344499D01*
X56670386Y-91989500D01*
X56650701Y-92056539D01*
X56597897Y-92102294D01*
X56546386Y-92113500D01*
X49834272Y-92113500D01*
X49767233Y-92093815D01*
X49746591Y-92077181D01*
X49012697Y-91343286D01*
X48979212Y-91281963D01*
X48984196Y-91212271D01*
X49026068Y-91156338D01*
X49091532Y-91131921D01*
X49150634Y-91144506D01*
X49151300Y-91142900D01*
X49156921Y-91145228D01*
X49156929Y-91145230D01*
X49156932Y-91145232D01*
X49354952Y-91205300D01*
X49354951Y-91205300D01*
X49373415Y-91207118D01*
X49560886Y-91225583D01*
X49766820Y-91205300D01*
X49964840Y-91145232D01*
X50147336Y-91047685D01*
X50307296Y-90916410D01*
X50430868Y-90765835D01*
X50488614Y-90726501D01*
X50526722Y-90720500D01*
X52668932Y-90720500D01*
X52735971Y-90740185D01*
X52767734Y-90769573D01*
X52783280Y-90790074D01*
X52804166Y-90817617D01*
X52809386Y-90824500D01*
X52814001Y-90828000D01*
X52902321Y-90894975D01*
X52927228Y-90913862D01*
X53064809Y-90968117D01*
X53122448Y-90975039D01*
X53151267Y-90978500D01*
X53151268Y-90978500D01*
X53710505Y-90978500D01*
X53732118Y-90975904D01*
X53796963Y-90968117D01*
X53934544Y-90913862D01*
X54052386Y-90824500D01*
X54141748Y-90706658D01*
X54196003Y-90569077D01*
X54206386Y-90482618D01*
X54206386Y-89898382D01*
X54196003Y-89811923D01*
X54141748Y-89674342D01*
X54141746Y-89674339D01*
X54052386Y-89556499D01*
X53934546Y-89467139D01*
X53934544Y-89467138D01*
X53796963Y-89412883D01*
X53796962Y-89412882D01*
X53796960Y-89412882D01*
X53710505Y-89402500D01*
X53710504Y-89402500D01*
X53151268Y-89402500D01*
X53151267Y-89402500D01*
X53064811Y-89412882D01*
X53064810Y-89412882D01*
X52927225Y-89467139D01*
X52809390Y-89556496D01*
X52809387Y-89556499D01*
X52809386Y-89556500D01*
X52798826Y-89570425D01*
X52742636Y-89611948D01*
X52700023Y-89619500D01*
X50526722Y-89619500D01*
X50459683Y-89599815D01*
X50430868Y-89574164D01*
X50307296Y-89423589D01*
X50147338Y-89292317D01*
X50147339Y-89292317D01*
X50147336Y-89292315D01*
X49964840Y-89194768D01*
X49766820Y-89134700D01*
X49766818Y-89134699D01*
X49766820Y-89134699D01*
X49560886Y-89114417D01*
X49354953Y-89134699D01*
X49156929Y-89194769D01*
X49058776Y-89247234D01*
X48974436Y-89292315D01*
X48974434Y-89292316D01*
X48974433Y-89292317D01*
X48814475Y-89423589D01*
X48683204Y-89583546D01*
X48683201Y-89583550D01*
X48676464Y-89596154D01*
X48585655Y-89766043D01*
X48525585Y-89964067D01*
X48505303Y-90170000D01*
X48525585Y-90375932D01*
X48585657Y-90573964D01*
X48587986Y-90579586D01*
X48586351Y-90580263D01*
X48598877Y-90640479D01*
X48573865Y-90705719D01*
X48517552Y-90747079D01*
X48447818Y-90751428D01*
X48387599Y-90718189D01*
X48147704Y-90478293D01*
X48114219Y-90416970D01*
X48111385Y-90390612D01*
X48111385Y-89375143D01*
X48111385Y-89375136D01*
X48110407Y-89366700D01*
X48108472Y-89350012D01*
X48108471Y-89350010D01*
X48108471Y-89350009D01*
X48063092Y-89247235D01*
X47983651Y-89167794D01*
X47983649Y-89167793D01*
X47880878Y-89122415D01*
X47855754Y-89119500D01*
X47855751Y-89119500D01*
X46880272Y-89119500D01*
X46813233Y-89099815D01*
X46792591Y-89083181D01*
X44332999Y-86623589D01*
X42702696Y-84993285D01*
X42669212Y-84931964D01*
X42674196Y-84862272D01*
X42716068Y-84806339D01*
X42781532Y-84781922D01*
X42840636Y-84794501D01*
X42841300Y-84792900D01*
X42846921Y-84795228D01*
X42846929Y-84795230D01*
X42846932Y-84795232D01*
X43044952Y-84855300D01*
X43044951Y-84855300D01*
X43063415Y-84857118D01*
X43250886Y-84875583D01*
X43456820Y-84855300D01*
X43654840Y-84795232D01*
X43837336Y-84697685D01*
X43997296Y-84566410D01*
X44128571Y-84406450D01*
X44128577Y-84406437D01*
X44131957Y-84401382D01*
X44134174Y-84402863D01*
X44175004Y-84361245D01*
X44203373Y-84349730D01*
X44265871Y-84332984D01*
X44318671Y-84302500D01*
X44391401Y-84260510D01*
X45892092Y-82759819D01*
X45953415Y-82726334D01*
X45979773Y-82723500D01*
X46217505Y-82723500D01*
X46239118Y-82720904D01*
X46303963Y-82713117D01*
X46441544Y-82658862D01*
X46559386Y-82569500D01*
X46648748Y-82451658D01*
X46703003Y-82314077D01*
X46713386Y-82227618D01*
X46713386Y-81643382D01*
X46703003Y-81556923D01*
X46648748Y-81419342D01*
X46648746Y-81419339D01*
X46559386Y-81301499D01*
X46441546Y-81212139D01*
X46441544Y-81212138D01*
X46303963Y-81157883D01*
X46303962Y-81157882D01*
X46303960Y-81157882D01*
X46217505Y-81147500D01*
X46217504Y-81147500D01*
X45658268Y-81147500D01*
X45658267Y-81147500D01*
X45571811Y-81157882D01*
X45571810Y-81157882D01*
X45434225Y-81212139D01*
X45316385Y-81301499D01*
X45227025Y-81419339D01*
X45172768Y-81556924D01*
X45172768Y-81556925D01*
X45162386Y-81643381D01*
X45162386Y-81881112D01*
X45142701Y-81948151D01*
X45126067Y-81968793D01*
X44089933Y-83004927D01*
X44028610Y-83038412D01*
X43958918Y-83033428D01*
X43923587Y-83013099D01*
X43837339Y-82942317D01*
X43837337Y-82942316D01*
X43837336Y-82942315D01*
X43656801Y-82845816D01*
X43654842Y-82844769D01*
X43654841Y-82844768D01*
X43654840Y-82844768D01*
X43456820Y-82784700D01*
X43456818Y-82784699D01*
X43456820Y-82784699D01*
X43250886Y-82764417D01*
X43044953Y-82784699D01*
X42846929Y-82844769D01*
X42770732Y-82885498D01*
X42664436Y-82942315D01*
X42664434Y-82942316D01*
X42664433Y-82942317D01*
X42504475Y-83073589D01*
X42373203Y-83233547D01*
X42275655Y-83416043D01*
X42215585Y-83614067D01*
X42195303Y-83820000D01*
X42215585Y-84025932D01*
X42275657Y-84223964D01*
X42277986Y-84229586D01*
X42276348Y-84230264D01*
X42288879Y-84290464D01*
X42263874Y-84355706D01*
X42207566Y-84397073D01*
X42137833Y-84401430D01*
X42077598Y-84368187D01*
X41837704Y-84128293D01*
X41804219Y-84066970D01*
X41801385Y-84040612D01*
X41801385Y-83025143D01*
X41801385Y-83025136D01*
X41799989Y-83013099D01*
X41798472Y-83000012D01*
X41798471Y-83000010D01*
X41798471Y-83000009D01*
X41753092Y-82897235D01*
X41673651Y-82817794D01*
X41673649Y-82817793D01*
X41570878Y-82772415D01*
X41545751Y-82769500D01*
X39956029Y-82769500D01*
X39956003Y-82769502D01*
X39930898Y-82772413D01*
X39930894Y-82772415D01*
X39828121Y-82817793D01*
X39748680Y-82897234D01*
X39703301Y-83000006D01*
X39703301Y-83000008D01*
X39700386Y-83025131D01*
X39700386Y-84614856D01*
X39700388Y-84614882D01*
X39703299Y-84639987D01*
X39703301Y-84639991D01*
X39748679Y-84742764D01*
X39748680Y-84742765D01*
X39828121Y-84822206D01*
X39930895Y-84867585D01*
X39956021Y-84870500D01*
X40971498Y-84870499D01*
X41038537Y-84890183D01*
X41059179Y-84906818D01*
X45974067Y-89821705D01*
X46007552Y-89883028D01*
X46010386Y-89909386D01*
X46010386Y-90964856D01*
X46010388Y-90964882D01*
X46013299Y-90989987D01*
X46013301Y-90989991D01*
X46058679Y-91092764D01*
X46058680Y-91092765D01*
X46138121Y-91172206D01*
X46240895Y-91217585D01*
X46266021Y-91220500D01*
X47281498Y-91220499D01*
X47348537Y-91240183D01*
X47369179Y-91256818D01*
X48268861Y-92156500D01*
X49115681Y-93003319D01*
X49149166Y-93064642D01*
X49144182Y-93134334D01*
X49102310Y-93190267D01*
X49036846Y-93214684D01*
X49028000Y-93215000D01*
X39330886Y-93215000D01*
X39263847Y-93195315D01*
X39218092Y-93142511D01*
X39206886Y-93091000D01*
X39206886Y-81020000D01*
X39695303Y-81020000D01*
X39715585Y-81225932D01*
X39732744Y-81282497D01*
X39775654Y-81423954D01*
X39873201Y-81606450D01*
X39873203Y-81606452D01*
X40004475Y-81766410D01*
X40072017Y-81821839D01*
X40164436Y-81897685D01*
X40346932Y-81995232D01*
X40544952Y-82055300D01*
X40544951Y-82055300D01*
X40557024Y-82056489D01*
X40750886Y-82075583D01*
X40956820Y-82055300D01*
X41154840Y-81995232D01*
X41337336Y-81897685D01*
X41497296Y-81766410D01*
X41628571Y-81606450D01*
X41726118Y-81423954D01*
X41786186Y-81225934D01*
X41806469Y-81020000D01*
X42195303Y-81020000D01*
X42215585Y-81225932D01*
X42232744Y-81282497D01*
X42275654Y-81423954D01*
X42373201Y-81606450D01*
X42373203Y-81606452D01*
X42504475Y-81766410D01*
X42572017Y-81821839D01*
X42664436Y-81897685D01*
X42846932Y-81995232D01*
X43044952Y-82055300D01*
X43044951Y-82055300D01*
X43057024Y-82056489D01*
X43250886Y-82075583D01*
X43456820Y-82055300D01*
X43654840Y-81995232D01*
X43837336Y-81897685D01*
X43997296Y-81766410D01*
X44128571Y-81606450D01*
X44226118Y-81423954D01*
X44286186Y-81225934D01*
X44306469Y-81020000D01*
X44286186Y-80814066D01*
X44226118Y-80616046D01*
X44128571Y-80433550D01*
X43997296Y-80273590D01*
X43997295Y-80273589D01*
X43846721Y-80150016D01*
X43807387Y-80092271D01*
X43801386Y-80054163D01*
X43801386Y-78845754D01*
X43821071Y-78778715D01*
X43850458Y-78746952D01*
X43881386Y-78723500D01*
X43970748Y-78605658D01*
X44025003Y-78468077D01*
X44035386Y-78381618D01*
X44035386Y-77822382D01*
X44032670Y-77799770D01*
X44025003Y-77735925D01*
X44025003Y-77735924D01*
X44025003Y-77735923D01*
X43970748Y-77598342D01*
X43970746Y-77598339D01*
X43881386Y-77480499D01*
X43763546Y-77391139D01*
X43763544Y-77391138D01*
X43625963Y-77336883D01*
X43625962Y-77336882D01*
X43625960Y-77336882D01*
X43539505Y-77326500D01*
X43539504Y-77326500D01*
X42955268Y-77326500D01*
X42955267Y-77326500D01*
X42868811Y-77336882D01*
X42868810Y-77336882D01*
X42731225Y-77391139D01*
X42613385Y-77480499D01*
X42524025Y-77598339D01*
X42469768Y-77735924D01*
X42469768Y-77735925D01*
X42459386Y-77822381D01*
X42459386Y-78381618D01*
X42469768Y-78468074D01*
X42469768Y-78468075D01*
X42469769Y-78468077D01*
X42521934Y-78600359D01*
X42524025Y-78605660D01*
X42565095Y-78659819D01*
X42613386Y-78723500D01*
X42651311Y-78752259D01*
X42692834Y-78808449D01*
X42700386Y-78851062D01*
X42700386Y-80054163D01*
X42680701Y-80121202D01*
X42655051Y-80150016D01*
X42504476Y-80273589D01*
X42373203Y-80433547D01*
X42373201Y-80433550D01*
X42356271Y-80465224D01*
X42275655Y-80616043D01*
X42215585Y-80814067D01*
X42195303Y-81020000D01*
X41806469Y-81020000D01*
X41786186Y-80814066D01*
X41726118Y-80616046D01*
X41628571Y-80433550D01*
X41537839Y-80322992D01*
X41497296Y-80273589D01*
X41358420Y-80159618D01*
X41337336Y-80142315D01*
X41154840Y-80044768D01*
X40956820Y-79984700D01*
X40956818Y-79984699D01*
X40956820Y-79984699D01*
X40750886Y-79964417D01*
X40544953Y-79984699D01*
X40346929Y-80044769D01*
X40258332Y-80092126D01*
X40164436Y-80142315D01*
X40164434Y-80142316D01*
X40164433Y-80142317D01*
X40004475Y-80273589D01*
X39873203Y-80433547D01*
X39873201Y-80433550D01*
X39856271Y-80465224D01*
X39775655Y-80616043D01*
X39715585Y-80814067D01*
X39695303Y-81020000D01*
X39206886Y-81020000D01*
X39206886Y-76194000D01*
X39226571Y-76126961D01*
X39279375Y-76081206D01*
X39330886Y-76070000D01*
X58891886Y-76070000D01*
X58891886Y-71876000D01*
X58911571Y-71808961D01*
X58964375Y-71763206D01*
X59015886Y-71752000D01*
X65625886Y-71752000D01*
X65692925Y-71771685D01*
G37*
%TD.AperFunction*%
%TA.AperFunction,Conductor*%
G36*
X113111782Y-70229262D02*
G01*
X113120886Y-70230571D01*
X113129990Y-70229262D01*
X113147637Y-70228000D01*
X118965886Y-70228000D01*
X119032925Y-70247685D01*
X119078680Y-70300489D01*
X119089886Y-70352000D01*
X119089886Y-70355000D01*
X119089886Y-74419000D01*
X119089886Y-76070000D01*
X138650886Y-76070000D01*
X138717925Y-76089685D01*
X138763680Y-76142489D01*
X138774886Y-76194000D01*
X138774886Y-93091000D01*
X138755201Y-93158039D01*
X138702397Y-93203794D01*
X138650886Y-93215000D01*
X133756773Y-93215000D01*
X133689734Y-93195315D01*
X133643979Y-93142511D01*
X133634035Y-93073353D01*
X133663060Y-93009797D01*
X133669092Y-93003319D01*
X135211396Y-91461015D01*
X135283870Y-91335485D01*
X135292645Y-91302737D01*
X135298212Y-91281963D01*
X135309406Y-91240183D01*
X135321386Y-91195475D01*
X135321386Y-84994499D01*
X135341071Y-84927460D01*
X135393875Y-84881705D01*
X135445386Y-84870499D01*
X135565742Y-84870499D01*
X135565750Y-84870499D01*
X135565765Y-84870497D01*
X135565768Y-84870497D01*
X135590873Y-84867586D01*
X135590874Y-84867585D01*
X135590877Y-84867585D01*
X135693651Y-84822206D01*
X135773092Y-84742765D01*
X135818471Y-84639991D01*
X135821386Y-84614865D01*
X135821385Y-83820000D01*
X136215303Y-83820000D01*
X136235585Y-84025932D01*
X136265355Y-84124070D01*
X136295654Y-84223954D01*
X136393201Y-84406450D01*
X136393203Y-84406452D01*
X136524475Y-84566410D01*
X136583508Y-84614856D01*
X136675051Y-84689983D01*
X136714385Y-84747726D01*
X136720386Y-84785835D01*
X136720386Y-86425975D01*
X136729069Y-86458378D01*
X136729069Y-86458381D01*
X136729070Y-86458381D01*
X136729070Y-86458382D01*
X136738162Y-86492315D01*
X136757902Y-86565985D01*
X136830375Y-86691513D01*
X136830377Y-86691516D01*
X136831067Y-86692206D01*
X136831462Y-86692930D01*
X136835322Y-86697960D01*
X136834537Y-86698561D01*
X136864552Y-86753529D01*
X136867386Y-86779887D01*
X136867386Y-87017618D01*
X136877768Y-87104074D01*
X136877768Y-87104075D01*
X136932025Y-87241660D01*
X137021385Y-87359500D01*
X137139225Y-87448860D01*
X137139228Y-87448862D01*
X137276809Y-87503117D01*
X137334448Y-87510039D01*
X137363267Y-87513500D01*
X137363268Y-87513500D01*
X137947505Y-87513500D01*
X137969118Y-87510904D01*
X138033963Y-87503117D01*
X138171544Y-87448862D01*
X138289386Y-87359500D01*
X138378748Y-87241658D01*
X138433003Y-87104077D01*
X138443386Y-87017618D01*
X138443386Y-86458382D01*
X138441451Y-86442271D01*
X138433003Y-86371925D01*
X138433003Y-86371924D01*
X138422990Y-86346532D01*
X138378748Y-86234342D01*
X138378746Y-86234339D01*
X138289386Y-86116499D01*
X138171546Y-86027139D01*
X138171544Y-86027138D01*
X138033963Y-85972883D01*
X138033962Y-85972882D01*
X138033960Y-85972882D01*
X137947505Y-85962500D01*
X137947504Y-85962500D01*
X137945386Y-85962500D01*
X137944842Y-85962340D01*
X137943799Y-85962278D01*
X137943813Y-85962038D01*
X137878347Y-85942815D01*
X137832592Y-85890011D01*
X137821386Y-85838500D01*
X137821386Y-84785835D01*
X137841071Y-84718796D01*
X137866718Y-84689985D01*
X138017296Y-84566410D01*
X138148571Y-84406450D01*
X138246118Y-84223954D01*
X138306186Y-84025934D01*
X138326469Y-83820000D01*
X138306186Y-83614066D01*
X138246118Y-83416046D01*
X138148571Y-83233550D01*
X138078679Y-83148386D01*
X138017296Y-83073589D01*
X137857338Y-82942317D01*
X137857339Y-82942317D01*
X137857336Y-82942315D01*
X137676801Y-82845816D01*
X137674842Y-82844769D01*
X137674841Y-82844768D01*
X137674840Y-82844768D01*
X137476820Y-82784700D01*
X137476818Y-82784699D01*
X137476820Y-82784699D01*
X137270886Y-82764417D01*
X137064953Y-82784699D01*
X136866929Y-82844769D01*
X136790732Y-82885498D01*
X136684436Y-82942315D01*
X136684434Y-82942316D01*
X136684433Y-82942317D01*
X136524475Y-83073589D01*
X136393203Y-83233547D01*
X136295655Y-83416043D01*
X136235585Y-83614067D01*
X136215303Y-83820000D01*
X135821385Y-83820000D01*
X135821385Y-83025136D01*
X135819989Y-83013099D01*
X135818472Y-83000012D01*
X135818471Y-83000010D01*
X135818471Y-83000009D01*
X135773092Y-82897235D01*
X135693651Y-82817794D01*
X135693649Y-82817793D01*
X135590878Y-82772415D01*
X135565754Y-82769500D01*
X134099271Y-82769500D01*
X134032232Y-82749815D01*
X133986477Y-82697011D01*
X133976533Y-82627853D01*
X134005558Y-82564297D01*
X134011572Y-82557837D01*
X134477200Y-82092209D01*
X134538521Y-82058726D01*
X134577027Y-82056489D01*
X134770886Y-82075583D01*
X134976820Y-82055300D01*
X135174840Y-81995232D01*
X135357336Y-81897685D01*
X135517296Y-81766410D01*
X135648571Y-81606450D01*
X135746118Y-81423954D01*
X135806186Y-81225934D01*
X135826469Y-81020000D01*
X136215303Y-81020000D01*
X136235585Y-81225932D01*
X136252744Y-81282497D01*
X136295654Y-81423954D01*
X136393201Y-81606450D01*
X136393203Y-81606452D01*
X136524475Y-81766410D01*
X136592017Y-81821839D01*
X136684436Y-81897685D01*
X136866932Y-81995232D01*
X137064952Y-82055300D01*
X137064951Y-82055300D01*
X137077024Y-82056489D01*
X137270886Y-82075583D01*
X137476820Y-82055300D01*
X137674840Y-81995232D01*
X137857336Y-81897685D01*
X138017296Y-81766410D01*
X138148571Y-81606450D01*
X138246118Y-81423954D01*
X138306186Y-81225934D01*
X138326469Y-81020000D01*
X138306186Y-80814066D01*
X138246118Y-80616046D01*
X138148571Y-80433550D01*
X138017296Y-80273590D01*
X138017295Y-80273589D01*
X137866721Y-80150016D01*
X137827387Y-80092271D01*
X137821386Y-80054163D01*
X137821386Y-78851062D01*
X137841071Y-78784023D01*
X137870458Y-78752260D01*
X137908386Y-78723500D01*
X137997748Y-78605658D01*
X138052003Y-78468077D01*
X138062386Y-78381618D01*
X138062386Y-77822382D01*
X138059670Y-77799770D01*
X138052003Y-77735925D01*
X138052003Y-77735924D01*
X138052003Y-77735923D01*
X137997748Y-77598342D01*
X137997746Y-77598339D01*
X137908386Y-77480499D01*
X137790546Y-77391139D01*
X137790544Y-77391138D01*
X137652963Y-77336883D01*
X137652962Y-77336882D01*
X137652960Y-77336882D01*
X137566505Y-77326500D01*
X137566504Y-77326500D01*
X136982268Y-77326500D01*
X136982267Y-77326500D01*
X136895811Y-77336882D01*
X136895810Y-77336882D01*
X136758225Y-77391139D01*
X136640385Y-77480499D01*
X136551025Y-77598339D01*
X136496768Y-77735924D01*
X136496768Y-77735925D01*
X136486386Y-77822381D01*
X136486386Y-78381618D01*
X136496768Y-78468074D01*
X136496768Y-78468075D01*
X136496769Y-78468077D01*
X136548934Y-78600359D01*
X136551025Y-78605660D01*
X136592095Y-78659819D01*
X136640386Y-78723500D01*
X136671311Y-78746951D01*
X136712834Y-78803141D01*
X136720386Y-78845754D01*
X136720386Y-80054163D01*
X136700701Y-80121202D01*
X136675051Y-80150016D01*
X136524476Y-80273589D01*
X136393203Y-80433547D01*
X136393201Y-80433550D01*
X136376271Y-80465224D01*
X136295655Y-80616043D01*
X136235585Y-80814067D01*
X136215303Y-81020000D01*
X135826469Y-81020000D01*
X135806186Y-80814066D01*
X135746118Y-80616046D01*
X135648571Y-80433550D01*
X135557839Y-80322992D01*
X135517296Y-80273589D01*
X135378420Y-80159618D01*
X135357336Y-80142315D01*
X135174840Y-80044768D01*
X134976820Y-79984700D01*
X134976818Y-79984699D01*
X134976820Y-79984699D01*
X134770886Y-79964417D01*
X134564953Y-79984699D01*
X134366929Y-80044769D01*
X134278332Y-80092126D01*
X134184436Y-80142315D01*
X134184434Y-80142316D01*
X134184433Y-80142317D01*
X134024475Y-80273589D01*
X133893203Y-80433547D01*
X133893201Y-80433550D01*
X133876271Y-80465224D01*
X133795655Y-80616043D01*
X133735585Y-80814067D01*
X133715303Y-81020000D01*
X133734395Y-81213851D01*
X133721376Y-81282497D01*
X133698673Y-81313686D01*
X132163180Y-82849181D01*
X132101857Y-82882666D01*
X132075499Y-82885500D01*
X129379037Y-82885500D01*
X129311998Y-82865815D01*
X129266243Y-82813011D01*
X129256299Y-82743853D01*
X129285324Y-82680297D01*
X129344102Y-82642523D01*
X129344709Y-82642346D01*
X129350462Y-82640688D01*
X129640530Y-82557121D01*
X129962262Y-82423855D01*
X130267050Y-82255405D01*
X130551062Y-82053888D01*
X130810725Y-81821839D01*
X131042774Y-81562176D01*
X131244291Y-81278164D01*
X131412741Y-80973376D01*
X131546007Y-80651644D01*
X131642413Y-80317013D01*
X131700745Y-79973693D01*
X131720271Y-79626000D01*
X131700745Y-79278307D01*
X131642413Y-78934987D01*
X131546007Y-78600356D01*
X131412741Y-78278624D01*
X131244291Y-77973836D01*
X131042774Y-77689824D01*
X130810725Y-77430161D01*
X130551062Y-77198112D01*
X130267050Y-76996595D01*
X129962262Y-76828145D01*
X129640530Y-76694879D01*
X129473214Y-76646676D01*
X129305903Y-76598474D01*
X129305895Y-76598472D01*
X128962586Y-76540142D01*
X128962574Y-76540140D01*
X128614886Y-76520615D01*
X128267197Y-76540140D01*
X128267185Y-76540142D01*
X127923876Y-76598472D01*
X127923868Y-76598474D01*
X127589245Y-76694878D01*
X127589242Y-76694879D01*
X127564808Y-76705000D01*
X127267511Y-76828144D01*
X126962721Y-76996595D01*
X126761204Y-77139579D01*
X126678710Y-77198112D01*
X126419047Y-77430161D01*
X126186998Y-77689824D01*
X126154289Y-77735923D01*
X125985481Y-77973835D01*
X125817030Y-78278625D01*
X125738558Y-78468074D01*
X125696298Y-78570100D01*
X125683764Y-78600359D01*
X125587360Y-78934982D01*
X125587358Y-78934990D01*
X125529028Y-79278299D01*
X125529026Y-79278311D01*
X125509501Y-79626000D01*
X125529026Y-79973688D01*
X125529028Y-79973700D01*
X125587358Y-80317009D01*
X125587360Y-80317017D01*
X125589713Y-80325185D01*
X125683765Y-80651644D01*
X125817031Y-80973376D01*
X125985481Y-81278164D01*
X126186998Y-81562176D01*
X126419047Y-81821839D01*
X126678710Y-82053888D01*
X126962722Y-82255405D01*
X127267510Y-82423855D01*
X127589242Y-82557121D01*
X127877441Y-82640150D01*
X127885063Y-82642346D01*
X127944033Y-82679820D01*
X127973381Y-82743227D01*
X127963791Y-82812436D01*
X127918305Y-82865472D01*
X127851367Y-82885498D01*
X127850735Y-82885500D01*
X113765386Y-82885500D01*
X113698347Y-82865815D01*
X113652592Y-82813011D01*
X113641386Y-82761500D01*
X113641386Y-80991736D01*
X113661071Y-80924697D01*
X113713875Y-80878942D01*
X113783033Y-80868998D01*
X113830662Y-80886308D01*
X113875867Y-80914298D01*
X114074688Y-80991321D01*
X114284276Y-81030500D01*
X114284278Y-81030500D01*
X114497494Y-81030500D01*
X114497496Y-81030500D01*
X114707084Y-80991321D01*
X114905905Y-80914298D01*
X115087188Y-80802052D01*
X115244758Y-80658407D01*
X115373252Y-80488255D01*
X115384720Y-80465224D01*
X115468289Y-80297394D01*
X115468289Y-80297393D01*
X115468291Y-80297389D01*
X115526642Y-80092310D01*
X115537415Y-79976047D01*
X115563201Y-79911111D01*
X115607755Y-79879194D01*
X115571383Y-79858331D01*
X115539193Y-79796318D01*
X115537415Y-79783951D01*
X115536735Y-79776613D01*
X115526642Y-79667690D01*
X115475326Y-79487336D01*
X115475912Y-79417470D01*
X115506909Y-79365723D01*
X115757958Y-79114675D01*
X115819278Y-79081192D01*
X115888970Y-79086176D01*
X115944903Y-79128048D01*
X115969320Y-79193512D01*
X115954468Y-79261785D01*
X115951072Y-79267622D01*
X115948518Y-79271747D01*
X115853482Y-79462605D01*
X115853482Y-79462607D01*
X115795130Y-79667689D01*
X115784357Y-79783951D01*
X115758571Y-79848888D01*
X115714016Y-79880804D01*
X115750389Y-79901668D01*
X115782579Y-79963681D01*
X115784356Y-79976047D01*
X115795130Y-80092310D01*
X115846709Y-80273590D01*
X115853482Y-80297392D01*
X115853482Y-80297394D01*
X115948518Y-80488253D01*
X116077013Y-80658406D01*
X116077014Y-80658407D01*
X116234584Y-80802052D01*
X116415867Y-80914298D01*
X116614688Y-80991321D01*
X116824276Y-81030500D01*
X116824278Y-81030500D01*
X117037494Y-81030500D01*
X117037496Y-81030500D01*
X117247084Y-80991321D01*
X117445905Y-80914298D01*
X117627188Y-80802052D01*
X117784758Y-80658407D01*
X117913252Y-80488255D01*
X117924720Y-80465224D01*
X117970030Y-80374229D01*
X118017532Y-80322992D01*
X118081030Y-80305500D01*
X119347308Y-80305500D01*
X119414347Y-80325185D01*
X119460102Y-80377989D01*
X119462481Y-80383582D01*
X119462523Y-80383657D01*
X119551885Y-80501500D01*
X119639672Y-80568070D01*
X119669728Y-80590862D01*
X119807309Y-80645117D01*
X119861626Y-80651640D01*
X119893767Y-80655500D01*
X119893768Y-80655500D01*
X120478005Y-80655500D01*
X120499618Y-80652904D01*
X120564463Y-80645117D01*
X120702044Y-80590862D01*
X120819886Y-80501500D01*
X120909248Y-80383658D01*
X120963503Y-80246077D01*
X120973886Y-80159618D01*
X120973886Y-79600382D01*
X120963503Y-79513923D01*
X120909248Y-79376342D01*
X120901194Y-79365721D01*
X120819886Y-79258499D01*
X120702046Y-79169139D01*
X120702044Y-79169138D01*
X120564463Y-79114883D01*
X120564462Y-79114882D01*
X120564460Y-79114882D01*
X120478005Y-79104500D01*
X120478004Y-79104500D01*
X119893768Y-79104500D01*
X119893767Y-79104500D01*
X119806773Y-79114947D01*
X119737864Y-79103397D01*
X119727994Y-79094433D01*
X119724917Y-79112739D01*
X119677922Y-79164442D01*
X119674156Y-79166647D01*
X119669731Y-79169134D01*
X119551885Y-79258499D01*
X119462523Y-79376342D01*
X119458366Y-79383736D01*
X119457162Y-79383059D01*
X119419757Y-79431134D01*
X119353849Y-79454327D01*
X119347308Y-79454500D01*
X118081030Y-79454500D01*
X118013991Y-79434815D01*
X117970030Y-79385771D01*
X117913253Y-79271746D01*
X117813178Y-79139227D01*
X117788486Y-79073866D01*
X117803051Y-79005531D01*
X117852248Y-78955919D01*
X117912132Y-78940500D01*
X119574901Y-78940500D01*
X119574904Y-78940500D01*
X119581281Y-78938791D01*
X119651128Y-78940450D01*
X119677748Y-78958464D01*
X119689262Y-78922382D01*
X119729986Y-78884446D01*
X119780149Y-78855485D01*
X119975815Y-78659819D01*
X120037138Y-78626334D01*
X120063496Y-78623500D01*
X120478005Y-78623500D01*
X120499618Y-78620904D01*
X120564463Y-78613117D01*
X120702044Y-78558862D01*
X120819886Y-78469500D01*
X120909248Y-78351658D01*
X120963503Y-78214077D01*
X120973886Y-78127618D01*
X120973886Y-77568382D01*
X120963503Y-77481923D01*
X120909248Y-77344342D01*
X120909246Y-77344339D01*
X120819886Y-77226499D01*
X120702046Y-77137139D01*
X120702044Y-77137138D01*
X120564463Y-77082883D01*
X120564462Y-77082882D01*
X120564460Y-77082882D01*
X120478005Y-77072500D01*
X120478004Y-77072500D01*
X119893768Y-77072500D01*
X119893767Y-77072500D01*
X119807311Y-77082882D01*
X119807310Y-77082882D01*
X119669725Y-77137139D01*
X119551885Y-77226499D01*
X119462525Y-77344339D01*
X119408268Y-77481924D01*
X119408268Y-77481925D01*
X119397886Y-77568381D01*
X119397886Y-77965500D01*
X119378201Y-78032539D01*
X119325397Y-78078294D01*
X119273886Y-78089500D01*
X118043187Y-78089500D01*
X117976148Y-78069815D01*
X117930393Y-78017011D01*
X117920449Y-77947853D01*
X117932187Y-77910229D01*
X118008289Y-77757394D01*
X118008289Y-77757393D01*
X118008291Y-77757389D01*
X118066642Y-77552310D01*
X118086315Y-77340000D01*
X118066642Y-77127690D01*
X118008291Y-76922611D01*
X118008289Y-76922606D01*
X118008289Y-76922605D01*
X117913253Y-76731746D01*
X117784758Y-76561593D01*
X117627188Y-76417948D01*
X117445905Y-76305702D01*
X117445894Y-76305697D01*
X117264092Y-76235266D01*
X117208690Y-76192694D01*
X117185100Y-76126927D01*
X117184886Y-76119640D01*
X117184886Y-76069998D01*
X117182354Y-76057663D01*
X117184180Y-76057288D01*
X117177706Y-76003278D01*
X117208215Y-75940421D01*
X117255199Y-75908177D01*
X117445905Y-75834298D01*
X117627188Y-75722052D01*
X117784758Y-75578407D01*
X117913252Y-75408255D01*
X118008291Y-75217389D01*
X118066642Y-75012310D01*
X118086315Y-74800000D01*
X118066642Y-74587690D01*
X118008291Y-74382611D01*
X118008289Y-74382606D01*
X118008289Y-74382605D01*
X117913253Y-74191746D01*
X117784758Y-74021593D01*
X117745280Y-73985604D01*
X117627188Y-73877948D01*
X117445905Y-73765702D01*
X117445903Y-73765701D01*
X117346494Y-73727190D01*
X117247084Y-73688679D01*
X117037496Y-73649500D01*
X116824276Y-73649500D01*
X116614688Y-73688679D01*
X116614685Y-73688679D01*
X116614685Y-73688680D01*
X116415868Y-73765701D01*
X116415866Y-73765702D01*
X116234585Y-73877947D01*
X116234584Y-73877948D01*
X116208329Y-73901883D01*
X116203988Y-73905840D01*
X116141183Y-73936456D01*
X116071796Y-73928258D01*
X116032769Y-73901883D01*
X115528822Y-73397936D01*
X115495337Y-73336613D01*
X115500321Y-73266921D01*
X115503062Y-73260182D01*
X115538471Y-73179991D01*
X115541386Y-73154865D01*
X115541385Y-71365136D01*
X115541383Y-71365117D01*
X115538472Y-71340012D01*
X115538471Y-71340010D01*
X115538471Y-71340009D01*
X115493092Y-71237235D01*
X115413651Y-71157794D01*
X115413649Y-71157793D01*
X115310878Y-71112415D01*
X115285751Y-71109500D01*
X113496029Y-71109500D01*
X113496003Y-71109502D01*
X113470898Y-71112413D01*
X113470894Y-71112415D01*
X113368121Y-71157793D01*
X113288680Y-71237234D01*
X113243301Y-71340006D01*
X113243301Y-71340008D01*
X113240386Y-71365131D01*
X113240386Y-72580612D01*
X113220701Y-72647651D01*
X113204067Y-72668293D01*
X112650377Y-73221983D01*
X112650375Y-73221986D01*
X112577902Y-73347514D01*
X112577902Y-73347515D01*
X112540386Y-73487525D01*
X112540386Y-73487527D01*
X112540386Y-82761500D01*
X112520701Y-82828539D01*
X112467897Y-82874294D01*
X112416386Y-82885500D01*
X98633175Y-82885500D01*
X98566136Y-82865815D01*
X98520381Y-82813011D01*
X98510437Y-82743853D01*
X98517233Y-82717529D01*
X98518907Y-82713117D01*
X98566026Y-82588872D01*
X98586531Y-82420000D01*
X98566026Y-82251128D01*
X98505704Y-82092070D01*
X98494323Y-82075582D01*
X98427961Y-81979440D01*
X98406078Y-81913086D01*
X98423543Y-81845434D01*
X98474811Y-81797964D01*
X98530011Y-81785000D01*
X108040899Y-81785000D01*
X108068835Y-81784666D01*
X108246656Y-81782543D01*
X108656215Y-81742207D01*
X109059849Y-81661920D01*
X109453669Y-81542457D01*
X109833883Y-81384968D01*
X110196830Y-81190970D01*
X110385547Y-81064874D01*
X110539001Y-80962340D01*
X110539004Y-80962337D01*
X110539014Y-80962331D01*
X110857140Y-80701253D01*
X111148144Y-80410250D01*
X111409223Y-80092126D01*
X111637863Y-79749942D01*
X111831862Y-79386996D01*
X111989353Y-79006782D01*
X112108817Y-78612962D01*
X112108819Y-78612952D01*
X112108822Y-78612941D01*
X112156798Y-78371743D01*
X112189104Y-78209329D01*
X112229443Y-77799770D01*
X112231494Y-77627052D01*
X112231886Y-77594021D01*
X112231886Y-70352000D01*
X112251571Y-70284961D01*
X112304375Y-70239206D01*
X112355886Y-70228000D01*
X113094135Y-70228000D01*
X113111782Y-70229262D01*
G37*
%TD.AperFunction*%
%TA.AperFunction,Conductor*%
G36*
X133639719Y-83032204D02*
G01*
X133695653Y-83074076D01*
X133720070Y-83139540D01*
X133720386Y-83148386D01*
X133720386Y-84614856D01*
X133720388Y-84614882D01*
X133723299Y-84639987D01*
X133723301Y-84639991D01*
X133768679Y-84742764D01*
X133768680Y-84742765D01*
X133848121Y-84822206D01*
X133950895Y-84867585D01*
X133976021Y-84870500D01*
X134096386Y-84870499D01*
X134163425Y-84890183D01*
X134209180Y-84942987D01*
X134220386Y-84994499D01*
X134220386Y-89299661D01*
X134200701Y-89366700D01*
X134147897Y-89412455D01*
X134078739Y-89422399D01*
X134021461Y-89398465D01*
X133944546Y-89340139D01*
X133944544Y-89340138D01*
X133806963Y-89285883D01*
X133806962Y-89285882D01*
X133806960Y-89285882D01*
X133720505Y-89275500D01*
X133720504Y-89275500D01*
X133161268Y-89275500D01*
X133161267Y-89275500D01*
X133074811Y-89285882D01*
X133074810Y-89285882D01*
X132937225Y-89340139D01*
X132819385Y-89429499D01*
X132730025Y-89547339D01*
X132725868Y-89554734D01*
X132723067Y-89553159D01*
X132689595Y-89596154D01*
X132623681Y-89619329D01*
X132617174Y-89619500D01*
X131926722Y-89619500D01*
X131859683Y-89599815D01*
X131830868Y-89574164D01*
X131707296Y-89423589D01*
X131547338Y-89292317D01*
X131547339Y-89292317D01*
X131547336Y-89292315D01*
X131364840Y-89194768D01*
X131166820Y-89134700D01*
X131166818Y-89134699D01*
X131166820Y-89134699D01*
X130960886Y-89114417D01*
X130754953Y-89134699D01*
X130556929Y-89194769D01*
X130458776Y-89247234D01*
X130374436Y-89292315D01*
X130374434Y-89292316D01*
X130374433Y-89292317D01*
X130214475Y-89423589D01*
X130083204Y-89583546D01*
X130083201Y-89583550D01*
X130076464Y-89596154D01*
X129985655Y-89766043D01*
X129925585Y-89964067D01*
X129905303Y-90170000D01*
X129925585Y-90375932D01*
X129938521Y-90418575D01*
X129985654Y-90573954D01*
X130083201Y-90756450D01*
X130107728Y-90786336D01*
X130214475Y-90916410D01*
X130290133Y-90978500D01*
X130374436Y-91047685D01*
X130556932Y-91145232D01*
X130754952Y-91205300D01*
X130754951Y-91205300D01*
X130773415Y-91207118D01*
X130960886Y-91225583D01*
X131166820Y-91205300D01*
X131364840Y-91145232D01*
X131547336Y-91047685D01*
X131707296Y-90916410D01*
X131830868Y-90765835D01*
X131888614Y-90726501D01*
X131926722Y-90720500D01*
X132808017Y-90720500D01*
X132875056Y-90740185D01*
X132882942Y-90745696D01*
X132914431Y-90769575D01*
X132937228Y-90786862D01*
X133074809Y-90841117D01*
X133132448Y-90848039D01*
X133161267Y-90851500D01*
X133161268Y-90851500D01*
X133720505Y-90851500D01*
X133742118Y-90848904D01*
X133806963Y-90841117D01*
X133944544Y-90786862D01*
X134021461Y-90728533D01*
X134086772Y-90703711D01*
X134155136Y-90718139D01*
X134204847Y-90767236D01*
X134220386Y-90827338D01*
X134220386Y-90843613D01*
X134200701Y-90910652D01*
X134184067Y-90931294D01*
X132995180Y-92120181D01*
X132933857Y-92153666D01*
X132907499Y-92156500D01*
X129135386Y-92156500D01*
X129068347Y-92136815D01*
X129022592Y-92084011D01*
X129011386Y-92032500D01*
X129011386Y-91344499D01*
X129031071Y-91277460D01*
X129083875Y-91231705D01*
X129135386Y-91220499D01*
X129255742Y-91220499D01*
X129255750Y-91220499D01*
X129255765Y-91220497D01*
X129255768Y-91220497D01*
X129280873Y-91217586D01*
X129280874Y-91217585D01*
X129280877Y-91217585D01*
X129383651Y-91172206D01*
X129463092Y-91092765D01*
X129508471Y-90989991D01*
X129511386Y-90964865D01*
X129511385Y-89375136D01*
X129510407Y-89366700D01*
X129508472Y-89350012D01*
X129508471Y-89350010D01*
X129508471Y-89350009D01*
X129463092Y-89247235D01*
X129383651Y-89167794D01*
X129383649Y-89167793D01*
X129280878Y-89122415D01*
X129255751Y-89119500D01*
X127666029Y-89119500D01*
X127666003Y-89119502D01*
X127640898Y-89122413D01*
X127640894Y-89122415D01*
X127538121Y-89167793D01*
X127458680Y-89247234D01*
X127413301Y-89350006D01*
X127413301Y-89350008D01*
X127410386Y-89375131D01*
X127410386Y-90964856D01*
X127410388Y-90964882D01*
X127413299Y-90989987D01*
X127413301Y-90989991D01*
X127458679Y-91092764D01*
X127458680Y-91092765D01*
X127538121Y-91172206D01*
X127640895Y-91217585D01*
X127666021Y-91220500D01*
X127786386Y-91220499D01*
X127853425Y-91240183D01*
X127899180Y-91292987D01*
X127910386Y-91344499D01*
X127910386Y-92032500D01*
X127890701Y-92099539D01*
X127837897Y-92145294D01*
X127786386Y-92156500D01*
X118935386Y-92156500D01*
X118868347Y-92136815D01*
X118822592Y-92084011D01*
X118811386Y-92032500D01*
X118811386Y-91344499D01*
X118831071Y-91277460D01*
X118883875Y-91231705D01*
X118935386Y-91220499D01*
X119055742Y-91220499D01*
X119055750Y-91220499D01*
X119055765Y-91220497D01*
X119055768Y-91220497D01*
X119080873Y-91217586D01*
X119080874Y-91217585D01*
X119080877Y-91217585D01*
X119183651Y-91172206D01*
X119263092Y-91092765D01*
X119308471Y-90989991D01*
X119311386Y-90964865D01*
X119311385Y-90170000D01*
X119705303Y-90170000D01*
X119725585Y-90375932D01*
X119738521Y-90418575D01*
X119785654Y-90573954D01*
X119883201Y-90756450D01*
X119907728Y-90786336D01*
X120014475Y-90916410D01*
X120090133Y-90978500D01*
X120174436Y-91047685D01*
X120356932Y-91145232D01*
X120554952Y-91205300D01*
X120554951Y-91205300D01*
X120573415Y-91207118D01*
X120760886Y-91225583D01*
X120966820Y-91205300D01*
X121164840Y-91145232D01*
X121347336Y-91047685D01*
X121507296Y-90916410D01*
X121614044Y-90786335D01*
X121671790Y-90747001D01*
X121709898Y-90741000D01*
X123931476Y-90741000D01*
X123998515Y-90760685D01*
X124030279Y-90790073D01*
X124051166Y-90817617D01*
X124056387Y-90824501D01*
X124149321Y-90894975D01*
X124174228Y-90913862D01*
X124311809Y-90968117D01*
X124369448Y-90975039D01*
X124398267Y-90978500D01*
X124398268Y-90978500D01*
X124957505Y-90978500D01*
X124979118Y-90975904D01*
X125043963Y-90968117D01*
X125181544Y-90913862D01*
X125299386Y-90824500D01*
X125388748Y-90706658D01*
X125443003Y-90569077D01*
X125453386Y-90482618D01*
X125453386Y-89898382D01*
X125443003Y-89811923D01*
X125388748Y-89674342D01*
X125388746Y-89674339D01*
X125299386Y-89556499D01*
X125181546Y-89467139D01*
X125181544Y-89467138D01*
X125043963Y-89412883D01*
X125043962Y-89412882D01*
X125043960Y-89412882D01*
X124957505Y-89402500D01*
X124957504Y-89402500D01*
X124398268Y-89402500D01*
X124398267Y-89402500D01*
X124311811Y-89412882D01*
X124311810Y-89412882D01*
X124174225Y-89467139D01*
X124056387Y-89556498D01*
X124030280Y-89590926D01*
X123974087Y-89632449D01*
X123931476Y-89640000D01*
X121742569Y-89640000D01*
X121675530Y-89620315D01*
X121642686Y-89588052D01*
X121642435Y-89588258D01*
X121640519Y-89585923D01*
X121639464Y-89584887D01*
X121638568Y-89583546D01*
X121507296Y-89423589D01*
X121347338Y-89292317D01*
X121347339Y-89292317D01*
X121347336Y-89292315D01*
X121164840Y-89194768D01*
X120966820Y-89134700D01*
X120966818Y-89134699D01*
X120966820Y-89134699D01*
X120760886Y-89114417D01*
X120554953Y-89134699D01*
X120356929Y-89194769D01*
X120258776Y-89247234D01*
X120174436Y-89292315D01*
X120174434Y-89292316D01*
X120174433Y-89292317D01*
X120014475Y-89423589D01*
X119883204Y-89583546D01*
X119883201Y-89583550D01*
X119876464Y-89596154D01*
X119785655Y-89766043D01*
X119725585Y-89964067D01*
X119705303Y-90170000D01*
X119311385Y-90170000D01*
X119311385Y-89375136D01*
X119310407Y-89366700D01*
X119308472Y-89350012D01*
X119308471Y-89350010D01*
X119308471Y-89350009D01*
X119263092Y-89247235D01*
X119183651Y-89167794D01*
X119183649Y-89167793D01*
X119080878Y-89122415D01*
X119055754Y-89119500D01*
X119055751Y-89119500D01*
X118938368Y-89119500D01*
X118871329Y-89099815D01*
X118825574Y-89047011D01*
X118815630Y-88977853D01*
X118844655Y-88914297D01*
X118876368Y-88888113D01*
X118882586Y-88884522D01*
X118931149Y-88856485D01*
X119763014Y-88024619D01*
X119824335Y-87991136D01*
X119894026Y-87996120D01*
X119946547Y-88033638D01*
X120014475Y-88116410D01*
X120086496Y-88175515D01*
X120174436Y-88247685D01*
X120356932Y-88345232D01*
X120554952Y-88405300D01*
X120554951Y-88405300D01*
X120573415Y-88407118D01*
X120760886Y-88425583D01*
X120966820Y-88405300D01*
X121164840Y-88345232D01*
X121347336Y-88247685D01*
X121507296Y-88116410D01*
X121638571Y-87956450D01*
X121736118Y-87773954D01*
X121796186Y-87575934D01*
X121816469Y-87370000D01*
X121796186Y-87164066D01*
X121736118Y-86966046D01*
X121638571Y-86783550D01*
X121507296Y-86623590D01*
X121456002Y-86581494D01*
X121356721Y-86500016D01*
X121317387Y-86442271D01*
X121311386Y-86404163D01*
X121311386Y-85243908D01*
X121331071Y-85176869D01*
X121360459Y-85145105D01*
X121454886Y-85073500D01*
X121544248Y-84955658D01*
X121598503Y-84818077D01*
X121608886Y-84731618D01*
X121608886Y-84172382D01*
X121603230Y-84125284D01*
X121614780Y-84056377D01*
X121661752Y-84004652D01*
X121726345Y-83986500D01*
X126416386Y-83986500D01*
X126483425Y-84006185D01*
X126529180Y-84058989D01*
X126540386Y-84110500D01*
X126540386Y-86072475D01*
X126577902Y-86212485D01*
X126647774Y-86333509D01*
X126650375Y-86338013D01*
X126650377Y-86338016D01*
X127388673Y-87076312D01*
X127422158Y-87137635D01*
X127424395Y-87176147D01*
X127405303Y-87369999D01*
X127425585Y-87575932D01*
X127425586Y-87575934D01*
X127485654Y-87773954D01*
X127583201Y-87956450D01*
X127583203Y-87956452D01*
X127714475Y-88116410D01*
X127786496Y-88175515D01*
X127874436Y-88247685D01*
X128056932Y-88345232D01*
X128254952Y-88405300D01*
X128254951Y-88405300D01*
X128273415Y-88407118D01*
X128460886Y-88425583D01*
X128666820Y-88405300D01*
X128864840Y-88345232D01*
X129047336Y-88247685D01*
X129207296Y-88116410D01*
X129338571Y-87956450D01*
X129436118Y-87773954D01*
X129496186Y-87575934D01*
X129516469Y-87370000D01*
X129496186Y-87164066D01*
X129436118Y-86966046D01*
X129338571Y-86783550D01*
X129264202Y-86692930D01*
X129207296Y-86623589D01*
X129084179Y-86522551D01*
X129047336Y-86492315D01*
X128864840Y-86394768D01*
X128666820Y-86334700D01*
X128666818Y-86334699D01*
X128666820Y-86334699D01*
X128479349Y-86316235D01*
X128460886Y-86314417D01*
X128460885Y-86314417D01*
X128267033Y-86333509D01*
X128198387Y-86320490D01*
X128167198Y-86297787D01*
X127677705Y-85808294D01*
X127644220Y-85746971D01*
X127641386Y-85720613D01*
X127641386Y-84110500D01*
X127661071Y-84043461D01*
X127713875Y-83997706D01*
X127765386Y-83986500D01*
X130018927Y-83986500D01*
X130085966Y-84006185D01*
X130131721Y-84058989D01*
X130142042Y-84125285D01*
X130136386Y-84172381D01*
X130136386Y-84731618D01*
X130146768Y-84818074D01*
X130146768Y-84818075D01*
X130146769Y-84818077D01*
X130195296Y-84941134D01*
X130201025Y-84955660D01*
X130290385Y-85073500D01*
X130361311Y-85127284D01*
X130402834Y-85183476D01*
X130410386Y-85226088D01*
X130410386Y-86404163D01*
X130390701Y-86471202D01*
X130365051Y-86500016D01*
X130214476Y-86623589D01*
X130083203Y-86783547D01*
X129985655Y-86966043D01*
X129925585Y-87164067D01*
X129905303Y-87370000D01*
X129925585Y-87575932D01*
X129925586Y-87575934D01*
X129985654Y-87773954D01*
X130083201Y-87956450D01*
X130083203Y-87956452D01*
X130214475Y-88116410D01*
X130286496Y-88175515D01*
X130374436Y-88247685D01*
X130556932Y-88345232D01*
X130754952Y-88405300D01*
X130754951Y-88405300D01*
X130773415Y-88407118D01*
X130960886Y-88425583D01*
X131166820Y-88405300D01*
X131364840Y-88345232D01*
X131547336Y-88247685D01*
X131707296Y-88116410D01*
X131838571Y-87956450D01*
X131936118Y-87773954D01*
X131996186Y-87575934D01*
X132016469Y-87370000D01*
X131996186Y-87164066D01*
X131936118Y-86966046D01*
X131838571Y-86783550D01*
X131707296Y-86623590D01*
X131656002Y-86581494D01*
X131556721Y-86500016D01*
X131517387Y-86442271D01*
X131511386Y-86404163D01*
X131511386Y-85170730D01*
X131531071Y-85103691D01*
X131552944Y-85080053D01*
X131552389Y-85079498D01*
X131558384Y-85073502D01*
X131558388Y-85073498D01*
X131647748Y-84955658D01*
X131702003Y-84818077D01*
X131712386Y-84731618D01*
X131712386Y-84172382D01*
X131706730Y-84125284D01*
X131718280Y-84056377D01*
X131765252Y-84004652D01*
X131829845Y-83986500D01*
X132427358Y-83986500D01*
X132427360Y-83986500D01*
X132427361Y-83986500D01*
X132567371Y-83948984D01*
X132588994Y-83936500D01*
X132692901Y-83876510D01*
X133508706Y-83060704D01*
X133570028Y-83027220D01*
X133639719Y-83032204D01*
G37*
%TD.AperFunction*%
%TA.AperFunction,Conductor*%
G36*
X89239684Y-82865185D02*
G01*
X89285439Y-82917989D01*
X89295383Y-82987147D01*
X89266358Y-83050703D01*
X89260326Y-83057181D01*
X87300377Y-85017129D01*
X87300373Y-85017134D01*
X87245724Y-85111791D01*
X87227904Y-85142656D01*
X87227902Y-85142659D01*
X87212329Y-85200781D01*
X87190386Y-85282671D01*
X87190386Y-85282673D01*
X87190386Y-85741613D01*
X87170701Y-85808652D01*
X87117897Y-85854407D01*
X87048739Y-85864351D01*
X86985183Y-85835326D01*
X86978705Y-85829294D01*
X84206592Y-83057181D01*
X84173107Y-82995858D01*
X84178091Y-82926166D01*
X84219963Y-82870233D01*
X84285427Y-82845816D01*
X84294273Y-82845500D01*
X89172645Y-82845500D01*
X89239684Y-82865185D01*
G37*
%TD.AperFunction*%
%TD*%
%TA.AperFunction,Conductor*%
%TO.N,GND2*%
G36*
X70645925Y-50689685D02*
G01*
X70691680Y-50742489D01*
X70702886Y-50794000D01*
X70702886Y-54607000D01*
X74388197Y-54607000D01*
X74455236Y-54626685D01*
X74500991Y-54679489D01*
X74510935Y-54748647D01*
X74481910Y-54812203D01*
X74475878Y-54818681D01*
X63750880Y-65543677D01*
X63689557Y-65577162D01*
X63619865Y-65572178D01*
X63615755Y-65570561D01*
X63613844Y-65569769D01*
X63421948Y-65511559D01*
X63415820Y-65509700D01*
X63415818Y-65509699D01*
X63415820Y-65509699D01*
X63209886Y-65489417D01*
X63003953Y-65509699D01*
X62805929Y-65569769D01*
X62714451Y-65618666D01*
X62623436Y-65667315D01*
X62623434Y-65667316D01*
X62623433Y-65667317D01*
X62463475Y-65798589D01*
X62332203Y-65958547D01*
X62234655Y-66141043D01*
X62174585Y-66339067D01*
X62154303Y-66545000D01*
X62174585Y-66750932D01*
X62192466Y-66809877D01*
X62234654Y-66948954D01*
X62332201Y-67131450D01*
X62332203Y-67131452D01*
X62463475Y-67291410D01*
X62557632Y-67368681D01*
X62623436Y-67422685D01*
X62805932Y-67520232D01*
X63003952Y-67580300D01*
X63003951Y-67580300D01*
X63022415Y-67582118D01*
X63209886Y-67600583D01*
X63415820Y-67580300D01*
X63613840Y-67520232D01*
X63796336Y-67422685D01*
X63956296Y-67291410D01*
X64047727Y-67180000D01*
X83959729Y-67180000D01*
X83978312Y-67368681D01*
X83985724Y-67393115D01*
X84033349Y-67550115D01*
X84033350Y-67550118D01*
X84033351Y-67550119D01*
X84033352Y-67550122D01*
X84122720Y-67717318D01*
X84122724Y-67717325D01*
X84243002Y-67863883D01*
X84389560Y-67984161D01*
X84389567Y-67984165D01*
X84556763Y-68073533D01*
X84556764Y-68073533D01*
X84556771Y-68073537D01*
X84738203Y-68128573D01*
X84738202Y-68128573D01*
X84755119Y-68130239D01*
X84926886Y-68147157D01*
X85115569Y-68128573D01*
X85297001Y-68073537D01*
X85464210Y-67984162D01*
X85610769Y-67863883D01*
X85731048Y-67717324D01*
X85820423Y-67550115D01*
X85875459Y-67368683D01*
X85894043Y-67180000D01*
X85875459Y-66991317D01*
X85820423Y-66809885D01*
X85788912Y-66750932D01*
X85731051Y-66642681D01*
X85731047Y-66642674D01*
X85610769Y-66496116D01*
X85464211Y-66375838D01*
X85464204Y-66375834D01*
X85297008Y-66286466D01*
X85297005Y-66286465D01*
X85297004Y-66286464D01*
X85297001Y-66286463D01*
X85115569Y-66231427D01*
X85115567Y-66231426D01*
X85115569Y-66231426D01*
X84926886Y-66212843D01*
X84738204Y-66231426D01*
X84635741Y-66262508D01*
X84556771Y-66286463D01*
X84556768Y-66286464D01*
X84556766Y-66286465D01*
X84556763Y-66286466D01*
X84389567Y-66375834D01*
X84389560Y-66375838D01*
X84243002Y-66496116D01*
X84122724Y-66642674D01*
X84122720Y-66642681D01*
X84033352Y-66809877D01*
X84033351Y-66809880D01*
X84033350Y-66809882D01*
X84033349Y-66809885D01*
X84012942Y-66877159D01*
X83978312Y-66991318D01*
X83959729Y-67180000D01*
X64047727Y-67180000D01*
X64087571Y-67131450D01*
X64185118Y-66948954D01*
X64245186Y-66750934D01*
X64265469Y-66545000D01*
X64245186Y-66339066D01*
X64185118Y-66141046D01*
X64185116Y-66141043D01*
X64185116Y-66141041D01*
X64184330Y-66139144D01*
X64184214Y-66138068D01*
X64183349Y-66135216D01*
X64183889Y-66135051D01*
X64176857Y-66069675D01*
X64208128Y-66007194D01*
X64211179Y-66004032D01*
X65575211Y-64640000D01*
X83959729Y-64640000D01*
X83978312Y-64828681D01*
X83978313Y-64828683D01*
X84033349Y-65010115D01*
X84033350Y-65010118D01*
X84033351Y-65010119D01*
X84033352Y-65010122D01*
X84122720Y-65177318D01*
X84122724Y-65177325D01*
X84243002Y-65323883D01*
X84389560Y-65444161D01*
X84389567Y-65444165D01*
X84556763Y-65533533D01*
X84556764Y-65533533D01*
X84556771Y-65533537D01*
X84738203Y-65588573D01*
X84738202Y-65588573D01*
X84755119Y-65590239D01*
X84926886Y-65607157D01*
X85115569Y-65588573D01*
X85297001Y-65533537D01*
X85464210Y-65444162D01*
X85610769Y-65323883D01*
X85731048Y-65177324D01*
X85820423Y-65010115D01*
X85875459Y-64828683D01*
X85894043Y-64640000D01*
X85875459Y-64451317D01*
X85820423Y-64269885D01*
X85802334Y-64236043D01*
X85731051Y-64102681D01*
X85731047Y-64102674D01*
X85610769Y-63956116D01*
X85464211Y-63835838D01*
X85464204Y-63835834D01*
X85297008Y-63746466D01*
X85297005Y-63746465D01*
X85297004Y-63746464D01*
X85297001Y-63746463D01*
X85115569Y-63691427D01*
X85115567Y-63691426D01*
X85115569Y-63691426D01*
X84926886Y-63672843D01*
X84738204Y-63691426D01*
X84654515Y-63716813D01*
X84556771Y-63746463D01*
X84556768Y-63746464D01*
X84556766Y-63746465D01*
X84556763Y-63746466D01*
X84389567Y-63835834D01*
X84389560Y-63835838D01*
X84243002Y-63956116D01*
X84122724Y-64102674D01*
X84122720Y-64102681D01*
X84033352Y-64269877D01*
X84033351Y-64269880D01*
X83978312Y-64451318D01*
X83959729Y-64640000D01*
X65575211Y-64640000D01*
X68115212Y-62100000D01*
X83959729Y-62100000D01*
X83978312Y-62288681D01*
X83978313Y-62288683D01*
X84033349Y-62470115D01*
X84033350Y-62470118D01*
X84033351Y-62470119D01*
X84033352Y-62470122D01*
X84122720Y-62637318D01*
X84122724Y-62637325D01*
X84243002Y-62783883D01*
X84389560Y-62904161D01*
X84389567Y-62904165D01*
X84556763Y-62993533D01*
X84556764Y-62993533D01*
X84556771Y-62993537D01*
X84738203Y-63048573D01*
X84738202Y-63048573D01*
X84755119Y-63050239D01*
X84926886Y-63067157D01*
X85115569Y-63048573D01*
X85297001Y-62993537D01*
X85464210Y-62904162D01*
X85610769Y-62783883D01*
X85731048Y-62637324D01*
X85820423Y-62470115D01*
X85875459Y-62288683D01*
X85894043Y-62100000D01*
X85875459Y-61911317D01*
X85820423Y-61729885D01*
X85800744Y-61693068D01*
X85731051Y-61562681D01*
X85731047Y-61562674D01*
X85610769Y-61416116D01*
X85464211Y-61295838D01*
X85464204Y-61295834D01*
X85297008Y-61206466D01*
X85297005Y-61206465D01*
X85297004Y-61206464D01*
X85297001Y-61206463D01*
X85115569Y-61151427D01*
X85115567Y-61151426D01*
X85115569Y-61151426D01*
X84926886Y-61132843D01*
X84738204Y-61151426D01*
X84631080Y-61183921D01*
X84556771Y-61206463D01*
X84556768Y-61206464D01*
X84556766Y-61206465D01*
X84556763Y-61206466D01*
X84389567Y-61295834D01*
X84389560Y-61295838D01*
X84243002Y-61416116D01*
X84122724Y-61562674D01*
X84122720Y-61562681D01*
X84033352Y-61729877D01*
X84033351Y-61729880D01*
X83978312Y-61911318D01*
X83959729Y-62100000D01*
X68115212Y-62100000D01*
X74865394Y-55349819D01*
X74926717Y-55316334D01*
X74953075Y-55313500D01*
X108705486Y-55313500D01*
X108705488Y-55313500D01*
X108788274Y-55291318D01*
X108862497Y-55248465D01*
X111577502Y-52533457D01*
X111638823Y-52499974D01*
X111708514Y-52504958D01*
X111764448Y-52546830D01*
X111788584Y-52608983D01*
X111791312Y-52636681D01*
X111791313Y-52636683D01*
X111846349Y-52818115D01*
X111846350Y-52818118D01*
X111846351Y-52818119D01*
X111846352Y-52818122D01*
X111935720Y-52985318D01*
X111935724Y-52985325D01*
X112056002Y-53131883D01*
X112202560Y-53252161D01*
X112202567Y-53252165D01*
X112369763Y-53341533D01*
X112369764Y-53341533D01*
X112369771Y-53341537D01*
X112551203Y-53396573D01*
X112551202Y-53396573D01*
X112568119Y-53398239D01*
X112739886Y-53415157D01*
X112928569Y-53396573D01*
X112951654Y-53389569D01*
X113021521Y-53388945D01*
X113075332Y-53420549D01*
X113523067Y-53868284D01*
X113556552Y-53929607D01*
X113559386Y-53955965D01*
X113559386Y-58385500D01*
X113539701Y-58452539D01*
X113486897Y-58498294D01*
X113435386Y-58509500D01*
X113140133Y-58509500D01*
X113081656Y-58521131D01*
X113081655Y-58521132D01*
X113015333Y-58565447D01*
X112971018Y-58631769D01*
X112971017Y-58631770D01*
X112959386Y-58690247D01*
X112959386Y-60429752D01*
X112971017Y-60488229D01*
X112971018Y-60488230D01*
X113015333Y-60554552D01*
X113081655Y-60598867D01*
X113081656Y-60598868D01*
X113140133Y-60610499D01*
X113140136Y-60610500D01*
X114739697Y-60610500D01*
X114806736Y-60630185D01*
X114852491Y-60682989D01*
X114862435Y-60752147D01*
X114833410Y-60815703D01*
X114827396Y-60822161D01*
X114605141Y-61044417D01*
X114550880Y-61098678D01*
X114489557Y-61132162D01*
X114419865Y-61127178D01*
X114415755Y-61125561D01*
X114413844Y-61124769D01*
X114314830Y-61094734D01*
X114215820Y-61064700D01*
X114215818Y-61064699D01*
X114215820Y-61064699D01*
X114009886Y-61044417D01*
X113803953Y-61064699D01*
X113605929Y-61124769D01*
X113545825Y-61156896D01*
X113423436Y-61222315D01*
X113423434Y-61222316D01*
X113423433Y-61222317D01*
X113263475Y-61353589D01*
X113132203Y-61513547D01*
X113132201Y-61513550D01*
X113105940Y-61562681D01*
X113034655Y-61696043D01*
X112974585Y-61894067D01*
X112954303Y-62100000D01*
X112974585Y-62305932D01*
X112991128Y-62360467D01*
X113034654Y-62503954D01*
X113132201Y-62686450D01*
X113147984Y-62705682D01*
X113263475Y-62846410D01*
X113316771Y-62890148D01*
X113423436Y-62977685D01*
X113605932Y-63075232D01*
X113803952Y-63135300D01*
X113803951Y-63135300D01*
X113822415Y-63137118D01*
X114009886Y-63155583D01*
X114215820Y-63135300D01*
X114413840Y-63075232D01*
X114596336Y-62977685D01*
X114756296Y-62846410D01*
X114887571Y-62686450D01*
X114985118Y-62503954D01*
X115045186Y-62305934D01*
X115065469Y-62100000D01*
X115045186Y-61894066D01*
X114985118Y-61696046D01*
X114985116Y-61696043D01*
X114985116Y-61696041D01*
X114984330Y-61694144D01*
X114984214Y-61693068D01*
X114983349Y-61690216D01*
X114983889Y-61690051D01*
X114976857Y-61624675D01*
X115008128Y-61562194D01*
X115011182Y-61559029D01*
X115564538Y-61005672D01*
X115564543Y-61005669D01*
X115574746Y-60995465D01*
X115574748Y-60995465D01*
X115635351Y-60934862D01*
X115678204Y-60860638D01*
X115681895Y-60846862D01*
X115700387Y-60777852D01*
X115700387Y-60692147D01*
X115700387Y-60684552D01*
X115700386Y-60684534D01*
X115700386Y-57779000D01*
X115720071Y-57711961D01*
X115772875Y-57666206D01*
X115824386Y-57655000D01*
X117751386Y-57655000D01*
X117818425Y-57674685D01*
X117864180Y-57727489D01*
X117875386Y-57779000D01*
X117875386Y-60960000D01*
X117855701Y-61027039D01*
X117802897Y-61072794D01*
X117751386Y-61084000D01*
X116837838Y-61084000D01*
X116801844Y-61078661D01*
X116755820Y-61064700D01*
X116755818Y-61064699D01*
X116755820Y-61064699D01*
X116549886Y-61044417D01*
X116343953Y-61064699D01*
X116145929Y-61124769D01*
X116085825Y-61156896D01*
X115963436Y-61222315D01*
X115963434Y-61222316D01*
X115963433Y-61222317D01*
X115803475Y-61353589D01*
X115672203Y-61513547D01*
X115672201Y-61513550D01*
X115645940Y-61562681D01*
X115574655Y-61696043D01*
X115514585Y-61894067D01*
X115494303Y-62100000D01*
X115514585Y-62305932D01*
X115531128Y-62360467D01*
X115574654Y-62503954D01*
X115672201Y-62686450D01*
X115687984Y-62705682D01*
X115803475Y-62846410D01*
X115910844Y-62934524D01*
X115950179Y-62992270D01*
X115952050Y-63062114D01*
X115915863Y-63121883D01*
X115864275Y-63150152D01*
X115821248Y-63161681D01*
X115821247Y-63161681D01*
X115747024Y-63204535D01*
X115747021Y-63204537D01*
X114989017Y-63962540D01*
X114927694Y-63996025D01*
X114858002Y-63991041D01*
X114805483Y-63953524D01*
X114756296Y-63893590D01*
X114696361Y-63844403D01*
X114596336Y-63762315D01*
X114413840Y-63664768D01*
X114215820Y-63604700D01*
X114215818Y-63604699D01*
X114215820Y-63604699D01*
X114009886Y-63584417D01*
X113803953Y-63604699D01*
X113695316Y-63637653D01*
X113605932Y-63664768D01*
X113605929Y-63664769D01*
X113605924Y-63664771D01*
X113604012Y-63665563D01*
X113602931Y-63665679D01*
X113600103Y-63666537D01*
X113599940Y-63666000D01*
X113534542Y-63673024D01*
X113472066Y-63641743D01*
X113468890Y-63638678D01*
X110216750Y-60386537D01*
X110216749Y-60386536D01*
X110216748Y-60386535D01*
X110166526Y-60357539D01*
X110142526Y-60343682D01*
X110101132Y-60332591D01*
X110059739Y-60321500D01*
X110059738Y-60321500D01*
X93937248Y-60321500D01*
X93870209Y-60301815D01*
X93824454Y-60249011D01*
X93814510Y-60179853D01*
X93841394Y-60118836D01*
X93848075Y-60110693D01*
X93859048Y-60097324D01*
X93948423Y-59930115D01*
X94003459Y-59748683D01*
X94022043Y-59560000D01*
X94003459Y-59371317D01*
X93948423Y-59189885D01*
X93923690Y-59143613D01*
X93859051Y-59022681D01*
X93859047Y-59022674D01*
X93738769Y-58876116D01*
X93592211Y-58755838D01*
X93592204Y-58755834D01*
X93425008Y-58666466D01*
X93425005Y-58666465D01*
X93425004Y-58666464D01*
X93425001Y-58666463D01*
X93243569Y-58611427D01*
X93243567Y-58611426D01*
X93243569Y-58611426D01*
X93054886Y-58592843D01*
X92866204Y-58611426D01*
X92759080Y-58643921D01*
X92684771Y-58666463D01*
X92684768Y-58666464D01*
X92684766Y-58666465D01*
X92684763Y-58666466D01*
X92517567Y-58755834D01*
X92517560Y-58755838D01*
X92371002Y-58876116D01*
X92250724Y-59022674D01*
X92250720Y-59022681D01*
X92161349Y-59189882D01*
X92122349Y-59318444D01*
X92111081Y-59344439D01*
X92101688Y-59360710D01*
X92101685Y-59360718D01*
X92070987Y-59475289D01*
X92070987Y-59593912D01*
X92100109Y-59702602D01*
X92103737Y-59722536D01*
X92106312Y-59748681D01*
X92124658Y-59809160D01*
X92161349Y-59930115D01*
X92161350Y-59930118D01*
X92161351Y-59930119D01*
X92161352Y-59930122D01*
X92250720Y-60097318D01*
X92250724Y-60097324D01*
X92268378Y-60118836D01*
X92295690Y-60183146D01*
X92283899Y-60252013D01*
X92236746Y-60303573D01*
X92172524Y-60321500D01*
X91925033Y-60321500D01*
X91842248Y-60343682D01*
X91842245Y-60343683D01*
X91780209Y-60379500D01*
X91780207Y-60379501D01*
X91768027Y-60386532D01*
X91768022Y-60386536D01*
X90985964Y-61168593D01*
X90924641Y-61202078D01*
X90862288Y-61199573D01*
X90788288Y-61177125D01*
X90703569Y-61151427D01*
X90703567Y-61151426D01*
X90703569Y-61151426D01*
X90514886Y-61132843D01*
X90326204Y-61151426D01*
X90219080Y-61183921D01*
X90144771Y-61206463D01*
X90144768Y-61206464D01*
X90144766Y-61206465D01*
X90144763Y-61206466D01*
X89977567Y-61295834D01*
X89977560Y-61295838D01*
X89831002Y-61416116D01*
X89710724Y-61562674D01*
X89710720Y-61562681D01*
X89621352Y-61729877D01*
X89621351Y-61729880D01*
X89566312Y-61911318D01*
X89547729Y-62100000D01*
X89566312Y-62288681D01*
X89566313Y-62288683D01*
X89621349Y-62470115D01*
X89621350Y-62470118D01*
X89621351Y-62470119D01*
X89621352Y-62470122D01*
X89710720Y-62637318D01*
X89710724Y-62637325D01*
X89831002Y-62783883D01*
X89977560Y-62904161D01*
X89977567Y-62904165D01*
X90144763Y-62993533D01*
X90144764Y-62993533D01*
X90144771Y-62993537D01*
X90326203Y-63048573D01*
X90326202Y-63048573D01*
X90343119Y-63050239D01*
X90514886Y-63067157D01*
X90703569Y-63048573D01*
X90885001Y-62993537D01*
X91052210Y-62904162D01*
X91069286Y-62890147D01*
X91133595Y-62862834D01*
X91147952Y-62862000D01*
X92421820Y-62862000D01*
X92488859Y-62881685D01*
X92500478Y-62890142D01*
X92517562Y-62904162D01*
X92517563Y-62904162D01*
X92517565Y-62904164D01*
X92517567Y-62904165D01*
X92684763Y-62993533D01*
X92684764Y-62993533D01*
X92684771Y-62993537D01*
X92866203Y-63048573D01*
X92866202Y-63048573D01*
X92883119Y-63050239D01*
X93054886Y-63067157D01*
X93243569Y-63048573D01*
X93425001Y-62993537D01*
X93592210Y-62904162D01*
X93738769Y-62783883D01*
X93859048Y-62637324D01*
X93948423Y-62470115D01*
X94003459Y-62288683D01*
X94022043Y-62100000D01*
X94022043Y-62099998D01*
X99053204Y-62099998D01*
X99053204Y-62100001D01*
X99073841Y-62256760D01*
X99073842Y-62256762D01*
X99130368Y-62393229D01*
X99134350Y-62402841D01*
X99230604Y-62528282D01*
X99356045Y-62624536D01*
X99502124Y-62685044D01*
X99530434Y-62688771D01*
X99658885Y-62705682D01*
X99658885Y-62705681D01*
X99658886Y-62705682D01*
X99726703Y-62696753D01*
X99795738Y-62707518D01*
X99830570Y-62732011D01*
X104539024Y-67440465D01*
X104613247Y-67483318D01*
X104696033Y-67505500D01*
X108742587Y-67505500D01*
X108809626Y-67525185D01*
X108840963Y-67554014D01*
X108876695Y-67600582D01*
X108882604Y-67608282D01*
X109008045Y-67704536D01*
X109154124Y-67765044D01*
X109232505Y-67775363D01*
X109310885Y-67785682D01*
X109310886Y-67785682D01*
X109310887Y-67785682D01*
X109363140Y-67778802D01*
X109467648Y-67765044D01*
X109613727Y-67704536D01*
X109739168Y-67608282D01*
X109835422Y-67482841D01*
X109895930Y-67336762D01*
X109916568Y-67180000D01*
X109895930Y-67023238D01*
X109835422Y-66877159D01*
X109739168Y-66751718D01*
X109613727Y-66655464D01*
X109582849Y-66642674D01*
X109467648Y-66594956D01*
X109467646Y-66594955D01*
X109310887Y-66574318D01*
X109310885Y-66574318D01*
X109154125Y-66594955D01*
X109154123Y-66594956D01*
X109008046Y-66655463D01*
X108882602Y-66751719D01*
X108840963Y-66805986D01*
X108784535Y-66847189D01*
X108742587Y-66854500D01*
X104925075Y-66854500D01*
X104858036Y-66834815D01*
X104837394Y-66818181D01*
X100290897Y-62271684D01*
X100257412Y-62210361D01*
X100255639Y-62167816D01*
X100264568Y-62099999D01*
X100264568Y-62099998D01*
X100243930Y-61943239D01*
X100243930Y-61943238D01*
X100183422Y-61797159D01*
X100087168Y-61671718D01*
X99961727Y-61575464D01*
X99930849Y-61562674D01*
X99815648Y-61514956D01*
X99815646Y-61514955D01*
X99658887Y-61494318D01*
X99658885Y-61494318D01*
X99502125Y-61514955D01*
X99502123Y-61514956D01*
X99356046Y-61575463D01*
X99230604Y-61671718D01*
X99134349Y-61797160D01*
X99073842Y-61943237D01*
X99073841Y-61943239D01*
X99053204Y-62099998D01*
X94022043Y-62099998D01*
X94003459Y-61911317D01*
X93948423Y-61729885D01*
X93928744Y-61693068D01*
X93859051Y-61562681D01*
X93859047Y-61562674D01*
X93738769Y-61416116D01*
X93592211Y-61295838D01*
X93592204Y-61295834D01*
X93423870Y-61205858D01*
X93374026Y-61156896D01*
X93358565Y-61088758D01*
X93382396Y-61023079D01*
X93437954Y-60980710D01*
X93482323Y-60972500D01*
X109830697Y-60972500D01*
X109897736Y-60992185D01*
X109918378Y-61008819D01*
X113008564Y-64099004D01*
X113042049Y-64160327D01*
X113037065Y-64230019D01*
X113035449Y-64234126D01*
X113034657Y-64236038D01*
X113034655Y-64236043D01*
X113034654Y-64236046D01*
X113007870Y-64324343D01*
X112974585Y-64434067D01*
X112954303Y-64640000D01*
X112974585Y-64845932D01*
X112974586Y-64845934D01*
X113034654Y-65043954D01*
X113132201Y-65226450D01*
X113132203Y-65226452D01*
X113263475Y-65386410D01*
X113282041Y-65401646D01*
X113321376Y-65459392D01*
X113323247Y-65529236D01*
X113287060Y-65589005D01*
X113224305Y-65619721D01*
X113203377Y-65621500D01*
X112626351Y-65621500D01*
X112626335Y-65621499D01*
X112618739Y-65621499D01*
X112533034Y-65621499D01*
X112491641Y-65632590D01*
X112450246Y-65643682D01*
X112450241Y-65643685D01*
X112376030Y-65686530D01*
X112376022Y-65686536D01*
X109974378Y-68088181D01*
X109913055Y-68121666D01*
X109886697Y-68124500D01*
X93767764Y-68124500D01*
X93700725Y-68104815D01*
X93654970Y-68052011D01*
X93645026Y-67982853D01*
X93674051Y-67919297D01*
X93689099Y-67904647D01*
X93738769Y-67863883D01*
X93859048Y-67717324D01*
X93948423Y-67550115D01*
X94003459Y-67368683D01*
X94022043Y-67180000D01*
X94003459Y-66991317D01*
X93948423Y-66809885D01*
X93916912Y-66750932D01*
X93859051Y-66642681D01*
X93859047Y-66642674D01*
X93738769Y-66496116D01*
X93592211Y-66375838D01*
X93592204Y-66375834D01*
X93425008Y-66286466D01*
X93425005Y-66286465D01*
X93425004Y-66286464D01*
X93425001Y-66286463D01*
X93243569Y-66231427D01*
X93243567Y-66231426D01*
X93243569Y-66231426D01*
X93054886Y-66212843D01*
X92866204Y-66231426D01*
X92763741Y-66262508D01*
X92684771Y-66286463D01*
X92684768Y-66286464D01*
X92684766Y-66286465D01*
X92684763Y-66286466D01*
X92517567Y-66375834D01*
X92517560Y-66375838D01*
X92371002Y-66496116D01*
X92250726Y-66642672D01*
X92250724Y-66642676D01*
X92239350Y-66663954D01*
X92190389Y-66713797D01*
X92129993Y-66729500D01*
X91439779Y-66729500D01*
X91372740Y-66709815D01*
X91330421Y-66663954D01*
X91319048Y-66642676D01*
X91319045Y-66642672D01*
X91319044Y-66642670D01*
X91305031Y-66625595D01*
X91277719Y-66561285D01*
X91276886Y-66546933D01*
X91276886Y-65273066D01*
X91296571Y-65206027D01*
X91305028Y-65194407D01*
X91319048Y-65177324D01*
X91408423Y-65010115D01*
X91463459Y-64828683D01*
X91482043Y-64640000D01*
X92087729Y-64640000D01*
X92106312Y-64828681D01*
X92106313Y-64828683D01*
X92161349Y-65010115D01*
X92161350Y-65010118D01*
X92161351Y-65010119D01*
X92161352Y-65010122D01*
X92250720Y-65177318D01*
X92250724Y-65177325D01*
X92371002Y-65323883D01*
X92517560Y-65444161D01*
X92517567Y-65444165D01*
X92684763Y-65533533D01*
X92684764Y-65533533D01*
X92684771Y-65533537D01*
X92866203Y-65588573D01*
X92866202Y-65588573D01*
X92883119Y-65590239D01*
X93054886Y-65607157D01*
X93243569Y-65588573D01*
X93425001Y-65533537D01*
X93592210Y-65444162D01*
X93738769Y-65323883D01*
X93859048Y-65177324D01*
X93948423Y-65010115D01*
X94003459Y-64828683D01*
X94022043Y-64640000D01*
X94003459Y-64451317D01*
X93948423Y-64269885D01*
X93930334Y-64236043D01*
X93859051Y-64102681D01*
X93859047Y-64102674D01*
X93738769Y-63956116D01*
X93592211Y-63835838D01*
X93592204Y-63835834D01*
X93425008Y-63746466D01*
X93425005Y-63746465D01*
X93425004Y-63746464D01*
X93425001Y-63746463D01*
X93243569Y-63691427D01*
X93243567Y-63691426D01*
X93243569Y-63691426D01*
X93054886Y-63672843D01*
X92866204Y-63691426D01*
X92782515Y-63716813D01*
X92684771Y-63746463D01*
X92684768Y-63746464D01*
X92684766Y-63746465D01*
X92684763Y-63746466D01*
X92517567Y-63835834D01*
X92517560Y-63835838D01*
X92371002Y-63956116D01*
X92250724Y-64102674D01*
X92250720Y-64102681D01*
X92161352Y-64269877D01*
X92161351Y-64269880D01*
X92106312Y-64451318D01*
X92087729Y-64640000D01*
X91482043Y-64640000D01*
X91463459Y-64451317D01*
X91408423Y-64269885D01*
X91390334Y-64236043D01*
X91319051Y-64102681D01*
X91319047Y-64102674D01*
X91198769Y-63956116D01*
X91052211Y-63835838D01*
X91052204Y-63835834D01*
X90885008Y-63746466D01*
X90885005Y-63746465D01*
X90885004Y-63746464D01*
X90885001Y-63746463D01*
X90703569Y-63691427D01*
X90703567Y-63691426D01*
X90703569Y-63691426D01*
X90514886Y-63672843D01*
X90326204Y-63691426D01*
X90242515Y-63716813D01*
X90144771Y-63746463D01*
X90144768Y-63746464D01*
X90144766Y-63746465D01*
X90144763Y-63746466D01*
X89977567Y-63835834D01*
X89977565Y-63835835D01*
X89970491Y-63841640D01*
X89960485Y-63849852D01*
X89896177Y-63877166D01*
X89881820Y-63878000D01*
X89311386Y-63878000D01*
X89244347Y-63858315D01*
X89198592Y-63805511D01*
X89187386Y-63754000D01*
X89187386Y-60770693D01*
X89187386Y-60770691D01*
X89156685Y-60656114D01*
X89156685Y-60656113D01*
X89097375Y-60553386D01*
X88439435Y-59895446D01*
X88405950Y-59834123D01*
X88408456Y-59771768D01*
X88415459Y-59748682D01*
X88419418Y-59708487D01*
X88434043Y-59560000D01*
X88415459Y-59371317D01*
X88360423Y-59189885D01*
X88335690Y-59143613D01*
X88271051Y-59022681D01*
X88271047Y-59022674D01*
X88150769Y-58876116D01*
X88004211Y-58755838D01*
X88004204Y-58755834D01*
X87837008Y-58666466D01*
X87837005Y-58666465D01*
X87837004Y-58666464D01*
X87837001Y-58666463D01*
X87655569Y-58611427D01*
X87655567Y-58611426D01*
X87655569Y-58611426D01*
X87466886Y-58592843D01*
X87278204Y-58611426D01*
X87171080Y-58643921D01*
X87096771Y-58666463D01*
X87096768Y-58666464D01*
X87096766Y-58666465D01*
X87096763Y-58666466D01*
X86929567Y-58755834D01*
X86929560Y-58755838D01*
X86783002Y-58876116D01*
X86662726Y-59022672D01*
X86662724Y-59022676D01*
X86651350Y-59043954D01*
X86602389Y-59093797D01*
X86541993Y-59109500D01*
X85851779Y-59109500D01*
X85784740Y-59089815D01*
X85742421Y-59043954D01*
X85731048Y-59022676D01*
X85731045Y-59022672D01*
X85610769Y-58876116D01*
X85464211Y-58755838D01*
X85464204Y-58755834D01*
X85297008Y-58666466D01*
X85297005Y-58666465D01*
X85297004Y-58666464D01*
X85297001Y-58666463D01*
X85115569Y-58611427D01*
X85115567Y-58611426D01*
X85115569Y-58611426D01*
X84926886Y-58592843D01*
X84738204Y-58611426D01*
X84631080Y-58643921D01*
X84556771Y-58666463D01*
X84556768Y-58666464D01*
X84556766Y-58666465D01*
X84556763Y-58666466D01*
X84389567Y-58755834D01*
X84389560Y-58755838D01*
X84243002Y-58876116D01*
X84122724Y-59022674D01*
X84122720Y-59022681D01*
X84033352Y-59189877D01*
X84033351Y-59189880D01*
X83978312Y-59371318D01*
X83959729Y-59560000D01*
X83978312Y-59748681D01*
X83996658Y-59809160D01*
X84033349Y-59930115D01*
X84033350Y-59930118D01*
X84033351Y-59930119D01*
X84033352Y-59930122D01*
X84122720Y-60097318D01*
X84122724Y-60097325D01*
X84243002Y-60243883D01*
X84389560Y-60364161D01*
X84389567Y-60364165D01*
X84556763Y-60453533D01*
X84556764Y-60453533D01*
X84556771Y-60453537D01*
X84738203Y-60508573D01*
X84738202Y-60508573D01*
X84755119Y-60510239D01*
X84926886Y-60527157D01*
X85115569Y-60508573D01*
X85297001Y-60453537D01*
X85464210Y-60364162D01*
X85610769Y-60243883D01*
X85731048Y-60097324D01*
X85742421Y-60076045D01*
X85791383Y-60026203D01*
X85851779Y-60010500D01*
X86541993Y-60010500D01*
X86609032Y-60030185D01*
X86651350Y-60076045D01*
X86662724Y-60097324D01*
X86676738Y-60114400D01*
X86704052Y-60178709D01*
X86704886Y-60193066D01*
X86704886Y-61466933D01*
X86685201Y-61533972D01*
X86676741Y-61545595D01*
X86662727Y-61562670D01*
X86662719Y-61562682D01*
X86573352Y-61729877D01*
X86573351Y-61729880D01*
X86518312Y-61911318D01*
X86499729Y-62100000D01*
X86518312Y-62288681D01*
X86518313Y-62288683D01*
X86573349Y-62470115D01*
X86573350Y-62470118D01*
X86573351Y-62470119D01*
X86573352Y-62470122D01*
X86662720Y-62637318D01*
X86662721Y-62637320D01*
X86662723Y-62637323D01*
X86662724Y-62637324D01*
X86676738Y-62654400D01*
X86704052Y-62718709D01*
X86704886Y-62733066D01*
X86704886Y-64006933D01*
X86685201Y-64073972D01*
X86676741Y-64085595D01*
X86662727Y-64102670D01*
X86662719Y-64102682D01*
X86573352Y-64269877D01*
X86573351Y-64269880D01*
X86518312Y-64451318D01*
X86499729Y-64640000D01*
X86518312Y-64828681D01*
X86518313Y-64828683D01*
X86573349Y-65010115D01*
X86573350Y-65010118D01*
X86573351Y-65010119D01*
X86573352Y-65010122D01*
X86662720Y-65177318D01*
X86662724Y-65177325D01*
X86783002Y-65323883D01*
X86929560Y-65444161D01*
X86929567Y-65444165D01*
X87096763Y-65533533D01*
X87096764Y-65533533D01*
X87096771Y-65533537D01*
X87278203Y-65588573D01*
X87278202Y-65588573D01*
X87295119Y-65590239D01*
X87466886Y-65607157D01*
X87655569Y-65588573D01*
X87814290Y-65540425D01*
X87884156Y-65539803D01*
X87937965Y-65571406D01*
X88629067Y-66262508D01*
X88662552Y-66323831D01*
X88665386Y-66350189D01*
X88665386Y-67236103D01*
X88687568Y-67318891D01*
X88697885Y-67336760D01*
X88730421Y-67393113D01*
X89987169Y-68649861D01*
X89987170Y-68649862D01*
X90047773Y-68710465D01*
X90047775Y-68710466D01*
X90047779Y-68710469D01*
X90121990Y-68753314D01*
X90121997Y-68753318D01*
X90204782Y-68775500D01*
X90204784Y-68775500D01*
X110115737Y-68775500D01*
X110115739Y-68775500D01*
X110198525Y-68753318D01*
X110272748Y-68710465D01*
X110750894Y-68232319D01*
X110812217Y-68198834D01*
X110838575Y-68196000D01*
X113721934Y-68196000D01*
X113757927Y-68201338D01*
X113803952Y-68215300D01*
X113803951Y-68215300D01*
X113822415Y-68217118D01*
X114009886Y-68235583D01*
X114215820Y-68215300D01*
X114413840Y-68155232D01*
X114596336Y-68057685D01*
X114756296Y-67926410D01*
X114887571Y-67766450D01*
X114985118Y-67583954D01*
X115045186Y-67385934D01*
X115065469Y-67180000D01*
X115494303Y-67180000D01*
X115514585Y-67385932D01*
X115543981Y-67482839D01*
X115574654Y-67583954D01*
X115672201Y-67766450D01*
X115672203Y-67766452D01*
X115803475Y-67926410D01*
X115872252Y-67982853D01*
X115963436Y-68057685D01*
X116145932Y-68155232D01*
X116343952Y-68215300D01*
X116343951Y-68215300D01*
X116362415Y-68217118D01*
X116549886Y-68235583D01*
X116755820Y-68215300D01*
X116953840Y-68155232D01*
X117136336Y-68057685D01*
X117296296Y-67926410D01*
X117427571Y-67766450D01*
X117525118Y-67583954D01*
X117585186Y-67385934D01*
X117605469Y-67180000D01*
X117585186Y-66974066D01*
X117525118Y-66776046D01*
X117427571Y-66593550D01*
X117366455Y-66519079D01*
X117296296Y-66433589D01*
X117162553Y-66323831D01*
X117136336Y-66302315D01*
X116953840Y-66204768D01*
X116755820Y-66144700D01*
X116755818Y-66144699D01*
X116755820Y-66144699D01*
X116549886Y-66124417D01*
X116343953Y-66144699D01*
X116145929Y-66204769D01*
X116037909Y-66262508D01*
X115963436Y-66302315D01*
X115963434Y-66302316D01*
X115963433Y-66302317D01*
X115803475Y-66433589D01*
X115672203Y-66593547D01*
X115672201Y-66593550D01*
X115645940Y-66642681D01*
X115574655Y-66776043D01*
X115514585Y-66974067D01*
X115494303Y-67180000D01*
X115065469Y-67180000D01*
X115045186Y-66974066D01*
X114985118Y-66776046D01*
X114887571Y-66593550D01*
X114807610Y-66496117D01*
X114790415Y-66475164D01*
X114763103Y-66410854D01*
X114774894Y-66341987D01*
X114822047Y-66290427D01*
X114886269Y-66272500D01*
X115285737Y-66272500D01*
X115285739Y-66272500D01*
X115368525Y-66250318D01*
X115442748Y-66207465D01*
X116008892Y-65641319D01*
X116070213Y-65607836D01*
X116139904Y-65612820D01*
X116144030Y-65614444D01*
X116145927Y-65615230D01*
X116145929Y-65615230D01*
X116145932Y-65615232D01*
X116343952Y-65675300D01*
X116343951Y-65675300D01*
X116362415Y-65677118D01*
X116549886Y-65695583D01*
X116755820Y-65675300D01*
X116953840Y-65615232D01*
X117136336Y-65517685D01*
X117296296Y-65386410D01*
X117427571Y-65226450D01*
X117525118Y-65043954D01*
X117585186Y-64845934D01*
X117605469Y-64640000D01*
X117585186Y-64434066D01*
X117525118Y-64236046D01*
X117427571Y-64053550D01*
X117375588Y-63990209D01*
X117296296Y-63893589D01*
X117236361Y-63844403D01*
X117197026Y-63786657D01*
X117195155Y-63716813D01*
X117227342Y-63660870D01*
X118461351Y-62426862D01*
X118499685Y-62360465D01*
X118504204Y-62352638D01*
X118526386Y-62269853D01*
X118526386Y-57080298D01*
X118546071Y-57013259D01*
X118574896Y-56981925D01*
X118629168Y-56940282D01*
X118725422Y-56814841D01*
X118785930Y-56668762D01*
X118806568Y-56512000D01*
X118785930Y-56355238D01*
X118725422Y-56209159D01*
X118629168Y-56083718D01*
X118503727Y-55987464D01*
X118439334Y-55960791D01*
X118384932Y-55916951D01*
X118362867Y-55850657D01*
X118380146Y-55782957D01*
X118408123Y-55750378D01*
X118503769Y-55671883D01*
X118624047Y-55525325D01*
X118624051Y-55525318D01*
X118713423Y-55358115D01*
X118768459Y-55176683D01*
X118787043Y-54988000D01*
X118768459Y-54799317D01*
X118713423Y-54617885D01*
X118639722Y-54480000D01*
X118624051Y-54450681D01*
X118624047Y-54450674D01*
X118503769Y-54304116D01*
X118357211Y-54183838D01*
X118357204Y-54183834D01*
X118190008Y-54094466D01*
X118190005Y-54094465D01*
X118190004Y-54094464D01*
X118190001Y-54094463D01*
X118008569Y-54039427D01*
X118008567Y-54039426D01*
X118008569Y-54039426D01*
X117819886Y-54020843D01*
X117631204Y-54039426D01*
X117524080Y-54071921D01*
X117449771Y-54094463D01*
X117449768Y-54094464D01*
X117449766Y-54094465D01*
X117449763Y-54094466D01*
X117282567Y-54183834D01*
X117282560Y-54183838D01*
X117136002Y-54304116D01*
X117028864Y-54434665D01*
X116971118Y-54473999D01*
X116933011Y-54480000D01*
X116166761Y-54480000D01*
X116099722Y-54460315D01*
X116070908Y-54434665D01*
X115963769Y-54304116D01*
X115817211Y-54183838D01*
X115817204Y-54183834D01*
X115726433Y-54135316D01*
X115676589Y-54086354D01*
X115660886Y-54025958D01*
X115660886Y-53410041D01*
X115680571Y-53343002D01*
X115726430Y-53300683D01*
X115817210Y-53252162D01*
X115963769Y-53131883D01*
X116084048Y-52985324D01*
X116173423Y-52818115D01*
X116228459Y-52636683D01*
X116247043Y-52448000D01*
X116852729Y-52448000D01*
X116871312Y-52636681D01*
X116871313Y-52636683D01*
X116926349Y-52818115D01*
X116926350Y-52818118D01*
X116926351Y-52818119D01*
X116926352Y-52818122D01*
X117015720Y-52985318D01*
X117015724Y-52985325D01*
X117136002Y-53131883D01*
X117282560Y-53252161D01*
X117282567Y-53252165D01*
X117449763Y-53341533D01*
X117449764Y-53341533D01*
X117449771Y-53341537D01*
X117631203Y-53396573D01*
X117631202Y-53396573D01*
X117648119Y-53398239D01*
X117819886Y-53415157D01*
X118008569Y-53396573D01*
X118190001Y-53341537D01*
X118357210Y-53252162D01*
X118503769Y-53131883D01*
X118624048Y-52985324D01*
X118713423Y-52818115D01*
X118768459Y-52636683D01*
X118787043Y-52448000D01*
X118768459Y-52259317D01*
X118713423Y-52077885D01*
X118624048Y-51910676D01*
X118624047Y-51910674D01*
X118503769Y-51764116D01*
X118357211Y-51643838D01*
X118357204Y-51643834D01*
X118190008Y-51554466D01*
X118190005Y-51554465D01*
X118190004Y-51554464D01*
X118190001Y-51554463D01*
X118008569Y-51499427D01*
X118008567Y-51499426D01*
X118008569Y-51499426D01*
X117819886Y-51480843D01*
X117631204Y-51499426D01*
X117524080Y-51531921D01*
X117449771Y-51554463D01*
X117449768Y-51554464D01*
X117449766Y-51554465D01*
X117449763Y-51554466D01*
X117282567Y-51643834D01*
X117282560Y-51643838D01*
X117136002Y-51764116D01*
X117015724Y-51910674D01*
X117015720Y-51910681D01*
X116926352Y-52077877D01*
X116926351Y-52077880D01*
X116871312Y-52259318D01*
X116852729Y-52448000D01*
X116247043Y-52448000D01*
X116228459Y-52259317D01*
X116173423Y-52077885D01*
X116084048Y-51910676D01*
X116084047Y-51910674D01*
X115963769Y-51764116D01*
X115817211Y-51643838D01*
X115817204Y-51643834D01*
X115650008Y-51554466D01*
X115650005Y-51554465D01*
X115650004Y-51554464D01*
X115650001Y-51554463D01*
X115468569Y-51499427D01*
X115468567Y-51499426D01*
X115468569Y-51499426D01*
X115279886Y-51480843D01*
X115091203Y-51499426D01*
X114932481Y-51547573D01*
X114862614Y-51548196D01*
X114808806Y-51516593D01*
X114392750Y-51100537D01*
X114392748Y-51100535D01*
X114355636Y-51079108D01*
X114318526Y-51057682D01*
X114277132Y-51046591D01*
X114235739Y-51035500D01*
X114235738Y-51035500D01*
X112340100Y-51035500D01*
X112340084Y-51035499D01*
X112332488Y-51035499D01*
X112246782Y-51035499D01*
X112213668Y-51044372D01*
X112163994Y-51057682D01*
X112163993Y-51057683D01*
X112089776Y-51100532D01*
X112089771Y-51100536D01*
X108564127Y-54626181D01*
X108502804Y-54659666D01*
X108476446Y-54662500D01*
X106640886Y-54662500D01*
X106573847Y-54642815D01*
X106528092Y-54590011D01*
X106516886Y-54538500D01*
X106516886Y-50794000D01*
X106536571Y-50726961D01*
X106589375Y-50681206D01*
X106640886Y-50670000D01*
X119346886Y-50670000D01*
X119413925Y-50689685D01*
X119459680Y-50742489D01*
X119470886Y-50794000D01*
X119470886Y-68961000D01*
X119451201Y-69028039D01*
X119398397Y-69073794D01*
X119346886Y-69085000D01*
X57999886Y-69085000D01*
X57932847Y-69065315D01*
X57887092Y-69012511D01*
X57875886Y-68961000D01*
X57875886Y-66545000D01*
X59614303Y-66545000D01*
X59634585Y-66750932D01*
X59652466Y-66809877D01*
X59694654Y-66948954D01*
X59792201Y-67131450D01*
X59792203Y-67131452D01*
X59923475Y-67291410D01*
X60017632Y-67368681D01*
X60083436Y-67422685D01*
X60265932Y-67520232D01*
X60463952Y-67580300D01*
X60463951Y-67580300D01*
X60482415Y-67582118D01*
X60669886Y-67600583D01*
X60875820Y-67580300D01*
X61073840Y-67520232D01*
X61256336Y-67422685D01*
X61416296Y-67291410D01*
X61547571Y-67131450D01*
X61645118Y-66948954D01*
X61705186Y-66750934D01*
X61725469Y-66545000D01*
X61705186Y-66339066D01*
X61645118Y-66141046D01*
X61547571Y-65958550D01*
X61495588Y-65895209D01*
X61416296Y-65798589D01*
X61279756Y-65686535D01*
X61256336Y-65667315D01*
X61078349Y-65572178D01*
X61073842Y-65569769D01*
X61073841Y-65569768D01*
X61073840Y-65569768D01*
X60875820Y-65509700D01*
X60875818Y-65509699D01*
X60875820Y-65509699D01*
X60669886Y-65489417D01*
X60463953Y-65509699D01*
X60265929Y-65569769D01*
X60174451Y-65618666D01*
X60083436Y-65667315D01*
X60083434Y-65667316D01*
X60083433Y-65667317D01*
X59923475Y-65798589D01*
X59792203Y-65958547D01*
X59694655Y-66141043D01*
X59634585Y-66339067D01*
X59614303Y-66545000D01*
X57875886Y-66545000D01*
X57875886Y-64005000D01*
X59614303Y-64005000D01*
X59634585Y-64210932D01*
X59652466Y-64269877D01*
X59694654Y-64408954D01*
X59792201Y-64591450D01*
X59792203Y-64591452D01*
X59923475Y-64751410D01*
X60013099Y-64824961D01*
X60083436Y-64882685D01*
X60265932Y-64980232D01*
X60463952Y-65040300D01*
X60463951Y-65040300D01*
X60482415Y-65042118D01*
X60669886Y-65060583D01*
X60875820Y-65040300D01*
X61073840Y-64980232D01*
X61256336Y-64882685D01*
X61416296Y-64751410D01*
X61547571Y-64591450D01*
X61645118Y-64408954D01*
X61705186Y-64210934D01*
X61725469Y-64005000D01*
X61705186Y-63799066D01*
X61645118Y-63601046D01*
X61547571Y-63418550D01*
X61495588Y-63355209D01*
X61416296Y-63258589D01*
X61284163Y-63150152D01*
X61256336Y-63127315D01*
X61073840Y-63029768D01*
X60875820Y-62969700D01*
X60875818Y-62969699D01*
X60875820Y-62969699D01*
X60669886Y-62949417D01*
X60463953Y-62969699D01*
X60265929Y-63029769D01*
X60155784Y-63088643D01*
X60083436Y-63127315D01*
X60083434Y-63127316D01*
X60083433Y-63127317D01*
X59923475Y-63258589D01*
X59792203Y-63418547D01*
X59792201Y-63418550D01*
X59767905Y-63464004D01*
X59694655Y-63601043D01*
X59634585Y-63799067D01*
X59614303Y-64005000D01*
X57875886Y-64005000D01*
X57875886Y-52448000D01*
X58432729Y-52448000D01*
X58451312Y-52636681D01*
X58451313Y-52636683D01*
X58506349Y-52818115D01*
X58506350Y-52818118D01*
X58506351Y-52818119D01*
X58506352Y-52818122D01*
X58595720Y-52985318D01*
X58595724Y-52985325D01*
X58716002Y-53131883D01*
X58862560Y-53252161D01*
X58862567Y-53252165D01*
X59029763Y-53341533D01*
X59029764Y-53341533D01*
X59029771Y-53341537D01*
X59211203Y-53396573D01*
X59211202Y-53396573D01*
X59228119Y-53398239D01*
X59399886Y-53415157D01*
X59588569Y-53396573D01*
X59611654Y-53389569D01*
X59681519Y-53388945D01*
X59735331Y-53420549D01*
X60125067Y-53810284D01*
X60158552Y-53871607D01*
X60161386Y-53897965D01*
X60161386Y-58926311D01*
X60168475Y-58952765D01*
X60168475Y-58952768D01*
X60168476Y-58952768D01*
X60192087Y-59040887D01*
X60251397Y-59143614D01*
X60251399Y-59143616D01*
X62123067Y-61015284D01*
X62156552Y-61076607D01*
X62159386Y-61102965D01*
X62159386Y-62334752D01*
X62171017Y-62393229D01*
X62171018Y-62393230D01*
X62215333Y-62459552D01*
X62281655Y-62503867D01*
X62281656Y-62503868D01*
X62346112Y-62516689D01*
X62345655Y-62518985D01*
X62400801Y-62541236D01*
X62441175Y-62598260D01*
X62447886Y-62638499D01*
X62447886Y-63233218D01*
X62428201Y-63300257D01*
X62419740Y-63311882D01*
X62332201Y-63418549D01*
X62332196Y-63418555D01*
X62234655Y-63601041D01*
X62174585Y-63799067D01*
X62154303Y-64005000D01*
X62174585Y-64210932D01*
X62192466Y-64269877D01*
X62234654Y-64408954D01*
X62332201Y-64591450D01*
X62332203Y-64591452D01*
X62463475Y-64751410D01*
X62553099Y-64824961D01*
X62623436Y-64882685D01*
X62805932Y-64980232D01*
X63003952Y-65040300D01*
X63003951Y-65040300D01*
X63022415Y-65042118D01*
X63209886Y-65060583D01*
X63415820Y-65040300D01*
X63613840Y-64980232D01*
X63796336Y-64882685D01*
X63956296Y-64751410D01*
X64087571Y-64591450D01*
X64185118Y-64408954D01*
X64245186Y-64210934D01*
X64265469Y-64005000D01*
X64245186Y-63799066D01*
X64185118Y-63601046D01*
X64185116Y-63601043D01*
X64185116Y-63601041D01*
X64184330Y-63599144D01*
X64184214Y-63598068D01*
X64183349Y-63595216D01*
X64183889Y-63595051D01*
X64176857Y-63529675D01*
X64208128Y-63467194D01*
X64211175Y-63464036D01*
X64645351Y-63029862D01*
X64688204Y-62955639D01*
X64710386Y-62872853D01*
X64710386Y-62787147D01*
X64710386Y-57390147D01*
X64688204Y-57307362D01*
X64688204Y-57307361D01*
X64645351Y-57233138D01*
X62871292Y-55459079D01*
X62837807Y-55397756D01*
X62840311Y-55335404D01*
X62888459Y-55176683D01*
X62907043Y-54988000D01*
X63512729Y-54988000D01*
X63531312Y-55176681D01*
X63531313Y-55176683D01*
X63586349Y-55358115D01*
X63586350Y-55358118D01*
X63586351Y-55358119D01*
X63586352Y-55358122D01*
X63675720Y-55525318D01*
X63675724Y-55525325D01*
X63796002Y-55671883D01*
X63942560Y-55792161D01*
X63942567Y-55792165D01*
X64109763Y-55881533D01*
X64109764Y-55881533D01*
X64109771Y-55881537D01*
X64291203Y-55936573D01*
X64291202Y-55936573D01*
X64308119Y-55938239D01*
X64479886Y-55955157D01*
X64668569Y-55936573D01*
X64850001Y-55881537D01*
X65017210Y-55792162D01*
X65163769Y-55671883D01*
X65284048Y-55525324D01*
X65373423Y-55358115D01*
X65428459Y-55176683D01*
X65447043Y-54988000D01*
X65428459Y-54799317D01*
X65373423Y-54617885D01*
X65299722Y-54480000D01*
X65284051Y-54450681D01*
X65284047Y-54450674D01*
X65163769Y-54304116D01*
X65017211Y-54183838D01*
X65017204Y-54183834D01*
X64850008Y-54094466D01*
X64850005Y-54094465D01*
X64850004Y-54094464D01*
X64850001Y-54094463D01*
X64668569Y-54039427D01*
X64668567Y-54039426D01*
X64668569Y-54039426D01*
X64479886Y-54020843D01*
X64291204Y-54039426D01*
X64184080Y-54071921D01*
X64109771Y-54094463D01*
X64109768Y-54094464D01*
X64109766Y-54094465D01*
X64109763Y-54094466D01*
X63942567Y-54183834D01*
X63942560Y-54183838D01*
X63796002Y-54304116D01*
X63675724Y-54450674D01*
X63675720Y-54450681D01*
X63586352Y-54617877D01*
X63586351Y-54617880D01*
X63586350Y-54617882D01*
X63586349Y-54617885D01*
X63567662Y-54679489D01*
X63531312Y-54799318D01*
X63512729Y-54988000D01*
X62907043Y-54988000D01*
X62888459Y-54799317D01*
X62833423Y-54617885D01*
X62759722Y-54480000D01*
X62744051Y-54450681D01*
X62744047Y-54450674D01*
X62623769Y-54304116D01*
X62477211Y-54183838D01*
X62477204Y-54183834D01*
X62310008Y-54094466D01*
X62310005Y-54094465D01*
X62310004Y-54094464D01*
X62310001Y-54094463D01*
X62128569Y-54039427D01*
X62128567Y-54039426D01*
X62128569Y-54039426D01*
X61939886Y-54020843D01*
X61751204Y-54039426D01*
X61644080Y-54071921D01*
X61569771Y-54094463D01*
X61569768Y-54094464D01*
X61569766Y-54094465D01*
X61569763Y-54094466D01*
X61402567Y-54183834D01*
X61402560Y-54183838D01*
X61265051Y-54296690D01*
X61200741Y-54324003D01*
X61131873Y-54312212D01*
X61080313Y-54265060D01*
X61062386Y-54200837D01*
X61062386Y-53600693D01*
X61062386Y-53600691D01*
X61031685Y-53486114D01*
X61031685Y-53486113D01*
X61031685Y-53486112D01*
X60972378Y-53383389D01*
X60972374Y-53383384D01*
X60372435Y-52783445D01*
X60338950Y-52722122D01*
X60341455Y-52659768D01*
X60348459Y-52636683D01*
X60367043Y-52448000D01*
X60972729Y-52448000D01*
X60991312Y-52636681D01*
X60991313Y-52636683D01*
X61046349Y-52818115D01*
X61046350Y-52818118D01*
X61046351Y-52818119D01*
X61046352Y-52818122D01*
X61135720Y-52985318D01*
X61135724Y-52985325D01*
X61256002Y-53131883D01*
X61402560Y-53252161D01*
X61402567Y-53252165D01*
X61569763Y-53341533D01*
X61569764Y-53341533D01*
X61569771Y-53341537D01*
X61751203Y-53396573D01*
X61751202Y-53396573D01*
X61768119Y-53398239D01*
X61939886Y-53415157D01*
X62128569Y-53396573D01*
X62310001Y-53341537D01*
X62477210Y-53252162D01*
X62623769Y-53131883D01*
X62744048Y-52985324D01*
X62833423Y-52818115D01*
X62888459Y-52636683D01*
X62907043Y-52448000D01*
X63512729Y-52448000D01*
X63531312Y-52636681D01*
X63531313Y-52636683D01*
X63586349Y-52818115D01*
X63586350Y-52818118D01*
X63586351Y-52818119D01*
X63586352Y-52818122D01*
X63675720Y-52985318D01*
X63675724Y-52985325D01*
X63796002Y-53131883D01*
X63942560Y-53252161D01*
X63942567Y-53252165D01*
X64109763Y-53341533D01*
X64109764Y-53341533D01*
X64109771Y-53341537D01*
X64291203Y-53396573D01*
X64291202Y-53396573D01*
X64308119Y-53398239D01*
X64479886Y-53415157D01*
X64668569Y-53396573D01*
X64850001Y-53341537D01*
X65017210Y-53252162D01*
X65163769Y-53131883D01*
X65284048Y-52985324D01*
X65373423Y-52818115D01*
X65428459Y-52636683D01*
X65447043Y-52448000D01*
X65428459Y-52259317D01*
X65373423Y-52077885D01*
X65284048Y-51910676D01*
X65284047Y-51910674D01*
X65163769Y-51764116D01*
X65017211Y-51643838D01*
X65017204Y-51643834D01*
X64850008Y-51554466D01*
X64850005Y-51554465D01*
X64850004Y-51554464D01*
X64850001Y-51554463D01*
X64668569Y-51499427D01*
X64668567Y-51499426D01*
X64668569Y-51499426D01*
X64479886Y-51480843D01*
X64291204Y-51499426D01*
X64184080Y-51531921D01*
X64109771Y-51554463D01*
X64109768Y-51554464D01*
X64109766Y-51554465D01*
X64109763Y-51554466D01*
X63942567Y-51643834D01*
X63942560Y-51643838D01*
X63796002Y-51764116D01*
X63675724Y-51910674D01*
X63675720Y-51910681D01*
X63586352Y-52077877D01*
X63586351Y-52077880D01*
X63531312Y-52259318D01*
X63512729Y-52448000D01*
X62907043Y-52448000D01*
X62888459Y-52259317D01*
X62833423Y-52077885D01*
X62744048Y-51910676D01*
X62744047Y-51910674D01*
X62623769Y-51764116D01*
X62477211Y-51643838D01*
X62477204Y-51643834D01*
X62310008Y-51554466D01*
X62310005Y-51554465D01*
X62310004Y-51554464D01*
X62310001Y-51554463D01*
X62128569Y-51499427D01*
X62128567Y-51499426D01*
X62128569Y-51499426D01*
X61939886Y-51480843D01*
X61751204Y-51499426D01*
X61644080Y-51531921D01*
X61569771Y-51554463D01*
X61569768Y-51554464D01*
X61569766Y-51554465D01*
X61569763Y-51554466D01*
X61402567Y-51643834D01*
X61402560Y-51643838D01*
X61256002Y-51764116D01*
X61135724Y-51910674D01*
X61135720Y-51910681D01*
X61046352Y-52077877D01*
X61046351Y-52077880D01*
X60991312Y-52259318D01*
X60972729Y-52448000D01*
X60367043Y-52448000D01*
X60348459Y-52259317D01*
X60293423Y-52077885D01*
X60204048Y-51910676D01*
X60204047Y-51910674D01*
X60083769Y-51764116D01*
X59937211Y-51643838D01*
X59937204Y-51643834D01*
X59770008Y-51554466D01*
X59770005Y-51554465D01*
X59770004Y-51554464D01*
X59770001Y-51554463D01*
X59588569Y-51499427D01*
X59588567Y-51499426D01*
X59588569Y-51499426D01*
X59399886Y-51480843D01*
X59211204Y-51499426D01*
X59104080Y-51531921D01*
X59029771Y-51554463D01*
X59029768Y-51554464D01*
X59029766Y-51554465D01*
X59029763Y-51554466D01*
X58862567Y-51643834D01*
X58862560Y-51643838D01*
X58716002Y-51764116D01*
X58595724Y-51910674D01*
X58595720Y-51910681D01*
X58506352Y-52077877D01*
X58506351Y-52077880D01*
X58451312Y-52259318D01*
X58432729Y-52448000D01*
X57875886Y-52448000D01*
X57875886Y-50794000D01*
X57895571Y-50726961D01*
X57948375Y-50681206D01*
X57999886Y-50670000D01*
X70578886Y-50670000D01*
X70645925Y-50689685D01*
G37*
%TD.AperFunction*%
%TD*%
M02*
