%TF.GenerationSoftware,KiCad,Pcbnew,8.0.5*%
%TF.CreationDate,2024-09-27T22:13:58+09:00*%
%TF.ProjectId,_____,e9a4f3fa-7f2e-46b6-9963-61645f706362,rev?*%
%TF.SameCoordinates,Original*%
%TF.FileFunction,Legend,Top*%
%TF.FilePolarity,Positive*%
%FSLAX46Y46*%
G04 Gerber Fmt 4.6, Leading zero omitted, Abs format (unit mm)*
G04 Created by KiCad (PCBNEW 8.0.5) date 2024-09-27 22:13:58*
%MOMM*%
%LPD*%
G01*
G04 APERTURE LIST*
G04 Aperture macros list*
%AMRoundRect*
0 Rectangle with rounded corners*
0 $1 Rounding radius*
0 $2 $3 $4 $5 $6 $7 $8 $9 X,Y pos of 4 corners*
0 Add a 4 corners polygon primitive as box body*
4,1,4,$2,$3,$4,$5,$6,$7,$8,$9,$2,$3,0*
0 Add four circle primitives for the rounded corners*
1,1,$1+$1,$2,$3*
1,1,$1+$1,$4,$5*
1,1,$1+$1,$6,$7*
1,1,$1+$1,$8,$9*
0 Add four rect primitives between the rounded corners*
20,1,$1+$1,$2,$3,$4,$5,0*
20,1,$1+$1,$4,$5,$6,$7,0*
20,1,$1+$1,$6,$7,$8,$9,0*
20,1,$1+$1,$8,$9,$2,$3,0*%
G04 Aperture macros list end*
%ADD10C,0.150000*%
%ADD11C,0.100000*%
%ADD12C,0.120000*%
%ADD13C,5.600000*%
%ADD14RoundRect,0.237500X-0.237500X0.250000X-0.237500X-0.250000X0.237500X-0.250000X0.237500X0.250000X0*%
%ADD15RoundRect,0.237500X-0.250000X-0.237500X0.250000X-0.237500X0.250000X0.237500X-0.250000X0.237500X0*%
%ADD16RoundRect,0.237500X0.237500X-0.300000X0.237500X0.300000X-0.237500X0.300000X-0.237500X-0.300000X0*%
%ADD17R,1.700000X1.700000*%
%ADD18O,1.700000X1.700000*%
%ADD19C,1.524000*%
%ADD20R,1.600000X1.600000*%
%ADD21C,1.600000*%
%ADD22RoundRect,0.237500X0.250000X0.237500X-0.250000X0.237500X-0.250000X-0.237500X0.250000X-0.237500X0*%
%ADD23R,0.950000X1.200000*%
%ADD24R,1.905000X2.000000*%
%ADD25O,1.905000X2.000000*%
%ADD26RoundRect,0.102000X0.750000X-0.750000X0.750000X0.750000X-0.750000X0.750000X-0.750000X-0.750000X0*%
%ADD27C,1.704000*%
G04 APERTURE END LIST*
D10*
X112231886Y-70355000D02*
X119089886Y-70355000D01*
X119089886Y-69085000D02*
X112231886Y-69085000D01*
X58891886Y-69085000D02*
X65749886Y-69085000D01*
X58891886Y-72006000D02*
X65749886Y-72006000D01*
X135325705Y-89317666D02*
X134849514Y-89650999D01*
X135325705Y-89889094D02*
X134325705Y-89889094D01*
X134325705Y-89889094D02*
X134325705Y-89508142D01*
X134325705Y-89508142D02*
X134373324Y-89412904D01*
X134373324Y-89412904D02*
X134420943Y-89365285D01*
X134420943Y-89365285D02*
X134516181Y-89317666D01*
X134516181Y-89317666D02*
X134659038Y-89317666D01*
X134659038Y-89317666D02*
X134754276Y-89365285D01*
X134754276Y-89365285D02*
X134801895Y-89412904D01*
X134801895Y-89412904D02*
X134849514Y-89508142D01*
X134849514Y-89508142D02*
X134849514Y-89889094D01*
X134325705Y-88412904D02*
X134325705Y-88889094D01*
X134325705Y-88889094D02*
X134801895Y-88936713D01*
X134801895Y-88936713D02*
X134754276Y-88889094D01*
X134754276Y-88889094D02*
X134706657Y-88793856D01*
X134706657Y-88793856D02*
X134706657Y-88555761D01*
X134706657Y-88555761D02*
X134754276Y-88460523D01*
X134754276Y-88460523D02*
X134801895Y-88412904D01*
X134801895Y-88412904D02*
X134897133Y-88365285D01*
X134897133Y-88365285D02*
X135135228Y-88365285D01*
X135135228Y-88365285D02*
X135230466Y-88412904D01*
X135230466Y-88412904D02*
X135278086Y-88460523D01*
X135278086Y-88460523D02*
X135325705Y-88555761D01*
X135325705Y-88555761D02*
X135325705Y-88793856D01*
X135325705Y-88793856D02*
X135278086Y-88889094D01*
X135278086Y-88889094D02*
X135230466Y-88936713D01*
X87332028Y-84906819D02*
X86998695Y-84430628D01*
X86760600Y-84906819D02*
X86760600Y-83906819D01*
X86760600Y-83906819D02*
X87141552Y-83906819D01*
X87141552Y-83906819D02*
X87236790Y-83954438D01*
X87236790Y-83954438D02*
X87284409Y-84002057D01*
X87284409Y-84002057D02*
X87332028Y-84097295D01*
X87332028Y-84097295D02*
X87332028Y-84240152D01*
X87332028Y-84240152D02*
X87284409Y-84335390D01*
X87284409Y-84335390D02*
X87236790Y-84383009D01*
X87236790Y-84383009D02*
X87141552Y-84430628D01*
X87141552Y-84430628D02*
X86760600Y-84430628D01*
X88284409Y-84906819D02*
X87712981Y-84906819D01*
X87998695Y-84906819D02*
X87998695Y-83906819D01*
X87998695Y-83906819D02*
X87903457Y-84049676D01*
X87903457Y-84049676D02*
X87808219Y-84144914D01*
X87808219Y-84144914D02*
X87712981Y-84192533D01*
X89141552Y-84240152D02*
X89141552Y-84906819D01*
X88903457Y-83859200D02*
X88665362Y-84573485D01*
X88665362Y-84573485D02*
X89284409Y-84573485D01*
X77299028Y-84779819D02*
X76965695Y-84303628D01*
X76727600Y-84779819D02*
X76727600Y-83779819D01*
X76727600Y-83779819D02*
X77108552Y-83779819D01*
X77108552Y-83779819D02*
X77203790Y-83827438D01*
X77203790Y-83827438D02*
X77251409Y-83875057D01*
X77251409Y-83875057D02*
X77299028Y-83970295D01*
X77299028Y-83970295D02*
X77299028Y-84113152D01*
X77299028Y-84113152D02*
X77251409Y-84208390D01*
X77251409Y-84208390D02*
X77203790Y-84256009D01*
X77203790Y-84256009D02*
X77108552Y-84303628D01*
X77108552Y-84303628D02*
X76727600Y-84303628D01*
X78251409Y-84779819D02*
X77679981Y-84779819D01*
X77965695Y-84779819D02*
X77965695Y-83779819D01*
X77965695Y-83779819D02*
X77870457Y-83922676D01*
X77870457Y-83922676D02*
X77775219Y-84017914D01*
X77775219Y-84017914D02*
X77679981Y-84065533D01*
X79108552Y-83779819D02*
X78918076Y-83779819D01*
X78918076Y-83779819D02*
X78822838Y-83827438D01*
X78822838Y-83827438D02*
X78775219Y-83875057D01*
X78775219Y-83875057D02*
X78679981Y-84017914D01*
X78679981Y-84017914D02*
X78632362Y-84208390D01*
X78632362Y-84208390D02*
X78632362Y-84589342D01*
X78632362Y-84589342D02*
X78679981Y-84684580D01*
X78679981Y-84684580D02*
X78727600Y-84732200D01*
X78727600Y-84732200D02*
X78822838Y-84779819D01*
X78822838Y-84779819D02*
X79013314Y-84779819D01*
X79013314Y-84779819D02*
X79108552Y-84732200D01*
X79108552Y-84732200D02*
X79156171Y-84684580D01*
X79156171Y-84684580D02*
X79203790Y-84589342D01*
X79203790Y-84589342D02*
X79203790Y-84351247D01*
X79203790Y-84351247D02*
X79156171Y-84256009D01*
X79156171Y-84256009D02*
X79108552Y-84208390D01*
X79108552Y-84208390D02*
X79013314Y-84160771D01*
X79013314Y-84160771D02*
X78822838Y-84160771D01*
X78822838Y-84160771D02*
X78727600Y-84208390D01*
X78727600Y-84208390D02*
X78679981Y-84256009D01*
X78679981Y-84256009D02*
X78632362Y-84351247D01*
X136576219Y-88716819D02*
X136242886Y-88240628D01*
X136004791Y-88716819D02*
X136004791Y-87716819D01*
X136004791Y-87716819D02*
X136385743Y-87716819D01*
X136385743Y-87716819D02*
X136480981Y-87764438D01*
X136480981Y-87764438D02*
X136528600Y-87812057D01*
X136528600Y-87812057D02*
X136576219Y-87907295D01*
X136576219Y-87907295D02*
X136576219Y-88050152D01*
X136576219Y-88050152D02*
X136528600Y-88145390D01*
X136528600Y-88145390D02*
X136480981Y-88193009D01*
X136480981Y-88193009D02*
X136385743Y-88240628D01*
X136385743Y-88240628D02*
X136004791Y-88240628D01*
X137433362Y-88050152D02*
X137433362Y-88716819D01*
X137195267Y-87669200D02*
X136957172Y-88383485D01*
X136957172Y-88383485D02*
X137576219Y-88383485D01*
X75508705Y-89920857D02*
X75032514Y-90254190D01*
X75508705Y-90492285D02*
X74508705Y-90492285D01*
X74508705Y-90492285D02*
X74508705Y-90111333D01*
X74508705Y-90111333D02*
X74556324Y-90016095D01*
X74556324Y-90016095D02*
X74603943Y-89968476D01*
X74603943Y-89968476D02*
X74699181Y-89920857D01*
X74699181Y-89920857D02*
X74842038Y-89920857D01*
X74842038Y-89920857D02*
X74937276Y-89968476D01*
X74937276Y-89968476D02*
X74984895Y-90016095D01*
X74984895Y-90016095D02*
X75032514Y-90111333D01*
X75032514Y-90111333D02*
X75032514Y-90492285D01*
X75508705Y-88968476D02*
X75508705Y-89539904D01*
X75508705Y-89254190D02*
X74508705Y-89254190D01*
X74508705Y-89254190D02*
X74651562Y-89349428D01*
X74651562Y-89349428D02*
X74746800Y-89444666D01*
X74746800Y-89444666D02*
X74794419Y-89539904D01*
X74508705Y-88635142D02*
X74508705Y-87968476D01*
X74508705Y-87968476D02*
X75508705Y-88397047D01*
X68870466Y-99096666D02*
X68918086Y-99144285D01*
X68918086Y-99144285D02*
X68965705Y-99287142D01*
X68965705Y-99287142D02*
X68965705Y-99382380D01*
X68965705Y-99382380D02*
X68918086Y-99525237D01*
X68918086Y-99525237D02*
X68822847Y-99620475D01*
X68822847Y-99620475D02*
X68727609Y-99668094D01*
X68727609Y-99668094D02*
X68537133Y-99715713D01*
X68537133Y-99715713D02*
X68394276Y-99715713D01*
X68394276Y-99715713D02*
X68203800Y-99668094D01*
X68203800Y-99668094D02*
X68108562Y-99620475D01*
X68108562Y-99620475D02*
X68013324Y-99525237D01*
X68013324Y-99525237D02*
X67965705Y-99382380D01*
X67965705Y-99382380D02*
X67965705Y-99287142D01*
X67965705Y-99287142D02*
X68013324Y-99144285D01*
X68013324Y-99144285D02*
X68060943Y-99096666D01*
X68060943Y-98715713D02*
X68013324Y-98668094D01*
X68013324Y-98668094D02*
X67965705Y-98572856D01*
X67965705Y-98572856D02*
X67965705Y-98334761D01*
X67965705Y-98334761D02*
X68013324Y-98239523D01*
X68013324Y-98239523D02*
X68060943Y-98191904D01*
X68060943Y-98191904D02*
X68156181Y-98144285D01*
X68156181Y-98144285D02*
X68251419Y-98144285D01*
X68251419Y-98144285D02*
X68394276Y-98191904D01*
X68394276Y-98191904D02*
X68965705Y-98763332D01*
X68965705Y-98763332D02*
X68965705Y-98144285D01*
X115200552Y-81874819D02*
X115200552Y-82589104D01*
X115200552Y-82589104D02*
X115152933Y-82731961D01*
X115152933Y-82731961D02*
X115057695Y-82827200D01*
X115057695Y-82827200D02*
X114914838Y-82874819D01*
X114914838Y-82874819D02*
X114819600Y-82874819D01*
X115581505Y-81874819D02*
X116200552Y-81874819D01*
X116200552Y-81874819D02*
X115867219Y-82255771D01*
X115867219Y-82255771D02*
X116010076Y-82255771D01*
X116010076Y-82255771D02*
X116105314Y-82303390D01*
X116105314Y-82303390D02*
X116152933Y-82351009D01*
X116152933Y-82351009D02*
X116200552Y-82446247D01*
X116200552Y-82446247D02*
X116200552Y-82684342D01*
X116200552Y-82684342D02*
X116152933Y-82779580D01*
X116152933Y-82779580D02*
X116105314Y-82827200D01*
X116105314Y-82827200D02*
X116010076Y-82874819D01*
X116010076Y-82874819D02*
X115724362Y-82874819D01*
X115724362Y-82874819D02*
X115629124Y-82827200D01*
X115629124Y-82827200D02*
X115581505Y-82779580D01*
X106115705Y-89920857D02*
X105639514Y-90254190D01*
X106115705Y-90492285D02*
X105115705Y-90492285D01*
X105115705Y-90492285D02*
X105115705Y-90111333D01*
X105115705Y-90111333D02*
X105163324Y-90016095D01*
X105163324Y-90016095D02*
X105210943Y-89968476D01*
X105210943Y-89968476D02*
X105306181Y-89920857D01*
X105306181Y-89920857D02*
X105449038Y-89920857D01*
X105449038Y-89920857D02*
X105544276Y-89968476D01*
X105544276Y-89968476D02*
X105591895Y-90016095D01*
X105591895Y-90016095D02*
X105639514Y-90111333D01*
X105639514Y-90111333D02*
X105639514Y-90492285D01*
X106115705Y-88968476D02*
X106115705Y-89539904D01*
X106115705Y-89254190D02*
X105115705Y-89254190D01*
X105115705Y-89254190D02*
X105258562Y-89349428D01*
X105258562Y-89349428D02*
X105353800Y-89444666D01*
X105353800Y-89444666D02*
X105401419Y-89539904D01*
X106115705Y-88016095D02*
X106115705Y-88587523D01*
X106115705Y-88301809D02*
X105115705Y-88301809D01*
X105115705Y-88301809D02*
X105258562Y-88397047D01*
X105258562Y-88397047D02*
X105353800Y-88492285D01*
X105353800Y-88492285D02*
X105401419Y-88587523D01*
X63824705Y-89770357D02*
X63348514Y-90103690D01*
X63824705Y-90341785D02*
X62824705Y-90341785D01*
X62824705Y-90341785D02*
X62824705Y-89960833D01*
X62824705Y-89960833D02*
X62872324Y-89865595D01*
X62872324Y-89865595D02*
X62919943Y-89817976D01*
X62919943Y-89817976D02*
X63015181Y-89770357D01*
X63015181Y-89770357D02*
X63158038Y-89770357D01*
X63158038Y-89770357D02*
X63253276Y-89817976D01*
X63253276Y-89817976D02*
X63300895Y-89865595D01*
X63300895Y-89865595D02*
X63348514Y-89960833D01*
X63348514Y-89960833D02*
X63348514Y-90341785D01*
X63824705Y-88817976D02*
X63824705Y-89389404D01*
X63824705Y-89103690D02*
X62824705Y-89103690D01*
X62824705Y-89103690D02*
X62967562Y-89198928D01*
X62967562Y-89198928D02*
X63062800Y-89294166D01*
X63062800Y-89294166D02*
X63110419Y-89389404D01*
X63824705Y-88341785D02*
X63824705Y-88151309D01*
X63824705Y-88151309D02*
X63777086Y-88056071D01*
X63777086Y-88056071D02*
X63729466Y-88008452D01*
X63729466Y-88008452D02*
X63586609Y-87913214D01*
X63586609Y-87913214D02*
X63396133Y-87865595D01*
X63396133Y-87865595D02*
X63015181Y-87865595D01*
X63015181Y-87865595D02*
X62919943Y-87913214D01*
X62919943Y-87913214D02*
X62872324Y-87960833D01*
X62872324Y-87960833D02*
X62824705Y-88056071D01*
X62824705Y-88056071D02*
X62824705Y-88246547D01*
X62824705Y-88246547D02*
X62872324Y-88341785D01*
X62872324Y-88341785D02*
X62919943Y-88389404D01*
X62919943Y-88389404D02*
X63015181Y-88437023D01*
X63015181Y-88437023D02*
X63253276Y-88437023D01*
X63253276Y-88437023D02*
X63348514Y-88389404D01*
X63348514Y-88389404D02*
X63396133Y-88341785D01*
X63396133Y-88341785D02*
X63443752Y-88246547D01*
X63443752Y-88246547D02*
X63443752Y-88056071D01*
X63443752Y-88056071D02*
X63396133Y-87960833D01*
X63396133Y-87960833D02*
X63348514Y-87913214D01*
X63348514Y-87913214D02*
X63253276Y-87865595D01*
X47916705Y-81665857D02*
X47440514Y-81999190D01*
X47916705Y-82237285D02*
X46916705Y-82237285D01*
X46916705Y-82237285D02*
X46916705Y-81856333D01*
X46916705Y-81856333D02*
X46964324Y-81761095D01*
X46964324Y-81761095D02*
X47011943Y-81713476D01*
X47011943Y-81713476D02*
X47107181Y-81665857D01*
X47107181Y-81665857D02*
X47250038Y-81665857D01*
X47250038Y-81665857D02*
X47345276Y-81713476D01*
X47345276Y-81713476D02*
X47392895Y-81761095D01*
X47392895Y-81761095D02*
X47440514Y-81856333D01*
X47440514Y-81856333D02*
X47440514Y-82237285D01*
X47011943Y-81284904D02*
X46964324Y-81237285D01*
X46964324Y-81237285D02*
X46916705Y-81142047D01*
X46916705Y-81142047D02*
X46916705Y-80903952D01*
X46916705Y-80903952D02*
X46964324Y-80808714D01*
X46964324Y-80808714D02*
X47011943Y-80761095D01*
X47011943Y-80761095D02*
X47107181Y-80713476D01*
X47107181Y-80713476D02*
X47202419Y-80713476D01*
X47202419Y-80713476D02*
X47345276Y-80761095D01*
X47345276Y-80761095D02*
X47916705Y-81332523D01*
X47916705Y-81332523D02*
X47916705Y-80713476D01*
X46916705Y-80380142D02*
X46916705Y-79761095D01*
X46916705Y-79761095D02*
X47297657Y-80094428D01*
X47297657Y-80094428D02*
X47297657Y-79951571D01*
X47297657Y-79951571D02*
X47345276Y-79856333D01*
X47345276Y-79856333D02*
X47392895Y-79808714D01*
X47392895Y-79808714D02*
X47488133Y-79761095D01*
X47488133Y-79761095D02*
X47726228Y-79761095D01*
X47726228Y-79761095D02*
X47821466Y-79808714D01*
X47821466Y-79808714D02*
X47869086Y-79856333D01*
X47869086Y-79856333D02*
X47916705Y-79951571D01*
X47916705Y-79951571D02*
X47916705Y-80237285D01*
X47916705Y-80237285D02*
X47869086Y-80332523D01*
X47869086Y-80332523D02*
X47821466Y-80380142D01*
D11*
X60347029Y-56350419D02*
X60918457Y-56350419D01*
X60632743Y-57350419D02*
X60632743Y-56350419D01*
X61394648Y-57350419D02*
X61299410Y-57302800D01*
X61299410Y-57302800D02*
X61251791Y-57255180D01*
X61251791Y-57255180D02*
X61204172Y-57159942D01*
X61204172Y-57159942D02*
X61204172Y-56874228D01*
X61204172Y-56874228D02*
X61251791Y-56778990D01*
X61251791Y-56778990D02*
X61299410Y-56731371D01*
X61299410Y-56731371D02*
X61394648Y-56683752D01*
X61394648Y-56683752D02*
X61537505Y-56683752D01*
X61537505Y-56683752D02*
X61632743Y-56731371D01*
X61632743Y-56731371D02*
X61680362Y-56778990D01*
X61680362Y-56778990D02*
X61727981Y-56874228D01*
X61727981Y-56874228D02*
X61727981Y-57159942D01*
X61727981Y-57159942D02*
X61680362Y-57255180D01*
X61680362Y-57255180D02*
X61632743Y-57302800D01*
X61632743Y-57302800D02*
X61537505Y-57350419D01*
X61537505Y-57350419D02*
X61394648Y-57350419D01*
X62489886Y-56826609D02*
X62156553Y-56826609D01*
X62156553Y-57350419D02*
X62156553Y-56350419D01*
X62156553Y-56350419D02*
X62632743Y-56350419D01*
X62966077Y-56445657D02*
X63013696Y-56398038D01*
X63013696Y-56398038D02*
X63108934Y-56350419D01*
X63108934Y-56350419D02*
X63347029Y-56350419D01*
X63347029Y-56350419D02*
X63442267Y-56398038D01*
X63442267Y-56398038D02*
X63489886Y-56445657D01*
X63489886Y-56445657D02*
X63537505Y-56540895D01*
X63537505Y-56540895D02*
X63537505Y-56636133D01*
X63537505Y-56636133D02*
X63489886Y-56778990D01*
X63489886Y-56778990D02*
X62918458Y-57350419D01*
X62918458Y-57350419D02*
X63537505Y-57350419D01*
D10*
X55315705Y-89920857D02*
X54839514Y-90254190D01*
X55315705Y-90492285D02*
X54315705Y-90492285D01*
X54315705Y-90492285D02*
X54315705Y-90111333D01*
X54315705Y-90111333D02*
X54363324Y-90016095D01*
X54363324Y-90016095D02*
X54410943Y-89968476D01*
X54410943Y-89968476D02*
X54506181Y-89920857D01*
X54506181Y-89920857D02*
X54649038Y-89920857D01*
X54649038Y-89920857D02*
X54744276Y-89968476D01*
X54744276Y-89968476D02*
X54791895Y-90016095D01*
X54791895Y-90016095D02*
X54839514Y-90111333D01*
X54839514Y-90111333D02*
X54839514Y-90492285D01*
X54410943Y-89539904D02*
X54363324Y-89492285D01*
X54363324Y-89492285D02*
X54315705Y-89397047D01*
X54315705Y-89397047D02*
X54315705Y-89158952D01*
X54315705Y-89158952D02*
X54363324Y-89063714D01*
X54363324Y-89063714D02*
X54410943Y-89016095D01*
X54410943Y-89016095D02*
X54506181Y-88968476D01*
X54506181Y-88968476D02*
X54601419Y-88968476D01*
X54601419Y-88968476D02*
X54744276Y-89016095D01*
X54744276Y-89016095D02*
X55315705Y-89587523D01*
X55315705Y-89587523D02*
X55315705Y-88968476D01*
X55315705Y-88016095D02*
X55315705Y-88587523D01*
X55315705Y-88301809D02*
X54315705Y-88301809D01*
X54315705Y-88301809D02*
X54458562Y-88397047D01*
X54458562Y-88397047D02*
X54553800Y-88492285D01*
X54553800Y-88492285D02*
X54601419Y-88587523D01*
X97746028Y-84906819D02*
X97412695Y-84430628D01*
X97174600Y-84906819D02*
X97174600Y-83906819D01*
X97174600Y-83906819D02*
X97555552Y-83906819D01*
X97555552Y-83906819D02*
X97650790Y-83954438D01*
X97650790Y-83954438D02*
X97698409Y-84002057D01*
X97698409Y-84002057D02*
X97746028Y-84097295D01*
X97746028Y-84097295D02*
X97746028Y-84240152D01*
X97746028Y-84240152D02*
X97698409Y-84335390D01*
X97698409Y-84335390D02*
X97650790Y-84383009D01*
X97650790Y-84383009D02*
X97555552Y-84430628D01*
X97555552Y-84430628D02*
X97174600Y-84430628D01*
X98698409Y-84906819D02*
X98126981Y-84906819D01*
X98412695Y-84906819D02*
X98412695Y-83906819D01*
X98412695Y-83906819D02*
X98317457Y-84049676D01*
X98317457Y-84049676D02*
X98222219Y-84144914D01*
X98222219Y-84144914D02*
X98126981Y-84192533D01*
X99079362Y-84002057D02*
X99126981Y-83954438D01*
X99126981Y-83954438D02*
X99222219Y-83906819D01*
X99222219Y-83906819D02*
X99460314Y-83906819D01*
X99460314Y-83906819D02*
X99555552Y-83954438D01*
X99555552Y-83954438D02*
X99603171Y-84002057D01*
X99603171Y-84002057D02*
X99650790Y-84097295D01*
X99650790Y-84097295D02*
X99650790Y-84192533D01*
X99650790Y-84192533D02*
X99603171Y-84335390D01*
X99603171Y-84335390D02*
X99031743Y-84906819D01*
X99031743Y-84906819D02*
X99650790Y-84906819D01*
X89350466Y-98223666D02*
X89398086Y-98271285D01*
X89398086Y-98271285D02*
X89445705Y-98414142D01*
X89445705Y-98414142D02*
X89445705Y-98509380D01*
X89445705Y-98509380D02*
X89398086Y-98652237D01*
X89398086Y-98652237D02*
X89302847Y-98747475D01*
X89302847Y-98747475D02*
X89207609Y-98795094D01*
X89207609Y-98795094D02*
X89017133Y-98842713D01*
X89017133Y-98842713D02*
X88874276Y-98842713D01*
X88874276Y-98842713D02*
X88683800Y-98795094D01*
X88683800Y-98795094D02*
X88588562Y-98747475D01*
X88588562Y-98747475D02*
X88493324Y-98652237D01*
X88493324Y-98652237D02*
X88445705Y-98509380D01*
X88445705Y-98509380D02*
X88445705Y-98414142D01*
X88445705Y-98414142D02*
X88493324Y-98271285D01*
X88493324Y-98271285D02*
X88540943Y-98223666D01*
X89445705Y-97271285D02*
X89445705Y-97842713D01*
X89445705Y-97556999D02*
X88445705Y-97556999D01*
X88445705Y-97556999D02*
X88588562Y-97652237D01*
X88588562Y-97652237D02*
X88683800Y-97747475D01*
X88683800Y-97747475D02*
X88731419Y-97842713D01*
X114002028Y-84906819D02*
X113668695Y-84430628D01*
X113430600Y-84906819D02*
X113430600Y-83906819D01*
X113430600Y-83906819D02*
X113811552Y-83906819D01*
X113811552Y-83906819D02*
X113906790Y-83954438D01*
X113906790Y-83954438D02*
X113954409Y-84002057D01*
X113954409Y-84002057D02*
X114002028Y-84097295D01*
X114002028Y-84097295D02*
X114002028Y-84240152D01*
X114002028Y-84240152D02*
X113954409Y-84335390D01*
X113954409Y-84335390D02*
X113906790Y-84383009D01*
X113906790Y-84383009D02*
X113811552Y-84430628D01*
X113811552Y-84430628D02*
X113430600Y-84430628D01*
X114954409Y-84906819D02*
X114382981Y-84906819D01*
X114668695Y-84906819D02*
X114668695Y-83906819D01*
X114668695Y-83906819D02*
X114573457Y-84049676D01*
X114573457Y-84049676D02*
X114478219Y-84144914D01*
X114478219Y-84144914D02*
X114382981Y-84192533D01*
X115573457Y-83906819D02*
X115668695Y-83906819D01*
X115668695Y-83906819D02*
X115763933Y-83954438D01*
X115763933Y-83954438D02*
X115811552Y-84002057D01*
X115811552Y-84002057D02*
X115859171Y-84097295D01*
X115859171Y-84097295D02*
X115906790Y-84287771D01*
X115906790Y-84287771D02*
X115906790Y-84525866D01*
X115906790Y-84525866D02*
X115859171Y-84716342D01*
X115859171Y-84716342D02*
X115811552Y-84811580D01*
X115811552Y-84811580D02*
X115763933Y-84859200D01*
X115763933Y-84859200D02*
X115668695Y-84906819D01*
X115668695Y-84906819D02*
X115573457Y-84906819D01*
X115573457Y-84906819D02*
X115478219Y-84859200D01*
X115478219Y-84859200D02*
X115430600Y-84811580D01*
X115430600Y-84811580D02*
X115382981Y-84716342D01*
X115382981Y-84716342D02*
X115335362Y-84525866D01*
X115335362Y-84525866D02*
X115335362Y-84287771D01*
X115335362Y-84287771D02*
X115382981Y-84097295D01*
X115382981Y-84097295D02*
X115430600Y-84002057D01*
X115430600Y-84002057D02*
X115478219Y-83954438D01*
X115478219Y-83954438D02*
X115573457Y-83906819D01*
X85668705Y-89920857D02*
X85192514Y-90254190D01*
X85668705Y-90492285D02*
X84668705Y-90492285D01*
X84668705Y-90492285D02*
X84668705Y-90111333D01*
X84668705Y-90111333D02*
X84716324Y-90016095D01*
X84716324Y-90016095D02*
X84763943Y-89968476D01*
X84763943Y-89968476D02*
X84859181Y-89920857D01*
X84859181Y-89920857D02*
X85002038Y-89920857D01*
X85002038Y-89920857D02*
X85097276Y-89968476D01*
X85097276Y-89968476D02*
X85144895Y-90016095D01*
X85144895Y-90016095D02*
X85192514Y-90111333D01*
X85192514Y-90111333D02*
X85192514Y-90492285D01*
X85668705Y-88968476D02*
X85668705Y-89539904D01*
X85668705Y-89254190D02*
X84668705Y-89254190D01*
X84668705Y-89254190D02*
X84811562Y-89349428D01*
X84811562Y-89349428D02*
X84906800Y-89444666D01*
X84906800Y-89444666D02*
X84954419Y-89539904D01*
X84668705Y-88063714D02*
X84668705Y-88539904D01*
X84668705Y-88539904D02*
X85144895Y-88587523D01*
X85144895Y-88587523D02*
X85097276Y-88539904D01*
X85097276Y-88539904D02*
X85049657Y-88444666D01*
X85049657Y-88444666D02*
X85049657Y-88206571D01*
X85049657Y-88206571D02*
X85097276Y-88111333D01*
X85097276Y-88111333D02*
X85144895Y-88063714D01*
X85144895Y-88063714D02*
X85240133Y-88016095D01*
X85240133Y-88016095D02*
X85478228Y-88016095D01*
X85478228Y-88016095D02*
X85573466Y-88063714D01*
X85573466Y-88063714D02*
X85621086Y-88111333D01*
X85621086Y-88111333D02*
X85668705Y-88206571D01*
X85668705Y-88206571D02*
X85668705Y-88444666D01*
X85668705Y-88444666D02*
X85621086Y-88539904D01*
X85621086Y-88539904D02*
X85573466Y-88587523D01*
X123687219Y-80461819D02*
X123353886Y-79985628D01*
X123115791Y-80461819D02*
X123115791Y-79461819D01*
X123115791Y-79461819D02*
X123496743Y-79461819D01*
X123496743Y-79461819D02*
X123591981Y-79509438D01*
X123591981Y-79509438D02*
X123639600Y-79557057D01*
X123639600Y-79557057D02*
X123687219Y-79652295D01*
X123687219Y-79652295D02*
X123687219Y-79795152D01*
X123687219Y-79795152D02*
X123639600Y-79890390D01*
X123639600Y-79890390D02*
X123591981Y-79938009D01*
X123591981Y-79938009D02*
X123496743Y-79985628D01*
X123496743Y-79985628D02*
X123115791Y-79985628D01*
X124068172Y-79557057D02*
X124115791Y-79509438D01*
X124115791Y-79509438D02*
X124211029Y-79461819D01*
X124211029Y-79461819D02*
X124449124Y-79461819D01*
X124449124Y-79461819D02*
X124544362Y-79509438D01*
X124544362Y-79509438D02*
X124591981Y-79557057D01*
X124591981Y-79557057D02*
X124639600Y-79652295D01*
X124639600Y-79652295D02*
X124639600Y-79747533D01*
X124639600Y-79747533D02*
X124591981Y-79890390D01*
X124591981Y-79890390D02*
X124020553Y-80461819D01*
X124020553Y-80461819D02*
X124639600Y-80461819D01*
X46692028Y-78556819D02*
X46358695Y-78080628D01*
X46120600Y-78556819D02*
X46120600Y-77556819D01*
X46120600Y-77556819D02*
X46501552Y-77556819D01*
X46501552Y-77556819D02*
X46596790Y-77604438D01*
X46596790Y-77604438D02*
X46644409Y-77652057D01*
X46644409Y-77652057D02*
X46692028Y-77747295D01*
X46692028Y-77747295D02*
X46692028Y-77890152D01*
X46692028Y-77890152D02*
X46644409Y-77985390D01*
X46644409Y-77985390D02*
X46596790Y-78033009D01*
X46596790Y-78033009D02*
X46501552Y-78080628D01*
X46501552Y-78080628D02*
X46120600Y-78080628D01*
X47072981Y-77652057D02*
X47120600Y-77604438D01*
X47120600Y-77604438D02*
X47215838Y-77556819D01*
X47215838Y-77556819D02*
X47453933Y-77556819D01*
X47453933Y-77556819D02*
X47549171Y-77604438D01*
X47549171Y-77604438D02*
X47596790Y-77652057D01*
X47596790Y-77652057D02*
X47644409Y-77747295D01*
X47644409Y-77747295D02*
X47644409Y-77842533D01*
X47644409Y-77842533D02*
X47596790Y-77985390D01*
X47596790Y-77985390D02*
X47025362Y-78556819D01*
X47025362Y-78556819D02*
X47644409Y-78556819D01*
X48501552Y-77890152D02*
X48501552Y-78556819D01*
X48263457Y-77509200D02*
X48025362Y-78223485D01*
X48025362Y-78223485D02*
X48644409Y-78223485D01*
X95955705Y-89920857D02*
X95479514Y-90254190D01*
X95955705Y-90492285D02*
X94955705Y-90492285D01*
X94955705Y-90492285D02*
X94955705Y-90111333D01*
X94955705Y-90111333D02*
X95003324Y-90016095D01*
X95003324Y-90016095D02*
X95050943Y-89968476D01*
X95050943Y-89968476D02*
X95146181Y-89920857D01*
X95146181Y-89920857D02*
X95289038Y-89920857D01*
X95289038Y-89920857D02*
X95384276Y-89968476D01*
X95384276Y-89968476D02*
X95431895Y-90016095D01*
X95431895Y-90016095D02*
X95479514Y-90111333D01*
X95479514Y-90111333D02*
X95479514Y-90492285D01*
X95955705Y-88968476D02*
X95955705Y-89539904D01*
X95955705Y-89254190D02*
X94955705Y-89254190D01*
X94955705Y-89254190D02*
X95098562Y-89349428D01*
X95098562Y-89349428D02*
X95193800Y-89444666D01*
X95193800Y-89444666D02*
X95241419Y-89539904D01*
X94955705Y-88635142D02*
X94955705Y-88016095D01*
X94955705Y-88016095D02*
X95336657Y-88349428D01*
X95336657Y-88349428D02*
X95336657Y-88206571D01*
X95336657Y-88206571D02*
X95384276Y-88111333D01*
X95384276Y-88111333D02*
X95431895Y-88063714D01*
X95431895Y-88063714D02*
X95527133Y-88016095D01*
X95527133Y-88016095D02*
X95765228Y-88016095D01*
X95765228Y-88016095D02*
X95860466Y-88063714D01*
X95860466Y-88063714D02*
X95908086Y-88111333D01*
X95908086Y-88111333D02*
X95955705Y-88206571D01*
X95955705Y-88206571D02*
X95955705Y-88492285D01*
X95955705Y-88492285D02*
X95908086Y-88587523D01*
X95908086Y-88587523D02*
X95860466Y-88635142D01*
X121844219Y-83509819D02*
X121510886Y-83033628D01*
X121272791Y-83509819D02*
X121272791Y-82509819D01*
X121272791Y-82509819D02*
X121653743Y-82509819D01*
X121653743Y-82509819D02*
X121748981Y-82557438D01*
X121748981Y-82557438D02*
X121796600Y-82605057D01*
X121796600Y-82605057D02*
X121844219Y-82700295D01*
X121844219Y-82700295D02*
X121844219Y-82843152D01*
X121844219Y-82843152D02*
X121796600Y-82938390D01*
X121796600Y-82938390D02*
X121748981Y-82986009D01*
X121748981Y-82986009D02*
X121653743Y-83033628D01*
X121653743Y-83033628D02*
X121272791Y-83033628D01*
X122415648Y-82938390D02*
X122320410Y-82890771D01*
X122320410Y-82890771D02*
X122272791Y-82843152D01*
X122272791Y-82843152D02*
X122225172Y-82747914D01*
X122225172Y-82747914D02*
X122225172Y-82700295D01*
X122225172Y-82700295D02*
X122272791Y-82605057D01*
X122272791Y-82605057D02*
X122320410Y-82557438D01*
X122320410Y-82557438D02*
X122415648Y-82509819D01*
X122415648Y-82509819D02*
X122606124Y-82509819D01*
X122606124Y-82509819D02*
X122701362Y-82557438D01*
X122701362Y-82557438D02*
X122748981Y-82605057D01*
X122748981Y-82605057D02*
X122796600Y-82700295D01*
X122796600Y-82700295D02*
X122796600Y-82747914D01*
X122796600Y-82747914D02*
X122748981Y-82843152D01*
X122748981Y-82843152D02*
X122701362Y-82890771D01*
X122701362Y-82890771D02*
X122606124Y-82938390D01*
X122606124Y-82938390D02*
X122415648Y-82938390D01*
X122415648Y-82938390D02*
X122320410Y-82986009D01*
X122320410Y-82986009D02*
X122272791Y-83033628D01*
X122272791Y-83033628D02*
X122225172Y-83128866D01*
X122225172Y-83128866D02*
X122225172Y-83319342D01*
X122225172Y-83319342D02*
X122272791Y-83414580D01*
X122272791Y-83414580D02*
X122320410Y-83462200D01*
X122320410Y-83462200D02*
X122415648Y-83509819D01*
X122415648Y-83509819D02*
X122606124Y-83509819D01*
X122606124Y-83509819D02*
X122701362Y-83462200D01*
X122701362Y-83462200D02*
X122748981Y-83414580D01*
X122748981Y-83414580D02*
X122796600Y-83319342D01*
X122796600Y-83319342D02*
X122796600Y-83128866D01*
X122796600Y-83128866D02*
X122748981Y-83033628D01*
X122748981Y-83033628D02*
X122701362Y-82986009D01*
X122701362Y-82986009D02*
X122606124Y-82938390D01*
X57669552Y-78064819D02*
X57669552Y-78779104D01*
X57669552Y-78779104D02*
X57621933Y-78921961D01*
X57621933Y-78921961D02*
X57526695Y-79017200D01*
X57526695Y-79017200D02*
X57383838Y-79064819D01*
X57383838Y-79064819D02*
X57288600Y-79064819D01*
X58098124Y-78160057D02*
X58145743Y-78112438D01*
X58145743Y-78112438D02*
X58240981Y-78064819D01*
X58240981Y-78064819D02*
X58479076Y-78064819D01*
X58479076Y-78064819D02*
X58574314Y-78112438D01*
X58574314Y-78112438D02*
X58621933Y-78160057D01*
X58621933Y-78160057D02*
X58669552Y-78255295D01*
X58669552Y-78255295D02*
X58669552Y-78350533D01*
X58669552Y-78350533D02*
X58621933Y-78493390D01*
X58621933Y-78493390D02*
X58050505Y-79064819D01*
X58050505Y-79064819D02*
X58669552Y-79064819D01*
D11*
X116972742Y-59830580D02*
X116401314Y-59830580D01*
X116687028Y-58830580D02*
X116687028Y-59830580D01*
X115925123Y-58830580D02*
X116020361Y-58878200D01*
X116020361Y-58878200D02*
X116067980Y-58925819D01*
X116067980Y-58925819D02*
X116115599Y-59021057D01*
X116115599Y-59021057D02*
X116115599Y-59306771D01*
X116115599Y-59306771D02*
X116067980Y-59402009D01*
X116067980Y-59402009D02*
X116020361Y-59449628D01*
X116020361Y-59449628D02*
X115925123Y-59497247D01*
X115925123Y-59497247D02*
X115782266Y-59497247D01*
X115782266Y-59497247D02*
X115687028Y-59449628D01*
X115687028Y-59449628D02*
X115639409Y-59402009D01*
X115639409Y-59402009D02*
X115591790Y-59306771D01*
X115591790Y-59306771D02*
X115591790Y-59021057D01*
X115591790Y-59021057D02*
X115639409Y-58925819D01*
X115639409Y-58925819D02*
X115687028Y-58878200D01*
X115687028Y-58878200D02*
X115782266Y-58830580D01*
X115782266Y-58830580D02*
X115925123Y-58830580D01*
X114829885Y-59354390D02*
X115163218Y-59354390D01*
X115163218Y-58830580D02*
X115163218Y-59830580D01*
X115163218Y-59830580D02*
X114687028Y-59830580D01*
X113782266Y-58830580D02*
X114353694Y-58830580D01*
X114067980Y-58830580D02*
X114067980Y-59830580D01*
X114067980Y-59830580D02*
X114163218Y-59687723D01*
X114163218Y-59687723D02*
X114258456Y-59592485D01*
X114258456Y-59592485D02*
X114353694Y-59544866D01*
D10*
X129845219Y-83509819D02*
X129511886Y-83033628D01*
X129273791Y-83509819D02*
X129273791Y-82509819D01*
X129273791Y-82509819D02*
X129654743Y-82509819D01*
X129654743Y-82509819D02*
X129749981Y-82557438D01*
X129749981Y-82557438D02*
X129797600Y-82605057D01*
X129797600Y-82605057D02*
X129845219Y-82700295D01*
X129845219Y-82700295D02*
X129845219Y-82843152D01*
X129845219Y-82843152D02*
X129797600Y-82938390D01*
X129797600Y-82938390D02*
X129749981Y-82986009D01*
X129749981Y-82986009D02*
X129654743Y-83033628D01*
X129654743Y-83033628D02*
X129273791Y-83033628D01*
X130702362Y-82509819D02*
X130511886Y-82509819D01*
X130511886Y-82509819D02*
X130416648Y-82557438D01*
X130416648Y-82557438D02*
X130369029Y-82605057D01*
X130369029Y-82605057D02*
X130273791Y-82747914D01*
X130273791Y-82747914D02*
X130226172Y-82938390D01*
X130226172Y-82938390D02*
X130226172Y-83319342D01*
X130226172Y-83319342D02*
X130273791Y-83414580D01*
X130273791Y-83414580D02*
X130321410Y-83462200D01*
X130321410Y-83462200D02*
X130416648Y-83509819D01*
X130416648Y-83509819D02*
X130607124Y-83509819D01*
X130607124Y-83509819D02*
X130702362Y-83462200D01*
X130702362Y-83462200D02*
X130749981Y-83414580D01*
X130749981Y-83414580D02*
X130797600Y-83319342D01*
X130797600Y-83319342D02*
X130797600Y-83081247D01*
X130797600Y-83081247D02*
X130749981Y-82986009D01*
X130749981Y-82986009D02*
X130702362Y-82938390D01*
X130702362Y-82938390D02*
X130607124Y-82890771D01*
X130607124Y-82890771D02*
X130416648Y-82890771D01*
X130416648Y-82890771D02*
X130321410Y-82938390D01*
X130321410Y-82938390D02*
X130273791Y-82986009D01*
X130273791Y-82986009D02*
X130226172Y-83081247D01*
X46819028Y-84779819D02*
X46485695Y-84303628D01*
X46247600Y-84779819D02*
X46247600Y-83779819D01*
X46247600Y-83779819D02*
X46628552Y-83779819D01*
X46628552Y-83779819D02*
X46723790Y-83827438D01*
X46723790Y-83827438D02*
X46771409Y-83875057D01*
X46771409Y-83875057D02*
X46819028Y-83970295D01*
X46819028Y-83970295D02*
X46819028Y-84113152D01*
X46819028Y-84113152D02*
X46771409Y-84208390D01*
X46771409Y-84208390D02*
X46723790Y-84256009D01*
X46723790Y-84256009D02*
X46628552Y-84303628D01*
X46628552Y-84303628D02*
X46247600Y-84303628D01*
X47199981Y-83875057D02*
X47247600Y-83827438D01*
X47247600Y-83827438D02*
X47342838Y-83779819D01*
X47342838Y-83779819D02*
X47580933Y-83779819D01*
X47580933Y-83779819D02*
X47676171Y-83827438D01*
X47676171Y-83827438D02*
X47723790Y-83875057D01*
X47723790Y-83875057D02*
X47771409Y-83970295D01*
X47771409Y-83970295D02*
X47771409Y-84065533D01*
X47771409Y-84065533D02*
X47723790Y-84208390D01*
X47723790Y-84208390D02*
X47152362Y-84779819D01*
X47152362Y-84779819D02*
X47771409Y-84779819D01*
X48152362Y-83875057D02*
X48199981Y-83827438D01*
X48199981Y-83827438D02*
X48295219Y-83779819D01*
X48295219Y-83779819D02*
X48533314Y-83779819D01*
X48533314Y-83779819D02*
X48628552Y-83827438D01*
X48628552Y-83827438D02*
X48676171Y-83875057D01*
X48676171Y-83875057D02*
X48723790Y-83970295D01*
X48723790Y-83970295D02*
X48723790Y-84065533D01*
X48723790Y-84065533D02*
X48676171Y-84208390D01*
X48676171Y-84208390D02*
X48104743Y-84779819D01*
X48104743Y-84779819D02*
X48723790Y-84779819D01*
X88530552Y-103464819D02*
X88530552Y-104179104D01*
X88530552Y-104179104D02*
X88482933Y-104321961D01*
X88482933Y-104321961D02*
X88387695Y-104417200D01*
X88387695Y-104417200D02*
X88244838Y-104464819D01*
X88244838Y-104464819D02*
X88149600Y-104464819D01*
X89530552Y-104464819D02*
X88959124Y-104464819D01*
X89244838Y-104464819D02*
X89244838Y-103464819D01*
X89244838Y-103464819D02*
X89149600Y-103607676D01*
X89149600Y-103607676D02*
X89054362Y-103702914D01*
X89054362Y-103702914D02*
X88959124Y-103750533D01*
X110882552Y-61427819D02*
X110882552Y-62142104D01*
X110882552Y-62142104D02*
X110834933Y-62284961D01*
X110834933Y-62284961D02*
X110739695Y-62380200D01*
X110739695Y-62380200D02*
X110596838Y-62427819D01*
X110596838Y-62427819D02*
X110501600Y-62427819D01*
X111787314Y-61761152D02*
X111787314Y-62427819D01*
X111549219Y-61380200D02*
X111311124Y-62094485D01*
X111311124Y-62094485D02*
X111930171Y-62094485D01*
X68246895Y-108653333D02*
X68246895Y-108986666D01*
X68770705Y-108986666D02*
X67770705Y-108986666D01*
X67770705Y-108986666D02*
X67770705Y-108510476D01*
X68246895Y-107796190D02*
X68294514Y-107653333D01*
X68294514Y-107653333D02*
X68342133Y-107605714D01*
X68342133Y-107605714D02*
X68437371Y-107558095D01*
X68437371Y-107558095D02*
X68580228Y-107558095D01*
X68580228Y-107558095D02*
X68675466Y-107605714D01*
X68675466Y-107605714D02*
X68723086Y-107653333D01*
X68723086Y-107653333D02*
X68770705Y-107748571D01*
X68770705Y-107748571D02*
X68770705Y-108129523D01*
X68770705Y-108129523D02*
X67770705Y-108129523D01*
X67770705Y-108129523D02*
X67770705Y-107796190D01*
X67770705Y-107796190D02*
X67818324Y-107700952D01*
X67818324Y-107700952D02*
X67865943Y-107653333D01*
X67865943Y-107653333D02*
X67961181Y-107605714D01*
X67961181Y-107605714D02*
X68056419Y-107605714D01*
X68056419Y-107605714D02*
X68151657Y-107653333D01*
X68151657Y-107653333D02*
X68199276Y-107700952D01*
X68199276Y-107700952D02*
X68246895Y-107796190D01*
X68246895Y-107796190D02*
X68246895Y-108129523D01*
X68770705Y-106605714D02*
X68770705Y-107177142D01*
X68770705Y-106891428D02*
X67770705Y-106891428D01*
X67770705Y-106891428D02*
X67913562Y-106986666D01*
X67913562Y-106986666D02*
X68008800Y-107081904D01*
X68008800Y-107081904D02*
X68056419Y-107177142D01*
X116275705Y-89421166D02*
X115799514Y-89754499D01*
X116275705Y-89992594D02*
X115275705Y-89992594D01*
X115275705Y-89992594D02*
X115275705Y-89611642D01*
X115275705Y-89611642D02*
X115323324Y-89516404D01*
X115323324Y-89516404D02*
X115370943Y-89468785D01*
X115370943Y-89468785D02*
X115466181Y-89421166D01*
X115466181Y-89421166D02*
X115609038Y-89421166D01*
X115609038Y-89421166D02*
X115704276Y-89468785D01*
X115704276Y-89468785D02*
X115751895Y-89516404D01*
X115751895Y-89516404D02*
X115799514Y-89611642D01*
X115799514Y-89611642D02*
X115799514Y-89992594D01*
X116275705Y-88944975D02*
X116275705Y-88754499D01*
X116275705Y-88754499D02*
X116228086Y-88659261D01*
X116228086Y-88659261D02*
X116180466Y-88611642D01*
X116180466Y-88611642D02*
X116037609Y-88516404D01*
X116037609Y-88516404D02*
X115847133Y-88468785D01*
X115847133Y-88468785D02*
X115466181Y-88468785D01*
X115466181Y-88468785D02*
X115370943Y-88516404D01*
X115370943Y-88516404D02*
X115323324Y-88564023D01*
X115323324Y-88564023D02*
X115275705Y-88659261D01*
X115275705Y-88659261D02*
X115275705Y-88849737D01*
X115275705Y-88849737D02*
X115323324Y-88944975D01*
X115323324Y-88944975D02*
X115370943Y-88992594D01*
X115370943Y-88992594D02*
X115466181Y-89040213D01*
X115466181Y-89040213D02*
X115704276Y-89040213D01*
X115704276Y-89040213D02*
X115799514Y-88992594D01*
X115799514Y-88992594D02*
X115847133Y-88944975D01*
X115847133Y-88944975D02*
X115894752Y-88849737D01*
X115894752Y-88849737D02*
X115894752Y-88659261D01*
X115894752Y-88659261D02*
X115847133Y-88564023D01*
X115847133Y-88564023D02*
X115799514Y-88516404D01*
X115799514Y-88516404D02*
X115704276Y-88468785D01*
X123598719Y-78302819D02*
X123265386Y-77826628D01*
X123027291Y-78302819D02*
X123027291Y-77302819D01*
X123027291Y-77302819D02*
X123408243Y-77302819D01*
X123408243Y-77302819D02*
X123503481Y-77350438D01*
X123503481Y-77350438D02*
X123551100Y-77398057D01*
X123551100Y-77398057D02*
X123598719Y-77493295D01*
X123598719Y-77493295D02*
X123598719Y-77636152D01*
X123598719Y-77636152D02*
X123551100Y-77731390D01*
X123551100Y-77731390D02*
X123503481Y-77779009D01*
X123503481Y-77779009D02*
X123408243Y-77826628D01*
X123408243Y-77826628D02*
X123027291Y-77826628D01*
X124551100Y-78302819D02*
X123979672Y-78302819D01*
X124265386Y-78302819D02*
X124265386Y-77302819D01*
X124265386Y-77302819D02*
X124170148Y-77445676D01*
X124170148Y-77445676D02*
X124074910Y-77540914D01*
X124074910Y-77540914D02*
X123979672Y-77588533D01*
X56979028Y-84906819D02*
X56645695Y-84430628D01*
X56407600Y-84906819D02*
X56407600Y-83906819D01*
X56407600Y-83906819D02*
X56788552Y-83906819D01*
X56788552Y-83906819D02*
X56883790Y-83954438D01*
X56883790Y-83954438D02*
X56931409Y-84002057D01*
X56931409Y-84002057D02*
X56979028Y-84097295D01*
X56979028Y-84097295D02*
X56979028Y-84240152D01*
X56979028Y-84240152D02*
X56931409Y-84335390D01*
X56931409Y-84335390D02*
X56883790Y-84383009D01*
X56883790Y-84383009D02*
X56788552Y-84430628D01*
X56788552Y-84430628D02*
X56407600Y-84430628D01*
X57359981Y-84002057D02*
X57407600Y-83954438D01*
X57407600Y-83954438D02*
X57502838Y-83906819D01*
X57502838Y-83906819D02*
X57740933Y-83906819D01*
X57740933Y-83906819D02*
X57836171Y-83954438D01*
X57836171Y-83954438D02*
X57883790Y-84002057D01*
X57883790Y-84002057D02*
X57931409Y-84097295D01*
X57931409Y-84097295D02*
X57931409Y-84192533D01*
X57931409Y-84192533D02*
X57883790Y-84335390D01*
X57883790Y-84335390D02*
X57312362Y-84906819D01*
X57312362Y-84906819D02*
X57931409Y-84906819D01*
X58550457Y-83906819D02*
X58645695Y-83906819D01*
X58645695Y-83906819D02*
X58740933Y-83954438D01*
X58740933Y-83954438D02*
X58788552Y-84002057D01*
X58788552Y-84002057D02*
X58836171Y-84097295D01*
X58836171Y-84097295D02*
X58883790Y-84287771D01*
X58883790Y-84287771D02*
X58883790Y-84525866D01*
X58883790Y-84525866D02*
X58836171Y-84716342D01*
X58836171Y-84716342D02*
X58788552Y-84811580D01*
X58788552Y-84811580D02*
X58740933Y-84859200D01*
X58740933Y-84859200D02*
X58645695Y-84906819D01*
X58645695Y-84906819D02*
X58550457Y-84906819D01*
X58550457Y-84906819D02*
X58455219Y-84859200D01*
X58455219Y-84859200D02*
X58407600Y-84811580D01*
X58407600Y-84811580D02*
X58359981Y-84716342D01*
X58359981Y-84716342D02*
X58312362Y-84525866D01*
X58312362Y-84525866D02*
X58312362Y-84287771D01*
X58312362Y-84287771D02*
X58359981Y-84097295D01*
X58359981Y-84097295D02*
X58407600Y-84002057D01*
X58407600Y-84002057D02*
X58455219Y-83954438D01*
X58455219Y-83954438D02*
X58550457Y-83906819D01*
X61987552Y-58589819D02*
X61987552Y-59304104D01*
X61987552Y-59304104D02*
X61939933Y-59446961D01*
X61939933Y-59446961D02*
X61844695Y-59542200D01*
X61844695Y-59542200D02*
X61701838Y-59589819D01*
X61701838Y-59589819D02*
X61606600Y-59589819D01*
X62939933Y-58589819D02*
X62463743Y-58589819D01*
X62463743Y-58589819D02*
X62416124Y-59066009D01*
X62416124Y-59066009D02*
X62463743Y-59018390D01*
X62463743Y-59018390D02*
X62558981Y-58970771D01*
X62558981Y-58970771D02*
X62797076Y-58970771D01*
X62797076Y-58970771D02*
X62892314Y-59018390D01*
X62892314Y-59018390D02*
X62939933Y-59066009D01*
X62939933Y-59066009D02*
X62987552Y-59161247D01*
X62987552Y-59161247D02*
X62987552Y-59399342D01*
X62987552Y-59399342D02*
X62939933Y-59494580D01*
X62939933Y-59494580D02*
X62892314Y-59542200D01*
X62892314Y-59542200D02*
X62797076Y-59589819D01*
X62797076Y-59589819D02*
X62558981Y-59589819D01*
X62558981Y-59589819D02*
X62463743Y-59542200D01*
X62463743Y-59542200D02*
X62416124Y-59494580D01*
X67012028Y-84906819D02*
X66678695Y-84430628D01*
X66440600Y-84906819D02*
X66440600Y-83906819D01*
X66440600Y-83906819D02*
X66821552Y-83906819D01*
X66821552Y-83906819D02*
X66916790Y-83954438D01*
X66916790Y-83954438D02*
X66964409Y-84002057D01*
X66964409Y-84002057D02*
X67012028Y-84097295D01*
X67012028Y-84097295D02*
X67012028Y-84240152D01*
X67012028Y-84240152D02*
X66964409Y-84335390D01*
X66964409Y-84335390D02*
X66916790Y-84383009D01*
X66916790Y-84383009D02*
X66821552Y-84430628D01*
X66821552Y-84430628D02*
X66440600Y-84430628D01*
X67964409Y-84906819D02*
X67392981Y-84906819D01*
X67678695Y-84906819D02*
X67678695Y-83906819D01*
X67678695Y-83906819D02*
X67583457Y-84049676D01*
X67583457Y-84049676D02*
X67488219Y-84144914D01*
X67488219Y-84144914D02*
X67392981Y-84192533D01*
X68535838Y-84335390D02*
X68440600Y-84287771D01*
X68440600Y-84287771D02*
X68392981Y-84240152D01*
X68392981Y-84240152D02*
X68345362Y-84144914D01*
X68345362Y-84144914D02*
X68345362Y-84097295D01*
X68345362Y-84097295D02*
X68392981Y-84002057D01*
X68392981Y-84002057D02*
X68440600Y-83954438D01*
X68440600Y-83954438D02*
X68535838Y-83906819D01*
X68535838Y-83906819D02*
X68726314Y-83906819D01*
X68726314Y-83906819D02*
X68821552Y-83954438D01*
X68821552Y-83954438D02*
X68869171Y-84002057D01*
X68869171Y-84002057D02*
X68916790Y-84097295D01*
X68916790Y-84097295D02*
X68916790Y-84144914D01*
X68916790Y-84144914D02*
X68869171Y-84240152D01*
X68869171Y-84240152D02*
X68821552Y-84287771D01*
X68821552Y-84287771D02*
X68726314Y-84335390D01*
X68726314Y-84335390D02*
X68535838Y-84335390D01*
X68535838Y-84335390D02*
X68440600Y-84383009D01*
X68440600Y-84383009D02*
X68392981Y-84430628D01*
X68392981Y-84430628D02*
X68345362Y-84525866D01*
X68345362Y-84525866D02*
X68345362Y-84716342D01*
X68345362Y-84716342D02*
X68392981Y-84811580D01*
X68392981Y-84811580D02*
X68440600Y-84859200D01*
X68440600Y-84859200D02*
X68535838Y-84906819D01*
X68535838Y-84906819D02*
X68726314Y-84906819D01*
X68726314Y-84906819D02*
X68821552Y-84859200D01*
X68821552Y-84859200D02*
X68869171Y-84811580D01*
X68869171Y-84811580D02*
X68916790Y-84716342D01*
X68916790Y-84716342D02*
X68916790Y-84525866D01*
X68916790Y-84525866D02*
X68869171Y-84430628D01*
X68869171Y-84430628D02*
X68821552Y-84383009D01*
X68821552Y-84383009D02*
X68726314Y-84335390D01*
X75845523Y-101924819D02*
X75369333Y-101924819D01*
X75369333Y-101924819D02*
X75369333Y-100924819D01*
X76178857Y-101924819D02*
X76178857Y-100924819D01*
X76178857Y-100924819D02*
X76416952Y-100924819D01*
X76416952Y-100924819D02*
X76559809Y-100972438D01*
X76559809Y-100972438D02*
X76655047Y-101067676D01*
X76655047Y-101067676D02*
X76702666Y-101162914D01*
X76702666Y-101162914D02*
X76750285Y-101353390D01*
X76750285Y-101353390D02*
X76750285Y-101496247D01*
X76750285Y-101496247D02*
X76702666Y-101686723D01*
X76702666Y-101686723D02*
X76655047Y-101781961D01*
X76655047Y-101781961D02*
X76559809Y-101877200D01*
X76559809Y-101877200D02*
X76416952Y-101924819D01*
X76416952Y-101924819D02*
X76178857Y-101924819D01*
X77369333Y-100924819D02*
X77559809Y-100924819D01*
X77559809Y-100924819D02*
X77655047Y-100972438D01*
X77655047Y-100972438D02*
X77750285Y-101067676D01*
X77750285Y-101067676D02*
X77797904Y-101258152D01*
X77797904Y-101258152D02*
X77797904Y-101591485D01*
X77797904Y-101591485D02*
X77750285Y-101781961D01*
X77750285Y-101781961D02*
X77655047Y-101877200D01*
X77655047Y-101877200D02*
X77559809Y-101924819D01*
X77559809Y-101924819D02*
X77369333Y-101924819D01*
X77369333Y-101924819D02*
X77274095Y-101877200D01*
X77274095Y-101877200D02*
X77178857Y-101781961D01*
X77178857Y-101781961D02*
X77131238Y-101591485D01*
X77131238Y-101591485D02*
X77131238Y-101258152D01*
X77131238Y-101258152D02*
X77178857Y-101067676D01*
X77178857Y-101067676D02*
X77274095Y-100972438D01*
X77274095Y-100972438D02*
X77369333Y-100924819D01*
X78750285Y-101924819D02*
X78178857Y-101924819D01*
X78464571Y-101924819D02*
X78464571Y-100924819D01*
X78464571Y-100924819D02*
X78369333Y-101067676D01*
X78369333Y-101067676D02*
X78274095Y-101162914D01*
X78274095Y-101162914D02*
X78178857Y-101210533D01*
X136159105Y-77283819D02*
X135825772Y-76807628D01*
X135587677Y-77283819D02*
X135587677Y-76283819D01*
X135587677Y-76283819D02*
X135968629Y-76283819D01*
X135968629Y-76283819D02*
X136063867Y-76331438D01*
X136063867Y-76331438D02*
X136111486Y-76379057D01*
X136111486Y-76379057D02*
X136159105Y-76474295D01*
X136159105Y-76474295D02*
X136159105Y-76617152D01*
X136159105Y-76617152D02*
X136111486Y-76712390D01*
X136111486Y-76712390D02*
X136063867Y-76760009D01*
X136063867Y-76760009D02*
X135968629Y-76807628D01*
X135968629Y-76807628D02*
X135587677Y-76807628D01*
X136492439Y-76283819D02*
X137111486Y-76283819D01*
X137111486Y-76283819D02*
X136778153Y-76664771D01*
X136778153Y-76664771D02*
X136921010Y-76664771D01*
X136921010Y-76664771D02*
X137016248Y-76712390D01*
X137016248Y-76712390D02*
X137063867Y-76760009D01*
X137063867Y-76760009D02*
X137111486Y-76855247D01*
X137111486Y-76855247D02*
X137111486Y-77093342D01*
X137111486Y-77093342D02*
X137063867Y-77188580D01*
X137063867Y-77188580D02*
X137016248Y-77236200D01*
X137016248Y-77236200D02*
X136921010Y-77283819D01*
X136921010Y-77283819D02*
X136635296Y-77283819D01*
X136635296Y-77283819D02*
X136540058Y-77236200D01*
X136540058Y-77236200D02*
X136492439Y-77188580D01*
X126562705Y-89444666D02*
X126086514Y-89777999D01*
X126562705Y-90016094D02*
X125562705Y-90016094D01*
X125562705Y-90016094D02*
X125562705Y-89635142D01*
X125562705Y-89635142D02*
X125610324Y-89539904D01*
X125610324Y-89539904D02*
X125657943Y-89492285D01*
X125657943Y-89492285D02*
X125753181Y-89444666D01*
X125753181Y-89444666D02*
X125896038Y-89444666D01*
X125896038Y-89444666D02*
X125991276Y-89492285D01*
X125991276Y-89492285D02*
X126038895Y-89539904D01*
X126038895Y-89539904D02*
X126086514Y-89635142D01*
X126086514Y-89635142D02*
X126086514Y-90016094D01*
X125562705Y-89111332D02*
X125562705Y-88444666D01*
X125562705Y-88444666D02*
X126562705Y-88873237D01*
D11*
X99849172Y-69310200D02*
X99944410Y-69262580D01*
X99944410Y-69262580D02*
X100134886Y-69262580D01*
X100134886Y-69262580D02*
X100230124Y-69310200D01*
X100230124Y-69310200D02*
X100277743Y-69357819D01*
X100277743Y-69357819D02*
X100325362Y-69453057D01*
X100325362Y-69453057D02*
X100325362Y-69738771D01*
X100325362Y-69738771D02*
X100277743Y-69834009D01*
X100277743Y-69834009D02*
X100230124Y-69881628D01*
X100230124Y-69881628D02*
X100134886Y-69929247D01*
X100134886Y-69929247D02*
X99944410Y-69929247D01*
X99944410Y-69929247D02*
X99849172Y-69881628D01*
X99277743Y-69262580D02*
X99372981Y-69310200D01*
X99372981Y-69310200D02*
X99420600Y-69357819D01*
X99420600Y-69357819D02*
X99468219Y-69453057D01*
X99468219Y-69453057D02*
X99468219Y-69738771D01*
X99468219Y-69738771D02*
X99420600Y-69834009D01*
X99420600Y-69834009D02*
X99372981Y-69881628D01*
X99372981Y-69881628D02*
X99277743Y-69929247D01*
X99277743Y-69929247D02*
X99134886Y-69929247D01*
X99134886Y-69929247D02*
X99039648Y-69881628D01*
X99039648Y-69881628D02*
X98992029Y-69834009D01*
X98992029Y-69834009D02*
X98944410Y-69738771D01*
X98944410Y-69738771D02*
X98944410Y-69453057D01*
X98944410Y-69453057D02*
X98992029Y-69357819D01*
X98992029Y-69357819D02*
X99039648Y-69310200D01*
X99039648Y-69310200D02*
X99134886Y-69262580D01*
X99134886Y-69262580D02*
X99277743Y-69262580D01*
X98372981Y-69262580D02*
X98468219Y-69310200D01*
X98468219Y-69310200D02*
X98515838Y-69405438D01*
X98515838Y-69405438D02*
X98515838Y-70262580D01*
X97849171Y-69262580D02*
X97944409Y-69310200D01*
X97944409Y-69310200D02*
X97992028Y-69357819D01*
X97992028Y-69357819D02*
X98039647Y-69453057D01*
X98039647Y-69453057D02*
X98039647Y-69738771D01*
X98039647Y-69738771D02*
X97992028Y-69834009D01*
X97992028Y-69834009D02*
X97944409Y-69881628D01*
X97944409Y-69881628D02*
X97849171Y-69929247D01*
X97849171Y-69929247D02*
X97706314Y-69929247D01*
X97706314Y-69929247D02*
X97611076Y-69881628D01*
X97611076Y-69881628D02*
X97563457Y-69834009D01*
X97563457Y-69834009D02*
X97515838Y-69738771D01*
X97515838Y-69738771D02*
X97515838Y-69453057D01*
X97515838Y-69453057D02*
X97563457Y-69357819D01*
X97563457Y-69357819D02*
X97611076Y-69310200D01*
X97611076Y-69310200D02*
X97706314Y-69262580D01*
X97706314Y-69262580D02*
X97849171Y-69262580D01*
X97087266Y-69262580D02*
X97087266Y-69929247D01*
X97087266Y-69738771D02*
X97039647Y-69834009D01*
X97039647Y-69834009D02*
X96992028Y-69881628D01*
X96992028Y-69881628D02*
X96896790Y-69929247D01*
X96896790Y-69929247D02*
X96801552Y-69929247D01*
X95944409Y-69262580D02*
X96515837Y-69262580D01*
X96230123Y-69262580D02*
X96230123Y-70262580D01*
X96230123Y-70262580D02*
X96325361Y-70119723D01*
X96325361Y-70119723D02*
X96420599Y-70024485D01*
X96420599Y-70024485D02*
X96515837Y-69976866D01*
D12*
%TO.C,R5*%
X132918386Y-88896276D02*
X132918386Y-89405724D01*
X133963386Y-88896276D02*
X133963386Y-89405724D01*
%TO.C,R14*%
X90768162Y-83929500D02*
X91277610Y-83929500D01*
X90768162Y-84974500D02*
X91277610Y-84974500D01*
%TO.C,R16*%
X80735162Y-83929500D02*
X81244610Y-83929500D01*
X80735162Y-84974500D02*
X81244610Y-84974500D01*
%TO.C,R4*%
X136488162Y-86215500D02*
X136997610Y-86215500D01*
X136488162Y-87260500D02*
X136997610Y-87260500D01*
%TO.C,R17*%
X73101386Y-89023276D02*
X73101386Y-89532724D01*
X74146386Y-89023276D02*
X74146386Y-89532724D01*
%TO.C,C2*%
X69430886Y-99076267D02*
X69430886Y-98783733D01*
X70450886Y-99076267D02*
X70450886Y-98783733D01*
%TO.C,J3*%
X113060886Y-70930000D02*
X113060886Y-72260000D01*
X113060886Y-73530000D02*
X113060886Y-81210000D01*
X114390886Y-70930000D02*
X113060886Y-70930000D01*
X115660886Y-70930000D02*
X115660886Y-73530000D01*
X115660886Y-73530000D02*
X113060886Y-73530000D01*
X118260886Y-70930000D02*
X115660886Y-70930000D01*
X118260886Y-70930000D02*
X118260886Y-81210000D01*
X118260886Y-81210000D02*
X113060886Y-81210000D01*
%TO.C,R11*%
X103708386Y-89023276D02*
X103708386Y-89532724D01*
X104753386Y-89023276D02*
X104753386Y-89532724D01*
%TO.C,R19*%
X61417386Y-88872776D02*
X61417386Y-89382224D01*
X62462386Y-88872776D02*
X62462386Y-89382224D01*
%TO.C,R23*%
X45415386Y-80768276D02*
X45415386Y-81277724D01*
X46460386Y-80768276D02*
X46460386Y-81277724D01*
D11*
%TO.C,ToF2*%
X49239886Y-47368000D02*
X49239886Y-57528000D01*
X74639886Y-47368000D02*
X49239886Y-47368000D01*
X74639886Y-47368000D02*
X74639886Y-57528000D01*
X74639886Y-57528000D02*
X49239886Y-57528000D01*
X65749886Y-56258000D02*
X58129886Y-56258000D01*
X58129886Y-51178000D01*
X65749886Y-51178000D01*
X65749886Y-56258000D01*
D12*
%TO.C,R21*%
X52908386Y-89023276D02*
X52908386Y-89532724D01*
X53953386Y-89023276D02*
X53953386Y-89532724D01*
%TO.C,R12*%
X101182162Y-83929500D02*
X101691610Y-83929500D01*
X101182162Y-84974500D02*
X101691610Y-84974500D01*
%TO.C,C1*%
X84140886Y-98057000D02*
X82600886Y-98057000D01*
X84140886Y-98097000D02*
X82600886Y-98097000D01*
X84140886Y-98137000D02*
X82601886Y-98137000D01*
X84140886Y-98177000D02*
X82602886Y-98177000D01*
X84140886Y-98217000D02*
X82604886Y-98217000D01*
X84140886Y-98257000D02*
X82607886Y-98257000D01*
X84140886Y-98297000D02*
X82611886Y-98297000D01*
X84140886Y-98337000D02*
X82615886Y-98337000D01*
X84140886Y-98377000D02*
X82619886Y-98377000D01*
X84140886Y-98417000D02*
X82624886Y-98417000D01*
X84140886Y-98457000D02*
X82630886Y-98457000D01*
X84140886Y-98497000D02*
X82637886Y-98497000D01*
X84140886Y-98537000D02*
X82644886Y-98537000D01*
X84140886Y-98577000D02*
X82652886Y-98577000D01*
X84140886Y-98617000D02*
X82660886Y-98617000D01*
X84140886Y-98657000D02*
X82669886Y-98657000D01*
X84140886Y-98697000D02*
X82679886Y-98697000D01*
X84140886Y-98737000D02*
X82689886Y-98737000D01*
X84140886Y-98778000D02*
X82700886Y-98778000D01*
X84140886Y-98818000D02*
X82712886Y-98818000D01*
X84140886Y-98858000D02*
X82725886Y-98858000D01*
X84140886Y-98898000D02*
X82738886Y-98898000D01*
X84140886Y-98938000D02*
X82752886Y-98938000D01*
X84140886Y-98978000D02*
X82766886Y-98978000D01*
X84140886Y-99018000D02*
X82782886Y-99018000D01*
X84140886Y-99058000D02*
X82798886Y-99058000D01*
X84140886Y-99098000D02*
X82815886Y-99098000D01*
X84140886Y-99138000D02*
X82832886Y-99138000D01*
X84140886Y-99178000D02*
X82851886Y-99178000D01*
X84140886Y-99218000D02*
X82870886Y-99218000D01*
X84140886Y-99258000D02*
X82890886Y-99258000D01*
X84140886Y-99298000D02*
X82912886Y-99298000D01*
X84140886Y-99338000D02*
X82933886Y-99338000D01*
X84140886Y-99378000D02*
X82956886Y-99378000D01*
X84140886Y-99418000D02*
X82980886Y-99418000D01*
X84140886Y-99458000D02*
X83005886Y-99458000D01*
X84140886Y-99498000D02*
X83031886Y-99498000D01*
X84140886Y-99538000D02*
X83058886Y-99538000D01*
X84140886Y-99578000D02*
X83085886Y-99578000D01*
X84140886Y-99618000D02*
X83115886Y-99618000D01*
X84140886Y-99658000D02*
X83145886Y-99658000D01*
X84140886Y-99698000D02*
X83176886Y-99698000D01*
X84140886Y-99738000D02*
X83209886Y-99738000D01*
X84140886Y-99778000D02*
X83243886Y-99778000D01*
X84140886Y-99818000D02*
X83279886Y-99818000D01*
X84140886Y-99858000D02*
X83316886Y-99858000D01*
X84140886Y-99898000D02*
X83354886Y-99898000D01*
X84140886Y-99938000D02*
X83395886Y-99938000D01*
X84140886Y-99978000D02*
X83437886Y-99978000D01*
X84140886Y-100018000D02*
X83481886Y-100018000D01*
X84140886Y-100058000D02*
X83527886Y-100058000D01*
X85464886Y-100658000D02*
X84896886Y-100658000D01*
X85698886Y-100618000D02*
X84662886Y-100618000D01*
X85857886Y-100578000D02*
X84503886Y-100578000D01*
X85985886Y-100538000D02*
X84375886Y-100538000D01*
X86095886Y-100498000D02*
X84265886Y-100498000D01*
X86191886Y-100458000D02*
X84169886Y-100458000D01*
X86278886Y-100418000D02*
X84082886Y-100418000D01*
X86358886Y-100378000D02*
X84002886Y-100378000D01*
X86431886Y-100338000D02*
X83929886Y-100338000D01*
X86499886Y-100298000D02*
X83861886Y-100298000D01*
X86563886Y-100258000D02*
X83797886Y-100258000D01*
X86623886Y-100218000D02*
X83737886Y-100218000D01*
X86655886Y-95252225D02*
X86655886Y-95752225D01*
X86680886Y-100178000D02*
X83680886Y-100178000D01*
X86734886Y-100138000D02*
X83626886Y-100138000D01*
X86785886Y-100098000D02*
X83575886Y-100098000D01*
X86833886Y-100058000D02*
X86220886Y-100058000D01*
X86879886Y-100018000D02*
X86220886Y-100018000D01*
X86905886Y-95502225D02*
X86405886Y-95502225D01*
X86923886Y-99978000D02*
X86220886Y-99978000D01*
X86965886Y-99938000D02*
X86220886Y-99938000D01*
X87006886Y-99898000D02*
X86220886Y-99898000D01*
X87044886Y-99858000D02*
X86220886Y-99858000D01*
X87081886Y-99818000D02*
X86220886Y-99818000D01*
X87117886Y-99778000D02*
X86220886Y-99778000D01*
X87151886Y-99738000D02*
X86220886Y-99738000D01*
X87184886Y-99698000D02*
X86220886Y-99698000D01*
X87215886Y-99658000D02*
X86220886Y-99658000D01*
X87245886Y-99618000D02*
X86220886Y-99618000D01*
X87275886Y-99578000D02*
X86220886Y-99578000D01*
X87302886Y-99538000D02*
X86220886Y-99538000D01*
X87329886Y-99498000D02*
X86220886Y-99498000D01*
X87355886Y-99458000D02*
X86220886Y-99458000D01*
X87380886Y-99418000D02*
X86220886Y-99418000D01*
X87404886Y-99378000D02*
X86220886Y-99378000D01*
X87427886Y-99338000D02*
X86220886Y-99338000D01*
X87448886Y-99298000D02*
X86220886Y-99298000D01*
X87470886Y-99258000D02*
X86220886Y-99258000D01*
X87490886Y-99218000D02*
X86220886Y-99218000D01*
X87509886Y-99178000D02*
X86220886Y-99178000D01*
X87528886Y-99138000D02*
X86220886Y-99138000D01*
X87545886Y-99098000D02*
X86220886Y-99098000D01*
X87562886Y-99058000D02*
X86220886Y-99058000D01*
X87578886Y-99018000D02*
X86220886Y-99018000D01*
X87594886Y-98978000D02*
X86220886Y-98978000D01*
X87608886Y-98938000D02*
X86220886Y-98938000D01*
X87622886Y-98898000D02*
X86220886Y-98898000D01*
X87635886Y-98858000D02*
X86220886Y-98858000D01*
X87648886Y-98818000D02*
X86220886Y-98818000D01*
X87660886Y-98778000D02*
X86220886Y-98778000D01*
X87671886Y-98737000D02*
X86220886Y-98737000D01*
X87681886Y-98697000D02*
X86220886Y-98697000D01*
X87691886Y-98657000D02*
X86220886Y-98657000D01*
X87700886Y-98617000D02*
X86220886Y-98617000D01*
X87708886Y-98577000D02*
X86220886Y-98577000D01*
X87716886Y-98537000D02*
X86220886Y-98537000D01*
X87723886Y-98497000D02*
X86220886Y-98497000D01*
X87730886Y-98457000D02*
X86220886Y-98457000D01*
X87736886Y-98417000D02*
X86220886Y-98417000D01*
X87741886Y-98377000D02*
X86220886Y-98377000D01*
X87745886Y-98337000D02*
X86220886Y-98337000D01*
X87749886Y-98297000D02*
X86220886Y-98297000D01*
X87753886Y-98257000D02*
X86220886Y-98257000D01*
X87756886Y-98217000D02*
X86220886Y-98217000D01*
X87758886Y-98177000D02*
X86220886Y-98177000D01*
X87759886Y-98137000D02*
X86220886Y-98137000D01*
X87760886Y-98057000D02*
X86220886Y-98057000D01*
X87760886Y-98097000D02*
X86220886Y-98097000D01*
X87800886Y-98057000D02*
G75*
G02*
X82560886Y-98057000I-2620000J0D01*
G01*
X82560886Y-98057000D02*
G75*
G02*
X87800886Y-98057000I2620000J0D01*
G01*
%TO.C,R10*%
X111342162Y-83929500D02*
X111851610Y-83929500D01*
X111342162Y-84974500D02*
X111851610Y-84974500D01*
%TO.C,R15*%
X83261386Y-89023276D02*
X83261386Y-89532724D01*
X84306386Y-89023276D02*
X84306386Y-89532724D01*
%TO.C,R2*%
X120843662Y-79357500D02*
X121353110Y-79357500D01*
X120843662Y-80402500D02*
X121353110Y-80402500D01*
%TO.C,R24*%
X43905162Y-77579500D02*
X44414610Y-77579500D01*
X43905162Y-78624500D02*
X44414610Y-78624500D01*
%TO.C,R13*%
X93548386Y-89023276D02*
X93548386Y-89532724D01*
X94593386Y-89023276D02*
X94593386Y-89532724D01*
%TO.C,R8*%
X121478662Y-83929500D02*
X121988110Y-83929500D01*
X121478662Y-84974500D02*
X121988110Y-84974500D01*
%TO.C,J2*%
X59720886Y-72835000D02*
X59720886Y-80575000D01*
X59720886Y-72835000D02*
X62320886Y-72835000D01*
X59720886Y-80575000D02*
X64920886Y-80575000D01*
X62320886Y-72835000D02*
X62320886Y-75435000D01*
X62320886Y-75435000D02*
X64920886Y-75435000D01*
X63590886Y-72835000D02*
X64920886Y-72835000D01*
X64920886Y-72835000D02*
X64920886Y-74165000D01*
X64920886Y-75435000D02*
X64920886Y-80575000D01*
D11*
%TO.C,ToF1*%
X102579886Y-47368000D02*
X102579886Y-57528000D01*
X127979886Y-47368000D02*
X102579886Y-47368000D01*
X127979886Y-47368000D02*
X127979886Y-57528000D01*
X127979886Y-57528000D02*
X102579886Y-57528000D01*
X119089886Y-56258000D02*
X111469886Y-56258000D01*
X111469886Y-51178000D01*
X119089886Y-51178000D01*
X119089886Y-56258000D01*
D12*
%TO.C,R6*%
X130266610Y-83929500D02*
X129757162Y-83929500D01*
X130266610Y-84974500D02*
X129757162Y-84974500D01*
%TO.C,R22*%
X50255162Y-83929500D02*
X50764610Y-83929500D01*
X50255162Y-84974500D02*
X50764610Y-84974500D01*
%TO.C,J1*%
X76230886Y-105220000D02*
X101750886Y-105220000D01*
X76230886Y-107820000D02*
X76230886Y-105220000D01*
X76230886Y-110420000D02*
X76230886Y-109090000D01*
X77560886Y-110420000D02*
X76230886Y-110420000D01*
X78830886Y-107820000D02*
X76230886Y-107820000D01*
X78830886Y-110420000D02*
X78830886Y-107820000D01*
X78830886Y-110420000D02*
X101750886Y-110420000D01*
X101750886Y-110420000D02*
X101750886Y-105220000D01*
%TO.C,J4*%
X112679886Y-58230000D02*
X114009886Y-58230000D01*
X112679886Y-59560000D02*
X112679886Y-58230000D01*
X112679886Y-60830000D02*
X112679886Y-68510000D01*
X112679886Y-60830000D02*
X115279886Y-60830000D01*
X112679886Y-68510000D02*
X117879886Y-68510000D01*
X115279886Y-58230000D02*
X117879886Y-58230000D01*
X115279886Y-60830000D02*
X115279886Y-58230000D01*
X117879886Y-58230000D02*
X117879886Y-68510000D01*
%TO.C,FB1*%
X69055886Y-106560000D02*
X69205886Y-106560000D01*
X69055886Y-109080000D02*
X69055886Y-106560000D01*
X69055886Y-109080000D02*
X69205886Y-109080000D01*
X70825886Y-106560000D02*
X70675886Y-106560000D01*
X70825886Y-109080000D02*
X70675886Y-109080000D01*
X70825886Y-109080000D02*
X70825886Y-106560000D01*
%TO.C,R9*%
X113868386Y-88999776D02*
X113868386Y-89509224D01*
X114913386Y-88999776D02*
X114913386Y-89509224D01*
%TO.C,R1*%
X120843662Y-77325500D02*
X121353110Y-77325500D01*
X120843662Y-78370500D02*
X121353110Y-78370500D01*
%TO.C,R20*%
X60415162Y-83929500D02*
X60924610Y-83929500D01*
X60415162Y-84974500D02*
X60924610Y-84974500D01*
%TO.C,J5*%
X59339886Y-60135000D02*
X59339886Y-67875000D01*
X59339886Y-60135000D02*
X60669886Y-60135000D01*
X59339886Y-61465000D02*
X59339886Y-60135000D01*
X61939886Y-60135000D02*
X59339886Y-60135000D01*
X61939886Y-62735000D02*
X61939886Y-60135000D01*
X64539886Y-62735000D02*
X61939886Y-62735000D01*
X64539886Y-62735000D02*
X64539886Y-67875000D01*
X64539886Y-67875000D02*
X59339886Y-67875000D01*
%TO.C,R18*%
X70575162Y-83929500D02*
X71084610Y-83929500D01*
X70575162Y-84974500D02*
X71084610Y-84974500D01*
%TO.C,LDO1*%
X71371886Y-95840000D02*
X71371886Y-100481000D01*
X71371886Y-95840000D02*
X81611886Y-95840000D01*
X71371886Y-97350000D02*
X81611886Y-97350000D01*
X71371886Y-100481000D02*
X81611886Y-100481000D01*
X74641886Y-95840000D02*
X74641886Y-97350000D01*
X78341886Y-95840000D02*
X78341886Y-97350000D01*
X81611886Y-95840000D02*
X81611886Y-100481000D01*
%TO.C,R3*%
X136616610Y-77579500D02*
X136107162Y-77579500D01*
X136616610Y-78624500D02*
X136107162Y-78624500D01*
%TO.C,R7*%
X124155386Y-89023276D02*
X124155386Y-89532724D01*
X125200386Y-89023276D02*
X125200386Y-89532724D01*
%TD*%
%LPC*%
D13*
%TO.C,REF\u002A\u002A*%
X128614886Y-79626000D03*
%TD*%
%TO.C,REF\u002A\u002A*%
X52160886Y-79626000D03*
%TD*%
D14*
%TO.C,R5*%
X133440886Y-88238500D03*
X133440886Y-90063500D03*
%TD*%
D15*
%TO.C,R14*%
X90110386Y-84452000D03*
X91935386Y-84452000D03*
%TD*%
%TO.C,R16*%
X80077386Y-84452000D03*
X81902386Y-84452000D03*
%TD*%
%TO.C,R4*%
X135830386Y-86738000D03*
X137655386Y-86738000D03*
%TD*%
D14*
%TO.C,R17*%
X73623886Y-88365500D03*
X73623886Y-90190500D03*
%TD*%
D16*
%TO.C,C2*%
X69940886Y-99792500D03*
X69940886Y-98067500D03*
%TD*%
D17*
%TO.C,J3*%
X114390886Y-72260000D03*
D18*
X114390886Y-74800000D03*
X114390886Y-77340000D03*
X114390886Y-79880000D03*
X116930886Y-79880000D03*
X116930886Y-77340000D03*
X116930886Y-74800000D03*
X116930886Y-72260000D03*
%TD*%
D14*
%TO.C,R11*%
X104230886Y-88365500D03*
X104230886Y-90190500D03*
%TD*%
%TO.C,R19*%
X61939886Y-88215000D03*
X61939886Y-90040000D03*
%TD*%
%TO.C,R23*%
X45937886Y-80110500D03*
X45937886Y-81935500D03*
%TD*%
D19*
%TO.C,ToF2*%
X64479886Y-52448000D03*
X64479886Y-54988000D03*
X61939886Y-52448000D03*
X61939886Y-54988000D03*
X59399886Y-52448000D03*
X59399886Y-54988000D03*
%TD*%
D14*
%TO.C,R21*%
X53430886Y-88365500D03*
X53430886Y-90190500D03*
%TD*%
D15*
%TO.C,R12*%
X100524386Y-84452000D03*
X102349386Y-84452000D03*
%TD*%
D20*
%TO.C,C1*%
X85180886Y-97057000D03*
D21*
X85180886Y-99057000D03*
%TD*%
D15*
%TO.C,R10*%
X110684386Y-84452000D03*
X112509386Y-84452000D03*
%TD*%
D14*
%TO.C,R15*%
X83783886Y-88365500D03*
X83783886Y-90190500D03*
%TD*%
D15*
%TO.C,R2*%
X120185886Y-79880000D03*
X122010886Y-79880000D03*
%TD*%
%TO.C,R24*%
X43247386Y-78102000D03*
X45072386Y-78102000D03*
%TD*%
D14*
%TO.C,R13*%
X94070886Y-88365500D03*
X94070886Y-90190500D03*
%TD*%
D15*
%TO.C,R8*%
X120820886Y-84452000D03*
X122645886Y-84452000D03*
%TD*%
D17*
%TO.C,J2*%
X63590886Y-74165000D03*
D18*
X61050886Y-74165000D03*
X63590886Y-76705000D03*
X61050886Y-76705000D03*
X63590886Y-79245000D03*
X61050886Y-79245000D03*
%TD*%
D19*
%TO.C,ToF1*%
X117819886Y-52448000D03*
X117819886Y-54988000D03*
X115279886Y-52448000D03*
X115279886Y-54988000D03*
X112739886Y-52448000D03*
X112739886Y-54988000D03*
%TD*%
D22*
%TO.C,R6*%
X130924386Y-84452000D03*
X129099386Y-84452000D03*
%TD*%
D15*
%TO.C,R22*%
X49597386Y-84452000D03*
X51422386Y-84452000D03*
%TD*%
D17*
%TO.C,J1*%
X77560886Y-109090000D03*
D18*
X80100886Y-109090000D03*
X82640886Y-109090000D03*
X85180886Y-109090000D03*
X87720886Y-109090000D03*
X90260886Y-109090000D03*
X92800886Y-109090000D03*
X95340886Y-109090000D03*
X97880886Y-109090000D03*
X100420886Y-109090000D03*
X77560886Y-106550000D03*
X80100886Y-106550000D03*
X82640886Y-106550000D03*
X85180886Y-106550000D03*
X87720886Y-106550000D03*
X90260886Y-106550000D03*
X92800886Y-106550000D03*
X95340886Y-106550000D03*
X97880886Y-106550000D03*
X100420886Y-106550000D03*
%TD*%
D17*
%TO.C,J4*%
X114009886Y-59560000D03*
D18*
X114009886Y-62100000D03*
X114009886Y-64640000D03*
X114009886Y-67180000D03*
X116549886Y-67180000D03*
X116549886Y-64640000D03*
X116549886Y-62100000D03*
X116549886Y-59560000D03*
%TD*%
D23*
%TO.C,FB1*%
X69940886Y-108970000D03*
X69940886Y-106670000D03*
%TD*%
D14*
%TO.C,R9*%
X114390886Y-88342000D03*
X114390886Y-90167000D03*
%TD*%
D15*
%TO.C,R1*%
X120185886Y-77848000D03*
X122010886Y-77848000D03*
%TD*%
%TO.C,R20*%
X59757386Y-84452000D03*
X61582386Y-84452000D03*
%TD*%
D17*
%TO.C,J5*%
X63209886Y-61465000D03*
D18*
X60669886Y-61465000D03*
X63209886Y-64005000D03*
X60669886Y-64005000D03*
X63209886Y-66545000D03*
X60669886Y-66545000D03*
%TD*%
D15*
%TO.C,R18*%
X69917386Y-84452000D03*
X71742386Y-84452000D03*
%TD*%
D24*
%TO.C,LDO1*%
X72681886Y-99110000D03*
D25*
X75221886Y-99110000D03*
X77761886Y-99110000D03*
X80301886Y-99110000D03*
%TD*%
D22*
%TO.C,R3*%
X137274386Y-78102000D03*
X135449386Y-78102000D03*
%TD*%
D14*
%TO.C,R7*%
X124677886Y-88365500D03*
X124677886Y-90190500D03*
%TD*%
D26*
%TO.C,A9*%
X57220886Y-90170000D03*
D27*
X59720886Y-90170000D03*
X59720886Y-87370000D03*
X57220886Y-87370000D03*
%TD*%
D19*
%TO.C,color2*%
X87466886Y-67180000D03*
X87466886Y-64640000D03*
X87466886Y-62100000D03*
X87466886Y-59560000D03*
X84926886Y-67180000D03*
X84926886Y-64640000D03*
X84926886Y-62100000D03*
X84926886Y-59560000D03*
%TD*%
D26*
%TO.C,A6*%
X87740886Y-90170000D03*
D27*
X90240886Y-90170000D03*
X90240886Y-87370000D03*
X87740886Y-87370000D03*
%TD*%
D26*
%TO.C,A10*%
X47060886Y-90170000D03*
D27*
X49560886Y-90170000D03*
X49560886Y-87370000D03*
X47060886Y-87370000D03*
%TD*%
D26*
%TO.C,A5*%
X97940886Y-90170000D03*
D27*
X100440886Y-90170000D03*
X100440886Y-87370000D03*
X97940886Y-87370000D03*
%TD*%
D26*
%TO.C,A8*%
X67380886Y-90170000D03*
D27*
X69880886Y-90170000D03*
X69880886Y-87370000D03*
X67380886Y-87370000D03*
%TD*%
D26*
%TO.C,A1*%
X134770886Y-83820000D03*
D27*
X137270886Y-83820000D03*
X137270886Y-81020000D03*
X134770886Y-81020000D03*
%TD*%
D26*
%TO.C,A7*%
X77580886Y-90170000D03*
D27*
X80080886Y-90170000D03*
X80080886Y-87370000D03*
X77580886Y-87370000D03*
%TD*%
D19*
%TO.C,color1*%
X90514886Y-59560000D03*
X90514886Y-62100000D03*
X90514886Y-64640000D03*
X90514886Y-67180000D03*
X93054886Y-59560000D03*
X93054886Y-62100000D03*
X93054886Y-64640000D03*
X93054886Y-67180000D03*
%TD*%
D26*
%TO.C,A11*%
X40750886Y-83820000D03*
D27*
X43250886Y-83820000D03*
X43250886Y-81020000D03*
X40750886Y-81020000D03*
%TD*%
D26*
%TO.C,A2*%
X128460886Y-90170000D03*
D27*
X130960886Y-90170000D03*
X130960886Y-87370000D03*
X128460886Y-87370000D03*
%TD*%
D26*
%TO.C,A3*%
X118260886Y-90170000D03*
D27*
X120760886Y-90170000D03*
X120760886Y-87370000D03*
X118260886Y-87370000D03*
%TD*%
D26*
%TO.C,A4*%
X108100886Y-90170000D03*
D27*
X110600886Y-90170000D03*
X110600886Y-87370000D03*
X108100886Y-87370000D03*
%TD*%
%LPD*%
M02*
