%TF.GenerationSoftware,KiCad,Pcbnew,8.0.5*%
%TF.CreationDate,2024-10-04T10:03:27+09:00*%
%TF.ProjectId,_____,e9a4f3fa-7f2e-46b6-9963-61645f706362,rev?*%
%TF.SameCoordinates,Original*%
%TF.FileFunction,Profile,NP*%
%FSLAX46Y46*%
G04 Gerber Fmt 4.6, Leading zero omitted, Abs format (unit mm)*
G04 Created by KiCad (PCBNEW 8.0.5) date 2024-10-04 10:03:27*
%MOMM*%
%LPD*%
G01*
G04 APERTURE LIST*
%TA.AperFunction,Profile*%
%ADD10C,0.100000*%
%TD*%
%TA.AperFunction,Profile*%
%ADD11C,0.050000*%
%TD*%
G04 APERTURE END LIST*
D10*
X102579886Y-54607000D02*
X106516886Y-54607000D01*
X69940886Y-81785000D02*
G75*
G02*
X65749900Y-77594000I14J4191000D01*
G01*
X58510886Y-100200000D02*
X66130886Y-100200000D01*
X65749886Y-76070000D02*
X65749886Y-77594000D01*
X112231886Y-70355000D02*
X112231886Y-69085000D01*
X70702886Y-50670000D02*
X57875886Y-50670000D01*
X65749886Y-72006000D02*
X65749886Y-76070000D01*
X112231886Y-70355000D02*
X112231886Y-77594000D01*
X58891886Y-76070000D02*
X58891886Y-72006000D01*
X138774886Y-93215000D02*
X138774886Y-76070000D01*
X119470886Y-50670000D02*
X119470886Y-69085000D01*
X106516886Y-54607000D02*
X106516886Y-50670000D01*
X65749886Y-72006000D02*
X65749886Y-69085000D01*
X112231886Y-77594000D02*
G75*
G02*
X108040886Y-81784986I-4190986J0D01*
G01*
X111850886Y-112265000D02*
X111850886Y-100200000D01*
X117422886Y-69720000D02*
G75*
G02*
X116422886Y-69720000I-500000J0D01*
G01*
X116422886Y-69720000D02*
G75*
G02*
X117422886Y-69720000I500000J0D01*
G01*
X138774886Y-93215000D02*
X119470886Y-93215000D01*
X70702886Y-54607000D02*
X74639886Y-54607000D01*
X112300086Y-50060400D02*
G75*
G02*
X111300086Y-50060400I-500000J0D01*
G01*
X111300086Y-50060400D02*
G75*
G02*
X112300086Y-50060400I500000J0D01*
G01*
X57875886Y-69085000D02*
X58891886Y-69085000D01*
X57875886Y-69085000D02*
X57875886Y-50670000D01*
X115238486Y-50111200D02*
G75*
G02*
X114238486Y-50111200I-500000J0D01*
G01*
X114238486Y-50111200D02*
G75*
G02*
X115238486Y-50111200I500000J0D01*
G01*
X119470886Y-49501600D02*
X119470886Y-50670000D01*
X119470886Y-100200000D02*
X111850886Y-100200000D01*
X106516886Y-50670000D02*
X106516886Y-49501600D01*
X69940886Y-81785000D02*
X108040886Y-81785000D01*
X117896086Y-50060400D02*
G75*
G02*
X116896086Y-50060400I-500000J0D01*
G01*
X116896086Y-50060400D02*
G75*
G02*
X117896086Y-50060400I500000J0D01*
G01*
X58510886Y-93215000D02*
X58510886Y-100200000D01*
X88990886Y-112265000D02*
X66130886Y-112265000D01*
X102579886Y-54607000D02*
X74639886Y-54607000D01*
X109294886Y-50009600D02*
G75*
G02*
X108294886Y-50009600I-500000J0D01*
G01*
X108294886Y-50009600D02*
G75*
G02*
X109294886Y-50009600I500000J0D01*
G01*
X65749886Y-69085000D02*
X112231886Y-69085000D01*
X119089886Y-69085000D02*
X119470886Y-69085000D01*
X114898886Y-69720000D02*
G75*
G02*
X113898886Y-69720000I-500000J0D01*
G01*
X113898886Y-69720000D02*
G75*
G02*
X114898886Y-69720000I500000J0D01*
G01*
X119470886Y-93215000D02*
X119470886Y-100200000D01*
X119089886Y-70355000D02*
X119089886Y-74419000D01*
X64082886Y-70482000D02*
G75*
G02*
X63082886Y-70482000I-500000J0D01*
G01*
X63082886Y-70482000D02*
G75*
G02*
X64082886Y-70482000I500000J0D01*
G01*
X88990886Y-112265000D02*
X111850886Y-112265000D01*
X61542886Y-70482000D02*
G75*
G02*
X60542886Y-70482000I-500000J0D01*
G01*
X60542886Y-70482000D02*
G75*
G02*
X61542886Y-70482000I500000J0D01*
G01*
X39206886Y-93215000D02*
X39206886Y-76070000D01*
X58891886Y-72006000D02*
X58891886Y-69085000D01*
X70702886Y-54607000D02*
X70702886Y-50670000D01*
X39206886Y-76070000D02*
X58891886Y-76070000D01*
X119089886Y-70355000D02*
X119089886Y-69085000D01*
X66130886Y-112265000D02*
X66130886Y-100200000D01*
X138774886Y-76070000D02*
X119089886Y-76070000D01*
X58510886Y-93215000D02*
X39206886Y-93215000D01*
X119089886Y-74419000D02*
X119089886Y-76070000D01*
X119470886Y-49501600D02*
X119470886Y-35277600D01*
X92546886Y-35277600D02*
X92546886Y-49501600D01*
X106516886Y-49501600D02*
X92546886Y-49501600D01*
X119470886Y-35277600D02*
X92546886Y-35277600D01*
%TO.C,ENC1*%
D11*
X104288886Y-37890600D02*
X106488886Y-37890600D01*
X106488886Y-35690600D01*
X104288886Y-35690600D01*
X104288886Y-37890600D01*
X104288886Y-49090600D02*
X106488886Y-49090600D01*
X106488886Y-46890600D01*
X104288886Y-46890600D01*
X104288886Y-49090600D01*
%TD*%
M02*
