%TF.GenerationSoftware,KiCad,Pcbnew,8.0.5*%
%TF.CreationDate,2024-10-04T10:03:27+09:00*%
%TF.ProjectId,_____,e9a4f3fa-7f2e-46b6-9963-61645f706362,rev?*%
%TF.SameCoordinates,Original*%
%TF.FileFunction,Soldermask,Top*%
%TF.FilePolarity,Negative*%
%FSLAX46Y46*%
G04 Gerber Fmt 4.6, Leading zero omitted, Abs format (unit mm)*
G04 Created by KiCad (PCBNEW 8.0.5) date 2024-10-04 10:03:27*
%MOMM*%
%LPD*%
G01*
G04 APERTURE LIST*
G04 Aperture macros list*
%AMRoundRect*
0 Rectangle with rounded corners*
0 $1 Rounding radius*
0 $2 $3 $4 $5 $6 $7 $8 $9 X,Y pos of 4 corners*
0 Add a 4 corners polygon primitive as box body*
4,1,4,$2,$3,$4,$5,$6,$7,$8,$9,$2,$3,0*
0 Add four circle primitives for the rounded corners*
1,1,$1+$1,$2,$3*
1,1,$1+$1,$4,$5*
1,1,$1+$1,$6,$7*
1,1,$1+$1,$8,$9*
0 Add four rect primitives between the rounded corners*
20,1,$1+$1,$2,$3,$4,$5,0*
20,1,$1+$1,$4,$5,$6,$7,0*
20,1,$1+$1,$6,$7,$8,$9,0*
20,1,$1+$1,$8,$9,$2,$3,0*%
G04 Aperture macros list end*
%ADD10RoundRect,0.237500X-0.237500X0.250000X-0.237500X-0.250000X0.237500X-0.250000X0.237500X0.250000X0*%
%ADD11RoundRect,0.237500X-0.250000X-0.237500X0.250000X-0.237500X0.250000X0.237500X-0.250000X0.237500X0*%
%ADD12C,5.600000*%
%ADD13RoundRect,0.237500X0.237500X-0.300000X0.237500X0.300000X-0.237500X0.300000X-0.237500X-0.300000X0*%
%ADD14R,1.700000X1.700000*%
%ADD15O,1.700000X1.700000*%
%ADD16C,1.524000*%
%ADD17R,1.600000X1.600000*%
%ADD18C,1.600000*%
%ADD19RoundRect,0.237500X0.250000X0.237500X-0.250000X0.237500X-0.250000X-0.237500X0.250000X-0.237500X0*%
%ADD20R,0.950000X1.200000*%
%ADD21R,1.905000X2.000000*%
%ADD22O,1.905000X2.000000*%
%ADD23RoundRect,0.102000X0.750000X-0.750000X0.750000X0.750000X-0.750000X0.750000X-0.750000X-0.750000X0*%
%ADD24C,1.704000*%
%ADD25C,1.750000*%
G04 APERTURE END LIST*
D10*
%TO.C,R5*%
X133440886Y-88238500D03*
X133440886Y-90063500D03*
%TD*%
D11*
%TO.C,R14*%
X90110386Y-84452000D03*
X91935386Y-84452000D03*
%TD*%
%TO.C,R16*%
X80077386Y-84452000D03*
X81902386Y-84452000D03*
%TD*%
D12*
%TO.C,REF\u002A\u002A*%
X128614886Y-79626000D03*
%TD*%
D11*
%TO.C,R4*%
X135830386Y-86738000D03*
X137655386Y-86738000D03*
%TD*%
D10*
%TO.C,R17*%
X73623886Y-88365500D03*
X73623886Y-90190500D03*
%TD*%
D12*
%TO.C,REF\u002A\u002A*%
X52160886Y-79626000D03*
%TD*%
D13*
%TO.C,C2*%
X69940886Y-99792500D03*
X69940886Y-98067500D03*
%TD*%
D14*
%TO.C,J3*%
X114390886Y-72260000D03*
D15*
X114390886Y-74800000D03*
X114390886Y-77340000D03*
X114390886Y-79880000D03*
X116930886Y-79880000D03*
X116930886Y-77340000D03*
X116930886Y-74800000D03*
X116930886Y-72260000D03*
%TD*%
D10*
%TO.C,R11*%
X104230886Y-88365500D03*
X104230886Y-90190500D03*
%TD*%
%TO.C,R19*%
X61939886Y-88215000D03*
X61939886Y-90040000D03*
%TD*%
%TO.C,R23*%
X45937886Y-80110500D03*
X45937886Y-81935500D03*
%TD*%
D16*
%TO.C,ToF2*%
X64479886Y-52448000D03*
X64479886Y-54988000D03*
X61939886Y-52448000D03*
X61939886Y-54988000D03*
X59399886Y-52448000D03*
X59399886Y-54988000D03*
%TD*%
D10*
%TO.C,R21*%
X53430886Y-88365500D03*
X53430886Y-90190500D03*
%TD*%
D11*
%TO.C,R12*%
X100524386Y-84452000D03*
X102349386Y-84452000D03*
%TD*%
D17*
%TO.C,C1*%
X85180886Y-97057000D03*
D18*
X85180886Y-99057000D03*
%TD*%
D11*
%TO.C,R10*%
X110684386Y-84452000D03*
X112509386Y-84452000D03*
%TD*%
D10*
%TO.C,R15*%
X83783886Y-88365500D03*
X83783886Y-90190500D03*
%TD*%
D11*
%TO.C,R2*%
X120185886Y-79880000D03*
X122010886Y-79880000D03*
%TD*%
%TO.C,R24*%
X43247386Y-78102000D03*
X45072386Y-78102000D03*
%TD*%
D10*
%TO.C,R13*%
X94070886Y-88365500D03*
X94070886Y-90190500D03*
%TD*%
D11*
%TO.C,R8*%
X120820886Y-84452000D03*
X122645886Y-84452000D03*
%TD*%
D14*
%TO.C,J2*%
X63590886Y-74165000D03*
D15*
X61050886Y-74165000D03*
X63590886Y-76705000D03*
X61050886Y-76705000D03*
X63590886Y-79245000D03*
X61050886Y-79245000D03*
%TD*%
D16*
%TO.C,ToF1*%
X112739886Y-54988000D03*
X112739886Y-52448000D03*
X115279886Y-54988000D03*
X115279886Y-52448000D03*
X117819886Y-54988000D03*
X117819886Y-52448000D03*
%TD*%
D19*
%TO.C,R6*%
X130924386Y-84452000D03*
X129099386Y-84452000D03*
%TD*%
D11*
%TO.C,R22*%
X49597386Y-84452000D03*
X51422386Y-84452000D03*
%TD*%
D14*
%TO.C,J1*%
X77560886Y-109090000D03*
D15*
X80100886Y-109090000D03*
X82640886Y-109090000D03*
X85180886Y-109090000D03*
X87720886Y-109090000D03*
X90260886Y-109090000D03*
X92800886Y-109090000D03*
X95340886Y-109090000D03*
X97880886Y-109090000D03*
X100420886Y-109090000D03*
X77560886Y-106550000D03*
X80100886Y-106550000D03*
X82640886Y-106550000D03*
X85180886Y-106550000D03*
X87720886Y-106550000D03*
X90260886Y-106550000D03*
X92800886Y-106550000D03*
X95340886Y-106550000D03*
X97880886Y-106550000D03*
X100420886Y-106550000D03*
%TD*%
D14*
%TO.C,J4*%
X114009886Y-59560000D03*
D15*
X114009886Y-62100000D03*
X114009886Y-64640000D03*
X114009886Y-67180000D03*
X116549886Y-67180000D03*
X116549886Y-64640000D03*
X116549886Y-62100000D03*
X116549886Y-59560000D03*
%TD*%
D20*
%TO.C,FB1*%
X69940886Y-108970000D03*
X69940886Y-106670000D03*
%TD*%
D10*
%TO.C,R9*%
X114390886Y-88342000D03*
X114390886Y-90167000D03*
%TD*%
D11*
%TO.C,R1*%
X120185886Y-77848000D03*
X122010886Y-77848000D03*
%TD*%
%TO.C,R20*%
X59757386Y-84452000D03*
X61582386Y-84452000D03*
%TD*%
D14*
%TO.C,J5*%
X63209886Y-61465000D03*
D15*
X60669886Y-61465000D03*
X63209886Y-64005000D03*
X60669886Y-64005000D03*
X63209886Y-66545000D03*
X60669886Y-66545000D03*
%TD*%
D11*
%TO.C,R18*%
X69917386Y-84452000D03*
X71742386Y-84452000D03*
%TD*%
D21*
%TO.C,LDO1*%
X72681886Y-99110000D03*
D22*
X75221886Y-99110000D03*
X77761886Y-99110000D03*
X80301886Y-99110000D03*
%TD*%
D19*
%TO.C,R3*%
X137274386Y-78102000D03*
X135449386Y-78102000D03*
%TD*%
D10*
%TO.C,R7*%
X124677886Y-88365500D03*
X124677886Y-90190500D03*
%TD*%
D23*
%TO.C,A9*%
X57220886Y-90170000D03*
D24*
X59720886Y-90170000D03*
X59720886Y-87370000D03*
X57220886Y-87370000D03*
%TD*%
D16*
%TO.C,color2*%
X87466886Y-67180000D03*
X87466886Y-64640000D03*
X87466886Y-62100000D03*
X87466886Y-59560000D03*
X84926886Y-67180000D03*
X84926886Y-64640000D03*
X84926886Y-62100000D03*
X84926886Y-59560000D03*
%TD*%
D23*
%TO.C,A6*%
X87740886Y-90170000D03*
D24*
X90240886Y-90170000D03*
X90240886Y-87370000D03*
X87740886Y-87370000D03*
%TD*%
D23*
%TO.C,A10*%
X47060886Y-90170000D03*
D24*
X49560886Y-90170000D03*
X49560886Y-87370000D03*
X47060886Y-87370000D03*
%TD*%
D23*
%TO.C,A5*%
X97940886Y-90170000D03*
D24*
X100440886Y-90170000D03*
X100440886Y-87370000D03*
X97940886Y-87370000D03*
%TD*%
D23*
%TO.C,A8*%
X67380886Y-90170000D03*
D24*
X69880886Y-90170000D03*
X69880886Y-87370000D03*
X67380886Y-87370000D03*
%TD*%
D23*
%TO.C,A1*%
X134770886Y-83820000D03*
D24*
X137270886Y-83820000D03*
X137270886Y-81020000D03*
X134770886Y-81020000D03*
%TD*%
D23*
%TO.C,A7*%
X77580886Y-90170000D03*
D24*
X80080886Y-90170000D03*
X80080886Y-87370000D03*
X77580886Y-87370000D03*
%TD*%
D16*
%TO.C,color1*%
X90514886Y-59560000D03*
X90514886Y-62100000D03*
X90514886Y-64640000D03*
X90514886Y-67180000D03*
X93054886Y-59560000D03*
X93054886Y-62100000D03*
X93054886Y-64640000D03*
X93054886Y-67180000D03*
%TD*%
D23*
%TO.C,A11*%
X40750886Y-83820000D03*
D24*
X43250886Y-83820000D03*
X43250886Y-81020000D03*
X40750886Y-81020000D03*
%TD*%
D23*
%TO.C,A2*%
X128460886Y-90170000D03*
D24*
X130960886Y-90170000D03*
X130960886Y-87370000D03*
X128460886Y-87370000D03*
%TD*%
D23*
%TO.C,A3*%
X118260886Y-90170000D03*
D24*
X120760886Y-90170000D03*
X120760886Y-87370000D03*
X118260886Y-87370000D03*
%TD*%
D23*
%TO.C,A4*%
X108100886Y-90170000D03*
D24*
X110600886Y-90170000D03*
X110600886Y-87370000D03*
X108100886Y-87370000D03*
%TD*%
D25*
%TO.C,ENC1*%
X98388886Y-46390600D03*
X98388886Y-44390600D03*
X98388886Y-42390600D03*
X98388886Y-40390600D03*
X98388886Y-38390600D03*
X112888886Y-44890600D03*
X112888886Y-42390600D03*
X112888886Y-39890600D03*
%TD*%
D14*
%TO.C,J1*%
X94578886Y-47469600D03*
D15*
X94578886Y-44929600D03*
X94578886Y-42389600D03*
X94578886Y-39849600D03*
X94578886Y-37309600D03*
%TD*%
D14*
%TO.C,J2*%
X117438886Y-44929600D03*
D15*
X117438886Y-42389600D03*
X117438886Y-39849600D03*
%TD*%
M02*
