M48
; DRILL file {KiCad 8.0.5} date 2024-09-26T00:23:46+0900
; FORMAT={-:-/ absolute / inch / decimal}
; #@! TF.CreationDate,2024-09-26T00:23:46+09:00
; #@! TF.GenerationSoftware,Kicad,Pcbnew,8.0.5
; #@! TF.FileFunction,Plated,1,2,PTH
FMAT,2
INCH
; #@! TA.AperFunction,Plated,PTH,ViaDrill
T1C0.0157
; #@! TA.AperFunction,Plated,PTH,ComponentDrill
T2C0.0300
; #@! TA.AperFunction,Plated,PTH,ComponentDrill
T3C0.0315
; #@! TA.AperFunction,Plated,PTH,ComponentDrill
T4C0.0354
; #@! TA.AperFunction,Plated,PTH,ComponentDrill
T5C0.0374
; #@! TA.AperFunction,Plated,PTH,ComponentDrill
T6C0.0394
; #@! TA.AperFunction,Plated,PTH,ComponentDrill
T7C0.0433
; #@! TA.AperFunction,Plated,PTH,ComponentDrill
T8C0.0748
; #@! TA.AperFunction,Plated,PTH,ComponentDrill
T9C0.1260
%
G90
G05
T1
X1.575Y-3.275
X1.575Y-3.45
X1.575Y-3.85
X1.6Y-2.46
X1.6Y-2.8
X1.6Y-2.95
X1.75Y-2.6
X1.75Y-2.8
X1.75Y-2.95
X1.75Y-3.275
X1.75Y-3.45
X1.8Y-3.85
X1.9Y-2.6
X1.9Y-2.8
X1.925Y-3.275
X1.925Y-3.45
X2.05Y-2.53
X2.08Y-2.74
X2.1Y-3.45
X2.1Y-3.625
X2.15Y-3.05
X2.19Y-2.66
X2.2Y-2.55
X2.22Y-2.78
X2.225Y-3.15
X2.28Y-2.53
X2.3Y-3.625
X2.318Y-2.487
X2.325Y-3.05
X2.325Y-3.225
X2.33Y-2.78
X2.3704Y-3.03
X2.407Y-2.513
X2.425Y-3.225
X2.5Y-2.4
X2.5Y-3.625
X2.525Y-3.225
X2.6Y-3.35
X2.7Y-2.4
X2.8Y-3.225
X2.8Y-3.35
X2.9Y-2.4
X2.9Y-2.6
X2.9Y-2.8
X2.9Y-3.625
X2.95Y-3.62
X2.98Y-2.98
X2.98Y-3.11
X3.0Y-3.35
X3.05Y-3.625
X3.1Y-2.4
X3.1Y-2.6
X3.1Y-2.8
X3.1Y-2.98
X3.11Y-3.11
X3.2Y-3.625
X3.225Y-3.35
X3.23Y-2.975
X3.24Y-3.11
X3.28Y-2.81
X3.3Y-2.4
X3.3Y-2.6
X3.35Y-3.625
X3.37Y-2.97
X3.37Y-3.11
X3.425Y-3.35
X3.5Y-2.4
X3.5Y-2.6
X3.5Y-2.8
X3.525Y-3.625
X3.53Y-2.97
X3.67Y-2.97
X3.7Y-2.6
X3.875Y-3.7
X3.9Y-3.35
X3.9Y-3.45
X3.975Y-3.4
X4.0Y-4.2
X4.0Y-4.35
X4.0Y-4.6
X4.001Y-4.025
X4.1Y-3.4
X4.15Y-4.35
X4.15Y-4.525
X4.2Y-3.4
X4.3Y-3.35
X4.3Y-3.8
X4.3Y-3.9
X4.3Y-4.2
X4.3Y-4.35
X4.3Y-4.525
X4.4Y-3.175
X4.4Y-3.4
X4.4Y-3.65
X4.4Y-3.9
X4.4Y-4.0
X4.45Y-4.35
X4.45Y-4.6
X4.5Y-2.975
X4.5Y-3.175
X4.5Y-3.4
X4.5Y-3.65
X4.5Y-3.9
X4.5Y-4.0
X4.5Y-4.1
X4.5Y-4.2
T2
X1.72Y-2.37
X1.72Y-2.87
X1.82Y-2.37
X1.82Y-2.87
X1.9Y-3.025
X1.9Y-3.125
X1.9Y-3.625
X1.9Y-3.725
X1.92Y-2.37
X1.92Y-2.87
X2.0Y-3.025
X2.0Y-3.725
X2.02Y-2.37
X2.02Y-2.87
X2.1Y-3.725
X2.12Y-2.37
X2.12Y-2.87
X2.2Y-3.725
X2.22Y-2.37
X2.22Y-2.87
X2.3Y-3.725
X2.32Y-2.37
X2.32Y-2.87
X2.4Y-3.725
X2.5Y-3.025
X2.5Y-3.725
X2.6Y-3.025
X2.6Y-3.125
X2.6Y-3.625
X2.6Y-3.725
X2.75Y-3.03
X2.75Y-3.13
X2.75Y-3.63
X2.75Y-3.73
X2.85Y-3.03
X2.85Y-3.73
X2.95Y-3.73
X3.05Y-3.73
X3.15Y-3.73
X3.25Y-3.73
X3.35Y-3.03
X3.35Y-3.73
X3.45Y-3.03
X3.45Y-3.13
X3.45Y-3.63
X3.45Y-3.73
T3
X2.499Y-2.5198
X2.499Y-2.6182
X2.5Y-2.741
X2.5Y-2.8197
X3.6716Y-3.4
X3.6716Y-3.7
X3.77Y-3.4
X3.77Y-3.7
T4
X2.1212Y-2.5498
X2.1212Y-2.6498
T5
X4.1516Y-3.0472
X4.1516Y-3.2776
X4.1516Y-3.5079
X4.1516Y-3.7382
X4.25Y-3.0472
X4.25Y-3.2776
X4.25Y-3.5079
X4.25Y-3.7382
X4.3484Y-3.0472
X4.3484Y-3.2776
X4.3484Y-3.5079
X4.3484Y-3.7382
T6
X3.6616Y-3.0893
X3.76Y-3.0893
X4.0Y-4.5
X4.4331Y-4.5
T7
X2.679Y-2.619
X2.679Y-2.719
X2.679Y-2.819
T8
X4.1181Y-4.1063
X4.315Y-4.1063
T9
X1.7Y-3.1
X1.7Y-3.7
X3.65Y-2.45
X3.65Y-2.8
M30
