%TF.GenerationSoftware,KiCad,Pcbnew,8.0.5*%
%TF.CreationDate,2024-10-26T16:11:41+09:00*%
%TF.ProjectId,_____,b5fcdcfa-7f2e-46b6-9963-61645f706362,rev?*%
%TF.SameCoordinates,Original*%
%TF.FileFunction,Soldermask,Top*%
%TF.FilePolarity,Negative*%
%FSLAX46Y46*%
G04 Gerber Fmt 4.6, Leading zero omitted, Abs format (unit mm)*
G04 Created by KiCad (PCBNEW 8.0.5) date 2024-10-26 16:11:41*
%MOMM*%
%LPD*%
G01*
G04 APERTURE LIST*
G04 Aperture macros list*
%AMRoundRect*
0 Rectangle with rounded corners*
0 $1 Rounding radius*
0 $2 $3 $4 $5 $6 $7 $8 $9 X,Y pos of 4 corners*
0 Add a 4 corners polygon primitive as box body*
4,1,4,$2,$3,$4,$5,$6,$7,$8,$9,$2,$3,0*
0 Add four circle primitives for the rounded corners*
1,1,$1+$1,$2,$3*
1,1,$1+$1,$4,$5*
1,1,$1+$1,$6,$7*
1,1,$1+$1,$8,$9*
0 Add four rect primitives between the rounded corners*
20,1,$1+$1,$2,$3,$4,$5,0*
20,1,$1+$1,$4,$5,$6,$7,0*
20,1,$1+$1,$6,$7,$8,$9,0*
20,1,$1+$1,$8,$9,$2,$3,0*%
G04 Aperture macros list end*
%ADD10R,1.700000X1.700000*%
%ADD11O,1.700000X1.700000*%
%ADD12RoundRect,0.250000X-0.600000X-0.725000X0.600000X-0.725000X0.600000X0.725000X-0.600000X0.725000X0*%
%ADD13O,1.700000X1.950000*%
%ADD14RoundRect,0.250000X0.725000X-0.600000X0.725000X0.600000X-0.725000X0.600000X-0.725000X-0.600000X0*%
%ADD15O,1.950000X1.700000*%
%ADD16RoundRect,0.237500X-0.300000X-0.237500X0.300000X-0.237500X0.300000X0.237500X-0.300000X0.237500X0*%
%ADD17RoundRect,0.237500X-0.237500X0.300000X-0.237500X-0.300000X0.237500X-0.300000X0.237500X0.300000X0*%
%ADD18C,5.600000*%
%ADD19C,1.524000*%
%ADD20R,1.800000X1.800000*%
%ADD21C,1.800000*%
%ADD22R,1.200000X0.950000*%
%ADD23RoundRect,0.237500X0.300000X0.237500X-0.300000X0.237500X-0.300000X-0.237500X0.300000X-0.237500X0*%
%ADD24RoundRect,0.250000X0.600000X0.750000X-0.600000X0.750000X-0.600000X-0.750000X0.600000X-0.750000X0*%
%ADD25O,1.700000X2.000000*%
%ADD26RoundRect,0.237500X0.250000X0.237500X-0.250000X0.237500X-0.250000X-0.237500X0.250000X-0.237500X0*%
%ADD27R,0.950000X1.200000*%
%ADD28RoundRect,0.250000X0.750000X-0.600000X0.750000X0.600000X-0.750000X0.600000X-0.750000X-0.600000X0*%
%ADD29O,2.000000X1.700000*%
%ADD30RoundRect,0.250000X-0.750000X0.600000X-0.750000X-0.600000X0.750000X-0.600000X0.750000X0.600000X0*%
%ADD31RoundRect,0.250000X-0.725000X0.600000X-0.725000X-0.600000X0.725000X-0.600000X0.725000X0.600000X0*%
%ADD32R,1.600000X1.600000*%
%ADD33C,1.600000*%
%ADD34RoundRect,0.250001X-1.099999X-1.099999X1.099999X-1.099999X1.099999X1.099999X-1.099999X1.099999X0*%
%ADD35C,2.700000*%
%ADD36RoundRect,0.250000X0.850000X0.350000X-0.850000X0.350000X-0.850000X-0.350000X0.850000X-0.350000X0*%
%ADD37RoundRect,0.249997X2.950003X2.650003X-2.950003X2.650003X-2.950003X-2.650003X2.950003X-2.650003X0*%
%ADD38C,1.512000*%
%ADD39RoundRect,0.237500X-0.237500X0.250000X-0.237500X-0.250000X0.237500X-0.250000X0.237500X0.250000X0*%
G04 APERTURE END LIST*
D10*
%TO.C,J2*%
X80645000Y-94615000D03*
D11*
X78105000Y-94615000D03*
X75565000Y-94615000D03*
X73025000Y-94615000D03*
%TD*%
D12*
%TO.C,J17*%
X51602000Y-100017700D03*
D13*
X54102000Y-100017700D03*
X56602000Y-100017700D03*
%TD*%
D14*
%TO.C,J1*%
X67937500Y-117475000D03*
D15*
X67937500Y-114975000D03*
X67937500Y-112475000D03*
%TD*%
D16*
%TO.C,C7*%
X65304500Y-134239000D03*
X67029500Y-134239000D03*
%TD*%
D12*
%TO.C,J16*%
X63032000Y-100017700D03*
D13*
X65532000Y-100017700D03*
X68032000Y-100017700D03*
%TD*%
D17*
%TO.C,C1*%
X82804000Y-110135500D03*
X82804000Y-111860500D03*
%TD*%
D18*
%TO.C,REF\u002A\u002A*%
X51548500Y-105359200D03*
%TD*%
D19*
%TO.C,ToF1*%
X52705000Y-177165000D03*
X52705000Y-179705000D03*
X52705000Y-182245000D03*
X52705000Y-184785000D03*
X52705000Y-187325000D03*
%TD*%
D20*
%TO.C,D1*%
X74676000Y-99542600D03*
D21*
X74676000Y-102082600D03*
%TD*%
D19*
%TO.C,VisionAI1*%
X90277069Y-183264726D03*
X90277069Y-180724726D03*
X90277069Y-178184726D03*
X90277069Y-175644726D03*
X90277069Y-173104726D03*
X90277069Y-170564726D03*
X90297000Y-168021000D03*
X105517069Y-168024726D03*
X105517069Y-170564726D03*
X105517069Y-173104726D03*
X105517069Y-175644726D03*
X105517069Y-178184726D03*
X105517069Y-180724726D03*
X105517069Y-183264726D03*
%TD*%
D22*
%TO.C,FB1*%
X110051200Y-184759600D03*
X112351200Y-184759600D03*
%TD*%
D18*
%TO.C,REF\u002A\u002A*%
X51562000Y-172339000D03*
%TD*%
D23*
%TO.C,C8*%
X55472500Y-134239000D03*
X53747500Y-134239000D03*
%TD*%
D19*
%TO.C,Gyro1*%
X75565000Y-176911000D03*
X73025000Y-176911000D03*
X70485000Y-176911000D03*
X67945000Y-176911000D03*
X67945000Y-184531000D03*
X70485000Y-184531000D03*
X73025000Y-184531000D03*
X75565000Y-184531000D03*
%TD*%
%TO.C,U5*%
X50800000Y-144145000D03*
X53340000Y-144145000D03*
X55880000Y-144145000D03*
X58420000Y-144145000D03*
X58420000Y-136525000D03*
X55880000Y-136525000D03*
X53340000Y-136525000D03*
X50800000Y-136525000D03*
%TD*%
%TO.C,U6*%
X62306200Y-144145000D03*
X64846200Y-144145000D03*
X67386200Y-144145000D03*
X69926200Y-144145000D03*
X69926200Y-136525000D03*
X67386200Y-136525000D03*
X64846200Y-136525000D03*
X62306200Y-136525000D03*
%TD*%
D24*
%TO.C,J3*%
X99192400Y-155646800D03*
D25*
X96692400Y-155646800D03*
%TD*%
D22*
%TO.C,FB3*%
X67266200Y-140335000D03*
X64966200Y-140335000D03*
%TD*%
D23*
%TO.C,C15*%
X80491500Y-115697000D03*
X78766500Y-115697000D03*
%TD*%
D10*
%TO.C,J7*%
X140970000Y-150480000D03*
D11*
X140970000Y-147940000D03*
X140970000Y-145400000D03*
%TD*%
D26*
%TO.C,R8*%
X77722100Y-106857800D03*
X75897100Y-106857800D03*
%TD*%
D27*
%TO.C,FB4*%
X78994000Y-100337000D03*
X78994000Y-98037000D03*
%TD*%
D28*
%TO.C,J19*%
X108559600Y-125309000D03*
D29*
X108559600Y-122809000D03*
%TD*%
D18*
%TO.C,REF\u002A\u002A*%
X145034000Y-110109000D03*
%TD*%
D30*
%TO.C,SW1*%
X52705000Y-161711000D03*
D29*
X52705000Y-164211000D03*
%TD*%
D14*
%TO.C,J15*%
X67930000Y-128865000D03*
D15*
X67930000Y-126365000D03*
X67930000Y-123865000D03*
%TD*%
D27*
%TO.C,FB2*%
X59309000Y-146424000D03*
X59309000Y-148724000D03*
%TD*%
D10*
%TO.C,SubBoard1*%
X120015000Y-104775000D03*
D11*
X122555000Y-104775000D03*
X125095000Y-104775000D03*
X127635000Y-104775000D03*
X130175000Y-104775000D03*
X132715000Y-104775000D03*
X135255000Y-104775000D03*
X137795000Y-104775000D03*
X140335000Y-104775000D03*
X142875000Y-104775000D03*
X120015000Y-102235000D03*
X122555000Y-102235000D03*
X125095000Y-102235000D03*
X127635000Y-102235000D03*
X130175000Y-102235000D03*
X132715000Y-102235000D03*
X135255000Y-102235000D03*
X137795000Y-102235000D03*
X140335000Y-102235000D03*
X142875000Y-102235000D03*
%TD*%
D10*
%TO.C,J8*%
X145415000Y-150495000D03*
D11*
X145415000Y-147955000D03*
X145415000Y-145415000D03*
%TD*%
D16*
%TO.C,C4*%
X61367500Y-146431000D03*
X63092500Y-146431000D03*
%TD*%
D31*
%TO.C,J9*%
X143611600Y-156965000D03*
D15*
X143611600Y-159465000D03*
X143611600Y-161965000D03*
X143611600Y-164465000D03*
%TD*%
D32*
%TO.C,C2*%
X116763800Y-184770400D03*
D33*
X116763800Y-182270400D03*
%TD*%
D34*
%TO.C,J4*%
X86949000Y-117685000D03*
D35*
X90909000Y-117685000D03*
X94869000Y-117685000D03*
X98829000Y-117685000D03*
X102789000Y-117685000D03*
%TD*%
D18*
%TO.C,REF\u002A\u002A*%
X144957800Y-171043600D03*
%TD*%
D26*
%TO.C,R4*%
X58697500Y-168061000D03*
X56872500Y-168061000D03*
%TD*%
D19*
%TO.C,ToF2*%
X143637000Y-187325000D03*
X143637000Y-184785000D03*
X143637000Y-182245000D03*
X143637000Y-179705000D03*
X143637000Y-177165000D03*
%TD*%
D32*
%TO.C,U7*%
X73025000Y-120269000D03*
D33*
X73025000Y-122809000D03*
X73025000Y-125349000D03*
X73025000Y-127889000D03*
X73025000Y-130429000D03*
X73025000Y-132969000D03*
X73025000Y-135509000D03*
X73025000Y-138049000D03*
X73025000Y-140589000D03*
X73025000Y-143129000D03*
X80645000Y-143129000D03*
X80645000Y-140589000D03*
X80645000Y-138049000D03*
X80645000Y-135509000D03*
X80645000Y-132969000D03*
X80645000Y-130429000D03*
X80645000Y-127889000D03*
X80645000Y-125349000D03*
X80645000Y-122809000D03*
X80645000Y-120269000D03*
%TD*%
D36*
%TO.C,LDO1*%
X80518000Y-113512600D03*
D37*
X74218000Y-111232600D03*
D36*
X80518000Y-108952600D03*
%TD*%
D38*
%TO.C,U2*%
X137160000Y-182245000D03*
X137160000Y-179705000D03*
X137160000Y-177165000D03*
X137160000Y-174625000D03*
X137160000Y-149225000D03*
X121920000Y-179705000D03*
X137160000Y-172085000D03*
X137160000Y-169545000D03*
X137160000Y-167005000D03*
X137160000Y-164465000D03*
X137160000Y-161925000D03*
X137160000Y-159385000D03*
X137160000Y-156845000D03*
X137160000Y-154305000D03*
X137160000Y-151765000D03*
X121920000Y-151765000D03*
X121920000Y-154305000D03*
X121920000Y-156845000D03*
X121920000Y-159385000D03*
X121920000Y-161925000D03*
X121920000Y-164465000D03*
X121920000Y-167005000D03*
X121920000Y-169545000D03*
X121920000Y-172085000D03*
X121920000Y-174625000D03*
X121920000Y-177165000D03*
X137160000Y-146685000D03*
X137160000Y-144145000D03*
X137160000Y-141605000D03*
X137160000Y-139065000D03*
X137160000Y-136525000D03*
X137160000Y-133985000D03*
X137160000Y-131445000D03*
X137160000Y-128905000D03*
X137160000Y-126365000D03*
X121920000Y-126365000D03*
X121920000Y-128905000D03*
X121920000Y-131445000D03*
X121920000Y-133985000D03*
X121920000Y-136525000D03*
X121920000Y-139065000D03*
X121920000Y-141605000D03*
X121920000Y-144145000D03*
X121920000Y-146685000D03*
X137160000Y-184785000D03*
X121920000Y-149225000D03*
X121920000Y-182245000D03*
X121920000Y-184785000D03*
%TD*%
D16*
%TO.C,C5*%
X51588500Y-146431000D03*
X53313500Y-146431000D03*
%TD*%
D30*
%TO.C,SW2*%
X60960000Y-161660200D03*
D29*
X60960000Y-164160200D03*
%TD*%
D32*
%TO.C,C10*%
X67945000Y-104561000D03*
D33*
X67945000Y-107061000D03*
%TD*%
D39*
%TO.C,R7*%
X70739000Y-124436500D03*
X70739000Y-126261500D03*
%TD*%
D26*
%TO.C,R3*%
X52982500Y-168061000D03*
X51157500Y-168061000D03*
%TD*%
D32*
%TO.C,C9*%
X60960000Y-107021000D03*
D33*
X60960000Y-104521000D03*
%TD*%
D10*
%TO.C,Line1*%
X86868000Y-97155000D03*
D11*
X89408000Y-97155000D03*
X91948000Y-97155000D03*
X94488000Y-97155000D03*
X97028000Y-97155000D03*
X99568000Y-97155000D03*
X102108000Y-97155000D03*
X104648000Y-97155000D03*
X107188000Y-97155000D03*
X109728000Y-97155000D03*
X86868000Y-94615000D03*
X89408000Y-94615000D03*
X91948000Y-94615000D03*
X94488000Y-94615000D03*
X97028000Y-94615000D03*
X99568000Y-94615000D03*
X102108000Y-94615000D03*
X104648000Y-94615000D03*
X107188000Y-94615000D03*
X109728000Y-94615000D03*
%TD*%
M02*
