%TF.GenerationSoftware,KiCad,Pcbnew,8.0.5*%
%TF.CreationDate,2024-10-26T16:11:41+09:00*%
%TF.ProjectId,_____,b5fcdcfa-7f2e-46b6-9963-61645f706362,rev?*%
%TF.SameCoordinates,Original*%
%TF.FileFunction,Profile,NP*%
%FSLAX46Y46*%
G04 Gerber Fmt 4.6, Leading zero omitted, Abs format (unit mm)*
G04 Created by KiCad (PCBNEW 8.0.5) date 2024-10-26 16:11:41*
%MOMM*%
%LPD*%
G01*
G04 APERTURE LIST*
%TA.AperFunction,Profile*%
%ADD10C,0.100000*%
%TD*%
G04 APERTURE END LIST*
D10*
X50165000Y-151368000D02*
X51165000Y-150368000D01*
X82915000Y-144542000D02*
X83915000Y-145542000D01*
X108315000Y-134477000D02*
X107315000Y-133477000D01*
X119380000Y-100203000D02*
X145132800Y-100203000D01*
X145132800Y-100203000D02*
G75*
G02*
X148132800Y-103203000I0J-3000000D01*
G01*
X51336200Y-108559600D02*
G75*
G02*
X48336200Y-105559600I0J3000000D01*
G01*
X71374000Y-92583000D02*
X111760000Y-92583000D01*
X111760000Y-92583000D02*
X119380000Y-100203000D01*
X145109021Y-141681200D02*
G75*
G02*
X148109000Y-144679578I-21J-3000000D01*
G01*
X50165000Y-151368000D02*
X50165000Y-157623000D01*
X145131942Y-188671964D02*
X51336964Y-188695836D01*
X60731400Y-130299200D02*
X60731400Y-111559600D01*
X148131178Y-185670342D02*
G75*
G02*
X145131942Y-188671978I-2999978J-1658D01*
G01*
X145132800Y-113665000D02*
X145113000Y-113665000D01*
X48336200Y-92583000D02*
X48564800Y-92583000D01*
X145109021Y-141681200D02*
X144613000Y-141681200D01*
X60731400Y-130299200D02*
G75*
G02*
X57731400Y-133299200I-3000000J0D01*
G01*
X108315000Y-144542000D02*
X108315000Y-134477000D01*
X61595000Y-151368000D02*
X60595000Y-150368000D01*
X148131178Y-185670342D02*
X148109021Y-144679578D01*
X148132800Y-110665000D02*
G75*
G02*
X145132800Y-113665000I-3000000J0D01*
G01*
X108315000Y-144542000D02*
X107315000Y-145542000D01*
X48336200Y-136299200D02*
G75*
G02*
X51336200Y-133299200I3000000J0D01*
G01*
X61595000Y-151368000D02*
X61595000Y-157623000D01*
X83915000Y-133477000D02*
X107315000Y-133477000D01*
X48336200Y-136299200D02*
X48336200Y-185695836D01*
X57731400Y-133299200D02*
X51336200Y-133299200D01*
X82915000Y-144542000D02*
X82915000Y-134477000D01*
X144613000Y-141681200D02*
G75*
G02*
X142113000Y-139181200I0J2500000D01*
G01*
X61595000Y-157623000D02*
X60595000Y-158623000D01*
X71374000Y-92583000D02*
X48564800Y-92583000D01*
X57731400Y-108559600D02*
G75*
G02*
X60731400Y-111559600I0J-3000000D01*
G01*
X60595000Y-158623000D02*
X51165000Y-158623000D01*
X51336200Y-108559600D02*
X57731400Y-108559600D01*
X142113000Y-116665000D02*
X142113000Y-139181200D01*
X48336200Y-105559600D02*
X48336200Y-92583000D01*
X82915000Y-134477000D02*
X83915000Y-133477000D01*
X83915000Y-145542000D02*
X107315000Y-145542000D01*
X60595000Y-150368000D02*
X51165000Y-150368000D01*
X50165000Y-157623000D02*
X51165000Y-158623000D01*
X142113000Y-116665000D02*
G75*
G02*
X145113000Y-113665000I3000000J0D01*
G01*
X51336964Y-188695836D02*
G75*
G02*
X48336164Y-185695836I-764J3000036D01*
G01*
X148132800Y-103203000D02*
X148132800Y-110665000D01*
M02*
