%TF.GenerationSoftware,KiCad,Pcbnew,8.0.5*%
%TF.CreationDate,2024-10-26T16:11:41+09:00*%
%TF.ProjectId,_____,b5fcdcfa-7f2e-46b6-9963-61645f706362,rev?*%
%TF.SameCoordinates,Original*%
%TF.FileFunction,Legend,Top*%
%TF.FilePolarity,Positive*%
%FSLAX46Y46*%
G04 Gerber Fmt 4.6, Leading zero omitted, Abs format (unit mm)*
G04 Created by KiCad (PCBNEW 8.0.5) date 2024-10-26 16:11:41*
%MOMM*%
%LPD*%
G01*
G04 APERTURE LIST*
G04 Aperture macros list*
%AMRoundRect*
0 Rectangle with rounded corners*
0 $1 Rounding radius*
0 $2 $3 $4 $5 $6 $7 $8 $9 X,Y pos of 4 corners*
0 Add a 4 corners polygon primitive as box body*
4,1,4,$2,$3,$4,$5,$6,$7,$8,$9,$2,$3,0*
0 Add four circle primitives for the rounded corners*
1,1,$1+$1,$2,$3*
1,1,$1+$1,$4,$5*
1,1,$1+$1,$6,$7*
1,1,$1+$1,$8,$9*
0 Add four rect primitives between the rounded corners*
20,1,$1+$1,$2,$3,$4,$5,0*
20,1,$1+$1,$4,$5,$6,$7,0*
20,1,$1+$1,$6,$7,$8,$9,0*
20,1,$1+$1,$8,$9,$2,$3,0*%
G04 Aperture macros list end*
%ADD10C,0.150000*%
%ADD11C,0.100000*%
%ADD12C,0.127000*%
%ADD13C,0.120000*%
%ADD14C,0.200000*%
%ADD15R,1.700000X1.700000*%
%ADD16O,1.700000X1.700000*%
%ADD17RoundRect,0.250000X-0.600000X-0.725000X0.600000X-0.725000X0.600000X0.725000X-0.600000X0.725000X0*%
%ADD18O,1.700000X1.950000*%
%ADD19RoundRect,0.250000X0.725000X-0.600000X0.725000X0.600000X-0.725000X0.600000X-0.725000X-0.600000X0*%
%ADD20O,1.950000X1.700000*%
%ADD21RoundRect,0.237500X-0.300000X-0.237500X0.300000X-0.237500X0.300000X0.237500X-0.300000X0.237500X0*%
%ADD22RoundRect,0.237500X-0.237500X0.300000X-0.237500X-0.300000X0.237500X-0.300000X0.237500X0.300000X0*%
%ADD23C,5.600000*%
%ADD24C,1.524000*%
%ADD25R,1.800000X1.800000*%
%ADD26C,1.800000*%
%ADD27R,1.200000X0.950000*%
%ADD28RoundRect,0.237500X0.300000X0.237500X-0.300000X0.237500X-0.300000X-0.237500X0.300000X-0.237500X0*%
%ADD29RoundRect,0.250000X0.600000X0.750000X-0.600000X0.750000X-0.600000X-0.750000X0.600000X-0.750000X0*%
%ADD30O,1.700000X2.000000*%
%ADD31RoundRect,0.237500X0.250000X0.237500X-0.250000X0.237500X-0.250000X-0.237500X0.250000X-0.237500X0*%
%ADD32R,0.950000X1.200000*%
%ADD33RoundRect,0.250000X0.750000X-0.600000X0.750000X0.600000X-0.750000X0.600000X-0.750000X-0.600000X0*%
%ADD34O,2.000000X1.700000*%
%ADD35RoundRect,0.250000X-0.750000X0.600000X-0.750000X-0.600000X0.750000X-0.600000X0.750000X0.600000X0*%
%ADD36RoundRect,0.250000X-0.725000X0.600000X-0.725000X-0.600000X0.725000X-0.600000X0.725000X0.600000X0*%
%ADD37R,1.600000X1.600000*%
%ADD38C,1.600000*%
%ADD39RoundRect,0.250001X-1.099999X-1.099999X1.099999X-1.099999X1.099999X1.099999X-1.099999X1.099999X0*%
%ADD40C,2.700000*%
%ADD41RoundRect,0.250000X0.850000X0.350000X-0.850000X0.350000X-0.850000X-0.350000X0.850000X-0.350000X0*%
%ADD42RoundRect,0.249997X2.950003X2.650003X-2.950003X2.650003X-2.950003X-2.650003X2.950003X-2.650003X0*%
%ADD43C,1.512000*%
%ADD44RoundRect,0.237500X-0.237500X0.250000X-0.237500X-0.250000X0.237500X-0.250000X0.237500X0.250000X0*%
G04 APERTURE END LIST*
D10*
X82429819Y-94948333D02*
X83144104Y-94948333D01*
X83144104Y-94948333D02*
X83286961Y-94995952D01*
X83286961Y-94995952D02*
X83382200Y-95091190D01*
X83382200Y-95091190D02*
X83429819Y-95234047D01*
X83429819Y-95234047D02*
X83429819Y-95329285D01*
X82525057Y-94519761D02*
X82477438Y-94472142D01*
X82477438Y-94472142D02*
X82429819Y-94376904D01*
X82429819Y-94376904D02*
X82429819Y-94138809D01*
X82429819Y-94138809D02*
X82477438Y-94043571D01*
X82477438Y-94043571D02*
X82525057Y-93995952D01*
X82525057Y-93995952D02*
X82620295Y-93948333D01*
X82620295Y-93948333D02*
X82715533Y-93948333D01*
X82715533Y-93948333D02*
X82858390Y-93995952D01*
X82858390Y-93995952D02*
X83429819Y-94567380D01*
X83429819Y-94567380D02*
X83429819Y-93948333D01*
X53292476Y-101385019D02*
X53292476Y-102099304D01*
X53292476Y-102099304D02*
X53244857Y-102242161D01*
X53244857Y-102242161D02*
X53149619Y-102337400D01*
X53149619Y-102337400D02*
X53006762Y-102385019D01*
X53006762Y-102385019D02*
X52911524Y-102385019D01*
X54292476Y-102385019D02*
X53721048Y-102385019D01*
X54006762Y-102385019D02*
X54006762Y-101385019D01*
X54006762Y-101385019D02*
X53911524Y-101527876D01*
X53911524Y-101527876D02*
X53816286Y-101623114D01*
X53816286Y-101623114D02*
X53721048Y-101670733D01*
X54625810Y-101385019D02*
X55292476Y-101385019D01*
X55292476Y-101385019D02*
X54863905Y-102385019D01*
X69304819Y-115729333D02*
X70019104Y-115729333D01*
X70019104Y-115729333D02*
X70161961Y-115776952D01*
X70161961Y-115776952D02*
X70257200Y-115872190D01*
X70257200Y-115872190D02*
X70304819Y-116015047D01*
X70304819Y-116015047D02*
X70304819Y-116110285D01*
X70304819Y-114729333D02*
X70304819Y-115300761D01*
X70304819Y-115015047D02*
X69304819Y-115015047D01*
X69304819Y-115015047D02*
X69447676Y-115110285D01*
X69447676Y-115110285D02*
X69542914Y-115205523D01*
X69542914Y-115205523D02*
X69590533Y-115300761D01*
X66000333Y-133168580D02*
X65952714Y-133216200D01*
X65952714Y-133216200D02*
X65809857Y-133263819D01*
X65809857Y-133263819D02*
X65714619Y-133263819D01*
X65714619Y-133263819D02*
X65571762Y-133216200D01*
X65571762Y-133216200D02*
X65476524Y-133120961D01*
X65476524Y-133120961D02*
X65428905Y-133025723D01*
X65428905Y-133025723D02*
X65381286Y-132835247D01*
X65381286Y-132835247D02*
X65381286Y-132692390D01*
X65381286Y-132692390D02*
X65428905Y-132501914D01*
X65428905Y-132501914D02*
X65476524Y-132406676D01*
X65476524Y-132406676D02*
X65571762Y-132311438D01*
X65571762Y-132311438D02*
X65714619Y-132263819D01*
X65714619Y-132263819D02*
X65809857Y-132263819D01*
X65809857Y-132263819D02*
X65952714Y-132311438D01*
X65952714Y-132311438D02*
X66000333Y-132359057D01*
X66333667Y-132263819D02*
X67000333Y-132263819D01*
X67000333Y-132263819D02*
X66571762Y-133263819D01*
X64722476Y-101385019D02*
X64722476Y-102099304D01*
X64722476Y-102099304D02*
X64674857Y-102242161D01*
X64674857Y-102242161D02*
X64579619Y-102337400D01*
X64579619Y-102337400D02*
X64436762Y-102385019D01*
X64436762Y-102385019D02*
X64341524Y-102385019D01*
X65722476Y-102385019D02*
X65151048Y-102385019D01*
X65436762Y-102385019D02*
X65436762Y-101385019D01*
X65436762Y-101385019D02*
X65341524Y-101527876D01*
X65341524Y-101527876D02*
X65246286Y-101623114D01*
X65246286Y-101623114D02*
X65151048Y-101670733D01*
X66579619Y-101385019D02*
X66389143Y-101385019D01*
X66389143Y-101385019D02*
X66293905Y-101432638D01*
X66293905Y-101432638D02*
X66246286Y-101480257D01*
X66246286Y-101480257D02*
X66151048Y-101623114D01*
X66151048Y-101623114D02*
X66103429Y-101813590D01*
X66103429Y-101813590D02*
X66103429Y-102194542D01*
X66103429Y-102194542D02*
X66151048Y-102289780D01*
X66151048Y-102289780D02*
X66198667Y-102337400D01*
X66198667Y-102337400D02*
X66293905Y-102385019D01*
X66293905Y-102385019D02*
X66484381Y-102385019D01*
X66484381Y-102385019D02*
X66579619Y-102337400D01*
X66579619Y-102337400D02*
X66627238Y-102289780D01*
X66627238Y-102289780D02*
X66674857Y-102194542D01*
X66674857Y-102194542D02*
X66674857Y-101956447D01*
X66674857Y-101956447D02*
X66627238Y-101861209D01*
X66627238Y-101861209D02*
X66579619Y-101813590D01*
X66579619Y-101813590D02*
X66484381Y-101765971D01*
X66484381Y-101765971D02*
X66293905Y-101765971D01*
X66293905Y-101765971D02*
X66198667Y-101813590D01*
X66198667Y-101813590D02*
X66151048Y-101861209D01*
X66151048Y-101861209D02*
X66103429Y-101956447D01*
X83163580Y-108243666D02*
X83211200Y-108291285D01*
X83211200Y-108291285D02*
X83258819Y-108434142D01*
X83258819Y-108434142D02*
X83258819Y-108529380D01*
X83258819Y-108529380D02*
X83211200Y-108672237D01*
X83211200Y-108672237D02*
X83115961Y-108767475D01*
X83115961Y-108767475D02*
X83020723Y-108815094D01*
X83020723Y-108815094D02*
X82830247Y-108862713D01*
X82830247Y-108862713D02*
X82687390Y-108862713D01*
X82687390Y-108862713D02*
X82496914Y-108815094D01*
X82496914Y-108815094D02*
X82401676Y-108767475D01*
X82401676Y-108767475D02*
X82306438Y-108672237D01*
X82306438Y-108672237D02*
X82258819Y-108529380D01*
X82258819Y-108529380D02*
X82258819Y-108434142D01*
X82258819Y-108434142D02*
X82306438Y-108291285D01*
X82306438Y-108291285D02*
X82354057Y-108243666D01*
X83258819Y-107291285D02*
X83258819Y-107862713D01*
X83258819Y-107576999D02*
X82258819Y-107576999D01*
X82258819Y-107576999D02*
X82401676Y-107672237D01*
X82401676Y-107672237D02*
X82496914Y-107767475D01*
X82496914Y-107767475D02*
X82544533Y-107862713D01*
D11*
X55787580Y-180602143D02*
X55787580Y-181173571D01*
X54787580Y-180887857D02*
X55787580Y-180887857D01*
X54787580Y-181649762D02*
X54835200Y-181554524D01*
X54835200Y-181554524D02*
X54882819Y-181506905D01*
X54882819Y-181506905D02*
X54978057Y-181459286D01*
X54978057Y-181459286D02*
X55263771Y-181459286D01*
X55263771Y-181459286D02*
X55359009Y-181506905D01*
X55359009Y-181506905D02*
X55406628Y-181554524D01*
X55406628Y-181554524D02*
X55454247Y-181649762D01*
X55454247Y-181649762D02*
X55454247Y-181792619D01*
X55454247Y-181792619D02*
X55406628Y-181887857D01*
X55406628Y-181887857D02*
X55359009Y-181935476D01*
X55359009Y-181935476D02*
X55263771Y-181983095D01*
X55263771Y-181983095D02*
X54978057Y-181983095D01*
X54978057Y-181983095D02*
X54882819Y-181935476D01*
X54882819Y-181935476D02*
X54835200Y-181887857D01*
X54835200Y-181887857D02*
X54787580Y-181792619D01*
X54787580Y-181792619D02*
X54787580Y-181649762D01*
X55311390Y-182745000D02*
X55311390Y-182411667D01*
X54787580Y-182411667D02*
X55787580Y-182411667D01*
X55787580Y-182411667D02*
X55787580Y-182887857D01*
X54787580Y-183792619D02*
X54787580Y-183221191D01*
X54787580Y-183506905D02*
X55787580Y-183506905D01*
X55787580Y-183506905D02*
X55644723Y-183411667D01*
X55644723Y-183411667D02*
X55549485Y-183316429D01*
X55549485Y-183316429D02*
X55501866Y-183221191D01*
D10*
X73937905Y-105077419D02*
X73937905Y-104077419D01*
X73937905Y-104077419D02*
X74176000Y-104077419D01*
X74176000Y-104077419D02*
X74318857Y-104125038D01*
X74318857Y-104125038D02*
X74414095Y-104220276D01*
X74414095Y-104220276D02*
X74461714Y-104315514D01*
X74461714Y-104315514D02*
X74509333Y-104505990D01*
X74509333Y-104505990D02*
X74509333Y-104648847D01*
X74509333Y-104648847D02*
X74461714Y-104839323D01*
X74461714Y-104839323D02*
X74414095Y-104934561D01*
X74414095Y-104934561D02*
X74318857Y-105029800D01*
X74318857Y-105029800D02*
X74176000Y-105077419D01*
X74176000Y-105077419D02*
X73937905Y-105077419D01*
X75461714Y-105077419D02*
X74890286Y-105077419D01*
X75176000Y-105077419D02*
X75176000Y-104077419D01*
X75176000Y-104077419D02*
X75080762Y-104220276D01*
X75080762Y-104220276D02*
X74985524Y-104315514D01*
X74985524Y-104315514D02*
X74890286Y-104363133D01*
D11*
X95036096Y-186909419D02*
X95369429Y-187909419D01*
X95369429Y-187909419D02*
X95702762Y-186909419D01*
X96036096Y-187909419D02*
X96036096Y-187242752D01*
X96036096Y-186909419D02*
X95988477Y-186957038D01*
X95988477Y-186957038D02*
X96036096Y-187004657D01*
X96036096Y-187004657D02*
X96083715Y-186957038D01*
X96083715Y-186957038D02*
X96036096Y-186909419D01*
X96036096Y-186909419D02*
X96036096Y-187004657D01*
X96464667Y-187861800D02*
X96559905Y-187909419D01*
X96559905Y-187909419D02*
X96750381Y-187909419D01*
X96750381Y-187909419D02*
X96845619Y-187861800D01*
X96845619Y-187861800D02*
X96893238Y-187766561D01*
X96893238Y-187766561D02*
X96893238Y-187718942D01*
X96893238Y-187718942D02*
X96845619Y-187623704D01*
X96845619Y-187623704D02*
X96750381Y-187576085D01*
X96750381Y-187576085D02*
X96607524Y-187576085D01*
X96607524Y-187576085D02*
X96512286Y-187528466D01*
X96512286Y-187528466D02*
X96464667Y-187433228D01*
X96464667Y-187433228D02*
X96464667Y-187385609D01*
X96464667Y-187385609D02*
X96512286Y-187290371D01*
X96512286Y-187290371D02*
X96607524Y-187242752D01*
X96607524Y-187242752D02*
X96750381Y-187242752D01*
X96750381Y-187242752D02*
X96845619Y-187290371D01*
X97321810Y-187909419D02*
X97321810Y-187242752D01*
X97321810Y-186909419D02*
X97274191Y-186957038D01*
X97274191Y-186957038D02*
X97321810Y-187004657D01*
X97321810Y-187004657D02*
X97369429Y-186957038D01*
X97369429Y-186957038D02*
X97321810Y-186909419D01*
X97321810Y-186909419D02*
X97321810Y-187004657D01*
X97940857Y-187909419D02*
X97845619Y-187861800D01*
X97845619Y-187861800D02*
X97798000Y-187814180D01*
X97798000Y-187814180D02*
X97750381Y-187718942D01*
X97750381Y-187718942D02*
X97750381Y-187433228D01*
X97750381Y-187433228D02*
X97798000Y-187337990D01*
X97798000Y-187337990D02*
X97845619Y-187290371D01*
X97845619Y-187290371D02*
X97940857Y-187242752D01*
X97940857Y-187242752D02*
X98083714Y-187242752D01*
X98083714Y-187242752D02*
X98178952Y-187290371D01*
X98178952Y-187290371D02*
X98226571Y-187337990D01*
X98226571Y-187337990D02*
X98274190Y-187433228D01*
X98274190Y-187433228D02*
X98274190Y-187718942D01*
X98274190Y-187718942D02*
X98226571Y-187814180D01*
X98226571Y-187814180D02*
X98178952Y-187861800D01*
X98178952Y-187861800D02*
X98083714Y-187909419D01*
X98083714Y-187909419D02*
X97940857Y-187909419D01*
X98702762Y-187242752D02*
X98702762Y-187909419D01*
X98702762Y-187337990D02*
X98750381Y-187290371D01*
X98750381Y-187290371D02*
X98845619Y-187242752D01*
X98845619Y-187242752D02*
X98988476Y-187242752D01*
X98988476Y-187242752D02*
X99083714Y-187290371D01*
X99083714Y-187290371D02*
X99131333Y-187385609D01*
X99131333Y-187385609D02*
X99131333Y-187909419D01*
X99559905Y-187623704D02*
X100036095Y-187623704D01*
X99464667Y-187909419D02*
X99798000Y-186909419D01*
X99798000Y-186909419D02*
X100131333Y-187909419D01*
X100464667Y-187909419D02*
X100464667Y-186909419D01*
X101464666Y-187909419D02*
X100893238Y-187909419D01*
X101178952Y-187909419D02*
X101178952Y-186909419D01*
X101178952Y-186909419D02*
X101083714Y-187052276D01*
X101083714Y-187052276D02*
X100988476Y-187147514D01*
X100988476Y-187147514D02*
X100893238Y-187195133D01*
D12*
X107454530Y-174057465D02*
X106743330Y-174057465D01*
X106743330Y-174057465D02*
X107251330Y-173820399D01*
X107251330Y-173820399D02*
X106743330Y-173583332D01*
X106743330Y-173583332D02*
X107454530Y-173583332D01*
X107454530Y-173244665D02*
X106743330Y-173244665D01*
X107420664Y-172939865D02*
X107454530Y-172838265D01*
X107454530Y-172838265D02*
X107454530Y-172668932D01*
X107454530Y-172668932D02*
X107420664Y-172601198D01*
X107420664Y-172601198D02*
X107386797Y-172567332D01*
X107386797Y-172567332D02*
X107319064Y-172533465D01*
X107319064Y-172533465D02*
X107251330Y-172533465D01*
X107251330Y-172533465D02*
X107183597Y-172567332D01*
X107183597Y-172567332D02*
X107149730Y-172601198D01*
X107149730Y-172601198D02*
X107115864Y-172668932D01*
X107115864Y-172668932D02*
X107081997Y-172804398D01*
X107081997Y-172804398D02*
X107048130Y-172872132D01*
X107048130Y-172872132D02*
X107014264Y-172905998D01*
X107014264Y-172905998D02*
X106946530Y-172939865D01*
X106946530Y-172939865D02*
X106878797Y-172939865D01*
X106878797Y-172939865D02*
X106811064Y-172905998D01*
X106811064Y-172905998D02*
X106777197Y-172872132D01*
X106777197Y-172872132D02*
X106743330Y-172804398D01*
X106743330Y-172804398D02*
X106743330Y-172635065D01*
X106743330Y-172635065D02*
X106777197Y-172533465D01*
X106743330Y-172093199D02*
X106743330Y-171957732D01*
X106743330Y-171957732D02*
X106777197Y-171889999D01*
X106777197Y-171889999D02*
X106844930Y-171822265D01*
X106844930Y-171822265D02*
X106980397Y-171788399D01*
X106980397Y-171788399D02*
X107217464Y-171788399D01*
X107217464Y-171788399D02*
X107352930Y-171822265D01*
X107352930Y-171822265D02*
X107420664Y-171889999D01*
X107420664Y-171889999D02*
X107454530Y-171957732D01*
X107454530Y-171957732D02*
X107454530Y-172093199D01*
X107454530Y-172093199D02*
X107420664Y-172160932D01*
X107420664Y-172160932D02*
X107352930Y-172228665D01*
X107352930Y-172228665D02*
X107217464Y-172262532D01*
X107217464Y-172262532D02*
X106980397Y-172262532D01*
X106980397Y-172262532D02*
X106844930Y-172228665D01*
X106844930Y-172228665D02*
X106777197Y-172160932D01*
X106777197Y-172160932D02*
X106743330Y-172093199D01*
X89103030Y-178715514D02*
X88391830Y-178715514D01*
X88391830Y-178715514D02*
X88391830Y-178546181D01*
X88391830Y-178546181D02*
X88425697Y-178444581D01*
X88425697Y-178444581D02*
X88493430Y-178376848D01*
X88493430Y-178376848D02*
X88561164Y-178342981D01*
X88561164Y-178342981D02*
X88696630Y-178309114D01*
X88696630Y-178309114D02*
X88798230Y-178309114D01*
X88798230Y-178309114D02*
X88933697Y-178342981D01*
X88933697Y-178342981D02*
X89001430Y-178376848D01*
X89001430Y-178376848D02*
X89069164Y-178444581D01*
X89069164Y-178444581D02*
X89103030Y-178546181D01*
X89103030Y-178546181D02*
X89103030Y-178715514D01*
X88459564Y-178038181D02*
X88425697Y-178004314D01*
X88425697Y-178004314D02*
X88391830Y-177936581D01*
X88391830Y-177936581D02*
X88391830Y-177767248D01*
X88391830Y-177767248D02*
X88425697Y-177699514D01*
X88425697Y-177699514D02*
X88459564Y-177665648D01*
X88459564Y-177665648D02*
X88527297Y-177631781D01*
X88527297Y-177631781D02*
X88595030Y-177631781D01*
X88595030Y-177631781D02*
X88696630Y-177665648D01*
X88696630Y-177665648D02*
X89103030Y-178072048D01*
X89103030Y-178072048D02*
X89103030Y-177631781D01*
X89103030Y-183721854D02*
X88391830Y-183721854D01*
X88391830Y-183721854D02*
X88391830Y-183552521D01*
X88391830Y-183552521D02*
X88425697Y-183450921D01*
X88425697Y-183450921D02*
X88493430Y-183383188D01*
X88493430Y-183383188D02*
X88561164Y-183349321D01*
X88561164Y-183349321D02*
X88696630Y-183315454D01*
X88696630Y-183315454D02*
X88798230Y-183315454D01*
X88798230Y-183315454D02*
X88933697Y-183349321D01*
X88933697Y-183349321D02*
X89001430Y-183383188D01*
X89001430Y-183383188D02*
X89069164Y-183450921D01*
X89069164Y-183450921D02*
X89103030Y-183552521D01*
X89103030Y-183552521D02*
X89103030Y-183721854D01*
X88391830Y-182875188D02*
X88391830Y-182807454D01*
X88391830Y-182807454D02*
X88425697Y-182739721D01*
X88425697Y-182739721D02*
X88459564Y-182705854D01*
X88459564Y-182705854D02*
X88527297Y-182671988D01*
X88527297Y-182671988D02*
X88662764Y-182638121D01*
X88662764Y-182638121D02*
X88832097Y-182638121D01*
X88832097Y-182638121D02*
X88967564Y-182671988D01*
X88967564Y-182671988D02*
X89035297Y-182705854D01*
X89035297Y-182705854D02*
X89069164Y-182739721D01*
X89069164Y-182739721D02*
X89103030Y-182807454D01*
X89103030Y-182807454D02*
X89103030Y-182875188D01*
X89103030Y-182875188D02*
X89069164Y-182942921D01*
X89069164Y-182942921D02*
X89035297Y-182976788D01*
X89035297Y-182976788D02*
X88967564Y-183010654D01*
X88967564Y-183010654D02*
X88832097Y-183044521D01*
X88832097Y-183044521D02*
X88662764Y-183044521D01*
X88662764Y-183044521D02*
X88527297Y-183010654D01*
X88527297Y-183010654D02*
X88459564Y-182976788D01*
X88459564Y-182976788D02*
X88425697Y-182942921D01*
X88425697Y-182942921D02*
X88391830Y-182875188D01*
X89069164Y-171457041D02*
X89103030Y-171355441D01*
X89103030Y-171355441D02*
X89103030Y-171186108D01*
X89103030Y-171186108D02*
X89069164Y-171118374D01*
X89069164Y-171118374D02*
X89035297Y-171084508D01*
X89035297Y-171084508D02*
X88967564Y-171050641D01*
X88967564Y-171050641D02*
X88899830Y-171050641D01*
X88899830Y-171050641D02*
X88832097Y-171084508D01*
X88832097Y-171084508D02*
X88798230Y-171118374D01*
X88798230Y-171118374D02*
X88764364Y-171186108D01*
X88764364Y-171186108D02*
X88730497Y-171321574D01*
X88730497Y-171321574D02*
X88696630Y-171389308D01*
X88696630Y-171389308D02*
X88662764Y-171423174D01*
X88662764Y-171423174D02*
X88595030Y-171457041D01*
X88595030Y-171457041D02*
X88527297Y-171457041D01*
X88527297Y-171457041D02*
X88459564Y-171423174D01*
X88459564Y-171423174D02*
X88425697Y-171389308D01*
X88425697Y-171389308D02*
X88391830Y-171321574D01*
X88391830Y-171321574D02*
X88391830Y-171152241D01*
X88391830Y-171152241D02*
X88425697Y-171050641D01*
X89035297Y-170339441D02*
X89069164Y-170373308D01*
X89069164Y-170373308D02*
X89103030Y-170474908D01*
X89103030Y-170474908D02*
X89103030Y-170542641D01*
X89103030Y-170542641D02*
X89069164Y-170644241D01*
X89069164Y-170644241D02*
X89001430Y-170711975D01*
X89001430Y-170711975D02*
X88933697Y-170745841D01*
X88933697Y-170745841D02*
X88798230Y-170779708D01*
X88798230Y-170779708D02*
X88696630Y-170779708D01*
X88696630Y-170779708D02*
X88561164Y-170745841D01*
X88561164Y-170745841D02*
X88493430Y-170711975D01*
X88493430Y-170711975D02*
X88425697Y-170644241D01*
X88425697Y-170644241D02*
X88391830Y-170542641D01*
X88391830Y-170542641D02*
X88391830Y-170474908D01*
X88391830Y-170474908D02*
X88425697Y-170373308D01*
X88425697Y-170373308D02*
X88459564Y-170339441D01*
X89103030Y-169695975D02*
X89103030Y-170034641D01*
X89103030Y-170034641D02*
X88391830Y-170034641D01*
X89103030Y-168469154D02*
X88764364Y-168706221D01*
X89103030Y-168875554D02*
X88391830Y-168875554D01*
X88391830Y-168875554D02*
X88391830Y-168604621D01*
X88391830Y-168604621D02*
X88425697Y-168536888D01*
X88425697Y-168536888D02*
X88459564Y-168503021D01*
X88459564Y-168503021D02*
X88527297Y-168469154D01*
X88527297Y-168469154D02*
X88628897Y-168469154D01*
X88628897Y-168469154D02*
X88696630Y-168503021D01*
X88696630Y-168503021D02*
X88730497Y-168536888D01*
X88730497Y-168536888D02*
X88764364Y-168604621D01*
X88764364Y-168604621D02*
X88764364Y-168875554D01*
X88391830Y-168232088D02*
X89103030Y-167757954D01*
X88391830Y-167757954D02*
X89103030Y-168232088D01*
X89103030Y-167487021D02*
X88391830Y-167487021D01*
X88391830Y-167487021D02*
X88391830Y-167317688D01*
X88391830Y-167317688D02*
X88425697Y-167216088D01*
X88425697Y-167216088D02*
X88493430Y-167148355D01*
X88493430Y-167148355D02*
X88561164Y-167114488D01*
X88561164Y-167114488D02*
X88696630Y-167080621D01*
X88696630Y-167080621D02*
X88798230Y-167080621D01*
X88798230Y-167080621D02*
X88933697Y-167114488D01*
X88933697Y-167114488D02*
X89001430Y-167148355D01*
X89001430Y-167148355D02*
X89069164Y-167216088D01*
X89069164Y-167216088D02*
X89103030Y-167317688D01*
X89103030Y-167317688D02*
X89103030Y-167487021D01*
X106833077Y-181414152D02*
X106799210Y-181481885D01*
X106799210Y-181481885D02*
X106799210Y-181583485D01*
X106799210Y-181583485D02*
X106833077Y-181685085D01*
X106833077Y-181685085D02*
X106900810Y-181752819D01*
X106900810Y-181752819D02*
X106968544Y-181786685D01*
X106968544Y-181786685D02*
X107104010Y-181820552D01*
X107104010Y-181820552D02*
X107205610Y-181820552D01*
X107205610Y-181820552D02*
X107341077Y-181786685D01*
X107341077Y-181786685D02*
X107408810Y-181752819D01*
X107408810Y-181752819D02*
X107476544Y-181685085D01*
X107476544Y-181685085D02*
X107510410Y-181583485D01*
X107510410Y-181583485D02*
X107510410Y-181515752D01*
X107510410Y-181515752D02*
X107476544Y-181414152D01*
X107476544Y-181414152D02*
X107442677Y-181380285D01*
X107442677Y-181380285D02*
X107205610Y-181380285D01*
X107205610Y-181380285D02*
X107205610Y-181515752D01*
X107510410Y-181075485D02*
X106799210Y-181075485D01*
X106799210Y-181075485D02*
X107510410Y-180669085D01*
X107510410Y-180669085D02*
X106799210Y-180669085D01*
X107510410Y-180330418D02*
X106799210Y-180330418D01*
X106799210Y-180330418D02*
X106799210Y-180161085D01*
X106799210Y-180161085D02*
X106833077Y-180059485D01*
X106833077Y-180059485D02*
X106900810Y-179991752D01*
X106900810Y-179991752D02*
X106968544Y-179957885D01*
X106968544Y-179957885D02*
X107104010Y-179924018D01*
X107104010Y-179924018D02*
X107205610Y-179924018D01*
X107205610Y-179924018D02*
X107341077Y-179957885D01*
X107341077Y-179957885D02*
X107408810Y-179991752D01*
X107408810Y-179991752D02*
X107476544Y-180059485D01*
X107476544Y-180059485D02*
X107510410Y-180161085D01*
X107510410Y-180161085D02*
X107510410Y-180330418D01*
X89103030Y-181291074D02*
X88391830Y-181291074D01*
X88391830Y-181291074D02*
X88391830Y-181121741D01*
X88391830Y-181121741D02*
X88425697Y-181020141D01*
X88425697Y-181020141D02*
X88493430Y-180952408D01*
X88493430Y-180952408D02*
X88561164Y-180918541D01*
X88561164Y-180918541D02*
X88696630Y-180884674D01*
X88696630Y-180884674D02*
X88798230Y-180884674D01*
X88798230Y-180884674D02*
X88933697Y-180918541D01*
X88933697Y-180918541D02*
X89001430Y-180952408D01*
X89001430Y-180952408D02*
X89069164Y-181020141D01*
X89069164Y-181020141D02*
X89103030Y-181121741D01*
X89103030Y-181121741D02*
X89103030Y-181291074D01*
X89103030Y-180207341D02*
X89103030Y-180613741D01*
X89103030Y-180410541D02*
X88391830Y-180410541D01*
X88391830Y-180410541D02*
X88493430Y-180478274D01*
X88493430Y-180478274D02*
X88561164Y-180546008D01*
X88561164Y-180546008D02*
X88595030Y-180613741D01*
X89103030Y-176025654D02*
X88764364Y-176262721D01*
X89103030Y-176432054D02*
X88391830Y-176432054D01*
X88391830Y-176432054D02*
X88391830Y-176161121D01*
X88391830Y-176161121D02*
X88425697Y-176093388D01*
X88425697Y-176093388D02*
X88459564Y-176059521D01*
X88459564Y-176059521D02*
X88527297Y-176025654D01*
X88527297Y-176025654D02*
X88628897Y-176025654D01*
X88628897Y-176025654D02*
X88696630Y-176059521D01*
X88696630Y-176059521D02*
X88730497Y-176093388D01*
X88730497Y-176093388D02*
X88764364Y-176161121D01*
X88764364Y-176161121D02*
X88764364Y-176432054D01*
X89069164Y-175754721D02*
X89103030Y-175653121D01*
X89103030Y-175653121D02*
X89103030Y-175483788D01*
X89103030Y-175483788D02*
X89069164Y-175416054D01*
X89069164Y-175416054D02*
X89035297Y-175382188D01*
X89035297Y-175382188D02*
X88967564Y-175348321D01*
X88967564Y-175348321D02*
X88899830Y-175348321D01*
X88899830Y-175348321D02*
X88832097Y-175382188D01*
X88832097Y-175382188D02*
X88798230Y-175416054D01*
X88798230Y-175416054D02*
X88764364Y-175483788D01*
X88764364Y-175483788D02*
X88730497Y-175619254D01*
X88730497Y-175619254D02*
X88696630Y-175686988D01*
X88696630Y-175686988D02*
X88662764Y-175720854D01*
X88662764Y-175720854D02*
X88595030Y-175754721D01*
X88595030Y-175754721D02*
X88527297Y-175754721D01*
X88527297Y-175754721D02*
X88459564Y-175720854D01*
X88459564Y-175720854D02*
X88425697Y-175686988D01*
X88425697Y-175686988D02*
X88391830Y-175619254D01*
X88391830Y-175619254D02*
X88391830Y-175449921D01*
X88391830Y-175449921D02*
X88425697Y-175348321D01*
X88391830Y-175145121D02*
X88391830Y-174738721D01*
X89103030Y-174941921D02*
X88391830Y-174941921D01*
X106799210Y-183348785D02*
X106799210Y-183687451D01*
X106799210Y-183687451D02*
X107137877Y-183721318D01*
X107137877Y-183721318D02*
X107104010Y-183687451D01*
X107104010Y-183687451D02*
X107070144Y-183619718D01*
X107070144Y-183619718D02*
X107070144Y-183450385D01*
X107070144Y-183450385D02*
X107104010Y-183382651D01*
X107104010Y-183382651D02*
X107137877Y-183348785D01*
X107137877Y-183348785D02*
X107205610Y-183314918D01*
X107205610Y-183314918D02*
X107374944Y-183314918D01*
X107374944Y-183314918D02*
X107442677Y-183348785D01*
X107442677Y-183348785D02*
X107476544Y-183382651D01*
X107476544Y-183382651D02*
X107510410Y-183450385D01*
X107510410Y-183450385D02*
X107510410Y-183619718D01*
X107510410Y-183619718D02*
X107476544Y-183687451D01*
X107476544Y-183687451D02*
X107442677Y-183721318D01*
X106799210Y-183111718D02*
X107510410Y-182874652D01*
X107510410Y-182874652D02*
X106799210Y-182637585D01*
X107454530Y-176978465D02*
X106743330Y-176978465D01*
X106743330Y-176978465D02*
X107251330Y-176741399D01*
X107251330Y-176741399D02*
X106743330Y-176504332D01*
X106743330Y-176504332D02*
X107454530Y-176504332D01*
X106743330Y-176030199D02*
X106743330Y-175894732D01*
X106743330Y-175894732D02*
X106777197Y-175826999D01*
X106777197Y-175826999D02*
X106844930Y-175759265D01*
X106844930Y-175759265D02*
X106980397Y-175725399D01*
X106980397Y-175725399D02*
X107217464Y-175725399D01*
X107217464Y-175725399D02*
X107352930Y-175759265D01*
X107352930Y-175759265D02*
X107420664Y-175826999D01*
X107420664Y-175826999D02*
X107454530Y-175894732D01*
X107454530Y-175894732D02*
X107454530Y-176030199D01*
X107454530Y-176030199D02*
X107420664Y-176097932D01*
X107420664Y-176097932D02*
X107352930Y-176165665D01*
X107352930Y-176165665D02*
X107217464Y-176199532D01*
X107217464Y-176199532D02*
X106980397Y-176199532D01*
X106980397Y-176199532D02*
X106844930Y-176165665D01*
X106844930Y-176165665D02*
X106777197Y-176097932D01*
X106777197Y-176097932D02*
X106743330Y-176030199D01*
X107420664Y-175454465D02*
X107454530Y-175352865D01*
X107454530Y-175352865D02*
X107454530Y-175183532D01*
X107454530Y-175183532D02*
X107420664Y-175115798D01*
X107420664Y-175115798D02*
X107386797Y-175081932D01*
X107386797Y-175081932D02*
X107319064Y-175048065D01*
X107319064Y-175048065D02*
X107251330Y-175048065D01*
X107251330Y-175048065D02*
X107183597Y-175081932D01*
X107183597Y-175081932D02*
X107149730Y-175115798D01*
X107149730Y-175115798D02*
X107115864Y-175183532D01*
X107115864Y-175183532D02*
X107081997Y-175318998D01*
X107081997Y-175318998D02*
X107048130Y-175386732D01*
X107048130Y-175386732D02*
X107014264Y-175420598D01*
X107014264Y-175420598D02*
X106946530Y-175454465D01*
X106946530Y-175454465D02*
X106878797Y-175454465D01*
X106878797Y-175454465D02*
X106811064Y-175420598D01*
X106811064Y-175420598D02*
X106777197Y-175386732D01*
X106777197Y-175386732D02*
X106743330Y-175318998D01*
X106743330Y-175318998D02*
X106743330Y-175149665D01*
X106743330Y-175149665D02*
X106777197Y-175048065D01*
X107454530Y-174743265D02*
X106743330Y-174743265D01*
X106768730Y-179281398D02*
X106768730Y-178841131D01*
X106768730Y-178841131D02*
X107039664Y-179078198D01*
X107039664Y-179078198D02*
X107039664Y-178976598D01*
X107039664Y-178976598D02*
X107073530Y-178908864D01*
X107073530Y-178908864D02*
X107107397Y-178874998D01*
X107107397Y-178874998D02*
X107175130Y-178841131D01*
X107175130Y-178841131D02*
X107344464Y-178841131D01*
X107344464Y-178841131D02*
X107412197Y-178874998D01*
X107412197Y-178874998D02*
X107446064Y-178908864D01*
X107446064Y-178908864D02*
X107479930Y-178976598D01*
X107479930Y-178976598D02*
X107479930Y-179179798D01*
X107479930Y-179179798D02*
X107446064Y-179247531D01*
X107446064Y-179247531D02*
X107412197Y-179281398D01*
X106768730Y-178637931D02*
X107479930Y-178400865D01*
X107479930Y-178400865D02*
X106768730Y-178163798D01*
X106768730Y-177994465D02*
X106768730Y-177554198D01*
X106768730Y-177554198D02*
X107039664Y-177791265D01*
X107039664Y-177791265D02*
X107039664Y-177689665D01*
X107039664Y-177689665D02*
X107073530Y-177621931D01*
X107073530Y-177621931D02*
X107107397Y-177588065D01*
X107107397Y-177588065D02*
X107175130Y-177554198D01*
X107175130Y-177554198D02*
X107344464Y-177554198D01*
X107344464Y-177554198D02*
X107412197Y-177588065D01*
X107412197Y-177588065D02*
X107446064Y-177621931D01*
X107446064Y-177621931D02*
X107479930Y-177689665D01*
X107479930Y-177689665D02*
X107479930Y-177892865D01*
X107479930Y-177892865D02*
X107446064Y-177960598D01*
X107446064Y-177960598D02*
X107412197Y-177994465D01*
X89069164Y-173981801D02*
X89103030Y-173880201D01*
X89103030Y-173880201D02*
X89103030Y-173710868D01*
X89103030Y-173710868D02*
X89069164Y-173643134D01*
X89069164Y-173643134D02*
X89035297Y-173609268D01*
X89035297Y-173609268D02*
X88967564Y-173575401D01*
X88967564Y-173575401D02*
X88899830Y-173575401D01*
X88899830Y-173575401D02*
X88832097Y-173609268D01*
X88832097Y-173609268D02*
X88798230Y-173643134D01*
X88798230Y-173643134D02*
X88764364Y-173710868D01*
X88764364Y-173710868D02*
X88730497Y-173846334D01*
X88730497Y-173846334D02*
X88696630Y-173914068D01*
X88696630Y-173914068D02*
X88662764Y-173947934D01*
X88662764Y-173947934D02*
X88595030Y-173981801D01*
X88595030Y-173981801D02*
X88527297Y-173981801D01*
X88527297Y-173981801D02*
X88459564Y-173947934D01*
X88459564Y-173947934D02*
X88425697Y-173914068D01*
X88425697Y-173914068D02*
X88391830Y-173846334D01*
X88391830Y-173846334D02*
X88391830Y-173677001D01*
X88391830Y-173677001D02*
X88425697Y-173575401D01*
X89103030Y-173270601D02*
X88391830Y-173270601D01*
X88391830Y-173270601D02*
X88391830Y-173101268D01*
X88391830Y-173101268D02*
X88425697Y-172999668D01*
X88425697Y-172999668D02*
X88493430Y-172931935D01*
X88493430Y-172931935D02*
X88561164Y-172898068D01*
X88561164Y-172898068D02*
X88696630Y-172864201D01*
X88696630Y-172864201D02*
X88798230Y-172864201D01*
X88798230Y-172864201D02*
X88933697Y-172898068D01*
X88933697Y-172898068D02*
X89001430Y-172931935D01*
X89001430Y-172931935D02*
X89069164Y-172999668D01*
X89069164Y-172999668D02*
X89103030Y-173101268D01*
X89103030Y-173101268D02*
X89103030Y-173270601D01*
X88899830Y-172593268D02*
X88899830Y-172254601D01*
X89103030Y-172661001D02*
X88391830Y-172423935D01*
X88391830Y-172423935D02*
X89103030Y-172186868D01*
X107412197Y-170789331D02*
X107446064Y-170823198D01*
X107446064Y-170823198D02*
X107479930Y-170924798D01*
X107479930Y-170924798D02*
X107479930Y-170992531D01*
X107479930Y-170992531D02*
X107446064Y-171094131D01*
X107446064Y-171094131D02*
X107378330Y-171161865D01*
X107378330Y-171161865D02*
X107310597Y-171195731D01*
X107310597Y-171195731D02*
X107175130Y-171229598D01*
X107175130Y-171229598D02*
X107073530Y-171229598D01*
X107073530Y-171229598D02*
X106938064Y-171195731D01*
X106938064Y-171195731D02*
X106870330Y-171161865D01*
X106870330Y-171161865D02*
X106802597Y-171094131D01*
X106802597Y-171094131D02*
X106768730Y-170992531D01*
X106768730Y-170992531D02*
X106768730Y-170924798D01*
X106768730Y-170924798D02*
X106802597Y-170823198D01*
X106802597Y-170823198D02*
X106836464Y-170789331D01*
X107479930Y-170145865D02*
X107479930Y-170484531D01*
X107479930Y-170484531D02*
X106768730Y-170484531D01*
X107479930Y-169908798D02*
X106768730Y-169908798D01*
X107479930Y-169502398D02*
X107073530Y-169807198D01*
X106768730Y-169502398D02*
X107175130Y-169908798D01*
X106799210Y-168748018D02*
X106799210Y-168341618D01*
X107510410Y-168544818D02*
X106799210Y-168544818D01*
X106799210Y-168172285D02*
X107510410Y-167698151D01*
X106799210Y-167698151D02*
X107510410Y-168172285D01*
X107510410Y-167427218D02*
X106799210Y-167427218D01*
X106799210Y-167427218D02*
X106799210Y-167257885D01*
X106799210Y-167257885D02*
X106833077Y-167156285D01*
X106833077Y-167156285D02*
X106900810Y-167088552D01*
X106900810Y-167088552D02*
X106968544Y-167054685D01*
X106968544Y-167054685D02*
X107104010Y-167020818D01*
X107104010Y-167020818D02*
X107205610Y-167020818D01*
X107205610Y-167020818D02*
X107341077Y-167054685D01*
X107341077Y-167054685D02*
X107408810Y-167088552D01*
X107408810Y-167088552D02*
X107476544Y-167156285D01*
X107476544Y-167156285D02*
X107510410Y-167257885D01*
X107510410Y-167257885D02*
X107510410Y-167427218D01*
D10*
X110367866Y-183065609D02*
X110034533Y-183065609D01*
X110034533Y-183589419D02*
X110034533Y-182589419D01*
X110034533Y-182589419D02*
X110510723Y-182589419D01*
X111225009Y-183065609D02*
X111367866Y-183113228D01*
X111367866Y-183113228D02*
X111415485Y-183160847D01*
X111415485Y-183160847D02*
X111463104Y-183256085D01*
X111463104Y-183256085D02*
X111463104Y-183398942D01*
X111463104Y-183398942D02*
X111415485Y-183494180D01*
X111415485Y-183494180D02*
X111367866Y-183541800D01*
X111367866Y-183541800D02*
X111272628Y-183589419D01*
X111272628Y-183589419D02*
X110891676Y-183589419D01*
X110891676Y-183589419D02*
X110891676Y-182589419D01*
X110891676Y-182589419D02*
X111225009Y-182589419D01*
X111225009Y-182589419D02*
X111320247Y-182637038D01*
X111320247Y-182637038D02*
X111367866Y-182684657D01*
X111367866Y-182684657D02*
X111415485Y-182779895D01*
X111415485Y-182779895D02*
X111415485Y-182875133D01*
X111415485Y-182875133D02*
X111367866Y-182970371D01*
X111367866Y-182970371D02*
X111320247Y-183017990D01*
X111320247Y-183017990D02*
X111225009Y-183065609D01*
X111225009Y-183065609D02*
X110891676Y-183065609D01*
X112415485Y-183589419D02*
X111844057Y-183589419D01*
X112129771Y-183589419D02*
X112129771Y-182589419D01*
X112129771Y-182589419D02*
X112034533Y-182732276D01*
X112034533Y-182732276D02*
X111939295Y-182827514D01*
X111939295Y-182827514D02*
X111844057Y-182875133D01*
X51649333Y-134598580D02*
X51601714Y-134646200D01*
X51601714Y-134646200D02*
X51458857Y-134693819D01*
X51458857Y-134693819D02*
X51363619Y-134693819D01*
X51363619Y-134693819D02*
X51220762Y-134646200D01*
X51220762Y-134646200D02*
X51125524Y-134550961D01*
X51125524Y-134550961D02*
X51077905Y-134455723D01*
X51077905Y-134455723D02*
X51030286Y-134265247D01*
X51030286Y-134265247D02*
X51030286Y-134122390D01*
X51030286Y-134122390D02*
X51077905Y-133931914D01*
X51077905Y-133931914D02*
X51125524Y-133836676D01*
X51125524Y-133836676D02*
X51220762Y-133741438D01*
X51220762Y-133741438D02*
X51363619Y-133693819D01*
X51363619Y-133693819D02*
X51458857Y-133693819D01*
X51458857Y-133693819D02*
X51601714Y-133741438D01*
X51601714Y-133741438D02*
X51649333Y-133789057D01*
X52220762Y-134122390D02*
X52125524Y-134074771D01*
X52125524Y-134074771D02*
X52077905Y-134027152D01*
X52077905Y-134027152D02*
X52030286Y-133931914D01*
X52030286Y-133931914D02*
X52030286Y-133884295D01*
X52030286Y-133884295D02*
X52077905Y-133789057D01*
X52077905Y-133789057D02*
X52125524Y-133741438D01*
X52125524Y-133741438D02*
X52220762Y-133693819D01*
X52220762Y-133693819D02*
X52411238Y-133693819D01*
X52411238Y-133693819D02*
X52506476Y-133741438D01*
X52506476Y-133741438D02*
X52554095Y-133789057D01*
X52554095Y-133789057D02*
X52601714Y-133884295D01*
X52601714Y-133884295D02*
X52601714Y-133931914D01*
X52601714Y-133931914D02*
X52554095Y-134027152D01*
X52554095Y-134027152D02*
X52506476Y-134074771D01*
X52506476Y-134074771D02*
X52411238Y-134122390D01*
X52411238Y-134122390D02*
X52220762Y-134122390D01*
X52220762Y-134122390D02*
X52125524Y-134170009D01*
X52125524Y-134170009D02*
X52077905Y-134217628D01*
X52077905Y-134217628D02*
X52030286Y-134312866D01*
X52030286Y-134312866D02*
X52030286Y-134503342D01*
X52030286Y-134503342D02*
X52077905Y-134598580D01*
X52077905Y-134598580D02*
X52125524Y-134646200D01*
X52125524Y-134646200D02*
X52220762Y-134693819D01*
X52220762Y-134693819D02*
X52411238Y-134693819D01*
X52411238Y-134693819D02*
X52506476Y-134646200D01*
X52506476Y-134646200D02*
X52554095Y-134598580D01*
X52554095Y-134598580D02*
X52601714Y-134503342D01*
X52601714Y-134503342D02*
X52601714Y-134312866D01*
X52601714Y-134312866D02*
X52554095Y-134217628D01*
X52554095Y-134217628D02*
X52506476Y-134170009D01*
X52506476Y-134170009D02*
X52411238Y-134122390D01*
D11*
X82249961Y-179363856D02*
X82297580Y-179268618D01*
X82297580Y-179268618D02*
X82297580Y-179125761D01*
X82297580Y-179125761D02*
X82249961Y-178982904D01*
X82249961Y-178982904D02*
X82154723Y-178887666D01*
X82154723Y-178887666D02*
X82059485Y-178840047D01*
X82059485Y-178840047D02*
X81869009Y-178792428D01*
X81869009Y-178792428D02*
X81726152Y-178792428D01*
X81726152Y-178792428D02*
X81535676Y-178840047D01*
X81535676Y-178840047D02*
X81440438Y-178887666D01*
X81440438Y-178887666D02*
X81345200Y-178982904D01*
X81345200Y-178982904D02*
X81297580Y-179125761D01*
X81297580Y-179125761D02*
X81297580Y-179220999D01*
X81297580Y-179220999D02*
X81345200Y-179363856D01*
X81345200Y-179363856D02*
X81392819Y-179411475D01*
X81392819Y-179411475D02*
X81726152Y-179411475D01*
X81726152Y-179411475D02*
X81726152Y-179220999D01*
X81964247Y-179744809D02*
X81297580Y-179982904D01*
X81964247Y-180220999D02*
X81297580Y-179982904D01*
X81297580Y-179982904D02*
X81059485Y-179887666D01*
X81059485Y-179887666D02*
X81011866Y-179840047D01*
X81011866Y-179840047D02*
X80964247Y-179744809D01*
X81297580Y-180601952D02*
X81964247Y-180601952D01*
X81773771Y-180601952D02*
X81869009Y-180649571D01*
X81869009Y-180649571D02*
X81916628Y-180697190D01*
X81916628Y-180697190D02*
X81964247Y-180792428D01*
X81964247Y-180792428D02*
X81964247Y-180887666D01*
X81297580Y-181363857D02*
X81345200Y-181268619D01*
X81345200Y-181268619D02*
X81392819Y-181221000D01*
X81392819Y-181221000D02*
X81488057Y-181173381D01*
X81488057Y-181173381D02*
X81773771Y-181173381D01*
X81773771Y-181173381D02*
X81869009Y-181221000D01*
X81869009Y-181221000D02*
X81916628Y-181268619D01*
X81916628Y-181268619D02*
X81964247Y-181363857D01*
X81964247Y-181363857D02*
X81964247Y-181506714D01*
X81964247Y-181506714D02*
X81916628Y-181601952D01*
X81916628Y-181601952D02*
X81869009Y-181649571D01*
X81869009Y-181649571D02*
X81773771Y-181697190D01*
X81773771Y-181697190D02*
X81488057Y-181697190D01*
X81488057Y-181697190D02*
X81392819Y-181649571D01*
X81392819Y-181649571D02*
X81345200Y-181601952D01*
X81345200Y-181601952D02*
X81297580Y-181506714D01*
X81297580Y-181506714D02*
X81297580Y-181363857D01*
X81297580Y-182649571D02*
X81297580Y-182078143D01*
X81297580Y-182363857D02*
X82297580Y-182363857D01*
X82297580Y-182363857D02*
X82154723Y-182268619D01*
X82154723Y-182268619D02*
X82059485Y-182173381D01*
X82059485Y-182173381D02*
X82011866Y-182078143D01*
X54610095Y-145888419D02*
X54610095Y-146697942D01*
X54610095Y-146697942D02*
X54657714Y-146793180D01*
X54657714Y-146793180D02*
X54705333Y-146840800D01*
X54705333Y-146840800D02*
X54800571Y-146888419D01*
X54800571Y-146888419D02*
X54991047Y-146888419D01*
X54991047Y-146888419D02*
X55086285Y-146840800D01*
X55086285Y-146840800D02*
X55133904Y-146793180D01*
X55133904Y-146793180D02*
X55181523Y-146697942D01*
X55181523Y-146697942D02*
X55181523Y-145888419D01*
X56133904Y-145888419D02*
X55657714Y-145888419D01*
X55657714Y-145888419D02*
X55610095Y-146364609D01*
X55610095Y-146364609D02*
X55657714Y-146316990D01*
X55657714Y-146316990D02*
X55752952Y-146269371D01*
X55752952Y-146269371D02*
X55991047Y-146269371D01*
X55991047Y-146269371D02*
X56086285Y-146316990D01*
X56086285Y-146316990D02*
X56133904Y-146364609D01*
X56133904Y-146364609D02*
X56181523Y-146459847D01*
X56181523Y-146459847D02*
X56181523Y-146697942D01*
X56181523Y-146697942D02*
X56133904Y-146793180D01*
X56133904Y-146793180D02*
X56086285Y-146840800D01*
X56086285Y-146840800D02*
X55991047Y-146888419D01*
X55991047Y-146888419D02*
X55752952Y-146888419D01*
X55752952Y-146888419D02*
X55657714Y-146840800D01*
X55657714Y-146840800D02*
X55610095Y-146793180D01*
X65405095Y-145888419D02*
X65405095Y-146697942D01*
X65405095Y-146697942D02*
X65452714Y-146793180D01*
X65452714Y-146793180D02*
X65500333Y-146840800D01*
X65500333Y-146840800D02*
X65595571Y-146888419D01*
X65595571Y-146888419D02*
X65786047Y-146888419D01*
X65786047Y-146888419D02*
X65881285Y-146840800D01*
X65881285Y-146840800D02*
X65928904Y-146793180D01*
X65928904Y-146793180D02*
X65976523Y-146697942D01*
X65976523Y-146697942D02*
X65976523Y-145888419D01*
X66881285Y-145888419D02*
X66690809Y-145888419D01*
X66690809Y-145888419D02*
X66595571Y-145936038D01*
X66595571Y-145936038D02*
X66547952Y-145983657D01*
X66547952Y-145983657D02*
X66452714Y-146126514D01*
X66452714Y-146126514D02*
X66405095Y-146316990D01*
X66405095Y-146316990D02*
X66405095Y-146697942D01*
X66405095Y-146697942D02*
X66452714Y-146793180D01*
X66452714Y-146793180D02*
X66500333Y-146840800D01*
X66500333Y-146840800D02*
X66595571Y-146888419D01*
X66595571Y-146888419D02*
X66786047Y-146888419D01*
X66786047Y-146888419D02*
X66881285Y-146840800D01*
X66881285Y-146840800D02*
X66928904Y-146793180D01*
X66928904Y-146793180D02*
X66976523Y-146697942D01*
X66976523Y-146697942D02*
X66976523Y-146459847D01*
X66976523Y-146459847D02*
X66928904Y-146364609D01*
X66928904Y-146364609D02*
X66881285Y-146316990D01*
X66881285Y-146316990D02*
X66786047Y-146269371D01*
X66786047Y-146269371D02*
X66595571Y-146269371D01*
X66595571Y-146269371D02*
X66500333Y-146316990D01*
X66500333Y-146316990D02*
X66452714Y-146364609D01*
X66452714Y-146364609D02*
X66405095Y-146459847D01*
D10*
X97609066Y-158601619D02*
X97609066Y-159315904D01*
X97609066Y-159315904D02*
X97561447Y-159458761D01*
X97561447Y-159458761D02*
X97466209Y-159554000D01*
X97466209Y-159554000D02*
X97323352Y-159601619D01*
X97323352Y-159601619D02*
X97228114Y-159601619D01*
X97990019Y-158601619D02*
X98609066Y-158601619D01*
X98609066Y-158601619D02*
X98275733Y-158982571D01*
X98275733Y-158982571D02*
X98418590Y-158982571D01*
X98418590Y-158982571D02*
X98513828Y-159030190D01*
X98513828Y-159030190D02*
X98561447Y-159077809D01*
X98561447Y-159077809D02*
X98609066Y-159173047D01*
X98609066Y-159173047D02*
X98609066Y-159411142D01*
X98609066Y-159411142D02*
X98561447Y-159506380D01*
X98561447Y-159506380D02*
X98513828Y-159554000D01*
X98513828Y-159554000D02*
X98418590Y-159601619D01*
X98418590Y-159601619D02*
X98132876Y-159601619D01*
X98132876Y-159601619D02*
X98037638Y-159554000D01*
X98037638Y-159554000D02*
X97990019Y-159506380D01*
X65282866Y-142044009D02*
X64949533Y-142044009D01*
X64949533Y-142567819D02*
X64949533Y-141567819D01*
X64949533Y-141567819D02*
X65425723Y-141567819D01*
X66140009Y-142044009D02*
X66282866Y-142091628D01*
X66282866Y-142091628D02*
X66330485Y-142139247D01*
X66330485Y-142139247D02*
X66378104Y-142234485D01*
X66378104Y-142234485D02*
X66378104Y-142377342D01*
X66378104Y-142377342D02*
X66330485Y-142472580D01*
X66330485Y-142472580D02*
X66282866Y-142520200D01*
X66282866Y-142520200D02*
X66187628Y-142567819D01*
X66187628Y-142567819D02*
X65806676Y-142567819D01*
X65806676Y-142567819D02*
X65806676Y-141567819D01*
X65806676Y-141567819D02*
X66140009Y-141567819D01*
X66140009Y-141567819D02*
X66235247Y-141615438D01*
X66235247Y-141615438D02*
X66282866Y-141663057D01*
X66282866Y-141663057D02*
X66330485Y-141758295D01*
X66330485Y-141758295D02*
X66330485Y-141853533D01*
X66330485Y-141853533D02*
X66282866Y-141948771D01*
X66282866Y-141948771D02*
X66235247Y-141996390D01*
X66235247Y-141996390D02*
X66140009Y-142044009D01*
X66140009Y-142044009D02*
X65806676Y-142044009D01*
X66711438Y-141567819D02*
X67330485Y-141567819D01*
X67330485Y-141567819D02*
X66997152Y-141948771D01*
X66997152Y-141948771D02*
X67140009Y-141948771D01*
X67140009Y-141948771D02*
X67235247Y-141996390D01*
X67235247Y-141996390D02*
X67282866Y-142044009D01*
X67282866Y-142044009D02*
X67330485Y-142139247D01*
X67330485Y-142139247D02*
X67330485Y-142377342D01*
X67330485Y-142377342D02*
X67282866Y-142472580D01*
X67282866Y-142472580D02*
X67235247Y-142520200D01*
X67235247Y-142520200D02*
X67140009Y-142567819D01*
X67140009Y-142567819D02*
X66854295Y-142567819D01*
X66854295Y-142567819D02*
X66759057Y-142520200D01*
X66759057Y-142520200D02*
X66711438Y-142472580D01*
X78986142Y-117486580D02*
X78938523Y-117534200D01*
X78938523Y-117534200D02*
X78795666Y-117581819D01*
X78795666Y-117581819D02*
X78700428Y-117581819D01*
X78700428Y-117581819D02*
X78557571Y-117534200D01*
X78557571Y-117534200D02*
X78462333Y-117438961D01*
X78462333Y-117438961D02*
X78414714Y-117343723D01*
X78414714Y-117343723D02*
X78367095Y-117153247D01*
X78367095Y-117153247D02*
X78367095Y-117010390D01*
X78367095Y-117010390D02*
X78414714Y-116819914D01*
X78414714Y-116819914D02*
X78462333Y-116724676D01*
X78462333Y-116724676D02*
X78557571Y-116629438D01*
X78557571Y-116629438D02*
X78700428Y-116581819D01*
X78700428Y-116581819D02*
X78795666Y-116581819D01*
X78795666Y-116581819D02*
X78938523Y-116629438D01*
X78938523Y-116629438D02*
X78986142Y-116677057D01*
X79938523Y-117581819D02*
X79367095Y-117581819D01*
X79652809Y-117581819D02*
X79652809Y-116581819D01*
X79652809Y-116581819D02*
X79557571Y-116724676D01*
X79557571Y-116724676D02*
X79462333Y-116819914D01*
X79462333Y-116819914D02*
X79367095Y-116867533D01*
X80843285Y-116581819D02*
X80367095Y-116581819D01*
X80367095Y-116581819D02*
X80319476Y-117058009D01*
X80319476Y-117058009D02*
X80367095Y-117010390D01*
X80367095Y-117010390D02*
X80462333Y-116962771D01*
X80462333Y-116962771D02*
X80700428Y-116962771D01*
X80700428Y-116962771D02*
X80795666Y-117010390D01*
X80795666Y-117010390D02*
X80843285Y-117058009D01*
X80843285Y-117058009D02*
X80890904Y-117153247D01*
X80890904Y-117153247D02*
X80890904Y-117391342D01*
X80890904Y-117391342D02*
X80843285Y-117486580D01*
X80843285Y-117486580D02*
X80795666Y-117534200D01*
X80795666Y-117534200D02*
X80700428Y-117581819D01*
X80700428Y-117581819D02*
X80462333Y-117581819D01*
X80462333Y-117581819D02*
X80367095Y-117534200D01*
X80367095Y-117534200D02*
X80319476Y-117486580D01*
X140636666Y-152264819D02*
X140636666Y-152979104D01*
X140636666Y-152979104D02*
X140589047Y-153121961D01*
X140589047Y-153121961D02*
X140493809Y-153217200D01*
X140493809Y-153217200D02*
X140350952Y-153264819D01*
X140350952Y-153264819D02*
X140255714Y-153264819D01*
X141017619Y-152264819D02*
X141684285Y-152264819D01*
X141684285Y-152264819D02*
X141255714Y-153264819D01*
X76590233Y-105788619D02*
X76256900Y-105312428D01*
X76018805Y-105788619D02*
X76018805Y-104788619D01*
X76018805Y-104788619D02*
X76399757Y-104788619D01*
X76399757Y-104788619D02*
X76494995Y-104836238D01*
X76494995Y-104836238D02*
X76542614Y-104883857D01*
X76542614Y-104883857D02*
X76590233Y-104979095D01*
X76590233Y-104979095D02*
X76590233Y-105121952D01*
X76590233Y-105121952D02*
X76542614Y-105217190D01*
X76542614Y-105217190D02*
X76494995Y-105264809D01*
X76494995Y-105264809D02*
X76399757Y-105312428D01*
X76399757Y-105312428D02*
X76018805Y-105312428D01*
X77161662Y-105217190D02*
X77066424Y-105169571D01*
X77066424Y-105169571D02*
X77018805Y-105121952D01*
X77018805Y-105121952D02*
X76971186Y-105026714D01*
X76971186Y-105026714D02*
X76971186Y-104979095D01*
X76971186Y-104979095D02*
X77018805Y-104883857D01*
X77018805Y-104883857D02*
X77066424Y-104836238D01*
X77066424Y-104836238D02*
X77161662Y-104788619D01*
X77161662Y-104788619D02*
X77352138Y-104788619D01*
X77352138Y-104788619D02*
X77447376Y-104836238D01*
X77447376Y-104836238D02*
X77494995Y-104883857D01*
X77494995Y-104883857D02*
X77542614Y-104979095D01*
X77542614Y-104979095D02*
X77542614Y-105026714D01*
X77542614Y-105026714D02*
X77494995Y-105121952D01*
X77494995Y-105121952D02*
X77447376Y-105169571D01*
X77447376Y-105169571D02*
X77352138Y-105217190D01*
X77352138Y-105217190D02*
X77161662Y-105217190D01*
X77161662Y-105217190D02*
X77066424Y-105264809D01*
X77066424Y-105264809D02*
X77018805Y-105312428D01*
X77018805Y-105312428D02*
X76971186Y-105407666D01*
X76971186Y-105407666D02*
X76971186Y-105598142D01*
X76971186Y-105598142D02*
X77018805Y-105693380D01*
X77018805Y-105693380D02*
X77066424Y-105741000D01*
X77066424Y-105741000D02*
X77161662Y-105788619D01*
X77161662Y-105788619D02*
X77352138Y-105788619D01*
X77352138Y-105788619D02*
X77447376Y-105741000D01*
X77447376Y-105741000D02*
X77494995Y-105693380D01*
X77494995Y-105693380D02*
X77542614Y-105598142D01*
X77542614Y-105598142D02*
X77542614Y-105407666D01*
X77542614Y-105407666D02*
X77494995Y-105312428D01*
X77494995Y-105312428D02*
X77447376Y-105264809D01*
X77447376Y-105264809D02*
X77352138Y-105217190D01*
X80703009Y-100020333D02*
X80703009Y-100353666D01*
X81226819Y-100353666D02*
X80226819Y-100353666D01*
X80226819Y-100353666D02*
X80226819Y-99877476D01*
X80703009Y-99163190D02*
X80750628Y-99020333D01*
X80750628Y-99020333D02*
X80798247Y-98972714D01*
X80798247Y-98972714D02*
X80893485Y-98925095D01*
X80893485Y-98925095D02*
X81036342Y-98925095D01*
X81036342Y-98925095D02*
X81131580Y-98972714D01*
X81131580Y-98972714D02*
X81179200Y-99020333D01*
X81179200Y-99020333D02*
X81226819Y-99115571D01*
X81226819Y-99115571D02*
X81226819Y-99496523D01*
X81226819Y-99496523D02*
X80226819Y-99496523D01*
X80226819Y-99496523D02*
X80226819Y-99163190D01*
X80226819Y-99163190D02*
X80274438Y-99067952D01*
X80274438Y-99067952D02*
X80322057Y-99020333D01*
X80322057Y-99020333D02*
X80417295Y-98972714D01*
X80417295Y-98972714D02*
X80512533Y-98972714D01*
X80512533Y-98972714D02*
X80607771Y-99020333D01*
X80607771Y-99020333D02*
X80655390Y-99067952D01*
X80655390Y-99067952D02*
X80703009Y-99163190D01*
X80703009Y-99163190D02*
X80703009Y-99496523D01*
X80560152Y-98067952D02*
X81226819Y-98067952D01*
X80179200Y-98306047D02*
X80893485Y-98544142D01*
X80893485Y-98544142D02*
X80893485Y-97925095D01*
X107851676Y-118504619D02*
X107851676Y-119218904D01*
X107851676Y-119218904D02*
X107804057Y-119361761D01*
X107804057Y-119361761D02*
X107708819Y-119457000D01*
X107708819Y-119457000D02*
X107565962Y-119504619D01*
X107565962Y-119504619D02*
X107470724Y-119504619D01*
X108851676Y-119504619D02*
X108280248Y-119504619D01*
X108565962Y-119504619D02*
X108565962Y-118504619D01*
X108565962Y-118504619D02*
X108470724Y-118647476D01*
X108470724Y-118647476D02*
X108375486Y-118742714D01*
X108375486Y-118742714D02*
X108280248Y-118790333D01*
X109327867Y-119504619D02*
X109518343Y-119504619D01*
X109518343Y-119504619D02*
X109613581Y-119457000D01*
X109613581Y-119457000D02*
X109661200Y-119409380D01*
X109661200Y-119409380D02*
X109756438Y-119266523D01*
X109756438Y-119266523D02*
X109804057Y-119076047D01*
X109804057Y-119076047D02*
X109804057Y-118695095D01*
X109804057Y-118695095D02*
X109756438Y-118599857D01*
X109756438Y-118599857D02*
X109708819Y-118552238D01*
X109708819Y-118552238D02*
X109613581Y-118504619D01*
X109613581Y-118504619D02*
X109423105Y-118504619D01*
X109423105Y-118504619D02*
X109327867Y-118552238D01*
X109327867Y-118552238D02*
X109280248Y-118599857D01*
X109280248Y-118599857D02*
X109232629Y-118695095D01*
X109232629Y-118695095D02*
X109232629Y-118933190D01*
X109232629Y-118933190D02*
X109280248Y-119028428D01*
X109280248Y-119028428D02*
X109327867Y-119076047D01*
X109327867Y-119076047D02*
X109423105Y-119123666D01*
X109423105Y-119123666D02*
X109613581Y-119123666D01*
X109613581Y-119123666D02*
X109708819Y-119076047D01*
X109708819Y-119076047D02*
X109756438Y-119028428D01*
X109756438Y-119028428D02*
X109804057Y-118933190D01*
X56662200Y-164294332D02*
X56709819Y-164151475D01*
X56709819Y-164151475D02*
X56709819Y-163913380D01*
X56709819Y-163913380D02*
X56662200Y-163818142D01*
X56662200Y-163818142D02*
X56614580Y-163770523D01*
X56614580Y-163770523D02*
X56519342Y-163722904D01*
X56519342Y-163722904D02*
X56424104Y-163722904D01*
X56424104Y-163722904D02*
X56328866Y-163770523D01*
X56328866Y-163770523D02*
X56281247Y-163818142D01*
X56281247Y-163818142D02*
X56233628Y-163913380D01*
X56233628Y-163913380D02*
X56186009Y-164103856D01*
X56186009Y-164103856D02*
X56138390Y-164199094D01*
X56138390Y-164199094D02*
X56090771Y-164246713D01*
X56090771Y-164246713D02*
X55995533Y-164294332D01*
X55995533Y-164294332D02*
X55900295Y-164294332D01*
X55900295Y-164294332D02*
X55805057Y-164246713D01*
X55805057Y-164246713D02*
X55757438Y-164199094D01*
X55757438Y-164199094D02*
X55709819Y-164103856D01*
X55709819Y-164103856D02*
X55709819Y-163865761D01*
X55709819Y-163865761D02*
X55757438Y-163722904D01*
X55709819Y-163389570D02*
X56709819Y-163151475D01*
X56709819Y-163151475D02*
X55995533Y-162960999D01*
X55995533Y-162960999D02*
X56709819Y-162770523D01*
X56709819Y-162770523D02*
X55709819Y-162532428D01*
X56709819Y-161627666D02*
X56709819Y-162199094D01*
X56709819Y-161913380D02*
X55709819Y-161913380D01*
X55709819Y-161913380D02*
X55852676Y-162008618D01*
X55852676Y-162008618D02*
X55947914Y-162103856D01*
X55947914Y-162103856D02*
X55995533Y-162199094D01*
X69050819Y-127733323D02*
X69765104Y-127733323D01*
X69765104Y-127733323D02*
X69907961Y-127780942D01*
X69907961Y-127780942D02*
X70003200Y-127876180D01*
X70003200Y-127876180D02*
X70050819Y-128019037D01*
X70050819Y-128019037D02*
X70050819Y-128114275D01*
X70050819Y-126733323D02*
X70050819Y-127304751D01*
X70050819Y-127019037D02*
X69050819Y-127019037D01*
X69050819Y-127019037D02*
X69193676Y-127114275D01*
X69193676Y-127114275D02*
X69288914Y-127209513D01*
X69288914Y-127209513D02*
X69336533Y-127304751D01*
X69050819Y-125828561D02*
X69050819Y-126304751D01*
X69050819Y-126304751D02*
X69527009Y-126352370D01*
X69527009Y-126352370D02*
X69479390Y-126304751D01*
X69479390Y-126304751D02*
X69431771Y-126209513D01*
X69431771Y-126209513D02*
X69431771Y-125971418D01*
X69431771Y-125971418D02*
X69479390Y-125876180D01*
X69479390Y-125876180D02*
X69527009Y-125828561D01*
X69527009Y-125828561D02*
X69622247Y-125780942D01*
X69622247Y-125780942D02*
X69860342Y-125780942D01*
X69860342Y-125780942D02*
X69955580Y-125828561D01*
X69955580Y-125828561D02*
X70003200Y-125876180D01*
X70003200Y-125876180D02*
X70050819Y-125971418D01*
X70050819Y-125971418D02*
X70050819Y-126209513D01*
X70050819Y-126209513D02*
X70003200Y-126304751D01*
X70003200Y-126304751D02*
X69955580Y-126352370D01*
X60891009Y-149423333D02*
X60891009Y-149756666D01*
X61414819Y-149756666D02*
X60414819Y-149756666D01*
X60414819Y-149756666D02*
X60414819Y-149280476D01*
X60891009Y-148566190D02*
X60938628Y-148423333D01*
X60938628Y-148423333D02*
X60986247Y-148375714D01*
X60986247Y-148375714D02*
X61081485Y-148328095D01*
X61081485Y-148328095D02*
X61224342Y-148328095D01*
X61224342Y-148328095D02*
X61319580Y-148375714D01*
X61319580Y-148375714D02*
X61367200Y-148423333D01*
X61367200Y-148423333D02*
X61414819Y-148518571D01*
X61414819Y-148518571D02*
X61414819Y-148899523D01*
X61414819Y-148899523D02*
X60414819Y-148899523D01*
X60414819Y-148899523D02*
X60414819Y-148566190D01*
X60414819Y-148566190D02*
X60462438Y-148470952D01*
X60462438Y-148470952D02*
X60510057Y-148423333D01*
X60510057Y-148423333D02*
X60605295Y-148375714D01*
X60605295Y-148375714D02*
X60700533Y-148375714D01*
X60700533Y-148375714D02*
X60795771Y-148423333D01*
X60795771Y-148423333D02*
X60843390Y-148470952D01*
X60843390Y-148470952D02*
X60891009Y-148566190D01*
X60891009Y-148566190D02*
X60891009Y-148899523D01*
X60510057Y-147947142D02*
X60462438Y-147899523D01*
X60462438Y-147899523D02*
X60414819Y-147804285D01*
X60414819Y-147804285D02*
X60414819Y-147566190D01*
X60414819Y-147566190D02*
X60462438Y-147470952D01*
X60462438Y-147470952D02*
X60510057Y-147423333D01*
X60510057Y-147423333D02*
X60605295Y-147375714D01*
X60605295Y-147375714D02*
X60700533Y-147375714D01*
X60700533Y-147375714D02*
X60843390Y-147423333D01*
X60843390Y-147423333D02*
X61414819Y-147994761D01*
X61414819Y-147994761D02*
X61414819Y-147375714D01*
X126341666Y-107722200D02*
X126484523Y-107769819D01*
X126484523Y-107769819D02*
X126722618Y-107769819D01*
X126722618Y-107769819D02*
X126817856Y-107722200D01*
X126817856Y-107722200D02*
X126865475Y-107674580D01*
X126865475Y-107674580D02*
X126913094Y-107579342D01*
X126913094Y-107579342D02*
X126913094Y-107484104D01*
X126913094Y-107484104D02*
X126865475Y-107388866D01*
X126865475Y-107388866D02*
X126817856Y-107341247D01*
X126817856Y-107341247D02*
X126722618Y-107293628D01*
X126722618Y-107293628D02*
X126532142Y-107246009D01*
X126532142Y-107246009D02*
X126436904Y-107198390D01*
X126436904Y-107198390D02*
X126389285Y-107150771D01*
X126389285Y-107150771D02*
X126341666Y-107055533D01*
X126341666Y-107055533D02*
X126341666Y-106960295D01*
X126341666Y-106960295D02*
X126389285Y-106865057D01*
X126389285Y-106865057D02*
X126436904Y-106817438D01*
X126436904Y-106817438D02*
X126532142Y-106769819D01*
X126532142Y-106769819D02*
X126770237Y-106769819D01*
X126770237Y-106769819D02*
X126913094Y-106817438D01*
X127770237Y-107103152D02*
X127770237Y-107769819D01*
X127341666Y-107103152D02*
X127341666Y-107626961D01*
X127341666Y-107626961D02*
X127389285Y-107722200D01*
X127389285Y-107722200D02*
X127484523Y-107769819D01*
X127484523Y-107769819D02*
X127627380Y-107769819D01*
X127627380Y-107769819D02*
X127722618Y-107722200D01*
X127722618Y-107722200D02*
X127770237Y-107674580D01*
X128246428Y-107769819D02*
X128246428Y-106769819D01*
X128246428Y-107150771D02*
X128341666Y-107103152D01*
X128341666Y-107103152D02*
X128532142Y-107103152D01*
X128532142Y-107103152D02*
X128627380Y-107150771D01*
X128627380Y-107150771D02*
X128674999Y-107198390D01*
X128674999Y-107198390D02*
X128722618Y-107293628D01*
X128722618Y-107293628D02*
X128722618Y-107579342D01*
X128722618Y-107579342D02*
X128674999Y-107674580D01*
X128674999Y-107674580D02*
X128627380Y-107722200D01*
X128627380Y-107722200D02*
X128532142Y-107769819D01*
X128532142Y-107769819D02*
X128341666Y-107769819D01*
X128341666Y-107769819D02*
X128246428Y-107722200D01*
X129484523Y-107246009D02*
X129627380Y-107293628D01*
X129627380Y-107293628D02*
X129674999Y-107341247D01*
X129674999Y-107341247D02*
X129722618Y-107436485D01*
X129722618Y-107436485D02*
X129722618Y-107579342D01*
X129722618Y-107579342D02*
X129674999Y-107674580D01*
X129674999Y-107674580D02*
X129627380Y-107722200D01*
X129627380Y-107722200D02*
X129532142Y-107769819D01*
X129532142Y-107769819D02*
X129151190Y-107769819D01*
X129151190Y-107769819D02*
X129151190Y-106769819D01*
X129151190Y-106769819D02*
X129484523Y-106769819D01*
X129484523Y-106769819D02*
X129579761Y-106817438D01*
X129579761Y-106817438D02*
X129627380Y-106865057D01*
X129627380Y-106865057D02*
X129674999Y-106960295D01*
X129674999Y-106960295D02*
X129674999Y-107055533D01*
X129674999Y-107055533D02*
X129627380Y-107150771D01*
X129627380Y-107150771D02*
X129579761Y-107198390D01*
X129579761Y-107198390D02*
X129484523Y-107246009D01*
X129484523Y-107246009D02*
X129151190Y-107246009D01*
X130294047Y-107769819D02*
X130198809Y-107722200D01*
X130198809Y-107722200D02*
X130151190Y-107674580D01*
X130151190Y-107674580D02*
X130103571Y-107579342D01*
X130103571Y-107579342D02*
X130103571Y-107293628D01*
X130103571Y-107293628D02*
X130151190Y-107198390D01*
X130151190Y-107198390D02*
X130198809Y-107150771D01*
X130198809Y-107150771D02*
X130294047Y-107103152D01*
X130294047Y-107103152D02*
X130436904Y-107103152D01*
X130436904Y-107103152D02*
X130532142Y-107150771D01*
X130532142Y-107150771D02*
X130579761Y-107198390D01*
X130579761Y-107198390D02*
X130627380Y-107293628D01*
X130627380Y-107293628D02*
X130627380Y-107579342D01*
X130627380Y-107579342D02*
X130579761Y-107674580D01*
X130579761Y-107674580D02*
X130532142Y-107722200D01*
X130532142Y-107722200D02*
X130436904Y-107769819D01*
X130436904Y-107769819D02*
X130294047Y-107769819D01*
X131484523Y-107769819D02*
X131484523Y-107246009D01*
X131484523Y-107246009D02*
X131436904Y-107150771D01*
X131436904Y-107150771D02*
X131341666Y-107103152D01*
X131341666Y-107103152D02*
X131151190Y-107103152D01*
X131151190Y-107103152D02*
X131055952Y-107150771D01*
X131484523Y-107722200D02*
X131389285Y-107769819D01*
X131389285Y-107769819D02*
X131151190Y-107769819D01*
X131151190Y-107769819D02*
X131055952Y-107722200D01*
X131055952Y-107722200D02*
X131008333Y-107626961D01*
X131008333Y-107626961D02*
X131008333Y-107531723D01*
X131008333Y-107531723D02*
X131055952Y-107436485D01*
X131055952Y-107436485D02*
X131151190Y-107388866D01*
X131151190Y-107388866D02*
X131389285Y-107388866D01*
X131389285Y-107388866D02*
X131484523Y-107341247D01*
X131960714Y-107769819D02*
X131960714Y-107103152D01*
X131960714Y-107293628D02*
X132008333Y-107198390D01*
X132008333Y-107198390D02*
X132055952Y-107150771D01*
X132055952Y-107150771D02*
X132151190Y-107103152D01*
X132151190Y-107103152D02*
X132246428Y-107103152D01*
X133008333Y-107769819D02*
X133008333Y-106769819D01*
X133008333Y-107722200D02*
X132913095Y-107769819D01*
X132913095Y-107769819D02*
X132722619Y-107769819D01*
X132722619Y-107769819D02*
X132627381Y-107722200D01*
X132627381Y-107722200D02*
X132579762Y-107674580D01*
X132579762Y-107674580D02*
X132532143Y-107579342D01*
X132532143Y-107579342D02*
X132532143Y-107293628D01*
X132532143Y-107293628D02*
X132579762Y-107198390D01*
X132579762Y-107198390D02*
X132627381Y-107150771D01*
X132627381Y-107150771D02*
X132722619Y-107103152D01*
X132722619Y-107103152D02*
X132913095Y-107103152D01*
X132913095Y-107103152D02*
X133008333Y-107150771D01*
X134008333Y-107769819D02*
X133436905Y-107769819D01*
X133722619Y-107769819D02*
X133722619Y-106769819D01*
X133722619Y-106769819D02*
X133627381Y-106912676D01*
X133627381Y-106912676D02*
X133532143Y-107007914D01*
X133532143Y-107007914D02*
X133436905Y-107055533D01*
X145081666Y-152279819D02*
X145081666Y-152994104D01*
X145081666Y-152994104D02*
X145034047Y-153136961D01*
X145034047Y-153136961D02*
X144938809Y-153232200D01*
X144938809Y-153232200D02*
X144795952Y-153279819D01*
X144795952Y-153279819D02*
X144700714Y-153279819D01*
X145700714Y-152708390D02*
X145605476Y-152660771D01*
X145605476Y-152660771D02*
X145557857Y-152613152D01*
X145557857Y-152613152D02*
X145510238Y-152517914D01*
X145510238Y-152517914D02*
X145510238Y-152470295D01*
X145510238Y-152470295D02*
X145557857Y-152375057D01*
X145557857Y-152375057D02*
X145605476Y-152327438D01*
X145605476Y-152327438D02*
X145700714Y-152279819D01*
X145700714Y-152279819D02*
X145891190Y-152279819D01*
X145891190Y-152279819D02*
X145986428Y-152327438D01*
X145986428Y-152327438D02*
X146034047Y-152375057D01*
X146034047Y-152375057D02*
X146081666Y-152470295D01*
X146081666Y-152470295D02*
X146081666Y-152517914D01*
X146081666Y-152517914D02*
X146034047Y-152613152D01*
X146034047Y-152613152D02*
X145986428Y-152660771D01*
X145986428Y-152660771D02*
X145891190Y-152708390D01*
X145891190Y-152708390D02*
X145700714Y-152708390D01*
X145700714Y-152708390D02*
X145605476Y-152756009D01*
X145605476Y-152756009D02*
X145557857Y-152803628D01*
X145557857Y-152803628D02*
X145510238Y-152898866D01*
X145510238Y-152898866D02*
X145510238Y-153089342D01*
X145510238Y-153089342D02*
X145557857Y-153184580D01*
X145557857Y-153184580D02*
X145605476Y-153232200D01*
X145605476Y-153232200D02*
X145700714Y-153279819D01*
X145700714Y-153279819D02*
X145891190Y-153279819D01*
X145891190Y-153279819D02*
X145986428Y-153232200D01*
X145986428Y-153232200D02*
X146034047Y-153184580D01*
X146034047Y-153184580D02*
X146081666Y-153089342D01*
X146081666Y-153089342D02*
X146081666Y-152898866D01*
X146081666Y-152898866D02*
X146034047Y-152803628D01*
X146034047Y-152803628D02*
X145986428Y-152756009D01*
X145986428Y-152756009D02*
X145891190Y-152708390D01*
X62317333Y-148187580D02*
X62269714Y-148235200D01*
X62269714Y-148235200D02*
X62126857Y-148282819D01*
X62126857Y-148282819D02*
X62031619Y-148282819D01*
X62031619Y-148282819D02*
X61888762Y-148235200D01*
X61888762Y-148235200D02*
X61793524Y-148139961D01*
X61793524Y-148139961D02*
X61745905Y-148044723D01*
X61745905Y-148044723D02*
X61698286Y-147854247D01*
X61698286Y-147854247D02*
X61698286Y-147711390D01*
X61698286Y-147711390D02*
X61745905Y-147520914D01*
X61745905Y-147520914D02*
X61793524Y-147425676D01*
X61793524Y-147425676D02*
X61888762Y-147330438D01*
X61888762Y-147330438D02*
X62031619Y-147282819D01*
X62031619Y-147282819D02*
X62126857Y-147282819D01*
X62126857Y-147282819D02*
X62269714Y-147330438D01*
X62269714Y-147330438D02*
X62317333Y-147378057D01*
X63174476Y-147616152D02*
X63174476Y-148282819D01*
X62936381Y-147235200D02*
X62698286Y-147949485D01*
X62698286Y-147949485D02*
X63317333Y-147949485D01*
X146616419Y-161048333D02*
X147330704Y-161048333D01*
X147330704Y-161048333D02*
X147473561Y-161095952D01*
X147473561Y-161095952D02*
X147568800Y-161191190D01*
X147568800Y-161191190D02*
X147616419Y-161334047D01*
X147616419Y-161334047D02*
X147616419Y-161429285D01*
X147616419Y-160524523D02*
X147616419Y-160334047D01*
X147616419Y-160334047D02*
X147568800Y-160238809D01*
X147568800Y-160238809D02*
X147521180Y-160191190D01*
X147521180Y-160191190D02*
X147378323Y-160095952D01*
X147378323Y-160095952D02*
X147187847Y-160048333D01*
X147187847Y-160048333D02*
X146806895Y-160048333D01*
X146806895Y-160048333D02*
X146711657Y-160095952D01*
X146711657Y-160095952D02*
X146664038Y-160143571D01*
X146664038Y-160143571D02*
X146616419Y-160238809D01*
X146616419Y-160238809D02*
X146616419Y-160429285D01*
X146616419Y-160429285D02*
X146664038Y-160524523D01*
X146664038Y-160524523D02*
X146711657Y-160572142D01*
X146711657Y-160572142D02*
X146806895Y-160619761D01*
X146806895Y-160619761D02*
X147044990Y-160619761D01*
X147044990Y-160619761D02*
X147140228Y-160572142D01*
X147140228Y-160572142D02*
X147187847Y-160524523D01*
X147187847Y-160524523D02*
X147235466Y-160429285D01*
X147235466Y-160429285D02*
X147235466Y-160238809D01*
X147235466Y-160238809D02*
X147187847Y-160143571D01*
X147187847Y-160143571D02*
X147140228Y-160095952D01*
X147140228Y-160095952D02*
X147044990Y-160048333D01*
X116597133Y-179632780D02*
X116549514Y-179680400D01*
X116549514Y-179680400D02*
X116406657Y-179728019D01*
X116406657Y-179728019D02*
X116311419Y-179728019D01*
X116311419Y-179728019D02*
X116168562Y-179680400D01*
X116168562Y-179680400D02*
X116073324Y-179585161D01*
X116073324Y-179585161D02*
X116025705Y-179489923D01*
X116025705Y-179489923D02*
X115978086Y-179299447D01*
X115978086Y-179299447D02*
X115978086Y-179156590D01*
X115978086Y-179156590D02*
X116025705Y-178966114D01*
X116025705Y-178966114D02*
X116073324Y-178870876D01*
X116073324Y-178870876D02*
X116168562Y-178775638D01*
X116168562Y-178775638D02*
X116311419Y-178728019D01*
X116311419Y-178728019D02*
X116406657Y-178728019D01*
X116406657Y-178728019D02*
X116549514Y-178775638D01*
X116549514Y-178775638D02*
X116597133Y-178823257D01*
X116978086Y-178823257D02*
X117025705Y-178775638D01*
X117025705Y-178775638D02*
X117120943Y-178728019D01*
X117120943Y-178728019D02*
X117359038Y-178728019D01*
X117359038Y-178728019D02*
X117454276Y-178775638D01*
X117454276Y-178775638D02*
X117501895Y-178823257D01*
X117501895Y-178823257D02*
X117549514Y-178918495D01*
X117549514Y-178918495D02*
X117549514Y-179013733D01*
X117549514Y-179013733D02*
X117501895Y-179156590D01*
X117501895Y-179156590D02*
X116930467Y-179728019D01*
X116930467Y-179728019D02*
X117549514Y-179728019D01*
X94535666Y-114589819D02*
X94535666Y-115304104D01*
X94535666Y-115304104D02*
X94488047Y-115446961D01*
X94488047Y-115446961D02*
X94392809Y-115542200D01*
X94392809Y-115542200D02*
X94249952Y-115589819D01*
X94249952Y-115589819D02*
X94154714Y-115589819D01*
X95440428Y-114923152D02*
X95440428Y-115589819D01*
X95202333Y-114542200D02*
X94964238Y-115256485D01*
X94964238Y-115256485D02*
X95583285Y-115256485D01*
X57618333Y-170039819D02*
X57285000Y-169563628D01*
X57046905Y-170039819D02*
X57046905Y-169039819D01*
X57046905Y-169039819D02*
X57427857Y-169039819D01*
X57427857Y-169039819D02*
X57523095Y-169087438D01*
X57523095Y-169087438D02*
X57570714Y-169135057D01*
X57570714Y-169135057D02*
X57618333Y-169230295D01*
X57618333Y-169230295D02*
X57618333Y-169373152D01*
X57618333Y-169373152D02*
X57570714Y-169468390D01*
X57570714Y-169468390D02*
X57523095Y-169516009D01*
X57523095Y-169516009D02*
X57427857Y-169563628D01*
X57427857Y-169563628D02*
X57046905Y-169563628D01*
X58475476Y-169373152D02*
X58475476Y-170039819D01*
X58237381Y-168992200D02*
X57999286Y-169706485D01*
X57999286Y-169706485D02*
X58618333Y-169706485D01*
D11*
X140554419Y-183887856D02*
X140554419Y-183316428D01*
X141554419Y-183602142D02*
X140554419Y-183602142D01*
X141554419Y-182840237D02*
X141506800Y-182935475D01*
X141506800Y-182935475D02*
X141459180Y-182983094D01*
X141459180Y-182983094D02*
X141363942Y-183030713D01*
X141363942Y-183030713D02*
X141078228Y-183030713D01*
X141078228Y-183030713D02*
X140982990Y-182983094D01*
X140982990Y-182983094D02*
X140935371Y-182935475D01*
X140935371Y-182935475D02*
X140887752Y-182840237D01*
X140887752Y-182840237D02*
X140887752Y-182697380D01*
X140887752Y-182697380D02*
X140935371Y-182602142D01*
X140935371Y-182602142D02*
X140982990Y-182554523D01*
X140982990Y-182554523D02*
X141078228Y-182506904D01*
X141078228Y-182506904D02*
X141363942Y-182506904D01*
X141363942Y-182506904D02*
X141459180Y-182554523D01*
X141459180Y-182554523D02*
X141506800Y-182602142D01*
X141506800Y-182602142D02*
X141554419Y-182697380D01*
X141554419Y-182697380D02*
X141554419Y-182840237D01*
X141030609Y-181744999D02*
X141030609Y-182078332D01*
X141554419Y-182078332D02*
X140554419Y-182078332D01*
X140554419Y-182078332D02*
X140554419Y-181602142D01*
X140649657Y-181268808D02*
X140602038Y-181221189D01*
X140602038Y-181221189D02*
X140554419Y-181125951D01*
X140554419Y-181125951D02*
X140554419Y-180887856D01*
X140554419Y-180887856D02*
X140602038Y-180792618D01*
X140602038Y-180792618D02*
X140649657Y-180744999D01*
X140649657Y-180744999D02*
X140744895Y-180697380D01*
X140744895Y-180697380D02*
X140840133Y-180697380D01*
X140840133Y-180697380D02*
X140982990Y-180744999D01*
X140982990Y-180744999D02*
X141554419Y-181316427D01*
X141554419Y-181316427D02*
X141554419Y-180697380D01*
D10*
X76073095Y-145123819D02*
X76073095Y-145933342D01*
X76073095Y-145933342D02*
X76120714Y-146028580D01*
X76120714Y-146028580D02*
X76168333Y-146076200D01*
X76168333Y-146076200D02*
X76263571Y-146123819D01*
X76263571Y-146123819D02*
X76454047Y-146123819D01*
X76454047Y-146123819D02*
X76549285Y-146076200D01*
X76549285Y-146076200D02*
X76596904Y-146028580D01*
X76596904Y-146028580D02*
X76644523Y-145933342D01*
X76644523Y-145933342D02*
X76644523Y-145123819D01*
X77025476Y-145123819D02*
X77692142Y-145123819D01*
X77692142Y-145123819D02*
X77263571Y-146123819D01*
X74287523Y-116187419D02*
X73811333Y-116187419D01*
X73811333Y-116187419D02*
X73811333Y-115187419D01*
X74620857Y-116187419D02*
X74620857Y-115187419D01*
X74620857Y-115187419D02*
X74858952Y-115187419D01*
X74858952Y-115187419D02*
X75001809Y-115235038D01*
X75001809Y-115235038D02*
X75097047Y-115330276D01*
X75097047Y-115330276D02*
X75144666Y-115425514D01*
X75144666Y-115425514D02*
X75192285Y-115615990D01*
X75192285Y-115615990D02*
X75192285Y-115758847D01*
X75192285Y-115758847D02*
X75144666Y-115949323D01*
X75144666Y-115949323D02*
X75097047Y-116044561D01*
X75097047Y-116044561D02*
X75001809Y-116139800D01*
X75001809Y-116139800D02*
X74858952Y-116187419D01*
X74858952Y-116187419D02*
X74620857Y-116187419D01*
X75811333Y-115187419D02*
X76001809Y-115187419D01*
X76001809Y-115187419D02*
X76097047Y-115235038D01*
X76097047Y-115235038D02*
X76192285Y-115330276D01*
X76192285Y-115330276D02*
X76239904Y-115520752D01*
X76239904Y-115520752D02*
X76239904Y-115854085D01*
X76239904Y-115854085D02*
X76192285Y-116044561D01*
X76192285Y-116044561D02*
X76097047Y-116139800D01*
X76097047Y-116139800D02*
X76001809Y-116187419D01*
X76001809Y-116187419D02*
X75811333Y-116187419D01*
X75811333Y-116187419D02*
X75716095Y-116139800D01*
X75716095Y-116139800D02*
X75620857Y-116044561D01*
X75620857Y-116044561D02*
X75573238Y-115854085D01*
X75573238Y-115854085D02*
X75573238Y-115520752D01*
X75573238Y-115520752D02*
X75620857Y-115330276D01*
X75620857Y-115330276D02*
X75716095Y-115235038D01*
X75716095Y-115235038D02*
X75811333Y-115187419D01*
X77192285Y-116187419D02*
X76620857Y-116187419D01*
X76906571Y-116187419D02*
X76906571Y-115187419D01*
X76906571Y-115187419D02*
X76811333Y-115330276D01*
X76811333Y-115330276D02*
X76716095Y-115425514D01*
X76716095Y-115425514D02*
X76620857Y-115473133D01*
X128651095Y-183985819D02*
X128651095Y-184795342D01*
X128651095Y-184795342D02*
X128698714Y-184890580D01*
X128698714Y-184890580D02*
X128746333Y-184938200D01*
X128746333Y-184938200D02*
X128841571Y-184985819D01*
X128841571Y-184985819D02*
X129032047Y-184985819D01*
X129032047Y-184985819D02*
X129127285Y-184938200D01*
X129127285Y-184938200D02*
X129174904Y-184890580D01*
X129174904Y-184890580D02*
X129222523Y-184795342D01*
X129222523Y-184795342D02*
X129222523Y-183985819D01*
X129651095Y-184081057D02*
X129698714Y-184033438D01*
X129698714Y-184033438D02*
X129793952Y-183985819D01*
X129793952Y-183985819D02*
X130032047Y-183985819D01*
X130032047Y-183985819D02*
X130127285Y-184033438D01*
X130127285Y-184033438D02*
X130174904Y-184081057D01*
X130174904Y-184081057D02*
X130222523Y-184176295D01*
X130222523Y-184176295D02*
X130222523Y-184271533D01*
X130222523Y-184271533D02*
X130174904Y-184414390D01*
X130174904Y-184414390D02*
X129603476Y-184985819D01*
X129603476Y-184985819D02*
X130222523Y-184985819D01*
X52310833Y-148187580D02*
X52263214Y-148235200D01*
X52263214Y-148235200D02*
X52120357Y-148282819D01*
X52120357Y-148282819D02*
X52025119Y-148282819D01*
X52025119Y-148282819D02*
X51882262Y-148235200D01*
X51882262Y-148235200D02*
X51787024Y-148139961D01*
X51787024Y-148139961D02*
X51739405Y-148044723D01*
X51739405Y-148044723D02*
X51691786Y-147854247D01*
X51691786Y-147854247D02*
X51691786Y-147711390D01*
X51691786Y-147711390D02*
X51739405Y-147520914D01*
X51739405Y-147520914D02*
X51787024Y-147425676D01*
X51787024Y-147425676D02*
X51882262Y-147330438D01*
X51882262Y-147330438D02*
X52025119Y-147282819D01*
X52025119Y-147282819D02*
X52120357Y-147282819D01*
X52120357Y-147282819D02*
X52263214Y-147330438D01*
X52263214Y-147330438D02*
X52310833Y-147378057D01*
X53215595Y-147282819D02*
X52739405Y-147282819D01*
X52739405Y-147282819D02*
X52691786Y-147759009D01*
X52691786Y-147759009D02*
X52739405Y-147711390D01*
X52739405Y-147711390D02*
X52834643Y-147663771D01*
X52834643Y-147663771D02*
X53072738Y-147663771D01*
X53072738Y-147663771D02*
X53167976Y-147711390D01*
X53167976Y-147711390D02*
X53215595Y-147759009D01*
X53215595Y-147759009D02*
X53263214Y-147854247D01*
X53263214Y-147854247D02*
X53263214Y-148092342D01*
X53263214Y-148092342D02*
X53215595Y-148187580D01*
X53215595Y-148187580D02*
X53167976Y-148235200D01*
X53167976Y-148235200D02*
X53072738Y-148282819D01*
X53072738Y-148282819D02*
X52834643Y-148282819D01*
X52834643Y-148282819D02*
X52739405Y-148235200D01*
X52739405Y-148235200D02*
X52691786Y-148187580D01*
X64917200Y-164243532D02*
X64964819Y-164100675D01*
X64964819Y-164100675D02*
X64964819Y-163862580D01*
X64964819Y-163862580D02*
X64917200Y-163767342D01*
X64917200Y-163767342D02*
X64869580Y-163719723D01*
X64869580Y-163719723D02*
X64774342Y-163672104D01*
X64774342Y-163672104D02*
X64679104Y-163672104D01*
X64679104Y-163672104D02*
X64583866Y-163719723D01*
X64583866Y-163719723D02*
X64536247Y-163767342D01*
X64536247Y-163767342D02*
X64488628Y-163862580D01*
X64488628Y-163862580D02*
X64441009Y-164053056D01*
X64441009Y-164053056D02*
X64393390Y-164148294D01*
X64393390Y-164148294D02*
X64345771Y-164195913D01*
X64345771Y-164195913D02*
X64250533Y-164243532D01*
X64250533Y-164243532D02*
X64155295Y-164243532D01*
X64155295Y-164243532D02*
X64060057Y-164195913D01*
X64060057Y-164195913D02*
X64012438Y-164148294D01*
X64012438Y-164148294D02*
X63964819Y-164053056D01*
X63964819Y-164053056D02*
X63964819Y-163814961D01*
X63964819Y-163814961D02*
X64012438Y-163672104D01*
X63964819Y-163338770D02*
X64964819Y-163100675D01*
X64964819Y-163100675D02*
X64250533Y-162910199D01*
X64250533Y-162910199D02*
X64964819Y-162719723D01*
X64964819Y-162719723D02*
X63964819Y-162481628D01*
X64060057Y-162148294D02*
X64012438Y-162100675D01*
X64012438Y-162100675D02*
X63964819Y-162005437D01*
X63964819Y-162005437D02*
X63964819Y-161767342D01*
X63964819Y-161767342D02*
X64012438Y-161672104D01*
X64012438Y-161672104D02*
X64060057Y-161624485D01*
X64060057Y-161624485D02*
X64155295Y-161576866D01*
X64155295Y-161576866D02*
X64250533Y-161576866D01*
X64250533Y-161576866D02*
X64393390Y-161624485D01*
X64393390Y-161624485D02*
X64964819Y-162195913D01*
X64964819Y-162195913D02*
X64964819Y-161576866D01*
X72470180Y-106662457D02*
X72517800Y-106710076D01*
X72517800Y-106710076D02*
X72565419Y-106852933D01*
X72565419Y-106852933D02*
X72565419Y-106948171D01*
X72565419Y-106948171D02*
X72517800Y-107091028D01*
X72517800Y-107091028D02*
X72422561Y-107186266D01*
X72422561Y-107186266D02*
X72327323Y-107233885D01*
X72327323Y-107233885D02*
X72136847Y-107281504D01*
X72136847Y-107281504D02*
X71993990Y-107281504D01*
X71993990Y-107281504D02*
X71803514Y-107233885D01*
X71803514Y-107233885D02*
X71708276Y-107186266D01*
X71708276Y-107186266D02*
X71613038Y-107091028D01*
X71613038Y-107091028D02*
X71565419Y-106948171D01*
X71565419Y-106948171D02*
X71565419Y-106852933D01*
X71565419Y-106852933D02*
X71613038Y-106710076D01*
X71613038Y-106710076D02*
X71660657Y-106662457D01*
X72565419Y-105710076D02*
X72565419Y-106281504D01*
X72565419Y-105995790D02*
X71565419Y-105995790D01*
X71565419Y-105995790D02*
X71708276Y-106091028D01*
X71708276Y-106091028D02*
X71803514Y-106186266D01*
X71803514Y-106186266D02*
X71851133Y-106281504D01*
X71565419Y-105091028D02*
X71565419Y-104995790D01*
X71565419Y-104995790D02*
X71613038Y-104900552D01*
X71613038Y-104900552D02*
X71660657Y-104852933D01*
X71660657Y-104852933D02*
X71755895Y-104805314D01*
X71755895Y-104805314D02*
X71946371Y-104757695D01*
X71946371Y-104757695D02*
X72184466Y-104757695D01*
X72184466Y-104757695D02*
X72374942Y-104805314D01*
X72374942Y-104805314D02*
X72470180Y-104852933D01*
X72470180Y-104852933D02*
X72517800Y-104900552D01*
X72517800Y-104900552D02*
X72565419Y-104995790D01*
X72565419Y-104995790D02*
X72565419Y-105091028D01*
X72565419Y-105091028D02*
X72517800Y-105186266D01*
X72517800Y-105186266D02*
X72470180Y-105233885D01*
X72470180Y-105233885D02*
X72374942Y-105281504D01*
X72374942Y-105281504D02*
X72184466Y-105329123D01*
X72184466Y-105329123D02*
X71946371Y-105329123D01*
X71946371Y-105329123D02*
X71755895Y-105281504D01*
X71755895Y-105281504D02*
X71660657Y-105233885D01*
X71660657Y-105233885D02*
X71613038Y-105186266D01*
X71613038Y-105186266D02*
X71565419Y-105091028D01*
X71320819Y-122848666D02*
X70844628Y-123181999D01*
X71320819Y-123420094D02*
X70320819Y-123420094D01*
X70320819Y-123420094D02*
X70320819Y-123039142D01*
X70320819Y-123039142D02*
X70368438Y-122943904D01*
X70368438Y-122943904D02*
X70416057Y-122896285D01*
X70416057Y-122896285D02*
X70511295Y-122848666D01*
X70511295Y-122848666D02*
X70654152Y-122848666D01*
X70654152Y-122848666D02*
X70749390Y-122896285D01*
X70749390Y-122896285D02*
X70797009Y-122943904D01*
X70797009Y-122943904D02*
X70844628Y-123039142D01*
X70844628Y-123039142D02*
X70844628Y-123420094D01*
X70320819Y-122515332D02*
X70320819Y-121848666D01*
X70320819Y-121848666D02*
X71320819Y-122277237D01*
X49236333Y-168475819D02*
X48903000Y-167999628D01*
X48664905Y-168475819D02*
X48664905Y-167475819D01*
X48664905Y-167475819D02*
X49045857Y-167475819D01*
X49045857Y-167475819D02*
X49141095Y-167523438D01*
X49141095Y-167523438D02*
X49188714Y-167571057D01*
X49188714Y-167571057D02*
X49236333Y-167666295D01*
X49236333Y-167666295D02*
X49236333Y-167809152D01*
X49236333Y-167809152D02*
X49188714Y-167904390D01*
X49188714Y-167904390D02*
X49141095Y-167952009D01*
X49141095Y-167952009D02*
X49045857Y-167999628D01*
X49045857Y-167999628D02*
X48664905Y-167999628D01*
X49569667Y-167475819D02*
X50188714Y-167475819D01*
X50188714Y-167475819D02*
X49855381Y-167856771D01*
X49855381Y-167856771D02*
X49998238Y-167856771D01*
X49998238Y-167856771D02*
X50093476Y-167904390D01*
X50093476Y-167904390D02*
X50141095Y-167952009D01*
X50141095Y-167952009D02*
X50188714Y-168047247D01*
X50188714Y-168047247D02*
X50188714Y-168285342D01*
X50188714Y-168285342D02*
X50141095Y-168380580D01*
X50141095Y-168380580D02*
X50093476Y-168428200D01*
X50093476Y-168428200D02*
X49998238Y-168475819D01*
X49998238Y-168475819D02*
X49712524Y-168475819D01*
X49712524Y-168475819D02*
X49617286Y-168428200D01*
X49617286Y-168428200D02*
X49569667Y-168380580D01*
X57128580Y-106008466D02*
X57176200Y-106056085D01*
X57176200Y-106056085D02*
X57223819Y-106198942D01*
X57223819Y-106198942D02*
X57223819Y-106294180D01*
X57223819Y-106294180D02*
X57176200Y-106437037D01*
X57176200Y-106437037D02*
X57080961Y-106532275D01*
X57080961Y-106532275D02*
X56985723Y-106579894D01*
X56985723Y-106579894D02*
X56795247Y-106627513D01*
X56795247Y-106627513D02*
X56652390Y-106627513D01*
X56652390Y-106627513D02*
X56461914Y-106579894D01*
X56461914Y-106579894D02*
X56366676Y-106532275D01*
X56366676Y-106532275D02*
X56271438Y-106437037D01*
X56271438Y-106437037D02*
X56223819Y-106294180D01*
X56223819Y-106294180D02*
X56223819Y-106198942D01*
X56223819Y-106198942D02*
X56271438Y-106056085D01*
X56271438Y-106056085D02*
X56319057Y-106008466D01*
X57223819Y-105532275D02*
X57223819Y-105341799D01*
X57223819Y-105341799D02*
X57176200Y-105246561D01*
X57176200Y-105246561D02*
X57128580Y-105198942D01*
X57128580Y-105198942D02*
X56985723Y-105103704D01*
X56985723Y-105103704D02*
X56795247Y-105056085D01*
X56795247Y-105056085D02*
X56414295Y-105056085D01*
X56414295Y-105056085D02*
X56319057Y-105103704D01*
X56319057Y-105103704D02*
X56271438Y-105151323D01*
X56271438Y-105151323D02*
X56223819Y-105246561D01*
X56223819Y-105246561D02*
X56223819Y-105437037D01*
X56223819Y-105437037D02*
X56271438Y-105532275D01*
X56271438Y-105532275D02*
X56319057Y-105579894D01*
X56319057Y-105579894D02*
X56414295Y-105627513D01*
X56414295Y-105627513D02*
X56652390Y-105627513D01*
X56652390Y-105627513D02*
X56747628Y-105579894D01*
X56747628Y-105579894D02*
X56795247Y-105532275D01*
X56795247Y-105532275D02*
X56842866Y-105437037D01*
X56842866Y-105437037D02*
X56842866Y-105246561D01*
X56842866Y-105246561D02*
X56795247Y-105151323D01*
X56795247Y-105151323D02*
X56747628Y-105103704D01*
X56747628Y-105103704D02*
X56652390Y-105056085D01*
X97139285Y-100530819D02*
X96663095Y-100530819D01*
X96663095Y-100530819D02*
X96663095Y-99530819D01*
X97472619Y-100530819D02*
X97472619Y-99864152D01*
X97472619Y-99530819D02*
X97425000Y-99578438D01*
X97425000Y-99578438D02*
X97472619Y-99626057D01*
X97472619Y-99626057D02*
X97520238Y-99578438D01*
X97520238Y-99578438D02*
X97472619Y-99530819D01*
X97472619Y-99530819D02*
X97472619Y-99626057D01*
X97948809Y-99864152D02*
X97948809Y-100530819D01*
X97948809Y-99959390D02*
X97996428Y-99911771D01*
X97996428Y-99911771D02*
X98091666Y-99864152D01*
X98091666Y-99864152D02*
X98234523Y-99864152D01*
X98234523Y-99864152D02*
X98329761Y-99911771D01*
X98329761Y-99911771D02*
X98377380Y-100007009D01*
X98377380Y-100007009D02*
X98377380Y-100530819D01*
X99234523Y-100483200D02*
X99139285Y-100530819D01*
X99139285Y-100530819D02*
X98948809Y-100530819D01*
X98948809Y-100530819D02*
X98853571Y-100483200D01*
X98853571Y-100483200D02*
X98805952Y-100387961D01*
X98805952Y-100387961D02*
X98805952Y-100007009D01*
X98805952Y-100007009D02*
X98853571Y-99911771D01*
X98853571Y-99911771D02*
X98948809Y-99864152D01*
X98948809Y-99864152D02*
X99139285Y-99864152D01*
X99139285Y-99864152D02*
X99234523Y-99911771D01*
X99234523Y-99911771D02*
X99282142Y-100007009D01*
X99282142Y-100007009D02*
X99282142Y-100102247D01*
X99282142Y-100102247D02*
X98805952Y-100197485D01*
X100234523Y-100530819D02*
X99663095Y-100530819D01*
X99948809Y-100530819D02*
X99948809Y-99530819D01*
X99948809Y-99530819D02*
X99853571Y-99673676D01*
X99853571Y-99673676D02*
X99758333Y-99768914D01*
X99758333Y-99768914D02*
X99663095Y-99816533D01*
D13*
%TO.C,J2*%
X81975000Y-93285000D02*
X81975000Y-94615000D01*
X80645000Y-93285000D02*
X81975000Y-93285000D01*
X79375000Y-93285000D02*
X71695000Y-93285000D01*
X79375000Y-93285000D02*
X79375000Y-95945000D01*
X71695000Y-93285000D02*
X71695000Y-95945000D01*
X79375000Y-95945000D02*
X71695000Y-95945000D01*
%TO.C,J17*%
X48992000Y-93207700D02*
X59212000Y-93207700D01*
X48992000Y-94427700D02*
X50212000Y-94427700D01*
X48992000Y-101627700D02*
X48992000Y-93207700D01*
X50212000Y-94427700D02*
X50212000Y-99427700D01*
X50212000Y-98427700D02*
X57992000Y-98427700D01*
X50212000Y-99427700D02*
X48992000Y-99427700D01*
X50212000Y-99427700D02*
X50212000Y-101627700D01*
X50212000Y-101627700D02*
X48992000Y-101627700D01*
X51282000Y-95007700D02*
X51602000Y-94927700D01*
X51282000Y-98427700D02*
X51282000Y-95007700D01*
X51302000Y-102117700D02*
X51902000Y-102117700D01*
X51602000Y-94927700D02*
X51922000Y-95007700D01*
X51602000Y-98427700D02*
X51282000Y-98427700D01*
X51602000Y-101517700D02*
X51302000Y-102117700D01*
X51902000Y-102117700D02*
X51602000Y-101517700D01*
X51922000Y-95007700D02*
X51922000Y-98427700D01*
X51922000Y-98427700D02*
X51602000Y-98427700D01*
X52772000Y-99427700D02*
X52932000Y-99427700D01*
X53782000Y-95007700D02*
X54102000Y-94927700D01*
X53782000Y-98427700D02*
X53782000Y-95007700D01*
X54102000Y-94927700D02*
X54422000Y-95007700D01*
X54102000Y-98427700D02*
X53782000Y-98427700D01*
X54422000Y-95007700D02*
X54422000Y-98427700D01*
X54422000Y-98427700D02*
X54102000Y-98427700D01*
X55272000Y-99427700D02*
X55432000Y-99427700D01*
X56282000Y-95007700D02*
X56602000Y-94927700D01*
X56282000Y-98427700D02*
X56282000Y-95007700D01*
X56602000Y-94927700D02*
X56922000Y-95007700D01*
X56602000Y-98427700D02*
X56282000Y-98427700D01*
X56922000Y-95007700D02*
X56922000Y-98427700D01*
X56922000Y-98427700D02*
X56602000Y-98427700D01*
X57992000Y-94427700D02*
X57992000Y-99427700D01*
X57992000Y-99427700D02*
X59212000Y-99427700D01*
X57992000Y-101627700D02*
X57992000Y-99427700D01*
X59212000Y-93207700D02*
X59212000Y-101627700D01*
X59212000Y-94427700D02*
X57992000Y-94427700D01*
X59212000Y-101627700D02*
X57992000Y-101627700D01*
%TO.C,J1*%
X61127500Y-109865000D02*
X69547500Y-109865000D01*
X61127500Y-120085000D02*
X61127500Y-109865000D01*
X62347500Y-109865000D02*
X62347500Y-111085000D01*
X62347500Y-111085000D02*
X67347500Y-111085000D01*
X62347500Y-118865000D02*
X67347500Y-118865000D01*
X62347500Y-120085000D02*
X62347500Y-118865000D01*
X62847500Y-112475000D02*
X62927500Y-112155000D01*
X62847500Y-114975000D02*
X62927500Y-114655000D01*
X62847500Y-117475000D02*
X62927500Y-117155000D01*
X62927500Y-112155000D02*
X66347500Y-112155000D01*
X62927500Y-112795000D02*
X62847500Y-112475000D01*
X62927500Y-114655000D02*
X66347500Y-114655000D01*
X62927500Y-115295000D02*
X62847500Y-114975000D01*
X62927500Y-117155000D02*
X66347500Y-117155000D01*
X62927500Y-117795000D02*
X62847500Y-117475000D01*
X66347500Y-112155000D02*
X66347500Y-112475000D01*
X66347500Y-112475000D02*
X66347500Y-112795000D01*
X66347500Y-112795000D02*
X62927500Y-112795000D01*
X66347500Y-114655000D02*
X66347500Y-114975000D01*
X66347500Y-114975000D02*
X66347500Y-115295000D01*
X66347500Y-115295000D02*
X62927500Y-115295000D01*
X66347500Y-117155000D02*
X66347500Y-117475000D01*
X66347500Y-117475000D02*
X66347500Y-117795000D01*
X66347500Y-117795000D02*
X62927500Y-117795000D01*
X66347500Y-118865000D02*
X66347500Y-111085000D01*
X67347500Y-111085000D02*
X67347500Y-109865000D01*
X67347500Y-113805000D02*
X67347500Y-113645000D01*
X67347500Y-116305000D02*
X67347500Y-116145000D01*
X67347500Y-118865000D02*
X67347500Y-120085000D01*
X67347500Y-118865000D02*
X69547500Y-118865000D01*
X69437500Y-117475000D02*
X70037500Y-117775000D01*
X69547500Y-109865000D02*
X69547500Y-111085000D01*
X69547500Y-111085000D02*
X67347500Y-111085000D01*
X69547500Y-118865000D02*
X69547500Y-120085000D01*
X69547500Y-120085000D02*
X61127500Y-120085000D01*
X70037500Y-117175000D02*
X69437500Y-117475000D01*
X70037500Y-117775000D02*
X70037500Y-117175000D01*
%TO.C,C7*%
X66020733Y-133729000D02*
X66313267Y-133729000D01*
X66020733Y-134749000D02*
X66313267Y-134749000D01*
%TO.C,J16*%
X60422000Y-93207700D02*
X70642000Y-93207700D01*
X60422000Y-94427700D02*
X61642000Y-94427700D01*
X60422000Y-101627700D02*
X60422000Y-93207700D01*
X61642000Y-94427700D02*
X61642000Y-99427700D01*
X61642000Y-98427700D02*
X69422000Y-98427700D01*
X61642000Y-99427700D02*
X60422000Y-99427700D01*
X61642000Y-99427700D02*
X61642000Y-101627700D01*
X61642000Y-101627700D02*
X60422000Y-101627700D01*
X62712000Y-95007700D02*
X63032000Y-94927700D01*
X62712000Y-98427700D02*
X62712000Y-95007700D01*
X62732000Y-102117700D02*
X63332000Y-102117700D01*
X63032000Y-94927700D02*
X63352000Y-95007700D01*
X63032000Y-98427700D02*
X62712000Y-98427700D01*
X63032000Y-101517700D02*
X62732000Y-102117700D01*
X63332000Y-102117700D02*
X63032000Y-101517700D01*
X63352000Y-95007700D02*
X63352000Y-98427700D01*
X63352000Y-98427700D02*
X63032000Y-98427700D01*
X64202000Y-99427700D02*
X64362000Y-99427700D01*
X65212000Y-95007700D02*
X65532000Y-94927700D01*
X65212000Y-98427700D02*
X65212000Y-95007700D01*
X65532000Y-94927700D02*
X65852000Y-95007700D01*
X65532000Y-98427700D02*
X65212000Y-98427700D01*
X65852000Y-95007700D02*
X65852000Y-98427700D01*
X65852000Y-98427700D02*
X65532000Y-98427700D01*
X66702000Y-99427700D02*
X66862000Y-99427700D01*
X67712000Y-95007700D02*
X68032000Y-94927700D01*
X67712000Y-98427700D02*
X67712000Y-95007700D01*
X68032000Y-94927700D02*
X68352000Y-95007700D01*
X68032000Y-98427700D02*
X67712000Y-98427700D01*
X68352000Y-95007700D02*
X68352000Y-98427700D01*
X68352000Y-98427700D02*
X68032000Y-98427700D01*
X69422000Y-94427700D02*
X69422000Y-99427700D01*
X69422000Y-99427700D02*
X70642000Y-99427700D01*
X69422000Y-101627700D02*
X69422000Y-99427700D01*
X70642000Y-93207700D02*
X70642000Y-101627700D01*
X70642000Y-94427700D02*
X69422000Y-94427700D01*
X70642000Y-101627700D02*
X69422000Y-101627700D01*
%TO.C,C1*%
X82294000Y-110851733D02*
X82294000Y-111144267D01*
X83314000Y-110851733D02*
X83314000Y-111144267D01*
%TO.C,ToF1*%
D11*
X53975000Y-175895000D02*
X45085000Y-175895000D01*
X45085000Y-188595000D01*
X53975000Y-188595000D01*
X53975000Y-175895000D01*
D13*
%TO.C,D1*%
X76221000Y-98252600D02*
X73131000Y-98252600D01*
X74676462Y-103802600D02*
G75*
G02*
X73131170Y-98252600I-462J2990000D01*
G01*
X76220830Y-98252600D02*
G75*
G02*
X74675538Y-103802600I-1544830J-2560000D01*
G01*
X77176000Y-100812600D02*
G75*
G02*
X72176000Y-100812600I-2500000J0D01*
G01*
X72176000Y-100812600D02*
G75*
G02*
X77176000Y-100812600I2500000J0D01*
G01*
D11*
%TO.C,VisionAI1*%
X87985600Y-184683400D02*
X87960510Y-147625110D01*
X89433710Y-146151910D02*
X106476800Y-146177000D01*
X106476800Y-186156600D02*
X89458800Y-186156600D01*
X107950000Y-147650200D02*
X107950000Y-184683400D01*
X94615000Y-188595000D02*
X101981000Y-188595000D01*
X101981000Y-186182000D01*
X94615000Y-186182000D01*
X94615000Y-188595000D01*
X87960510Y-147625110D02*
G75*
G02*
X89433710Y-146151910I1473190J10D01*
G01*
X89458800Y-186156600D02*
G75*
G02*
X87985600Y-184683400I-1J1473199D01*
G01*
X106476800Y-146177000D02*
G75*
G02*
X107950000Y-147650200I0J-1473200D01*
G01*
X107950000Y-184683400D02*
G75*
G02*
X106476800Y-186156600I-1473199J-1D01*
G01*
D13*
%TO.C,FB1*%
X109941200Y-183874600D02*
X109941200Y-184024600D01*
X109941200Y-183874600D02*
X112461200Y-183874600D01*
X109941200Y-185644600D02*
X109941200Y-185494600D01*
X109941200Y-185644600D02*
X112461200Y-185644600D01*
X112461200Y-183874600D02*
X112461200Y-184024600D01*
X112461200Y-185644600D02*
X112461200Y-185494600D01*
%TO.C,C8*%
X54756267Y-133729000D02*
X54463733Y-133729000D01*
X54756267Y-134749000D02*
X54463733Y-134749000D01*
%TO.C,Gyro1*%
D11*
X76755000Y-175221000D02*
X66755000Y-175221000D01*
X66755000Y-186221000D01*
X76755000Y-186221000D01*
X76755000Y-175221000D01*
X80755000Y-175221000D02*
X62755000Y-175221000D01*
X62755000Y-186221000D01*
X80755000Y-186221000D01*
X80755000Y-175221000D01*
%TO.C,U5*%
X49530000Y-137795000D02*
X59690000Y-137795000D01*
X59690000Y-135255000D01*
X49530000Y-135255000D01*
X49530000Y-137795000D01*
D14*
X49530000Y-145415000D02*
X59690000Y-145415000D01*
X59690000Y-135255000D01*
X49530000Y-135255000D01*
X49530000Y-145415000D01*
D11*
X49530000Y-145415000D02*
X59690000Y-145415000D01*
X59690000Y-142875000D01*
X49530000Y-142875000D01*
X49530000Y-145415000D01*
%TO.C,U6*%
X61036200Y-137795000D02*
X71196200Y-137795000D01*
X71196200Y-135255000D01*
X61036200Y-135255000D01*
X61036200Y-137795000D01*
D14*
X61036200Y-145415000D02*
X71196200Y-145415000D01*
X71196200Y-135255000D01*
X61036200Y-135255000D01*
X61036200Y-145415000D01*
D11*
X61036200Y-145415000D02*
X71196200Y-145415000D01*
X71196200Y-142875000D01*
X61036200Y-142875000D01*
X61036200Y-145415000D01*
D13*
%TO.C,J3*%
X94132400Y-146336800D02*
X94132400Y-158056800D01*
X94132400Y-158056800D02*
X95552400Y-158056800D01*
X95552400Y-153556800D02*
X97942400Y-153556800D01*
X95552400Y-158056800D02*
X95552400Y-153556800D01*
X96442400Y-146946800D02*
X96442400Y-152446800D01*
X96442400Y-152446800D02*
X96942400Y-152446800D01*
X96942400Y-146946800D02*
X96442400Y-146946800D01*
X96942400Y-152446800D02*
X96942400Y-146946800D01*
X97942400Y-146336800D02*
X94132400Y-146336800D01*
X97942400Y-146336800D02*
X101752400Y-146336800D01*
X98892400Y-157746800D02*
X99192400Y-157146800D01*
X98942400Y-146946800D02*
X98942400Y-152446800D01*
X98942400Y-152446800D02*
X99442400Y-152446800D01*
X99192400Y-157146800D02*
X99492400Y-157746800D01*
X99442400Y-146946800D02*
X98942400Y-146946800D01*
X99442400Y-152446800D02*
X99442400Y-146946800D01*
X99492400Y-157746800D02*
X98892400Y-157746800D01*
X100332400Y-153556800D02*
X97942400Y-153556800D01*
X100332400Y-158056800D02*
X100332400Y-153556800D01*
X101752400Y-146336800D02*
X101752400Y-158056800D01*
X101752400Y-158056800D02*
X100332400Y-158056800D01*
%TO.C,FB3*%
X64856200Y-139450000D02*
X64856200Y-139600000D01*
X64856200Y-141220000D02*
X64856200Y-141070000D01*
X67376200Y-139450000D02*
X64856200Y-139450000D01*
X67376200Y-139450000D02*
X67376200Y-139600000D01*
X67376200Y-141220000D02*
X64856200Y-141220000D01*
X67376200Y-141220000D02*
X67376200Y-141070000D01*
%TO.C,C15*%
X79775267Y-115187000D02*
X79482733Y-115187000D01*
X79775267Y-116207000D02*
X79482733Y-116207000D01*
%TO.C,J7*%
X139640000Y-149210000D02*
X139640000Y-144070000D01*
X142300000Y-144070000D02*
X139640000Y-144070000D01*
X142300000Y-149210000D02*
X139640000Y-149210000D01*
X142300000Y-149210000D02*
X142300000Y-144070000D01*
X142300000Y-150480000D02*
X142300000Y-151810000D01*
X142300000Y-151810000D02*
X140970000Y-151810000D01*
%TO.C,R8*%
X77064324Y-106335300D02*
X76554876Y-106335300D01*
X77064324Y-107380300D02*
X76554876Y-107380300D01*
%TO.C,FB4*%
X78109000Y-97927000D02*
X78259000Y-97927000D01*
X78109000Y-100447000D02*
X78109000Y-97927000D01*
X78109000Y-100447000D02*
X78259000Y-100447000D01*
X79879000Y-97927000D02*
X79729000Y-97927000D01*
X79879000Y-100447000D02*
X79729000Y-100447000D01*
X79879000Y-100447000D02*
X79879000Y-97927000D01*
%TO.C,J19*%
X105809600Y-126909000D02*
X105809600Y-128159000D01*
X105809600Y-128159000D02*
X107059600Y-128159000D01*
X106099600Y-120249000D02*
X106099600Y-127869000D01*
X106099600Y-127869000D02*
X112069600Y-127869000D01*
X106109600Y-120259000D02*
X106109600Y-122059000D01*
X106109600Y-122059000D02*
X106859600Y-122059000D01*
X106109600Y-123559000D02*
X106109600Y-124559000D01*
X106109600Y-124559000D02*
X106859600Y-124559000D01*
X106109600Y-126059000D02*
X106109600Y-127859000D01*
X106109600Y-127859000D02*
X106859600Y-127859000D01*
X106859600Y-120259000D02*
X106109600Y-120259000D01*
X106859600Y-122059000D02*
X106859600Y-120259000D01*
X106859600Y-123559000D02*
X106109600Y-123559000D01*
X106859600Y-124559000D02*
X106859600Y-123559000D01*
X106859600Y-126059000D02*
X106109600Y-126059000D01*
X106859600Y-127859000D02*
X106859600Y-126059000D01*
X108359600Y-120259000D02*
X108359600Y-121009000D01*
X108359600Y-121009000D02*
X111309600Y-121009000D01*
X108359600Y-127109000D02*
X111309600Y-127109000D01*
X108359600Y-127859000D02*
X108359600Y-127109000D01*
X111309600Y-121009000D02*
X111309600Y-124059000D01*
X111309600Y-127109000D02*
X111309600Y-124059000D01*
X112069600Y-120249000D02*
X106099600Y-120249000D01*
X112069600Y-127869000D02*
X112069600Y-120249000D01*
%TO.C,SW1*%
X49195000Y-159151000D02*
X49195000Y-166771000D01*
X49195000Y-166771000D02*
X55165000Y-166771000D01*
X49955000Y-159911000D02*
X49955000Y-162961000D01*
X49955000Y-166011000D02*
X49955000Y-162961000D01*
X52905000Y-159161000D02*
X52905000Y-159911000D01*
X52905000Y-159911000D02*
X49955000Y-159911000D01*
X52905000Y-166011000D02*
X49955000Y-166011000D01*
X52905000Y-166761000D02*
X52905000Y-166011000D01*
X54405000Y-159161000D02*
X54405000Y-160961000D01*
X54405000Y-160961000D02*
X55155000Y-160961000D01*
X54405000Y-162461000D02*
X54405000Y-163461000D01*
X54405000Y-163461000D02*
X55155000Y-163461000D01*
X54405000Y-164961000D02*
X54405000Y-166761000D01*
X54405000Y-166761000D02*
X55155000Y-166761000D01*
X55155000Y-159161000D02*
X54405000Y-159161000D01*
X55155000Y-160961000D02*
X55155000Y-159161000D01*
X55155000Y-162461000D02*
X54405000Y-162461000D01*
X55155000Y-163461000D02*
X55155000Y-162461000D01*
X55155000Y-164961000D02*
X54405000Y-164961000D01*
X55155000Y-166761000D02*
X55155000Y-164961000D01*
X55165000Y-159151000D02*
X49195000Y-159151000D01*
X55165000Y-166771000D02*
X55165000Y-159151000D01*
X55455000Y-158861000D02*
X54205000Y-158861000D01*
X55455000Y-160111000D02*
X55455000Y-158861000D01*
%TO.C,J15*%
X61120000Y-121255000D02*
X69540000Y-121255000D01*
X61120000Y-131475000D02*
X61120000Y-121255000D01*
X62340000Y-121255000D02*
X62340000Y-122475000D01*
X62340000Y-122475000D02*
X67340000Y-122475000D01*
X62340000Y-130255000D02*
X67340000Y-130255000D01*
X62340000Y-131475000D02*
X62340000Y-130255000D01*
X62840000Y-123865000D02*
X62920000Y-123545000D01*
X62840000Y-126365000D02*
X62920000Y-126045000D01*
X62840000Y-128865000D02*
X62920000Y-128545000D01*
X62920000Y-123545000D02*
X66340000Y-123545000D01*
X62920000Y-124185000D02*
X62840000Y-123865000D01*
X62920000Y-126045000D02*
X66340000Y-126045000D01*
X62920000Y-126685000D02*
X62840000Y-126365000D01*
X62920000Y-128545000D02*
X66340000Y-128545000D01*
X62920000Y-129185000D02*
X62840000Y-128865000D01*
X66340000Y-123545000D02*
X66340000Y-123865000D01*
X66340000Y-123865000D02*
X66340000Y-124185000D01*
X66340000Y-124185000D02*
X62920000Y-124185000D01*
X66340000Y-126045000D02*
X66340000Y-126365000D01*
X66340000Y-126365000D02*
X66340000Y-126685000D01*
X66340000Y-126685000D02*
X62920000Y-126685000D01*
X66340000Y-128545000D02*
X66340000Y-128865000D01*
X66340000Y-128865000D02*
X66340000Y-129185000D01*
X66340000Y-129185000D02*
X62920000Y-129185000D01*
X66340000Y-130255000D02*
X66340000Y-122475000D01*
X67340000Y-122475000D02*
X67340000Y-121255000D01*
X67340000Y-125195000D02*
X67340000Y-125035000D01*
X67340000Y-127695000D02*
X67340000Y-127535000D01*
X67340000Y-130255000D02*
X67340000Y-131475000D01*
X67340000Y-130255000D02*
X69540000Y-130255000D01*
X69430000Y-128865000D02*
X70030000Y-129165000D01*
X69540000Y-121255000D02*
X69540000Y-122475000D01*
X69540000Y-122475000D02*
X67340000Y-122475000D01*
X69540000Y-130255000D02*
X69540000Y-131475000D01*
X69540000Y-131475000D02*
X61120000Y-131475000D01*
X70030000Y-128565000D02*
X69430000Y-128865000D01*
X70030000Y-129165000D02*
X70030000Y-128565000D01*
%TO.C,FB2*%
X58424000Y-146314000D02*
X58424000Y-148834000D01*
X58424000Y-146314000D02*
X58574000Y-146314000D01*
X58424000Y-148834000D02*
X58574000Y-148834000D01*
X60194000Y-146314000D02*
X60044000Y-146314000D01*
X60194000Y-146314000D02*
X60194000Y-148834000D01*
X60194000Y-148834000D02*
X60044000Y-148834000D01*
%TO.C,SubBoard1*%
X118685000Y-100905000D02*
X144205000Y-100905000D01*
X118685000Y-103505000D02*
X118685000Y-100905000D01*
X118685000Y-106105000D02*
X118685000Y-104775000D01*
X120015000Y-106105000D02*
X118685000Y-106105000D01*
X121285000Y-103505000D02*
X118685000Y-103505000D01*
X121285000Y-106105000D02*
X121285000Y-103505000D01*
X121285000Y-106105000D02*
X144205000Y-106105000D01*
X144205000Y-106105000D02*
X144205000Y-100905000D01*
%TO.C,J8*%
X144085000Y-149225000D02*
X144085000Y-144085000D01*
X146745000Y-144085000D02*
X144085000Y-144085000D01*
X146745000Y-149225000D02*
X144085000Y-149225000D01*
X146745000Y-149225000D02*
X146745000Y-144085000D01*
X146745000Y-150495000D02*
X146745000Y-151825000D01*
X146745000Y-151825000D02*
X145415000Y-151825000D01*
%TO.C,C4*%
X62083733Y-145921000D02*
X62376267Y-145921000D01*
X62083733Y-146941000D02*
X62376267Y-146941000D01*
%TO.C,J9*%
X140101600Y-154405000D02*
X140101600Y-167025000D01*
X140101600Y-167025000D02*
X146071600Y-167025000D01*
X140861600Y-155165000D02*
X140861600Y-160715000D01*
X140861600Y-166265000D02*
X140861600Y-160715000D01*
X143811600Y-154415000D02*
X143811600Y-155165000D01*
X143811600Y-155165000D02*
X140861600Y-155165000D01*
X143811600Y-166265000D02*
X140861600Y-166265000D01*
X143811600Y-167015000D02*
X143811600Y-166265000D01*
X145311600Y-154415000D02*
X145311600Y-156215000D01*
X145311600Y-156215000D02*
X146061600Y-156215000D01*
X145311600Y-157715000D02*
X145311600Y-163715000D01*
X145311600Y-163715000D02*
X146061600Y-163715000D01*
X145311600Y-165215000D02*
X145311600Y-167015000D01*
X145311600Y-167015000D02*
X146061600Y-167015000D01*
X146061600Y-154415000D02*
X145311600Y-154415000D01*
X146061600Y-156215000D02*
X146061600Y-154415000D01*
X146061600Y-157715000D02*
X145311600Y-157715000D01*
X146061600Y-163715000D02*
X146061600Y-157715000D01*
X146061600Y-165215000D02*
X145311600Y-165215000D01*
X146061600Y-167015000D02*
X146061600Y-165215000D01*
X146071600Y-154405000D02*
X140101600Y-154405000D01*
X146071600Y-167025000D02*
X146071600Y-154405000D01*
X146361600Y-154115000D02*
X145111600Y-154115000D01*
X146361600Y-155365000D02*
X146361600Y-154115000D01*
%TO.C,C2*%
X113533800Y-183440400D02*
X119993800Y-183440400D01*
X113533800Y-183480400D02*
X119993800Y-183480400D01*
X113533800Y-183520400D02*
X119993800Y-183520400D01*
X113535800Y-183400400D02*
X119991800Y-183400400D01*
X113536800Y-183360400D02*
X119990800Y-183360400D01*
X113539800Y-183320400D02*
X119987800Y-183320400D01*
X113541800Y-183280400D02*
X115723800Y-183280400D01*
X113545800Y-183240400D02*
X115723800Y-183240400D01*
X113548800Y-183200400D02*
X115723800Y-183200400D01*
X113552800Y-183160400D02*
X115723800Y-183160400D01*
X113557800Y-183120400D02*
X115723800Y-183120400D01*
X113562800Y-183080400D02*
X115723800Y-183080400D01*
X113568800Y-183040400D02*
X115723800Y-183040400D01*
X113574800Y-183000400D02*
X115723800Y-183000400D01*
X113581800Y-182960400D02*
X115723800Y-182960400D01*
X113588800Y-182920400D02*
X115723800Y-182920400D01*
X113596800Y-182880400D02*
X115723800Y-182880400D01*
X113604800Y-182840400D02*
X115723800Y-182840400D01*
X113613800Y-182799400D02*
X115723800Y-182799400D01*
X113622800Y-182759400D02*
X115723800Y-182759400D01*
X113632800Y-182719400D02*
X115723800Y-182719400D01*
X113642800Y-182679400D02*
X115723800Y-182679400D01*
X113653800Y-182639400D02*
X115723800Y-182639400D01*
X113665800Y-182599400D02*
X115723800Y-182599400D01*
X113677800Y-182559400D02*
X115723800Y-182559400D01*
X113689800Y-182519400D02*
X115723800Y-182519400D01*
X113702800Y-182479400D02*
X115723800Y-182479400D01*
X113716800Y-182439400D02*
X115723800Y-182439400D01*
X113730800Y-182399400D02*
X115723800Y-182399400D01*
X113745800Y-182359400D02*
X115723800Y-182359400D01*
X113761800Y-182319400D02*
X115723800Y-182319400D01*
X113777800Y-182279400D02*
X115723800Y-182279400D01*
X113793800Y-182239400D02*
X115723800Y-182239400D01*
X113811800Y-182199400D02*
X115723800Y-182199400D01*
X113829800Y-182159400D02*
X115723800Y-182159400D01*
X113847800Y-182119400D02*
X115723800Y-182119400D01*
X113867800Y-182079400D02*
X115723800Y-182079400D01*
X113887800Y-182039400D02*
X115723800Y-182039400D01*
X113907800Y-181999400D02*
X115723800Y-181999400D01*
X113929800Y-181959400D02*
X115723800Y-181959400D01*
X113951800Y-181919400D02*
X115723800Y-181919400D01*
X113973800Y-181879400D02*
X115723800Y-181879400D01*
X113997800Y-181839400D02*
X115723800Y-181839400D01*
X114021800Y-181799400D02*
X115723800Y-181799400D01*
X114047800Y-181759400D02*
X115723800Y-181759400D01*
X114073800Y-181719400D02*
X115723800Y-181719400D01*
X114099800Y-181679400D02*
X115723800Y-181679400D01*
X114127800Y-181639400D02*
X115723800Y-181639400D01*
X114156800Y-181599400D02*
X115723800Y-181599400D01*
X114185800Y-181559400D02*
X115723800Y-181559400D01*
X114215800Y-181519400D02*
X115723800Y-181519400D01*
X114247800Y-181479400D02*
X115723800Y-181479400D01*
X114279800Y-181439400D02*
X115723800Y-181439400D01*
X114313800Y-181399400D02*
X115723800Y-181399400D01*
X114347800Y-181359400D02*
X115723800Y-181359400D01*
X114383800Y-181319400D02*
X115723800Y-181319400D01*
X114420800Y-181279400D02*
X115723800Y-181279400D01*
X114458800Y-181239400D02*
X115723800Y-181239400D01*
X114498800Y-181199400D02*
X119028800Y-181199400D01*
X114539800Y-181159400D02*
X118987800Y-181159400D01*
X114581800Y-181119400D02*
X118945800Y-181119400D01*
X114609800Y-186705641D02*
X115239800Y-186705641D01*
X114626800Y-181079400D02*
X118900800Y-181079400D01*
X114671800Y-181039400D02*
X118855800Y-181039400D01*
X114719800Y-180999400D02*
X118807800Y-180999400D01*
X114768800Y-180959400D02*
X118758800Y-180959400D01*
X114819800Y-180919400D02*
X118707800Y-180919400D01*
X114873800Y-180879400D02*
X118653800Y-180879400D01*
X114924800Y-187020641D02*
X114924800Y-186390641D01*
X114929800Y-180839400D02*
X118597800Y-180839400D01*
X114987800Y-180799400D02*
X118539800Y-180799400D01*
X115049800Y-180759400D02*
X118477800Y-180759400D01*
X115113800Y-180719400D02*
X118413800Y-180719400D01*
X115182800Y-180679400D02*
X118344800Y-180679400D01*
X115254800Y-180639400D02*
X118272800Y-180639400D01*
X115331800Y-180599400D02*
X118195800Y-180599400D01*
X115413800Y-180559400D02*
X118113800Y-180559400D01*
X115501800Y-180519400D02*
X118025800Y-180519400D01*
X115598800Y-180479400D02*
X117928800Y-180479400D01*
X115704800Y-180439400D02*
X117822800Y-180439400D01*
X115823800Y-180399400D02*
X117703800Y-180399400D01*
X115961800Y-180359400D02*
X117565800Y-180359400D01*
X116130800Y-180319400D02*
X117396800Y-180319400D01*
X116361800Y-180279400D02*
X117165800Y-180279400D01*
X117803800Y-181239400D02*
X119068800Y-181239400D01*
X117803800Y-181279400D02*
X119106800Y-181279400D01*
X117803800Y-181319400D02*
X119143800Y-181319400D01*
X117803800Y-181359400D02*
X119179800Y-181359400D01*
X117803800Y-181399400D02*
X119213800Y-181399400D01*
X117803800Y-181439400D02*
X119247800Y-181439400D01*
X117803800Y-181479400D02*
X119279800Y-181479400D01*
X117803800Y-181519400D02*
X119311800Y-181519400D01*
X117803800Y-181559400D02*
X119341800Y-181559400D01*
X117803800Y-181599400D02*
X119370800Y-181599400D01*
X117803800Y-181639400D02*
X119399800Y-181639400D01*
X117803800Y-181679400D02*
X119427800Y-181679400D01*
X117803800Y-181719400D02*
X119453800Y-181719400D01*
X117803800Y-181759400D02*
X119479800Y-181759400D01*
X117803800Y-181799400D02*
X119505800Y-181799400D01*
X117803800Y-181839400D02*
X119529800Y-181839400D01*
X117803800Y-181879400D02*
X119553800Y-181879400D01*
X117803800Y-181919400D02*
X119575800Y-181919400D01*
X117803800Y-181959400D02*
X119597800Y-181959400D01*
X117803800Y-181999400D02*
X119619800Y-181999400D01*
X117803800Y-182039400D02*
X119639800Y-182039400D01*
X117803800Y-182079400D02*
X119659800Y-182079400D01*
X117803800Y-182119400D02*
X119679800Y-182119400D01*
X117803800Y-182159400D02*
X119697800Y-182159400D01*
X117803800Y-182199400D02*
X119715800Y-182199400D01*
X117803800Y-182239400D02*
X119733800Y-182239400D01*
X117803800Y-182279400D02*
X119749800Y-182279400D01*
X117803800Y-182319400D02*
X119765800Y-182319400D01*
X117803800Y-182359400D02*
X119781800Y-182359400D01*
X117803800Y-182399400D02*
X119796800Y-182399400D01*
X117803800Y-182439400D02*
X119810800Y-182439400D01*
X117803800Y-182479400D02*
X119824800Y-182479400D01*
X117803800Y-182519400D02*
X119837800Y-182519400D01*
X117803800Y-182559400D02*
X119849800Y-182559400D01*
X117803800Y-182599400D02*
X119861800Y-182599400D01*
X117803800Y-182639400D02*
X119873800Y-182639400D01*
X117803800Y-182679400D02*
X119884800Y-182679400D01*
X117803800Y-182719400D02*
X119894800Y-182719400D01*
X117803800Y-182759400D02*
X119904800Y-182759400D01*
X117803800Y-182799400D02*
X119913800Y-182799400D01*
X117803800Y-182840400D02*
X119922800Y-182840400D01*
X117803800Y-182880400D02*
X119930800Y-182880400D01*
X117803800Y-182920400D02*
X119938800Y-182920400D01*
X117803800Y-182960400D02*
X119945800Y-182960400D01*
X117803800Y-183000400D02*
X119952800Y-183000400D01*
X117803800Y-183040400D02*
X119958800Y-183040400D01*
X117803800Y-183080400D02*
X119964800Y-183080400D01*
X117803800Y-183120400D02*
X119969800Y-183120400D01*
X117803800Y-183160400D02*
X119974800Y-183160400D01*
X117803800Y-183200400D02*
X119978800Y-183200400D01*
X117803800Y-183240400D02*
X119981800Y-183240400D01*
X117803800Y-183280400D02*
X119985800Y-183280400D01*
X120033800Y-183520400D02*
G75*
G02*
X113493800Y-183520400I-3270000J0D01*
G01*
X113493800Y-183520400D02*
G75*
G02*
X120033800Y-183520400I3270000J0D01*
G01*
%TO.C,J4*%
X84889000Y-121575000D02*
X104849000Y-121575000D01*
X84889000Y-124995000D02*
X84889000Y-121575000D01*
X85339000Y-116075000D02*
X85339000Y-117685000D01*
X85939000Y-124995000D02*
X84889000Y-124995000D01*
X85939000Y-131195000D02*
X85939000Y-124995000D01*
X86129000Y-131195000D02*
X86129000Y-132695000D01*
X86129000Y-132695000D02*
X87769000Y-132695000D01*
X86949000Y-116075000D02*
X85339000Y-116075000D01*
X87769000Y-132695000D02*
X87769000Y-131195000D01*
X90089000Y-131195000D02*
X90089000Y-132695000D01*
X90089000Y-132695000D02*
X91729000Y-132695000D01*
X91729000Y-132695000D02*
X91729000Y-131195000D01*
X94049000Y-131195000D02*
X94049000Y-132695000D01*
X94049000Y-132695000D02*
X95689000Y-132695000D01*
X95689000Y-132695000D02*
X95689000Y-131195000D01*
X98009000Y-131195000D02*
X98009000Y-132695000D01*
X98009000Y-132695000D02*
X99649000Y-132695000D01*
X99649000Y-132695000D02*
X99649000Y-131195000D01*
X101969000Y-131195000D02*
X101969000Y-132695000D01*
X101969000Y-132695000D02*
X103609000Y-132695000D01*
X103609000Y-132695000D02*
X103609000Y-131195000D01*
X103799000Y-124995000D02*
X103799000Y-131195000D01*
X103799000Y-131195000D02*
X85939000Y-131195000D01*
X104849000Y-121575000D02*
X104849000Y-124995000D01*
X104849000Y-124995000D02*
X103799000Y-124995000D01*
%TO.C,R4*%
X58039724Y-167538500D02*
X57530276Y-167538500D01*
X58039724Y-168583500D02*
X57530276Y-168583500D01*
%TO.C,ToF2*%
D11*
X142367000Y-188595000D02*
X151257000Y-188595000D01*
X151257000Y-175895000D01*
X142367000Y-175895000D01*
X142367000Y-188595000D01*
D13*
%TO.C,U7*%
X71695000Y-118879000D02*
X71695000Y-144519000D01*
X71695000Y-144519000D02*
X81975000Y-144519000D01*
X74185000Y-118939000D02*
X74185000Y-144459000D01*
X74185000Y-144459000D02*
X79485000Y-144459000D01*
X75835000Y-118939000D02*
X74185000Y-118939000D01*
X79485000Y-118939000D02*
X77835000Y-118939000D01*
X79485000Y-144459000D02*
X79485000Y-118939000D01*
X81975000Y-118879000D02*
X71695000Y-118879000D01*
X81975000Y-144519000D02*
X81975000Y-118879000D01*
X77835000Y-118939000D02*
G75*
G02*
X75835000Y-118939000I-1000000J0D01*
G01*
%TO.C,LDO1*%
X72368000Y-107782600D02*
X78788000Y-107782600D01*
X72368000Y-114682600D02*
X78788000Y-114682600D01*
X78788000Y-107782600D02*
X78788000Y-108052600D01*
X78788000Y-114682600D02*
X78788000Y-114412600D01*
X80448000Y-114702600D02*
X79968000Y-114702600D01*
X80208000Y-114372600D01*
X80448000Y-114702600D01*
G36*
X80448000Y-114702600D02*
G01*
X79968000Y-114702600D01*
X80208000Y-114372600D01*
X80448000Y-114702600D01*
G37*
D12*
%TO.C,U2*%
X120650000Y-125095000D02*
X138430000Y-125095000D01*
X120650000Y-186055000D02*
X120650000Y-125095000D01*
X120650000Y-186055000D02*
X125510000Y-186055000D01*
X125510000Y-186055000D02*
X125510000Y-186755000D01*
X133570000Y-186055000D02*
X133570000Y-186755000D01*
X133570000Y-186755000D02*
X125510000Y-186755000D01*
X138430000Y-125095000D02*
X138430000Y-186055000D01*
X138430000Y-186055000D02*
X133570000Y-186055000D01*
D14*
X139140000Y-179705000D02*
G75*
G02*
X138940000Y-179705000I-100000J0D01*
G01*
X138940000Y-179705000D02*
G75*
G02*
X139140000Y-179705000I100000J0D01*
G01*
D13*
%TO.C,C5*%
X52304733Y-145921000D02*
X52597267Y-145921000D01*
X52304733Y-146941000D02*
X52597267Y-146941000D01*
%TO.C,SW2*%
X57450000Y-159100200D02*
X57450000Y-166720200D01*
X57450000Y-166720200D02*
X63420000Y-166720200D01*
X58210000Y-159860200D02*
X58210000Y-162910200D01*
X58210000Y-165960200D02*
X58210000Y-162910200D01*
X61160000Y-159110200D02*
X61160000Y-159860200D01*
X61160000Y-159860200D02*
X58210000Y-159860200D01*
X61160000Y-165960200D02*
X58210000Y-165960200D01*
X61160000Y-166710200D02*
X61160000Y-165960200D01*
X62660000Y-159110200D02*
X62660000Y-160910200D01*
X62660000Y-160910200D02*
X63410000Y-160910200D01*
X62660000Y-162410200D02*
X62660000Y-163410200D01*
X62660000Y-163410200D02*
X63410000Y-163410200D01*
X62660000Y-164910200D02*
X62660000Y-166710200D01*
X62660000Y-166710200D02*
X63410000Y-166710200D01*
X63410000Y-159110200D02*
X62660000Y-159110200D01*
X63410000Y-160910200D02*
X63410000Y-159110200D01*
X63410000Y-162410200D02*
X62660000Y-162410200D01*
X63410000Y-163410200D02*
X63410000Y-162410200D01*
X63410000Y-164910200D02*
X62660000Y-164910200D01*
X63410000Y-166710200D02*
X63410000Y-164910200D01*
X63420000Y-159100200D02*
X57450000Y-159100200D01*
X63420000Y-166720200D02*
X63420000Y-159100200D01*
X63710000Y-158810200D02*
X62460000Y-158810200D01*
X63710000Y-160060200D02*
X63710000Y-158810200D01*
%TO.C,C10*%
X66905000Y-106051000D02*
X64723000Y-106051000D01*
X66905000Y-106091000D02*
X64727000Y-106091000D01*
X66905000Y-106131000D02*
X64730000Y-106131000D01*
X66905000Y-106171000D02*
X64734000Y-106171000D01*
X66905000Y-106211000D02*
X64739000Y-106211000D01*
X66905000Y-106251000D02*
X64744000Y-106251000D01*
X66905000Y-106291000D02*
X64750000Y-106291000D01*
X66905000Y-106331000D02*
X64756000Y-106331000D01*
X66905000Y-106371000D02*
X64763000Y-106371000D01*
X66905000Y-106411000D02*
X64770000Y-106411000D01*
X66905000Y-106451000D02*
X64778000Y-106451000D01*
X66905000Y-106491000D02*
X64786000Y-106491000D01*
X66905000Y-106532000D02*
X64795000Y-106532000D01*
X66905000Y-106572000D02*
X64804000Y-106572000D01*
X66905000Y-106612000D02*
X64814000Y-106612000D01*
X66905000Y-106652000D02*
X64824000Y-106652000D01*
X66905000Y-106692000D02*
X64835000Y-106692000D01*
X66905000Y-106732000D02*
X64847000Y-106732000D01*
X66905000Y-106772000D02*
X64859000Y-106772000D01*
X66905000Y-106812000D02*
X64871000Y-106812000D01*
X66905000Y-106852000D02*
X64884000Y-106852000D01*
X66905000Y-106892000D02*
X64898000Y-106892000D01*
X66905000Y-106932000D02*
X64912000Y-106932000D01*
X66905000Y-106972000D02*
X64927000Y-106972000D01*
X66905000Y-107012000D02*
X64943000Y-107012000D01*
X66905000Y-107052000D02*
X64959000Y-107052000D01*
X66905000Y-107092000D02*
X64975000Y-107092000D01*
X66905000Y-107132000D02*
X64993000Y-107132000D01*
X66905000Y-107172000D02*
X65011000Y-107172000D01*
X66905000Y-107212000D02*
X65029000Y-107212000D01*
X66905000Y-107252000D02*
X65049000Y-107252000D01*
X66905000Y-107292000D02*
X65069000Y-107292000D01*
X66905000Y-107332000D02*
X65089000Y-107332000D01*
X66905000Y-107372000D02*
X65111000Y-107372000D01*
X66905000Y-107412000D02*
X65133000Y-107412000D01*
X66905000Y-107452000D02*
X65155000Y-107452000D01*
X66905000Y-107492000D02*
X65179000Y-107492000D01*
X66905000Y-107532000D02*
X65203000Y-107532000D01*
X66905000Y-107572000D02*
X65229000Y-107572000D01*
X66905000Y-107612000D02*
X65255000Y-107612000D01*
X66905000Y-107652000D02*
X65281000Y-107652000D01*
X66905000Y-107692000D02*
X65309000Y-107692000D01*
X66905000Y-107732000D02*
X65338000Y-107732000D01*
X66905000Y-107772000D02*
X65367000Y-107772000D01*
X66905000Y-107812000D02*
X65397000Y-107812000D01*
X66905000Y-107852000D02*
X65429000Y-107852000D01*
X66905000Y-107892000D02*
X65461000Y-107892000D01*
X66905000Y-107932000D02*
X65495000Y-107932000D01*
X66905000Y-107972000D02*
X65529000Y-107972000D01*
X66905000Y-108012000D02*
X65565000Y-108012000D01*
X66905000Y-108052000D02*
X65602000Y-108052000D01*
X66905000Y-108092000D02*
X65640000Y-108092000D01*
X68347000Y-109052000D02*
X67543000Y-109052000D01*
X68578000Y-109012000D02*
X67312000Y-109012000D01*
X68747000Y-108972000D02*
X67143000Y-108972000D01*
X68885000Y-108932000D02*
X67005000Y-108932000D01*
X69004000Y-108892000D02*
X66886000Y-108892000D01*
X69110000Y-108852000D02*
X66780000Y-108852000D01*
X69207000Y-108812000D02*
X66683000Y-108812000D01*
X69295000Y-108772000D02*
X66595000Y-108772000D01*
X69377000Y-108732000D02*
X66513000Y-108732000D01*
X69454000Y-108692000D02*
X66436000Y-108692000D01*
X69526000Y-108652000D02*
X66364000Y-108652000D01*
X69595000Y-108612000D02*
X66295000Y-108612000D01*
X69659000Y-108572000D02*
X66231000Y-108572000D01*
X69721000Y-108532000D02*
X66169000Y-108532000D01*
X69779000Y-108492000D02*
X66111000Y-108492000D01*
X69784000Y-102310759D02*
X69784000Y-102940759D01*
X69835000Y-108452000D02*
X66055000Y-108452000D01*
X69889000Y-108412000D02*
X66001000Y-108412000D01*
X69940000Y-108372000D02*
X65950000Y-108372000D01*
X69989000Y-108332000D02*
X65901000Y-108332000D01*
X70037000Y-108292000D02*
X65853000Y-108292000D01*
X70082000Y-108252000D02*
X65808000Y-108252000D01*
X70099000Y-102625759D02*
X69469000Y-102625759D01*
X70127000Y-108212000D02*
X65763000Y-108212000D01*
X70169000Y-108172000D02*
X65721000Y-108172000D01*
X70210000Y-108132000D02*
X65680000Y-108132000D01*
X70250000Y-108092000D02*
X68985000Y-108092000D01*
X70288000Y-108052000D02*
X68985000Y-108052000D01*
X70325000Y-108012000D02*
X68985000Y-108012000D01*
X70361000Y-107972000D02*
X68985000Y-107972000D01*
X70395000Y-107932000D02*
X68985000Y-107932000D01*
X70429000Y-107892000D02*
X68985000Y-107892000D01*
X70461000Y-107852000D02*
X68985000Y-107852000D01*
X70493000Y-107812000D02*
X68985000Y-107812000D01*
X70523000Y-107772000D02*
X68985000Y-107772000D01*
X70552000Y-107732000D02*
X68985000Y-107732000D01*
X70581000Y-107692000D02*
X68985000Y-107692000D01*
X70609000Y-107652000D02*
X68985000Y-107652000D01*
X70635000Y-107612000D02*
X68985000Y-107612000D01*
X70661000Y-107572000D02*
X68985000Y-107572000D01*
X70687000Y-107532000D02*
X68985000Y-107532000D01*
X70711000Y-107492000D02*
X68985000Y-107492000D01*
X70735000Y-107452000D02*
X68985000Y-107452000D01*
X70757000Y-107412000D02*
X68985000Y-107412000D01*
X70779000Y-107372000D02*
X68985000Y-107372000D01*
X70801000Y-107332000D02*
X68985000Y-107332000D01*
X70821000Y-107292000D02*
X68985000Y-107292000D01*
X70841000Y-107252000D02*
X68985000Y-107252000D01*
X70861000Y-107212000D02*
X68985000Y-107212000D01*
X70879000Y-107172000D02*
X68985000Y-107172000D01*
X70897000Y-107132000D02*
X68985000Y-107132000D01*
X70915000Y-107092000D02*
X68985000Y-107092000D01*
X70931000Y-107052000D02*
X68985000Y-107052000D01*
X70947000Y-107012000D02*
X68985000Y-107012000D01*
X70963000Y-106972000D02*
X68985000Y-106972000D01*
X70978000Y-106932000D02*
X68985000Y-106932000D01*
X70992000Y-106892000D02*
X68985000Y-106892000D01*
X71006000Y-106852000D02*
X68985000Y-106852000D01*
X71019000Y-106812000D02*
X68985000Y-106812000D01*
X71031000Y-106772000D02*
X68985000Y-106772000D01*
X71043000Y-106732000D02*
X68985000Y-106732000D01*
X71055000Y-106692000D02*
X68985000Y-106692000D01*
X71066000Y-106652000D02*
X68985000Y-106652000D01*
X71076000Y-106612000D02*
X68985000Y-106612000D01*
X71086000Y-106572000D02*
X68985000Y-106572000D01*
X71095000Y-106532000D02*
X68985000Y-106532000D01*
X71104000Y-106491000D02*
X68985000Y-106491000D01*
X71112000Y-106451000D02*
X68985000Y-106451000D01*
X71120000Y-106411000D02*
X68985000Y-106411000D01*
X71127000Y-106371000D02*
X68985000Y-106371000D01*
X71134000Y-106331000D02*
X68985000Y-106331000D01*
X71140000Y-106291000D02*
X68985000Y-106291000D01*
X71146000Y-106251000D02*
X68985000Y-106251000D01*
X71151000Y-106211000D02*
X68985000Y-106211000D01*
X71156000Y-106171000D02*
X68985000Y-106171000D01*
X71160000Y-106131000D02*
X68985000Y-106131000D01*
X71163000Y-106091000D02*
X68985000Y-106091000D01*
X71167000Y-106051000D02*
X68985000Y-106051000D01*
X71169000Y-106011000D02*
X64721000Y-106011000D01*
X71172000Y-105971000D02*
X64718000Y-105971000D01*
X71173000Y-105931000D02*
X64717000Y-105931000D01*
X71175000Y-105811000D02*
X64715000Y-105811000D01*
X71175000Y-105851000D02*
X64715000Y-105851000D01*
X71175000Y-105891000D02*
X64715000Y-105891000D01*
X71215000Y-105811000D02*
G75*
G02*
X64675000Y-105811000I-3270000J0D01*
G01*
X64675000Y-105811000D02*
G75*
G02*
X71215000Y-105811000I3270000J0D01*
G01*
%TO.C,R7*%
X70216500Y-125094276D02*
X70216500Y-125603724D01*
X71261500Y-125094276D02*
X71261500Y-125603724D01*
%TO.C,R3*%
X52324724Y-167538500D02*
X51815276Y-167538500D01*
X52324724Y-168583500D02*
X51815276Y-168583500D01*
%TO.C,C9*%
X57730000Y-105691000D02*
X64190000Y-105691000D01*
X57730000Y-105731000D02*
X64190000Y-105731000D01*
X57730000Y-105771000D02*
X64190000Y-105771000D01*
X57732000Y-105651000D02*
X64188000Y-105651000D01*
X57733000Y-105611000D02*
X64187000Y-105611000D01*
X57736000Y-105571000D02*
X64184000Y-105571000D01*
X57738000Y-105531000D02*
X59920000Y-105531000D01*
X57742000Y-105491000D02*
X59920000Y-105491000D01*
X57745000Y-105451000D02*
X59920000Y-105451000D01*
X57749000Y-105411000D02*
X59920000Y-105411000D01*
X57754000Y-105371000D02*
X59920000Y-105371000D01*
X57759000Y-105331000D02*
X59920000Y-105331000D01*
X57765000Y-105291000D02*
X59920000Y-105291000D01*
X57771000Y-105251000D02*
X59920000Y-105251000D01*
X57778000Y-105211000D02*
X59920000Y-105211000D01*
X57785000Y-105171000D02*
X59920000Y-105171000D01*
X57793000Y-105131000D02*
X59920000Y-105131000D01*
X57801000Y-105091000D02*
X59920000Y-105091000D01*
X57810000Y-105050000D02*
X59920000Y-105050000D01*
X57819000Y-105010000D02*
X59920000Y-105010000D01*
X57829000Y-104970000D02*
X59920000Y-104970000D01*
X57839000Y-104930000D02*
X59920000Y-104930000D01*
X57850000Y-104890000D02*
X59920000Y-104890000D01*
X57862000Y-104850000D02*
X59920000Y-104850000D01*
X57874000Y-104810000D02*
X59920000Y-104810000D01*
X57886000Y-104770000D02*
X59920000Y-104770000D01*
X57899000Y-104730000D02*
X59920000Y-104730000D01*
X57913000Y-104690000D02*
X59920000Y-104690000D01*
X57927000Y-104650000D02*
X59920000Y-104650000D01*
X57942000Y-104610000D02*
X59920000Y-104610000D01*
X57958000Y-104570000D02*
X59920000Y-104570000D01*
X57974000Y-104530000D02*
X59920000Y-104530000D01*
X57990000Y-104490000D02*
X59920000Y-104490000D01*
X58008000Y-104450000D02*
X59920000Y-104450000D01*
X58026000Y-104410000D02*
X59920000Y-104410000D01*
X58044000Y-104370000D02*
X59920000Y-104370000D01*
X58064000Y-104330000D02*
X59920000Y-104330000D01*
X58084000Y-104290000D02*
X59920000Y-104290000D01*
X58104000Y-104250000D02*
X59920000Y-104250000D01*
X58126000Y-104210000D02*
X59920000Y-104210000D01*
X58148000Y-104170000D02*
X59920000Y-104170000D01*
X58170000Y-104130000D02*
X59920000Y-104130000D01*
X58194000Y-104090000D02*
X59920000Y-104090000D01*
X58218000Y-104050000D02*
X59920000Y-104050000D01*
X58244000Y-104010000D02*
X59920000Y-104010000D01*
X58270000Y-103970000D02*
X59920000Y-103970000D01*
X58296000Y-103930000D02*
X59920000Y-103930000D01*
X58324000Y-103890000D02*
X59920000Y-103890000D01*
X58353000Y-103850000D02*
X59920000Y-103850000D01*
X58382000Y-103810000D02*
X59920000Y-103810000D01*
X58412000Y-103770000D02*
X59920000Y-103770000D01*
X58444000Y-103730000D02*
X59920000Y-103730000D01*
X58476000Y-103690000D02*
X59920000Y-103690000D01*
X58510000Y-103650000D02*
X59920000Y-103650000D01*
X58544000Y-103610000D02*
X59920000Y-103610000D01*
X58580000Y-103570000D02*
X59920000Y-103570000D01*
X58617000Y-103530000D02*
X59920000Y-103530000D01*
X58655000Y-103490000D02*
X59920000Y-103490000D01*
X58695000Y-103450000D02*
X63225000Y-103450000D01*
X58736000Y-103410000D02*
X63184000Y-103410000D01*
X58778000Y-103370000D02*
X63142000Y-103370000D01*
X58823000Y-103330000D02*
X63097000Y-103330000D01*
X58868000Y-103290000D02*
X63052000Y-103290000D01*
X58916000Y-103250000D02*
X63004000Y-103250000D01*
X58965000Y-103210000D02*
X62955000Y-103210000D01*
X59016000Y-103170000D02*
X62904000Y-103170000D01*
X59070000Y-103130000D02*
X62850000Y-103130000D01*
X59126000Y-103090000D02*
X62794000Y-103090000D01*
X59184000Y-103050000D02*
X62736000Y-103050000D01*
X59246000Y-103010000D02*
X62674000Y-103010000D01*
X59310000Y-102970000D02*
X62610000Y-102970000D01*
X59379000Y-102930000D02*
X62541000Y-102930000D01*
X59451000Y-102890000D02*
X62469000Y-102890000D01*
X59528000Y-102850000D02*
X62392000Y-102850000D01*
X59610000Y-102810000D02*
X62310000Y-102810000D01*
X59698000Y-102770000D02*
X62222000Y-102770000D01*
X59795000Y-102730000D02*
X62125000Y-102730000D01*
X59901000Y-102690000D02*
X62019000Y-102690000D01*
X60020000Y-102650000D02*
X61900000Y-102650000D01*
X60158000Y-102610000D02*
X61762000Y-102610000D01*
X60327000Y-102570000D02*
X61593000Y-102570000D01*
X60558000Y-102530000D02*
X61362000Y-102530000D01*
X62000000Y-103490000D02*
X63265000Y-103490000D01*
X62000000Y-103530000D02*
X63303000Y-103530000D01*
X62000000Y-103570000D02*
X63340000Y-103570000D01*
X62000000Y-103610000D02*
X63376000Y-103610000D01*
X62000000Y-103650000D02*
X63410000Y-103650000D01*
X62000000Y-103690000D02*
X63444000Y-103690000D01*
X62000000Y-103730000D02*
X63476000Y-103730000D01*
X62000000Y-103770000D02*
X63508000Y-103770000D01*
X62000000Y-103810000D02*
X63538000Y-103810000D01*
X62000000Y-103850000D02*
X63567000Y-103850000D01*
X62000000Y-103890000D02*
X63596000Y-103890000D01*
X62000000Y-103930000D02*
X63624000Y-103930000D01*
X62000000Y-103970000D02*
X63650000Y-103970000D01*
X62000000Y-104010000D02*
X63676000Y-104010000D01*
X62000000Y-104050000D02*
X63702000Y-104050000D01*
X62000000Y-104090000D02*
X63726000Y-104090000D01*
X62000000Y-104130000D02*
X63750000Y-104130000D01*
X62000000Y-104170000D02*
X63772000Y-104170000D01*
X62000000Y-104210000D02*
X63794000Y-104210000D01*
X62000000Y-104250000D02*
X63816000Y-104250000D01*
X62000000Y-104290000D02*
X63836000Y-104290000D01*
X62000000Y-104330000D02*
X63856000Y-104330000D01*
X62000000Y-104370000D02*
X63876000Y-104370000D01*
X62000000Y-104410000D02*
X63894000Y-104410000D01*
X62000000Y-104450000D02*
X63912000Y-104450000D01*
X62000000Y-104490000D02*
X63930000Y-104490000D01*
X62000000Y-104530000D02*
X63946000Y-104530000D01*
X62000000Y-104570000D02*
X63962000Y-104570000D01*
X62000000Y-104610000D02*
X63978000Y-104610000D01*
X62000000Y-104650000D02*
X63993000Y-104650000D01*
X62000000Y-104690000D02*
X64007000Y-104690000D01*
X62000000Y-104730000D02*
X64021000Y-104730000D01*
X62000000Y-104770000D02*
X64034000Y-104770000D01*
X62000000Y-104810000D02*
X64046000Y-104810000D01*
X62000000Y-104850000D02*
X64058000Y-104850000D01*
X62000000Y-104890000D02*
X64070000Y-104890000D01*
X62000000Y-104930000D02*
X64081000Y-104930000D01*
X62000000Y-104970000D02*
X64091000Y-104970000D01*
X62000000Y-105010000D02*
X64101000Y-105010000D01*
X62000000Y-105050000D02*
X64110000Y-105050000D01*
X62000000Y-105091000D02*
X64119000Y-105091000D01*
X62000000Y-105131000D02*
X64127000Y-105131000D01*
X62000000Y-105171000D02*
X64135000Y-105171000D01*
X62000000Y-105211000D02*
X64142000Y-105211000D01*
X62000000Y-105251000D02*
X64149000Y-105251000D01*
X62000000Y-105291000D02*
X64155000Y-105291000D01*
X62000000Y-105331000D02*
X64161000Y-105331000D01*
X62000000Y-105371000D02*
X64166000Y-105371000D01*
X62000000Y-105411000D02*
X64171000Y-105411000D01*
X62000000Y-105451000D02*
X64175000Y-105451000D01*
X62000000Y-105491000D02*
X64178000Y-105491000D01*
X62000000Y-105531000D02*
X64182000Y-105531000D01*
X63500000Y-108956241D02*
X64130000Y-108956241D01*
X63815000Y-109271241D02*
X63815000Y-108641241D01*
X64230000Y-105771000D02*
G75*
G02*
X57690000Y-105771000I-3270000J0D01*
G01*
X57690000Y-105771000D02*
G75*
G02*
X64230000Y-105771000I3270000J0D01*
G01*
%TO.C,Line1*%
X85538000Y-93285000D02*
X111058000Y-93285000D01*
X85538000Y-95885000D02*
X85538000Y-93285000D01*
X85538000Y-98485000D02*
X85538000Y-97155000D01*
X86868000Y-98485000D02*
X85538000Y-98485000D01*
X88138000Y-95885000D02*
X85538000Y-95885000D01*
X88138000Y-98485000D02*
X88138000Y-95885000D01*
X88138000Y-98485000D02*
X111058000Y-98485000D01*
X111058000Y-98485000D02*
X111058000Y-93285000D01*
%TD*%
%LPC*%
D15*
%TO.C,J2*%
X80645000Y-94615000D03*
D16*
X78105000Y-94615000D03*
X75565000Y-94615000D03*
X73025000Y-94615000D03*
%TD*%
D17*
%TO.C,J17*%
X51602000Y-100017700D03*
D18*
X54102000Y-100017700D03*
X56602000Y-100017700D03*
%TD*%
D19*
%TO.C,J1*%
X67937500Y-117475000D03*
D20*
X67937500Y-114975000D03*
X67937500Y-112475000D03*
%TD*%
D21*
%TO.C,C7*%
X65304500Y-134239000D03*
X67029500Y-134239000D03*
%TD*%
D17*
%TO.C,J16*%
X63032000Y-100017700D03*
D18*
X65532000Y-100017700D03*
X68032000Y-100017700D03*
%TD*%
D22*
%TO.C,C1*%
X82804000Y-110135500D03*
X82804000Y-111860500D03*
%TD*%
D23*
%TO.C,REF\u002A\u002A*%
X51548500Y-105359200D03*
%TD*%
D24*
%TO.C,ToF1*%
X52705000Y-177165000D03*
X52705000Y-179705000D03*
X52705000Y-182245000D03*
X52705000Y-184785000D03*
X52705000Y-187325000D03*
%TD*%
D25*
%TO.C,D1*%
X74676000Y-99542600D03*
D26*
X74676000Y-102082600D03*
%TD*%
D24*
%TO.C,VisionAI1*%
X90277069Y-183264726D03*
X90277069Y-180724726D03*
X90277069Y-178184726D03*
X90277069Y-175644726D03*
X90277069Y-173104726D03*
X90277069Y-170564726D03*
X90297000Y-168021000D03*
X105517069Y-168024726D03*
X105517069Y-170564726D03*
X105517069Y-173104726D03*
X105517069Y-175644726D03*
X105517069Y-178184726D03*
X105517069Y-180724726D03*
X105517069Y-183264726D03*
%TD*%
D27*
%TO.C,FB1*%
X110051200Y-184759600D03*
X112351200Y-184759600D03*
%TD*%
D23*
%TO.C,REF\u002A\u002A*%
X51562000Y-172339000D03*
%TD*%
D28*
%TO.C,C8*%
X55472500Y-134239000D03*
X53747500Y-134239000D03*
%TD*%
D24*
%TO.C,Gyro1*%
X75565000Y-176911000D03*
X73025000Y-176911000D03*
X70485000Y-176911000D03*
X67945000Y-176911000D03*
X67945000Y-184531000D03*
X70485000Y-184531000D03*
X73025000Y-184531000D03*
X75565000Y-184531000D03*
%TD*%
%TO.C,U5*%
X50800000Y-144145000D03*
X53340000Y-144145000D03*
X55880000Y-144145000D03*
X58420000Y-144145000D03*
X58420000Y-136525000D03*
X55880000Y-136525000D03*
X53340000Y-136525000D03*
X50800000Y-136525000D03*
%TD*%
%TO.C,U6*%
X62306200Y-144145000D03*
X64846200Y-144145000D03*
X67386200Y-144145000D03*
X69926200Y-144145000D03*
X69926200Y-136525000D03*
X67386200Y-136525000D03*
X64846200Y-136525000D03*
X62306200Y-136525000D03*
%TD*%
D29*
%TO.C,J3*%
X99192400Y-155646800D03*
D30*
X96692400Y-155646800D03*
%TD*%
D27*
%TO.C,FB3*%
X67266200Y-140335000D03*
X64966200Y-140335000D03*
%TD*%
D28*
%TO.C,C15*%
X80491500Y-115697000D03*
X78766500Y-115697000D03*
%TD*%
D15*
%TO.C,J7*%
X140970000Y-150480000D03*
D16*
X140970000Y-147940000D03*
X140970000Y-145400000D03*
%TD*%
D31*
%TO.C,R8*%
X77722100Y-106857800D03*
X75897100Y-106857800D03*
%TD*%
D32*
%TO.C,FB4*%
X78994000Y-100337000D03*
X78994000Y-98037000D03*
%TD*%
D33*
%TO.C,J19*%
X108559600Y-125309000D03*
D34*
X108559600Y-122809000D03*
%TD*%
D23*
%TO.C,REF\u002A\u002A*%
X145034000Y-110109000D03*
%TD*%
D35*
%TO.C,SW1*%
X52705000Y-161711000D03*
D34*
X52705000Y-164211000D03*
%TD*%
D19*
%TO.C,J15*%
X67930000Y-128865000D03*
D20*
X67930000Y-126365000D03*
X67930000Y-123865000D03*
%TD*%
D32*
%TO.C,FB2*%
X59309000Y-146424000D03*
X59309000Y-148724000D03*
%TD*%
D15*
%TO.C,SubBoard1*%
X120015000Y-104775000D03*
D16*
X122555000Y-104775000D03*
X125095000Y-104775000D03*
X127635000Y-104775000D03*
X130175000Y-104775000D03*
X132715000Y-104775000D03*
X135255000Y-104775000D03*
X137795000Y-104775000D03*
X140335000Y-104775000D03*
X142875000Y-104775000D03*
X120015000Y-102235000D03*
X122555000Y-102235000D03*
X125095000Y-102235000D03*
X127635000Y-102235000D03*
X130175000Y-102235000D03*
X132715000Y-102235000D03*
X135255000Y-102235000D03*
X137795000Y-102235000D03*
X140335000Y-102235000D03*
X142875000Y-102235000D03*
%TD*%
D15*
%TO.C,J8*%
X145415000Y-150495000D03*
D16*
X145415000Y-147955000D03*
X145415000Y-145415000D03*
%TD*%
D21*
%TO.C,C4*%
X61367500Y-146431000D03*
X63092500Y-146431000D03*
%TD*%
D36*
%TO.C,J9*%
X143611600Y-156965000D03*
D20*
X143611600Y-159465000D03*
X143611600Y-161965000D03*
X143611600Y-164465000D03*
%TD*%
D37*
%TO.C,C2*%
X116763800Y-184770400D03*
D38*
X116763800Y-182270400D03*
%TD*%
D39*
%TO.C,J4*%
X86949000Y-117685000D03*
D40*
X90909000Y-117685000D03*
X94869000Y-117685000D03*
X98829000Y-117685000D03*
X102789000Y-117685000D03*
%TD*%
D23*
%TO.C,REF\u002A\u002A*%
X144957800Y-171043600D03*
%TD*%
D31*
%TO.C,R4*%
X58697500Y-168061000D03*
X56872500Y-168061000D03*
%TD*%
D24*
%TO.C,ToF2*%
X143637000Y-187325000D03*
X143637000Y-184785000D03*
X143637000Y-182245000D03*
X143637000Y-179705000D03*
X143637000Y-177165000D03*
%TD*%
D37*
%TO.C,U7*%
X73025000Y-120269000D03*
D38*
X73025000Y-122809000D03*
X73025000Y-125349000D03*
X73025000Y-127889000D03*
X73025000Y-130429000D03*
X73025000Y-132969000D03*
X73025000Y-135509000D03*
X73025000Y-138049000D03*
X73025000Y-140589000D03*
X73025000Y-143129000D03*
X80645000Y-143129000D03*
X80645000Y-140589000D03*
X80645000Y-138049000D03*
X80645000Y-135509000D03*
X80645000Y-132969000D03*
X80645000Y-130429000D03*
X80645000Y-127889000D03*
X80645000Y-125349000D03*
X80645000Y-122809000D03*
X80645000Y-120269000D03*
%TD*%
D41*
%TO.C,LDO1*%
X80518000Y-113512600D03*
D42*
X74218000Y-111232600D03*
D41*
X80518000Y-108952600D03*
%TD*%
D43*
%TO.C,U2*%
X137160000Y-182245000D03*
X137160000Y-179705000D03*
X137160000Y-177165000D03*
X137160000Y-174625000D03*
X137160000Y-149225000D03*
X121920000Y-179705000D03*
X137160000Y-172085000D03*
X137160000Y-169545000D03*
X137160000Y-167005000D03*
X137160000Y-164465000D03*
X137160000Y-161925000D03*
X137160000Y-159385000D03*
X137160000Y-156845000D03*
X137160000Y-154305000D03*
X137160000Y-151765000D03*
X121920000Y-151765000D03*
X121920000Y-154305000D03*
X121920000Y-156845000D03*
X121920000Y-159385000D03*
X121920000Y-161925000D03*
X121920000Y-164465000D03*
X121920000Y-167005000D03*
X121920000Y-169545000D03*
X121920000Y-172085000D03*
X121920000Y-174625000D03*
X121920000Y-177165000D03*
X137160000Y-146685000D03*
X137160000Y-144145000D03*
X137160000Y-141605000D03*
X137160000Y-139065000D03*
X137160000Y-136525000D03*
X137160000Y-133985000D03*
X137160000Y-131445000D03*
X137160000Y-128905000D03*
X137160000Y-126365000D03*
X121920000Y-126365000D03*
X121920000Y-128905000D03*
X121920000Y-131445000D03*
X121920000Y-133985000D03*
X121920000Y-136525000D03*
X121920000Y-139065000D03*
X121920000Y-141605000D03*
X121920000Y-144145000D03*
X121920000Y-146685000D03*
X137160000Y-184785000D03*
X121920000Y-149225000D03*
X121920000Y-182245000D03*
X121920000Y-184785000D03*
%TD*%
D21*
%TO.C,C5*%
X51588500Y-146431000D03*
X53313500Y-146431000D03*
%TD*%
D35*
%TO.C,SW2*%
X60960000Y-161660200D03*
D34*
X60960000Y-164160200D03*
%TD*%
D37*
%TO.C,C10*%
X67945000Y-104561000D03*
D38*
X67945000Y-107061000D03*
%TD*%
D44*
%TO.C,R7*%
X70739000Y-124436500D03*
X70739000Y-126261500D03*
%TD*%
D31*
%TO.C,R3*%
X52982500Y-168061000D03*
X51157500Y-168061000D03*
%TD*%
D37*
%TO.C,C9*%
X60960000Y-107021000D03*
D38*
X60960000Y-104521000D03*
%TD*%
D15*
%TO.C,Line1*%
X86868000Y-97155000D03*
D16*
X89408000Y-97155000D03*
X91948000Y-97155000D03*
X94488000Y-97155000D03*
X97028000Y-97155000D03*
X99568000Y-97155000D03*
X102108000Y-97155000D03*
X104648000Y-97155000D03*
X107188000Y-97155000D03*
X109728000Y-97155000D03*
X86868000Y-94615000D03*
X89408000Y-94615000D03*
X91948000Y-94615000D03*
X94488000Y-94615000D03*
X97028000Y-94615000D03*
X99568000Y-94615000D03*
X102108000Y-94615000D03*
X104648000Y-94615000D03*
X107188000Y-94615000D03*
X109728000Y-94615000D03*
%TD*%
%LPD*%
M02*
