%TF.GenerationSoftware,KiCad,Pcbnew,8.0.5*%
%TF.CreationDate,2024-09-28T03:45:08+09:00*%
%TF.ProjectId,_____,b5fcdcfa-7f2e-46b6-9963-61645f706362,rev?*%
%TF.SameCoordinates,Original*%
%TF.FileFunction,Copper,L2,Bot*%
%TF.FilePolarity,Positive*%
%FSLAX46Y46*%
G04 Gerber Fmt 4.6, Leading zero omitted, Abs format (unit mm)*
G04 Created by KiCad (PCBNEW 8.0.5) date 2024-09-28 03:45:08*
%MOMM*%
%LPD*%
G01*
G04 APERTURE LIST*
G04 Aperture macros list*
%AMRoundRect*
0 Rectangle with rounded corners*
0 $1 Rounding radius*
0 $2 $3 $4 $5 $6 $7 $8 $9 X,Y pos of 4 corners*
0 Add a 4 corners polygon primitive as box body*
4,1,4,$2,$3,$4,$5,$6,$7,$8,$9,$2,$3,0*
0 Add four circle primitives for the rounded corners*
1,1,$1+$1,$2,$3*
1,1,$1+$1,$4,$5*
1,1,$1+$1,$6,$7*
1,1,$1+$1,$8,$9*
0 Add four rect primitives between the rounded corners*
20,1,$1+$1,$2,$3,$4,$5,0*
20,1,$1+$1,$4,$5,$6,$7,0*
20,1,$1+$1,$6,$7,$8,$9,0*
20,1,$1+$1,$8,$9,$2,$3,0*%
G04 Aperture macros list end*
%TA.AperFunction,ComponentPad*%
%ADD10C,1.600000*%
%TD*%
%TA.AperFunction,ComponentPad*%
%ADD11C,1.524000*%
%TD*%
%TA.AperFunction,ComponentPad*%
%ADD12R,1.524000X1.524000*%
%TD*%
%TA.AperFunction,ComponentPad*%
%ADD13C,1.750000*%
%TD*%
%TA.AperFunction,ComponentPad*%
%ADD14C,5.600000*%
%TD*%
%TA.AperFunction,ComponentPad*%
%ADD15R,1.700000X1.700000*%
%TD*%
%TA.AperFunction,ComponentPad*%
%ADD16O,1.700000X1.700000*%
%TD*%
%TA.AperFunction,ComponentPad*%
%ADD17R,1.600000X1.600000*%
%TD*%
%TA.AperFunction,ComponentPad*%
%ADD18R,2.000000X1.905000*%
%TD*%
%TA.AperFunction,ComponentPad*%
%ADD19O,2.000000X1.905000*%
%TD*%
%TA.AperFunction,ComponentPad*%
%ADD20C,3.500000*%
%TD*%
%TA.AperFunction,ComponentPad*%
%ADD21R,3.500000X3.500000*%
%TD*%
%TA.AperFunction,ComponentPad*%
%ADD22C,1.400000*%
%TD*%
%TA.AperFunction,ComponentPad*%
%ADD23RoundRect,0.250000X-0.725000X0.600000X-0.725000X-0.600000X0.725000X-0.600000X0.725000X0.600000X0*%
%TD*%
%TA.AperFunction,ComponentPad*%
%ADD24O,1.950000X1.700000*%
%TD*%
%TA.AperFunction,ComponentPad*%
%ADD25RoundRect,0.250000X-0.600000X-0.750000X0.600000X-0.750000X0.600000X0.750000X-0.600000X0.750000X0*%
%TD*%
%TA.AperFunction,ComponentPad*%
%ADD26O,1.700000X2.000000*%
%TD*%
%TA.AperFunction,ComponentPad*%
%ADD27R,1.800000X1.800000*%
%TD*%
%TA.AperFunction,ComponentPad*%
%ADD28C,1.800000*%
%TD*%
%TA.AperFunction,ViaPad*%
%ADD29C,0.800000*%
%TD*%
%TA.AperFunction,Conductor*%
%ADD30C,0.300000*%
%TD*%
%TA.AperFunction,Conductor*%
%ADD31C,0.500000*%
%TD*%
G04 APERTURE END LIST*
D10*
%TO.P,C1,1*%
%TO.N,VDD*%
X77470000Y-90424000D03*
%TO.P,C1,2*%
%TO.N,GND*%
X77470000Y-87924000D03*
%TD*%
D11*
%TO.P,U1,1,PA02_A0_D0*%
%TO.N,Net-(U1-PA02_A0_D0)*%
X95250000Y-81280000D03*
%TO.P,U1,2,PA4_A1_D1*%
%TO.N,unconnected-(U1-PA4_A1_D1-Pad2)*%
X95250000Y-83820000D03*
%TO.P,U1,3,PA10_A2_D2*%
%TO.N,unconnected-(U1-PA10_A2_D2-Pad3)*%
X95250000Y-86360000D03*
%TO.P,U1,4,PA11_A3_D3*%
%TO.N,unconnected-(U1-PA11_A3_D3-Pad4)*%
X95250000Y-88900000D03*
%TO.P,U1,5,PA8_A4_D4_SDA*%
%TO.N,/RED LED*%
X95250000Y-91440000D03*
%TO.P,U1,6,PA9_A5_D5_SCL*%
%TO.N,/GREEN LED*%
X95250000Y-93980000D03*
%TO.P,U1,7,PB08_A6_D6_TX*%
%TO.N,unconnected-(U1-PB08_A6_D6_TX-Pad7)*%
X95250000Y-96520000D03*
%TO.P,U1,8,PB09_A7_D7_RX*%
%TO.N,unconnected-(U1-PB09_A7_D7_RX-Pad8)*%
X107950000Y-96520000D03*
%TO.P,U1,9,PA7_A8_D8_SCK*%
%TO.N,unconnected-(U1-PA7_A8_D8_SCK-Pad9)*%
X107950000Y-93980000D03*
%TO.P,U1,10,PA5_A9_D9_MISO*%
%TO.N,/DCDC RST1*%
X107950000Y-91440000D03*
%TO.P,U1,11,PA6_A10_D10_MOSI*%
%TO.N,/DCDC RST2*%
X107950000Y-88900000D03*
%TO.P,U1,12,3V3*%
%TO.N,unconnected-(U1-3V3-Pad12)*%
X107950000Y-86360000D03*
D12*
%TO.P,U1,13,GND*%
%TO.N,GND*%
X107950000Y-83820000D03*
D11*
%TO.P,U1,14,5V*%
%TO.N,+5V*%
X107950000Y-81280000D03*
%TD*%
D13*
%TO.P,ENC1,1,RED*%
%TO.N,Net-(ENC1-RED)*%
X76711400Y-67997200D03*
%TO.P,ENC1,2,GREEN*%
%TO.N,Net-(ENC1-GREEN)*%
X76711400Y-65997200D03*
%TO.P,ENC1,3,SW*%
%TO.N,Net-(ENC1-SW)*%
X76711400Y-63997200D03*
%TO.P,ENC1,4,BLUE*%
%TO.N,Net-(ENC1-BLUE)*%
X76711400Y-61997200D03*
%TO.P,ENC1,5,Anode*%
%TO.N,Net-(ENC1-Anode)*%
X76711400Y-59997200D03*
%TO.P,ENC1,6,A*%
%TO.N,Net-(ENC1-A)*%
X91211400Y-66497200D03*
%TO.P,ENC1,7,B*%
%TO.N,Net-(ENC1-B)*%
X91211400Y-63997200D03*
%TO.P,ENC1,8,C*%
%TO.N,Net-(ENC1-C)*%
X91211400Y-61497200D03*
%TD*%
D14*
%TO.P,REF\u002A\u002A,1*%
%TO.N,N/C*%
X101600000Y-79375000D03*
%TD*%
D15*
%TO.P,J7,1,Pin_1*%
%TO.N,Net-(ENC1-RED)*%
X72898000Y-69088000D03*
D16*
%TO.P,J7,2,Pin_2*%
%TO.N,Net-(ENC1-GREEN)*%
X72898000Y-66548000D03*
%TO.P,J7,3,Pin_3*%
%TO.N,Net-(ENC1-SW)*%
X72898000Y-64008000D03*
%TO.P,J7,4,Pin_4*%
%TO.N,Net-(ENC1-BLUE)*%
X72898000Y-61468000D03*
%TO.P,J7,5,Pin_5*%
%TO.N,Net-(ENC1-Anode)*%
X72898000Y-58928000D03*
%TD*%
D15*
%TO.P,J8,1,Pin_1*%
%TO.N,Net-(ENC1-A)*%
X95758000Y-66548000D03*
D16*
%TO.P,J8,2,Pin_2*%
%TO.N,Net-(ENC1-B)*%
X95758000Y-64008000D03*
%TO.P,J8,3,Pin_3*%
%TO.N,Net-(ENC1-C)*%
X95758000Y-61468000D03*
%TD*%
D14*
%TO.P,REF\u002A\u002A,1*%
%TO.N,N/C*%
X59690000Y-79375000D03*
%TD*%
D17*
%TO.P,C5,1*%
%TO.N,Net-(J4-Pin_2)*%
X46456600Y-78627600D03*
D10*
%TO.P,C5,2*%
%TO.N,GND*%
X46456600Y-81127600D03*
%TD*%
D18*
%TO.P,LDO1,1,Vin*%
%TO.N,VDD*%
X74930000Y-90424000D03*
D19*
%TO.P,LDO1,2,GND*%
%TO.N,GND*%
X74930000Y-87884000D03*
%TO.P,LDO1,3,Vout*%
%TO.N,+5V*%
X74930000Y-85344000D03*
%TD*%
D20*
%TO.P,J1,2,Pin_2*%
%TO.N,VDD*%
X39752000Y-85885000D03*
D21*
%TO.P,J1,1,Pin_1*%
%TO.N,GND*%
X44752000Y-85885000D03*
D22*
%TO.P,J1,*%
%TO.N,*%
X47752000Y-95885000D03*
X36752000Y-95885000D03*
%TD*%
D23*
%TO.P,J5,1,Pin_1*%
%TO.N,GND*%
X39801800Y-67974200D03*
D24*
%TO.P,J5,2,Pin_2*%
%TO.N,Net-(J4-Pin_2)*%
X39801800Y-70474200D03*
%TO.P,J5,3,Pin_3*%
%TO.N,/DATA*%
X39801800Y-72974200D03*
%TD*%
D17*
%TO.P,C2,1*%
%TO.N,+5V*%
X78994000Y-84804000D03*
D10*
%TO.P,C2,2*%
%TO.N,GND*%
X78994000Y-82804000D03*
%TD*%
D14*
%TO.P,REF\u002A\u002A,1*%
%TO.N,N/C*%
X84455000Y-79375000D03*
%TD*%
D17*
%TO.P,C4,1*%
%TO.N,Net-(J2-Pin_2)*%
X64770000Y-75144000D03*
D10*
%TO.P,C4,2*%
%TO.N,GND*%
X64770000Y-72644000D03*
%TD*%
D23*
%TO.P,J4,1,Pin_1*%
%TO.N,GND*%
X45651800Y-67974200D03*
D24*
%TO.P,J4,2,Pin_2*%
%TO.N,Net-(J4-Pin_2)*%
X45651800Y-70474200D03*
%TO.P,J4,3,Pin_3*%
%TO.N,/DATA*%
X45651800Y-72974200D03*
%TD*%
D23*
%TO.P,J2,1,Pin_1*%
%TO.N,GND*%
X57351800Y-67974200D03*
D24*
%TO.P,J2,2,Pin_2*%
%TO.N,Net-(J2-Pin_2)*%
X57351800Y-70474200D03*
%TO.P,J2,3,Pin_3*%
%TO.N,/DATA*%
X57351800Y-72974200D03*
%TD*%
D25*
%TO.P,J6,1,Pin_1*%
%TO.N,GND*%
X63774000Y-66023000D03*
D26*
%TO.P,J6,2,Pin_2*%
%TO.N,/DATA*%
X66274000Y-66023000D03*
%TD*%
D23*
%TO.P,J3,1,Pin_1*%
%TO.N,GND*%
X51501800Y-67974200D03*
D24*
%TO.P,J3,2,Pin_2*%
%TO.N,Net-(J2-Pin_2)*%
X51501800Y-70474200D03*
%TO.P,J3,3,Pin_3*%
%TO.N,/DATA*%
X51501800Y-72974200D03*
%TD*%
D27*
%TO.P,D1,1,K*%
%TO.N,GND*%
X37968000Y-80137000D03*
D28*
%TO.P,D1,2,A*%
%TO.N,Net-(D1-A)*%
X40508000Y-80137000D03*
%TD*%
D11*
%TO.P,LT2,1,Vin*%
%TO.N,VDD*%
X52070000Y-93980000D03*
%TO.P,LT2,2,Vin*%
X52070000Y-96520000D03*
%TO.P,LT2,3,Vin*%
X54610000Y-96520000D03*
%TO.P,LT2,4,EN/UV*%
%TO.N,/DCDC RST2*%
X57150000Y-96520000D03*
%TO.P,LT2,5,MODE*%
%TO.N,unconnected-(LT2-MODE-Pad5)*%
X59690000Y-96520000D03*
%TO.P,LT2,6,INTVCC*%
%TO.N,unconnected-(LT2-INTVCC-Pad6)*%
X62230000Y-96520000D03*
%TO.P,LT2,7,PG*%
%TO.N,unconnected-(LT2-PG-Pad7)*%
X64770000Y-96520000D03*
D12*
%TO.P,LT2,8,GND*%
%TO.N,GND*%
X67310000Y-96520000D03*
%TO.P,LT2,9,GND*%
X69850000Y-96520000D03*
%TO.P,LT2,10,GND*%
X69850000Y-93980000D03*
D11*
%TO.P,LT2,11,Vout*%
%TO.N,Net-(J4-Pin_2)*%
X52070000Y-81280000D03*
%TO.P,LT2,12,Vout*%
X52070000Y-78740000D03*
%TO.P,LT2,13,Vout*%
X54610000Y-78740000D03*
D12*
%TO.P,LT2,14,GND*%
%TO.N,GND*%
X67310000Y-78740000D03*
%TO.P,LT2,15,GND*%
X69850000Y-78740000D03*
%TO.P,LT2,16,GND*%
X69850000Y-81280000D03*
%TD*%
D11*
%TO.P,LT1,1,Vin*%
%TO.N,VDD*%
X73660000Y-93980000D03*
%TO.P,LT1,2,Vin*%
X73660000Y-96520000D03*
%TO.P,LT1,3,Vin*%
X76200000Y-96520000D03*
%TO.P,LT1,4,EN/UV*%
%TO.N,/DCDC RST1*%
X78740000Y-96520000D03*
%TO.P,LT1,5,MODE*%
%TO.N,unconnected-(LT1-MODE-Pad5)*%
X81280000Y-96520000D03*
%TO.P,LT1,6,INTVCC*%
%TO.N,unconnected-(LT1-INTVCC-Pad6)*%
X83820000Y-96520000D03*
%TO.P,LT1,7,PG*%
%TO.N,unconnected-(LT1-PG-Pad7)*%
X86360000Y-96520000D03*
D12*
%TO.P,LT1,8,GND*%
%TO.N,GND*%
X88900000Y-96520000D03*
%TO.P,LT1,9,GND*%
X91440000Y-96520000D03*
%TO.P,LT1,10,GND*%
X91440000Y-93980000D03*
D11*
%TO.P,LT1,11,Vout*%
%TO.N,Net-(J2-Pin_2)*%
X73660000Y-81280000D03*
%TO.P,LT1,12,Vout*%
X73660000Y-78740000D03*
%TO.P,LT1,13,Vout*%
X76200000Y-78740000D03*
D12*
%TO.P,LT1,14,GND*%
%TO.N,GND*%
X88900000Y-78740000D03*
%TO.P,LT1,15,GND*%
X91440000Y-78740000D03*
%TO.P,LT1,16,GND*%
X91440000Y-81280000D03*
%TD*%
D29*
%TO.N,GND*%
X47244000Y-89916000D03*
X54610000Y-82042000D03*
X67310000Y-87630000D03*
X88265000Y-86360000D03*
X55245000Y-87630000D03*
X36195000Y-88900000D03*
X62865000Y-84455000D03*
X96774000Y-79502000D03*
X36195000Y-97155000D03*
X84455000Y-86360000D03*
X98552000Y-81534000D03*
X45085000Y-97155000D03*
X67818000Y-71628000D03*
X101600000Y-93980000D03*
X93345000Y-83820000D03*
X103505000Y-88265000D03*
X49530000Y-97155000D03*
X92075000Y-86360000D03*
X106045000Y-85090000D03*
X80010000Y-97790000D03*
X49022000Y-63754000D03*
X97155000Y-97155000D03*
X46990000Y-84455000D03*
X78232000Y-94996000D03*
X55118000Y-68072000D03*
X45720000Y-75184000D03*
X89154000Y-83820000D03*
X107950000Y-77470000D03*
X57785000Y-84455000D03*
X62992000Y-64262000D03*
X48514000Y-71882000D03*
X89154000Y-91186000D03*
X71120000Y-87630000D03*
X62865000Y-87630000D03*
X103632000Y-82296000D03*
X100330000Y-91440000D03*
X100330000Y-88265000D03*
X60452000Y-67818000D03*
X77978000Y-76708000D03*
X106045000Y-93980000D03*
X60452000Y-64262000D03*
X36068000Y-77978000D03*
X87884000Y-94488000D03*
X96774000Y-81534000D03*
X58420000Y-97790000D03*
X56388000Y-76962000D03*
X86614000Y-76708000D03*
X101600000Y-97155000D03*
X52070000Y-90170000D03*
X97155000Y-91440000D03*
X92964000Y-76708000D03*
X51562000Y-75438000D03*
X52705000Y-84455000D03*
X93345000Y-88900000D03*
X40640000Y-92710000D03*
X67818000Y-75692000D03*
X42672000Y-72136000D03*
X62738000Y-81788000D03*
X40640000Y-97155000D03*
X62992000Y-71374000D03*
X82042000Y-76708000D03*
X39878000Y-75184000D03*
X89154000Y-76708000D03*
X43180000Y-64008000D03*
X67818000Y-64262000D03*
X92964000Y-79502000D03*
X36830000Y-68326000D03*
X105410000Y-80010000D03*
X77978000Y-81280000D03*
X36195000Y-92710000D03*
X82042000Y-83820000D03*
X85090000Y-97790000D03*
X82804000Y-94488000D03*
X36195000Y-82550000D03*
X96774000Y-76708000D03*
X93345000Y-93980000D03*
X44958000Y-65786000D03*
X93345000Y-97155000D03*
X84328000Y-91186000D03*
X67818000Y-67564000D03*
X43180000Y-68072000D03*
X89154000Y-81788000D03*
X76200000Y-82804000D03*
X56388000Y-65786000D03*
X80645000Y-86360000D03*
X105410000Y-77470000D03*
X39116000Y-65786000D03*
X63500000Y-97790000D03*
X106045000Y-88265000D03*
X49530000Y-87630000D03*
X57404000Y-74930000D03*
X103505000Y-85090000D03*
X103505000Y-91440000D03*
X80010000Y-93726000D03*
X37084000Y-64008000D03*
X80010000Y-91186000D03*
X50800000Y-65786000D03*
X106045000Y-97155000D03*
X40640000Y-82550000D03*
X99060000Y-83820000D03*
X107950000Y-79756000D03*
X97155000Y-93980000D03*
X49022000Y-67818000D03*
X54356000Y-72136000D03*
X86614000Y-83820000D03*
X54864000Y-64008000D03*
%TO.N,/DCDC RST2*%
X68776000Y-92652000D03*
%TO.N,Net-(U1-PA02_A0_D0)*%
X97616000Y-83820000D03*
%TO.N,Net-(D1-A)*%
X79425800Y-87655400D03*
X63703200Y-83261200D03*
%TD*%
D30*
%TO.N,/DATA*%
X59322800Y-72974200D02*
X57351800Y-72974200D01*
X66274000Y-66023000D02*
X59322800Y-72974200D01*
D31*
%TO.N,/DCDC RST2*%
X68776000Y-92652000D02*
X104198000Y-92652000D01*
X104198000Y-92652000D02*
X107950000Y-88900000D01*
D30*
%TO.N,Net-(U1-PA02_A0_D0)*%
X97616000Y-83820000D02*
X97616000Y-83646000D01*
X97616000Y-83646000D02*
X95250000Y-81280000D01*
D31*
%TO.N,Net-(D1-A)*%
X75082400Y-83261200D02*
X63703200Y-83261200D01*
X79425800Y-87604600D02*
X75082400Y-83261200D01*
X79425800Y-87655400D02*
X79425800Y-87604600D01*
%TD*%
%TA.AperFunction,Conductor*%
%TO.N,GND*%
G36*
X69539039Y-63011685D02*
G01*
X69584794Y-63064489D01*
X69596000Y-63116000D01*
X69596000Y-70996000D01*
X69576315Y-71063039D01*
X69523511Y-71108794D01*
X69472000Y-71120000D01*
X69342000Y-71120000D01*
X69342000Y-76200000D01*
X83779677Y-76200000D01*
X83846716Y-76219685D01*
X83892471Y-76272489D01*
X83902415Y-76341647D01*
X83873390Y-76405203D01*
X83814612Y-76442977D01*
X83808273Y-76444658D01*
X83592990Y-76495680D01*
X83592987Y-76495681D01*
X83264547Y-76615223D01*
X83264541Y-76615226D01*
X82952203Y-76772088D01*
X82660194Y-76964146D01*
X82660186Y-76964152D01*
X82392442Y-77188817D01*
X82392440Y-77188819D01*
X82152589Y-77443044D01*
X82152584Y-77443050D01*
X81943870Y-77723402D01*
X81769113Y-78026091D01*
X81769107Y-78026104D01*
X81630674Y-78347027D01*
X81530430Y-78681865D01*
X81530428Y-78681872D01*
X81469739Y-79026061D01*
X81469738Y-79026072D01*
X81449415Y-79374996D01*
X81449415Y-79375003D01*
X81469738Y-79723927D01*
X81469739Y-79723938D01*
X81530428Y-80068127D01*
X81530430Y-80068134D01*
X81630674Y-80402972D01*
X81769107Y-80723895D01*
X81769113Y-80723908D01*
X81943870Y-81026597D01*
X82152584Y-81306949D01*
X82152589Y-81306955D01*
X82276463Y-81438253D01*
X82392442Y-81561183D01*
X82498432Y-81650119D01*
X82660186Y-81785847D01*
X82660194Y-81785853D01*
X82952203Y-81977911D01*
X82952207Y-81977913D01*
X83264549Y-82134777D01*
X83592989Y-82254319D01*
X83933086Y-82334923D01*
X84280241Y-82375500D01*
X84280248Y-82375500D01*
X84629752Y-82375500D01*
X84629759Y-82375500D01*
X84976914Y-82334923D01*
X85317011Y-82254319D01*
X85645451Y-82134777D01*
X85957793Y-81977913D01*
X86249811Y-81785849D01*
X86517558Y-81561183D01*
X86757412Y-81306953D01*
X86777478Y-81280000D01*
X94282843Y-81280000D01*
X94301426Y-81468681D01*
X94319772Y-81529160D01*
X94356463Y-81650115D01*
X94356464Y-81650118D01*
X94356465Y-81650119D01*
X94356466Y-81650122D01*
X94445834Y-81817318D01*
X94445838Y-81817325D01*
X94566116Y-81963883D01*
X94712674Y-82084161D01*
X94712681Y-82084165D01*
X94879877Y-82173533D01*
X94879878Y-82173533D01*
X94879885Y-82173537D01*
X95061317Y-82228573D01*
X95061316Y-82228573D01*
X95078233Y-82230239D01*
X95250000Y-82247157D01*
X95438683Y-82228573D01*
X95570276Y-82188654D01*
X95640142Y-82188031D01*
X95693952Y-82219634D01*
X97003591Y-83529272D01*
X97037076Y-83590595D01*
X97032454Y-83655220D01*
X97033060Y-83655383D01*
X97032217Y-83658526D01*
X97032092Y-83660287D01*
X97031008Y-83663039D01*
X97030956Y-83663234D01*
X97010318Y-83819998D01*
X97010318Y-83820000D01*
X97030955Y-83976760D01*
X97030956Y-83976762D01*
X97091464Y-84122841D01*
X97187718Y-84248282D01*
X97313159Y-84344536D01*
X97459238Y-84405044D01*
X97537619Y-84415363D01*
X97615999Y-84425682D01*
X97616000Y-84425682D01*
X97616001Y-84425682D01*
X97668254Y-84418802D01*
X97772762Y-84405044D01*
X97918841Y-84344536D01*
X98044282Y-84248282D01*
X98140536Y-84122841D01*
X98201044Y-83976762D01*
X98221682Y-83820000D01*
X98221053Y-83815225D01*
X98201044Y-83663239D01*
X98201044Y-83663238D01*
X98140536Y-83517159D01*
X98044282Y-83391718D01*
X97918841Y-83295464D01*
X97772762Y-83234956D01*
X97731432Y-83229514D01*
X97667537Y-83201248D01*
X97659938Y-83194257D01*
X96189634Y-81723952D01*
X96156149Y-81662629D01*
X96158654Y-81600277D01*
X96198573Y-81468683D01*
X96217157Y-81280000D01*
X96198573Y-81091317D01*
X96143537Y-80909885D01*
X96054162Y-80742676D01*
X96054161Y-80742674D01*
X95933883Y-80596116D01*
X95787325Y-80475838D01*
X95787318Y-80475834D01*
X95620122Y-80386466D01*
X95620119Y-80386465D01*
X95620118Y-80386464D01*
X95620115Y-80386463D01*
X95438683Y-80331427D01*
X95438681Y-80331426D01*
X95438683Y-80331426D01*
X95250000Y-80312843D01*
X95061318Y-80331426D01*
X94954194Y-80363921D01*
X94879885Y-80386463D01*
X94879882Y-80386464D01*
X94879880Y-80386465D01*
X94879877Y-80386466D01*
X94712681Y-80475834D01*
X94712674Y-80475838D01*
X94566116Y-80596116D01*
X94445838Y-80742674D01*
X94445834Y-80742681D01*
X94356466Y-80909877D01*
X94356465Y-80909880D01*
X94301426Y-81091318D01*
X94282843Y-81280000D01*
X86777478Y-81280000D01*
X86966130Y-81026596D01*
X87140889Y-80723904D01*
X87279326Y-80402971D01*
X87379569Y-80068136D01*
X87403236Y-79933917D01*
X87440260Y-79723938D01*
X87440259Y-79723938D01*
X87440262Y-79723927D01*
X87460585Y-79375000D01*
X87440262Y-79026073D01*
X87423090Y-78928683D01*
X87379571Y-78681872D01*
X87379569Y-78681865D01*
X87340486Y-78551318D01*
X87279326Y-78347029D01*
X87140889Y-78026096D01*
X87014883Y-77807847D01*
X86966129Y-77723402D01*
X86757415Y-77443050D01*
X86757410Y-77443044D01*
X86641433Y-77320117D01*
X86517558Y-77188817D01*
X86369488Y-77064572D01*
X86249813Y-76964152D01*
X86249805Y-76964146D01*
X85957796Y-76772088D01*
X85645458Y-76615226D01*
X85645452Y-76615223D01*
X85317012Y-76495681D01*
X85317009Y-76495680D01*
X85101727Y-76444658D01*
X85041034Y-76410043D01*
X85008690Y-76348111D01*
X85014963Y-76278524D01*
X85057863Y-76223375D01*
X85123768Y-76200173D01*
X85130323Y-76200000D01*
X98936000Y-76200000D01*
X99003039Y-76219685D01*
X99048794Y-76272489D01*
X99060000Y-76324000D01*
X99060000Y-77740182D01*
X99043387Y-77802182D01*
X98914113Y-78026091D01*
X98914107Y-78026104D01*
X98775674Y-78347027D01*
X98675430Y-78681865D01*
X98675428Y-78681872D01*
X98614739Y-79026061D01*
X98614738Y-79026072D01*
X98594415Y-79374996D01*
X98594415Y-79375003D01*
X98614738Y-79723927D01*
X98614739Y-79723938D01*
X98675428Y-80068127D01*
X98675430Y-80068134D01*
X98775674Y-80402972D01*
X98914107Y-80723895D01*
X98914113Y-80723908D01*
X99088870Y-81026597D01*
X99297584Y-81306949D01*
X99297589Y-81306955D01*
X99421463Y-81438253D01*
X99537442Y-81561183D01*
X99643432Y-81650119D01*
X99805186Y-81785847D01*
X99805194Y-81785853D01*
X100097203Y-81977911D01*
X100097207Y-81977913D01*
X100409549Y-82134777D01*
X100737989Y-82254319D01*
X101078086Y-82334923D01*
X101425241Y-82375500D01*
X101425248Y-82375500D01*
X101774752Y-82375500D01*
X101774759Y-82375500D01*
X102121914Y-82334923D01*
X102462011Y-82254319D01*
X102790451Y-82134777D01*
X103102793Y-81977913D01*
X103394811Y-81785849D01*
X103662558Y-81561183D01*
X103902412Y-81306953D01*
X103922478Y-81280000D01*
X106982843Y-81280000D01*
X107001426Y-81468681D01*
X107019772Y-81529160D01*
X107056463Y-81650115D01*
X107056464Y-81650118D01*
X107056465Y-81650119D01*
X107056466Y-81650122D01*
X107145834Y-81817318D01*
X107145838Y-81817325D01*
X107266116Y-81963883D01*
X107412674Y-82084161D01*
X107412681Y-82084165D01*
X107579877Y-82173533D01*
X107579878Y-82173533D01*
X107579885Y-82173537D01*
X107761317Y-82228573D01*
X107761316Y-82228573D01*
X107778233Y-82230239D01*
X107950000Y-82247157D01*
X108138683Y-82228573D01*
X108320115Y-82173537D01*
X108487324Y-82084162D01*
X108633883Y-81963883D01*
X108754162Y-81817324D01*
X108843537Y-81650115D01*
X108898573Y-81468683D01*
X108917157Y-81280000D01*
X108898573Y-81091317D01*
X108843537Y-80909885D01*
X108754162Y-80742676D01*
X108754161Y-80742674D01*
X108633883Y-80596116D01*
X108487325Y-80475838D01*
X108487318Y-80475834D01*
X108320122Y-80386466D01*
X108320119Y-80386465D01*
X108320118Y-80386464D01*
X108320115Y-80386463D01*
X108138683Y-80331427D01*
X108138681Y-80331426D01*
X108138683Y-80331426D01*
X107950000Y-80312843D01*
X107761318Y-80331426D01*
X107654194Y-80363921D01*
X107579885Y-80386463D01*
X107579882Y-80386464D01*
X107579880Y-80386465D01*
X107579877Y-80386466D01*
X107412681Y-80475834D01*
X107412674Y-80475838D01*
X107266116Y-80596116D01*
X107145838Y-80742674D01*
X107145834Y-80742681D01*
X107056466Y-80909877D01*
X107056465Y-80909880D01*
X107001426Y-81091318D01*
X106982843Y-81280000D01*
X103922478Y-81280000D01*
X104111130Y-81026596D01*
X104285889Y-80723904D01*
X104424326Y-80402971D01*
X104524569Y-80068136D01*
X104548236Y-79933917D01*
X104585260Y-79723938D01*
X104585259Y-79723938D01*
X104585262Y-79723927D01*
X104605585Y-79375000D01*
X104585262Y-79026073D01*
X104568090Y-78928683D01*
X104524571Y-78681872D01*
X104524569Y-78681865D01*
X104485486Y-78551318D01*
X104424326Y-78347029D01*
X104285889Y-78026096D01*
X104182180Y-77846466D01*
X104156613Y-77802182D01*
X104140000Y-77740182D01*
X104140000Y-76324000D01*
X104159685Y-76256961D01*
X104212489Y-76211206D01*
X104264000Y-76200000D01*
X109350000Y-76200000D01*
X109417039Y-76219685D01*
X109462794Y-76272489D01*
X109474000Y-76324000D01*
X109474000Y-98174000D01*
X109454315Y-98241039D01*
X109401511Y-98286794D01*
X109350000Y-98298000D01*
X49530000Y-98298000D01*
X49530000Y-99444000D01*
X49510315Y-99511039D01*
X49457511Y-99556794D01*
X49406000Y-99568000D01*
X35176000Y-99568000D01*
X35108961Y-99548315D01*
X35063206Y-99495511D01*
X35052000Y-99444000D01*
X35052000Y-95885000D01*
X35846540Y-95885000D01*
X35866326Y-96073256D01*
X35866327Y-96073259D01*
X35924818Y-96253277D01*
X35924821Y-96253284D01*
X36019467Y-96417216D01*
X36146129Y-96557888D01*
X36299265Y-96669148D01*
X36299270Y-96669151D01*
X36472192Y-96746142D01*
X36472197Y-96746144D01*
X36657354Y-96785500D01*
X36657355Y-96785500D01*
X36846644Y-96785500D01*
X36846646Y-96785500D01*
X37031803Y-96746144D01*
X37204730Y-96669151D01*
X37357871Y-96557888D01*
X37484533Y-96417216D01*
X37579179Y-96253284D01*
X37637674Y-96073256D01*
X37657460Y-95885000D01*
X46846540Y-95885000D01*
X46866326Y-96073256D01*
X46866327Y-96073259D01*
X46924818Y-96253277D01*
X46924821Y-96253284D01*
X47019467Y-96417216D01*
X47146129Y-96557888D01*
X47299265Y-96669148D01*
X47299270Y-96669151D01*
X47472192Y-96746142D01*
X47472197Y-96746144D01*
X47657354Y-96785500D01*
X47657355Y-96785500D01*
X47846644Y-96785500D01*
X47846646Y-96785500D01*
X48031803Y-96746144D01*
X48204730Y-96669151D01*
X48357871Y-96557888D01*
X48391986Y-96520000D01*
X51102843Y-96520000D01*
X51121426Y-96708681D01*
X51139772Y-96769160D01*
X51176463Y-96890115D01*
X51176464Y-96890118D01*
X51176465Y-96890119D01*
X51176466Y-96890122D01*
X51265834Y-97057318D01*
X51265838Y-97057325D01*
X51386116Y-97203883D01*
X51532674Y-97324161D01*
X51532681Y-97324165D01*
X51699877Y-97413533D01*
X51699878Y-97413533D01*
X51699885Y-97413537D01*
X51881317Y-97468573D01*
X51881316Y-97468573D01*
X51898233Y-97470239D01*
X52070000Y-97487157D01*
X52258683Y-97468573D01*
X52440115Y-97413537D01*
X52607324Y-97324162D01*
X52753883Y-97203883D01*
X52874162Y-97057324D01*
X52963537Y-96890115D01*
X53018573Y-96708683D01*
X53037157Y-96520000D01*
X53642843Y-96520000D01*
X53661426Y-96708681D01*
X53679772Y-96769160D01*
X53716463Y-96890115D01*
X53716464Y-96890118D01*
X53716465Y-96890119D01*
X53716466Y-96890122D01*
X53805834Y-97057318D01*
X53805838Y-97057325D01*
X53926116Y-97203883D01*
X54072674Y-97324161D01*
X54072681Y-97324165D01*
X54239877Y-97413533D01*
X54239878Y-97413533D01*
X54239885Y-97413537D01*
X54421317Y-97468573D01*
X54421316Y-97468573D01*
X54438233Y-97470239D01*
X54610000Y-97487157D01*
X54798683Y-97468573D01*
X54980115Y-97413537D01*
X55147324Y-97324162D01*
X55293883Y-97203883D01*
X55414162Y-97057324D01*
X55503537Y-96890115D01*
X55558573Y-96708683D01*
X55577157Y-96520000D01*
X56182843Y-96520000D01*
X56201426Y-96708681D01*
X56219772Y-96769160D01*
X56256463Y-96890115D01*
X56256464Y-96890118D01*
X56256465Y-96890119D01*
X56256466Y-96890122D01*
X56345834Y-97057318D01*
X56345838Y-97057325D01*
X56466116Y-97203883D01*
X56612674Y-97324161D01*
X56612681Y-97324165D01*
X56779877Y-97413533D01*
X56779878Y-97413533D01*
X56779885Y-97413537D01*
X56961317Y-97468573D01*
X56961316Y-97468573D01*
X56978233Y-97470239D01*
X57150000Y-97487157D01*
X57338683Y-97468573D01*
X57520115Y-97413537D01*
X57687324Y-97324162D01*
X57833883Y-97203883D01*
X57954162Y-97057324D01*
X58043537Y-96890115D01*
X58098573Y-96708683D01*
X58117157Y-96520000D01*
X58722843Y-96520000D01*
X58741426Y-96708681D01*
X58759772Y-96769160D01*
X58796463Y-96890115D01*
X58796464Y-96890118D01*
X58796465Y-96890119D01*
X58796466Y-96890122D01*
X58885834Y-97057318D01*
X58885838Y-97057325D01*
X59006116Y-97203883D01*
X59152674Y-97324161D01*
X59152681Y-97324165D01*
X59319877Y-97413533D01*
X59319878Y-97413533D01*
X59319885Y-97413537D01*
X59501317Y-97468573D01*
X59501316Y-97468573D01*
X59518233Y-97470239D01*
X59690000Y-97487157D01*
X59878683Y-97468573D01*
X60060115Y-97413537D01*
X60227324Y-97324162D01*
X60373883Y-97203883D01*
X60494162Y-97057324D01*
X60583537Y-96890115D01*
X60638573Y-96708683D01*
X60657157Y-96520000D01*
X61262843Y-96520000D01*
X61281426Y-96708681D01*
X61299772Y-96769160D01*
X61336463Y-96890115D01*
X61336464Y-96890118D01*
X61336465Y-96890119D01*
X61336466Y-96890122D01*
X61425834Y-97057318D01*
X61425838Y-97057325D01*
X61546116Y-97203883D01*
X61692674Y-97324161D01*
X61692681Y-97324165D01*
X61859877Y-97413533D01*
X61859878Y-97413533D01*
X61859885Y-97413537D01*
X62041317Y-97468573D01*
X62041316Y-97468573D01*
X62058233Y-97470239D01*
X62230000Y-97487157D01*
X62418683Y-97468573D01*
X62600115Y-97413537D01*
X62767324Y-97324162D01*
X62913883Y-97203883D01*
X63034162Y-97057324D01*
X63123537Y-96890115D01*
X63178573Y-96708683D01*
X63197157Y-96520000D01*
X63802843Y-96520000D01*
X63821426Y-96708681D01*
X63839772Y-96769160D01*
X63876463Y-96890115D01*
X63876464Y-96890118D01*
X63876465Y-96890119D01*
X63876466Y-96890122D01*
X63965834Y-97057318D01*
X63965838Y-97057325D01*
X64086116Y-97203883D01*
X64232674Y-97324161D01*
X64232681Y-97324165D01*
X64399877Y-97413533D01*
X64399878Y-97413533D01*
X64399885Y-97413537D01*
X64581317Y-97468573D01*
X64581316Y-97468573D01*
X64598233Y-97470239D01*
X64770000Y-97487157D01*
X64958683Y-97468573D01*
X65140115Y-97413537D01*
X65307324Y-97324162D01*
X65453883Y-97203883D01*
X65574162Y-97057324D01*
X65663537Y-96890115D01*
X65718573Y-96708683D01*
X65737157Y-96520000D01*
X72692843Y-96520000D01*
X72711426Y-96708681D01*
X72729772Y-96769160D01*
X72766463Y-96890115D01*
X72766464Y-96890118D01*
X72766465Y-96890119D01*
X72766466Y-96890122D01*
X72855834Y-97057318D01*
X72855838Y-97057325D01*
X72976116Y-97203883D01*
X73122674Y-97324161D01*
X73122681Y-97324165D01*
X73289877Y-97413533D01*
X73289878Y-97413533D01*
X73289885Y-97413537D01*
X73471317Y-97468573D01*
X73471316Y-97468573D01*
X73488233Y-97470239D01*
X73660000Y-97487157D01*
X73848683Y-97468573D01*
X74030115Y-97413537D01*
X74197324Y-97324162D01*
X74343883Y-97203883D01*
X74464162Y-97057324D01*
X74553537Y-96890115D01*
X74608573Y-96708683D01*
X74627157Y-96520000D01*
X75232843Y-96520000D01*
X75251426Y-96708681D01*
X75269772Y-96769160D01*
X75306463Y-96890115D01*
X75306464Y-96890118D01*
X75306465Y-96890119D01*
X75306466Y-96890122D01*
X75395834Y-97057318D01*
X75395838Y-97057325D01*
X75516116Y-97203883D01*
X75662674Y-97324161D01*
X75662681Y-97324165D01*
X75829877Y-97413533D01*
X75829878Y-97413533D01*
X75829885Y-97413537D01*
X76011317Y-97468573D01*
X76011316Y-97468573D01*
X76028233Y-97470239D01*
X76200000Y-97487157D01*
X76388683Y-97468573D01*
X76570115Y-97413537D01*
X76737324Y-97324162D01*
X76883883Y-97203883D01*
X77004162Y-97057324D01*
X77093537Y-96890115D01*
X77148573Y-96708683D01*
X77167157Y-96520000D01*
X77772843Y-96520000D01*
X77791426Y-96708681D01*
X77809772Y-96769160D01*
X77846463Y-96890115D01*
X77846464Y-96890118D01*
X77846465Y-96890119D01*
X77846466Y-96890122D01*
X77935834Y-97057318D01*
X77935838Y-97057325D01*
X78056116Y-97203883D01*
X78202674Y-97324161D01*
X78202681Y-97324165D01*
X78369877Y-97413533D01*
X78369878Y-97413533D01*
X78369885Y-97413537D01*
X78551317Y-97468573D01*
X78551316Y-97468573D01*
X78568233Y-97470239D01*
X78740000Y-97487157D01*
X78928683Y-97468573D01*
X79110115Y-97413537D01*
X79277324Y-97324162D01*
X79423883Y-97203883D01*
X79544162Y-97057324D01*
X79633537Y-96890115D01*
X79688573Y-96708683D01*
X79707157Y-96520000D01*
X80312843Y-96520000D01*
X80331426Y-96708681D01*
X80349772Y-96769160D01*
X80386463Y-96890115D01*
X80386464Y-96890118D01*
X80386465Y-96890119D01*
X80386466Y-96890122D01*
X80475834Y-97057318D01*
X80475838Y-97057325D01*
X80596116Y-97203883D01*
X80742674Y-97324161D01*
X80742681Y-97324165D01*
X80909877Y-97413533D01*
X80909878Y-97413533D01*
X80909885Y-97413537D01*
X81091317Y-97468573D01*
X81091316Y-97468573D01*
X81108233Y-97470239D01*
X81280000Y-97487157D01*
X81468683Y-97468573D01*
X81650115Y-97413537D01*
X81817324Y-97324162D01*
X81963883Y-97203883D01*
X82084162Y-97057324D01*
X82173537Y-96890115D01*
X82228573Y-96708683D01*
X82247157Y-96520000D01*
X82852843Y-96520000D01*
X82871426Y-96708681D01*
X82889772Y-96769160D01*
X82926463Y-96890115D01*
X82926464Y-96890118D01*
X82926465Y-96890119D01*
X82926466Y-96890122D01*
X83015834Y-97057318D01*
X83015838Y-97057325D01*
X83136116Y-97203883D01*
X83282674Y-97324161D01*
X83282681Y-97324165D01*
X83449877Y-97413533D01*
X83449878Y-97413533D01*
X83449885Y-97413537D01*
X83631317Y-97468573D01*
X83631316Y-97468573D01*
X83648233Y-97470239D01*
X83820000Y-97487157D01*
X84008683Y-97468573D01*
X84190115Y-97413537D01*
X84357324Y-97324162D01*
X84503883Y-97203883D01*
X84624162Y-97057324D01*
X84713537Y-96890115D01*
X84768573Y-96708683D01*
X84787157Y-96520000D01*
X85392843Y-96520000D01*
X85411426Y-96708681D01*
X85429772Y-96769160D01*
X85466463Y-96890115D01*
X85466464Y-96890118D01*
X85466465Y-96890119D01*
X85466466Y-96890122D01*
X85555834Y-97057318D01*
X85555838Y-97057325D01*
X85676116Y-97203883D01*
X85822674Y-97324161D01*
X85822681Y-97324165D01*
X85989877Y-97413533D01*
X85989878Y-97413533D01*
X85989885Y-97413537D01*
X86171317Y-97468573D01*
X86171316Y-97468573D01*
X86188233Y-97470239D01*
X86360000Y-97487157D01*
X86548683Y-97468573D01*
X86730115Y-97413537D01*
X86897324Y-97324162D01*
X87043883Y-97203883D01*
X87164162Y-97057324D01*
X87253537Y-96890115D01*
X87308573Y-96708683D01*
X87327157Y-96520000D01*
X94282843Y-96520000D01*
X94301426Y-96708681D01*
X94319772Y-96769160D01*
X94356463Y-96890115D01*
X94356464Y-96890118D01*
X94356465Y-96890119D01*
X94356466Y-96890122D01*
X94445834Y-97057318D01*
X94445838Y-97057325D01*
X94566116Y-97203883D01*
X94712674Y-97324161D01*
X94712681Y-97324165D01*
X94879877Y-97413533D01*
X94879878Y-97413533D01*
X94879885Y-97413537D01*
X95061317Y-97468573D01*
X95061316Y-97468573D01*
X95078233Y-97470239D01*
X95250000Y-97487157D01*
X95438683Y-97468573D01*
X95620115Y-97413537D01*
X95787324Y-97324162D01*
X95933883Y-97203883D01*
X96054162Y-97057324D01*
X96143537Y-96890115D01*
X96198573Y-96708683D01*
X96217157Y-96520000D01*
X106982843Y-96520000D01*
X107001426Y-96708681D01*
X107019772Y-96769160D01*
X107056463Y-96890115D01*
X107056464Y-96890118D01*
X107056465Y-96890119D01*
X107056466Y-96890122D01*
X107145834Y-97057318D01*
X107145838Y-97057325D01*
X107266116Y-97203883D01*
X107412674Y-97324161D01*
X107412681Y-97324165D01*
X107579877Y-97413533D01*
X107579878Y-97413533D01*
X107579885Y-97413537D01*
X107761317Y-97468573D01*
X107761316Y-97468573D01*
X107778233Y-97470239D01*
X107950000Y-97487157D01*
X108138683Y-97468573D01*
X108320115Y-97413537D01*
X108487324Y-97324162D01*
X108633883Y-97203883D01*
X108754162Y-97057324D01*
X108843537Y-96890115D01*
X108898573Y-96708683D01*
X108917157Y-96520000D01*
X108898573Y-96331317D01*
X108843537Y-96149885D01*
X108754162Y-95982676D01*
X108754161Y-95982674D01*
X108633883Y-95836116D01*
X108487325Y-95715838D01*
X108487318Y-95715834D01*
X108320122Y-95626466D01*
X108320119Y-95626465D01*
X108320118Y-95626464D01*
X108320115Y-95626463D01*
X108138683Y-95571427D01*
X108138681Y-95571426D01*
X108138683Y-95571426D01*
X107950000Y-95552843D01*
X107761318Y-95571426D01*
X107654194Y-95603921D01*
X107579885Y-95626463D01*
X107579882Y-95626464D01*
X107579880Y-95626465D01*
X107579877Y-95626466D01*
X107412681Y-95715834D01*
X107412674Y-95715838D01*
X107266116Y-95836116D01*
X107145838Y-95982674D01*
X107145834Y-95982681D01*
X107056466Y-96149877D01*
X107056465Y-96149880D01*
X107001426Y-96331318D01*
X106982843Y-96520000D01*
X96217157Y-96520000D01*
X96198573Y-96331317D01*
X96143537Y-96149885D01*
X96054162Y-95982676D01*
X96054161Y-95982674D01*
X95933883Y-95836116D01*
X95787325Y-95715838D01*
X95787318Y-95715834D01*
X95620122Y-95626466D01*
X95620119Y-95626465D01*
X95620118Y-95626464D01*
X95620115Y-95626463D01*
X95438683Y-95571427D01*
X95438681Y-95571426D01*
X95438683Y-95571426D01*
X95250000Y-95552843D01*
X95061318Y-95571426D01*
X94954194Y-95603921D01*
X94879885Y-95626463D01*
X94879882Y-95626464D01*
X94879880Y-95626465D01*
X94879877Y-95626466D01*
X94712681Y-95715834D01*
X94712674Y-95715838D01*
X94566116Y-95836116D01*
X94445838Y-95982674D01*
X94445834Y-95982681D01*
X94356466Y-96149877D01*
X94356465Y-96149880D01*
X94301426Y-96331318D01*
X94282843Y-96520000D01*
X87327157Y-96520000D01*
X87308573Y-96331317D01*
X87253537Y-96149885D01*
X87164162Y-95982676D01*
X87164161Y-95982674D01*
X87043883Y-95836116D01*
X86897325Y-95715838D01*
X86897318Y-95715834D01*
X86730122Y-95626466D01*
X86730119Y-95626465D01*
X86730118Y-95626464D01*
X86730115Y-95626463D01*
X86548683Y-95571427D01*
X86548681Y-95571426D01*
X86548683Y-95571426D01*
X86360000Y-95552843D01*
X86171318Y-95571426D01*
X86064194Y-95603921D01*
X85989885Y-95626463D01*
X85989882Y-95626464D01*
X85989880Y-95626465D01*
X85989877Y-95626466D01*
X85822681Y-95715834D01*
X85822674Y-95715838D01*
X85676116Y-95836116D01*
X85555838Y-95982674D01*
X85555834Y-95982681D01*
X85466466Y-96149877D01*
X85466465Y-96149880D01*
X85411426Y-96331318D01*
X85392843Y-96520000D01*
X84787157Y-96520000D01*
X84768573Y-96331317D01*
X84713537Y-96149885D01*
X84624162Y-95982676D01*
X84624161Y-95982674D01*
X84503883Y-95836116D01*
X84357325Y-95715838D01*
X84357318Y-95715834D01*
X84190122Y-95626466D01*
X84190119Y-95626465D01*
X84190118Y-95626464D01*
X84190115Y-95626463D01*
X84008683Y-95571427D01*
X84008681Y-95571426D01*
X84008683Y-95571426D01*
X83820000Y-95552843D01*
X83631318Y-95571426D01*
X83524194Y-95603921D01*
X83449885Y-95626463D01*
X83449882Y-95626464D01*
X83449880Y-95626465D01*
X83449877Y-95626466D01*
X83282681Y-95715834D01*
X83282674Y-95715838D01*
X83136116Y-95836116D01*
X83015838Y-95982674D01*
X83015834Y-95982681D01*
X82926466Y-96149877D01*
X82926465Y-96149880D01*
X82871426Y-96331318D01*
X82852843Y-96520000D01*
X82247157Y-96520000D01*
X82228573Y-96331317D01*
X82173537Y-96149885D01*
X82084162Y-95982676D01*
X82084161Y-95982674D01*
X81963883Y-95836116D01*
X81817325Y-95715838D01*
X81817318Y-95715834D01*
X81650122Y-95626466D01*
X81650119Y-95626465D01*
X81650118Y-95626464D01*
X81650115Y-95626463D01*
X81468683Y-95571427D01*
X81468681Y-95571426D01*
X81468683Y-95571426D01*
X81280000Y-95552843D01*
X81091318Y-95571426D01*
X80984194Y-95603921D01*
X80909885Y-95626463D01*
X80909882Y-95626464D01*
X80909880Y-95626465D01*
X80909877Y-95626466D01*
X80742681Y-95715834D01*
X80742674Y-95715838D01*
X80596116Y-95836116D01*
X80475838Y-95982674D01*
X80475834Y-95982681D01*
X80386466Y-96149877D01*
X80386465Y-96149880D01*
X80331426Y-96331318D01*
X80312843Y-96520000D01*
X79707157Y-96520000D01*
X79688573Y-96331317D01*
X79633537Y-96149885D01*
X79544162Y-95982676D01*
X79544161Y-95982674D01*
X79423883Y-95836116D01*
X79277325Y-95715838D01*
X79277318Y-95715834D01*
X79110122Y-95626466D01*
X79110119Y-95626465D01*
X79110118Y-95626464D01*
X79110115Y-95626463D01*
X78928683Y-95571427D01*
X78928681Y-95571426D01*
X78928683Y-95571426D01*
X78740000Y-95552843D01*
X78551318Y-95571426D01*
X78444194Y-95603921D01*
X78369885Y-95626463D01*
X78369882Y-95626464D01*
X78369880Y-95626465D01*
X78369877Y-95626466D01*
X78202681Y-95715834D01*
X78202674Y-95715838D01*
X78056116Y-95836116D01*
X77935838Y-95982674D01*
X77935834Y-95982681D01*
X77846466Y-96149877D01*
X77846465Y-96149880D01*
X77791426Y-96331318D01*
X77772843Y-96520000D01*
X77167157Y-96520000D01*
X77148573Y-96331317D01*
X77093537Y-96149885D01*
X77004162Y-95982676D01*
X77004161Y-95982674D01*
X76883883Y-95836116D01*
X76737325Y-95715838D01*
X76737318Y-95715834D01*
X76570122Y-95626466D01*
X76570119Y-95626465D01*
X76570118Y-95626464D01*
X76570115Y-95626463D01*
X76388683Y-95571427D01*
X76388681Y-95571426D01*
X76388683Y-95571426D01*
X76200000Y-95552843D01*
X76011318Y-95571426D01*
X75904194Y-95603921D01*
X75829885Y-95626463D01*
X75829882Y-95626464D01*
X75829880Y-95626465D01*
X75829877Y-95626466D01*
X75662681Y-95715834D01*
X75662674Y-95715838D01*
X75516116Y-95836116D01*
X75395838Y-95982674D01*
X75395834Y-95982681D01*
X75306466Y-96149877D01*
X75306465Y-96149880D01*
X75251426Y-96331318D01*
X75232843Y-96520000D01*
X74627157Y-96520000D01*
X74608573Y-96331317D01*
X74553537Y-96149885D01*
X74464162Y-95982676D01*
X74464161Y-95982674D01*
X74343883Y-95836116D01*
X74197325Y-95715838D01*
X74197318Y-95715834D01*
X74030122Y-95626466D01*
X74030119Y-95626465D01*
X74030118Y-95626464D01*
X74030115Y-95626463D01*
X73848683Y-95571427D01*
X73848681Y-95571426D01*
X73848683Y-95571426D01*
X73660000Y-95552843D01*
X73471318Y-95571426D01*
X73364194Y-95603921D01*
X73289885Y-95626463D01*
X73289882Y-95626464D01*
X73289880Y-95626465D01*
X73289877Y-95626466D01*
X73122681Y-95715834D01*
X73122674Y-95715838D01*
X72976116Y-95836116D01*
X72855838Y-95982674D01*
X72855834Y-95982681D01*
X72766466Y-96149877D01*
X72766465Y-96149880D01*
X72711426Y-96331318D01*
X72692843Y-96520000D01*
X65737157Y-96520000D01*
X65718573Y-96331317D01*
X65663537Y-96149885D01*
X65574162Y-95982676D01*
X65574161Y-95982674D01*
X65453883Y-95836116D01*
X65307325Y-95715838D01*
X65307318Y-95715834D01*
X65140122Y-95626466D01*
X65140119Y-95626465D01*
X65140118Y-95626464D01*
X65140115Y-95626463D01*
X64958683Y-95571427D01*
X64958681Y-95571426D01*
X64958683Y-95571426D01*
X64770000Y-95552843D01*
X64581318Y-95571426D01*
X64474194Y-95603921D01*
X64399885Y-95626463D01*
X64399882Y-95626464D01*
X64399880Y-95626465D01*
X64399877Y-95626466D01*
X64232681Y-95715834D01*
X64232674Y-95715838D01*
X64086116Y-95836116D01*
X63965838Y-95982674D01*
X63965834Y-95982681D01*
X63876466Y-96149877D01*
X63876465Y-96149880D01*
X63821426Y-96331318D01*
X63802843Y-96520000D01*
X63197157Y-96520000D01*
X63178573Y-96331317D01*
X63123537Y-96149885D01*
X63034162Y-95982676D01*
X63034161Y-95982674D01*
X62913883Y-95836116D01*
X62767325Y-95715838D01*
X62767318Y-95715834D01*
X62600122Y-95626466D01*
X62600119Y-95626465D01*
X62600118Y-95626464D01*
X62600115Y-95626463D01*
X62418683Y-95571427D01*
X62418681Y-95571426D01*
X62418683Y-95571426D01*
X62230000Y-95552843D01*
X62041318Y-95571426D01*
X61934194Y-95603921D01*
X61859885Y-95626463D01*
X61859882Y-95626464D01*
X61859880Y-95626465D01*
X61859877Y-95626466D01*
X61692681Y-95715834D01*
X61692674Y-95715838D01*
X61546116Y-95836116D01*
X61425838Y-95982674D01*
X61425834Y-95982681D01*
X61336466Y-96149877D01*
X61336465Y-96149880D01*
X61281426Y-96331318D01*
X61262843Y-96520000D01*
X60657157Y-96520000D01*
X60638573Y-96331317D01*
X60583537Y-96149885D01*
X60494162Y-95982676D01*
X60494161Y-95982674D01*
X60373883Y-95836116D01*
X60227325Y-95715838D01*
X60227318Y-95715834D01*
X60060122Y-95626466D01*
X60060119Y-95626465D01*
X60060118Y-95626464D01*
X60060115Y-95626463D01*
X59878683Y-95571427D01*
X59878681Y-95571426D01*
X59878683Y-95571426D01*
X59690000Y-95552843D01*
X59501318Y-95571426D01*
X59394194Y-95603921D01*
X59319885Y-95626463D01*
X59319882Y-95626464D01*
X59319880Y-95626465D01*
X59319877Y-95626466D01*
X59152681Y-95715834D01*
X59152674Y-95715838D01*
X59006116Y-95836116D01*
X58885838Y-95982674D01*
X58885834Y-95982681D01*
X58796466Y-96149877D01*
X58796465Y-96149880D01*
X58741426Y-96331318D01*
X58722843Y-96520000D01*
X58117157Y-96520000D01*
X58098573Y-96331317D01*
X58043537Y-96149885D01*
X57954162Y-95982676D01*
X57954161Y-95982674D01*
X57833883Y-95836116D01*
X57687325Y-95715838D01*
X57687318Y-95715834D01*
X57520122Y-95626466D01*
X57520119Y-95626465D01*
X57520118Y-95626464D01*
X57520115Y-95626463D01*
X57338683Y-95571427D01*
X57338681Y-95571426D01*
X57338683Y-95571426D01*
X57150000Y-95552843D01*
X56961318Y-95571426D01*
X56854194Y-95603921D01*
X56779885Y-95626463D01*
X56779882Y-95626464D01*
X56779880Y-95626465D01*
X56779877Y-95626466D01*
X56612681Y-95715834D01*
X56612674Y-95715838D01*
X56466116Y-95836116D01*
X56345838Y-95982674D01*
X56345834Y-95982681D01*
X56256466Y-96149877D01*
X56256465Y-96149880D01*
X56201426Y-96331318D01*
X56182843Y-96520000D01*
X55577157Y-96520000D01*
X55558573Y-96331317D01*
X55503537Y-96149885D01*
X55414162Y-95982676D01*
X55414161Y-95982674D01*
X55293883Y-95836116D01*
X55147325Y-95715838D01*
X55147318Y-95715834D01*
X54980122Y-95626466D01*
X54980119Y-95626465D01*
X54980118Y-95626464D01*
X54980115Y-95626463D01*
X54798683Y-95571427D01*
X54798681Y-95571426D01*
X54798683Y-95571426D01*
X54610000Y-95552843D01*
X54421318Y-95571426D01*
X54314194Y-95603921D01*
X54239885Y-95626463D01*
X54239882Y-95626464D01*
X54239880Y-95626465D01*
X54239877Y-95626466D01*
X54072681Y-95715834D01*
X54072674Y-95715838D01*
X53926116Y-95836116D01*
X53805838Y-95982674D01*
X53805834Y-95982681D01*
X53716466Y-96149877D01*
X53716465Y-96149880D01*
X53661426Y-96331318D01*
X53642843Y-96520000D01*
X53037157Y-96520000D01*
X53018573Y-96331317D01*
X52963537Y-96149885D01*
X52874162Y-95982676D01*
X52874161Y-95982674D01*
X52753883Y-95836116D01*
X52607325Y-95715838D01*
X52607318Y-95715834D01*
X52440122Y-95626466D01*
X52440119Y-95626465D01*
X52440118Y-95626464D01*
X52440115Y-95626463D01*
X52258683Y-95571427D01*
X52258681Y-95571426D01*
X52258683Y-95571426D01*
X52070000Y-95552843D01*
X51881318Y-95571426D01*
X51774194Y-95603921D01*
X51699885Y-95626463D01*
X51699882Y-95626464D01*
X51699880Y-95626465D01*
X51699877Y-95626466D01*
X51532681Y-95715834D01*
X51532674Y-95715838D01*
X51386116Y-95836116D01*
X51265838Y-95982674D01*
X51265834Y-95982681D01*
X51176466Y-96149877D01*
X51176465Y-96149880D01*
X51121426Y-96331318D01*
X51102843Y-96520000D01*
X48391986Y-96520000D01*
X48484533Y-96417216D01*
X48579179Y-96253284D01*
X48637674Y-96073256D01*
X48657460Y-95885000D01*
X48637674Y-95696744D01*
X48579179Y-95516716D01*
X48484533Y-95352784D01*
X48357871Y-95212112D01*
X48357870Y-95212111D01*
X48204734Y-95100851D01*
X48204729Y-95100848D01*
X48031807Y-95023857D01*
X48031802Y-95023855D01*
X47886001Y-94992865D01*
X47846646Y-94984500D01*
X47657354Y-94984500D01*
X47624897Y-94991398D01*
X47472197Y-95023855D01*
X47472192Y-95023857D01*
X47299270Y-95100848D01*
X47299265Y-95100851D01*
X47146129Y-95212111D01*
X47019466Y-95352785D01*
X46924821Y-95516715D01*
X46924818Y-95516722D01*
X46866327Y-95696740D01*
X46866326Y-95696744D01*
X46846540Y-95885000D01*
X37657460Y-95885000D01*
X37637674Y-95696744D01*
X37579179Y-95516716D01*
X37484533Y-95352784D01*
X37357871Y-95212112D01*
X37357870Y-95212111D01*
X37204734Y-95100851D01*
X37204729Y-95100848D01*
X37031807Y-95023857D01*
X37031802Y-95023855D01*
X36886001Y-94992865D01*
X36846646Y-94984500D01*
X36657354Y-94984500D01*
X36624897Y-94991398D01*
X36472197Y-95023855D01*
X36472192Y-95023857D01*
X36299270Y-95100848D01*
X36299265Y-95100851D01*
X36146129Y-95212111D01*
X36019466Y-95352785D01*
X35924821Y-95516715D01*
X35924818Y-95516722D01*
X35866327Y-95696740D01*
X35866326Y-95696744D01*
X35846540Y-95885000D01*
X35052000Y-95885000D01*
X35052000Y-93980000D01*
X51102843Y-93980000D01*
X51121426Y-94168681D01*
X51121427Y-94168683D01*
X51176463Y-94350115D01*
X51176464Y-94350118D01*
X51176465Y-94350119D01*
X51176466Y-94350122D01*
X51265834Y-94517318D01*
X51265838Y-94517325D01*
X51386116Y-94663883D01*
X51532674Y-94784161D01*
X51532681Y-94784165D01*
X51699877Y-94873533D01*
X51699878Y-94873533D01*
X51699885Y-94873537D01*
X51881317Y-94928573D01*
X51881316Y-94928573D01*
X51898233Y-94930239D01*
X52070000Y-94947157D01*
X52258683Y-94928573D01*
X52440115Y-94873537D01*
X52607324Y-94784162D01*
X52753883Y-94663883D01*
X52874162Y-94517324D01*
X52963537Y-94350115D01*
X53018573Y-94168683D01*
X53037157Y-93980000D01*
X53018573Y-93791317D01*
X52963537Y-93609885D01*
X52874162Y-93442676D01*
X52874161Y-93442674D01*
X52753883Y-93296116D01*
X52607325Y-93175838D01*
X52607318Y-93175834D01*
X52440122Y-93086466D01*
X52440119Y-93086465D01*
X52440118Y-93086464D01*
X52440115Y-93086463D01*
X52258683Y-93031427D01*
X52258681Y-93031426D01*
X52258683Y-93031426D01*
X52070000Y-93012843D01*
X51881318Y-93031426D01*
X51774194Y-93063921D01*
X51699885Y-93086463D01*
X51699882Y-93086464D01*
X51699880Y-93086465D01*
X51699877Y-93086466D01*
X51532681Y-93175834D01*
X51532674Y-93175838D01*
X51386116Y-93296116D01*
X51265838Y-93442674D01*
X51265834Y-93442681D01*
X51176466Y-93609877D01*
X51176465Y-93609880D01*
X51121426Y-93791318D01*
X51102843Y-93980000D01*
X35052000Y-93980000D01*
X35052000Y-92651998D01*
X68170318Y-92651998D01*
X68170318Y-92652001D01*
X68190955Y-92808760D01*
X68190956Y-92808762D01*
X68251464Y-92954841D01*
X68347718Y-93080282D01*
X68473159Y-93176536D01*
X68619238Y-93237044D01*
X68648186Y-93240855D01*
X68775999Y-93257682D01*
X68776000Y-93257682D01*
X68776001Y-93257682D01*
X68828254Y-93250802D01*
X68932762Y-93237044D01*
X69078841Y-93176536D01*
X69141933Y-93128123D01*
X69207102Y-93102930D01*
X69217419Y-93102500D01*
X72872838Y-93102500D01*
X72939877Y-93122185D01*
X72985632Y-93174989D01*
X72995576Y-93244147D01*
X72968691Y-93305165D01*
X72855838Y-93442674D01*
X72855834Y-93442681D01*
X72766466Y-93609877D01*
X72766465Y-93609880D01*
X72711426Y-93791318D01*
X72692843Y-93980000D01*
X72711426Y-94168681D01*
X72711427Y-94168683D01*
X72766463Y-94350115D01*
X72766464Y-94350118D01*
X72766465Y-94350119D01*
X72766466Y-94350122D01*
X72855834Y-94517318D01*
X72855838Y-94517325D01*
X72976116Y-94663883D01*
X73122674Y-94784161D01*
X73122681Y-94784165D01*
X73289877Y-94873533D01*
X73289878Y-94873533D01*
X73289885Y-94873537D01*
X73471317Y-94928573D01*
X73471316Y-94928573D01*
X73488233Y-94930239D01*
X73660000Y-94947157D01*
X73848683Y-94928573D01*
X74030115Y-94873537D01*
X74197324Y-94784162D01*
X74343883Y-94663883D01*
X74464162Y-94517324D01*
X74553537Y-94350115D01*
X74608573Y-94168683D01*
X74627157Y-93980000D01*
X74608573Y-93791317D01*
X74553537Y-93609885D01*
X74464162Y-93442676D01*
X74464161Y-93442674D01*
X74351309Y-93305165D01*
X74323996Y-93240855D01*
X74335787Y-93171988D01*
X74382939Y-93120427D01*
X74447162Y-93102500D01*
X94462838Y-93102500D01*
X94529877Y-93122185D01*
X94575632Y-93174989D01*
X94585576Y-93244147D01*
X94558691Y-93305165D01*
X94445838Y-93442674D01*
X94445834Y-93442681D01*
X94356466Y-93609877D01*
X94356465Y-93609880D01*
X94301426Y-93791318D01*
X94282843Y-93980000D01*
X94301426Y-94168681D01*
X94301427Y-94168683D01*
X94356463Y-94350115D01*
X94356464Y-94350118D01*
X94356465Y-94350119D01*
X94356466Y-94350122D01*
X94445834Y-94517318D01*
X94445838Y-94517325D01*
X94566116Y-94663883D01*
X94712674Y-94784161D01*
X94712681Y-94784165D01*
X94879877Y-94873533D01*
X94879878Y-94873533D01*
X94879885Y-94873537D01*
X95061317Y-94928573D01*
X95061316Y-94928573D01*
X95078233Y-94930239D01*
X95250000Y-94947157D01*
X95438683Y-94928573D01*
X95620115Y-94873537D01*
X95787324Y-94784162D01*
X95933883Y-94663883D01*
X96054162Y-94517324D01*
X96143537Y-94350115D01*
X96198573Y-94168683D01*
X96217157Y-93980000D01*
X106982843Y-93980000D01*
X107001426Y-94168681D01*
X107001427Y-94168683D01*
X107056463Y-94350115D01*
X107056464Y-94350118D01*
X107056465Y-94350119D01*
X107056466Y-94350122D01*
X107145834Y-94517318D01*
X107145838Y-94517325D01*
X107266116Y-94663883D01*
X107412674Y-94784161D01*
X107412681Y-94784165D01*
X107579877Y-94873533D01*
X107579878Y-94873533D01*
X107579885Y-94873537D01*
X107761317Y-94928573D01*
X107761316Y-94928573D01*
X107778233Y-94930239D01*
X107950000Y-94947157D01*
X108138683Y-94928573D01*
X108320115Y-94873537D01*
X108487324Y-94784162D01*
X108633883Y-94663883D01*
X108754162Y-94517324D01*
X108843537Y-94350115D01*
X108898573Y-94168683D01*
X108917157Y-93980000D01*
X108898573Y-93791317D01*
X108843537Y-93609885D01*
X108754162Y-93442676D01*
X108754161Y-93442674D01*
X108633883Y-93296116D01*
X108487325Y-93175838D01*
X108487318Y-93175834D01*
X108320122Y-93086466D01*
X108320119Y-93086465D01*
X108320118Y-93086464D01*
X108320115Y-93086463D01*
X108138683Y-93031427D01*
X108138681Y-93031426D01*
X108138683Y-93031426D01*
X107950000Y-93012843D01*
X107761318Y-93031426D01*
X107654194Y-93063921D01*
X107579885Y-93086463D01*
X107579882Y-93086464D01*
X107579880Y-93086465D01*
X107579877Y-93086466D01*
X107412681Y-93175834D01*
X107412674Y-93175838D01*
X107266116Y-93296116D01*
X107145838Y-93442674D01*
X107145834Y-93442681D01*
X107056466Y-93609877D01*
X107056465Y-93609880D01*
X107001426Y-93791318D01*
X106982843Y-93980000D01*
X96217157Y-93980000D01*
X96198573Y-93791317D01*
X96143537Y-93609885D01*
X96054162Y-93442676D01*
X96054161Y-93442674D01*
X95941309Y-93305165D01*
X95913996Y-93240855D01*
X95925787Y-93171988D01*
X95972939Y-93120427D01*
X96037162Y-93102500D01*
X104257308Y-93102500D01*
X104257309Y-93102500D01*
X104347673Y-93078286D01*
X104371887Y-93071799D01*
X104474614Y-93012489D01*
X106047102Y-91440000D01*
X106982843Y-91440000D01*
X107001426Y-91628681D01*
X107001427Y-91628683D01*
X107056463Y-91810115D01*
X107056464Y-91810118D01*
X107056465Y-91810119D01*
X107056466Y-91810122D01*
X107145834Y-91977318D01*
X107145838Y-91977325D01*
X107266116Y-92123883D01*
X107412674Y-92244161D01*
X107412681Y-92244165D01*
X107579877Y-92333533D01*
X107579878Y-92333533D01*
X107579885Y-92333537D01*
X107761317Y-92388573D01*
X107761316Y-92388573D01*
X107778233Y-92390239D01*
X107950000Y-92407157D01*
X108138683Y-92388573D01*
X108320115Y-92333537D01*
X108487324Y-92244162D01*
X108633883Y-92123883D01*
X108754162Y-91977324D01*
X108843537Y-91810115D01*
X108898573Y-91628683D01*
X108917157Y-91440000D01*
X108898573Y-91251317D01*
X108843537Y-91069885D01*
X108754162Y-90902676D01*
X108754161Y-90902674D01*
X108633883Y-90756116D01*
X108487325Y-90635838D01*
X108487318Y-90635834D01*
X108320122Y-90546466D01*
X108320119Y-90546465D01*
X108320118Y-90546464D01*
X108320115Y-90546463D01*
X108138683Y-90491427D01*
X108138681Y-90491426D01*
X108138683Y-90491426D01*
X107950000Y-90472843D01*
X107761318Y-90491426D01*
X107654194Y-90523921D01*
X107579885Y-90546463D01*
X107579882Y-90546464D01*
X107579880Y-90546465D01*
X107579877Y-90546466D01*
X107412681Y-90635834D01*
X107412674Y-90635838D01*
X107266116Y-90756116D01*
X107145838Y-90902674D01*
X107145834Y-90902681D01*
X107056466Y-91069877D01*
X107056465Y-91069880D01*
X107001426Y-91251318D01*
X106982843Y-91440000D01*
X106047102Y-91440000D01*
X107614554Y-89872547D01*
X107675875Y-89839064D01*
X107738227Y-89841568D01*
X107761317Y-89848573D01*
X107761316Y-89848573D01*
X107778233Y-89850239D01*
X107950000Y-89867157D01*
X108138683Y-89848573D01*
X108320115Y-89793537D01*
X108487324Y-89704162D01*
X108633883Y-89583883D01*
X108754162Y-89437324D01*
X108843537Y-89270115D01*
X108898573Y-89088683D01*
X108917157Y-88900000D01*
X108898573Y-88711317D01*
X108843537Y-88529885D01*
X108842758Y-88528428D01*
X108754165Y-88362681D01*
X108754161Y-88362674D01*
X108633883Y-88216116D01*
X108487325Y-88095838D01*
X108487318Y-88095834D01*
X108320122Y-88006466D01*
X108320119Y-88006465D01*
X108320118Y-88006464D01*
X108320115Y-88006463D01*
X108138683Y-87951427D01*
X108138681Y-87951426D01*
X108138683Y-87951426D01*
X107950000Y-87932843D01*
X107761318Y-87951426D01*
X107654194Y-87983921D01*
X107579885Y-88006463D01*
X107579882Y-88006464D01*
X107579880Y-88006465D01*
X107579877Y-88006466D01*
X107412681Y-88095834D01*
X107412674Y-88095838D01*
X107266116Y-88216116D01*
X107145838Y-88362674D01*
X107145834Y-88362681D01*
X107056466Y-88529877D01*
X107056465Y-88529880D01*
X107001426Y-88711318D01*
X106982843Y-88899999D01*
X107001426Y-89088682D01*
X107001427Y-89088684D01*
X107008430Y-89111771D01*
X107009053Y-89181638D01*
X106977450Y-89235445D01*
X104047716Y-92165181D01*
X103986393Y-92198666D01*
X103960035Y-92201500D01*
X96132362Y-92201500D01*
X96065323Y-92181815D01*
X96019568Y-92129011D01*
X96009624Y-92059853D01*
X96036508Y-91998836D01*
X96043189Y-91990693D01*
X96054162Y-91977324D01*
X96143537Y-91810115D01*
X96198573Y-91628683D01*
X96217157Y-91440000D01*
X96198573Y-91251317D01*
X96143537Y-91069885D01*
X96054162Y-90902676D01*
X96054161Y-90902674D01*
X95933883Y-90756116D01*
X95787325Y-90635838D01*
X95787318Y-90635834D01*
X95620122Y-90546466D01*
X95620119Y-90546465D01*
X95620118Y-90546464D01*
X95620115Y-90546463D01*
X95438683Y-90491427D01*
X95438681Y-90491426D01*
X95438683Y-90491426D01*
X95250000Y-90472843D01*
X95061318Y-90491426D01*
X94954194Y-90523921D01*
X94879885Y-90546463D01*
X94879882Y-90546464D01*
X94879880Y-90546465D01*
X94879877Y-90546466D01*
X94712681Y-90635834D01*
X94712674Y-90635838D01*
X94566116Y-90756116D01*
X94445838Y-90902674D01*
X94445834Y-90902681D01*
X94356466Y-91069877D01*
X94356465Y-91069880D01*
X94301426Y-91251318D01*
X94282843Y-91440000D01*
X94301426Y-91628681D01*
X94301427Y-91628683D01*
X94356463Y-91810115D01*
X94356464Y-91810118D01*
X94356465Y-91810119D01*
X94356466Y-91810122D01*
X94445834Y-91977318D01*
X94445838Y-91977324D01*
X94463492Y-91998836D01*
X94490804Y-92063146D01*
X94479013Y-92132013D01*
X94431860Y-92183573D01*
X94367638Y-92201500D01*
X69217419Y-92201500D01*
X69150380Y-92181815D01*
X69141933Y-92175876D01*
X69078842Y-92127464D01*
X68932762Y-92066956D01*
X68932760Y-92066955D01*
X68776001Y-92046318D01*
X68775999Y-92046318D01*
X68619239Y-92066955D01*
X68619237Y-92066956D01*
X68473160Y-92127463D01*
X68347718Y-92223718D01*
X68251463Y-92349160D01*
X68190956Y-92495237D01*
X68190955Y-92495239D01*
X68170318Y-92651998D01*
X35052000Y-92651998D01*
X35052000Y-85884998D01*
X37796518Y-85884998D01*
X37796518Y-85885001D01*
X37816422Y-86163299D01*
X37875727Y-86435916D01*
X37875729Y-86435923D01*
X37917786Y-86548683D01*
X37973231Y-86697338D01*
X37973233Y-86697342D01*
X38106940Y-86942207D01*
X38106945Y-86942215D01*
X38274138Y-87165560D01*
X38274154Y-87165578D01*
X38471421Y-87362845D01*
X38471439Y-87362861D01*
X38694784Y-87530054D01*
X38694792Y-87530059D01*
X38939657Y-87663766D01*
X38939661Y-87663768D01*
X38939663Y-87663769D01*
X39201077Y-87761271D01*
X39337391Y-87790924D01*
X39473700Y-87820577D01*
X39473702Y-87820577D01*
X39473706Y-87820578D01*
X39721014Y-87838265D01*
X39751999Y-87840482D01*
X39752000Y-87840482D01*
X39752001Y-87840482D01*
X39779881Y-87838487D01*
X40030294Y-87820578D01*
X40302923Y-87761271D01*
X40325442Y-87752872D01*
X56269500Y-87752872D01*
X56269500Y-88015127D01*
X56291199Y-88179936D01*
X56303730Y-88275116D01*
X56327191Y-88362674D01*
X56371602Y-88528418D01*
X56371605Y-88528428D01*
X56471953Y-88770690D01*
X56471958Y-88770700D01*
X56603075Y-88997803D01*
X56762718Y-89205851D01*
X56762726Y-89205860D01*
X56948140Y-89391274D01*
X56948148Y-89391281D01*
X56948149Y-89391282D01*
X56950740Y-89393270D01*
X57156196Y-89550924D01*
X57383299Y-89682041D01*
X57383309Y-89682046D01*
X57625571Y-89782394D01*
X57625581Y-89782398D01*
X57878884Y-89850270D01*
X58138880Y-89884500D01*
X58138887Y-89884500D01*
X58401113Y-89884500D01*
X58401120Y-89884500D01*
X58661116Y-89850270D01*
X58914419Y-89782398D01*
X59156697Y-89682043D01*
X59383803Y-89550924D01*
X59513052Y-89451747D01*
X73729500Y-89451747D01*
X73729500Y-91396252D01*
X73741131Y-91454729D01*
X73741132Y-91454730D01*
X73785447Y-91521052D01*
X73851769Y-91565367D01*
X73851770Y-91565368D01*
X73910247Y-91576999D01*
X73910250Y-91577000D01*
X73910252Y-91577000D01*
X75949750Y-91577000D01*
X75949751Y-91576999D01*
X75964568Y-91574052D01*
X76008229Y-91565368D01*
X76008229Y-91565367D01*
X76008231Y-91565367D01*
X76074552Y-91521052D01*
X76118867Y-91454731D01*
X76118867Y-91454729D01*
X76118868Y-91454729D01*
X76130499Y-91396252D01*
X76130500Y-91396250D01*
X76130500Y-90424000D01*
X76464659Y-90424000D01*
X76483975Y-90620129D01*
X76541188Y-90808733D01*
X76634086Y-90982532D01*
X76634090Y-90982539D01*
X76759116Y-91134883D01*
X76911460Y-91259909D01*
X76911467Y-91259913D01*
X77085266Y-91352811D01*
X77085269Y-91352811D01*
X77085273Y-91352814D01*
X77273868Y-91410024D01*
X77470000Y-91429341D01*
X77666132Y-91410024D01*
X77854727Y-91352814D01*
X78028538Y-91259910D01*
X78180883Y-91134883D01*
X78305910Y-90982538D01*
X78398814Y-90808727D01*
X78456024Y-90620132D01*
X78475341Y-90424000D01*
X78456024Y-90227868D01*
X78398814Y-90039273D01*
X78398811Y-90039269D01*
X78398811Y-90039266D01*
X78305913Y-89865467D01*
X78305909Y-89865460D01*
X78180883Y-89713116D01*
X78028539Y-89588090D01*
X78028532Y-89588086D01*
X77854733Y-89495188D01*
X77854727Y-89495186D01*
X77666132Y-89437976D01*
X77666129Y-89437975D01*
X77470000Y-89418659D01*
X77273870Y-89437975D01*
X77085266Y-89495188D01*
X76911467Y-89588086D01*
X76911460Y-89588090D01*
X76759116Y-89713116D01*
X76634090Y-89865460D01*
X76634086Y-89865467D01*
X76541188Y-90039266D01*
X76483975Y-90227870D01*
X76464659Y-90424000D01*
X76130500Y-90424000D01*
X76130500Y-89451749D01*
X76130499Y-89451747D01*
X76118868Y-89393270D01*
X76118867Y-89393269D01*
X76074552Y-89326947D01*
X76008230Y-89282632D01*
X76008229Y-89282631D01*
X75949752Y-89271000D01*
X75949748Y-89271000D01*
X73910252Y-89271000D01*
X73910247Y-89271000D01*
X73851770Y-89282631D01*
X73851769Y-89282632D01*
X73785447Y-89326947D01*
X73741132Y-89393269D01*
X73741131Y-89393270D01*
X73729500Y-89451747D01*
X59513052Y-89451747D01*
X59591851Y-89391282D01*
X59591855Y-89391277D01*
X59591860Y-89391274D01*
X59777274Y-89205860D01*
X59777277Y-89205855D01*
X59777282Y-89205851D01*
X59936924Y-88997803D01*
X59993390Y-88900000D01*
X94282843Y-88900000D01*
X94301426Y-89088681D01*
X94319772Y-89149160D01*
X94356463Y-89270115D01*
X94356464Y-89270118D01*
X94356465Y-89270119D01*
X94356466Y-89270122D01*
X94445834Y-89437318D01*
X94445838Y-89437325D01*
X94566116Y-89583883D01*
X94712674Y-89704161D01*
X94712681Y-89704165D01*
X94879877Y-89793533D01*
X94879878Y-89793533D01*
X94879885Y-89793537D01*
X95061317Y-89848573D01*
X95061316Y-89848573D01*
X95078233Y-89850239D01*
X95250000Y-89867157D01*
X95438683Y-89848573D01*
X95620115Y-89793537D01*
X95787324Y-89704162D01*
X95933883Y-89583883D01*
X96054162Y-89437324D01*
X96143537Y-89270115D01*
X96198573Y-89088683D01*
X96217157Y-88900000D01*
X96198573Y-88711317D01*
X96143537Y-88529885D01*
X96142758Y-88528428D01*
X96054165Y-88362681D01*
X96054161Y-88362674D01*
X95933883Y-88216116D01*
X95787325Y-88095838D01*
X95787318Y-88095834D01*
X95620122Y-88006466D01*
X95620119Y-88006465D01*
X95620118Y-88006464D01*
X95620115Y-88006463D01*
X95438683Y-87951427D01*
X95438681Y-87951426D01*
X95438683Y-87951426D01*
X95250000Y-87932843D01*
X95061318Y-87951426D01*
X94954194Y-87983921D01*
X94879885Y-88006463D01*
X94879882Y-88006464D01*
X94879880Y-88006465D01*
X94879877Y-88006466D01*
X94712681Y-88095834D01*
X94712674Y-88095838D01*
X94566116Y-88216116D01*
X94445838Y-88362674D01*
X94445834Y-88362681D01*
X94356466Y-88529877D01*
X94356465Y-88529880D01*
X94301426Y-88711318D01*
X94282843Y-88900000D01*
X59993390Y-88900000D01*
X60068043Y-88770697D01*
X60168398Y-88528419D01*
X60236270Y-88275116D01*
X60270500Y-88015120D01*
X60270500Y-87752880D01*
X60236270Y-87492884D01*
X60168398Y-87239581D01*
X60137741Y-87165568D01*
X60068046Y-86997309D01*
X60068041Y-86997299D01*
X59936924Y-86770196D01*
X59777281Y-86562148D01*
X59777274Y-86562140D01*
X59591860Y-86376726D01*
X59591851Y-86376718D01*
X59383803Y-86217075D01*
X59156700Y-86085958D01*
X59156690Y-86085953D01*
X58914428Y-85985605D01*
X58914421Y-85985603D01*
X58914419Y-85985602D01*
X58661116Y-85917730D01*
X58603339Y-85910123D01*
X58401127Y-85883500D01*
X58401120Y-85883500D01*
X58138880Y-85883500D01*
X58138872Y-85883500D01*
X57907772Y-85913926D01*
X57878884Y-85917730D01*
X57764780Y-85948304D01*
X57625581Y-85985602D01*
X57625571Y-85985605D01*
X57383309Y-86085953D01*
X57383299Y-86085958D01*
X57156196Y-86217075D01*
X56948148Y-86376718D01*
X56762718Y-86562148D01*
X56603075Y-86770196D01*
X56471958Y-86997299D01*
X56471953Y-86997309D01*
X56371605Y-87239571D01*
X56371602Y-87239581D01*
X56303730Y-87492884D01*
X56302756Y-87500282D01*
X56269500Y-87752872D01*
X40325442Y-87752872D01*
X40564337Y-87663769D01*
X40809213Y-87530056D01*
X41032568Y-87362855D01*
X41229855Y-87165568D01*
X41397056Y-86942213D01*
X41530769Y-86697337D01*
X41628271Y-86435923D01*
X41679058Y-86202458D01*
X41687577Y-86163299D01*
X41687577Y-86163298D01*
X41687578Y-86163294D01*
X41707482Y-85885000D01*
X41687578Y-85606706D01*
X41676511Y-85555834D01*
X41650169Y-85434742D01*
X41628271Y-85334077D01*
X41530769Y-85072663D01*
X41397056Y-84827787D01*
X41352729Y-84768573D01*
X41229861Y-84604439D01*
X41229845Y-84604421D01*
X41032578Y-84407154D01*
X41032560Y-84407138D01*
X40809215Y-84239945D01*
X40809207Y-84239940D01*
X40564342Y-84106233D01*
X40564338Y-84106231D01*
X40389083Y-84040865D01*
X40302923Y-84008729D01*
X40302919Y-84008728D01*
X40302916Y-84008727D01*
X40030299Y-83949422D01*
X39752001Y-83929518D01*
X39751999Y-83929518D01*
X39473700Y-83949422D01*
X39201083Y-84008727D01*
X39201078Y-84008728D01*
X39201077Y-84008729D01*
X39137875Y-84032301D01*
X38939661Y-84106231D01*
X38939657Y-84106233D01*
X38694792Y-84239940D01*
X38694784Y-84239945D01*
X38471439Y-84407138D01*
X38471421Y-84407154D01*
X38274154Y-84604421D01*
X38274138Y-84604439D01*
X38106945Y-84827784D01*
X38106940Y-84827792D01*
X37973233Y-85072657D01*
X37973231Y-85072661D01*
X37875727Y-85334083D01*
X37816422Y-85606700D01*
X37796518Y-85884998D01*
X35052000Y-85884998D01*
X35052000Y-83261198D01*
X63097518Y-83261198D01*
X63097518Y-83261201D01*
X63118155Y-83417960D01*
X63118156Y-83417962D01*
X63178664Y-83564041D01*
X63274918Y-83689482D01*
X63400359Y-83785736D01*
X63546438Y-83846244D01*
X63624819Y-83856563D01*
X63703199Y-83866882D01*
X63703200Y-83866882D01*
X63703201Y-83866882D01*
X63759675Y-83859447D01*
X63859962Y-83846244D01*
X64006041Y-83785736D01*
X64069133Y-83737323D01*
X64134302Y-83712130D01*
X64144619Y-83711700D01*
X74844435Y-83711700D01*
X74911474Y-83731385D01*
X74932116Y-83748019D01*
X75163639Y-83979542D01*
X75197124Y-84040865D01*
X75192140Y-84110557D01*
X75150268Y-84166490D01*
X75084804Y-84190907D01*
X75073115Y-84190866D01*
X75073115Y-84191000D01*
X75068243Y-84191000D01*
X74791757Y-84191000D01*
X74732006Y-84200463D01*
X74612503Y-84219391D01*
X74612500Y-84219391D01*
X74439904Y-84275471D01*
X74278195Y-84357866D01*
X74210357Y-84407154D01*
X74131371Y-84464541D01*
X74131369Y-84464543D01*
X74131368Y-84464543D01*
X74003043Y-84592868D01*
X74003043Y-84592869D01*
X74003041Y-84592871D01*
X73957228Y-84655926D01*
X73896366Y-84739695D01*
X73813971Y-84901404D01*
X73757891Y-85074000D01*
X73757891Y-85074003D01*
X73740010Y-85186899D01*
X73729500Y-85253257D01*
X73729500Y-85434743D01*
X73743695Y-85524369D01*
X73757891Y-85613996D01*
X73757891Y-85613999D01*
X73813971Y-85786595D01*
X73880788Y-85917730D01*
X73896366Y-85948304D01*
X74003041Y-86095129D01*
X74131371Y-86223459D01*
X74278196Y-86330134D01*
X74439902Y-86412527D01*
X74439904Y-86412528D01*
X74612501Y-86468608D01*
X74612502Y-86468608D01*
X74612505Y-86468609D01*
X74791757Y-86497000D01*
X74791758Y-86497000D01*
X75068242Y-86497000D01*
X75068243Y-86497000D01*
X75247495Y-86468609D01*
X75247498Y-86468608D01*
X75247499Y-86468608D01*
X75420095Y-86412528D01*
X75420095Y-86412527D01*
X75420098Y-86412527D01*
X75581804Y-86330134D01*
X75728629Y-86223459D01*
X75856959Y-86095129D01*
X75963634Y-85948304D01*
X76046027Y-85786598D01*
X76073970Y-85700599D01*
X76102108Y-85613999D01*
X76102108Y-85613998D01*
X76102109Y-85613995D01*
X76130500Y-85434743D01*
X76130500Y-85253257D01*
X76130500Y-85248385D01*
X76132106Y-85248385D01*
X76145019Y-85186899D01*
X76194067Y-85137140D01*
X76262231Y-85121796D01*
X76327870Y-85145741D01*
X76341957Y-85157860D01*
X78787415Y-87603318D01*
X78820900Y-87664641D01*
X78822673Y-87674813D01*
X78840756Y-87812160D01*
X78840756Y-87812162D01*
X78898441Y-87951427D01*
X78901264Y-87958241D01*
X78997518Y-88083682D01*
X79122959Y-88179936D01*
X79269038Y-88240444D01*
X79347419Y-88250763D01*
X79425799Y-88261082D01*
X79425800Y-88261082D01*
X79425801Y-88261082D01*
X79478054Y-88254202D01*
X79582562Y-88240444D01*
X79728641Y-88179936D01*
X79854082Y-88083682D01*
X79950336Y-87958241D01*
X80010844Y-87812162D01*
X80028926Y-87674813D01*
X80031482Y-87655401D01*
X80031482Y-87655398D01*
X80011061Y-87500282D01*
X80010000Y-87484097D01*
X80010000Y-86360000D01*
X94282843Y-86360000D01*
X94301426Y-86548681D01*
X94305512Y-86562149D01*
X94356463Y-86730115D01*
X94356464Y-86730118D01*
X94356465Y-86730119D01*
X94356466Y-86730122D01*
X94445834Y-86897318D01*
X94445838Y-86897325D01*
X94566116Y-87043883D01*
X94712674Y-87164161D01*
X94712681Y-87164165D01*
X94879877Y-87253533D01*
X94879878Y-87253533D01*
X94879885Y-87253537D01*
X95061317Y-87308573D01*
X95061316Y-87308573D01*
X95078233Y-87310239D01*
X95250000Y-87327157D01*
X95438683Y-87308573D01*
X95620115Y-87253537D01*
X95787324Y-87164162D01*
X95933883Y-87043883D01*
X96054162Y-86897324D01*
X96143537Y-86730115D01*
X96198573Y-86548683D01*
X96217157Y-86360000D01*
X106982843Y-86360000D01*
X107001426Y-86548681D01*
X107005512Y-86562149D01*
X107056463Y-86730115D01*
X107056464Y-86730118D01*
X107056465Y-86730119D01*
X107056466Y-86730122D01*
X107145834Y-86897318D01*
X107145838Y-86897325D01*
X107266116Y-87043883D01*
X107412674Y-87164161D01*
X107412681Y-87164165D01*
X107579877Y-87253533D01*
X107579878Y-87253533D01*
X107579885Y-87253537D01*
X107761317Y-87308573D01*
X107761316Y-87308573D01*
X107778233Y-87310239D01*
X107950000Y-87327157D01*
X108138683Y-87308573D01*
X108320115Y-87253537D01*
X108487324Y-87164162D01*
X108633883Y-87043883D01*
X108754162Y-86897324D01*
X108843537Y-86730115D01*
X108898573Y-86548683D01*
X108917157Y-86360000D01*
X108898573Y-86171317D01*
X108843537Y-85989885D01*
X108843533Y-85989877D01*
X108754165Y-85822681D01*
X108754161Y-85822674D01*
X108633883Y-85676116D01*
X108487325Y-85555838D01*
X108487318Y-85555834D01*
X108320122Y-85466466D01*
X108320119Y-85466465D01*
X108320118Y-85466464D01*
X108320115Y-85466463D01*
X108138683Y-85411427D01*
X108138681Y-85411426D01*
X108138683Y-85411426D01*
X107950000Y-85392843D01*
X107761318Y-85411426D01*
X107684453Y-85434743D01*
X107579885Y-85466463D01*
X107579882Y-85466464D01*
X107579880Y-85466465D01*
X107579877Y-85466466D01*
X107412681Y-85555834D01*
X107412674Y-85555838D01*
X107266116Y-85676116D01*
X107145838Y-85822674D01*
X107145834Y-85822681D01*
X107056466Y-85989877D01*
X107056465Y-85989880D01*
X107001426Y-86171318D01*
X106982843Y-86360000D01*
X96217157Y-86360000D01*
X96198573Y-86171317D01*
X96143537Y-85989885D01*
X96143533Y-85989877D01*
X96054165Y-85822681D01*
X96054161Y-85822674D01*
X95933883Y-85676116D01*
X95787325Y-85555838D01*
X95787318Y-85555834D01*
X95620122Y-85466466D01*
X95620119Y-85466465D01*
X95620118Y-85466464D01*
X95620115Y-85466463D01*
X95438683Y-85411427D01*
X95438681Y-85411426D01*
X95438683Y-85411426D01*
X95250000Y-85392843D01*
X95061318Y-85411426D01*
X94984453Y-85434743D01*
X94879885Y-85466463D01*
X94879882Y-85466464D01*
X94879880Y-85466465D01*
X94879877Y-85466466D01*
X94712681Y-85555834D01*
X94712674Y-85555838D01*
X94566116Y-85676116D01*
X94445838Y-85822674D01*
X94445834Y-85822681D01*
X94356466Y-85989877D01*
X94356465Y-85989880D01*
X94301426Y-86171318D01*
X94282843Y-86360000D01*
X80010000Y-86360000D01*
X80010000Y-85725000D01*
X80000561Y-85702213D01*
X80004456Y-85700599D01*
X79993654Y-85680816D01*
X79993204Y-85630263D01*
X79994500Y-85623748D01*
X79994500Y-83984252D01*
X79994500Y-83984249D01*
X79994499Y-83984247D01*
X79982868Y-83925770D01*
X79982867Y-83925769D01*
X79938552Y-83859447D01*
X79879515Y-83820000D01*
X94282843Y-83820000D01*
X94301426Y-84008681D01*
X94301427Y-84008683D01*
X94356463Y-84190115D01*
X94356464Y-84190118D01*
X94356465Y-84190119D01*
X94356466Y-84190122D01*
X94445834Y-84357318D01*
X94445838Y-84357325D01*
X94566116Y-84503883D01*
X94712674Y-84624161D01*
X94712681Y-84624165D01*
X94879877Y-84713533D01*
X94879878Y-84713533D01*
X94879885Y-84713537D01*
X95061317Y-84768573D01*
X95061316Y-84768573D01*
X95078233Y-84770239D01*
X95250000Y-84787157D01*
X95438683Y-84768573D01*
X95620115Y-84713537D01*
X95787324Y-84624162D01*
X95933883Y-84503883D01*
X96054162Y-84357324D01*
X96143537Y-84190115D01*
X96198573Y-84008683D01*
X96217157Y-83820000D01*
X96198573Y-83631317D01*
X96143537Y-83449885D01*
X96112446Y-83391718D01*
X96054165Y-83282681D01*
X96054161Y-83282674D01*
X95933883Y-83136116D01*
X95787325Y-83015838D01*
X95787318Y-83015834D01*
X95620122Y-82926466D01*
X95620119Y-82926465D01*
X95620118Y-82926464D01*
X95620115Y-82926463D01*
X95438683Y-82871427D01*
X95438681Y-82871426D01*
X95438683Y-82871426D01*
X95250000Y-82852843D01*
X95061318Y-82871426D01*
X94954194Y-82903921D01*
X94879885Y-82926463D01*
X94879882Y-82926464D01*
X94879880Y-82926465D01*
X94879877Y-82926466D01*
X94712681Y-83015834D01*
X94712674Y-83015838D01*
X94566116Y-83136116D01*
X94445838Y-83282674D01*
X94445834Y-83282681D01*
X94356466Y-83449877D01*
X94356465Y-83449880D01*
X94301426Y-83631318D01*
X94282843Y-83820000D01*
X79879515Y-83820000D01*
X79872230Y-83815132D01*
X79872229Y-83815131D01*
X79813752Y-83803500D01*
X79813748Y-83803500D01*
X78174252Y-83803500D01*
X78174250Y-83803500D01*
X78129005Y-83812500D01*
X78115769Y-83815133D01*
X78115768Y-83815133D01*
X78103795Y-83817515D01*
X78103339Y-83815225D01*
X78079357Y-83820000D01*
X76329665Y-83820000D01*
X76262626Y-83800315D01*
X76241984Y-83783681D01*
X75359016Y-82900713D01*
X75359014Y-82900711D01*
X75308293Y-82871427D01*
X75256285Y-82841399D01*
X75224628Y-82832918D01*
X75183168Y-82821809D01*
X75141709Y-82810700D01*
X75141708Y-82810700D01*
X64144619Y-82810700D01*
X64077580Y-82791015D01*
X64069133Y-82785076D01*
X64006042Y-82736664D01*
X63859962Y-82676156D01*
X63859960Y-82676155D01*
X63703201Y-82655518D01*
X63703199Y-82655518D01*
X63546439Y-82676155D01*
X63546437Y-82676156D01*
X63400360Y-82736663D01*
X63274918Y-82832918D01*
X63178663Y-82958360D01*
X63118156Y-83104437D01*
X63118155Y-83104439D01*
X63097518Y-83261198D01*
X35052000Y-83261198D01*
X35052000Y-81280000D01*
X51102843Y-81280000D01*
X51121426Y-81468681D01*
X51139772Y-81529160D01*
X51176463Y-81650115D01*
X51176464Y-81650118D01*
X51176465Y-81650119D01*
X51176466Y-81650122D01*
X51265834Y-81817318D01*
X51265838Y-81817325D01*
X51386116Y-81963883D01*
X51532674Y-82084161D01*
X51532681Y-82084165D01*
X51699877Y-82173533D01*
X51699878Y-82173533D01*
X51699885Y-82173537D01*
X51881317Y-82228573D01*
X51881316Y-82228573D01*
X51898233Y-82230239D01*
X52070000Y-82247157D01*
X52258683Y-82228573D01*
X52440115Y-82173537D01*
X52607324Y-82084162D01*
X52753883Y-81963883D01*
X52874162Y-81817324D01*
X52963537Y-81650115D01*
X53018573Y-81468683D01*
X53037157Y-81280000D01*
X53018573Y-81091317D01*
X52963537Y-80909885D01*
X52874162Y-80742676D01*
X52874161Y-80742674D01*
X52753883Y-80596116D01*
X52607325Y-80475838D01*
X52607318Y-80475834D01*
X52440122Y-80386466D01*
X52440119Y-80386465D01*
X52440118Y-80386464D01*
X52440115Y-80386463D01*
X52258683Y-80331427D01*
X52258681Y-80331426D01*
X52258683Y-80331426D01*
X52070000Y-80312843D01*
X51881318Y-80331426D01*
X51774194Y-80363921D01*
X51699885Y-80386463D01*
X51699882Y-80386464D01*
X51699880Y-80386465D01*
X51699877Y-80386466D01*
X51532681Y-80475834D01*
X51532674Y-80475838D01*
X51386116Y-80596116D01*
X51265838Y-80742674D01*
X51265834Y-80742681D01*
X51176466Y-80909877D01*
X51176465Y-80909880D01*
X51121426Y-81091318D01*
X51102843Y-81280000D01*
X35052000Y-81280000D01*
X35052000Y-80136999D01*
X39402785Y-80136999D01*
X39402785Y-80137000D01*
X39421602Y-80340082D01*
X39477417Y-80536247D01*
X39477422Y-80536260D01*
X39568327Y-80718821D01*
X39691237Y-80881581D01*
X39841958Y-81018980D01*
X39841960Y-81018982D01*
X39854259Y-81026597D01*
X40015363Y-81126348D01*
X40205544Y-81200024D01*
X40406024Y-81237500D01*
X40406026Y-81237500D01*
X40609974Y-81237500D01*
X40609976Y-81237500D01*
X40810456Y-81200024D01*
X41000637Y-81126348D01*
X41174041Y-81018981D01*
X41324764Y-80881579D01*
X41447673Y-80718821D01*
X41538582Y-80536250D01*
X41594397Y-80340083D01*
X41613215Y-80137000D01*
X41594397Y-79933917D01*
X41538582Y-79737750D01*
X41531704Y-79723938D01*
X41478191Y-79616468D01*
X41447673Y-79555179D01*
X41366246Y-79447352D01*
X41324762Y-79392418D01*
X41174041Y-79255019D01*
X41174039Y-79255017D01*
X41000642Y-79147655D01*
X41000635Y-79147651D01*
X40903742Y-79110115D01*
X40810456Y-79073976D01*
X40609976Y-79036500D01*
X40406024Y-79036500D01*
X40205544Y-79073976D01*
X40205541Y-79073976D01*
X40205541Y-79073977D01*
X40015364Y-79147651D01*
X40015357Y-79147655D01*
X39841960Y-79255017D01*
X39841958Y-79255019D01*
X39691237Y-79392418D01*
X39568327Y-79555178D01*
X39477422Y-79737739D01*
X39477417Y-79737752D01*
X39421602Y-79933917D01*
X39402785Y-80136999D01*
X35052000Y-80136999D01*
X35052000Y-77807847D01*
X45456100Y-77807847D01*
X45456100Y-79447352D01*
X45467731Y-79505829D01*
X45467732Y-79505830D01*
X45512047Y-79572152D01*
X45578369Y-79616467D01*
X45578370Y-79616468D01*
X45636847Y-79628099D01*
X45636850Y-79628100D01*
X45636852Y-79628100D01*
X47276350Y-79628100D01*
X47276351Y-79628099D01*
X47291168Y-79625152D01*
X47334829Y-79616468D01*
X47334829Y-79616467D01*
X47334831Y-79616467D01*
X47401152Y-79572152D01*
X47445467Y-79505831D01*
X47445467Y-79505829D01*
X47445468Y-79505829D01*
X47457099Y-79447352D01*
X47457100Y-79447350D01*
X47457100Y-78740000D01*
X51102843Y-78740000D01*
X51121426Y-78928681D01*
X51121427Y-78928683D01*
X51176463Y-79110115D01*
X51176464Y-79110118D01*
X51176465Y-79110119D01*
X51176466Y-79110122D01*
X51265834Y-79277318D01*
X51265838Y-79277325D01*
X51386116Y-79423883D01*
X51532674Y-79544161D01*
X51532681Y-79544165D01*
X51699877Y-79633533D01*
X51699878Y-79633533D01*
X51699885Y-79633537D01*
X51881317Y-79688573D01*
X51881316Y-79688573D01*
X51898233Y-79690239D01*
X52070000Y-79707157D01*
X52258683Y-79688573D01*
X52440115Y-79633537D01*
X52607324Y-79544162D01*
X52753883Y-79423883D01*
X52874162Y-79277324D01*
X52963537Y-79110115D01*
X53018573Y-78928683D01*
X53037157Y-78740000D01*
X53642843Y-78740000D01*
X53661426Y-78928681D01*
X53661427Y-78928683D01*
X53716463Y-79110115D01*
X53716464Y-79110118D01*
X53716465Y-79110119D01*
X53716466Y-79110122D01*
X53805834Y-79277318D01*
X53805838Y-79277325D01*
X53926116Y-79423883D01*
X54072674Y-79544161D01*
X54072681Y-79544165D01*
X54239877Y-79633533D01*
X54239878Y-79633533D01*
X54239885Y-79633537D01*
X54421317Y-79688573D01*
X54421316Y-79688573D01*
X54438233Y-79690239D01*
X54610000Y-79707157D01*
X54798683Y-79688573D01*
X54980115Y-79633537D01*
X55147324Y-79544162D01*
X55293883Y-79423883D01*
X55334004Y-79374996D01*
X56684415Y-79374996D01*
X56684415Y-79375003D01*
X56704738Y-79723927D01*
X56704739Y-79723938D01*
X56765428Y-80068127D01*
X56765430Y-80068134D01*
X56865674Y-80402972D01*
X57004107Y-80723895D01*
X57004113Y-80723908D01*
X57178870Y-81026597D01*
X57387584Y-81306949D01*
X57387589Y-81306955D01*
X57511463Y-81438253D01*
X57627442Y-81561183D01*
X57733432Y-81650119D01*
X57895186Y-81785847D01*
X57895194Y-81785853D01*
X58187203Y-81977911D01*
X58187207Y-81977913D01*
X58499549Y-82134777D01*
X58827989Y-82254319D01*
X59168086Y-82334923D01*
X59515241Y-82375500D01*
X59515248Y-82375500D01*
X59864752Y-82375500D01*
X59864759Y-82375500D01*
X60211914Y-82334923D01*
X60552011Y-82254319D01*
X60880451Y-82134777D01*
X61192793Y-81977913D01*
X61484811Y-81785849D01*
X61752558Y-81561183D01*
X61992412Y-81306953D01*
X62012478Y-81280000D01*
X72692843Y-81280000D01*
X72711426Y-81468681D01*
X72729772Y-81529160D01*
X72766463Y-81650115D01*
X72766464Y-81650118D01*
X72766465Y-81650119D01*
X72766466Y-81650122D01*
X72855834Y-81817318D01*
X72855838Y-81817325D01*
X72976116Y-81963883D01*
X73122674Y-82084161D01*
X73122681Y-82084165D01*
X73289877Y-82173533D01*
X73289878Y-82173533D01*
X73289885Y-82173537D01*
X73471317Y-82228573D01*
X73471316Y-82228573D01*
X73488233Y-82230239D01*
X73660000Y-82247157D01*
X73848683Y-82228573D01*
X74030115Y-82173537D01*
X74197324Y-82084162D01*
X74343883Y-81963883D01*
X74464162Y-81817324D01*
X74553537Y-81650115D01*
X74608573Y-81468683D01*
X74627157Y-81280000D01*
X74608573Y-81091317D01*
X74553537Y-80909885D01*
X74464162Y-80742676D01*
X74464161Y-80742674D01*
X74343883Y-80596116D01*
X74197325Y-80475838D01*
X74197318Y-80475834D01*
X74030122Y-80386466D01*
X74030119Y-80386465D01*
X74030118Y-80386464D01*
X74030115Y-80386463D01*
X73848683Y-80331427D01*
X73848681Y-80331426D01*
X73848683Y-80331426D01*
X73660000Y-80312843D01*
X73471318Y-80331426D01*
X73364194Y-80363921D01*
X73289885Y-80386463D01*
X73289882Y-80386464D01*
X73289880Y-80386465D01*
X73289877Y-80386466D01*
X73122681Y-80475834D01*
X73122674Y-80475838D01*
X72976116Y-80596116D01*
X72855838Y-80742674D01*
X72855834Y-80742681D01*
X72766466Y-80909877D01*
X72766465Y-80909880D01*
X72711426Y-81091318D01*
X72692843Y-81280000D01*
X62012478Y-81280000D01*
X62201130Y-81026596D01*
X62375889Y-80723904D01*
X62514326Y-80402971D01*
X62614569Y-80068136D01*
X62638236Y-79933917D01*
X62675260Y-79723938D01*
X62675259Y-79723938D01*
X62675262Y-79723927D01*
X62695585Y-79375000D01*
X62675262Y-79026073D01*
X62658090Y-78928683D01*
X62624820Y-78740000D01*
X72692843Y-78740000D01*
X72711426Y-78928681D01*
X72711427Y-78928683D01*
X72766463Y-79110115D01*
X72766464Y-79110118D01*
X72766465Y-79110119D01*
X72766466Y-79110122D01*
X72855834Y-79277318D01*
X72855838Y-79277325D01*
X72976116Y-79423883D01*
X73122674Y-79544161D01*
X73122681Y-79544165D01*
X73289877Y-79633533D01*
X73289878Y-79633533D01*
X73289885Y-79633537D01*
X73471317Y-79688573D01*
X73471316Y-79688573D01*
X73488233Y-79690239D01*
X73660000Y-79707157D01*
X73848683Y-79688573D01*
X74030115Y-79633537D01*
X74197324Y-79544162D01*
X74343883Y-79423883D01*
X74464162Y-79277324D01*
X74553537Y-79110115D01*
X74608573Y-78928683D01*
X74627157Y-78740000D01*
X75232843Y-78740000D01*
X75251426Y-78928681D01*
X75251427Y-78928683D01*
X75306463Y-79110115D01*
X75306464Y-79110118D01*
X75306465Y-79110119D01*
X75306466Y-79110122D01*
X75395834Y-79277318D01*
X75395838Y-79277325D01*
X75516116Y-79423883D01*
X75662674Y-79544161D01*
X75662681Y-79544165D01*
X75829877Y-79633533D01*
X75829878Y-79633533D01*
X75829885Y-79633537D01*
X76011317Y-79688573D01*
X76011316Y-79688573D01*
X76028233Y-79690239D01*
X76200000Y-79707157D01*
X76388683Y-79688573D01*
X76570115Y-79633537D01*
X76737324Y-79544162D01*
X76883883Y-79423883D01*
X77004162Y-79277324D01*
X77093537Y-79110115D01*
X77148573Y-78928683D01*
X77167157Y-78740000D01*
X77148573Y-78551317D01*
X77093537Y-78369885D01*
X77093533Y-78369877D01*
X77004165Y-78202681D01*
X77004161Y-78202674D01*
X76883883Y-78056116D01*
X76737325Y-77935838D01*
X76737318Y-77935834D01*
X76570122Y-77846466D01*
X76570119Y-77846465D01*
X76570118Y-77846464D01*
X76570115Y-77846463D01*
X76388683Y-77791427D01*
X76388681Y-77791426D01*
X76388683Y-77791426D01*
X76200000Y-77772843D01*
X76011318Y-77791426D01*
X75904194Y-77823921D01*
X75829885Y-77846463D01*
X75829882Y-77846464D01*
X75829880Y-77846465D01*
X75829877Y-77846466D01*
X75662681Y-77935834D01*
X75662674Y-77935838D01*
X75516116Y-78056116D01*
X75395838Y-78202674D01*
X75395834Y-78202681D01*
X75306466Y-78369877D01*
X75306465Y-78369880D01*
X75251426Y-78551318D01*
X75232843Y-78740000D01*
X74627157Y-78740000D01*
X74608573Y-78551317D01*
X74553537Y-78369885D01*
X74553533Y-78369877D01*
X74464165Y-78202681D01*
X74464161Y-78202674D01*
X74343883Y-78056116D01*
X74197325Y-77935838D01*
X74197318Y-77935834D01*
X74030122Y-77846466D01*
X74030119Y-77846465D01*
X74030118Y-77846464D01*
X74030115Y-77846463D01*
X73848683Y-77791427D01*
X73848681Y-77791426D01*
X73848683Y-77791426D01*
X73660000Y-77772843D01*
X73471318Y-77791426D01*
X73364194Y-77823921D01*
X73289885Y-77846463D01*
X73289882Y-77846464D01*
X73289880Y-77846465D01*
X73289877Y-77846466D01*
X73122681Y-77935834D01*
X73122674Y-77935838D01*
X72976116Y-78056116D01*
X72855838Y-78202674D01*
X72855834Y-78202681D01*
X72766466Y-78369877D01*
X72766465Y-78369880D01*
X72711426Y-78551318D01*
X72692843Y-78740000D01*
X62624820Y-78740000D01*
X62614571Y-78681872D01*
X62614569Y-78681865D01*
X62575486Y-78551318D01*
X62514326Y-78347029D01*
X62375889Y-78026096D01*
X62249883Y-77807847D01*
X62201129Y-77723402D01*
X61992415Y-77443050D01*
X61992410Y-77443044D01*
X61876433Y-77320117D01*
X61752558Y-77188817D01*
X61604488Y-77064572D01*
X61484813Y-76964152D01*
X61484805Y-76964146D01*
X61192796Y-76772088D01*
X60880458Y-76615226D01*
X60880452Y-76615223D01*
X60552012Y-76495681D01*
X60552009Y-76495680D01*
X60211915Y-76415077D01*
X60168519Y-76410004D01*
X59864759Y-76374500D01*
X59515241Y-76374500D01*
X59211480Y-76410004D01*
X59168085Y-76415077D01*
X59168083Y-76415077D01*
X58827990Y-76495680D01*
X58827987Y-76495681D01*
X58499547Y-76615223D01*
X58499541Y-76615226D01*
X58187203Y-76772088D01*
X57895194Y-76964146D01*
X57895186Y-76964152D01*
X57627442Y-77188817D01*
X57627440Y-77188819D01*
X57387589Y-77443044D01*
X57387584Y-77443050D01*
X57178870Y-77723402D01*
X57004113Y-78026091D01*
X57004107Y-78026104D01*
X56865674Y-78347027D01*
X56765430Y-78681865D01*
X56765428Y-78681872D01*
X56704739Y-79026061D01*
X56704738Y-79026072D01*
X56684415Y-79374996D01*
X55334004Y-79374996D01*
X55414162Y-79277324D01*
X55503537Y-79110115D01*
X55558573Y-78928683D01*
X55577157Y-78740000D01*
X55558573Y-78551317D01*
X55503537Y-78369885D01*
X55503533Y-78369877D01*
X55414165Y-78202681D01*
X55414161Y-78202674D01*
X55293883Y-78056116D01*
X55147325Y-77935838D01*
X55147318Y-77935834D01*
X54980122Y-77846466D01*
X54980119Y-77846465D01*
X54980118Y-77846464D01*
X54980115Y-77846463D01*
X54798683Y-77791427D01*
X54798681Y-77791426D01*
X54798683Y-77791426D01*
X54610000Y-77772843D01*
X54421318Y-77791426D01*
X54314194Y-77823921D01*
X54239885Y-77846463D01*
X54239882Y-77846464D01*
X54239880Y-77846465D01*
X54239877Y-77846466D01*
X54072681Y-77935834D01*
X54072674Y-77935838D01*
X53926116Y-78056116D01*
X53805838Y-78202674D01*
X53805834Y-78202681D01*
X53716466Y-78369877D01*
X53716465Y-78369880D01*
X53661426Y-78551318D01*
X53642843Y-78740000D01*
X53037157Y-78740000D01*
X53018573Y-78551317D01*
X52963537Y-78369885D01*
X52963533Y-78369877D01*
X52874165Y-78202681D01*
X52874161Y-78202674D01*
X52753883Y-78056116D01*
X52607325Y-77935838D01*
X52607318Y-77935834D01*
X52440122Y-77846466D01*
X52440119Y-77846465D01*
X52440118Y-77846464D01*
X52440115Y-77846463D01*
X52258683Y-77791427D01*
X52258681Y-77791426D01*
X52258683Y-77791426D01*
X52070000Y-77772843D01*
X51881318Y-77791426D01*
X51774194Y-77823921D01*
X51699885Y-77846463D01*
X51699882Y-77846464D01*
X51699880Y-77846465D01*
X51699877Y-77846466D01*
X51532681Y-77935834D01*
X51532674Y-77935838D01*
X51386116Y-78056116D01*
X51265838Y-78202674D01*
X51265834Y-78202681D01*
X51176466Y-78369877D01*
X51176465Y-78369880D01*
X51121426Y-78551318D01*
X51102843Y-78740000D01*
X47457100Y-78740000D01*
X47457100Y-77807849D01*
X47457099Y-77807847D01*
X47445468Y-77749370D01*
X47445467Y-77749369D01*
X47401152Y-77683047D01*
X47334830Y-77638732D01*
X47334829Y-77638731D01*
X47276352Y-77627100D01*
X47276348Y-77627100D01*
X45636852Y-77627100D01*
X45636847Y-77627100D01*
X45578370Y-77638731D01*
X45578369Y-77638732D01*
X45512047Y-77683047D01*
X45467732Y-77749369D01*
X45467731Y-77749370D01*
X45456100Y-77807847D01*
X35052000Y-77807847D01*
X35052000Y-74324247D01*
X63769500Y-74324247D01*
X63769500Y-75963752D01*
X63781131Y-76022229D01*
X63781132Y-76022230D01*
X63825447Y-76088552D01*
X63891769Y-76132867D01*
X63891770Y-76132868D01*
X63950247Y-76144499D01*
X63950250Y-76144500D01*
X63950252Y-76144500D01*
X65589750Y-76144500D01*
X65589751Y-76144499D01*
X65604568Y-76141552D01*
X65648229Y-76132868D01*
X65648229Y-76132867D01*
X65648231Y-76132867D01*
X65714552Y-76088552D01*
X65758867Y-76022231D01*
X65758867Y-76022229D01*
X65758868Y-76022229D01*
X65770499Y-75963752D01*
X65770500Y-75963750D01*
X65770500Y-74324249D01*
X65770499Y-74324247D01*
X65758868Y-74265770D01*
X65758867Y-74265769D01*
X65714552Y-74199447D01*
X65648230Y-74155132D01*
X65648229Y-74155131D01*
X65589752Y-74143500D01*
X65589748Y-74143500D01*
X63950252Y-74143500D01*
X63950247Y-74143500D01*
X63891770Y-74155131D01*
X63891769Y-74155132D01*
X63825447Y-74199447D01*
X63781132Y-74265769D01*
X63781131Y-74265770D01*
X63769500Y-74324247D01*
X35052000Y-74324247D01*
X35052000Y-72870730D01*
X38626300Y-72870730D01*
X38626300Y-73077669D01*
X38666668Y-73280612D01*
X38666670Y-73280620D01*
X38745858Y-73471796D01*
X38860824Y-73643857D01*
X39007142Y-73790175D01*
X39007145Y-73790177D01*
X39179202Y-73905141D01*
X39370380Y-73984330D01*
X39573330Y-74024699D01*
X39573334Y-74024700D01*
X39573335Y-74024700D01*
X40030266Y-74024700D01*
X40030267Y-74024699D01*
X40233220Y-73984330D01*
X40424398Y-73905141D01*
X40596455Y-73790177D01*
X40742777Y-73643855D01*
X40857741Y-73471798D01*
X40936930Y-73280620D01*
X40977300Y-73077665D01*
X40977300Y-72870735D01*
X40977299Y-72870730D01*
X44476300Y-72870730D01*
X44476300Y-73077669D01*
X44516668Y-73280612D01*
X44516670Y-73280620D01*
X44595858Y-73471796D01*
X44710824Y-73643857D01*
X44857142Y-73790175D01*
X44857145Y-73790177D01*
X45029202Y-73905141D01*
X45220380Y-73984330D01*
X45423330Y-74024699D01*
X45423334Y-74024700D01*
X45423335Y-74024700D01*
X45880266Y-74024700D01*
X45880267Y-74024699D01*
X46083220Y-73984330D01*
X46274398Y-73905141D01*
X46446455Y-73790177D01*
X46592777Y-73643855D01*
X46707741Y-73471798D01*
X46786930Y-73280620D01*
X46827300Y-73077665D01*
X46827300Y-72870735D01*
X46827299Y-72870730D01*
X50326300Y-72870730D01*
X50326300Y-73077669D01*
X50366668Y-73280612D01*
X50366670Y-73280620D01*
X50445858Y-73471796D01*
X50560824Y-73643857D01*
X50707142Y-73790175D01*
X50707145Y-73790177D01*
X50879202Y-73905141D01*
X51070380Y-73984330D01*
X51273330Y-74024699D01*
X51273334Y-74024700D01*
X51273335Y-74024700D01*
X51730266Y-74024700D01*
X51730267Y-74024699D01*
X51933220Y-73984330D01*
X52124398Y-73905141D01*
X52296455Y-73790177D01*
X52442777Y-73643855D01*
X52557741Y-73471798D01*
X52636930Y-73280620D01*
X52677300Y-73077665D01*
X52677300Y-72870735D01*
X52677299Y-72870730D01*
X56176300Y-72870730D01*
X56176300Y-73077669D01*
X56216668Y-73280612D01*
X56216670Y-73280620D01*
X56295858Y-73471796D01*
X56410824Y-73643857D01*
X56557142Y-73790175D01*
X56557145Y-73790177D01*
X56729202Y-73905141D01*
X56920380Y-73984330D01*
X57123330Y-74024699D01*
X57123334Y-74024700D01*
X57123335Y-74024700D01*
X57580266Y-74024700D01*
X57580267Y-74024699D01*
X57783220Y-73984330D01*
X57974398Y-73905141D01*
X58146455Y-73790177D01*
X58292777Y-73643855D01*
X58407741Y-73471798D01*
X58436964Y-73401248D01*
X58480805Y-73346844D01*
X58547099Y-73324779D01*
X58551525Y-73324700D01*
X59368942Y-73324700D01*
X59368944Y-73324700D01*
X59458088Y-73300814D01*
X59538012Y-73254670D01*
X65655829Y-67136850D01*
X65717150Y-67103367D01*
X65786842Y-67108351D01*
X65790961Y-67109972D01*
X65850057Y-67134450D01*
X65967580Y-67183130D01*
X66170530Y-67223499D01*
X66170534Y-67223500D01*
X66170535Y-67223500D01*
X66377466Y-67223500D01*
X66377467Y-67223499D01*
X66580420Y-67183130D01*
X66771598Y-67103941D01*
X66943655Y-66988977D01*
X67089977Y-66842655D01*
X67204941Y-66670598D01*
X67284130Y-66479420D01*
X67324500Y-66276465D01*
X67324500Y-65769535D01*
X67284130Y-65566580D01*
X67204941Y-65375402D01*
X67089977Y-65203345D01*
X67089975Y-65203342D01*
X66943657Y-65057024D01*
X66833218Y-64983232D01*
X66771598Y-64942059D01*
X66580420Y-64862870D01*
X66580412Y-64862868D01*
X66377469Y-64822500D01*
X66377465Y-64822500D01*
X66170535Y-64822500D01*
X66170530Y-64822500D01*
X65967587Y-64862868D01*
X65967579Y-64862870D01*
X65776403Y-64942058D01*
X65604342Y-65057024D01*
X65458024Y-65203342D01*
X65343058Y-65375403D01*
X65263870Y-65566579D01*
X65263868Y-65566587D01*
X65223500Y-65769530D01*
X65223500Y-66276469D01*
X65260566Y-66462815D01*
X65254339Y-66532407D01*
X65226630Y-66574687D01*
X59213937Y-72587381D01*
X59152614Y-72620866D01*
X59126256Y-72623700D01*
X58551525Y-72623700D01*
X58484486Y-72604015D01*
X58438731Y-72551211D01*
X58436964Y-72547152D01*
X58407743Y-72476605D01*
X58292775Y-72304542D01*
X58146457Y-72158224D01*
X58060426Y-72100741D01*
X57974398Y-72043259D01*
X57783220Y-71964070D01*
X57783212Y-71964068D01*
X57580269Y-71923700D01*
X57580265Y-71923700D01*
X57123335Y-71923700D01*
X57123330Y-71923700D01*
X56920387Y-71964068D01*
X56920379Y-71964070D01*
X56729203Y-72043258D01*
X56557142Y-72158224D01*
X56410824Y-72304542D01*
X56295858Y-72476603D01*
X56216670Y-72667779D01*
X56216668Y-72667787D01*
X56176300Y-72870730D01*
X52677299Y-72870730D01*
X52636930Y-72667780D01*
X52557741Y-72476602D01*
X52442777Y-72304545D01*
X52442775Y-72304542D01*
X52296457Y-72158224D01*
X52210426Y-72100741D01*
X52124398Y-72043259D01*
X51933220Y-71964070D01*
X51933212Y-71964068D01*
X51730269Y-71923700D01*
X51730265Y-71923700D01*
X51273335Y-71923700D01*
X51273330Y-71923700D01*
X51070387Y-71964068D01*
X51070379Y-71964070D01*
X50879203Y-72043258D01*
X50707142Y-72158224D01*
X50560824Y-72304542D01*
X50445858Y-72476603D01*
X50366670Y-72667779D01*
X50366668Y-72667787D01*
X50326300Y-72870730D01*
X46827299Y-72870730D01*
X46786930Y-72667780D01*
X46707741Y-72476602D01*
X46592777Y-72304545D01*
X46592775Y-72304542D01*
X46446457Y-72158224D01*
X46360426Y-72100741D01*
X46274398Y-72043259D01*
X46083220Y-71964070D01*
X46083212Y-71964068D01*
X45880269Y-71923700D01*
X45880265Y-71923700D01*
X45423335Y-71923700D01*
X45423330Y-71923700D01*
X45220387Y-71964068D01*
X45220379Y-71964070D01*
X45029203Y-72043258D01*
X44857142Y-72158224D01*
X44710824Y-72304542D01*
X44595858Y-72476603D01*
X44516670Y-72667779D01*
X44516668Y-72667787D01*
X44476300Y-72870730D01*
X40977299Y-72870730D01*
X40936930Y-72667780D01*
X40857741Y-72476602D01*
X40742777Y-72304545D01*
X40742775Y-72304542D01*
X40596457Y-72158224D01*
X40510426Y-72100741D01*
X40424398Y-72043259D01*
X40233220Y-71964070D01*
X40233212Y-71964068D01*
X40030269Y-71923700D01*
X40030265Y-71923700D01*
X39573335Y-71923700D01*
X39573330Y-71923700D01*
X39370387Y-71964068D01*
X39370379Y-71964070D01*
X39179203Y-72043258D01*
X39007142Y-72158224D01*
X38860824Y-72304542D01*
X38745858Y-72476603D01*
X38666670Y-72667779D01*
X38666668Y-72667787D01*
X38626300Y-72870730D01*
X35052000Y-72870730D01*
X35052000Y-70370730D01*
X38626300Y-70370730D01*
X38626300Y-70577669D01*
X38666668Y-70780612D01*
X38666670Y-70780620D01*
X38745858Y-70971796D01*
X38860824Y-71143857D01*
X39007142Y-71290175D01*
X39007145Y-71290177D01*
X39179202Y-71405141D01*
X39370380Y-71484330D01*
X39573330Y-71524699D01*
X39573334Y-71524700D01*
X39573335Y-71524700D01*
X40030266Y-71524700D01*
X40030267Y-71524699D01*
X40233220Y-71484330D01*
X40424398Y-71405141D01*
X40596455Y-71290177D01*
X40742777Y-71143855D01*
X40857741Y-70971798D01*
X40936930Y-70780620D01*
X40977300Y-70577665D01*
X40977300Y-70370735D01*
X40977299Y-70370730D01*
X44476300Y-70370730D01*
X44476300Y-70577669D01*
X44516668Y-70780612D01*
X44516670Y-70780620D01*
X44595858Y-70971796D01*
X44710824Y-71143857D01*
X44857142Y-71290175D01*
X44857145Y-71290177D01*
X45029202Y-71405141D01*
X45220380Y-71484330D01*
X45423330Y-71524699D01*
X45423334Y-71524700D01*
X45423335Y-71524700D01*
X45880266Y-71524700D01*
X45880267Y-71524699D01*
X46083220Y-71484330D01*
X46274398Y-71405141D01*
X46446455Y-71290177D01*
X46592777Y-71143855D01*
X46707741Y-70971798D01*
X46786930Y-70780620D01*
X46827300Y-70577665D01*
X46827300Y-70370735D01*
X46827299Y-70370730D01*
X50326300Y-70370730D01*
X50326300Y-70577669D01*
X50366668Y-70780612D01*
X50366670Y-70780620D01*
X50445858Y-70971796D01*
X50560824Y-71143857D01*
X50707142Y-71290175D01*
X50707145Y-71290177D01*
X50879202Y-71405141D01*
X51070380Y-71484330D01*
X51273330Y-71524699D01*
X51273334Y-71524700D01*
X51273335Y-71524700D01*
X51730266Y-71524700D01*
X51730267Y-71524699D01*
X51933220Y-71484330D01*
X52124398Y-71405141D01*
X52296455Y-71290177D01*
X52442777Y-71143855D01*
X52557741Y-70971798D01*
X52636930Y-70780620D01*
X52677300Y-70577665D01*
X52677300Y-70370735D01*
X52677299Y-70370730D01*
X56176300Y-70370730D01*
X56176300Y-70577669D01*
X56216668Y-70780612D01*
X56216670Y-70780620D01*
X56295858Y-70971796D01*
X56410824Y-71143857D01*
X56557142Y-71290175D01*
X56557145Y-71290177D01*
X56729202Y-71405141D01*
X56920380Y-71484330D01*
X57123330Y-71524699D01*
X57123334Y-71524700D01*
X57123335Y-71524700D01*
X57580266Y-71524700D01*
X57580267Y-71524699D01*
X57783220Y-71484330D01*
X57974398Y-71405141D01*
X58146455Y-71290177D01*
X58292777Y-71143855D01*
X58407741Y-70971798D01*
X58486930Y-70780620D01*
X58527300Y-70577665D01*
X58527300Y-70370735D01*
X58486930Y-70167780D01*
X58407741Y-69976602D01*
X58292777Y-69804545D01*
X58292775Y-69804542D01*
X58146457Y-69658224D01*
X58060426Y-69600741D01*
X57974398Y-69543259D01*
X57783220Y-69464070D01*
X57783212Y-69464068D01*
X57580269Y-69423700D01*
X57580265Y-69423700D01*
X57123335Y-69423700D01*
X57123330Y-69423700D01*
X56920387Y-69464068D01*
X56920379Y-69464070D01*
X56729203Y-69543258D01*
X56557142Y-69658224D01*
X56410824Y-69804542D01*
X56295858Y-69976603D01*
X56216670Y-70167779D01*
X56216668Y-70167787D01*
X56176300Y-70370730D01*
X52677299Y-70370730D01*
X52636930Y-70167780D01*
X52557741Y-69976602D01*
X52442777Y-69804545D01*
X52442775Y-69804542D01*
X52296457Y-69658224D01*
X52210426Y-69600741D01*
X52124398Y-69543259D01*
X51933220Y-69464070D01*
X51933212Y-69464068D01*
X51730269Y-69423700D01*
X51730265Y-69423700D01*
X51273335Y-69423700D01*
X51273330Y-69423700D01*
X51070387Y-69464068D01*
X51070379Y-69464070D01*
X50879203Y-69543258D01*
X50707142Y-69658224D01*
X50560824Y-69804542D01*
X50445858Y-69976603D01*
X50366670Y-70167779D01*
X50366668Y-70167787D01*
X50326300Y-70370730D01*
X46827299Y-70370730D01*
X46786930Y-70167780D01*
X46707741Y-69976602D01*
X46592777Y-69804545D01*
X46592775Y-69804542D01*
X46446457Y-69658224D01*
X46360426Y-69600741D01*
X46274398Y-69543259D01*
X46083220Y-69464070D01*
X46083212Y-69464068D01*
X45880269Y-69423700D01*
X45880265Y-69423700D01*
X45423335Y-69423700D01*
X45423330Y-69423700D01*
X45220387Y-69464068D01*
X45220379Y-69464070D01*
X45029203Y-69543258D01*
X44857142Y-69658224D01*
X44710824Y-69804542D01*
X44595858Y-69976603D01*
X44516670Y-70167779D01*
X44516668Y-70167787D01*
X44476300Y-70370730D01*
X40977299Y-70370730D01*
X40936930Y-70167780D01*
X40857741Y-69976602D01*
X40742777Y-69804545D01*
X40742775Y-69804542D01*
X40596457Y-69658224D01*
X40510426Y-69600741D01*
X40424398Y-69543259D01*
X40233220Y-69464070D01*
X40233212Y-69464068D01*
X40030269Y-69423700D01*
X40030265Y-69423700D01*
X39573335Y-69423700D01*
X39573330Y-69423700D01*
X39370387Y-69464068D01*
X39370379Y-69464070D01*
X39179203Y-69543258D01*
X39007142Y-69658224D01*
X38860824Y-69804542D01*
X38745858Y-69976603D01*
X38666670Y-70167779D01*
X38666668Y-70167787D01*
X38626300Y-70370730D01*
X35052000Y-70370730D01*
X35052000Y-63116000D01*
X35071685Y-63048961D01*
X35124489Y-63003206D01*
X35176000Y-62992000D01*
X69472000Y-62992000D01*
X69539039Y-63011685D01*
G37*
%TD.AperFunction*%
%TD*%
M02*
