%TF.GenerationSoftware,KiCad,Pcbnew,8.0.5*%
%TF.CreationDate,2024-10-26T16:11:41+09:00*%
%TF.ProjectId,_____,b5fcdcfa-7f2e-46b6-9963-61645f706362,rev?*%
%TF.SameCoordinates,Original*%
%TF.FileFunction,Legend,Bot*%
%TF.FilePolarity,Positive*%
%FSLAX46Y46*%
G04 Gerber Fmt 4.6, Leading zero omitted, Abs format (unit mm)*
G04 Created by KiCad (PCBNEW 8.0.5) date 2024-10-26 16:11:41*
%MOMM*%
%LPD*%
G01*
G04 APERTURE LIST*
G04 Aperture macros list*
%AMRoundRect*
0 Rectangle with rounded corners*
0 $1 Rounding radius*
0 $2 $3 $4 $5 $6 $7 $8 $9 X,Y pos of 4 corners*
0 Add a 4 corners polygon primitive as box body*
4,1,4,$2,$3,$4,$5,$6,$7,$8,$9,$2,$3,0*
0 Add four circle primitives for the rounded corners*
1,1,$1+$1,$2,$3*
1,1,$1+$1,$4,$5*
1,1,$1+$1,$6,$7*
1,1,$1+$1,$8,$9*
0 Add four rect primitives between the rounded corners*
20,1,$1+$1,$2,$3,$4,$5,0*
20,1,$1+$1,$4,$5,$6,$7,0*
20,1,$1+$1,$6,$7,$8,$9,0*
20,1,$1+$1,$8,$9,$2,$3,0*%
G04 Aperture macros list end*
%ADD10C,0.150000*%
%ADD11C,0.120000*%
%ADD12R,1.700000X1.700000*%
%ADD13O,1.700000X1.700000*%
%ADD14RoundRect,0.250000X-0.600000X-0.725000X0.600000X-0.725000X0.600000X0.725000X-0.600000X0.725000X0*%
%ADD15O,1.700000X1.950000*%
%ADD16RoundRect,0.250000X0.725000X-0.600000X0.725000X0.600000X-0.725000X0.600000X-0.725000X-0.600000X0*%
%ADD17O,1.950000X1.700000*%
%ADD18C,5.600000*%
%ADD19C,1.524000*%
%ADD20R,1.800000X1.800000*%
%ADD21C,1.800000*%
%ADD22RoundRect,0.250000X0.600000X0.750000X-0.600000X0.750000X-0.600000X-0.750000X0.600000X-0.750000X0*%
%ADD23O,1.700000X2.000000*%
%ADD24RoundRect,0.250000X0.750000X-0.600000X0.750000X0.600000X-0.750000X0.600000X-0.750000X-0.600000X0*%
%ADD25O,2.000000X1.700000*%
%ADD26RoundRect,0.250000X-0.750000X0.600000X-0.750000X-0.600000X0.750000X-0.600000X0.750000X0.600000X0*%
%ADD27RoundRect,0.250000X-0.725000X0.600000X-0.725000X-0.600000X0.725000X-0.600000X0.725000X0.600000X0*%
%ADD28R,1.600000X1.600000*%
%ADD29C,1.600000*%
%ADD30RoundRect,0.250001X-1.099999X-1.099999X1.099999X-1.099999X1.099999X1.099999X-1.099999X1.099999X0*%
%ADD31C,2.700000*%
%ADD32C,1.512000*%
%ADD33RoundRect,0.237500X-0.300000X-0.237500X0.300000X-0.237500X0.300000X0.237500X-0.300000X0.237500X0*%
%ADD34RoundRect,0.237500X0.237500X-0.300000X0.237500X0.300000X-0.237500X0.300000X-0.237500X-0.300000X0*%
%ADD35RoundRect,0.250000X-0.350000X0.850000X-0.350000X-0.850000X0.350000X-0.850000X0.350000X0.850000X0*%
%ADD36RoundRect,0.249997X-2.650003X2.950003X-2.650003X-2.950003X2.650003X-2.950003X2.650003X2.950003X0*%
%ADD37RoundRect,0.237500X-0.250000X-0.237500X0.250000X-0.237500X0.250000X0.237500X-0.250000X0.237500X0*%
G04 APERTURE END LIST*
D10*
X53119257Y-97158980D02*
X53166876Y-97206600D01*
X53166876Y-97206600D02*
X53309733Y-97254219D01*
X53309733Y-97254219D02*
X53404971Y-97254219D01*
X53404971Y-97254219D02*
X53547828Y-97206600D01*
X53547828Y-97206600D02*
X53643066Y-97111361D01*
X53643066Y-97111361D02*
X53690685Y-97016123D01*
X53690685Y-97016123D02*
X53738304Y-96825647D01*
X53738304Y-96825647D02*
X53738304Y-96682790D01*
X53738304Y-96682790D02*
X53690685Y-96492314D01*
X53690685Y-96492314D02*
X53643066Y-96397076D01*
X53643066Y-96397076D02*
X53547828Y-96301838D01*
X53547828Y-96301838D02*
X53404971Y-96254219D01*
X53404971Y-96254219D02*
X53309733Y-96254219D01*
X53309733Y-96254219D02*
X53166876Y-96301838D01*
X53166876Y-96301838D02*
X53119257Y-96349457D01*
X52166876Y-97254219D02*
X52738304Y-97254219D01*
X52452590Y-97254219D02*
X52452590Y-96254219D01*
X52452590Y-96254219D02*
X52547828Y-96397076D01*
X52547828Y-96397076D02*
X52643066Y-96492314D01*
X52643066Y-96492314D02*
X52738304Y-96539933D01*
X51309733Y-96587552D02*
X51309733Y-97254219D01*
X51547828Y-96206600D02*
X51785923Y-96920885D01*
X51785923Y-96920885D02*
X51166876Y-96920885D01*
X65129580Y-115816142D02*
X65177200Y-115768523D01*
X65177200Y-115768523D02*
X65224819Y-115625666D01*
X65224819Y-115625666D02*
X65224819Y-115530428D01*
X65224819Y-115530428D02*
X65177200Y-115387571D01*
X65177200Y-115387571D02*
X65081961Y-115292333D01*
X65081961Y-115292333D02*
X64986723Y-115244714D01*
X64986723Y-115244714D02*
X64796247Y-115197095D01*
X64796247Y-115197095D02*
X64653390Y-115197095D01*
X64653390Y-115197095D02*
X64462914Y-115244714D01*
X64462914Y-115244714D02*
X64367676Y-115292333D01*
X64367676Y-115292333D02*
X64272438Y-115387571D01*
X64272438Y-115387571D02*
X64224819Y-115530428D01*
X64224819Y-115530428D02*
X64224819Y-115625666D01*
X64224819Y-115625666D02*
X64272438Y-115768523D01*
X64272438Y-115768523D02*
X64320057Y-115816142D01*
X65224819Y-116768523D02*
X65224819Y-116197095D01*
X65224819Y-116482809D02*
X64224819Y-116482809D01*
X64224819Y-116482809D02*
X64367676Y-116387571D01*
X64367676Y-116387571D02*
X64462914Y-116292333D01*
X64462914Y-116292333D02*
X64510533Y-116197095D01*
X65224819Y-117720904D02*
X65224819Y-117149476D01*
X65224819Y-117435190D02*
X64224819Y-117435190D01*
X64224819Y-117435190D02*
X64367676Y-117339952D01*
X64367676Y-117339952D02*
X64462914Y-117244714D01*
X64462914Y-117244714D02*
X64510533Y-117149476D01*
X64637357Y-97184380D02*
X64684976Y-97232000D01*
X64684976Y-97232000D02*
X64827833Y-97279619D01*
X64827833Y-97279619D02*
X64923071Y-97279619D01*
X64923071Y-97279619D02*
X65065928Y-97232000D01*
X65065928Y-97232000D02*
X65161166Y-97136761D01*
X65161166Y-97136761D02*
X65208785Y-97041523D01*
X65208785Y-97041523D02*
X65256404Y-96851047D01*
X65256404Y-96851047D02*
X65256404Y-96708190D01*
X65256404Y-96708190D02*
X65208785Y-96517714D01*
X65208785Y-96517714D02*
X65161166Y-96422476D01*
X65161166Y-96422476D02*
X65065928Y-96327238D01*
X65065928Y-96327238D02*
X64923071Y-96279619D01*
X64923071Y-96279619D02*
X64827833Y-96279619D01*
X64827833Y-96279619D02*
X64684976Y-96327238D01*
X64684976Y-96327238D02*
X64637357Y-96374857D01*
X63684976Y-97279619D02*
X64256404Y-97279619D01*
X63970690Y-97279619D02*
X63970690Y-96279619D01*
X63970690Y-96279619D02*
X64065928Y-96422476D01*
X64065928Y-96422476D02*
X64161166Y-96517714D01*
X64161166Y-96517714D02*
X64256404Y-96565333D01*
X63351642Y-96279619D02*
X62732595Y-96279619D01*
X62732595Y-96279619D02*
X63065928Y-96660571D01*
X63065928Y-96660571D02*
X62923071Y-96660571D01*
X62923071Y-96660571D02*
X62827833Y-96708190D01*
X62827833Y-96708190D02*
X62780214Y-96755809D01*
X62780214Y-96755809D02*
X62732595Y-96851047D01*
X62732595Y-96851047D02*
X62732595Y-97089142D01*
X62732595Y-97089142D02*
X62780214Y-97184380D01*
X62780214Y-97184380D02*
X62827833Y-97232000D01*
X62827833Y-97232000D02*
X62923071Y-97279619D01*
X62923071Y-97279619D02*
X63208785Y-97279619D01*
X63208785Y-97279619D02*
X63304023Y-97232000D01*
X63304023Y-97232000D02*
X63351642Y-97184380D01*
X100552238Y-133239657D02*
X100647476Y-133192038D01*
X100647476Y-133192038D02*
X100742714Y-133096800D01*
X100742714Y-133096800D02*
X100885571Y-132953942D01*
X100885571Y-132953942D02*
X100980809Y-132906323D01*
X100980809Y-132906323D02*
X101076047Y-132906323D01*
X101028428Y-133144419D02*
X101123666Y-133096800D01*
X101123666Y-133096800D02*
X101218904Y-133001561D01*
X101218904Y-133001561D02*
X101266523Y-132811085D01*
X101266523Y-132811085D02*
X101266523Y-132477752D01*
X101266523Y-132477752D02*
X101218904Y-132287276D01*
X101218904Y-132287276D02*
X101123666Y-132192038D01*
X101123666Y-132192038D02*
X101028428Y-132144419D01*
X101028428Y-132144419D02*
X100837952Y-132144419D01*
X100837952Y-132144419D02*
X100742714Y-132192038D01*
X100742714Y-132192038D02*
X100647476Y-132287276D01*
X100647476Y-132287276D02*
X100599857Y-132477752D01*
X100599857Y-132477752D02*
X100599857Y-132811085D01*
X100599857Y-132811085D02*
X100647476Y-133001561D01*
X100647476Y-133001561D02*
X100742714Y-133096800D01*
X100742714Y-133096800D02*
X100837952Y-133144419D01*
X100837952Y-133144419D02*
X101028428Y-133144419D01*
X99647476Y-133144419D02*
X100218904Y-133144419D01*
X99933190Y-133144419D02*
X99933190Y-132144419D01*
X99933190Y-132144419D02*
X100028428Y-132287276D01*
X100028428Y-132287276D02*
X100123666Y-132382514D01*
X100123666Y-132382514D02*
X100218904Y-132430133D01*
X104052666Y-120469819D02*
X104385999Y-119993628D01*
X104624094Y-120469819D02*
X104624094Y-119469819D01*
X104624094Y-119469819D02*
X104243142Y-119469819D01*
X104243142Y-119469819D02*
X104147904Y-119517438D01*
X104147904Y-119517438D02*
X104100285Y-119565057D01*
X104100285Y-119565057D02*
X104052666Y-119660295D01*
X104052666Y-119660295D02*
X104052666Y-119803152D01*
X104052666Y-119803152D02*
X104100285Y-119898390D01*
X104100285Y-119898390D02*
X104147904Y-119946009D01*
X104147904Y-119946009D02*
X104243142Y-119993628D01*
X104243142Y-119993628D02*
X104624094Y-119993628D01*
X103576475Y-120469819D02*
X103385999Y-120469819D01*
X103385999Y-120469819D02*
X103290761Y-120422200D01*
X103290761Y-120422200D02*
X103243142Y-120374580D01*
X103243142Y-120374580D02*
X103147904Y-120231723D01*
X103147904Y-120231723D02*
X103100285Y-120041247D01*
X103100285Y-120041247D02*
X103100285Y-119660295D01*
X103100285Y-119660295D02*
X103147904Y-119565057D01*
X103147904Y-119565057D02*
X103195523Y-119517438D01*
X103195523Y-119517438D02*
X103290761Y-119469819D01*
X103290761Y-119469819D02*
X103481237Y-119469819D01*
X103481237Y-119469819D02*
X103576475Y-119517438D01*
X103576475Y-119517438D02*
X103624094Y-119565057D01*
X103624094Y-119565057D02*
X103671713Y-119660295D01*
X103671713Y-119660295D02*
X103671713Y-119898390D01*
X103671713Y-119898390D02*
X103624094Y-119993628D01*
X103624094Y-119993628D02*
X103576475Y-120041247D01*
X103576475Y-120041247D02*
X103481237Y-120088866D01*
X103481237Y-120088866D02*
X103290761Y-120088866D01*
X103290761Y-120088866D02*
X103195523Y-120041247D01*
X103195523Y-120041247D02*
X103147904Y-119993628D01*
X103147904Y-119993628D02*
X103100285Y-119898390D01*
X65129580Y-126992142D02*
X65177200Y-126944523D01*
X65177200Y-126944523D02*
X65224819Y-126801666D01*
X65224819Y-126801666D02*
X65224819Y-126706428D01*
X65224819Y-126706428D02*
X65177200Y-126563571D01*
X65177200Y-126563571D02*
X65081961Y-126468333D01*
X65081961Y-126468333D02*
X64986723Y-126420714D01*
X64986723Y-126420714D02*
X64796247Y-126373095D01*
X64796247Y-126373095D02*
X64653390Y-126373095D01*
X64653390Y-126373095D02*
X64462914Y-126420714D01*
X64462914Y-126420714D02*
X64367676Y-126468333D01*
X64367676Y-126468333D02*
X64272438Y-126563571D01*
X64272438Y-126563571D02*
X64224819Y-126706428D01*
X64224819Y-126706428D02*
X64224819Y-126801666D01*
X64224819Y-126801666D02*
X64272438Y-126944523D01*
X64272438Y-126944523D02*
X64320057Y-126992142D01*
X65224819Y-127944523D02*
X65224819Y-127373095D01*
X65224819Y-127658809D02*
X64224819Y-127658809D01*
X64224819Y-127658809D02*
X64367676Y-127563571D01*
X64367676Y-127563571D02*
X64462914Y-127468333D01*
X64462914Y-127468333D02*
X64510533Y-127373095D01*
X64320057Y-128325476D02*
X64272438Y-128373095D01*
X64272438Y-128373095D02*
X64224819Y-128468333D01*
X64224819Y-128468333D02*
X64224819Y-128706428D01*
X64224819Y-128706428D02*
X64272438Y-128801666D01*
X64272438Y-128801666D02*
X64320057Y-128849285D01*
X64320057Y-128849285D02*
X64415295Y-128896904D01*
X64415295Y-128896904D02*
X64510533Y-128896904D01*
X64510533Y-128896904D02*
X64653390Y-128849285D01*
X64653390Y-128849285D02*
X65224819Y-128277857D01*
X65224819Y-128277857D02*
X65224819Y-128896904D01*
D11*
%TO.C,C14*%
X52557267Y-97610200D02*
X52264733Y-97610200D01*
X52557267Y-98630200D02*
X52264733Y-98630200D01*
%TO.C,C11*%
X65530000Y-116312733D02*
X65530000Y-116605267D01*
X66550000Y-116312733D02*
X66550000Y-116605267D01*
%TO.C,C13*%
X64140767Y-97610200D02*
X63848233Y-97610200D01*
X64140767Y-98630200D02*
X63848233Y-98630200D01*
%TO.C,Q1*%
X97056800Y-123825600D02*
X97056800Y-130245600D01*
X97326800Y-123825600D02*
X97056800Y-123825600D01*
X103686800Y-123825600D02*
X103956800Y-123825600D01*
X103956800Y-123825600D02*
X103956800Y-130245600D01*
X97366800Y-122405600D02*
X97036800Y-122645600D01*
X97036800Y-122165600D01*
X97366800Y-122405600D01*
G36*
X97366800Y-122405600D02*
G01*
X97036800Y-122645600D01*
X97036800Y-122165600D01*
X97366800Y-122405600D01*
G37*
%TO.C,R9*%
X100986024Y-119492500D02*
X100476576Y-119492500D01*
X100986024Y-120537500D02*
X100476576Y-120537500D01*
%TO.C,C12*%
X65530000Y-127488733D02*
X65530000Y-127781267D01*
X66550000Y-127488733D02*
X66550000Y-127781267D01*
%TD*%
%LPC*%
D12*
%TO.C,J2*%
X80645000Y-94615000D03*
D13*
X78105000Y-94615000D03*
X75565000Y-94615000D03*
X73025000Y-94615000D03*
%TD*%
D14*
%TO.C,J17*%
X51602000Y-100017700D03*
D15*
X54102000Y-100017700D03*
X56602000Y-100017700D03*
%TD*%
D16*
%TO.C,J1*%
X67937500Y-117475000D03*
D17*
X67937500Y-114975000D03*
X67937500Y-112475000D03*
%TD*%
D14*
%TO.C,J16*%
X63032000Y-100017700D03*
D15*
X65532000Y-100017700D03*
X68032000Y-100017700D03*
%TD*%
D18*
%TO.C,REF\u002A\u002A*%
X51548500Y-105359200D03*
%TD*%
D19*
%TO.C,ToF1*%
X52705000Y-177165000D03*
X52705000Y-179705000D03*
X52705000Y-182245000D03*
X52705000Y-184785000D03*
X52705000Y-187325000D03*
%TD*%
D20*
%TO.C,D1*%
X74676000Y-99542600D03*
D21*
X74676000Y-102082600D03*
%TD*%
D19*
%TO.C,VisionAI1*%
X90277069Y-183264726D03*
X90277069Y-180724726D03*
X90277069Y-178184726D03*
X90277069Y-175644726D03*
X90277069Y-173104726D03*
X90277069Y-170564726D03*
X90297000Y-168021000D03*
X105517069Y-168024726D03*
X105517069Y-170564726D03*
X105517069Y-173104726D03*
X105517069Y-175644726D03*
X105517069Y-178184726D03*
X105517069Y-180724726D03*
X105517069Y-183264726D03*
%TD*%
D18*
%TO.C,REF\u002A\u002A*%
X51562000Y-172339000D03*
%TD*%
D19*
%TO.C,Gyro1*%
X75565000Y-176911000D03*
X73025000Y-176911000D03*
X70485000Y-176911000D03*
X67945000Y-176911000D03*
X67945000Y-184531000D03*
X70485000Y-184531000D03*
X73025000Y-184531000D03*
X75565000Y-184531000D03*
%TD*%
%TO.C,U5*%
X50800000Y-144145000D03*
X53340000Y-144145000D03*
X55880000Y-144145000D03*
X58420000Y-144145000D03*
X58420000Y-136525000D03*
X55880000Y-136525000D03*
X53340000Y-136525000D03*
X50800000Y-136525000D03*
%TD*%
%TO.C,U6*%
X62306200Y-144145000D03*
X64846200Y-144145000D03*
X67386200Y-144145000D03*
X69926200Y-144145000D03*
X69926200Y-136525000D03*
X67386200Y-136525000D03*
X64846200Y-136525000D03*
X62306200Y-136525000D03*
%TD*%
D22*
%TO.C,J3*%
X99192400Y-155646800D03*
D23*
X96692400Y-155646800D03*
%TD*%
D12*
%TO.C,J7*%
X140970000Y-150480000D03*
D13*
X140970000Y-147940000D03*
X140970000Y-145400000D03*
%TD*%
D24*
%TO.C,J19*%
X108559600Y-125309000D03*
D25*
X108559600Y-122809000D03*
%TD*%
D18*
%TO.C,REF\u002A\u002A*%
X145034000Y-110109000D03*
%TD*%
D26*
%TO.C,SW1*%
X52705000Y-161711000D03*
D25*
X52705000Y-164211000D03*
%TD*%
D16*
%TO.C,J15*%
X67930000Y-128865000D03*
D17*
X67930000Y-126365000D03*
X67930000Y-123865000D03*
%TD*%
D12*
%TO.C,SubBoard1*%
X120015000Y-104775000D03*
D13*
X122555000Y-104775000D03*
X125095000Y-104775000D03*
X127635000Y-104775000D03*
X130175000Y-104775000D03*
X132715000Y-104775000D03*
X135255000Y-104775000D03*
X137795000Y-104775000D03*
X140335000Y-104775000D03*
X142875000Y-104775000D03*
X120015000Y-102235000D03*
X122555000Y-102235000D03*
X125095000Y-102235000D03*
X127635000Y-102235000D03*
X130175000Y-102235000D03*
X132715000Y-102235000D03*
X135255000Y-102235000D03*
X137795000Y-102235000D03*
X140335000Y-102235000D03*
X142875000Y-102235000D03*
%TD*%
D12*
%TO.C,J8*%
X145415000Y-150495000D03*
D13*
X145415000Y-147955000D03*
X145415000Y-145415000D03*
%TD*%
D27*
%TO.C,J9*%
X143611600Y-156965000D03*
D17*
X143611600Y-159465000D03*
X143611600Y-161965000D03*
X143611600Y-164465000D03*
%TD*%
D28*
%TO.C,C2*%
X116763800Y-184770400D03*
D29*
X116763800Y-182270400D03*
%TD*%
D30*
%TO.C,J4*%
X86949000Y-117685000D03*
D31*
X90909000Y-117685000D03*
X94869000Y-117685000D03*
X98829000Y-117685000D03*
X102789000Y-117685000D03*
%TD*%
D18*
%TO.C,REF\u002A\u002A*%
X144957800Y-171043600D03*
%TD*%
D19*
%TO.C,ToF2*%
X143637000Y-187325000D03*
X143637000Y-184785000D03*
X143637000Y-182245000D03*
X143637000Y-179705000D03*
X143637000Y-177165000D03*
%TD*%
D28*
%TO.C,U7*%
X73025000Y-120269000D03*
D29*
X73025000Y-122809000D03*
X73025000Y-125349000D03*
X73025000Y-127889000D03*
X73025000Y-130429000D03*
X73025000Y-132969000D03*
X73025000Y-135509000D03*
X73025000Y-138049000D03*
X73025000Y-140589000D03*
X73025000Y-143129000D03*
X80645000Y-143129000D03*
X80645000Y-140589000D03*
X80645000Y-138049000D03*
X80645000Y-135509000D03*
X80645000Y-132969000D03*
X80645000Y-130429000D03*
X80645000Y-127889000D03*
X80645000Y-125349000D03*
X80645000Y-122809000D03*
X80645000Y-120269000D03*
%TD*%
D32*
%TO.C,U2*%
X137160000Y-182245000D03*
X137160000Y-179705000D03*
X137160000Y-177165000D03*
X137160000Y-174625000D03*
X137160000Y-149225000D03*
X121920000Y-179705000D03*
X137160000Y-172085000D03*
X137160000Y-169545000D03*
X137160000Y-167005000D03*
X137160000Y-164465000D03*
X137160000Y-161925000D03*
X137160000Y-159385000D03*
X137160000Y-156845000D03*
X137160000Y-154305000D03*
X137160000Y-151765000D03*
X121920000Y-151765000D03*
X121920000Y-154305000D03*
X121920000Y-156845000D03*
X121920000Y-159385000D03*
X121920000Y-161925000D03*
X121920000Y-164465000D03*
X121920000Y-167005000D03*
X121920000Y-169545000D03*
X121920000Y-172085000D03*
X121920000Y-174625000D03*
X121920000Y-177165000D03*
X137160000Y-146685000D03*
X137160000Y-144145000D03*
X137160000Y-141605000D03*
X137160000Y-139065000D03*
X137160000Y-136525000D03*
X137160000Y-133985000D03*
X137160000Y-131445000D03*
X137160000Y-128905000D03*
X137160000Y-126365000D03*
X121920000Y-126365000D03*
X121920000Y-128905000D03*
X121920000Y-131445000D03*
X121920000Y-133985000D03*
X121920000Y-136525000D03*
X121920000Y-139065000D03*
X121920000Y-141605000D03*
X121920000Y-144145000D03*
X121920000Y-146685000D03*
X137160000Y-184785000D03*
X121920000Y-149225000D03*
X121920000Y-182245000D03*
X121920000Y-184785000D03*
%TD*%
D26*
%TO.C,SW2*%
X60960000Y-161660200D03*
D25*
X60960000Y-164160200D03*
%TD*%
D28*
%TO.C,C10*%
X67945000Y-104561000D03*
D29*
X67945000Y-107061000D03*
%TD*%
D28*
%TO.C,C9*%
X60960000Y-107021000D03*
D29*
X60960000Y-104521000D03*
%TD*%
D12*
%TO.C,Line1*%
X86868000Y-97155000D03*
D13*
X89408000Y-97155000D03*
X91948000Y-97155000D03*
X94488000Y-97155000D03*
X97028000Y-97155000D03*
X99568000Y-97155000D03*
X102108000Y-97155000D03*
X104648000Y-97155000D03*
X107188000Y-97155000D03*
X109728000Y-97155000D03*
X86868000Y-94615000D03*
X89408000Y-94615000D03*
X91948000Y-94615000D03*
X94488000Y-94615000D03*
X97028000Y-94615000D03*
X99568000Y-94615000D03*
X102108000Y-94615000D03*
X104648000Y-94615000D03*
X107188000Y-94615000D03*
X109728000Y-94615000D03*
%TD*%
D33*
%TO.C,C14*%
X51548500Y-98120200D03*
X53273500Y-98120200D03*
%TD*%
D34*
%TO.C,C11*%
X66040000Y-117321500D03*
X66040000Y-115596500D03*
%TD*%
D33*
%TO.C,C13*%
X63132000Y-98120200D03*
X64857000Y-98120200D03*
%TD*%
D35*
%TO.C,Q1*%
X98226800Y-122095600D03*
D36*
X100506800Y-128395600D03*
D35*
X102786800Y-122095600D03*
%TD*%
D37*
%TO.C,R9*%
X99818800Y-120015000D03*
X101643800Y-120015000D03*
%TD*%
D34*
%TO.C,C12*%
X66040000Y-128497500D03*
X66040000Y-126772500D03*
%TD*%
%LPD*%
M02*
