M48
; DRILL file {KiCad 8.0.5} date 2024-09-29T16:31:31+0900
; FORMAT={-:-/ absolute / inch / decimal}
; #@! TF.CreationDate,2024-09-29T16:31:31+09:00
; #@! TF.GenerationSoftware,Kicad,Pcbnew,8.0.5
; #@! TF.FileFunction,Plated,1,2,PTH
FMAT,2
INCH
; #@! TA.AperFunction,Plated,PTH,ViaDrill
T1C0.0118
; #@! TA.AperFunction,Plated,PTH,ViaDrill
T2C0.0157
; #@! TA.AperFunction,Plated,PTH,ComponentDrill
T3C0.0300
; #@! TA.AperFunction,Plated,PTH,ComponentDrill
T4C0.0315
; #@! TA.AperFunction,Plated,PTH,ComponentDrill
T5C0.0354
; #@! TA.AperFunction,Plated,PTH,ComponentDrill
T6C0.0374
; #@! TA.AperFunction,Plated,PTH,ComponentDrill
T7C0.0394
; #@! TA.AperFunction,Plated,PTH,ComponentDrill
T8C0.0433
; #@! TA.AperFunction,Plated,PTH,ComponentDrill
T9C0.0470
; #@! TA.AperFunction,Plated,PTH,ComponentDrill
T10C0.0669
; #@! TA.AperFunction,Plated,PTH,ComponentDrill
T11C0.0748
; #@! TA.AperFunction,Plated,PTH,ComponentDrill
T12C0.1260
%
G90
G05
T1
X1.375Y-7.4
X1.488Y-1.435
X1.606Y-1.397
X1.738Y-1.433
X1.74Y-1.137
X1.752Y-1.257
X1.9Y-7.4
X2.138Y-1.717
X2.532Y-1.715
X2.75Y-7.4
X2.918Y-3.821
X2.978Y-1.719
X2.996Y-3.905
X3.046Y-3.747
X3.054Y-4.205
X3.056Y-3.961
X3.058Y-4.127
X3.058Y-5.309
X3.106Y-3.897
X3.184Y-3.977
X3.308Y-1.715
X3.368Y-2.187
X3.382Y-3.873
X3.398Y-2.829
X3.45Y-7.4
X3.454Y-3.829
X3.544Y-2.359
X3.59Y-1.145
X3.59Y-1.255
X3.59Y-1.345
X3.59Y-1.455
X3.594Y-2.481
X3.598Y-3.771
X3.62Y-2.849
X3.676Y-2.095
X3.696Y-2.849
X3.706Y-1.715
X3.75Y-3.767
X3.768Y-3.877
X3.776Y-2.093
X3.778Y-2.425
X3.8Y-2.849
X3.878Y-2.091
X3.9Y-3.785
X3.902Y-2.849
X3.908Y-3.693
X3.932Y-1.707
X3.95Y-1.345
X3.966Y-2.425
X3.968Y-2.181
X3.974Y-2.261
X3.974Y-2.831
X4.01Y-2.757
X4.038Y-2.305
X4.038Y-2.689
X4.038Y-2.881
X4.042Y-2.601
X4.074Y-3.333
X4.076Y-3.123
X4.076Y-3.691
X4.098Y-3.771
X4.112Y-2.967
X4.124Y-3.077
X4.126Y-3.331
X4.14Y-3.815
X4.174Y-1.867
X4.176Y-2.101
X4.184Y-2.609
X4.184Y-3.601
X4.186Y-3.133
X4.186Y-3.349
X4.194Y-3.695
X4.23Y-1.345
X4.25Y-2.995
X4.25Y-3.197
X4.252Y-3.399
X4.252Y-3.607
X4.26Y-3.771
X4.27Y-2.559
X4.286Y-2.937
X4.29Y-3.689
X4.314Y-3.261
X4.328Y-3.587
X4.354Y-2.897
X4.356Y-2.543
X4.366Y-3.669
X4.37Y-3.765
X4.39Y-1.315
X4.39Y-2.811
X4.4Y-1.215
X4.414Y-3.723
X4.434Y-4.059
X4.458Y-2.533
X4.46Y-2.759
X4.462Y-3.967
X4.47Y-1.225
X4.504Y-3.809
X4.508Y-3.911
X4.51Y-2.159
X4.532Y-2.717
X4.554Y-2.025
X4.56Y-6.235
X4.57Y-6.135
X4.576Y-3.851
X4.58Y-4.93
X4.588Y-2.571
X4.595Y-5.54
X4.598Y-2.685
X4.6Y-3.263
X4.6Y-5.19
X4.6Y-5.29
X4.6Y-5.795
X4.602Y-5.985
X4.605Y-5.08
X4.61Y-4.855
X4.61Y-6.29
X4.62Y-6.67
X4.625Y-6.76
X4.63Y-6.125
X4.644Y-2.419
X4.648Y-3.221
X4.674Y-3.341
X4.675Y-6.125
X4.68Y-2.563
X4.68Y-2.657
X4.68Y-3.063
X4.7Y-3.169
X4.714Y-3.477
X4.715Y-6.29
X4.715Y-6.67
X4.722Y-3.289
X4.724Y-3.021
X4.725Y-6.76
X4.735Y-6.555
X4.736Y-3.121
X4.748Y-1.429
X4.75Y-2.629
X4.756Y-3.417
X4.776Y-3.243
X4.778Y-3.069
X4.78Y-6.61
X4.792Y-2.983
X4.8Y-2.5
X4.804Y-1.637
X4.815Y-6.67
X4.82Y-3.201
X4.825Y-6.76
X4.826Y-1.751
X4.84Y-1.237
X4.846Y-1.121
X4.87Y-3.053
X4.87Y-3.165
X4.885Y-6.7
X4.928Y-1.687
X4.945Y-6.93
X4.95Y-3.131
X4.976Y-1.255
X4.976Y-1.401
X4.985Y-6.865
X5.02Y-6.495
X5.025Y-2.375
X5.035Y-7.025
X5.04Y-6.775
X5.06Y-5.633
X5.06Y-6.555
X5.065Y-6.94
X5.1Y-2.7
X5.104Y-3.653
X5.108Y-3.251
X5.12Y-6.85
X5.13Y-1.433
X5.14Y-1.287
X5.14Y-4.685
X5.145Y-7.035
X5.145Y-7.135
X5.175Y-2.7
X5.176Y-3.253
X5.19Y-6.425
X5.195Y-6.97
X5.22Y-6.295
X5.225Y-6.05
X5.225Y-6.15
X5.262Y-6.111
X5.275Y-6.35
X5.286Y-2.801
X5.3Y-1.247
X5.315Y-7.3
X5.355Y-3.61
X5.355Y-7.405
X5.36Y-2.885
X5.36Y-4.965
X5.375Y-7.0
X5.375Y-7.105
X5.375Y-7.2
X5.39Y-6.235
X5.396Y-1.037
X5.462Y-1.051
X5.48Y-6.175
X5.49Y-5.105
X5.62Y-2.665
T2
X1.0Y-6.675
X1.0Y-6.875
X1.0Y-7.075
X1.002Y-1.409
X1.075Y-1.925
X1.075Y-2.1
X1.075Y-2.275
X1.075Y-2.475
X1.076Y-1.817
X1.122Y-1.309
X1.124Y-1.681
X1.128Y-1.067
X1.15Y-7.275
X1.158Y-1.431
X1.225Y-5.175
X1.225Y-5.625
X1.225Y-6.0
X1.225Y-6.325
X1.225Y-6.675
X1.25Y-2.1
X1.25Y-2.275
X1.25Y-2.475
X1.256Y-6.713
X1.3Y-2.65
X1.3Y-6.75
X1.33Y-6.91
X1.33Y-7.001
X1.358Y-1.393
X1.359Y-6.562
X1.375Y-3.375
X1.375Y-3.55
X1.375Y-3.725
X1.375Y-4.0
X1.375Y-7.075
X1.375Y-7.275
X1.38Y-2.745
X1.38Y-2.925
X1.425Y-2.775
X1.425Y-2.975
X1.425Y-3.2
X1.45Y-3.3
X1.45Y-6.675
X1.46Y-2.275
X1.475Y-1.925
X1.475Y-2.1
X1.486Y-1.347
X1.488Y-1.245
X1.5Y-1.645
X1.5Y-5.075
X1.5Y-5.375
X1.5Y-5.75
X1.5Y-6.125
X1.525Y-2.2027
X1.525Y-2.55
X1.544Y-0.877
X1.55Y-2.65
X1.55Y-3.075
X1.55Y-3.725
X1.55Y-3.875
X1.55Y-4.0
X1.55Y-6.5
X1.6Y-2.275
X1.6Y-6.275
X1.625Y-1.925
X1.65Y-1.553
X1.65Y-1.645
X1.65Y-3.4
X1.675Y-2.475
X1.7Y-2.6
X1.725Y-0.85
X1.725Y-2.25
X1.725Y-2.35
X1.725Y-3.725
X1.725Y-3.875
X1.725Y-4.0
X1.725Y-5.875
X1.75Y-6.675
X1.786Y-1.423
X1.8Y-1.925
X1.8Y-2.05
X1.8Y-2.15
X1.8Y-3.15
X1.8Y-6.85
X1.8Y-7.075
X1.815Y-0.895
X1.825Y-1.375
X1.825Y-2.2027
X1.825Y-5.975
X1.85Y-5.075
X1.85Y-5.45
X1.85Y-5.725
X1.875Y-1.1
X1.875Y-2.925
X1.875Y-3.725
X1.875Y-4.0
X1.875Y-6.275
X1.9Y-3.25
X1.9Y-3.525
X1.925Y-2.2
X1.925Y-5.9
X1.95Y-1.1
X1.95Y-1.425
X1.95Y-1.6289
X1.98Y-1.795
X2.0Y-1.175
X2.0Y-1.375
X2.0Y-5.8
X2.0Y-6.15
X2.025Y-1.975
X2.05Y-2.215
X2.075Y-3.3
X2.075Y-6.05
X2.1Y-5.725
X2.1Y-6.775
X2.1Y-7.15
X2.12Y-1.085
X2.125Y-3.525
X2.144Y-1.643
X2.15Y-1.375
X2.17Y-2.395
X2.175Y-1.975
X2.175Y-2.025
X2.175Y-4.55
X2.175Y-5.1
X2.175Y-5.425
X2.2Y-5.8
X2.2Y-6.175
X2.225Y-2.2
X2.225Y-2.3
X2.225Y-2.525
X2.225Y-2.65
X2.225Y-2.8
X2.225Y-2.95
X2.225Y-3.125
X2.225Y-3.3
X2.225Y-3.475
X2.225Y-3.725
X2.225Y-3.85
X2.225Y-5.925
X2.245Y-1.36
X2.275Y-1.9
X2.275Y-1.975
X2.275Y-2.025
X2.29Y-2.065
X2.3Y-6.425
X2.35Y-2.525
X2.35Y-2.65
X2.35Y-2.8
X2.37Y-1.935
X2.375Y-1.425
X2.375Y-5.425
X2.375Y-6.0
X2.4Y-3.125
X2.4Y-3.3
X2.4Y-3.5
X2.425Y-2.95
X2.45Y-3.725
X2.45Y-3.85
X2.45Y-5.625
X2.49Y-1.935
X2.49Y-2.065
X2.5Y-2.3
X2.5Y-2.65
X2.5Y-2.8
X2.528Y-1.643
X2.575Y-1.425
X2.575Y-4.025
X2.584Y-1.113
X2.61Y-1.935
X2.61Y-2.065
X2.625Y-6.8
X2.625Y-7.15
X2.725Y-4.05
X2.725Y-4.55
X2.725Y-5.1
X2.725Y-5.625
X2.725Y-6.0
X2.725Y-6.3
X2.737Y-6.7928
X2.74Y-1.935
X2.74Y-2.065
X2.758Y-5.863
X2.8Y-1.425
X2.8Y-6.775
X2.862Y-1.115
X2.87Y-1.255
X2.88Y-1.935
X2.88Y-2.065
X2.902Y-2.359
X2.906Y-2.683
X2.91Y-1.36
X2.919Y-1.5405
X2.9215Y-5.8605
X2.925Y-6.0
X2.925Y-6.35
X2.94Y-4.045
X2.943Y-5.36
X2.95Y-4.325
X2.95Y-4.6
X2.95Y-4.875
X2.95Y-5.1
X2.95Y-5.625
X2.966Y-3.485
X2.975Y-1.325
X2.98Y-1.643
X3.02Y-1.935
X3.02Y-2.065
X3.021Y-5.902
X3.07Y-1.835
X3.094Y-2.529
X3.1Y-1.6
X3.1Y-5.8
X3.1Y-7.042
X3.1Y-7.15
X3.104Y-2.865
X3.129Y-1.428
X3.15Y-6.5
X3.16Y-1.935
X3.178Y-2.229
X3.205Y-5.831
X3.215Y-1.535
X3.225Y-4.1
X3.225Y-5.95
X3.225Y-6.25
X3.25Y-4.6
X3.25Y-4.875
X3.25Y-5.1
X3.25Y-5.3
X3.25Y-5.475
X3.25Y-5.675
X3.252Y-6.861
X3.275Y-5.825
X3.3Y-6.5
X3.328Y-3.477
X3.366Y-2.535
X3.376Y-3.027
X3.41Y-1.935
X3.45Y-7.075
X3.475Y-1.9
X3.484Y-2.413
X3.504Y-2.835
X3.5045Y-5.5315
X3.516Y-3.485
X3.525Y-6.675
X3.526Y-6.913
X3.53Y-2.115
X3.54Y-1.805
X3.55Y-4.925
X3.55Y-5.15
X3.55Y-5.375
X3.55Y-5.6
X3.55Y-5.725
X3.55Y-5.825
X3.55Y-5.95
X3.575Y-4.1
X3.575Y-4.325
X3.595Y-1.9
X3.596Y-3.007
X3.62Y-2.455
X3.65Y-5.55
X3.66Y-2.305
X3.67Y-2.205
X3.68Y-1.935
X3.705Y-2.025
X3.71Y-1.175
X3.725Y-5.375
X3.725Y-7.325
X3.73Y-2.455
X3.75Y-2.9205
X3.75Y-5.675
X3.77Y-4.95
X3.775Y-6.125
X3.775Y-6.325
X3.775Y-6.55
X3.78Y-2.255
X3.787Y-5.86
X3.79Y-1.355
X3.79Y-1.455
X3.8Y-4.1
X3.8Y-4.75
X3.8Y-6.975
X3.82Y-4.98
X3.825Y-7.25
X3.85Y-5.925
X3.86Y-2.215
X3.8644Y-2.2663
X3.8652Y-3.0125
X3.87Y-1.615
X3.87Y-2.025
X3.875Y-1.86
X3.875Y-5.075
X3.875Y-5.775
X3.875Y-6.675
X3.88Y-1.175
X3.88Y-3.477
X3.9Y-3.735
X3.9065Y-3.973
X3.9325Y-4.2255
X3.947Y-1.448
X3.96Y-0.825
X3.965Y-7.006
X3.975Y-4.95
X3.975Y-7.075
X3.98Y-1.775
X3.98Y-2.025
X3.99Y-2.115
X3.998Y-2.223
X4.0Y-1.115
X4.0Y-4.525
X4.0Y-5.55
X4.0Y-5.925
X4.0Y-6.075
X4.0Y-7.325
X4.002Y-4.637
X4.003Y-5.861
X4.0082Y-5.0288
X4.025Y-1.63
X4.025Y-5.225
X4.025Y-6.85
X4.0295Y-3.075
X4.04Y-0.825
X4.04Y-2.345
X4.04Y-2.395
X4.048Y-4.835
X4.05Y-3.0
X4.055Y-4.983
X4.06Y-1.115
X4.06Y-1.49
X4.075Y-1.875
X4.075Y-2.2
X4.075Y-7.125
X4.0774Y-4.3704
X4.0875Y-2.8875
X4.1Y-1.65
X4.104Y-1.448
X4.11Y-2.375
X4.125Y-6.225
X4.13Y-4.033
X4.131Y-4.379
X4.131Y-5.736
X4.15Y-6.05
X4.1634Y-4.004
X4.1659Y-4.316
X4.166Y-5.638
X4.175Y-6.675
X4.19Y-2.375
X4.1929Y-3.969
X4.1955Y-4.274
X4.196Y-5.541
X4.2Y-5.6
X4.2Y-5.7
X4.2Y-5.8
X4.2Y-5.875
X4.2224Y-4.022
X4.2224Y-4.232
X4.225Y-1.5
X4.225Y-1.6
X4.225Y-5.425
X4.225Y-6.325
X4.225Y-7.325
X4.25Y-1.825
X4.25Y-2.075
X4.27Y-2.375
X4.275Y-4.0
X4.28Y-3.025
X4.3Y-6.831
X4.32Y-4.835
X4.33Y-2.935
X4.34Y-3.535
X4.35Y-6.25
X4.365Y-3.628
X4.375Y-4.0
X4.38Y-1.255
X4.39Y-2.875
X4.39Y-3.105
X4.4Y-6.45
X4.409Y-3.679
X4.425Y-2.25
X4.4315Y-4.685
X4.435Y-1.335
X4.45Y-1.775
X4.45Y-2.375
X4.45Y-5.375
X4.45Y-5.5
X4.45Y-5.6
X4.45Y-5.7
X4.45Y-6.075
X4.45Y-6.35
X4.45Y-6.525
X4.455Y-3.724
X4.46Y-2.825
X4.46Y-3.075
X4.5Y-6.225
X4.505Y-3.768
X4.525Y-1.6
X4.53Y-2.775
X4.53Y-3.055
X4.541Y-3.824
X4.542Y-4.886
X4.6Y-2.735
X4.6Y-3.502
X4.61Y-3.035
X4.625Y-3.9
X4.625Y-4.275
X4.645Y-6.415
X4.65Y-7.1
X4.65Y-7.275
X4.66Y-6.085
X4.67Y-2.705
X4.67Y-3.015
X4.67Y-4.925
X4.69Y-0.95
X4.7Y-3.415
X4.7045Y-2.447
X4.71Y-3.765
X4.71Y-3.871
X4.71Y-6.185
X4.72Y-3.615
X4.74Y-2.675
X4.74Y-2.985
X4.74Y-3.355
X4.78Y-3.305
X4.788Y-2.447
X4.82Y-2.645
X4.82Y-2.955
X4.83Y-3.265
X4.85Y-6.9
X4.85Y-7.1
X4.85Y-7.275
X4.88Y-3.225
X4.925Y-2.025
X4.94Y-3.185
X4.95Y-2.7
X4.975Y-0.9783
X4.985Y-2.405
X5.01Y-3.145
X5.025Y-3.0
X5.025Y-3.2
X5.025Y-3.725
X5.025Y-3.95
X5.025Y-4.075
X5.0275Y-4.1275
X5.05Y-6.675
X5.0658Y-3.8792
X5.072Y-3.687
X5.075Y-7.275
X5.09Y-6.585
X5.09Y-6.825
X5.095Y-5.73
X5.095Y-5.94
X5.095Y-6.125
X5.095Y-6.43
X5.1Y-3.9
X5.112Y-3.938
X5.14Y-4.637
X5.16Y-4.84
X5.174Y-3.789
X5.174Y-4.729
X5.175Y-1.465
X5.175Y-3.725
X5.225Y-6.5
X5.28Y-1.465
X5.29Y-3.75
X5.292Y-4.292
X5.325Y-5.075
X5.35Y-1.645
X5.35Y-5.775
X5.35Y-6.775
X5.352Y-5.237
X5.352Y-5.473
X5.36Y-6.055
X5.41Y-2.175
X5.41Y-2.375
X5.41Y-2.575
X5.425Y-6.35
X5.476Y-1.455
X5.49Y-1.965
X5.54Y-1.785
X5.55Y-5.225
X5.55Y-5.375
X5.55Y-5.55
X5.55Y-5.75
X5.55Y-5.95
X5.55Y-6.15
X5.55Y-6.35
X5.55Y-6.55
X5.55Y-6.775
X5.55Y-7.025
X5.612Y-1.175
X5.625Y-6.025
T3
X1.25Y-1.0
X1.25Y-1.1
X1.25Y-1.2
X1.25Y-1.3
X1.25Y-1.4
X1.25Y-6.95
X1.25Y-7.05
X1.25Y-7.15
X1.25Y-7.25
X1.25Y-7.35
X1.39Y-1.955
X1.39Y-2.055
X1.39Y-2.155
X1.39Y-2.255
X1.39Y-2.355
X1.39Y-2.455
X1.39Y-2.555
X1.475Y-6.275
X1.475Y-6.375
X1.475Y-6.475
X1.475Y-6.575
X1.775Y-6.275
X1.775Y-6.375
X1.775Y-6.475
X1.775Y-6.575
X1.89Y-1.955
X1.89Y-2.055
X1.89Y-2.155
X1.89Y-2.255
X1.89Y-2.355
X1.89Y-2.455
X1.89Y-2.555
X2.0Y-2.3
X2.0Y-2.4
X2.0Y-2.9
X2.0Y-3.0
X2.0Y-3.125
X2.0Y-3.225
X2.0Y-3.725
X2.0Y-3.825
X2.1Y-2.3
X2.1Y-3.0
X2.1Y-3.125
X2.1Y-3.825
X2.6Y-2.3
X2.6Y-3.0
X2.6Y-3.125
X2.6Y-3.825
X2.7Y-2.3
X2.7Y-2.4
X2.7Y-2.5
X2.7Y-2.6
X2.7Y-2.7
X2.7Y-2.8
X2.7Y-2.9
X2.7Y-3.0
X2.7Y-3.125
X2.7Y-3.225
X2.7Y-3.325
X2.7Y-3.425
X2.7Y-3.525
X2.7Y-3.625
X2.7Y-3.725
X2.7Y-3.825
X3.05Y-0.9
X3.05Y-1.0
X3.05Y-1.1
X3.05Y-1.2
X3.05Y-1.3
X3.05Y-1.4
X3.05Y-1.5
X3.15Y-1.825
X3.15Y-2.125
X3.25Y-1.825
X3.25Y-2.125
X3.35Y-1.825
X3.35Y-2.125
X3.45Y-1.825
X3.45Y-2.125
X3.55Y-0.9
X3.55Y-1.0
X3.55Y-1.1
X3.55Y-1.2
X3.55Y-1.3
X3.55Y-1.4
X3.55Y-1.5
X3.625Y-1.825
X3.625Y-2.125
X3.725Y-1.825
X3.725Y-2.125
X3.825Y-1.825
X3.825Y-2.125
X3.925Y-1.825
X3.925Y-2.125
X4.275Y-4.285
X4.275Y-4.385
X4.275Y-4.485
X4.275Y-4.585
X4.275Y-4.685
X4.275Y-4.785
X4.275Y-4.885
X4.275Y-4.985
X4.275Y-5.085
X4.275Y-5.185
X4.275Y-5.285
X4.275Y-5.385
X4.275Y-5.485
X4.275Y-5.585
X4.275Y-5.685
X4.275Y-5.785
X4.275Y-5.885
X4.275Y-5.985
X4.275Y-6.085
X4.275Y-6.185
X4.345Y-1.574
X4.345Y-1.674
X4.345Y-1.774
X4.345Y-1.874
X4.345Y-2.049
X4.345Y-2.149
X4.345Y-2.249
X4.345Y-2.349
X4.375Y-4.285
X4.375Y-4.385
X4.375Y-4.485
X4.375Y-4.585
X4.375Y-4.685
X4.375Y-4.785
X4.375Y-4.885
X4.375Y-4.985
X4.375Y-5.085
X4.375Y-5.185
X4.375Y-5.285
X4.375Y-5.385
X4.375Y-5.485
X4.375Y-5.585
X4.375Y-5.685
X4.375Y-5.785
X4.375Y-5.885
X4.375Y-5.985
X4.375Y-6.085
X4.375Y-6.185
X4.645Y-1.574
X4.645Y-1.674
X4.645Y-1.774
X4.645Y-1.874
X4.645Y-2.049
X4.645Y-2.149
X4.645Y-2.249
X4.645Y-2.349
X5.35Y-1.0
X5.35Y-1.1
X5.35Y-1.2
X5.35Y-1.3
X5.35Y-1.4
X5.35Y-6.95
X5.35Y-7.05
X5.35Y-7.15
X5.35Y-7.25
X5.35Y-7.35
T4
X1.16Y-2.565
X1.16Y-2.6634
X1.6Y-2.125
X1.6787Y-2.125
X2.0Y-3.4
X2.0Y-3.4984
X2.075Y-1.825
X2.075Y-2.125
X2.175Y-1.825
X2.175Y-2.125
X2.275Y-1.825
X2.275Y-2.125
X2.375Y-1.825
X2.375Y-2.125
X2.475Y-1.825
X2.475Y-2.125
X2.575Y-1.825
X2.575Y-2.125
X2.6Y-2.4016
X2.6Y-2.5
X2.675Y-1.825
X2.675Y-2.125
X2.775Y-1.825
X2.775Y-2.125
X2.875Y-1.825
X2.875Y-2.125
X2.975Y-1.825
X2.975Y-2.125
X3.2516Y-0.9
X3.35Y-0.9
X4.325Y-6.9516
X4.325Y-7.05
X4.55Y-4.985
X4.55Y-5.085
X4.55Y-5.185
X4.55Y-5.285
X4.55Y-5.385
X4.55Y-5.485
X4.55Y-5.585
X4.55Y-5.685
X4.55Y-5.785
X4.55Y-5.885
X4.55Y-5.985
X4.55Y-6.085
X4.55Y-6.185
X4.55Y-6.285
X4.55Y-6.385
X4.55Y-6.485
X4.55Y-6.585
X4.55Y-6.685
X4.55Y-6.785
X4.55Y-6.885
X4.55Y-6.985
X4.55Y-7.085
X4.55Y-7.185
X4.55Y-7.285
X4.8259Y-1.877
X4.8259Y-1.977
X4.8259Y-2.077
X4.8259Y-2.177
X4.874Y-2.411
X4.878Y-1.638
X5.0709Y-2.411
X5.0749Y-1.638
X5.1259Y-1.877
X5.1259Y-1.977
X5.1259Y-2.077
X5.1259Y-2.177
X5.15Y-4.985
X5.15Y-5.085
X5.15Y-5.185
X5.15Y-5.285
X5.15Y-5.385
X5.15Y-5.485
X5.15Y-5.585
X5.15Y-5.685
X5.15Y-5.785
X5.15Y-5.885
X5.15Y-5.985
X5.15Y-6.085
X5.15Y-6.185
X5.15Y-6.285
X5.15Y-6.385
X5.15Y-6.485
X5.15Y-6.585
X5.15Y-6.685
X5.15Y-6.785
X5.15Y-6.885
X5.15Y-6.985
X5.15Y-7.085
X5.15Y-7.185
X5.15Y-7.285
T5
X1.16Y-2.265
X1.16Y-2.365
T6
X1.542Y-0.9987
X1.542Y-1.0971
X1.542Y-1.1956
X1.542Y-1.294
X1.542Y-1.3924
X1.5526Y-2.9697
X1.5526Y-3.2
X1.5531Y-2.7394
X1.651Y-2.9697
X1.651Y-3.2
X1.6516Y-2.7394
X1.7494Y-2.9697
X1.7494Y-3.2
X1.75Y-2.7394
X2.0Y-2.555
X2.0Y-2.6534
X2.0Y-2.7519
X2.07Y-0.9333
X2.07Y-1.0317
X2.07Y-1.1301
X2.07Y-1.2286
X2.07Y-1.327
X2.989Y-3.8311
X3.0874Y-3.8311
X3.1859Y-3.8311
X3.2843Y-3.8311
X3.539Y-3.8311
X3.6374Y-3.8311
X3.7359Y-3.8311
X3.8343Y-3.8311
X4.525Y-0.9757
X4.525Y-1.0741
X4.525Y-1.1726
X4.525Y-1.271
X4.525Y-1.3694
X5.05Y-1.0033
X5.05Y-1.1017
X5.05Y-1.2001
X5.05Y-1.2986
X5.05Y-1.397
X5.45Y-5.9297
X5.45Y-6.0281
X5.45Y-6.1266
X5.45Y-6.225
T7
X1.425Y-1.6
X1.425Y-1.7
X1.425Y-1.8
X1.4329Y-3.872
X1.525Y-6.85
X1.525Y-6.95
X1.525Y-7.05
X1.565Y-7.24
X1.575Y-1.5994
X1.575Y-1.6994
X1.575Y-1.7994
X1.6634Y-7.24
X1.695Y-6.85
X1.695Y-6.95
X1.695Y-7.05
X1.725Y-1.6
X1.725Y-1.7
X1.725Y-1.8
X1.785Y-1.09
X1.785Y-1.1884
X1.866Y-3.872
X1.875Y-1.5994
X1.875Y-1.6994
X1.875Y-1.7994
X3.05Y-2.65
X3.05Y-2.75
X3.15Y-2.65
X3.15Y-2.75
X3.25Y-2.65
X3.25Y-2.75
X3.35Y-2.65
X3.35Y-2.75
X3.45Y-2.65
X3.45Y-2.75
X3.55Y-2.65
X3.55Y-2.75
X3.65Y-2.65
X3.65Y-2.75
X3.75Y-2.65
X3.75Y-2.75
X3.85Y-2.65
X3.85Y-2.75
X3.95Y-2.65
X3.95Y-2.75
X4.3Y-6.5366
X4.3Y-6.635
X4.61Y-4.385
X4.61Y-4.485
X4.61Y-4.585
X4.61Y-4.685
X4.61Y-4.785
X4.765Y-1.1016
X4.765Y-1.2
T8
X2.25Y-2.3866
X2.35Y-2.3866
X2.45Y-2.3866
T9
X3.3031Y-6.225
X3.4016Y-6.1266
X3.4016Y-6.3234
X3.5Y-6.225
X3.5984Y-6.1266
X3.5984Y-6.3234
T10
X3.15Y-6.625
X3.15Y-6.7809
X3.15Y-6.9368
T11
X1.551Y-3.4783
X1.7479Y-3.4783
T12
X1.225Y-1.85
X1.225Y-6.5
X5.375Y-1.85
X5.375Y-6.5
M30
