%TF.GenerationSoftware,KiCad,Pcbnew,8.0.5*%
%TF.CreationDate,2024-09-29T16:31:31+09:00*%
%TF.ProjectId,_____,b5fcdcfa-7f2e-46b6-9963-61645f706362,rev?*%
%TF.SameCoordinates,Original*%
%TF.FileFunction,Soldermask,Top*%
%TF.FilePolarity,Negative*%
%FSLAX46Y46*%
G04 Gerber Fmt 4.6, Leading zero omitted, Abs format (unit mm)*
G04 Created by KiCad (PCBNEW 8.0.5) date 2024-09-29 16:31:31*
%MOMM*%
%LPD*%
G01*
G04 APERTURE LIST*
G04 Aperture macros list*
%AMRoundRect*
0 Rectangle with rounded corners*
0 $1 Rounding radius*
0 $2 $3 $4 $5 $6 $7 $8 $9 X,Y pos of 4 corners*
0 Add a 4 corners polygon primitive as box body*
4,1,4,$2,$3,$4,$5,$6,$7,$8,$9,$2,$3,0*
0 Add four circle primitives for the rounded corners*
1,1,$1+$1,$2,$3*
1,1,$1+$1,$4,$5*
1,1,$1+$1,$6,$7*
1,1,$1+$1,$8,$9*
0 Add four rect primitives between the rounded corners*
20,1,$1+$1,$2,$3,$4,$5,0*
20,1,$1+$1,$4,$5,$6,$7,0*
20,1,$1+$1,$6,$7,$8,$9,0*
20,1,$1+$1,$8,$9,$2,$3,0*%
G04 Aperture macros list end*
%ADD10RoundRect,0.250000X-0.600000X-0.725000X0.600000X-0.725000X0.600000X0.725000X-0.600000X0.725000X0*%
%ADD11O,1.700000X1.950000*%
%ADD12C,1.524000*%
%ADD13R,1.524000X1.524000*%
%ADD14C,2.500000*%
%ADD15R,1.700000X1.700000*%
%ADD16O,1.700000X1.700000*%
%ADD17C,1.512000*%
%ADD18RoundRect,0.250000X0.600000X0.725000X-0.600000X0.725000X-0.600000X-0.725000X0.600000X-0.725000X0*%
%ADD19RoundRect,0.250000X0.725000X-0.600000X0.725000X0.600000X-0.725000X0.600000X-0.725000X-0.600000X0*%
%ADD20O,1.950000X1.700000*%
%ADD21RoundRect,0.237500X0.250000X0.237500X-0.250000X0.237500X-0.250000X-0.237500X0.250000X-0.237500X0*%
%ADD22RoundRect,0.237500X0.237500X-0.250000X0.237500X0.250000X-0.237500X0.250000X-0.237500X-0.250000X0*%
%ADD23O,1.905000X2.000000*%
%ADD24R,1.905000X2.000000*%
%ADD25O,3.500000X3.500000*%
%ADD26C,3.500000*%
%ADD27R,3.500000X3.500000*%
%ADD28C,1.400000*%
%ADD29R,1.800000X1.800000*%
%ADD30C,1.800000*%
%ADD31RoundRect,0.237500X-0.300000X-0.237500X0.300000X-0.237500X0.300000X0.237500X-0.300000X0.237500X0*%
%ADD32RoundRect,0.237500X-0.237500X0.300000X-0.237500X-0.300000X0.237500X-0.300000X0.237500X0.300000X0*%
%ADD33RoundRect,0.237500X0.237500X-0.300000X0.237500X0.300000X-0.237500X0.300000X-0.237500X-0.300000X0*%
%ADD34R,1.600000X1.600000*%
%ADD35C,1.600000*%
%ADD36RoundRect,0.237500X0.300000X0.237500X-0.300000X0.237500X-0.300000X-0.237500X0.300000X-0.237500X0*%
%ADD37C,5.600000*%
%ADD38RoundRect,0.250000X-0.725000X0.600000X-0.725000X-0.600000X0.725000X-0.600000X0.725000X0.600000X0*%
%ADD39RoundRect,0.237500X-0.250000X-0.237500X0.250000X-0.237500X0.250000X0.237500X-0.250000X0.237500X0*%
%ADD40RoundRect,0.250000X0.750000X-0.600000X0.750000X0.600000X-0.750000X0.600000X-0.750000X-0.600000X0*%
%ADD41O,2.000000X1.700000*%
%ADD42RoundRect,0.237500X-0.237500X0.250000X-0.237500X-0.250000X0.237500X-0.250000X0.237500X0.250000X0*%
%ADD43R,1.200000X0.950000*%
%ADD44RoundRect,0.250000X-0.600000X-0.750000X0.600000X-0.750000X0.600000X0.750000X-0.600000X0.750000X0*%
%ADD45O,1.700000X2.000000*%
%ADD46C,1.701800*%
%ADD47RoundRect,0.250001X-1.099999X1.099999X-1.099999X-1.099999X1.099999X-1.099999X1.099999X1.099999X0*%
%ADD48C,2.700000*%
G04 APERTURE END LIST*
D10*
%TO.C,J20*%
X75920600Y-97310000D03*
D11*
X78420600Y-97310000D03*
X80920600Y-97310000D03*
X83420600Y-97310000D03*
%TD*%
D12*
%TO.C,LT2*%
X66040000Y-97155000D03*
X68580000Y-97155000D03*
X68580000Y-94615000D03*
X68580000Y-92075000D03*
X68580000Y-89535000D03*
X68580000Y-86995000D03*
X68580000Y-84455000D03*
D13*
X68580000Y-81915000D03*
X68580000Y-79375000D03*
X66040000Y-79375000D03*
D12*
X53340000Y-97155000D03*
X50800000Y-97155000D03*
X50800000Y-94615000D03*
D13*
X50800000Y-81915000D03*
X50800000Y-79375000D03*
X53340000Y-79375000D03*
%TD*%
D14*
%TO.C,*%
X101701600Y-161925000D03*
%TD*%
%TO.C,*%
X52705000Y-161925000D03*
%TD*%
%TO.C,*%
X52705000Y-103911400D03*
%TD*%
%TO.C,REF\u002A\u002A*%
X101701600Y-103936800D03*
%TD*%
D15*
%TO.C,J10*%
X77470000Y-69850000D03*
D16*
X80010000Y-69850000D03*
X82550000Y-69850000D03*
X85090000Y-69850000D03*
X87630000Y-69850000D03*
X90170000Y-69850000D03*
X92710000Y-69850000D03*
X95250000Y-69850000D03*
X97790000Y-69850000D03*
X100330000Y-69850000D03*
X77470000Y-67310000D03*
X80010000Y-67310000D03*
X82550000Y-67310000D03*
X85090000Y-67310000D03*
X87630000Y-67310000D03*
X90170000Y-67310000D03*
X92710000Y-67310000D03*
X95250000Y-67310000D03*
X97790000Y-67310000D03*
X100330000Y-67310000D03*
%TD*%
D17*
%TO.C,U2*%
X130810000Y-182499000D03*
X130810000Y-179959000D03*
X130810000Y-177419000D03*
X130810000Y-174879000D03*
X130810000Y-149479000D03*
X115570000Y-179959000D03*
X130810000Y-172339000D03*
X130810000Y-169799000D03*
X130810000Y-167259000D03*
X130810000Y-164719000D03*
X130810000Y-162179000D03*
X130810000Y-159639000D03*
X130810000Y-157099000D03*
X130810000Y-154559000D03*
X130810000Y-152019000D03*
X115570000Y-152019000D03*
X115570000Y-154559000D03*
X115570000Y-157099000D03*
X115570000Y-159639000D03*
X115570000Y-162179000D03*
X115570000Y-164719000D03*
X115570000Y-167259000D03*
X115570000Y-169799000D03*
X115570000Y-172339000D03*
X115570000Y-174879000D03*
X115570000Y-177419000D03*
X130810000Y-146939000D03*
X130810000Y-144399000D03*
X130810000Y-141859000D03*
X130810000Y-139319000D03*
X130810000Y-136779000D03*
X130810000Y-134239000D03*
X130810000Y-131699000D03*
X130810000Y-129159000D03*
X130810000Y-126619000D03*
X115570000Y-126619000D03*
X115570000Y-129159000D03*
X115570000Y-131699000D03*
X115570000Y-134239000D03*
X115570000Y-136779000D03*
X115570000Y-139319000D03*
X115570000Y-141859000D03*
X115570000Y-144399000D03*
X115570000Y-146939000D03*
X130810000Y-185039000D03*
X115570000Y-149479000D03*
X115570000Y-182499000D03*
X115570000Y-185039000D03*
%TD*%
D15*
%TO.C,J6*%
X117094000Y-121539000D03*
D16*
X117094000Y-118999000D03*
X117094000Y-116459000D03*
X117094000Y-113919000D03*
X117094000Y-111379000D03*
%TD*%
D18*
%TO.C,J3*%
X44450000Y-69580000D03*
D11*
X41950000Y-69580000D03*
X39450000Y-69580000D03*
%TD*%
D19*
%TO.C,J2*%
X50800000Y-69897000D03*
D20*
X50800000Y-67397000D03*
X50800000Y-64897000D03*
%TD*%
D12*
%TO.C,U1*%
X48006000Y-64897000D03*
X48006000Y-62357000D03*
X48006000Y-59817000D03*
X48006000Y-57277000D03*
X48006000Y-54737000D03*
X48006000Y-52197000D03*
X48006000Y-49657000D03*
X35306000Y-49657000D03*
X35306000Y-52197000D03*
X35306000Y-54737000D03*
X35306000Y-57277000D03*
X35306000Y-59817000D03*
D13*
X35306000Y-62357000D03*
D12*
X35306000Y-64897000D03*
%TD*%
D21*
%TO.C,R3*%
X31242000Y-54737000D03*
X29417000Y-54737000D03*
%TD*%
D22*
%TO.C,R2*%
X45466000Y-64897000D03*
X45466000Y-63072000D03*
%TD*%
%TO.C,R1*%
X35052000Y-79525500D03*
X35052000Y-77700500D03*
%TD*%
D13*
%TO.C,LT1*%
X53340000Y-58420000D03*
X50800000Y-58420000D03*
X50800000Y-60960000D03*
D12*
X50800000Y-73660000D03*
X50800000Y-76200000D03*
X53340000Y-76200000D03*
D13*
X66040000Y-58420000D03*
X68580000Y-58420000D03*
X68580000Y-60960000D03*
D12*
X68580000Y-63500000D03*
X68580000Y-66040000D03*
X68580000Y-68580000D03*
X68580000Y-71120000D03*
X68580000Y-73660000D03*
X68580000Y-76200000D03*
X66040000Y-76200000D03*
%TD*%
D23*
%TO.C,LDO1*%
X57150000Y-60620000D03*
X59690000Y-60620000D03*
D24*
X62230000Y-60620000D03*
D25*
X59690000Y-77280000D03*
%TD*%
D10*
%TO.C,J5*%
X39435400Y-81280000D03*
D11*
X41935400Y-81280000D03*
X44435400Y-81280000D03*
%TD*%
D10*
%TO.C,J4*%
X39435400Y-75430000D03*
D11*
X41935400Y-75430000D03*
X44435400Y-75430000D03*
%TD*%
D26*
%TO.C,J1*%
X39396400Y-88348800D03*
D27*
X44396400Y-88348800D03*
D28*
X47396400Y-98348800D03*
X36396400Y-98348800D03*
%TD*%
D29*
%TO.C,D1*%
X29464000Y-60071000D03*
D30*
X29464000Y-57531000D03*
%TD*%
D31*
%TO.C,C10*%
X38761500Y-84963000D03*
X40486500Y-84963000D03*
%TD*%
D32*
%TO.C,C8*%
X48514000Y-76734500D03*
X48514000Y-78459500D03*
%TD*%
D33*
%TO.C,C6*%
X53086000Y-69823500D03*
X53086000Y-68098500D03*
%TD*%
D34*
%TO.C,C5*%
X50800000Y-88860000D03*
D35*
X50800000Y-86360000D03*
%TD*%
D36*
%TO.C,C3*%
X44296500Y-67437000D03*
X42571500Y-67437000D03*
%TD*%
D34*
%TO.C,C2*%
X42640000Y-53975000D03*
D35*
X40640000Y-53975000D03*
%TD*%
%TO.C,C1*%
X66040000Y-61000000D03*
X66040000Y-63500000D03*
%TD*%
D37*
%TO.C,REF\u002A\u002A*%
X31115000Y-46990000D03*
%TD*%
%TO.C,REF\u002A\u002A*%
X136525000Y-46990000D03*
%TD*%
%TO.C,REF\u002A\u002A*%
X31115000Y-165100000D03*
%TD*%
%TO.C,REF\u002A\u002A*%
X136525000Y-165100000D03*
%TD*%
D38*
%TO.C,J19*%
X138430000Y-150615000D03*
D20*
X138430000Y-153115000D03*
X138430000Y-155615000D03*
X138430000Y-158115000D03*
%TD*%
D12*
%TO.C,U3*%
X90170000Y-22860000D03*
X90170000Y-25400000D03*
X90170000Y-27940000D03*
X90170000Y-30480000D03*
X90170000Y-33020000D03*
X90170000Y-35560000D03*
X90170000Y-38100000D03*
X77470000Y-38100000D03*
X77470000Y-35560000D03*
X77470000Y-33020000D03*
X77470000Y-30480000D03*
X77470000Y-27940000D03*
D13*
X77470000Y-25400000D03*
D12*
X77470000Y-22860000D03*
%TD*%
%TO.C,U8*%
X99695000Y-46355000D03*
X97155000Y-46355000D03*
X94615000Y-46355000D03*
X92075000Y-46355000D03*
X92075000Y-53975000D03*
X94615000Y-53975000D03*
X97155000Y-53975000D03*
X99695000Y-53975000D03*
%TD*%
D38*
%TO.C,ToF6*%
X39166800Y-25367600D03*
D20*
X39166800Y-27867600D03*
X39166800Y-30367600D03*
X39166800Y-32867600D03*
X39166800Y-35367600D03*
%TD*%
D39*
%TO.C,R7*%
X109223800Y-161163000D03*
X111048800Y-161163000D03*
%TD*%
D16*
%TO.C,J11*%
X36195000Y-40640000D03*
X36195000Y-43180000D03*
D15*
X36195000Y-45720000D03*
%TD*%
D40*
%TO.C,SW1*%
X45339000Y-30186000D03*
D41*
X45339000Y-27686000D03*
%TD*%
D16*
%TO.C,J14*%
X47625000Y-40625000D03*
X47625000Y-43165000D03*
D15*
X47625000Y-45705000D03*
%TD*%
D12*
%TO.C,ToF4*%
X135890000Y-186690000D03*
X135890000Y-184150000D03*
X135890000Y-181610000D03*
X135890000Y-179070000D03*
X135890000Y-176530000D03*
%TD*%
D15*
%TO.C,J16*%
X38735000Y-179070000D03*
D16*
X38735000Y-176530000D03*
X38735000Y-173990000D03*
%TD*%
D34*
%TO.C,C7*%
X109855000Y-179070000D03*
D35*
X109855000Y-176570000D03*
%TD*%
D39*
%TO.C,R10*%
X58142500Y-56515000D03*
X59967500Y-56515000D03*
%TD*%
D35*
%TO.C,DCDC1*%
X122576600Y-55295800D03*
X122576600Y-52755800D03*
X122576600Y-50215800D03*
X122576600Y-47675800D03*
X130196600Y-47675800D03*
X130196600Y-50215800D03*
X130196600Y-52755800D03*
D34*
X130196600Y-55295800D03*
%TD*%
D15*
%TO.C,J15*%
X43053000Y-179070000D03*
D16*
X43053000Y-176530000D03*
X43053000Y-173990000D03*
%TD*%
D42*
%TO.C,R4*%
X47625000Y-34139500D03*
X47625000Y-35964500D03*
%TD*%
D12*
%TO.C,ToF3*%
X31750000Y-176530000D03*
X31750000Y-179070000D03*
X31750000Y-181610000D03*
X31750000Y-184150000D03*
X31750000Y-186690000D03*
%TD*%
D31*
%TO.C,C13*%
X99695000Y-58420000D03*
X101420000Y-58420000D03*
%TD*%
D12*
%TO.C,ToF2*%
X135890000Y-35560000D03*
X135890000Y-33020000D03*
X135890000Y-30480000D03*
X135890000Y-27940000D03*
X135890000Y-25400000D03*
%TD*%
D19*
%TO.C,ToF5*%
X128270000Y-35483800D03*
D20*
X128270000Y-32983800D03*
X128270000Y-30483800D03*
X128270000Y-27983800D03*
X128270000Y-25483800D03*
%TD*%
D43*
%TO.C,FB1*%
X110356000Y-185039000D03*
X112656000Y-185039000D03*
%TD*%
D42*
%TO.C,R8*%
X107848400Y-44752900D03*
X107848400Y-42927900D03*
%TD*%
D12*
%TO.C,U9*%
X87630000Y-46355000D03*
X85090000Y-46355000D03*
X82550000Y-46355000D03*
X80010000Y-46355000D03*
X80010000Y-53975000D03*
X82550000Y-53975000D03*
X85090000Y-53975000D03*
X87630000Y-53975000D03*
%TD*%
D44*
%TO.C,SW3*%
X39751000Y-183896000D03*
D45*
X42251000Y-183896000D03*
%TD*%
D40*
%TO.C,SW2*%
X121031000Y-30480000D03*
D41*
X121031000Y-27980000D03*
%TD*%
D34*
%TO.C,C9*%
X82590000Y-22860000D03*
D35*
X85090000Y-22860000D03*
%TD*%
D22*
%TO.C,R6*%
X46101000Y-183894100D03*
X46101000Y-182069100D03*
%TD*%
D19*
%TO.C,J18*%
X52578000Y-33705800D03*
D20*
X52578000Y-31205800D03*
X52578000Y-28705800D03*
X52578000Y-26205800D03*
X52578000Y-23705800D03*
%TD*%
D35*
%TO.C,C12*%
X128901200Y-41605200D03*
X123901200Y-41605200D03*
%TD*%
%TO.C,C11*%
X128799600Y-61239400D03*
X123799600Y-61239400D03*
%TD*%
D40*
%TO.C,SW4*%
X109220000Y-168529000D03*
D41*
X109220000Y-166029000D03*
%TD*%
D42*
%TO.C,R5*%
X123952000Y-36472500D03*
X123952000Y-34647500D03*
%TD*%
D31*
%TO.C,C15*%
X89307500Y-58420000D03*
X91032500Y-58420000D03*
%TD*%
D46*
%TO.C,FL1*%
X86400000Y-160615000D03*
X86400000Y-155615000D03*
X91400000Y-160615000D03*
X91400000Y-155615000D03*
X83900000Y-158115000D03*
X88900000Y-158115000D03*
%TD*%
D12*
%TO.C,ToF1*%
X31750000Y-25400000D03*
X31750000Y-27940000D03*
X31750000Y-30480000D03*
X31750000Y-33020000D03*
X31750000Y-35560000D03*
%TD*%
%TO.C,U5*%
X110363000Y-52044600D03*
X110363000Y-54584600D03*
X110363000Y-57124600D03*
X110363000Y-59664600D03*
X117983000Y-59664600D03*
X117983000Y-57124600D03*
X117983000Y-54584600D03*
X117983000Y-52044600D03*
%TD*%
D42*
%TO.C,R9*%
X108000800Y-56767100D03*
X108000800Y-54942100D03*
%TD*%
D47*
%TO.C,J9*%
X80010000Y-168275000D03*
D48*
X80010000Y-172235000D03*
X80010000Y-176195000D03*
%TD*%
D15*
%TO.C,J12*%
X40005000Y-45705000D03*
D16*
X40005000Y-43165000D03*
X40005000Y-40625000D03*
%TD*%
D12*
%TO.C,U4*%
X110363000Y-39979600D03*
X110363000Y-42519600D03*
X110363000Y-45059600D03*
X110363000Y-47599600D03*
X117983000Y-47599600D03*
X117983000Y-45059600D03*
X117983000Y-42519600D03*
X117983000Y-39979600D03*
%TD*%
D20*
%TO.C,J17*%
X114935000Y-34783400D03*
X114935000Y-32283400D03*
X114935000Y-29783400D03*
X114935000Y-27283400D03*
D38*
X114935000Y-24783400D03*
%TD*%
D12*
%TO.C,Gyro1*%
X37465000Y-159385000D03*
X37465000Y-161925000D03*
X37465000Y-164465000D03*
X37465000Y-167005000D03*
X45085000Y-167005000D03*
X45085000Y-164465000D03*
X45085000Y-161925000D03*
X45085000Y-159385000D03*
%TD*%
D34*
%TO.C,C4*%
X29464000Y-67651000D03*
D35*
X29464000Y-65151000D03*
%TD*%
%TO.C,U10*%
X52705000Y-53975000D03*
X55245000Y-53975000D03*
X57785000Y-53975000D03*
X60325000Y-53975000D03*
X62865000Y-53975000D03*
X65405000Y-53975000D03*
X67945000Y-53975000D03*
X70485000Y-53975000D03*
X73025000Y-53975000D03*
X75565000Y-53975000D03*
X75565000Y-46355000D03*
X73025000Y-46355000D03*
X70485000Y-46355000D03*
X67945000Y-46355000D03*
X65405000Y-46355000D03*
X62865000Y-46355000D03*
X60325000Y-46355000D03*
X57785000Y-46355000D03*
X55245000Y-46355000D03*
D34*
X52705000Y-46355000D03*
%TD*%
D12*
%TO.C,Pi1*%
X111125000Y-157099000D03*
X108585000Y-157099000D03*
X111125000Y-154559000D03*
X108585000Y-154559000D03*
X111125000Y-152019000D03*
X108585000Y-152019000D03*
X111125000Y-149479000D03*
X108585000Y-149479000D03*
X111125000Y-146939000D03*
X108585000Y-146939000D03*
X111125000Y-144399000D03*
X108585000Y-144399000D03*
X111125000Y-141859000D03*
X108585000Y-141859000D03*
X111125000Y-139319000D03*
X108585000Y-139319000D03*
X111125000Y-136779000D03*
X108585000Y-136779000D03*
X111125000Y-134239000D03*
X108585000Y-134239000D03*
X111125000Y-131699000D03*
X108585000Y-131699000D03*
X111125000Y-129159000D03*
X108585000Y-129159000D03*
X111125000Y-126619000D03*
X108585000Y-126619000D03*
X111125000Y-124079000D03*
X108585000Y-124079000D03*
X111125000Y-121539000D03*
X108585000Y-121539000D03*
X111125000Y-118999000D03*
X108585000Y-118999000D03*
X111125000Y-116459000D03*
X108585000Y-116459000D03*
X111125000Y-113919000D03*
X108585000Y-113919000D03*
X111125000Y-111379000D03*
X108585000Y-111379000D03*
X111125000Y-108839000D03*
X108585000Y-108839000D03*
%TD*%
D16*
%TO.C,J13*%
X43815000Y-40640000D03*
X43815000Y-43180000D03*
D15*
X43815000Y-45720000D03*
%TD*%
D43*
%TO.C,FB3*%
X78620000Y-58420000D03*
X76320000Y-58420000D03*
%TD*%
D10*
%TO.C,J21*%
X89890600Y-97310000D03*
D11*
X92390600Y-97310000D03*
X94890600Y-97310000D03*
X97390600Y-97310000D03*
%TD*%
M02*
