%TF.GenerationSoftware,KiCad,Pcbnew,8.0.5*%
%TF.CreationDate,2024-09-26T00:23:45+09:00*%
%TF.ProjectId,_____,b5fcdcfa-7f2e-46b6-9963-61645f706362,rev?*%
%TF.SameCoordinates,Original*%
%TF.FileFunction,Soldermask,Top*%
%TF.FilePolarity,Negative*%
%FSLAX46Y46*%
G04 Gerber Fmt 4.6, Leading zero omitted, Abs format (unit mm)*
G04 Created by KiCad (PCBNEW 8.0.5) date 2024-09-26 00:23:45*
%MOMM*%
%LPD*%
G01*
G04 APERTURE LIST*
G04 Aperture macros list*
%AMRoundRect*
0 Rectangle with rounded corners*
0 $1 Rounding radius*
0 $2 $3 $4 $5 $6 $7 $8 $9 X,Y pos of 4 corners*
0 Add a 4 corners polygon primitive as box body*
4,1,4,$2,$3,$4,$5,$6,$7,$8,$9,$2,$3,0*
0 Add four circle primitives for the rounded corners*
1,1,$1+$1,$2,$3*
1,1,$1+$1,$4,$5*
1,1,$1+$1,$6,$7*
1,1,$1+$1,$8,$9*
0 Add four rect primitives between the rounded corners*
20,1,$1+$1,$2,$3,$4,$5,0*
20,1,$1+$1,$4,$5,$6,$7,0*
20,1,$1+$1,$6,$7,$8,$9,0*
20,1,$1+$1,$8,$9,$2,$3,0*%
G04 Aperture macros list end*
%ADD10C,5.600000*%
%ADD11RoundRect,0.250000X-0.600000X-0.725000X0.600000X-0.725000X0.600000X0.725000X-0.600000X0.725000X0*%
%ADD12O,1.700000X1.950000*%
%ADD13RoundRect,0.250000X-0.600000X-0.750000X0.600000X-0.750000X0.600000X0.750000X-0.600000X0.750000X0*%
%ADD14O,1.700000X2.000000*%
%ADD15RoundRect,0.237500X-0.237500X0.250000X-0.237500X-0.250000X0.237500X-0.250000X0.237500X0.250000X0*%
%ADD16RoundRect,0.237500X-0.237500X0.300000X-0.237500X-0.300000X0.237500X-0.300000X0.237500X0.300000X0*%
%ADD17C,1.524000*%
%ADD18R,1.524000X1.524000*%
%ADD19R,1.600000X1.600000*%
%ADD20C,1.600000*%
%ADD21RoundRect,0.237500X0.237500X-0.300000X0.237500X0.300000X-0.237500X0.300000X-0.237500X-0.300000X0*%
%ADD22RoundRect,0.237500X0.250000X0.237500X-0.250000X0.237500X-0.250000X-0.237500X0.250000X-0.237500X0*%
%ADD23C,1.800000*%
%ADD24R,1.800000X1.800000*%
%ADD25RoundRect,0.237500X0.237500X-0.250000X0.237500X0.250000X-0.237500X0.250000X-0.237500X-0.250000X0*%
%ADD26C,1.400000*%
%ADD27R,3.500000X3.500000*%
%ADD28C,3.500000*%
%ADD29O,2.000000X1.905000*%
%ADD30R,2.000000X1.905000*%
%ADD31O,3.500000X3.500000*%
G04 APERTURE END LIST*
D10*
%TO.C,*%
X92710000Y-71120000D03*
%TD*%
%TO.C,*%
X92710000Y-62230000D03*
%TD*%
%TO.C,REF\u002A\u002A*%
X43180000Y-93980000D03*
%TD*%
D11*
%TO.C,J3*%
X105450000Y-83250000D03*
D12*
X107950000Y-83250000D03*
X110450000Y-83250000D03*
%TD*%
D13*
%TO.C,J6*%
X93004000Y-78469000D03*
D14*
X95504000Y-78469000D03*
%TD*%
D15*
%TO.C,R1*%
X58928000Y-66651500D03*
X58928000Y-68476500D03*
%TD*%
D16*
%TO.C,C8*%
X101092000Y-89053500D03*
X101092000Y-90778500D03*
%TD*%
D17*
%TO.C,LT1*%
X69850000Y-92202000D03*
X69850000Y-94742000D03*
X72390000Y-94742000D03*
X74930000Y-94742000D03*
X77470000Y-94742000D03*
X80010000Y-94742000D03*
X82550000Y-94742000D03*
D18*
X85090000Y-94742000D03*
X87630000Y-94742000D03*
X87630000Y-92202000D03*
D17*
X69850000Y-79502000D03*
X69850000Y-76962000D03*
X72390000Y-76962000D03*
D18*
X85090000Y-76962000D03*
X87630000Y-76962000D03*
X87630000Y-79502000D03*
%TD*%
D19*
%TO.C,C4*%
X93258000Y-86360000D03*
D20*
X95758000Y-86360000D03*
%TD*%
%TO.C,C1*%
X63474600Y-66502600D03*
X63474600Y-64002600D03*
%TD*%
%TO.C,C2*%
X63500000Y-69621400D03*
D19*
X63500000Y-71621400D03*
%TD*%
D16*
%TO.C,C3*%
X101092000Y-77369500D03*
X101092000Y-79094500D03*
%TD*%
D21*
%TO.C,C10*%
X101092000Y-94842500D03*
X101092000Y-93117500D03*
%TD*%
D10*
%TO.C,*%
X43180000Y-78740000D03*
%TD*%
D22*
%TO.C,R3*%
X51712500Y-70485000D03*
X49887500Y-70485000D03*
%TD*%
D23*
%TO.C,D1*%
X53878000Y-67305000D03*
D24*
X53878000Y-64765000D03*
%TD*%
D11*
%TO.C,J4*%
X105450000Y-89100000D03*
D12*
X107950000Y-89100000D03*
X110450000Y-89100000D03*
%TD*%
D25*
%TO.C,R2*%
X57023000Y-68501900D03*
X57023000Y-66676900D03*
%TD*%
D11*
%TO.C,J5*%
X105450000Y-94950000D03*
D12*
X107950000Y-94950000D03*
X110450000Y-94950000D03*
%TD*%
D18*
%TO.C,LT2*%
X66040000Y-79375000D03*
X66040000Y-76835000D03*
X63500000Y-76835000D03*
D17*
X50800000Y-76835000D03*
X48260000Y-76835000D03*
X48260000Y-79375000D03*
D18*
X66040000Y-92075000D03*
X66040000Y-94615000D03*
X63500000Y-94615000D03*
D17*
X60960000Y-94615000D03*
X58420000Y-94615000D03*
X55880000Y-94615000D03*
X53340000Y-94615000D03*
X50800000Y-94615000D03*
X48260000Y-94615000D03*
X48260000Y-92075000D03*
%TD*%
%TO.C,U1*%
X43688000Y-60198000D03*
D18*
X46228000Y-60198000D03*
D17*
X48768000Y-60198000D03*
X51308000Y-60198000D03*
X53848000Y-60198000D03*
X56388000Y-60198000D03*
X58928000Y-60198000D03*
X58928000Y-72898000D03*
X56388000Y-72898000D03*
X53848000Y-72898000D03*
X51308000Y-72898000D03*
X48768000Y-72898000D03*
X46228000Y-72898000D03*
X43688000Y-72898000D03*
%TD*%
D11*
%TO.C,J2*%
X105450000Y-77400000D03*
D12*
X107950000Y-77400000D03*
X110450000Y-77400000D03*
%TD*%
D19*
%TO.C,C5*%
X93258000Y-93980000D03*
D20*
X95758000Y-93980000D03*
%TD*%
D21*
%TO.C,C6*%
X101092000Y-83158500D03*
X101092000Y-81433500D03*
%TD*%
D26*
%TO.C,J1*%
X112600000Y-114300000D03*
X101600000Y-114300000D03*
D27*
X104600000Y-104300000D03*
D28*
X109600000Y-104300000D03*
%TD*%
D29*
%TO.C,LDO1*%
X68046600Y-71602600D03*
X68046600Y-69062600D03*
D30*
X68046600Y-66522600D03*
D31*
X84706600Y-69062600D03*
%TD*%
M02*
