%TF.GenerationSoftware,KiCad,Pcbnew,8.0.5*%
%TF.CreationDate,2024-09-26T00:23:46+09:00*%
%TF.ProjectId,_____,b5fcdcfa-7f2e-46b6-9963-61645f706362,rev?*%
%TF.SameCoordinates,Original*%
%TF.FileFunction,Copper,L2,Bot*%
%TF.FilePolarity,Positive*%
%FSLAX46Y46*%
G04 Gerber Fmt 4.6, Leading zero omitted, Abs format (unit mm)*
G04 Created by KiCad (PCBNEW 8.0.5) date 2024-09-26 00:23:46*
%MOMM*%
%LPD*%
G01*
G04 APERTURE LIST*
G04 Aperture macros list*
%AMRoundRect*
0 Rectangle with rounded corners*
0 $1 Rounding radius*
0 $2 $3 $4 $5 $6 $7 $8 $9 X,Y pos of 4 corners*
0 Add a 4 corners polygon primitive as box body*
4,1,4,$2,$3,$4,$5,$6,$7,$8,$9,$2,$3,0*
0 Add four circle primitives for the rounded corners*
1,1,$1+$1,$2,$3*
1,1,$1+$1,$4,$5*
1,1,$1+$1,$6,$7*
1,1,$1+$1,$8,$9*
0 Add four rect primitives between the rounded corners*
20,1,$1+$1,$2,$3,$4,$5,0*
20,1,$1+$1,$4,$5,$6,$7,0*
20,1,$1+$1,$6,$7,$8,$9,0*
20,1,$1+$1,$8,$9,$2,$3,0*%
G04 Aperture macros list end*
%TA.AperFunction,ComponentPad*%
%ADD10C,5.600000*%
%TD*%
%TA.AperFunction,ComponentPad*%
%ADD11RoundRect,0.250000X-0.600000X-0.725000X0.600000X-0.725000X0.600000X0.725000X-0.600000X0.725000X0*%
%TD*%
%TA.AperFunction,ComponentPad*%
%ADD12O,1.700000X1.950000*%
%TD*%
%TA.AperFunction,ComponentPad*%
%ADD13RoundRect,0.250000X-0.600000X-0.750000X0.600000X-0.750000X0.600000X0.750000X-0.600000X0.750000X0*%
%TD*%
%TA.AperFunction,ComponentPad*%
%ADD14O,1.700000X2.000000*%
%TD*%
%TA.AperFunction,ComponentPad*%
%ADD15C,1.524000*%
%TD*%
%TA.AperFunction,ComponentPad*%
%ADD16R,1.524000X1.524000*%
%TD*%
%TA.AperFunction,ComponentPad*%
%ADD17R,1.600000X1.600000*%
%TD*%
%TA.AperFunction,ComponentPad*%
%ADD18C,1.600000*%
%TD*%
%TA.AperFunction,ComponentPad*%
%ADD19C,1.800000*%
%TD*%
%TA.AperFunction,ComponentPad*%
%ADD20R,1.800000X1.800000*%
%TD*%
%TA.AperFunction,ComponentPad*%
%ADD21C,1.400000*%
%TD*%
%TA.AperFunction,ComponentPad*%
%ADD22R,3.500000X3.500000*%
%TD*%
%TA.AperFunction,ComponentPad*%
%ADD23C,3.500000*%
%TD*%
%TA.AperFunction,ComponentPad*%
%ADD24O,2.000000X1.905000*%
%TD*%
%TA.AperFunction,ComponentPad*%
%ADD25R,2.000000X1.905000*%
%TD*%
%TA.AperFunction,ViaPad*%
%ADD26C,0.800000*%
%TD*%
%TA.AperFunction,Conductor*%
%ADD27C,0.250000*%
%TD*%
%TA.AperFunction,Conductor*%
%ADD28C,0.500000*%
%TD*%
%TA.AperFunction,Conductor*%
%ADD29C,1.000000*%
%TD*%
G04 APERTURE END LIST*
D10*
%TO.P,,1*%
%TO.N,N/C*%
X92710000Y-71120000D03*
%TD*%
%TO.P,,1*%
%TO.N,N/C*%
X92710000Y-62230000D03*
%TD*%
%TO.P,REF\u002A\u002A,1*%
%TO.N,N/C*%
X43180000Y-93980000D03*
%TD*%
D11*
%TO.P,J3,1,Pin_1*%
%TO.N,GND*%
X105450000Y-83250000D03*
D12*
%TO.P,J3,2,Pin_2*%
%TO.N,Net-(J2-Pin_2)*%
X107950000Y-83250000D03*
%TO.P,J3,3,Pin_3*%
%TO.N,/DATA*%
X110450000Y-83250000D03*
%TD*%
D13*
%TO.P,J6,1,Pin_1*%
%TO.N,GND*%
X93004000Y-78469000D03*
D14*
%TO.P,J6,2,Pin_2*%
%TO.N,/DATA*%
X95504000Y-78469000D03*
%TD*%
D15*
%TO.P,LT1,1,Vin*%
%TO.N,VDD*%
X69850000Y-92202000D03*
%TO.P,LT1,2,Vin*%
X69850000Y-94742000D03*
%TO.P,LT1,3,Vin*%
X72390000Y-94742000D03*
%TO.P,LT1,4,EN/UV*%
%TO.N,/DCDC RST1*%
X74930000Y-94742000D03*
%TO.P,LT1,5,MODE*%
%TO.N,unconnected-(LT1-MODE-Pad5)*%
X77470000Y-94742000D03*
%TO.P,LT1,6,INTVCC*%
%TO.N,unconnected-(LT1-INTVCC-Pad6)*%
X80010000Y-94742000D03*
%TO.P,LT1,7,PG*%
%TO.N,unconnected-(LT1-PG-Pad7)*%
X82550000Y-94742000D03*
D16*
%TO.P,LT1,8,GND*%
%TO.N,GND*%
X85090000Y-94742000D03*
%TO.P,LT1,9,GND*%
X87630000Y-94742000D03*
%TO.P,LT1,10,GND*%
X87630000Y-92202000D03*
D15*
%TO.P,LT1,11,Vout*%
%TO.N,Net-(J2-Pin_2)*%
X69850000Y-79502000D03*
%TO.P,LT1,12,Vout*%
X69850000Y-76962000D03*
%TO.P,LT1,13,Vout*%
X72390000Y-76962000D03*
D16*
%TO.P,LT1,14,GND*%
%TO.N,GND*%
X85090000Y-76962000D03*
%TO.P,LT1,15,GND*%
X87630000Y-76962000D03*
%TO.P,LT1,16,GND*%
X87630000Y-79502000D03*
%TD*%
D17*
%TO.P,C4,1*%
%TO.N,Net-(J2-Pin_2)*%
X93258000Y-86360000D03*
D18*
%TO.P,C4,2*%
%TO.N,GND*%
X95758000Y-86360000D03*
%TD*%
%TO.P,C1,1*%
%TO.N,VDD*%
X63474600Y-66502600D03*
%TO.P,C1,2*%
%TO.N,GND*%
X63474600Y-64002600D03*
%TD*%
%TO.P,C2,2*%
%TO.N,GND*%
X63500000Y-69621400D03*
D17*
%TO.P,C2,1*%
%TO.N,+5V*%
X63500000Y-71621400D03*
%TD*%
D10*
%TO.P,,1*%
%TO.N,N/C*%
X43180000Y-78740000D03*
%TD*%
D19*
%TO.P,D1,2,A*%
%TO.N,/RED LED*%
X53878000Y-67305000D03*
D20*
%TO.P,D1,1,K*%
%TO.N,Net-(D1-K)*%
X53878000Y-64765000D03*
%TD*%
D11*
%TO.P,J4,1,Pin_1*%
%TO.N,GND*%
X105450000Y-89100000D03*
D12*
%TO.P,J4,2,Pin_2*%
%TO.N,Net-(J4-Pin_2)*%
X107950000Y-89100000D03*
%TO.P,J4,3,Pin_3*%
%TO.N,/DATA*%
X110450000Y-89100000D03*
%TD*%
D11*
%TO.P,J5,1,Pin_1*%
%TO.N,GND*%
X105450000Y-94950000D03*
D12*
%TO.P,J5,2,Pin_2*%
%TO.N,Net-(J4-Pin_2)*%
X107950000Y-94950000D03*
%TO.P,J5,3,Pin_3*%
%TO.N,/DATA*%
X110450000Y-94950000D03*
%TD*%
D16*
%TO.P,LT2,16,GND*%
%TO.N,GND*%
X66040000Y-79375000D03*
%TO.P,LT2,15,GND*%
X66040000Y-76835000D03*
%TO.P,LT2,14,GND*%
X63500000Y-76835000D03*
D15*
%TO.P,LT2,13,Vout*%
%TO.N,Net-(J4-Pin_2)*%
X50800000Y-76835000D03*
%TO.P,LT2,12,Vout*%
X48260000Y-76835000D03*
%TO.P,LT2,11,Vout*%
X48260000Y-79375000D03*
D16*
%TO.P,LT2,10,GND*%
%TO.N,GND*%
X66040000Y-92075000D03*
%TO.P,LT2,9,GND*%
X66040000Y-94615000D03*
%TO.P,LT2,8,GND*%
X63500000Y-94615000D03*
D15*
%TO.P,LT2,7,PG*%
%TO.N,unconnected-(LT2-PG-Pad7)*%
X60960000Y-94615000D03*
%TO.P,LT2,6,INTVCC*%
%TO.N,unconnected-(LT2-INTVCC-Pad6)*%
X58420000Y-94615000D03*
%TO.P,LT2,5,MODE*%
%TO.N,unconnected-(LT2-MODE-Pad5)*%
X55880000Y-94615000D03*
%TO.P,LT2,4,EN/UV*%
%TO.N,/DCDC RST2*%
X53340000Y-94615000D03*
%TO.P,LT2,3,Vin*%
%TO.N,VDD*%
X50800000Y-94615000D03*
%TO.P,LT2,2,Vin*%
X48260000Y-94615000D03*
%TO.P,LT2,1,Vin*%
X48260000Y-92075000D03*
%TD*%
%TO.P,U1,14,5V*%
%TO.N,+5V*%
X43688000Y-60198000D03*
D16*
%TO.P,U1,13,GND*%
%TO.N,GND*%
X46228000Y-60198000D03*
D15*
%TO.P,U1,12,3V3*%
%TO.N,unconnected-(U1-3V3-Pad12)*%
X48768000Y-60198000D03*
%TO.P,U1,11,PA6_A10_D10_MOSI*%
%TO.N,/DCDC RST2*%
X51308000Y-60198000D03*
%TO.P,U1,10,PA5_A9_D9_MISO*%
%TO.N,/DCDC RST1*%
X53848000Y-60198000D03*
%TO.P,U1,9,PA7_A8_D8_SCK*%
%TO.N,unconnected-(U1-PA7_A8_D8_SCK-Pad9)*%
X56388000Y-60198000D03*
%TO.P,U1,8,PB09_A7_D7_RX*%
%TO.N,unconnected-(U1-PB09_A7_D7_RX-Pad8)*%
X58928000Y-60198000D03*
%TO.P,U1,7,PB08_A6_D6_TX*%
%TO.N,unconnected-(U1-PB08_A6_D6_TX-Pad7)*%
X58928000Y-72898000D03*
%TO.P,U1,6,PA9_A5_D5_SCL*%
%TO.N,/GREEN LED*%
X56388000Y-72898000D03*
%TO.P,U1,5,PA8_A4_D4_SDA*%
%TO.N,/RED LED*%
X53848000Y-72898000D03*
%TO.P,U1,4,PA11_A3_D3*%
%TO.N,unconnected-(U1-PA11_A3_D3-Pad4)*%
X51308000Y-72898000D03*
%TO.P,U1,3,PA10_A2_D2*%
%TO.N,unconnected-(U1-PA10_A2_D2-Pad3)*%
X48768000Y-72898000D03*
%TO.P,U1,2,PA4_A1_D1*%
%TO.N,unconnected-(U1-PA4_A1_D1-Pad2)*%
X46228000Y-72898000D03*
%TO.P,U1,1,PA02_A0_D0*%
%TO.N,Net-(U1-PA02_A0_D0)*%
X43688000Y-72898000D03*
%TD*%
D11*
%TO.P,J2,1,Pin_1*%
%TO.N,GND*%
X105450000Y-77400000D03*
D12*
%TO.P,J2,2,Pin_2*%
%TO.N,Net-(J2-Pin_2)*%
X107950000Y-77400000D03*
%TO.P,J2,3,Pin_3*%
%TO.N,/DATA*%
X110450000Y-77400000D03*
%TD*%
D17*
%TO.P,C5,1*%
%TO.N,Net-(J4-Pin_2)*%
X93258000Y-93980000D03*
D18*
%TO.P,C5,2*%
%TO.N,GND*%
X95758000Y-93980000D03*
%TD*%
D21*
%TO.P,J1,*%
%TO.N,*%
X112600000Y-114300000D03*
X101600000Y-114300000D03*
D22*
%TO.P,J1,1,Pin_1*%
%TO.N,GND*%
X104600000Y-104300000D03*
D23*
%TO.P,J1,2,Pin_2*%
%TO.N,VDD*%
X109600000Y-104300000D03*
%TD*%
D24*
%TO.P,LDO1,3,Vout*%
%TO.N,+5V*%
X68046600Y-71602600D03*
%TO.P,LDO1,2,GND*%
%TO.N,GND*%
X68046600Y-69062600D03*
D25*
%TO.P,LDO1,1,Vin*%
%TO.N,VDD*%
X68046600Y-66522600D03*
%TD*%
D26*
%TO.N,GND*%
X58877200Y-63169800D03*
X55626000Y-67564000D03*
X52832000Y-69596000D03*
X56388000Y-70612000D03*
X59182000Y-70612000D03*
X52070000Y-64262000D03*
X40640000Y-62484000D03*
X55880000Y-64770000D03*
X44450000Y-66040000D03*
X48260000Y-66040000D03*
X48260000Y-71120000D03*
X44450000Y-71120000D03*
X40640000Y-71120000D03*
X40640000Y-74930000D03*
X44450000Y-74930000D03*
%TO.N,/DCDC RST1*%
X57912000Y-64262000D03*
X74930000Y-91948000D03*
X60207305Y-76962000D03*
%TO.N,GND*%
X88900000Y-71120000D03*
X83312000Y-71374000D03*
X78740000Y-71120000D03*
X73660000Y-71120000D03*
X73660000Y-66040000D03*
X78740000Y-66040000D03*
X83820000Y-66040000D03*
X88900000Y-66040000D03*
X88900000Y-60960000D03*
X83820000Y-60960000D03*
X78740000Y-60960000D03*
X73660000Y-60960000D03*
X68580000Y-60960000D03*
X63500000Y-60960000D03*
X71120000Y-81915000D03*
X56515000Y-80010000D03*
X54610000Y-77470000D03*
X59055000Y-77470000D03*
X59055000Y-81915000D03*
%TO.N,+5V*%
X61137800Y-63830200D03*
%TO.N,VDD*%
X61595000Y-81915000D03*
%TO.N,GND*%
X77470000Y-92075000D03*
X40005000Y-97790000D03*
X113030000Y-116840000D03*
X82296000Y-78994000D03*
X81280000Y-92075000D03*
X111760000Y-99060000D03*
X86995000Y-85090000D03*
X109220000Y-85090000D03*
X48895000Y-83185000D03*
X58420000Y-92075000D03*
X40005000Y-83185000D03*
X109220000Y-114935000D03*
X113030000Y-110490000D03*
X101600000Y-116840000D03*
X109220000Y-96520000D03*
X78994000Y-78994000D03*
X44450000Y-87630000D03*
X81915000Y-85090000D03*
X44450000Y-83185000D03*
X71120000Y-85090000D03*
X106680000Y-86360000D03*
X101625400Y-102235000D03*
X111760000Y-92710000D03*
X85598000Y-78994000D03*
X85598000Y-75438000D03*
X114300000Y-106680000D03*
X53340000Y-92075000D03*
X93218000Y-75438000D03*
X100965000Y-86360000D03*
X111760000Y-101600000D03*
X104140000Y-86360000D03*
X109220000Y-99060000D03*
X105410000Y-114935000D03*
X75692000Y-78994000D03*
X114300000Y-92710000D03*
X48895000Y-87630000D03*
X101600000Y-110490000D03*
X45720000Y-97790000D03*
X99060000Y-85090000D03*
X98425000Y-93980000D03*
X114300000Y-101600000D03*
X89662000Y-75438000D03*
X78740000Y-75692000D03*
X63500000Y-92075000D03*
X85090000Y-92075000D03*
X111760000Y-80645000D03*
X101600000Y-106680000D03*
X64135000Y-81915000D03*
X82042000Y-75565000D03*
X114300000Y-86360000D03*
X114300000Y-99060000D03*
X111760000Y-86360000D03*
X73660000Y-92075000D03*
X75692000Y-75692000D03*
X66040000Y-85090000D03*
X76200000Y-85090000D03*
X105410000Y-110490000D03*
X114300000Y-75565000D03*
X53340000Y-87630000D03*
X109220000Y-106680000D03*
X99060000Y-87630000D03*
X40005000Y-87630000D03*
X89535000Y-92075000D03*
X109220000Y-110490000D03*
X114300000Y-104140000D03*
X114300000Y-80645000D03*
X93980000Y-66040000D03*
%TD*%
D27*
%TO.N,/DCDC RST1*%
X57912000Y-64262000D02*
X53848000Y-60198000D01*
X74930000Y-91948000D02*
X74930000Y-91684695D01*
X60198000Y-76962000D02*
X60207305Y-76962000D01*
X74930000Y-91684695D02*
X60207305Y-76962000D01*
D28*
%TO.N,+5V*%
X61137800Y-69259200D02*
X61137800Y-63830200D01*
X63500000Y-71621400D02*
X61137800Y-69259200D01*
D27*
X63518800Y-71602600D02*
X63500000Y-71621400D01*
D29*
X68046600Y-71602600D02*
X63518800Y-71602600D01*
%TO.N,VDD*%
X61595000Y-83947000D02*
X69850000Y-92202000D01*
X61595000Y-81915000D02*
X61595000Y-83947000D01*
D27*
%TO.N,Net-(J2-Pin_2)*%
X107950000Y-83261200D02*
X107950000Y-83250000D01*
%TD*%
%TA.AperFunction,Conductor*%
%TO.N,GND*%
G36*
X96463039Y-58439685D02*
G01*
X96508794Y-58492489D01*
X96520000Y-58544000D01*
X96520000Y-74930000D01*
X115446000Y-74930000D01*
X115513039Y-74949685D01*
X115558794Y-75002489D01*
X115570000Y-75054000D01*
X115570000Y-117986000D01*
X115550315Y-118053039D01*
X115497511Y-118098794D01*
X115446000Y-118110000D01*
X99184000Y-118110000D01*
X99116961Y-118090315D01*
X99071206Y-118037511D01*
X99060000Y-117986000D01*
X99060000Y-114300000D01*
X100694540Y-114300000D01*
X100714326Y-114488256D01*
X100714327Y-114488259D01*
X100772818Y-114668277D01*
X100772821Y-114668284D01*
X100867467Y-114832216D01*
X100994129Y-114972888D01*
X101147265Y-115084148D01*
X101147270Y-115084151D01*
X101320192Y-115161142D01*
X101320197Y-115161144D01*
X101505354Y-115200500D01*
X101505355Y-115200500D01*
X101694644Y-115200500D01*
X101694646Y-115200500D01*
X101879803Y-115161144D01*
X102052730Y-115084151D01*
X102205871Y-114972888D01*
X102332533Y-114832216D01*
X102427179Y-114668284D01*
X102485674Y-114488256D01*
X102505460Y-114300000D01*
X111694540Y-114300000D01*
X111714326Y-114488256D01*
X111714327Y-114488259D01*
X111772818Y-114668277D01*
X111772821Y-114668284D01*
X111867467Y-114832216D01*
X111994129Y-114972888D01*
X112147265Y-115084148D01*
X112147270Y-115084151D01*
X112320192Y-115161142D01*
X112320197Y-115161144D01*
X112505354Y-115200500D01*
X112505355Y-115200500D01*
X112694644Y-115200500D01*
X112694646Y-115200500D01*
X112879803Y-115161144D01*
X113052730Y-115084151D01*
X113205871Y-114972888D01*
X113332533Y-114832216D01*
X113427179Y-114668284D01*
X113485674Y-114488256D01*
X113505460Y-114300000D01*
X113485674Y-114111744D01*
X113427179Y-113931716D01*
X113332533Y-113767784D01*
X113205871Y-113627112D01*
X113205870Y-113627111D01*
X113052734Y-113515851D01*
X113052729Y-113515848D01*
X112879807Y-113438857D01*
X112879802Y-113438855D01*
X112734001Y-113407865D01*
X112694646Y-113399500D01*
X112505354Y-113399500D01*
X112472897Y-113406398D01*
X112320197Y-113438855D01*
X112320192Y-113438857D01*
X112147270Y-113515848D01*
X112147265Y-113515851D01*
X111994129Y-113627111D01*
X111867466Y-113767785D01*
X111772821Y-113931715D01*
X111772818Y-113931722D01*
X111714327Y-114111740D01*
X111714326Y-114111744D01*
X111694540Y-114300000D01*
X102505460Y-114300000D01*
X102485674Y-114111744D01*
X102427179Y-113931716D01*
X102332533Y-113767784D01*
X102205871Y-113627112D01*
X102205870Y-113627111D01*
X102052734Y-113515851D01*
X102052729Y-113515848D01*
X101879807Y-113438857D01*
X101879802Y-113438855D01*
X101734001Y-113407865D01*
X101694646Y-113399500D01*
X101505354Y-113399500D01*
X101472897Y-113406398D01*
X101320197Y-113438855D01*
X101320192Y-113438857D01*
X101147270Y-113515848D01*
X101147265Y-113515851D01*
X100994129Y-113627111D01*
X100867466Y-113767785D01*
X100772821Y-113931715D01*
X100772818Y-113931722D01*
X100714327Y-114111740D01*
X100714326Y-114111744D01*
X100694540Y-114300000D01*
X99060000Y-114300000D01*
X99060000Y-104299998D01*
X107644518Y-104299998D01*
X107644518Y-104300001D01*
X107664422Y-104578299D01*
X107723727Y-104850916D01*
X107723729Y-104850923D01*
X107784266Y-105013230D01*
X107821231Y-105112338D01*
X107821233Y-105112342D01*
X107954940Y-105357207D01*
X107954945Y-105357215D01*
X108122138Y-105580560D01*
X108122154Y-105580578D01*
X108319421Y-105777845D01*
X108319439Y-105777861D01*
X108542784Y-105945054D01*
X108542792Y-105945059D01*
X108787657Y-106078766D01*
X108787661Y-106078768D01*
X108787663Y-106078769D01*
X109049077Y-106176271D01*
X109185391Y-106205924D01*
X109321700Y-106235577D01*
X109321702Y-106235577D01*
X109321706Y-106235578D01*
X109569014Y-106253265D01*
X109599999Y-106255482D01*
X109600000Y-106255482D01*
X109600001Y-106255482D01*
X109627881Y-106253487D01*
X109878294Y-106235578D01*
X110150923Y-106176271D01*
X110412337Y-106078769D01*
X110657213Y-105945056D01*
X110880568Y-105777855D01*
X111077855Y-105580568D01*
X111245056Y-105357213D01*
X111378769Y-105112337D01*
X111476271Y-104850923D01*
X111535578Y-104578294D01*
X111555482Y-104300000D01*
X111535578Y-104021706D01*
X111476271Y-103749077D01*
X111378769Y-103487663D01*
X111245056Y-103242787D01*
X111245054Y-103242784D01*
X111077861Y-103019439D01*
X111077845Y-103019421D01*
X110880578Y-102822154D01*
X110880560Y-102822138D01*
X110657215Y-102654945D01*
X110657207Y-102654940D01*
X110412342Y-102521233D01*
X110412338Y-102521231D01*
X110313230Y-102484266D01*
X110150923Y-102423729D01*
X110150919Y-102423728D01*
X110150916Y-102423727D01*
X109878299Y-102364422D01*
X109600001Y-102344518D01*
X109599999Y-102344518D01*
X109321700Y-102364422D01*
X109049083Y-102423727D01*
X109049078Y-102423728D01*
X109049077Y-102423729D01*
X108985875Y-102447301D01*
X108787661Y-102521231D01*
X108787657Y-102521233D01*
X108542792Y-102654940D01*
X108542784Y-102654945D01*
X108319439Y-102822138D01*
X108319421Y-102822154D01*
X108122154Y-103019421D01*
X108122138Y-103019439D01*
X107954945Y-103242784D01*
X107954940Y-103242792D01*
X107821233Y-103487657D01*
X107821231Y-103487661D01*
X107723727Y-103749083D01*
X107664422Y-104021700D01*
X107644518Y-104299998D01*
X99060000Y-104299998D01*
X99060000Y-99060000D01*
X39494000Y-99060000D01*
X39426961Y-99040315D01*
X39381206Y-98987511D01*
X39370000Y-98936000D01*
X39370000Y-93979996D01*
X40174415Y-93979996D01*
X40174415Y-93980003D01*
X40194738Y-94328927D01*
X40194739Y-94328938D01*
X40255428Y-94673127D01*
X40255430Y-94673134D01*
X40355674Y-95007972D01*
X40494107Y-95328895D01*
X40494113Y-95328908D01*
X40668870Y-95631597D01*
X40877584Y-95911949D01*
X40877589Y-95911955D01*
X40966261Y-96005941D01*
X41117442Y-96166183D01*
X41293903Y-96314251D01*
X41385186Y-96390847D01*
X41385194Y-96390853D01*
X41677203Y-96582911D01*
X41677207Y-96582913D01*
X41989549Y-96739777D01*
X42317989Y-96859319D01*
X42658086Y-96939923D01*
X43005241Y-96980500D01*
X43005248Y-96980500D01*
X43354752Y-96980500D01*
X43354759Y-96980500D01*
X43701914Y-96939923D01*
X44042011Y-96859319D01*
X44370451Y-96739777D01*
X44682793Y-96582913D01*
X44974811Y-96390849D01*
X45242558Y-96166183D01*
X45482412Y-95911953D01*
X45691130Y-95631596D01*
X45865889Y-95328904D01*
X46004326Y-95007971D01*
X46104569Y-94673136D01*
X46114820Y-94615000D01*
X47292843Y-94615000D01*
X47311426Y-94803681D01*
X47311427Y-94803683D01*
X47366463Y-94985115D01*
X47366464Y-94985118D01*
X47366465Y-94985119D01*
X47366466Y-94985122D01*
X47455834Y-95152318D01*
X47455838Y-95152325D01*
X47576116Y-95298883D01*
X47722674Y-95419161D01*
X47722681Y-95419165D01*
X47889877Y-95508533D01*
X47889878Y-95508533D01*
X47889885Y-95508537D01*
X48071317Y-95563573D01*
X48071316Y-95563573D01*
X48088233Y-95565239D01*
X48260000Y-95582157D01*
X48448683Y-95563573D01*
X48630115Y-95508537D01*
X48797324Y-95419162D01*
X48943883Y-95298883D01*
X49064162Y-95152324D01*
X49153537Y-94985115D01*
X49208573Y-94803683D01*
X49227157Y-94615000D01*
X49832843Y-94615000D01*
X49851426Y-94803681D01*
X49851427Y-94803683D01*
X49906463Y-94985115D01*
X49906464Y-94985118D01*
X49906465Y-94985119D01*
X49906466Y-94985122D01*
X49995834Y-95152318D01*
X49995838Y-95152325D01*
X50116116Y-95298883D01*
X50262674Y-95419161D01*
X50262681Y-95419165D01*
X50429877Y-95508533D01*
X50429878Y-95508533D01*
X50429885Y-95508537D01*
X50611317Y-95563573D01*
X50611316Y-95563573D01*
X50628233Y-95565239D01*
X50800000Y-95582157D01*
X50988683Y-95563573D01*
X51170115Y-95508537D01*
X51337324Y-95419162D01*
X51483883Y-95298883D01*
X51604162Y-95152324D01*
X51693537Y-94985115D01*
X51748573Y-94803683D01*
X51767157Y-94615000D01*
X52372843Y-94615000D01*
X52391426Y-94803681D01*
X52391427Y-94803683D01*
X52446463Y-94985115D01*
X52446464Y-94985118D01*
X52446465Y-94985119D01*
X52446466Y-94985122D01*
X52535834Y-95152318D01*
X52535838Y-95152325D01*
X52656116Y-95298883D01*
X52802674Y-95419161D01*
X52802681Y-95419165D01*
X52969877Y-95508533D01*
X52969878Y-95508533D01*
X52969885Y-95508537D01*
X53151317Y-95563573D01*
X53151316Y-95563573D01*
X53168233Y-95565239D01*
X53340000Y-95582157D01*
X53528683Y-95563573D01*
X53710115Y-95508537D01*
X53877324Y-95419162D01*
X54023883Y-95298883D01*
X54144162Y-95152324D01*
X54233537Y-94985115D01*
X54288573Y-94803683D01*
X54307157Y-94615000D01*
X54912843Y-94615000D01*
X54931426Y-94803681D01*
X54931427Y-94803683D01*
X54986463Y-94985115D01*
X54986464Y-94985118D01*
X54986465Y-94985119D01*
X54986466Y-94985122D01*
X55075834Y-95152318D01*
X55075838Y-95152325D01*
X55196116Y-95298883D01*
X55342674Y-95419161D01*
X55342681Y-95419165D01*
X55509877Y-95508533D01*
X55509878Y-95508533D01*
X55509885Y-95508537D01*
X55691317Y-95563573D01*
X55691316Y-95563573D01*
X55708233Y-95565239D01*
X55880000Y-95582157D01*
X56068683Y-95563573D01*
X56250115Y-95508537D01*
X56417324Y-95419162D01*
X56563883Y-95298883D01*
X56684162Y-95152324D01*
X56773537Y-94985115D01*
X56828573Y-94803683D01*
X56847157Y-94615000D01*
X57452843Y-94615000D01*
X57471426Y-94803681D01*
X57471427Y-94803683D01*
X57526463Y-94985115D01*
X57526464Y-94985118D01*
X57526465Y-94985119D01*
X57526466Y-94985122D01*
X57615834Y-95152318D01*
X57615838Y-95152325D01*
X57736116Y-95298883D01*
X57882674Y-95419161D01*
X57882681Y-95419165D01*
X58049877Y-95508533D01*
X58049878Y-95508533D01*
X58049885Y-95508537D01*
X58231317Y-95563573D01*
X58231316Y-95563573D01*
X58248233Y-95565239D01*
X58420000Y-95582157D01*
X58608683Y-95563573D01*
X58790115Y-95508537D01*
X58957324Y-95419162D01*
X59103883Y-95298883D01*
X59224162Y-95152324D01*
X59313537Y-94985115D01*
X59368573Y-94803683D01*
X59387157Y-94615000D01*
X59992843Y-94615000D01*
X60011426Y-94803681D01*
X60011427Y-94803683D01*
X60066463Y-94985115D01*
X60066464Y-94985118D01*
X60066465Y-94985119D01*
X60066466Y-94985122D01*
X60155834Y-95152318D01*
X60155838Y-95152325D01*
X60276116Y-95298883D01*
X60422674Y-95419161D01*
X60422681Y-95419165D01*
X60589877Y-95508533D01*
X60589878Y-95508533D01*
X60589885Y-95508537D01*
X60771317Y-95563573D01*
X60771316Y-95563573D01*
X60788233Y-95565239D01*
X60960000Y-95582157D01*
X61148683Y-95563573D01*
X61330115Y-95508537D01*
X61497324Y-95419162D01*
X61643883Y-95298883D01*
X61764162Y-95152324D01*
X61853537Y-94985115D01*
X61908573Y-94803683D01*
X61914648Y-94742000D01*
X68882843Y-94742000D01*
X68901426Y-94930681D01*
X68917940Y-94985119D01*
X68956463Y-95112115D01*
X68956464Y-95112118D01*
X68956465Y-95112119D01*
X68956466Y-95112122D01*
X69045834Y-95279318D01*
X69045838Y-95279325D01*
X69166116Y-95425883D01*
X69312674Y-95546161D01*
X69312681Y-95546165D01*
X69479877Y-95635533D01*
X69479878Y-95635533D01*
X69479885Y-95635537D01*
X69661317Y-95690573D01*
X69661316Y-95690573D01*
X69678233Y-95692239D01*
X69850000Y-95709157D01*
X70038683Y-95690573D01*
X70220115Y-95635537D01*
X70387324Y-95546162D01*
X70533883Y-95425883D01*
X70654162Y-95279324D01*
X70743537Y-95112115D01*
X70798573Y-94930683D01*
X70817157Y-94742000D01*
X71422843Y-94742000D01*
X71441426Y-94930681D01*
X71457940Y-94985119D01*
X71496463Y-95112115D01*
X71496464Y-95112118D01*
X71496465Y-95112119D01*
X71496466Y-95112122D01*
X71585834Y-95279318D01*
X71585838Y-95279325D01*
X71706116Y-95425883D01*
X71852674Y-95546161D01*
X71852681Y-95546165D01*
X72019877Y-95635533D01*
X72019878Y-95635533D01*
X72019885Y-95635537D01*
X72201317Y-95690573D01*
X72201316Y-95690573D01*
X72218233Y-95692239D01*
X72390000Y-95709157D01*
X72578683Y-95690573D01*
X72760115Y-95635537D01*
X72927324Y-95546162D01*
X73073883Y-95425883D01*
X73194162Y-95279324D01*
X73283537Y-95112115D01*
X73338573Y-94930683D01*
X73357157Y-94742000D01*
X73962843Y-94742000D01*
X73981426Y-94930681D01*
X73997940Y-94985119D01*
X74036463Y-95112115D01*
X74036464Y-95112118D01*
X74036465Y-95112119D01*
X74036466Y-95112122D01*
X74125834Y-95279318D01*
X74125838Y-95279325D01*
X74246116Y-95425883D01*
X74392674Y-95546161D01*
X74392681Y-95546165D01*
X74559877Y-95635533D01*
X74559878Y-95635533D01*
X74559885Y-95635537D01*
X74741317Y-95690573D01*
X74741316Y-95690573D01*
X74758233Y-95692239D01*
X74930000Y-95709157D01*
X75118683Y-95690573D01*
X75300115Y-95635537D01*
X75467324Y-95546162D01*
X75613883Y-95425883D01*
X75734162Y-95279324D01*
X75823537Y-95112115D01*
X75878573Y-94930683D01*
X75897157Y-94742000D01*
X76502843Y-94742000D01*
X76521426Y-94930681D01*
X76537940Y-94985119D01*
X76576463Y-95112115D01*
X76576464Y-95112118D01*
X76576465Y-95112119D01*
X76576466Y-95112122D01*
X76665834Y-95279318D01*
X76665838Y-95279325D01*
X76786116Y-95425883D01*
X76932674Y-95546161D01*
X76932681Y-95546165D01*
X77099877Y-95635533D01*
X77099878Y-95635533D01*
X77099885Y-95635537D01*
X77281317Y-95690573D01*
X77281316Y-95690573D01*
X77298233Y-95692239D01*
X77470000Y-95709157D01*
X77658683Y-95690573D01*
X77840115Y-95635537D01*
X78007324Y-95546162D01*
X78153883Y-95425883D01*
X78274162Y-95279324D01*
X78363537Y-95112115D01*
X78418573Y-94930683D01*
X78437157Y-94742000D01*
X79042843Y-94742000D01*
X79061426Y-94930681D01*
X79077940Y-94985119D01*
X79116463Y-95112115D01*
X79116464Y-95112118D01*
X79116465Y-95112119D01*
X79116466Y-95112122D01*
X79205834Y-95279318D01*
X79205838Y-95279325D01*
X79326116Y-95425883D01*
X79472674Y-95546161D01*
X79472681Y-95546165D01*
X79639877Y-95635533D01*
X79639878Y-95635533D01*
X79639885Y-95635537D01*
X79821317Y-95690573D01*
X79821316Y-95690573D01*
X79838233Y-95692239D01*
X80010000Y-95709157D01*
X80198683Y-95690573D01*
X80380115Y-95635537D01*
X80547324Y-95546162D01*
X80693883Y-95425883D01*
X80814162Y-95279324D01*
X80903537Y-95112115D01*
X80958573Y-94930683D01*
X80977157Y-94742000D01*
X81582843Y-94742000D01*
X81601426Y-94930681D01*
X81617940Y-94985119D01*
X81656463Y-95112115D01*
X81656464Y-95112118D01*
X81656465Y-95112119D01*
X81656466Y-95112122D01*
X81745834Y-95279318D01*
X81745838Y-95279325D01*
X81866116Y-95425883D01*
X82012674Y-95546161D01*
X82012681Y-95546165D01*
X82179877Y-95635533D01*
X82179878Y-95635533D01*
X82179885Y-95635537D01*
X82361317Y-95690573D01*
X82361316Y-95690573D01*
X82378233Y-95692239D01*
X82550000Y-95709157D01*
X82738683Y-95690573D01*
X82920115Y-95635537D01*
X83087324Y-95546162D01*
X83233883Y-95425883D01*
X83354162Y-95279324D01*
X83443537Y-95112115D01*
X83498573Y-94930683D01*
X83517157Y-94742000D01*
X83498573Y-94553317D01*
X83443537Y-94371885D01*
X83443533Y-94371877D01*
X83354165Y-94204681D01*
X83354161Y-94204674D01*
X83233883Y-94058116D01*
X83087325Y-93937838D01*
X83087318Y-93937834D01*
X82920122Y-93848466D01*
X82920119Y-93848465D01*
X82920118Y-93848464D01*
X82920115Y-93848463D01*
X82738683Y-93793427D01*
X82738681Y-93793426D01*
X82738683Y-93793426D01*
X82550000Y-93774843D01*
X82361318Y-93793426D01*
X82254194Y-93825921D01*
X82179885Y-93848463D01*
X82179882Y-93848464D01*
X82179880Y-93848465D01*
X82179877Y-93848466D01*
X82012681Y-93937834D01*
X82012674Y-93937838D01*
X81866116Y-94058116D01*
X81745838Y-94204674D01*
X81745834Y-94204681D01*
X81656466Y-94371877D01*
X81656465Y-94371880D01*
X81656464Y-94371882D01*
X81656463Y-94371885D01*
X81639951Y-94426318D01*
X81601426Y-94553318D01*
X81582843Y-94742000D01*
X80977157Y-94742000D01*
X80958573Y-94553317D01*
X80903537Y-94371885D01*
X80903533Y-94371877D01*
X80814165Y-94204681D01*
X80814161Y-94204674D01*
X80693883Y-94058116D01*
X80547325Y-93937838D01*
X80547318Y-93937834D01*
X80380122Y-93848466D01*
X80380119Y-93848465D01*
X80380118Y-93848464D01*
X80380115Y-93848463D01*
X80198683Y-93793427D01*
X80198681Y-93793426D01*
X80198683Y-93793426D01*
X80010000Y-93774843D01*
X79821318Y-93793426D01*
X79714194Y-93825921D01*
X79639885Y-93848463D01*
X79639882Y-93848464D01*
X79639880Y-93848465D01*
X79639877Y-93848466D01*
X79472681Y-93937834D01*
X79472674Y-93937838D01*
X79326116Y-94058116D01*
X79205838Y-94204674D01*
X79205834Y-94204681D01*
X79116466Y-94371877D01*
X79116465Y-94371880D01*
X79116464Y-94371882D01*
X79116463Y-94371885D01*
X79099951Y-94426318D01*
X79061426Y-94553318D01*
X79042843Y-94742000D01*
X78437157Y-94742000D01*
X78418573Y-94553317D01*
X78363537Y-94371885D01*
X78363533Y-94371877D01*
X78274165Y-94204681D01*
X78274161Y-94204674D01*
X78153883Y-94058116D01*
X78007325Y-93937838D01*
X78007318Y-93937834D01*
X77840122Y-93848466D01*
X77840119Y-93848465D01*
X77840118Y-93848464D01*
X77840115Y-93848463D01*
X77658683Y-93793427D01*
X77658681Y-93793426D01*
X77658683Y-93793426D01*
X77470000Y-93774843D01*
X77281318Y-93793426D01*
X77174194Y-93825921D01*
X77099885Y-93848463D01*
X77099882Y-93848464D01*
X77099880Y-93848465D01*
X77099877Y-93848466D01*
X76932681Y-93937834D01*
X76932674Y-93937838D01*
X76786116Y-94058116D01*
X76665838Y-94204674D01*
X76665834Y-94204681D01*
X76576466Y-94371877D01*
X76576465Y-94371880D01*
X76576464Y-94371882D01*
X76576463Y-94371885D01*
X76559951Y-94426318D01*
X76521426Y-94553318D01*
X76502843Y-94742000D01*
X75897157Y-94742000D01*
X75878573Y-94553317D01*
X75823537Y-94371885D01*
X75823533Y-94371877D01*
X75734165Y-94204681D01*
X75734161Y-94204674D01*
X75613883Y-94058116D01*
X75467325Y-93937838D01*
X75467318Y-93937834D01*
X75300122Y-93848466D01*
X75300119Y-93848465D01*
X75300118Y-93848464D01*
X75300115Y-93848463D01*
X75118683Y-93793427D01*
X75118681Y-93793426D01*
X75118683Y-93793426D01*
X74930000Y-93774843D01*
X74741318Y-93793426D01*
X74634194Y-93825921D01*
X74559885Y-93848463D01*
X74559882Y-93848464D01*
X74559880Y-93848465D01*
X74559877Y-93848466D01*
X74392681Y-93937834D01*
X74392674Y-93937838D01*
X74246116Y-94058116D01*
X74125838Y-94204674D01*
X74125834Y-94204681D01*
X74036466Y-94371877D01*
X74036465Y-94371880D01*
X74036464Y-94371882D01*
X74036463Y-94371885D01*
X74019951Y-94426318D01*
X73981426Y-94553318D01*
X73962843Y-94742000D01*
X73357157Y-94742000D01*
X73338573Y-94553317D01*
X73283537Y-94371885D01*
X73283533Y-94371877D01*
X73194165Y-94204681D01*
X73194161Y-94204674D01*
X73073883Y-94058116D01*
X72927325Y-93937838D01*
X72927318Y-93937834D01*
X72760122Y-93848466D01*
X72760119Y-93848465D01*
X72760118Y-93848464D01*
X72760115Y-93848463D01*
X72578683Y-93793427D01*
X72578681Y-93793426D01*
X72578683Y-93793426D01*
X72390000Y-93774843D01*
X72201318Y-93793426D01*
X72094194Y-93825921D01*
X72019885Y-93848463D01*
X72019882Y-93848464D01*
X72019880Y-93848465D01*
X72019877Y-93848466D01*
X71852681Y-93937834D01*
X71852674Y-93937838D01*
X71706116Y-94058116D01*
X71585838Y-94204674D01*
X71585834Y-94204681D01*
X71496466Y-94371877D01*
X71496465Y-94371880D01*
X71496464Y-94371882D01*
X71496463Y-94371885D01*
X71479951Y-94426318D01*
X71441426Y-94553318D01*
X71422843Y-94742000D01*
X70817157Y-94742000D01*
X70798573Y-94553317D01*
X70743537Y-94371885D01*
X70743533Y-94371877D01*
X70654165Y-94204681D01*
X70654161Y-94204674D01*
X70533883Y-94058116D01*
X70387325Y-93937838D01*
X70387318Y-93937834D01*
X70220122Y-93848466D01*
X70220119Y-93848465D01*
X70220118Y-93848464D01*
X70220115Y-93848463D01*
X70038683Y-93793427D01*
X70038681Y-93793426D01*
X70038683Y-93793426D01*
X69850000Y-93774843D01*
X69661318Y-93793426D01*
X69554194Y-93825921D01*
X69479885Y-93848463D01*
X69479882Y-93848464D01*
X69479880Y-93848465D01*
X69479877Y-93848466D01*
X69312681Y-93937834D01*
X69312674Y-93937838D01*
X69166116Y-94058116D01*
X69045838Y-94204674D01*
X69045834Y-94204681D01*
X68956466Y-94371877D01*
X68956465Y-94371880D01*
X68956464Y-94371882D01*
X68956463Y-94371885D01*
X68939951Y-94426318D01*
X68901426Y-94553318D01*
X68882843Y-94742000D01*
X61914648Y-94742000D01*
X61927157Y-94615000D01*
X61908573Y-94426317D01*
X61853537Y-94244885D01*
X61805677Y-94155345D01*
X61764165Y-94077681D01*
X61764161Y-94077674D01*
X61643883Y-93931116D01*
X61497325Y-93810838D01*
X61497318Y-93810834D01*
X61330122Y-93721466D01*
X61330119Y-93721465D01*
X61330118Y-93721464D01*
X61330115Y-93721463D01*
X61148683Y-93666427D01*
X61148681Y-93666426D01*
X61148683Y-93666426D01*
X60960000Y-93647843D01*
X60771318Y-93666426D01*
X60664194Y-93698921D01*
X60589885Y-93721463D01*
X60589882Y-93721464D01*
X60589880Y-93721465D01*
X60589877Y-93721466D01*
X60422681Y-93810834D01*
X60422674Y-93810838D01*
X60276116Y-93931116D01*
X60155838Y-94077674D01*
X60155834Y-94077681D01*
X60066466Y-94244877D01*
X60066465Y-94244880D01*
X60011426Y-94426318D01*
X59992843Y-94615000D01*
X59387157Y-94615000D01*
X59368573Y-94426317D01*
X59313537Y-94244885D01*
X59265677Y-94155345D01*
X59224165Y-94077681D01*
X59224161Y-94077674D01*
X59103883Y-93931116D01*
X58957325Y-93810838D01*
X58957318Y-93810834D01*
X58790122Y-93721466D01*
X58790119Y-93721465D01*
X58790118Y-93721464D01*
X58790115Y-93721463D01*
X58608683Y-93666427D01*
X58608681Y-93666426D01*
X58608683Y-93666426D01*
X58420000Y-93647843D01*
X58231318Y-93666426D01*
X58124194Y-93698921D01*
X58049885Y-93721463D01*
X58049882Y-93721464D01*
X58049880Y-93721465D01*
X58049877Y-93721466D01*
X57882681Y-93810834D01*
X57882674Y-93810838D01*
X57736116Y-93931116D01*
X57615838Y-94077674D01*
X57615834Y-94077681D01*
X57526466Y-94244877D01*
X57526465Y-94244880D01*
X57471426Y-94426318D01*
X57452843Y-94615000D01*
X56847157Y-94615000D01*
X56828573Y-94426317D01*
X56773537Y-94244885D01*
X56725677Y-94155345D01*
X56684165Y-94077681D01*
X56684161Y-94077674D01*
X56563883Y-93931116D01*
X56417325Y-93810838D01*
X56417318Y-93810834D01*
X56250122Y-93721466D01*
X56250119Y-93721465D01*
X56250118Y-93721464D01*
X56250115Y-93721463D01*
X56068683Y-93666427D01*
X56068681Y-93666426D01*
X56068683Y-93666426D01*
X55880000Y-93647843D01*
X55691318Y-93666426D01*
X55584194Y-93698921D01*
X55509885Y-93721463D01*
X55509882Y-93721464D01*
X55509880Y-93721465D01*
X55509877Y-93721466D01*
X55342681Y-93810834D01*
X55342674Y-93810838D01*
X55196116Y-93931116D01*
X55075838Y-94077674D01*
X55075834Y-94077681D01*
X54986466Y-94244877D01*
X54986465Y-94244880D01*
X54931426Y-94426318D01*
X54912843Y-94615000D01*
X54307157Y-94615000D01*
X54288573Y-94426317D01*
X54233537Y-94244885D01*
X54185677Y-94155345D01*
X54144165Y-94077681D01*
X54144161Y-94077674D01*
X54023883Y-93931116D01*
X53877325Y-93810838D01*
X53877318Y-93810834D01*
X53710122Y-93721466D01*
X53710119Y-93721465D01*
X53710118Y-93721464D01*
X53710115Y-93721463D01*
X53528683Y-93666427D01*
X53528681Y-93666426D01*
X53528683Y-93666426D01*
X53340000Y-93647843D01*
X53151318Y-93666426D01*
X53044194Y-93698921D01*
X52969885Y-93721463D01*
X52969882Y-93721464D01*
X52969880Y-93721465D01*
X52969877Y-93721466D01*
X52802681Y-93810834D01*
X52802674Y-93810838D01*
X52656116Y-93931116D01*
X52535838Y-94077674D01*
X52535834Y-94077681D01*
X52446466Y-94244877D01*
X52446465Y-94244880D01*
X52391426Y-94426318D01*
X52372843Y-94615000D01*
X51767157Y-94615000D01*
X51748573Y-94426317D01*
X51693537Y-94244885D01*
X51645677Y-94155345D01*
X51604165Y-94077681D01*
X51604161Y-94077674D01*
X51483883Y-93931116D01*
X51337325Y-93810838D01*
X51337318Y-93810834D01*
X51170122Y-93721466D01*
X51170119Y-93721465D01*
X51170118Y-93721464D01*
X51170115Y-93721463D01*
X50988683Y-93666427D01*
X50988681Y-93666426D01*
X50988683Y-93666426D01*
X50800000Y-93647843D01*
X50611318Y-93666426D01*
X50504194Y-93698921D01*
X50429885Y-93721463D01*
X50429882Y-93721464D01*
X50429880Y-93721465D01*
X50429877Y-93721466D01*
X50262681Y-93810834D01*
X50262674Y-93810838D01*
X50116116Y-93931116D01*
X49995838Y-94077674D01*
X49995834Y-94077681D01*
X49906466Y-94244877D01*
X49906465Y-94244880D01*
X49851426Y-94426318D01*
X49832843Y-94615000D01*
X49227157Y-94615000D01*
X49208573Y-94426317D01*
X49153537Y-94244885D01*
X49105677Y-94155345D01*
X49064165Y-94077681D01*
X49064161Y-94077674D01*
X48943883Y-93931116D01*
X48797325Y-93810838D01*
X48797318Y-93810834D01*
X48630122Y-93721466D01*
X48630119Y-93721465D01*
X48630118Y-93721464D01*
X48630115Y-93721463D01*
X48448683Y-93666427D01*
X48448681Y-93666426D01*
X48448683Y-93666426D01*
X48260000Y-93647843D01*
X48071318Y-93666426D01*
X47964194Y-93698921D01*
X47889885Y-93721463D01*
X47889882Y-93721464D01*
X47889880Y-93721465D01*
X47889877Y-93721466D01*
X47722681Y-93810834D01*
X47722674Y-93810838D01*
X47576116Y-93931116D01*
X47455838Y-94077674D01*
X47455834Y-94077681D01*
X47366466Y-94244877D01*
X47366465Y-94244880D01*
X47311426Y-94426318D01*
X47292843Y-94615000D01*
X46114820Y-94615000D01*
X46131822Y-94518579D01*
X46165260Y-94328938D01*
X46165259Y-94328938D01*
X46165262Y-94328927D01*
X46185585Y-93980000D01*
X46165262Y-93631073D01*
X46165260Y-93631061D01*
X46104571Y-93286872D01*
X46104569Y-93286865D01*
X46069330Y-93169157D01*
X46004326Y-92952029D01*
X45865889Y-92631096D01*
X45691130Y-92328404D01*
X45649302Y-92272219D01*
X45502478Y-92075000D01*
X47292843Y-92075000D01*
X47311426Y-92263681D01*
X47311427Y-92263683D01*
X47366463Y-92445115D01*
X47366464Y-92445118D01*
X47366465Y-92445119D01*
X47366466Y-92445122D01*
X47455834Y-92612318D01*
X47455838Y-92612325D01*
X47576116Y-92758883D01*
X47722674Y-92879161D01*
X47722681Y-92879165D01*
X47889877Y-92968533D01*
X47889878Y-92968533D01*
X47889885Y-92968537D01*
X48071317Y-93023573D01*
X48071316Y-93023573D01*
X48088233Y-93025239D01*
X48260000Y-93042157D01*
X48448683Y-93023573D01*
X48630115Y-92968537D01*
X48797324Y-92879162D01*
X48943883Y-92758883D01*
X49064162Y-92612324D01*
X49153537Y-92445115D01*
X49208573Y-92263683D01*
X49227157Y-92075000D01*
X49208573Y-91886317D01*
X49153537Y-91704885D01*
X49153533Y-91704877D01*
X49064165Y-91537681D01*
X49064161Y-91537674D01*
X48943883Y-91391116D01*
X48797325Y-91270838D01*
X48797318Y-91270834D01*
X48630122Y-91181466D01*
X48630119Y-91181465D01*
X48630118Y-91181464D01*
X48630115Y-91181463D01*
X48448683Y-91126427D01*
X48448681Y-91126426D01*
X48448683Y-91126426D01*
X48260000Y-91107843D01*
X48071318Y-91126426D01*
X47964194Y-91158921D01*
X47889885Y-91181463D01*
X47889882Y-91181464D01*
X47889880Y-91181465D01*
X47889877Y-91181466D01*
X47722681Y-91270834D01*
X47722674Y-91270838D01*
X47576116Y-91391116D01*
X47455838Y-91537674D01*
X47455834Y-91537681D01*
X47366466Y-91704877D01*
X47366465Y-91704880D01*
X47311426Y-91886318D01*
X47292843Y-92075000D01*
X45502478Y-92075000D01*
X45482415Y-92048050D01*
X45482410Y-92048044D01*
X45278473Y-91831885D01*
X45242558Y-91793817D01*
X45088659Y-91664681D01*
X44974813Y-91569152D01*
X44974805Y-91569146D01*
X44682796Y-91377088D01*
X44370458Y-91220226D01*
X44370452Y-91220223D01*
X44042012Y-91100681D01*
X44042009Y-91100680D01*
X43701915Y-91020077D01*
X43658519Y-91015004D01*
X43354759Y-90979500D01*
X43005241Y-90979500D01*
X42701480Y-91015004D01*
X42658085Y-91020077D01*
X42658083Y-91020077D01*
X42317990Y-91100680D01*
X42317987Y-91100681D01*
X41989547Y-91220223D01*
X41989541Y-91220226D01*
X41677203Y-91377088D01*
X41385194Y-91569146D01*
X41385186Y-91569152D01*
X41117442Y-91793817D01*
X41117440Y-91793819D01*
X40877589Y-92048044D01*
X40877584Y-92048050D01*
X40668870Y-92328402D01*
X40494113Y-92631091D01*
X40494107Y-92631104D01*
X40355674Y-92952027D01*
X40255430Y-93286865D01*
X40255428Y-93286872D01*
X40194739Y-93631061D01*
X40194738Y-93631072D01*
X40174415Y-93979996D01*
X39370000Y-93979996D01*
X39370000Y-84015996D01*
X60894499Y-84015996D01*
X60921418Y-84151322D01*
X60921421Y-84151332D01*
X60974222Y-84278807D01*
X61050887Y-84393545D01*
X61050888Y-84393546D01*
X68854036Y-92196693D01*
X68887521Y-92258016D01*
X68889758Y-92272219D01*
X68901426Y-92390681D01*
X68917940Y-92445119D01*
X68956463Y-92572115D01*
X68956464Y-92572118D01*
X68956465Y-92572119D01*
X68956466Y-92572122D01*
X69045834Y-92739318D01*
X69045838Y-92739325D01*
X69166116Y-92885883D01*
X69312674Y-93006161D01*
X69312681Y-93006165D01*
X69479877Y-93095533D01*
X69479878Y-93095533D01*
X69479885Y-93095537D01*
X69661317Y-93150573D01*
X69661316Y-93150573D01*
X69678233Y-93152239D01*
X69850000Y-93169157D01*
X69940463Y-93160247D01*
X92257500Y-93160247D01*
X92257500Y-94799752D01*
X92269131Y-94858229D01*
X92269132Y-94858230D01*
X92313447Y-94924552D01*
X92379769Y-94968867D01*
X92379770Y-94968868D01*
X92438247Y-94980499D01*
X92438250Y-94980500D01*
X92438252Y-94980500D01*
X94077750Y-94980500D01*
X94077751Y-94980499D01*
X94092568Y-94977552D01*
X94136229Y-94968868D01*
X94136229Y-94968867D01*
X94136231Y-94968867D01*
X94202552Y-94924552D01*
X94246867Y-94858231D01*
X94246867Y-94858229D01*
X94246868Y-94858229D01*
X94258499Y-94799752D01*
X94258500Y-94799750D01*
X94258500Y-94721530D01*
X106899500Y-94721530D01*
X106899500Y-95178469D01*
X106939868Y-95381412D01*
X106939870Y-95381420D01*
X107019059Y-95572598D01*
X107025446Y-95582157D01*
X107134024Y-95744657D01*
X107280342Y-95890975D01*
X107280345Y-95890977D01*
X107452402Y-96005941D01*
X107643580Y-96085130D01*
X107846530Y-96125499D01*
X107846534Y-96125500D01*
X107846535Y-96125500D01*
X108053466Y-96125500D01*
X108053467Y-96125499D01*
X108256420Y-96085130D01*
X108447598Y-96005941D01*
X108619655Y-95890977D01*
X108765977Y-95744655D01*
X108880941Y-95572598D01*
X108960130Y-95381420D01*
X109000500Y-95178465D01*
X109000500Y-94721535D01*
X109000499Y-94721530D01*
X109399500Y-94721530D01*
X109399500Y-95178469D01*
X109439868Y-95381412D01*
X109439870Y-95381420D01*
X109519059Y-95572598D01*
X109525446Y-95582157D01*
X109634024Y-95744657D01*
X109780342Y-95890975D01*
X109780345Y-95890977D01*
X109952402Y-96005941D01*
X110143580Y-96085130D01*
X110346530Y-96125499D01*
X110346534Y-96125500D01*
X110346535Y-96125500D01*
X110553466Y-96125500D01*
X110553467Y-96125499D01*
X110756420Y-96085130D01*
X110947598Y-96005941D01*
X111119655Y-95890977D01*
X111265977Y-95744655D01*
X111380941Y-95572598D01*
X111460130Y-95381420D01*
X111500500Y-95178465D01*
X111500500Y-94721535D01*
X111460130Y-94518580D01*
X111380941Y-94327402D01*
X111265977Y-94155345D01*
X111265975Y-94155342D01*
X111119657Y-94009024D01*
X111013112Y-93937834D01*
X110947598Y-93894059D01*
X110837527Y-93848466D01*
X110756420Y-93814870D01*
X110756412Y-93814868D01*
X110553469Y-93774500D01*
X110553465Y-93774500D01*
X110346535Y-93774500D01*
X110346530Y-93774500D01*
X110143587Y-93814868D01*
X110143579Y-93814870D01*
X109952403Y-93894058D01*
X109780342Y-94009024D01*
X109634024Y-94155342D01*
X109519058Y-94327403D01*
X109439870Y-94518579D01*
X109439868Y-94518587D01*
X109399500Y-94721530D01*
X109000499Y-94721530D01*
X108960130Y-94518580D01*
X108880941Y-94327402D01*
X108765977Y-94155345D01*
X108765975Y-94155342D01*
X108619657Y-94009024D01*
X108513112Y-93937834D01*
X108447598Y-93894059D01*
X108337527Y-93848466D01*
X108256420Y-93814870D01*
X108256412Y-93814868D01*
X108053469Y-93774500D01*
X108053465Y-93774500D01*
X107846535Y-93774500D01*
X107846530Y-93774500D01*
X107643587Y-93814868D01*
X107643579Y-93814870D01*
X107452403Y-93894058D01*
X107280342Y-94009024D01*
X107134024Y-94155342D01*
X107019058Y-94327403D01*
X106939870Y-94518579D01*
X106939868Y-94518587D01*
X106899500Y-94721530D01*
X94258500Y-94721530D01*
X94258500Y-93160249D01*
X94258499Y-93160247D01*
X94246868Y-93101770D01*
X94246867Y-93101769D01*
X94202552Y-93035447D01*
X94136230Y-92991132D01*
X94136229Y-92991131D01*
X94077752Y-92979500D01*
X94077748Y-92979500D01*
X92438252Y-92979500D01*
X92438247Y-92979500D01*
X92379770Y-92991131D01*
X92379769Y-92991132D01*
X92313447Y-93035447D01*
X92269132Y-93101769D01*
X92269131Y-93101770D01*
X92257500Y-93160247D01*
X69940463Y-93160247D01*
X70038683Y-93150573D01*
X70220115Y-93095537D01*
X70387324Y-93006162D01*
X70533883Y-92885883D01*
X70654162Y-92739324D01*
X70743537Y-92572115D01*
X70798573Y-92390683D01*
X70817157Y-92202000D01*
X70798573Y-92013317D01*
X70743537Y-91831885D01*
X70743533Y-91831877D01*
X70654165Y-91664681D01*
X70654161Y-91664674D01*
X70533883Y-91518116D01*
X70387325Y-91397838D01*
X70387318Y-91397834D01*
X70220122Y-91308466D01*
X70220119Y-91308465D01*
X70220118Y-91308464D01*
X70220115Y-91308463D01*
X70038683Y-91253427D01*
X70038681Y-91253426D01*
X70038683Y-91253426D01*
X69920219Y-91241758D01*
X69855432Y-91215596D01*
X69844693Y-91206036D01*
X62331819Y-83693162D01*
X62298334Y-83631839D01*
X62295500Y-83605481D01*
X62295500Y-81846004D01*
X62268581Y-81710677D01*
X62268580Y-81710676D01*
X62268580Y-81710672D01*
X62264127Y-81699922D01*
X62215778Y-81583195D01*
X62215771Y-81583182D01*
X62139114Y-81468458D01*
X62139111Y-81468454D01*
X62041545Y-81370888D01*
X62041541Y-81370885D01*
X61926817Y-81294228D01*
X61926804Y-81294221D01*
X61799332Y-81241421D01*
X61799322Y-81241418D01*
X61663995Y-81214500D01*
X61663993Y-81214500D01*
X61526007Y-81214500D01*
X61526005Y-81214500D01*
X61390677Y-81241418D01*
X61390667Y-81241421D01*
X61263195Y-81294221D01*
X61263182Y-81294228D01*
X61148458Y-81370885D01*
X61148454Y-81370888D01*
X61050888Y-81468454D01*
X61050885Y-81468458D01*
X60974228Y-81583182D01*
X60974221Y-81583195D01*
X60921421Y-81710667D01*
X60921418Y-81710677D01*
X60894500Y-81846004D01*
X60894500Y-81846007D01*
X60894500Y-83878006D01*
X60894500Y-84015994D01*
X60894500Y-84015996D01*
X60894499Y-84015996D01*
X39370000Y-84015996D01*
X39370000Y-78739996D01*
X40174415Y-78739996D01*
X40174415Y-78740003D01*
X40194738Y-79088927D01*
X40194739Y-79088938D01*
X40255428Y-79433127D01*
X40255430Y-79433134D01*
X40355674Y-79767972D01*
X40494107Y-80088895D01*
X40494113Y-80088908D01*
X40668870Y-80391597D01*
X40877584Y-80671949D01*
X40877589Y-80671955D01*
X41001463Y-80803253D01*
X41117442Y-80926183D01*
X41293903Y-81074251D01*
X41385186Y-81150847D01*
X41385194Y-81150853D01*
X41677203Y-81342911D01*
X41677207Y-81342913D01*
X41989549Y-81499777D01*
X42317989Y-81619319D01*
X42658086Y-81699923D01*
X43005241Y-81740500D01*
X43005248Y-81740500D01*
X43354752Y-81740500D01*
X43354759Y-81740500D01*
X43701914Y-81699923D01*
X44042011Y-81619319D01*
X44370451Y-81499777D01*
X44682793Y-81342913D01*
X44780132Y-81278891D01*
X44974805Y-81150853D01*
X44974805Y-81150852D01*
X44974811Y-81150849D01*
X45242558Y-80926183D01*
X45482412Y-80671953D01*
X45691130Y-80391596D01*
X45865889Y-80088904D01*
X46004326Y-79767971D01*
X46104569Y-79433136D01*
X46114820Y-79375000D01*
X47292843Y-79375000D01*
X47311426Y-79563681D01*
X47311427Y-79563683D01*
X47366463Y-79745115D01*
X47366464Y-79745118D01*
X47366465Y-79745119D01*
X47366466Y-79745122D01*
X47455834Y-79912318D01*
X47455838Y-79912325D01*
X47576116Y-80058883D01*
X47722674Y-80179161D01*
X47722681Y-80179165D01*
X47889877Y-80268533D01*
X47889878Y-80268533D01*
X47889885Y-80268537D01*
X48071317Y-80323573D01*
X48071316Y-80323573D01*
X48088233Y-80325239D01*
X48260000Y-80342157D01*
X48448683Y-80323573D01*
X48630115Y-80268537D01*
X48797324Y-80179162D01*
X48943883Y-80058883D01*
X49064162Y-79912324D01*
X49153537Y-79745115D01*
X49208573Y-79563683D01*
X49227157Y-79375000D01*
X49208573Y-79186317D01*
X49153537Y-79004885D01*
X49064162Y-78837676D01*
X49064161Y-78837674D01*
X48943883Y-78691116D01*
X48797325Y-78570838D01*
X48797318Y-78570834D01*
X48630122Y-78481466D01*
X48630119Y-78481465D01*
X48630118Y-78481464D01*
X48630115Y-78481463D01*
X48448683Y-78426427D01*
X48448681Y-78426426D01*
X48448683Y-78426426D01*
X48260000Y-78407843D01*
X48071318Y-78426426D01*
X47974021Y-78455941D01*
X47889885Y-78481463D01*
X47889882Y-78481464D01*
X47889880Y-78481465D01*
X47889877Y-78481466D01*
X47722681Y-78570834D01*
X47722674Y-78570838D01*
X47576116Y-78691116D01*
X47455838Y-78837674D01*
X47455834Y-78837681D01*
X47366466Y-79004877D01*
X47366465Y-79004880D01*
X47311426Y-79186318D01*
X47292843Y-79375000D01*
X46114820Y-79375000D01*
X46130045Y-79288657D01*
X46165260Y-79088938D01*
X46165259Y-79088938D01*
X46165262Y-79088927D01*
X46185585Y-78740000D01*
X46165262Y-78391073D01*
X46156429Y-78340977D01*
X46104571Y-78046872D01*
X46104569Y-78046865D01*
X46097304Y-78022598D01*
X46004326Y-77712029D01*
X45865889Y-77391096D01*
X45691130Y-77088404D01*
X45691129Y-77088402D01*
X45502478Y-76835000D01*
X47292843Y-76835000D01*
X47311426Y-77023681D01*
X47311427Y-77023683D01*
X47366463Y-77205115D01*
X47366464Y-77205118D01*
X47366465Y-77205119D01*
X47366466Y-77205122D01*
X47455834Y-77372318D01*
X47455838Y-77372325D01*
X47576116Y-77518883D01*
X47722674Y-77639161D01*
X47722681Y-77639165D01*
X47889877Y-77728533D01*
X47889878Y-77728533D01*
X47889885Y-77728537D01*
X48071317Y-77783573D01*
X48071316Y-77783573D01*
X48088233Y-77785239D01*
X48260000Y-77802157D01*
X48448683Y-77783573D01*
X48630115Y-77728537D01*
X48797324Y-77639162D01*
X48943883Y-77518883D01*
X49064162Y-77372324D01*
X49153537Y-77205115D01*
X49208573Y-77023683D01*
X49227157Y-76835000D01*
X49832843Y-76835000D01*
X49851426Y-77023681D01*
X49851427Y-77023683D01*
X49906463Y-77205115D01*
X49906464Y-77205118D01*
X49906465Y-77205119D01*
X49906466Y-77205122D01*
X49995834Y-77372318D01*
X49995838Y-77372325D01*
X50116116Y-77518883D01*
X50262674Y-77639161D01*
X50262681Y-77639165D01*
X50429877Y-77728533D01*
X50429878Y-77728533D01*
X50429885Y-77728537D01*
X50611317Y-77783573D01*
X50611316Y-77783573D01*
X50628233Y-77785239D01*
X50800000Y-77802157D01*
X50988683Y-77783573D01*
X51170115Y-77728537D01*
X51337324Y-77639162D01*
X51483883Y-77518883D01*
X51604162Y-77372324D01*
X51693537Y-77205115D01*
X51748573Y-77023683D01*
X51754649Y-76961998D01*
X59601623Y-76961998D01*
X59601623Y-76962001D01*
X59622260Y-77118760D01*
X59622261Y-77118762D01*
X59658032Y-77205122D01*
X59682769Y-77264841D01*
X59779023Y-77390282D01*
X59904464Y-77486536D01*
X60050543Y-77547044D01*
X60078853Y-77550771D01*
X60207304Y-77567682D01*
X60207304Y-77567681D01*
X60207305Y-77567682D01*
X60275122Y-77558753D01*
X60344157Y-77569518D01*
X60378989Y-77594011D01*
X74354103Y-91569125D01*
X74387588Y-91630448D01*
X74382604Y-91700140D01*
X74380984Y-91704257D01*
X74344956Y-91791238D01*
X74344955Y-91791239D01*
X74324318Y-91947998D01*
X74324318Y-91948001D01*
X74344955Y-92104760D01*
X74344956Y-92104762D01*
X74405464Y-92250841D01*
X74501718Y-92376282D01*
X74627159Y-92472536D01*
X74773238Y-92533044D01*
X74851619Y-92543363D01*
X74929999Y-92553682D01*
X74930000Y-92553682D01*
X74930001Y-92553682D01*
X74982254Y-92546802D01*
X75086762Y-92533044D01*
X75232841Y-92472536D01*
X75358282Y-92376282D01*
X75454536Y-92250841D01*
X75515044Y-92104762D01*
X75535682Y-91948000D01*
X75527561Y-91886318D01*
X75515384Y-91793819D01*
X75515044Y-91791238D01*
X75454536Y-91645159D01*
X75358282Y-91519718D01*
X75232841Y-91423464D01*
X75170974Y-91397838D01*
X75079254Y-91359846D01*
X75080411Y-91357051D01*
X75038441Y-91332809D01*
X72577162Y-88871530D01*
X106899500Y-88871530D01*
X106899500Y-89328469D01*
X106939868Y-89531412D01*
X106939870Y-89531420D01*
X107019058Y-89722596D01*
X107134024Y-89894657D01*
X107280342Y-90040975D01*
X107280345Y-90040977D01*
X107452402Y-90155941D01*
X107643580Y-90235130D01*
X107846530Y-90275499D01*
X107846534Y-90275500D01*
X107846535Y-90275500D01*
X108053466Y-90275500D01*
X108053467Y-90275499D01*
X108256420Y-90235130D01*
X108447598Y-90155941D01*
X108619655Y-90040977D01*
X108765977Y-89894655D01*
X108880941Y-89722598D01*
X108960130Y-89531420D01*
X109000500Y-89328465D01*
X109000500Y-88871535D01*
X109000499Y-88871530D01*
X109399500Y-88871530D01*
X109399500Y-89328469D01*
X109439868Y-89531412D01*
X109439870Y-89531420D01*
X109519058Y-89722596D01*
X109634024Y-89894657D01*
X109780342Y-90040975D01*
X109780345Y-90040977D01*
X109952402Y-90155941D01*
X110143580Y-90235130D01*
X110346530Y-90275499D01*
X110346534Y-90275500D01*
X110346535Y-90275500D01*
X110553466Y-90275500D01*
X110553467Y-90275499D01*
X110756420Y-90235130D01*
X110947598Y-90155941D01*
X111119655Y-90040977D01*
X111265977Y-89894655D01*
X111380941Y-89722598D01*
X111460130Y-89531420D01*
X111500500Y-89328465D01*
X111500500Y-88871535D01*
X111460130Y-88668580D01*
X111380941Y-88477402D01*
X111265977Y-88305345D01*
X111265975Y-88305342D01*
X111119657Y-88159024D01*
X111033626Y-88101541D01*
X110947598Y-88044059D01*
X110756420Y-87964870D01*
X110756412Y-87964868D01*
X110553469Y-87924500D01*
X110553465Y-87924500D01*
X110346535Y-87924500D01*
X110346530Y-87924500D01*
X110143587Y-87964868D01*
X110143579Y-87964870D01*
X109952403Y-88044058D01*
X109780342Y-88159024D01*
X109634024Y-88305342D01*
X109519058Y-88477403D01*
X109439870Y-88668579D01*
X109439868Y-88668587D01*
X109399500Y-88871530D01*
X109000499Y-88871530D01*
X108960130Y-88668580D01*
X108880941Y-88477402D01*
X108765977Y-88305345D01*
X108765975Y-88305342D01*
X108619657Y-88159024D01*
X108533626Y-88101541D01*
X108447598Y-88044059D01*
X108256420Y-87964870D01*
X108256412Y-87964868D01*
X108053469Y-87924500D01*
X108053465Y-87924500D01*
X107846535Y-87924500D01*
X107846530Y-87924500D01*
X107643587Y-87964868D01*
X107643579Y-87964870D01*
X107452403Y-88044058D01*
X107280342Y-88159024D01*
X107134024Y-88305342D01*
X107019058Y-88477403D01*
X106939870Y-88668579D01*
X106939868Y-88668587D01*
X106899500Y-88871530D01*
X72577162Y-88871530D01*
X69245879Y-85540247D01*
X92257500Y-85540247D01*
X92257500Y-87179752D01*
X92269131Y-87238229D01*
X92269132Y-87238230D01*
X92313447Y-87304552D01*
X92379769Y-87348867D01*
X92379770Y-87348868D01*
X92438247Y-87360499D01*
X92438250Y-87360500D01*
X92438252Y-87360500D01*
X94077750Y-87360500D01*
X94077751Y-87360499D01*
X94092568Y-87357552D01*
X94136229Y-87348868D01*
X94136229Y-87348867D01*
X94136231Y-87348867D01*
X94202552Y-87304552D01*
X94246867Y-87238231D01*
X94246867Y-87238229D01*
X94246868Y-87238229D01*
X94258499Y-87179752D01*
X94258500Y-87179750D01*
X94258500Y-85540249D01*
X94258499Y-85540247D01*
X94246868Y-85481770D01*
X94246867Y-85481769D01*
X94202552Y-85415447D01*
X94136230Y-85371132D01*
X94136229Y-85371131D01*
X94077752Y-85359500D01*
X94077748Y-85359500D01*
X92438252Y-85359500D01*
X92438247Y-85359500D01*
X92379770Y-85371131D01*
X92379769Y-85371132D01*
X92313447Y-85415447D01*
X92269132Y-85481769D01*
X92269131Y-85481770D01*
X92257500Y-85540247D01*
X69245879Y-85540247D01*
X66727162Y-83021530D01*
X106899500Y-83021530D01*
X106899500Y-83478469D01*
X106934981Y-83656843D01*
X106939870Y-83681420D01*
X107019059Y-83872598D01*
X107076541Y-83958626D01*
X107134024Y-84044657D01*
X107280342Y-84190975D01*
X107280345Y-84190977D01*
X107452402Y-84305941D01*
X107643580Y-84385130D01*
X107846530Y-84425499D01*
X107846534Y-84425500D01*
X107846535Y-84425500D01*
X108053466Y-84425500D01*
X108053467Y-84425499D01*
X108256420Y-84385130D01*
X108447598Y-84305941D01*
X108619655Y-84190977D01*
X108765977Y-84044655D01*
X108880941Y-83872598D01*
X108960130Y-83681420D01*
X109000500Y-83478465D01*
X109000500Y-83021535D01*
X109000499Y-83021530D01*
X109399500Y-83021530D01*
X109399500Y-83478469D01*
X109434981Y-83656843D01*
X109439870Y-83681420D01*
X109519059Y-83872598D01*
X109576541Y-83958626D01*
X109634024Y-84044657D01*
X109780342Y-84190975D01*
X109780345Y-84190977D01*
X109952402Y-84305941D01*
X110143580Y-84385130D01*
X110346530Y-84425499D01*
X110346534Y-84425500D01*
X110346535Y-84425500D01*
X110553466Y-84425500D01*
X110553467Y-84425499D01*
X110756420Y-84385130D01*
X110947598Y-84305941D01*
X111119655Y-84190977D01*
X111265977Y-84044655D01*
X111380941Y-83872598D01*
X111460130Y-83681420D01*
X111500500Y-83478465D01*
X111500500Y-83021535D01*
X111460130Y-82818580D01*
X111380941Y-82627402D01*
X111265977Y-82455345D01*
X111265975Y-82455342D01*
X111119657Y-82309024D01*
X111033626Y-82251541D01*
X110947598Y-82194059D01*
X110756420Y-82114870D01*
X110756412Y-82114868D01*
X110553469Y-82074500D01*
X110553465Y-82074500D01*
X110346535Y-82074500D01*
X110346530Y-82074500D01*
X110143587Y-82114868D01*
X110143579Y-82114870D01*
X109952403Y-82194058D01*
X109780342Y-82309024D01*
X109634024Y-82455342D01*
X109519058Y-82627403D01*
X109439870Y-82818579D01*
X109439868Y-82818587D01*
X109399500Y-83021530D01*
X109000499Y-83021530D01*
X108960130Y-82818580D01*
X108880941Y-82627402D01*
X108765977Y-82455345D01*
X108765975Y-82455342D01*
X108619657Y-82309024D01*
X108533626Y-82251541D01*
X108447598Y-82194059D01*
X108256420Y-82114870D01*
X108256412Y-82114868D01*
X108053469Y-82074500D01*
X108053465Y-82074500D01*
X107846535Y-82074500D01*
X107846530Y-82074500D01*
X107643587Y-82114868D01*
X107643579Y-82114870D01*
X107452403Y-82194058D01*
X107280342Y-82309024D01*
X107134024Y-82455342D01*
X107019058Y-82627403D01*
X106939870Y-82818579D01*
X106939868Y-82818587D01*
X106899500Y-83021530D01*
X66727162Y-83021530D01*
X63207632Y-79502000D01*
X68882843Y-79502000D01*
X68901426Y-79690681D01*
X68917940Y-79745119D01*
X68956463Y-79872115D01*
X68956464Y-79872118D01*
X68956465Y-79872119D01*
X68956466Y-79872122D01*
X69045834Y-80039318D01*
X69045838Y-80039325D01*
X69166116Y-80185883D01*
X69312674Y-80306161D01*
X69312681Y-80306165D01*
X69479877Y-80395533D01*
X69479878Y-80395533D01*
X69479885Y-80395537D01*
X69661317Y-80450573D01*
X69661316Y-80450573D01*
X69678233Y-80452239D01*
X69850000Y-80469157D01*
X70038683Y-80450573D01*
X70220115Y-80395537D01*
X70387324Y-80306162D01*
X70533883Y-80185883D01*
X70654162Y-80039324D01*
X70743537Y-79872115D01*
X70798573Y-79690683D01*
X70817157Y-79502000D01*
X70798573Y-79313317D01*
X70743537Y-79131885D01*
X70735365Y-79116596D01*
X70654165Y-78964681D01*
X70654161Y-78964674D01*
X70533883Y-78818116D01*
X70387325Y-78697838D01*
X70387318Y-78697834D01*
X70220122Y-78608466D01*
X70220119Y-78608465D01*
X70220118Y-78608464D01*
X70220115Y-78608463D01*
X70038683Y-78553427D01*
X70038681Y-78553426D01*
X70038683Y-78553426D01*
X69850000Y-78534843D01*
X69661318Y-78553426D01*
X69554194Y-78585921D01*
X69479885Y-78608463D01*
X69479882Y-78608464D01*
X69479880Y-78608465D01*
X69479877Y-78608466D01*
X69312681Y-78697834D01*
X69312674Y-78697838D01*
X69166116Y-78818116D01*
X69045838Y-78964674D01*
X69045834Y-78964681D01*
X68956466Y-79131877D01*
X68956465Y-79131880D01*
X68956464Y-79131882D01*
X68956463Y-79131885D01*
X68939951Y-79186318D01*
X68901426Y-79313318D01*
X68882843Y-79502000D01*
X63207632Y-79502000D01*
X61921162Y-78215530D01*
X94453500Y-78215530D01*
X94453500Y-78722469D01*
X94493868Y-78925412D01*
X94493870Y-78925420D01*
X94573059Y-79116598D01*
X94619643Y-79186317D01*
X94688024Y-79288657D01*
X94834342Y-79434975D01*
X94834345Y-79434977D01*
X95006402Y-79549941D01*
X95197580Y-79629130D01*
X95400530Y-79669499D01*
X95400534Y-79669500D01*
X95400535Y-79669500D01*
X95607466Y-79669500D01*
X95607467Y-79669499D01*
X95810420Y-79629130D01*
X96001598Y-79549941D01*
X96173655Y-79434977D01*
X96319977Y-79288655D01*
X96434941Y-79116598D01*
X96514130Y-78925420D01*
X96554500Y-78722465D01*
X96554500Y-78215535D01*
X96514130Y-78012580D01*
X96434941Y-77821402D01*
X96319977Y-77649345D01*
X96319975Y-77649342D01*
X96173657Y-77503024D01*
X96006143Y-77391096D01*
X96001598Y-77388059D01*
X95810420Y-77308870D01*
X95810412Y-77308868D01*
X95607469Y-77268500D01*
X95607465Y-77268500D01*
X95400535Y-77268500D01*
X95400530Y-77268500D01*
X95197587Y-77308868D01*
X95197579Y-77308870D01*
X95006403Y-77388058D01*
X94834342Y-77503024D01*
X94688024Y-77649342D01*
X94573058Y-77821403D01*
X94493870Y-78012579D01*
X94493868Y-78012587D01*
X94453500Y-78215530D01*
X61921162Y-78215530D01*
X60839316Y-77133684D01*
X60805831Y-77072361D01*
X60804058Y-77029816D01*
X60804866Y-77023683D01*
X60812987Y-76962000D01*
X68882843Y-76962000D01*
X68901426Y-77150681D01*
X68917940Y-77205119D01*
X68956463Y-77332115D01*
X68956464Y-77332118D01*
X68956465Y-77332119D01*
X68956466Y-77332122D01*
X69045834Y-77499318D01*
X69045838Y-77499325D01*
X69166116Y-77645883D01*
X69312674Y-77766161D01*
X69312681Y-77766165D01*
X69479877Y-77855533D01*
X69479878Y-77855533D01*
X69479885Y-77855537D01*
X69661317Y-77910573D01*
X69661316Y-77910573D01*
X69678233Y-77912239D01*
X69850000Y-77929157D01*
X70038683Y-77910573D01*
X70220115Y-77855537D01*
X70387324Y-77766162D01*
X70533883Y-77645883D01*
X70654162Y-77499324D01*
X70743537Y-77332115D01*
X70798573Y-77150683D01*
X70817157Y-76962000D01*
X71422843Y-76962000D01*
X71441426Y-77150681D01*
X71457940Y-77205119D01*
X71496463Y-77332115D01*
X71496464Y-77332118D01*
X71496465Y-77332119D01*
X71496466Y-77332122D01*
X71585834Y-77499318D01*
X71585838Y-77499325D01*
X71706116Y-77645883D01*
X71852674Y-77766161D01*
X71852681Y-77766165D01*
X72019877Y-77855533D01*
X72019878Y-77855533D01*
X72019885Y-77855537D01*
X72201317Y-77910573D01*
X72201316Y-77910573D01*
X72218233Y-77912239D01*
X72390000Y-77929157D01*
X72578683Y-77910573D01*
X72760115Y-77855537D01*
X72927324Y-77766162D01*
X73073883Y-77645883D01*
X73194162Y-77499324D01*
X73283537Y-77332115D01*
X73332249Y-77171530D01*
X106899500Y-77171530D01*
X106899500Y-77628469D01*
X106939868Y-77831412D01*
X106939870Y-77831420D01*
X107019058Y-78022596D01*
X107134024Y-78194657D01*
X107280342Y-78340975D01*
X107280345Y-78340977D01*
X107452402Y-78455941D01*
X107643580Y-78535130D01*
X107846530Y-78575499D01*
X107846534Y-78575500D01*
X107846535Y-78575500D01*
X108053466Y-78575500D01*
X108053467Y-78575499D01*
X108256420Y-78535130D01*
X108447598Y-78455941D01*
X108619655Y-78340977D01*
X108765977Y-78194655D01*
X108880941Y-78022598D01*
X108960130Y-77831420D01*
X109000500Y-77628465D01*
X109000500Y-77171535D01*
X109000499Y-77171530D01*
X109399500Y-77171530D01*
X109399500Y-77628469D01*
X109439868Y-77831412D01*
X109439870Y-77831420D01*
X109519058Y-78022596D01*
X109634024Y-78194657D01*
X109780342Y-78340975D01*
X109780345Y-78340977D01*
X109952402Y-78455941D01*
X110143580Y-78535130D01*
X110346530Y-78575499D01*
X110346534Y-78575500D01*
X110346535Y-78575500D01*
X110553466Y-78575500D01*
X110553467Y-78575499D01*
X110756420Y-78535130D01*
X110947598Y-78455941D01*
X111119655Y-78340977D01*
X111265977Y-78194655D01*
X111380941Y-78022598D01*
X111460130Y-77831420D01*
X111500500Y-77628465D01*
X111500500Y-77171535D01*
X111460130Y-76968580D01*
X111380941Y-76777402D01*
X111265977Y-76605345D01*
X111265975Y-76605342D01*
X111119657Y-76459024D01*
X110996832Y-76376956D01*
X110947598Y-76344059D01*
X110835615Y-76297674D01*
X110756420Y-76264870D01*
X110756412Y-76264868D01*
X110553469Y-76224500D01*
X110553465Y-76224500D01*
X110346535Y-76224500D01*
X110346530Y-76224500D01*
X110143587Y-76264868D01*
X110143579Y-76264870D01*
X109952403Y-76344058D01*
X109780342Y-76459024D01*
X109634024Y-76605342D01*
X109519058Y-76777403D01*
X109439870Y-76968579D01*
X109439868Y-76968587D01*
X109399500Y-77171530D01*
X109000499Y-77171530D01*
X108960130Y-76968580D01*
X108880941Y-76777402D01*
X108765977Y-76605345D01*
X108765975Y-76605342D01*
X108619657Y-76459024D01*
X108496832Y-76376956D01*
X108447598Y-76344059D01*
X108335615Y-76297674D01*
X108256420Y-76264870D01*
X108256412Y-76264868D01*
X108053469Y-76224500D01*
X108053465Y-76224500D01*
X107846535Y-76224500D01*
X107846530Y-76224500D01*
X107643587Y-76264868D01*
X107643579Y-76264870D01*
X107452403Y-76344058D01*
X107280342Y-76459024D01*
X107134024Y-76605342D01*
X107019058Y-76777403D01*
X106939870Y-76968579D01*
X106939868Y-76968587D01*
X106899500Y-77171530D01*
X73332249Y-77171530D01*
X73338573Y-77150683D01*
X73357157Y-76962000D01*
X73338573Y-76773317D01*
X73283537Y-76591885D01*
X73283533Y-76591877D01*
X73194165Y-76424681D01*
X73194161Y-76424674D01*
X73073883Y-76278116D01*
X72927325Y-76157838D01*
X72927318Y-76157834D01*
X72760122Y-76068466D01*
X72760119Y-76068465D01*
X72760118Y-76068464D01*
X72760115Y-76068463D01*
X72578683Y-76013427D01*
X72578681Y-76013426D01*
X72578683Y-76013426D01*
X72390000Y-75994843D01*
X72201318Y-76013426D01*
X72094194Y-76045921D01*
X72019885Y-76068463D01*
X72019882Y-76068464D01*
X72019880Y-76068465D01*
X72019877Y-76068466D01*
X71852681Y-76157834D01*
X71852674Y-76157838D01*
X71706116Y-76278116D01*
X71585838Y-76424674D01*
X71585834Y-76424681D01*
X71496466Y-76591877D01*
X71496465Y-76591880D01*
X71496464Y-76591882D01*
X71496463Y-76591885D01*
X71479951Y-76646318D01*
X71441426Y-76773318D01*
X71422843Y-76962000D01*
X70817157Y-76962000D01*
X70798573Y-76773317D01*
X70743537Y-76591885D01*
X70743533Y-76591877D01*
X70654165Y-76424681D01*
X70654161Y-76424674D01*
X70533883Y-76278116D01*
X70387325Y-76157838D01*
X70387318Y-76157834D01*
X70220122Y-76068466D01*
X70220119Y-76068465D01*
X70220118Y-76068464D01*
X70220115Y-76068463D01*
X70038683Y-76013427D01*
X70038681Y-76013426D01*
X70038683Y-76013426D01*
X69850000Y-75994843D01*
X69661318Y-76013426D01*
X69554194Y-76045921D01*
X69479885Y-76068463D01*
X69479882Y-76068464D01*
X69479880Y-76068465D01*
X69479877Y-76068466D01*
X69312681Y-76157834D01*
X69312674Y-76157838D01*
X69166116Y-76278116D01*
X69045838Y-76424674D01*
X69045834Y-76424681D01*
X68956466Y-76591877D01*
X68956465Y-76591880D01*
X68956464Y-76591882D01*
X68956463Y-76591885D01*
X68939951Y-76646318D01*
X68901426Y-76773318D01*
X68882843Y-76962000D01*
X60812987Y-76962000D01*
X60792349Y-76805238D01*
X60731841Y-76659159D01*
X60635587Y-76533718D01*
X60510146Y-76437464D01*
X60479268Y-76424674D01*
X60364067Y-76376956D01*
X60364065Y-76376955D01*
X60207306Y-76356318D01*
X60207304Y-76356318D01*
X60050544Y-76376955D01*
X60050542Y-76376956D01*
X59904465Y-76437463D01*
X59779023Y-76533718D01*
X59682768Y-76659160D01*
X59622261Y-76805237D01*
X59622260Y-76805239D01*
X59601623Y-76961998D01*
X51754649Y-76961998D01*
X51767157Y-76835000D01*
X51748573Y-76646317D01*
X51693537Y-76464885D01*
X51693533Y-76464877D01*
X51604165Y-76297681D01*
X51604161Y-76297674D01*
X51483883Y-76151116D01*
X51337325Y-76030838D01*
X51337318Y-76030834D01*
X51170122Y-75941466D01*
X51170119Y-75941465D01*
X51170118Y-75941464D01*
X51170115Y-75941463D01*
X50988683Y-75886427D01*
X50988681Y-75886426D01*
X50988683Y-75886426D01*
X50800000Y-75867843D01*
X50611318Y-75886426D01*
X50504194Y-75918921D01*
X50429885Y-75941463D01*
X50429882Y-75941464D01*
X50429880Y-75941465D01*
X50429877Y-75941466D01*
X50262681Y-76030834D01*
X50262674Y-76030838D01*
X50116116Y-76151116D01*
X49995838Y-76297674D01*
X49995834Y-76297681D01*
X49906466Y-76464877D01*
X49906465Y-76464880D01*
X49851426Y-76646318D01*
X49832843Y-76835000D01*
X49227157Y-76835000D01*
X49208573Y-76646317D01*
X49153537Y-76464885D01*
X49153533Y-76464877D01*
X49064165Y-76297681D01*
X49064161Y-76297674D01*
X48943883Y-76151116D01*
X48797325Y-76030838D01*
X48797318Y-76030834D01*
X48630122Y-75941466D01*
X48630119Y-75941465D01*
X48630118Y-75941464D01*
X48630115Y-75941463D01*
X48448683Y-75886427D01*
X48448681Y-75886426D01*
X48448683Y-75886426D01*
X48260000Y-75867843D01*
X48071318Y-75886426D01*
X47964194Y-75918921D01*
X47889885Y-75941463D01*
X47889882Y-75941464D01*
X47889880Y-75941465D01*
X47889877Y-75941466D01*
X47722681Y-76030834D01*
X47722674Y-76030838D01*
X47576116Y-76151116D01*
X47455838Y-76297674D01*
X47455834Y-76297681D01*
X47366466Y-76464877D01*
X47366465Y-76464880D01*
X47311426Y-76646318D01*
X47292843Y-76835000D01*
X45502478Y-76835000D01*
X45482415Y-76808050D01*
X45482410Y-76808044D01*
X45278473Y-76591885D01*
X45242558Y-76553817D01*
X45088659Y-76424681D01*
X44974813Y-76329152D01*
X44974805Y-76329146D01*
X44682796Y-76137088D01*
X44370458Y-75980226D01*
X44370452Y-75980223D01*
X44042012Y-75860681D01*
X44042009Y-75860680D01*
X43701915Y-75780077D01*
X43658519Y-75775004D01*
X43354759Y-75739500D01*
X43005241Y-75739500D01*
X42701480Y-75775004D01*
X42658085Y-75780077D01*
X42658083Y-75780077D01*
X42317990Y-75860680D01*
X42317987Y-75860681D01*
X41989547Y-75980223D01*
X41989541Y-75980226D01*
X41677203Y-76137088D01*
X41385194Y-76329146D01*
X41385186Y-76329152D01*
X41117442Y-76553817D01*
X41117440Y-76553819D01*
X40877589Y-76808044D01*
X40877584Y-76808050D01*
X40668870Y-77088402D01*
X40494113Y-77391091D01*
X40494107Y-77391104D01*
X40355674Y-77712027D01*
X40255430Y-78046865D01*
X40255428Y-78046872D01*
X40194739Y-78391061D01*
X40194738Y-78391072D01*
X40174415Y-78739996D01*
X39370000Y-78739996D01*
X39370000Y-72898000D01*
X42720843Y-72898000D01*
X42739426Y-73086681D01*
X42739427Y-73086683D01*
X42794463Y-73268115D01*
X42794464Y-73268118D01*
X42794465Y-73268119D01*
X42794466Y-73268122D01*
X42883834Y-73435318D01*
X42883838Y-73435325D01*
X43004116Y-73581883D01*
X43150674Y-73702161D01*
X43150681Y-73702165D01*
X43317877Y-73791533D01*
X43317878Y-73791533D01*
X43317885Y-73791537D01*
X43499317Y-73846573D01*
X43499316Y-73846573D01*
X43516233Y-73848239D01*
X43688000Y-73865157D01*
X43876683Y-73846573D01*
X44058115Y-73791537D01*
X44225324Y-73702162D01*
X44371883Y-73581883D01*
X44492162Y-73435324D01*
X44581537Y-73268115D01*
X44636573Y-73086683D01*
X44655157Y-72898000D01*
X45260843Y-72898000D01*
X45279426Y-73086681D01*
X45279427Y-73086683D01*
X45334463Y-73268115D01*
X45334464Y-73268118D01*
X45334465Y-73268119D01*
X45334466Y-73268122D01*
X45423834Y-73435318D01*
X45423838Y-73435325D01*
X45544116Y-73581883D01*
X45690674Y-73702161D01*
X45690681Y-73702165D01*
X45857877Y-73791533D01*
X45857878Y-73791533D01*
X45857885Y-73791537D01*
X46039317Y-73846573D01*
X46039316Y-73846573D01*
X46056233Y-73848239D01*
X46228000Y-73865157D01*
X46416683Y-73846573D01*
X46598115Y-73791537D01*
X46765324Y-73702162D01*
X46911883Y-73581883D01*
X47032162Y-73435324D01*
X47121537Y-73268115D01*
X47176573Y-73086683D01*
X47195157Y-72898000D01*
X47800843Y-72898000D01*
X47819426Y-73086681D01*
X47819427Y-73086683D01*
X47874463Y-73268115D01*
X47874464Y-73268118D01*
X47874465Y-73268119D01*
X47874466Y-73268122D01*
X47963834Y-73435318D01*
X47963838Y-73435325D01*
X48084116Y-73581883D01*
X48230674Y-73702161D01*
X48230681Y-73702165D01*
X48397877Y-73791533D01*
X48397878Y-73791533D01*
X48397885Y-73791537D01*
X48579317Y-73846573D01*
X48579316Y-73846573D01*
X48596233Y-73848239D01*
X48768000Y-73865157D01*
X48956683Y-73846573D01*
X49138115Y-73791537D01*
X49305324Y-73702162D01*
X49451883Y-73581883D01*
X49572162Y-73435324D01*
X49661537Y-73268115D01*
X49716573Y-73086683D01*
X49735157Y-72898000D01*
X50340843Y-72898000D01*
X50359426Y-73086681D01*
X50359427Y-73086683D01*
X50414463Y-73268115D01*
X50414464Y-73268118D01*
X50414465Y-73268119D01*
X50414466Y-73268122D01*
X50503834Y-73435318D01*
X50503838Y-73435325D01*
X50624116Y-73581883D01*
X50770674Y-73702161D01*
X50770681Y-73702165D01*
X50937877Y-73791533D01*
X50937878Y-73791533D01*
X50937885Y-73791537D01*
X51119317Y-73846573D01*
X51119316Y-73846573D01*
X51136233Y-73848239D01*
X51308000Y-73865157D01*
X51496683Y-73846573D01*
X51678115Y-73791537D01*
X51845324Y-73702162D01*
X51991883Y-73581883D01*
X52112162Y-73435324D01*
X52201537Y-73268115D01*
X52256573Y-73086683D01*
X52275157Y-72898000D01*
X52880843Y-72898000D01*
X52899426Y-73086681D01*
X52899427Y-73086683D01*
X52954463Y-73268115D01*
X52954464Y-73268118D01*
X52954465Y-73268119D01*
X52954466Y-73268122D01*
X53043834Y-73435318D01*
X53043838Y-73435325D01*
X53164116Y-73581883D01*
X53310674Y-73702161D01*
X53310681Y-73702165D01*
X53477877Y-73791533D01*
X53477878Y-73791533D01*
X53477885Y-73791537D01*
X53659317Y-73846573D01*
X53659316Y-73846573D01*
X53676233Y-73848239D01*
X53848000Y-73865157D01*
X54036683Y-73846573D01*
X54218115Y-73791537D01*
X54385324Y-73702162D01*
X54531883Y-73581883D01*
X54652162Y-73435324D01*
X54741537Y-73268115D01*
X54796573Y-73086683D01*
X54815157Y-72898000D01*
X55420843Y-72898000D01*
X55439426Y-73086681D01*
X55439427Y-73086683D01*
X55494463Y-73268115D01*
X55494464Y-73268118D01*
X55494465Y-73268119D01*
X55494466Y-73268122D01*
X55583834Y-73435318D01*
X55583838Y-73435325D01*
X55704116Y-73581883D01*
X55850674Y-73702161D01*
X55850681Y-73702165D01*
X56017877Y-73791533D01*
X56017878Y-73791533D01*
X56017885Y-73791537D01*
X56199317Y-73846573D01*
X56199316Y-73846573D01*
X56216233Y-73848239D01*
X56388000Y-73865157D01*
X56576683Y-73846573D01*
X56758115Y-73791537D01*
X56925324Y-73702162D01*
X57071883Y-73581883D01*
X57192162Y-73435324D01*
X57281537Y-73268115D01*
X57336573Y-73086683D01*
X57355157Y-72898000D01*
X57960843Y-72898000D01*
X57979426Y-73086681D01*
X57979427Y-73086683D01*
X58034463Y-73268115D01*
X58034464Y-73268118D01*
X58034465Y-73268119D01*
X58034466Y-73268122D01*
X58123834Y-73435318D01*
X58123838Y-73435325D01*
X58244116Y-73581883D01*
X58390674Y-73702161D01*
X58390681Y-73702165D01*
X58557877Y-73791533D01*
X58557878Y-73791533D01*
X58557885Y-73791537D01*
X58739317Y-73846573D01*
X58739316Y-73846573D01*
X58756233Y-73848239D01*
X58928000Y-73865157D01*
X59116683Y-73846573D01*
X59298115Y-73791537D01*
X59465324Y-73702162D01*
X59611883Y-73581883D01*
X59732162Y-73435324D01*
X59821537Y-73268115D01*
X59876573Y-73086683D01*
X59895157Y-72898000D01*
X59876573Y-72709317D01*
X59821537Y-72527885D01*
X59806435Y-72499631D01*
X59732165Y-72360681D01*
X59732161Y-72360674D01*
X59611883Y-72214116D01*
X59465325Y-72093838D01*
X59465318Y-72093834D01*
X59298122Y-72004466D01*
X59298119Y-72004465D01*
X59298118Y-72004464D01*
X59298115Y-72004463D01*
X59116683Y-71949427D01*
X59116681Y-71949426D01*
X59116683Y-71949426D01*
X58928000Y-71930843D01*
X58739318Y-71949426D01*
X58632194Y-71981921D01*
X58557885Y-72004463D01*
X58557882Y-72004464D01*
X58557880Y-72004465D01*
X58557877Y-72004466D01*
X58390681Y-72093834D01*
X58390674Y-72093838D01*
X58244116Y-72214116D01*
X58123838Y-72360674D01*
X58123834Y-72360681D01*
X58034466Y-72527877D01*
X58034465Y-72527880D01*
X57979426Y-72709318D01*
X57960843Y-72898000D01*
X57355157Y-72898000D01*
X57336573Y-72709317D01*
X57281537Y-72527885D01*
X57266435Y-72499631D01*
X57192165Y-72360681D01*
X57192161Y-72360674D01*
X57071883Y-72214116D01*
X56925325Y-72093838D01*
X56925318Y-72093834D01*
X56758122Y-72004466D01*
X56758119Y-72004465D01*
X56758118Y-72004464D01*
X56758115Y-72004463D01*
X56576683Y-71949427D01*
X56576681Y-71949426D01*
X56576683Y-71949426D01*
X56388000Y-71930843D01*
X56199318Y-71949426D01*
X56092194Y-71981921D01*
X56017885Y-72004463D01*
X56017882Y-72004464D01*
X56017880Y-72004465D01*
X56017877Y-72004466D01*
X55850681Y-72093834D01*
X55850674Y-72093838D01*
X55704116Y-72214116D01*
X55583838Y-72360674D01*
X55583834Y-72360681D01*
X55494466Y-72527877D01*
X55494465Y-72527880D01*
X55439426Y-72709318D01*
X55420843Y-72898000D01*
X54815157Y-72898000D01*
X54796573Y-72709317D01*
X54741537Y-72527885D01*
X54726435Y-72499631D01*
X54652165Y-72360681D01*
X54652161Y-72360674D01*
X54531883Y-72214116D01*
X54385325Y-72093838D01*
X54385318Y-72093834D01*
X54218122Y-72004466D01*
X54218119Y-72004465D01*
X54218118Y-72004464D01*
X54218115Y-72004463D01*
X54036683Y-71949427D01*
X54036681Y-71949426D01*
X54036683Y-71949426D01*
X53848000Y-71930843D01*
X53659318Y-71949426D01*
X53552194Y-71981921D01*
X53477885Y-72004463D01*
X53477882Y-72004464D01*
X53477880Y-72004465D01*
X53477877Y-72004466D01*
X53310681Y-72093834D01*
X53310674Y-72093838D01*
X53164116Y-72214116D01*
X53043838Y-72360674D01*
X53043834Y-72360681D01*
X52954466Y-72527877D01*
X52954465Y-72527880D01*
X52899426Y-72709318D01*
X52880843Y-72898000D01*
X52275157Y-72898000D01*
X52256573Y-72709317D01*
X52201537Y-72527885D01*
X52186435Y-72499631D01*
X52112165Y-72360681D01*
X52112161Y-72360674D01*
X51991883Y-72214116D01*
X51845325Y-72093838D01*
X51845318Y-72093834D01*
X51678122Y-72004466D01*
X51678119Y-72004465D01*
X51678118Y-72004464D01*
X51678115Y-72004463D01*
X51496683Y-71949427D01*
X51496681Y-71949426D01*
X51496683Y-71949426D01*
X51308000Y-71930843D01*
X51119318Y-71949426D01*
X51012194Y-71981921D01*
X50937885Y-72004463D01*
X50937882Y-72004464D01*
X50937880Y-72004465D01*
X50937877Y-72004466D01*
X50770681Y-72093834D01*
X50770674Y-72093838D01*
X50624116Y-72214116D01*
X50503838Y-72360674D01*
X50503834Y-72360681D01*
X50414466Y-72527877D01*
X50414465Y-72527880D01*
X50359426Y-72709318D01*
X50340843Y-72898000D01*
X49735157Y-72898000D01*
X49716573Y-72709317D01*
X49661537Y-72527885D01*
X49646435Y-72499631D01*
X49572165Y-72360681D01*
X49572161Y-72360674D01*
X49451883Y-72214116D01*
X49305325Y-72093838D01*
X49305318Y-72093834D01*
X49138122Y-72004466D01*
X49138119Y-72004465D01*
X49138118Y-72004464D01*
X49138115Y-72004463D01*
X48956683Y-71949427D01*
X48956681Y-71949426D01*
X48956683Y-71949426D01*
X48768000Y-71930843D01*
X48579318Y-71949426D01*
X48472194Y-71981921D01*
X48397885Y-72004463D01*
X48397882Y-72004464D01*
X48397880Y-72004465D01*
X48397877Y-72004466D01*
X48230681Y-72093834D01*
X48230674Y-72093838D01*
X48084116Y-72214116D01*
X47963838Y-72360674D01*
X47963834Y-72360681D01*
X47874466Y-72527877D01*
X47874465Y-72527880D01*
X47819426Y-72709318D01*
X47800843Y-72898000D01*
X47195157Y-72898000D01*
X47176573Y-72709317D01*
X47121537Y-72527885D01*
X47106435Y-72499631D01*
X47032165Y-72360681D01*
X47032161Y-72360674D01*
X46911883Y-72214116D01*
X46765325Y-72093838D01*
X46765318Y-72093834D01*
X46598122Y-72004466D01*
X46598119Y-72004465D01*
X46598118Y-72004464D01*
X46598115Y-72004463D01*
X46416683Y-71949427D01*
X46416681Y-71949426D01*
X46416683Y-71949426D01*
X46228000Y-71930843D01*
X46039318Y-71949426D01*
X45932194Y-71981921D01*
X45857885Y-72004463D01*
X45857882Y-72004464D01*
X45857880Y-72004465D01*
X45857877Y-72004466D01*
X45690681Y-72093834D01*
X45690674Y-72093838D01*
X45544116Y-72214116D01*
X45423838Y-72360674D01*
X45423834Y-72360681D01*
X45334466Y-72527877D01*
X45334465Y-72527880D01*
X45279426Y-72709318D01*
X45260843Y-72898000D01*
X44655157Y-72898000D01*
X44636573Y-72709317D01*
X44581537Y-72527885D01*
X44566435Y-72499631D01*
X44492165Y-72360681D01*
X44492161Y-72360674D01*
X44371883Y-72214116D01*
X44225325Y-72093838D01*
X44225318Y-72093834D01*
X44058122Y-72004466D01*
X44058119Y-72004465D01*
X44058118Y-72004464D01*
X44058115Y-72004463D01*
X43876683Y-71949427D01*
X43876681Y-71949426D01*
X43876683Y-71949426D01*
X43688000Y-71930843D01*
X43499318Y-71949426D01*
X43392194Y-71981921D01*
X43317885Y-72004463D01*
X43317882Y-72004464D01*
X43317880Y-72004465D01*
X43317877Y-72004466D01*
X43150681Y-72093834D01*
X43150674Y-72093838D01*
X43004116Y-72214116D01*
X42883838Y-72360674D01*
X42883834Y-72360681D01*
X42794466Y-72527877D01*
X42794465Y-72527880D01*
X42739426Y-72709318D01*
X42720843Y-72898000D01*
X39370000Y-72898000D01*
X39370000Y-67304999D01*
X52772785Y-67304999D01*
X52772785Y-67305000D01*
X52791602Y-67508082D01*
X52847417Y-67704247D01*
X52847422Y-67704260D01*
X52938327Y-67886821D01*
X53061237Y-68049581D01*
X53211958Y-68186980D01*
X53211960Y-68186982D01*
X53298686Y-68240680D01*
X53385363Y-68294348D01*
X53575544Y-68368024D01*
X53776024Y-68405500D01*
X53776026Y-68405500D01*
X53979974Y-68405500D01*
X53979976Y-68405500D01*
X54180456Y-68368024D01*
X54370637Y-68294348D01*
X54544041Y-68186981D01*
X54694764Y-68049579D01*
X54817673Y-67886821D01*
X54908582Y-67704250D01*
X54964397Y-67508083D01*
X54983215Y-67305000D01*
X54979467Y-67264557D01*
X54964397Y-67101917D01*
X54953068Y-67062100D01*
X54908582Y-66905750D01*
X54899411Y-66887333D01*
X54864272Y-66816764D01*
X54817673Y-66723179D01*
X54694764Y-66560421D01*
X54694762Y-66560418D01*
X54544041Y-66423019D01*
X54544039Y-66423017D01*
X54370642Y-66315655D01*
X54370635Y-66315651D01*
X54275546Y-66278814D01*
X54180456Y-66241976D01*
X53979976Y-66204500D01*
X53776024Y-66204500D01*
X53575544Y-66241976D01*
X53575541Y-66241976D01*
X53575541Y-66241977D01*
X53385364Y-66315651D01*
X53385357Y-66315655D01*
X53211960Y-66423017D01*
X53211958Y-66423019D01*
X53061237Y-66560418D01*
X52938327Y-66723178D01*
X52847422Y-66905739D01*
X52847417Y-66905752D01*
X52791602Y-67101917D01*
X52772785Y-67304999D01*
X39370000Y-67304999D01*
X39370000Y-63845247D01*
X52777500Y-63845247D01*
X52777500Y-65684752D01*
X52789131Y-65743229D01*
X52789132Y-65743230D01*
X52833447Y-65809552D01*
X52899769Y-65853867D01*
X52899770Y-65853868D01*
X52958247Y-65865499D01*
X52958250Y-65865500D01*
X52958252Y-65865500D01*
X54797750Y-65865500D01*
X54797751Y-65865499D01*
X54812568Y-65862552D01*
X54856229Y-65853868D01*
X54856229Y-65853867D01*
X54856231Y-65853867D01*
X54922552Y-65809552D01*
X54966867Y-65743231D01*
X54966867Y-65743229D01*
X54966868Y-65743229D01*
X54978499Y-65684752D01*
X54978500Y-65684750D01*
X54978500Y-63845249D01*
X54978499Y-63845247D01*
X54966868Y-63786770D01*
X54966867Y-63786769D01*
X54922552Y-63720447D01*
X54856230Y-63676132D01*
X54856229Y-63676131D01*
X54797752Y-63664500D01*
X54797748Y-63664500D01*
X52958252Y-63664500D01*
X52958247Y-63664500D01*
X52899770Y-63676131D01*
X52899769Y-63676132D01*
X52833447Y-63720447D01*
X52789132Y-63786769D01*
X52789131Y-63786770D01*
X52777500Y-63845247D01*
X39370000Y-63845247D01*
X39370000Y-60198000D01*
X42720843Y-60198000D01*
X42739426Y-60386681D01*
X42739427Y-60386683D01*
X42794463Y-60568115D01*
X42794464Y-60568118D01*
X42794465Y-60568119D01*
X42794466Y-60568122D01*
X42883834Y-60735318D01*
X42883838Y-60735325D01*
X43004116Y-60881883D01*
X43150674Y-61002161D01*
X43150681Y-61002165D01*
X43317877Y-61091533D01*
X43317878Y-61091533D01*
X43317885Y-61091537D01*
X43499317Y-61146573D01*
X43499316Y-61146573D01*
X43516233Y-61148239D01*
X43688000Y-61165157D01*
X43876683Y-61146573D01*
X44058115Y-61091537D01*
X44225324Y-61002162D01*
X44371883Y-60881883D01*
X44492162Y-60735324D01*
X44581537Y-60568115D01*
X44636573Y-60386683D01*
X44655157Y-60198000D01*
X47800843Y-60198000D01*
X47819426Y-60386681D01*
X47819427Y-60386683D01*
X47874463Y-60568115D01*
X47874464Y-60568118D01*
X47874465Y-60568119D01*
X47874466Y-60568122D01*
X47963834Y-60735318D01*
X47963838Y-60735325D01*
X48084116Y-60881883D01*
X48230674Y-61002161D01*
X48230681Y-61002165D01*
X48397877Y-61091533D01*
X48397878Y-61091533D01*
X48397885Y-61091537D01*
X48579317Y-61146573D01*
X48579316Y-61146573D01*
X48596233Y-61148239D01*
X48768000Y-61165157D01*
X48956683Y-61146573D01*
X49138115Y-61091537D01*
X49305324Y-61002162D01*
X49451883Y-60881883D01*
X49572162Y-60735324D01*
X49661537Y-60568115D01*
X49716573Y-60386683D01*
X49735157Y-60198000D01*
X50340843Y-60198000D01*
X50359426Y-60386681D01*
X50359427Y-60386683D01*
X50414463Y-60568115D01*
X50414464Y-60568118D01*
X50414465Y-60568119D01*
X50414466Y-60568122D01*
X50503834Y-60735318D01*
X50503838Y-60735325D01*
X50624116Y-60881883D01*
X50770674Y-61002161D01*
X50770681Y-61002165D01*
X50937877Y-61091533D01*
X50937878Y-61091533D01*
X50937885Y-61091537D01*
X51119317Y-61146573D01*
X51119316Y-61146573D01*
X51136233Y-61148239D01*
X51308000Y-61165157D01*
X51496683Y-61146573D01*
X51678115Y-61091537D01*
X51845324Y-61002162D01*
X51991883Y-60881883D01*
X52112162Y-60735324D01*
X52201537Y-60568115D01*
X52256573Y-60386683D01*
X52275157Y-60198000D01*
X52880843Y-60198000D01*
X52899426Y-60386681D01*
X52899427Y-60386683D01*
X52954463Y-60568115D01*
X52954464Y-60568118D01*
X52954465Y-60568119D01*
X52954466Y-60568122D01*
X53043834Y-60735318D01*
X53043838Y-60735325D01*
X53164116Y-60881883D01*
X53310674Y-61002161D01*
X53310681Y-61002165D01*
X53477877Y-61091533D01*
X53477878Y-61091533D01*
X53477885Y-61091537D01*
X53659317Y-61146573D01*
X53659316Y-61146573D01*
X53676233Y-61148239D01*
X53848000Y-61165157D01*
X54036683Y-61146573D01*
X54195404Y-61098425D01*
X54265270Y-61097803D01*
X54319079Y-61129406D01*
X57279988Y-64090315D01*
X57313473Y-64151638D01*
X57315246Y-64194181D01*
X57306318Y-64261998D01*
X57306318Y-64262001D01*
X57326955Y-64418760D01*
X57326956Y-64418762D01*
X57387464Y-64564841D01*
X57483718Y-64690282D01*
X57609159Y-64786536D01*
X57755238Y-64847044D01*
X57833619Y-64857363D01*
X57911999Y-64867682D01*
X57912000Y-64867682D01*
X57912001Y-64867682D01*
X57964254Y-64860802D01*
X58068762Y-64847044D01*
X58214841Y-64786536D01*
X58340282Y-64690282D01*
X58436536Y-64564841D01*
X58497044Y-64418762D01*
X58517682Y-64262000D01*
X58509010Y-64196133D01*
X58497044Y-64105239D01*
X58497044Y-64105238D01*
X58436536Y-63959159D01*
X58340282Y-63833718D01*
X58335695Y-63830198D01*
X60532118Y-63830198D01*
X60532118Y-63830201D01*
X60552755Y-63986960D01*
X60552757Y-63986965D01*
X60613261Y-64133036D01*
X60613264Y-64133041D01*
X60661676Y-64196133D01*
X60686870Y-64261302D01*
X60687300Y-64271619D01*
X60687300Y-69318509D01*
X60699475Y-69363946D01*
X60718001Y-69433087D01*
X60777311Y-69535814D01*
X60777313Y-69535816D01*
X62463181Y-71221684D01*
X62496666Y-71283007D01*
X62499500Y-71309365D01*
X62499500Y-72441152D01*
X62511131Y-72499629D01*
X62511132Y-72499630D01*
X62555447Y-72565952D01*
X62621769Y-72610267D01*
X62621770Y-72610268D01*
X62680247Y-72621899D01*
X62680250Y-72621900D01*
X62680252Y-72621900D01*
X64319750Y-72621900D01*
X64319751Y-72621899D01*
X64334568Y-72618952D01*
X64378229Y-72610268D01*
X64378229Y-72610267D01*
X64378231Y-72610267D01*
X64444552Y-72565952D01*
X64488867Y-72499631D01*
X64488867Y-72499629D01*
X64488868Y-72499629D01*
X64500499Y-72441152D01*
X64500500Y-72441150D01*
X64500500Y-72427100D01*
X64520185Y-72360061D01*
X64572989Y-72314306D01*
X64624500Y-72303100D01*
X67019675Y-72303100D01*
X67086714Y-72322785D01*
X67115985Y-72350429D01*
X67116469Y-72350016D01*
X67119639Y-72353727D01*
X67119641Y-72353729D01*
X67247971Y-72482059D01*
X67394796Y-72588734D01*
X67556502Y-72671127D01*
X67556504Y-72671128D01*
X67729101Y-72727208D01*
X67729102Y-72727208D01*
X67729105Y-72727209D01*
X67908357Y-72755600D01*
X67908358Y-72755600D01*
X68184842Y-72755600D01*
X68184843Y-72755600D01*
X68364095Y-72727209D01*
X68364098Y-72727208D01*
X68364099Y-72727208D01*
X68536695Y-72671128D01*
X68536695Y-72671127D01*
X68536698Y-72671127D01*
X68698404Y-72588734D01*
X68845229Y-72482059D01*
X68973559Y-72353729D01*
X69080234Y-72206904D01*
X69162627Y-72045198D01*
X69218709Y-71872595D01*
X69247100Y-71693343D01*
X69247100Y-71511857D01*
X69218709Y-71332605D01*
X69218708Y-71332601D01*
X69218708Y-71332600D01*
X69162628Y-71160004D01*
X69162627Y-71160002D01*
X69142243Y-71119996D01*
X89704415Y-71119996D01*
X89704415Y-71120003D01*
X89724738Y-71468927D01*
X89724739Y-71468938D01*
X89785428Y-71813127D01*
X89785430Y-71813134D01*
X89885674Y-72147972D01*
X90024107Y-72468895D01*
X90024113Y-72468908D01*
X90198870Y-72771597D01*
X90407584Y-73051949D01*
X90407589Y-73051955D01*
X90531463Y-73183253D01*
X90647442Y-73306183D01*
X90801347Y-73435324D01*
X90915186Y-73530847D01*
X90915194Y-73530853D01*
X91207203Y-73722911D01*
X91207207Y-73722913D01*
X91519549Y-73879777D01*
X91847989Y-73999319D01*
X92188086Y-74079923D01*
X92535241Y-74120500D01*
X92535248Y-74120500D01*
X92884752Y-74120500D01*
X92884759Y-74120500D01*
X93231914Y-74079923D01*
X93572011Y-73999319D01*
X93900451Y-73879777D01*
X94212793Y-73722913D01*
X94504811Y-73530849D01*
X94772558Y-73306183D01*
X95012412Y-73051953D01*
X95221130Y-72771596D01*
X95395889Y-72468904D01*
X95534326Y-72147971D01*
X95634569Y-71813136D01*
X95695262Y-71468927D01*
X95715585Y-71120000D01*
X95695262Y-70771073D01*
X95686811Y-70723143D01*
X95634571Y-70426872D01*
X95634569Y-70426865D01*
X95534325Y-70092027D01*
X95395889Y-69771096D01*
X95221130Y-69468404D01*
X95221129Y-69468402D01*
X95012415Y-69188050D01*
X95012410Y-69188044D01*
X94879900Y-69047593D01*
X94772558Y-68933817D01*
X94624488Y-68809572D01*
X94504813Y-68709152D01*
X94504805Y-68709146D01*
X94212796Y-68517088D01*
X93900458Y-68360226D01*
X93900452Y-68360223D01*
X93572012Y-68240681D01*
X93572009Y-68240680D01*
X93231915Y-68160077D01*
X93188519Y-68155004D01*
X92884759Y-68119500D01*
X92535241Y-68119500D01*
X92231480Y-68155004D01*
X92188085Y-68160077D01*
X92188083Y-68160077D01*
X91847990Y-68240680D01*
X91847987Y-68240681D01*
X91519547Y-68360223D01*
X91519541Y-68360226D01*
X91207203Y-68517088D01*
X90915194Y-68709146D01*
X90915186Y-68709152D01*
X90647442Y-68933817D01*
X90647440Y-68933819D01*
X90407589Y-69188044D01*
X90407584Y-69188050D01*
X90198870Y-69468402D01*
X90024113Y-69771091D01*
X90024107Y-69771104D01*
X89885674Y-70092027D01*
X89785430Y-70426865D01*
X89785428Y-70426872D01*
X89724739Y-70771061D01*
X89724738Y-70771072D01*
X89704415Y-71119996D01*
X69142243Y-71119996D01*
X69080234Y-70998296D01*
X68973559Y-70851471D01*
X68845229Y-70723141D01*
X68698404Y-70616466D01*
X68635826Y-70584581D01*
X68536695Y-70534071D01*
X68364098Y-70477991D01*
X68229656Y-70456697D01*
X68184843Y-70449600D01*
X67908357Y-70449600D01*
X67848606Y-70459063D01*
X67729103Y-70477991D01*
X67729100Y-70477991D01*
X67556504Y-70534071D01*
X67394795Y-70616466D01*
X67311689Y-70676847D01*
X67247971Y-70723141D01*
X67247969Y-70723143D01*
X67247968Y-70723143D01*
X67119639Y-70851472D01*
X67116469Y-70855184D01*
X67115558Y-70854405D01*
X67064662Y-70893652D01*
X67019675Y-70902100D01*
X64622245Y-70902100D01*
X64555206Y-70882415D01*
X64509451Y-70829611D01*
X64500628Y-70802291D01*
X64488868Y-70743170D01*
X64488867Y-70743169D01*
X64444552Y-70676847D01*
X64378230Y-70632532D01*
X64378229Y-70632531D01*
X64319752Y-70620900D01*
X64319748Y-70620900D01*
X63187965Y-70620900D01*
X63120926Y-70601215D01*
X63100284Y-70584581D01*
X61624619Y-69108916D01*
X61591134Y-69047593D01*
X61588300Y-69021235D01*
X61588300Y-68931472D01*
X82706100Y-68931472D01*
X82706100Y-69193727D01*
X82722529Y-69318508D01*
X82740330Y-69453716D01*
X82744266Y-69468404D01*
X82808202Y-69707018D01*
X82808205Y-69707028D01*
X82908553Y-69949290D01*
X82908558Y-69949300D01*
X83039675Y-70176403D01*
X83199318Y-70384451D01*
X83199326Y-70384460D01*
X83384740Y-70569874D01*
X83384748Y-70569881D01*
X83592796Y-70729524D01*
X83819899Y-70860641D01*
X83819909Y-70860646D01*
X84062171Y-70960994D01*
X84062181Y-70960998D01*
X84315484Y-71028870D01*
X84575480Y-71063100D01*
X84575487Y-71063100D01*
X84837713Y-71063100D01*
X84837720Y-71063100D01*
X85097716Y-71028870D01*
X85351019Y-70960998D01*
X85593297Y-70860643D01*
X85820403Y-70729524D01*
X86028451Y-70569882D01*
X86028455Y-70569877D01*
X86028460Y-70569874D01*
X86213874Y-70384460D01*
X86213877Y-70384455D01*
X86213882Y-70384451D01*
X86373524Y-70176403D01*
X86504643Y-69949297D01*
X86604998Y-69707019D01*
X86672870Y-69453716D01*
X86707100Y-69193720D01*
X86707100Y-68931480D01*
X86672870Y-68671484D01*
X86604998Y-68418181D01*
X86604994Y-68418171D01*
X86504646Y-68175909D01*
X86504641Y-68175899D01*
X86373524Y-67948796D01*
X86213881Y-67740748D01*
X86213874Y-67740740D01*
X86028460Y-67555326D01*
X86028451Y-67555318D01*
X85820403Y-67395675D01*
X85593300Y-67264558D01*
X85593290Y-67264553D01*
X85351028Y-67164205D01*
X85351021Y-67164203D01*
X85351019Y-67164202D01*
X85097716Y-67096330D01*
X85039939Y-67088723D01*
X84837727Y-67062100D01*
X84837720Y-67062100D01*
X84575480Y-67062100D01*
X84575472Y-67062100D01*
X84344372Y-67092526D01*
X84315484Y-67096330D01*
X84062181Y-67164202D01*
X84062171Y-67164205D01*
X83819909Y-67264553D01*
X83819899Y-67264558D01*
X83592796Y-67395675D01*
X83384748Y-67555318D01*
X83199318Y-67740748D01*
X83039675Y-67948796D01*
X82908558Y-68175899D01*
X82908553Y-68175909D01*
X82808205Y-68418171D01*
X82808202Y-68418181D01*
X82740330Y-68671485D01*
X82706100Y-68931472D01*
X61588300Y-68931472D01*
X61588300Y-66502600D01*
X62469259Y-66502600D01*
X62488575Y-66698729D01*
X62545788Y-66887333D01*
X62638686Y-67061132D01*
X62638690Y-67061139D01*
X62763716Y-67213483D01*
X62916060Y-67338509D01*
X62916067Y-67338513D01*
X63089866Y-67431411D01*
X63089869Y-67431411D01*
X63089873Y-67431414D01*
X63278468Y-67488624D01*
X63474600Y-67507941D01*
X63670732Y-67488624D01*
X63859327Y-67431414D01*
X64033138Y-67338510D01*
X64185483Y-67213483D01*
X64310510Y-67061138D01*
X64403414Y-66887327D01*
X64460624Y-66698732D01*
X64479941Y-66502600D01*
X64460624Y-66306468D01*
X64403414Y-66117873D01*
X64403411Y-66117869D01*
X64403411Y-66117866D01*
X64310513Y-65944067D01*
X64310509Y-65944060D01*
X64185483Y-65791716D01*
X64033139Y-65666690D01*
X64033132Y-65666686D01*
X63859333Y-65573788D01*
X63859327Y-65573786D01*
X63782059Y-65550347D01*
X66846100Y-65550347D01*
X66846100Y-67494852D01*
X66857731Y-67553329D01*
X66857732Y-67553330D01*
X66902047Y-67619652D01*
X66968369Y-67663967D01*
X66968370Y-67663968D01*
X67026847Y-67675599D01*
X67026850Y-67675600D01*
X67026852Y-67675600D01*
X69066350Y-67675600D01*
X69066351Y-67675599D01*
X69081168Y-67672652D01*
X69124829Y-67663968D01*
X69124829Y-67663967D01*
X69124831Y-67663967D01*
X69191152Y-67619652D01*
X69235467Y-67553331D01*
X69235467Y-67553329D01*
X69235468Y-67553329D01*
X69247099Y-67494852D01*
X69247100Y-67494850D01*
X69247100Y-65550349D01*
X69247099Y-65550347D01*
X69235468Y-65491870D01*
X69235467Y-65491869D01*
X69191152Y-65425547D01*
X69124830Y-65381232D01*
X69124829Y-65381231D01*
X69066352Y-65369600D01*
X69066348Y-65369600D01*
X67026852Y-65369600D01*
X67026847Y-65369600D01*
X66968370Y-65381231D01*
X66968369Y-65381232D01*
X66902047Y-65425547D01*
X66857732Y-65491869D01*
X66857731Y-65491870D01*
X66846100Y-65550347D01*
X63782059Y-65550347D01*
X63670732Y-65516576D01*
X63670729Y-65516575D01*
X63474600Y-65497259D01*
X63278470Y-65516575D01*
X63089866Y-65573788D01*
X62916067Y-65666686D01*
X62916060Y-65666690D01*
X62763716Y-65791716D01*
X62638690Y-65944060D01*
X62638686Y-65944067D01*
X62545788Y-66117866D01*
X62488575Y-66306470D01*
X62469259Y-66502600D01*
X61588300Y-66502600D01*
X61588300Y-64271619D01*
X61607985Y-64204580D01*
X61613924Y-64196133D01*
X61640154Y-64161949D01*
X61662336Y-64133041D01*
X61722844Y-63986962D01*
X61743482Y-63830200D01*
X61737764Y-63786770D01*
X61723199Y-63676132D01*
X61722844Y-63673438D01*
X61662336Y-63527359D01*
X61566082Y-63401918D01*
X61440641Y-63305664D01*
X61294562Y-63245156D01*
X61294560Y-63245155D01*
X61137801Y-63224518D01*
X61137799Y-63224518D01*
X60981039Y-63245155D01*
X60981037Y-63245156D01*
X60834960Y-63305663D01*
X60709518Y-63401918D01*
X60613263Y-63527360D01*
X60552756Y-63673437D01*
X60552755Y-63673439D01*
X60532118Y-63830198D01*
X58335695Y-63830198D01*
X58214841Y-63737464D01*
X58173758Y-63720447D01*
X58068762Y-63676956D01*
X58068760Y-63676955D01*
X57912001Y-63656318D01*
X57911999Y-63656318D01*
X57844181Y-63665246D01*
X57775145Y-63654480D01*
X57740315Y-63629988D01*
X56340323Y-62229996D01*
X89704415Y-62229996D01*
X89704415Y-62230003D01*
X89724738Y-62578927D01*
X89724739Y-62578938D01*
X89785428Y-62923127D01*
X89785430Y-62923134D01*
X89885674Y-63257972D01*
X90024107Y-63578895D01*
X90024113Y-63578908D01*
X90198870Y-63881597D01*
X90407584Y-64161949D01*
X90407589Y-64161955D01*
X90511053Y-64271619D01*
X90647442Y-64416183D01*
X90823903Y-64564251D01*
X90915186Y-64640847D01*
X90915194Y-64640853D01*
X91207203Y-64832911D01*
X91207207Y-64832913D01*
X91519549Y-64989777D01*
X91847989Y-65109319D01*
X92188086Y-65189923D01*
X92535241Y-65230500D01*
X92535248Y-65230500D01*
X92884752Y-65230500D01*
X92884759Y-65230500D01*
X93231914Y-65189923D01*
X93572011Y-65109319D01*
X93900451Y-64989777D01*
X94212793Y-64832913D01*
X94504811Y-64640849D01*
X94772558Y-64416183D01*
X95012412Y-64161953D01*
X95221130Y-63881596D01*
X95395889Y-63578904D01*
X95534326Y-63257971D01*
X95634569Y-62923136D01*
X95695262Y-62578927D01*
X95715585Y-62230000D01*
X95695262Y-61881073D01*
X95695260Y-61881061D01*
X95634571Y-61536872D01*
X95634569Y-61536865D01*
X95534325Y-61202027D01*
X95518421Y-61165157D01*
X95395889Y-60881096D01*
X95221130Y-60578404D01*
X95221129Y-60578402D01*
X95012415Y-60298050D01*
X95012410Y-60298044D01*
X94896433Y-60175117D01*
X94772558Y-60043817D01*
X94624488Y-59919572D01*
X94504813Y-59819152D01*
X94504805Y-59819146D01*
X94212796Y-59627088D01*
X93900458Y-59470226D01*
X93900452Y-59470223D01*
X93572012Y-59350681D01*
X93572009Y-59350680D01*
X93231915Y-59270077D01*
X93188519Y-59265004D01*
X92884759Y-59229500D01*
X92535241Y-59229500D01*
X92231480Y-59265004D01*
X92188085Y-59270077D01*
X92188083Y-59270077D01*
X91847990Y-59350680D01*
X91847987Y-59350681D01*
X91519547Y-59470223D01*
X91519541Y-59470226D01*
X91207203Y-59627088D01*
X90915194Y-59819146D01*
X90915186Y-59819152D01*
X90647442Y-60043817D01*
X90647440Y-60043819D01*
X90407589Y-60298044D01*
X90407584Y-60298050D01*
X90198870Y-60578402D01*
X90024113Y-60881091D01*
X90024107Y-60881104D01*
X89885674Y-61202027D01*
X89785430Y-61536865D01*
X89785428Y-61536872D01*
X89724739Y-61881061D01*
X89724738Y-61881072D01*
X89704415Y-62229996D01*
X56340323Y-62229996D01*
X54779406Y-60669079D01*
X54745921Y-60607756D01*
X54748425Y-60545404D01*
X54796573Y-60386683D01*
X54815157Y-60198000D01*
X55420843Y-60198000D01*
X55439426Y-60386681D01*
X55439427Y-60386683D01*
X55494463Y-60568115D01*
X55494464Y-60568118D01*
X55494465Y-60568119D01*
X55494466Y-60568122D01*
X55583834Y-60735318D01*
X55583838Y-60735325D01*
X55704116Y-60881883D01*
X55850674Y-61002161D01*
X55850681Y-61002165D01*
X56017877Y-61091533D01*
X56017878Y-61091533D01*
X56017885Y-61091537D01*
X56199317Y-61146573D01*
X56199316Y-61146573D01*
X56216233Y-61148239D01*
X56388000Y-61165157D01*
X56576683Y-61146573D01*
X56758115Y-61091537D01*
X56925324Y-61002162D01*
X57071883Y-60881883D01*
X57192162Y-60735324D01*
X57281537Y-60568115D01*
X57336573Y-60386683D01*
X57355157Y-60198000D01*
X57960843Y-60198000D01*
X57979426Y-60386681D01*
X57979427Y-60386683D01*
X58034463Y-60568115D01*
X58034464Y-60568118D01*
X58034465Y-60568119D01*
X58034466Y-60568122D01*
X58123834Y-60735318D01*
X58123838Y-60735325D01*
X58244116Y-60881883D01*
X58390674Y-61002161D01*
X58390681Y-61002165D01*
X58557877Y-61091533D01*
X58557878Y-61091533D01*
X58557885Y-61091537D01*
X58739317Y-61146573D01*
X58739316Y-61146573D01*
X58756233Y-61148239D01*
X58928000Y-61165157D01*
X59116683Y-61146573D01*
X59298115Y-61091537D01*
X59465324Y-61002162D01*
X59611883Y-60881883D01*
X59732162Y-60735324D01*
X59821537Y-60568115D01*
X59876573Y-60386683D01*
X59895157Y-60198000D01*
X59876573Y-60009317D01*
X59821537Y-59827885D01*
X59732162Y-59660676D01*
X59732161Y-59660674D01*
X59611883Y-59514116D01*
X59465325Y-59393838D01*
X59465318Y-59393834D01*
X59298122Y-59304466D01*
X59298119Y-59304465D01*
X59298118Y-59304464D01*
X59298115Y-59304463D01*
X59116683Y-59249427D01*
X59116681Y-59249426D01*
X59116683Y-59249426D01*
X58928000Y-59230843D01*
X58739318Y-59249426D01*
X58632194Y-59281921D01*
X58557885Y-59304463D01*
X58557882Y-59304464D01*
X58557880Y-59304465D01*
X58557877Y-59304466D01*
X58390681Y-59393834D01*
X58390674Y-59393838D01*
X58244116Y-59514116D01*
X58123838Y-59660674D01*
X58123834Y-59660681D01*
X58034466Y-59827877D01*
X58034465Y-59827880D01*
X57979426Y-60009318D01*
X57960843Y-60198000D01*
X57355157Y-60198000D01*
X57336573Y-60009317D01*
X57281537Y-59827885D01*
X57192162Y-59660676D01*
X57192161Y-59660674D01*
X57071883Y-59514116D01*
X56925325Y-59393838D01*
X56925318Y-59393834D01*
X56758122Y-59304466D01*
X56758119Y-59304465D01*
X56758118Y-59304464D01*
X56758115Y-59304463D01*
X56576683Y-59249427D01*
X56576681Y-59249426D01*
X56576683Y-59249426D01*
X56388000Y-59230843D01*
X56199318Y-59249426D01*
X56092194Y-59281921D01*
X56017885Y-59304463D01*
X56017882Y-59304464D01*
X56017880Y-59304465D01*
X56017877Y-59304466D01*
X55850681Y-59393834D01*
X55850674Y-59393838D01*
X55704116Y-59514116D01*
X55583838Y-59660674D01*
X55583834Y-59660681D01*
X55494466Y-59827877D01*
X55494465Y-59827880D01*
X55439426Y-60009318D01*
X55420843Y-60198000D01*
X54815157Y-60198000D01*
X54796573Y-60009317D01*
X54741537Y-59827885D01*
X54652162Y-59660676D01*
X54652161Y-59660674D01*
X54531883Y-59514116D01*
X54385325Y-59393838D01*
X54385318Y-59393834D01*
X54218122Y-59304466D01*
X54218119Y-59304465D01*
X54218118Y-59304464D01*
X54218115Y-59304463D01*
X54036683Y-59249427D01*
X54036681Y-59249426D01*
X54036683Y-59249426D01*
X53848000Y-59230843D01*
X53659318Y-59249426D01*
X53552194Y-59281921D01*
X53477885Y-59304463D01*
X53477882Y-59304464D01*
X53477880Y-59304465D01*
X53477877Y-59304466D01*
X53310681Y-59393834D01*
X53310674Y-59393838D01*
X53164116Y-59514116D01*
X53043838Y-59660674D01*
X53043834Y-59660681D01*
X52954466Y-59827877D01*
X52954465Y-59827880D01*
X52899426Y-60009318D01*
X52880843Y-60198000D01*
X52275157Y-60198000D01*
X52256573Y-60009317D01*
X52201537Y-59827885D01*
X52112162Y-59660676D01*
X52112161Y-59660674D01*
X51991883Y-59514116D01*
X51845325Y-59393838D01*
X51845318Y-59393834D01*
X51678122Y-59304466D01*
X51678119Y-59304465D01*
X51678118Y-59304464D01*
X51678115Y-59304463D01*
X51496683Y-59249427D01*
X51496681Y-59249426D01*
X51496683Y-59249426D01*
X51308000Y-59230843D01*
X51119318Y-59249426D01*
X51012194Y-59281921D01*
X50937885Y-59304463D01*
X50937882Y-59304464D01*
X50937880Y-59304465D01*
X50937877Y-59304466D01*
X50770681Y-59393834D01*
X50770674Y-59393838D01*
X50624116Y-59514116D01*
X50503838Y-59660674D01*
X50503834Y-59660681D01*
X50414466Y-59827877D01*
X50414465Y-59827880D01*
X50359426Y-60009318D01*
X50340843Y-60198000D01*
X49735157Y-60198000D01*
X49716573Y-60009317D01*
X49661537Y-59827885D01*
X49572162Y-59660676D01*
X49572161Y-59660674D01*
X49451883Y-59514116D01*
X49305325Y-59393838D01*
X49305318Y-59393834D01*
X49138122Y-59304466D01*
X49138119Y-59304465D01*
X49138118Y-59304464D01*
X49138115Y-59304463D01*
X48956683Y-59249427D01*
X48956681Y-59249426D01*
X48956683Y-59249426D01*
X48768000Y-59230843D01*
X48579318Y-59249426D01*
X48472194Y-59281921D01*
X48397885Y-59304463D01*
X48397882Y-59304464D01*
X48397880Y-59304465D01*
X48397877Y-59304466D01*
X48230681Y-59393834D01*
X48230674Y-59393838D01*
X48084116Y-59514116D01*
X47963838Y-59660674D01*
X47963834Y-59660681D01*
X47874466Y-59827877D01*
X47874465Y-59827880D01*
X47819426Y-60009318D01*
X47800843Y-60198000D01*
X44655157Y-60198000D01*
X44636573Y-60009317D01*
X44581537Y-59827885D01*
X44492162Y-59660676D01*
X44492161Y-59660674D01*
X44371883Y-59514116D01*
X44225325Y-59393838D01*
X44225318Y-59393834D01*
X44058122Y-59304466D01*
X44058119Y-59304465D01*
X44058118Y-59304464D01*
X44058115Y-59304463D01*
X43876683Y-59249427D01*
X43876681Y-59249426D01*
X43876683Y-59249426D01*
X43688000Y-59230843D01*
X43499318Y-59249426D01*
X43392194Y-59281921D01*
X43317885Y-59304463D01*
X43317882Y-59304464D01*
X43317880Y-59304465D01*
X43317877Y-59304466D01*
X43150681Y-59393834D01*
X43150674Y-59393838D01*
X43004116Y-59514116D01*
X42883838Y-59660674D01*
X42883834Y-59660681D01*
X42794466Y-59827877D01*
X42794465Y-59827880D01*
X42739426Y-60009318D01*
X42720843Y-60198000D01*
X39370000Y-60198000D01*
X39370000Y-58544000D01*
X39389685Y-58476961D01*
X39442489Y-58431206D01*
X39494000Y-58420000D01*
X96396000Y-58420000D01*
X96463039Y-58439685D01*
G37*
%TD.AperFunction*%
%TD*%
M02*
