M48
; DRILL file {KiCad 8.0.5} date 2024-10-26T16:11:41+0900
; FORMAT={-:-/ absolute / inch / decimal}
; #@! TF.CreationDate,2024-10-26T16:11:41+09:00
; #@! TF.GenerationSoftware,Kicad,Pcbnew,8.0.5
; #@! TF.FileFunction,Plated,1,2,PTH
FMAT,2
INCH
; #@! TA.AperFunction,Plated,PTH,ViaDrill
T1C0.0118
; #@! TA.AperFunction,Plated,PTH,ViaDrill
T2C0.0157
; #@! TA.AperFunction,Plated,PTH,ComponentDrill
T3C0.0300
; #@! TA.AperFunction,Plated,PTH,ComponentDrill
T4C0.0315
; #@! TA.AperFunction,Plated,PTH,ComponentDrill
T5C0.0350
; #@! TA.AperFunction,Plated,PTH,ComponentDrill
T6C0.0354
; #@! TA.AperFunction,Plated,PTH,ComponentDrill
T7C0.0374
; #@! TA.AperFunction,Plated,PTH,ComponentDrill
T8C0.0394
; #@! TA.AperFunction,Plated,PTH,ComponentDrill
T9C0.0669
; #@! TA.AperFunction,Plated,PTH,ComponentDrill
T10C0.1260
%
G90
G05
T1
X2.424Y-6.521
X2.463Y-6.48
X2.568Y-6.583
X2.82Y-4.865
X3.109Y-3.906
X3.175Y-6.515
X3.188Y-5.963
X3.189Y-5.775
X3.19Y-5.718
X3.19Y-5.855
X3.195Y-5.285
X3.216Y-3.796
X3.22Y-4.565
X3.238Y-6.051
X3.26Y-3.928
X3.274Y-5.722
X3.274Y-5.775
X3.28Y-5.845
X3.281Y-5.962
X3.306Y-3.886
X3.387Y-3.885
X3.39Y-3.972
X3.45Y-4.029
X3.496Y-3.935
X3.598Y-6.584
X3.601Y-6.644
X3.661Y-4.242
X3.695Y-6.51
X3.707Y-5.775
X3.809Y-3.66
X3.84Y-6.505
X3.845Y-4.063
X3.846Y-3.874
X3.87Y-4.16
X3.88Y-4.715
X3.893Y-4.292
X3.895Y-3.877
X3.896Y-4.043
X3.9Y-4.119
X3.944Y-3.877
X3.944Y-4.018
X3.948Y-4.096
X3.948Y-4.505
X3.995Y-3.875
X3.996Y-4.286
X4.019Y-4.538
X4.021Y-4.02
X4.022Y-4.242
X4.034Y-4.436
X4.042Y-4.12
X4.044Y-3.876
X4.051Y-4.2
X4.078Y-4.478
X4.09Y-4.38
X4.095Y-4.052
X4.096Y-3.876
X4.126Y-4.345
X4.13Y-4.875
X4.135Y-4.425
X4.142Y-4.108
X4.145Y-3.877
X4.1578Y-4.3062
X4.172Y-4.392
X4.194Y-3.877
X4.194Y-3.932
X4.195Y-3.99
X4.196Y-4.049
X4.196Y-4.131
X4.199Y-4.228
X4.205Y-4.354
X4.217Y-4.619
X4.238Y-4.199
X4.243Y-3.657
X4.245Y-3.877
X4.246Y-3.932
X4.246Y-3.99
X4.246Y-4.05
X4.256Y-4.128
X4.26Y-5.845
X4.26Y-6.605
X4.262Y-5.766
X4.265Y-4.556
X4.28Y-6.515
X4.292Y-4.513
X4.295Y-3.875
X4.296Y-3.933
X4.296Y-3.99
X4.297Y-4.073
X4.31Y-6.005
X4.316Y-4.717
X4.325Y-4.475
X4.339Y-4.119
X4.346Y-3.876
X4.347Y-3.99
X4.349Y-3.932
X4.349Y-4.052
X4.38Y-4.409
X4.39Y-6.515
X4.391Y-4.092
X4.395Y-4.17
X4.397Y-3.83
X4.397Y-3.987
X4.399Y-3.932
X4.403Y-4.692
X4.41Y-4.37
X4.43Y-6.455
X4.441Y-4.661
X4.443Y-3.876
X4.443Y-3.932
X4.46Y-4.027
X4.46Y-4.162
X4.46Y-6.385
X4.474Y-4.623
X4.5Y-6.725
X4.509Y-4.283
X4.524Y-4.09
X4.544Y-4.575
X4.563Y-5.594
X4.578Y-4.537
X4.59Y-4.291
X4.59Y-6.705
X4.591Y-4.16
X4.612Y-5.542
X4.636Y-4.097
X4.637Y-4.339
X4.64Y-6.655
X4.643Y-4.42
X4.663Y-5.59
X4.669Y-5.377
X4.68Y-6.605
X4.712Y-5.441
X4.718Y-5.649
X4.783Y-4.348
X4.851Y-4.554
X4.883Y-5.203
X4.901Y-4.176
X4.901Y-4.396
X4.901Y-4.468
X4.901Y-4.606
X4.901Y-4.744
X4.901Y-4.844
X4.963Y-4.905
X4.976Y-4.544
X5.05Y-4.175
X5.05Y-4.355
X5.05Y-4.756
X5.053Y-5.018
X5.067Y-6.901
X5.068Y-6.849
X5.072Y-4.639
X5.1Y-4.175
X5.1Y-4.355
X5.103Y-4.811
X5.103Y-5.421
X5.103Y-5.63
X5.103Y-5.839
X5.103Y-5.918
X5.103Y-6.31
X5.1039Y-5.3304
X5.104Y-4.733
X5.105Y-5.244
X5.106Y-5.037
X5.19Y-5.905
X5.19Y-6.015
X5.22Y-5.835
X5.25Y-5.365
X5.25Y-5.475
X5.298Y-4.6
X5.299Y-4.839
X5.3Y-4.175
X5.301Y-5.035
X5.34Y-6.905
X5.349Y-4.6
X5.349Y-4.838
X5.35Y-4.175
X5.352Y-5.287
X5.359Y-5.034
X5.359Y-6.849
X5.4Y-4.175
X5.4Y-4.601
X5.401Y-4.837
X5.447Y-6.885
X5.448Y-6.793
X5.449Y-4.601
X5.449Y-4.834
X5.45Y-4.175
X5.466Y-5.05
X5.468Y-5.163
X5.5Y-4.175
X5.5Y-4.601
X5.5Y-4.895
X5.55Y-4.175
X5.55Y-4.601
X5.55Y-5.028
X5.602Y-4.258
X5.61Y-5.555
X5.822Y-4.259
T2
X1.935Y-5.575
X1.95Y-5.875
X1.955Y-5.311
X1.975Y-6.425
X2.0Y-6.925
X2.0Y-7.125
X2.0Y-7.325
X2.03Y-3.765
X2.04Y-5.275
X2.075Y-5.81
X2.113Y-6.548
X2.14Y-5.575
X2.15Y-7.175
X2.175Y-5.48
X2.2Y-6.925
X2.22Y-4.175
X2.225Y-6.3
X2.225Y-6.425
X2.23Y-3.765
X2.245Y-5.27
X2.25Y-6.775
X2.25Y-7.325
X2.285Y-5.765
X2.2855Y-5.8995
X2.288Y-5.855
X2.415Y-4.905
X2.42Y-5.12
X2.45Y-4.475
X2.45Y-4.675
X2.45Y-6.625
X2.465Y-5.29
X2.48Y-3.765
X2.49Y-5.575
X2.5Y-5.485
X2.51Y-4.905
X2.51Y-5.12
X2.54Y-4.275
X2.54Y-5.825
X2.55Y-5.975
X2.55Y-7.325
X2.575Y-4.495
X2.575Y-6.75
X2.575Y-6.925
X2.6Y-7.025
X2.61Y-5.445
X2.625Y-6.425
X2.651Y-6.707
X2.66Y-4.775
X2.665Y-6.638
X2.68Y-3.765
X2.68Y-5.25
X2.7Y-4.035
X2.7Y-7.125
X2.73Y-4.385
X2.74Y-4.925
X2.741Y-6.588
X2.775Y-6.817
X2.7925Y-4.7525
X2.7975Y-4.8125
X2.799Y-5.853
X2.806Y-3.885
X2.815Y-4.71
X2.815Y-5.021
X2.815Y-5.235
X2.815Y-5.445
X2.815Y-5.525
X2.815Y-6.64
X2.82Y-4.045
X2.82Y-5.185
X2.82Y-5.285
X2.82Y-5.325
X2.835Y-6.719
X2.839Y-3.782
X2.841Y-3.666
X2.85Y-4.225
X2.85Y-4.525
X2.85Y-6.225
X2.878Y-6.858
X2.9Y-5.975
X2.9Y-7.125
X2.93Y-4.985
X2.932Y-5.446
X2.933Y-3.835
X2.935Y-5.125
X2.935Y-5.225
X2.935Y-5.525
X2.95Y-4.207
X2.955Y-4.725
X2.955Y-4.89
X2.975Y-5.35
X2.981Y-6.718
X2.985Y-5.022
X2.987Y-6.593
X3.025Y-5.425
X3.03Y-4.025
X3.035Y-3.801
X3.05Y-4.555
X3.05Y-6.275
X3.056Y-6.639
X3.065Y-4.995
X3.065Y-5.095
X3.09Y-5.42
X3.095Y-5.635
X3.098Y-4.263
X3.1Y-5.275
X3.1Y-6.425
X3.105Y-4.72
X3.12Y-4.885
X3.125Y-3.666
X3.169Y-6.855
X3.17Y-4.405
X3.181Y-3.885
X3.19Y-4.025
X3.2Y-7.125
X3.2Y-7.325
X3.25Y-4.875
X3.25Y-5.075
X3.26Y-4.54
X3.31Y-4.555
X3.32Y-4.345
X3.328Y-3.672
X3.33Y-4.145
X3.337Y-3.807
X3.349Y-6.719
X3.375Y-4.775
X3.375Y-4.975
X3.387Y-6.333
X3.436Y-6.477
X3.437Y-6.912
X3.45Y-4.55
X3.45Y-5.175
X3.45Y-7.125
X3.45Y-7.325
X3.475Y-4.875
X3.49Y-6.618
X3.492Y-6.792
X3.55Y-4.355
X3.55Y-6.425
X3.575Y-4.775
X3.61Y-4.081
X3.618Y-6.917
X3.621Y-6.709
X3.7Y-4.925
X3.7Y-5.175
X3.7Y-5.975
X3.7Y-6.25
X3.77Y-4.248
X3.777Y-6.914
X3.78Y-7.125
X3.78Y-7.325
X3.79Y-4.045
X3.79Y-4.115
X3.7905Y-4.19
X3.8Y-6.737
X3.8Y-6.828
X3.825Y-6.4
X3.86Y-4.115
X3.87Y-4.195
X3.87Y-4.265
X3.8933Y-6.769
X3.895Y-4.515
X3.9Y-4.925
X3.923Y-6.821
X3.925Y-6.6
X3.93Y-4.065
X3.933Y-4.42
X3.97Y-4.465
X3.99Y-6.767
X3.994Y-6.865
X4.02Y-3.955
X4.12Y-3.96
X4.12Y-7.325
X4.1201Y-6.865
X4.15Y-5.175
X4.175Y-5.975
X4.175Y-6.25
X4.2Y-4.947
X4.203Y-4.869
X4.214Y-6.915
X4.215Y-6.814
X4.216Y-6.708
X4.22Y-4.775
X4.2441Y-4.7409
X4.25Y-5.075
X4.285Y-4.16
X4.285Y-5.266
X4.289Y-6.733
X4.3Y-6.4
X4.31Y-7.335
X4.327Y-5.598
X4.3271Y-5.9201
X4.328Y-5.965
X4.3331Y-6.7699
X4.349Y-7.371
X4.35Y-4.225
X4.36Y-7.095
X4.369Y-6.819
X4.412Y-6.865
X4.415Y-4.02
X4.416Y-3.705
X4.42Y-3.905
X4.455Y-3.985
X4.46Y-7.325
X4.463Y-6.918
X4.479Y-6.813
X4.498Y-5.915
X4.502Y-6.186
X4.522Y-6.965
X4.548Y-6.369
X4.554Y-6.769
X4.56Y-3.905
X4.561Y-3.96
X4.588Y-6.922
X4.608Y-6.106
X4.635Y-4.165
X4.635Y-4.24
X4.635Y-4.3
X4.635Y-4.375
X4.639Y-5.759
X4.64Y-4.019
X4.65Y-6.865
X4.67Y-5.255
X4.678Y-6.36
X4.7Y-4.44
X4.702Y-4.628
X4.707Y-5.212
X4.707Y-5.35
X4.71Y-4.815
X4.71Y-5.115
X4.71Y-5.934
X4.711Y-4.508
X4.712Y-4.708
X4.7145Y-5.5323
X4.7145Y-5.595
X4.7145Y-5.695
X4.7145Y-5.995
X4.7145Y-6.085
X4.72Y-4.195
X4.74Y-7.075
X4.744Y-4.675
X4.745Y-6.306
X4.75Y-6.965
X4.761Y-6.524
X4.79Y-4.915
X4.803Y-4.695
X4.832Y-7.031
X4.842Y-4.309
X4.8441Y-4.8891
X4.854Y-6.883
X4.855Y-6.475
X4.858Y-6.979
X4.859Y-7.226
X4.86Y-7.08
X4.86Y-7.315
X4.87Y-5.465
X4.87Y-5.825
X4.87Y-6.315
X4.88Y-4.955
X4.893Y-6.618
X4.919Y-6.356
X4.926Y-6.548
X4.972Y-4.076
X4.977Y-4.751
X4.98Y-4.185
X4.98Y-4.445
X5.002Y-5.866
X5.004Y-6.321
X5.01Y-6.535
X5.013Y-5.351
X5.015Y-5.713
X5.0295Y-5.175
X5.03Y-5.254
X5.069Y-6.776
X5.075Y-4.52
X5.08Y-4.685
X5.101Y-6.981
X5.101Y-7.081
X5.111Y-7.253
X5.1235Y-6.3505
X5.1605Y-4.6968
X5.1675Y-4.6125
X5.169Y-3.973
X5.17Y-6.105
X5.22Y-4.205
X5.22Y-4.525
X5.24Y-4.855
X5.24Y-4.905
X5.25Y-5.582
X5.25Y-5.765
X5.258Y-6.412
X5.27Y-6.695
X5.274Y-5.0071
X5.28Y-5.115
X5.32Y-6.625
X5.33Y-5.355
X5.33Y-6.985
X5.33Y-7.085
X5.34Y-7.315
X5.345Y-6.776
X5.36Y-5.725
X5.425Y-4.868
X5.45Y-5.525
X5.45Y-5.625
X5.46Y-5.325
X5.47Y-5.786
X5.473Y-6.016
X5.476Y-3.965
X5.476Y-7.322
X5.48Y-6.543
X5.492Y-6.305
X5.53Y-5.638
X5.535Y-6.428
X5.539Y-5.203
X5.594Y-6.516
X5.594Y-6.631
X5.6Y-7.315
X5.62Y-6.924
X5.624Y-5.684
X5.727Y-3.98
X5.741Y-5.63
X5.796Y-7.275
X5.797Y-6.925
X5.798Y-6.599
X5.803Y-6.006
X5.804Y-6.316
T3
X2.0Y-5.375
X2.0Y-5.675
X2.075Y-6.975
X2.075Y-7.075
X2.075Y-7.175
X2.075Y-7.275
X2.075Y-7.375
X2.1Y-5.375
X2.1Y-5.675
X2.2Y-5.375
X2.2Y-5.675
X2.3Y-5.375
X2.3Y-5.675
X2.453Y-5.375
X2.453Y-5.675
X2.553Y-5.375
X2.553Y-5.675
X2.653Y-5.375
X2.653Y-5.675
X2.675Y-6.965
X2.675Y-7.265
X2.753Y-5.375
X2.753Y-5.675
X2.775Y-6.965
X2.775Y-7.265
X2.875Y-6.965
X2.875Y-7.265
X2.975Y-6.965
X2.975Y-7.265
X5.655Y-6.975
X5.655Y-7.075
X5.655Y-7.175
X5.655Y-7.275
X5.655Y-7.375
T4
X2.4Y-4.115
X2.4Y-4.2134
X2.675Y-4.1166
X2.675Y-4.215
X2.875Y-4.735
X2.875Y-4.835
X2.875Y-4.935
X2.875Y-5.035
X2.875Y-5.135
X2.875Y-5.235
X2.875Y-5.335
X2.875Y-5.435
X2.875Y-5.535
X2.875Y-5.635
X3.175Y-4.735
X3.175Y-4.835
X3.175Y-4.935
X3.175Y-5.035
X3.175Y-5.135
X3.175Y-5.235
X3.175Y-5.335
X3.175Y-5.435
X3.175Y-5.535
X3.175Y-5.635
X4.597Y-7.176
X4.597Y-7.2744
X4.8Y-4.975
X4.8Y-5.075
X4.8Y-5.175
X4.8Y-5.275
X4.8Y-5.375
X4.8Y-5.475
X4.8Y-5.575
X4.8Y-5.675
X4.8Y-5.775
X4.8Y-5.875
X4.8Y-5.975
X4.8Y-6.075
X4.8Y-6.175
X4.8Y-6.275
X4.8Y-6.375
X4.8Y-6.475
X4.8Y-6.575
X4.8Y-6.675
X4.8Y-6.775
X4.8Y-6.875
X4.8Y-6.975
X4.8Y-7.075
X4.8Y-7.175
X4.8Y-7.275
X5.4Y-4.975
X5.4Y-5.075
X5.4Y-5.175
X5.4Y-5.275
X5.4Y-5.375
X5.4Y-5.475
X5.4Y-5.575
X5.4Y-5.675
X5.4Y-5.775
X5.4Y-5.875
X5.4Y-5.975
X5.4Y-6.075
X5.4Y-6.175
X5.4Y-6.275
X5.4Y-6.375
X5.4Y-6.475
X5.4Y-6.575
X5.4Y-6.675
X5.4Y-6.775
X5.4Y-6.875
X5.4Y-6.975
X5.4Y-7.075
X5.4Y-7.175
X5.4Y-7.275
T5
X3.5542Y-6.7151
X3.5542Y-6.8151
X3.5542Y-6.9151
X3.5542Y-7.0151
X3.5542Y-7.1151
X3.5542Y-7.2151
X3.555Y-6.615
X4.1542Y-6.6151
X4.1542Y-6.7151
X4.1542Y-6.8151
X4.1542Y-6.9151
X4.1542Y-7.0151
X4.1542Y-7.1151
X4.1542Y-7.2151
T6
X2.94Y-3.919
X2.94Y-4.019
T7
X2.0316Y-3.9377
X2.13Y-3.9377
X2.2284Y-3.9377
X2.4816Y-3.9377
X2.58Y-3.9377
X2.6744Y-4.8766
X2.6744Y-4.975
X2.6744Y-5.0734
X2.6747Y-4.4281
X2.6747Y-4.5266
X2.6747Y-4.625
X2.6784Y-3.9377
X5.654Y-6.1797
X5.654Y-6.2781
X5.654Y-6.3766
X5.654Y-6.475
T8
X2.075Y-6.3666
X2.075Y-6.465
X2.4Y-6.3646
X2.4Y-6.463
X2.875Y-3.725
X2.975Y-3.725
X3.075Y-3.725
X3.175Y-3.725
X3.42Y-3.725
X3.42Y-3.825
X3.52Y-3.725
X3.52Y-3.825
X3.62Y-3.725
X3.62Y-3.825
X3.72Y-3.725
X3.72Y-3.825
X3.8068Y-6.1278
X3.82Y-3.725
X3.82Y-3.825
X3.9052Y-6.1278
X3.92Y-3.725
X3.92Y-3.825
X4.02Y-3.725
X4.02Y-3.825
X4.12Y-3.725
X4.12Y-3.825
X4.22Y-3.725
X4.22Y-3.825
X4.274Y-4.835
X4.274Y-4.9334
X4.32Y-3.725
X4.32Y-3.825
X4.725Y-4.025
X4.725Y-4.125
X4.825Y-4.025
X4.825Y-4.125
X4.925Y-4.025
X4.925Y-4.125
X5.025Y-4.025
X5.025Y-4.125
X5.125Y-4.025
X5.125Y-4.125
X5.225Y-4.025
X5.225Y-4.125
X5.325Y-4.025
X5.325Y-4.125
X5.425Y-4.025
X5.425Y-4.125
X5.525Y-4.025
X5.525Y-4.125
X5.55Y-5.7244
X5.55Y-5.8244
X5.55Y-5.9244
X5.625Y-4.025
X5.625Y-4.125
X5.725Y-5.725
X5.725Y-5.825
X5.725Y-5.925
T9
X3.4232Y-4.6333
X3.5791Y-4.6333
X3.735Y-4.6333
X3.8909Y-4.6333
X4.0468Y-4.6333
T10
X2.0295Y-4.148
X2.03Y-6.785
X5.707Y-6.734
X5.71Y-4.335
M30
