%TF.GenerationSoftware,KiCad,Pcbnew,8.0.5*%
%TF.CreationDate,2024-09-28T03:45:08+09:00*%
%TF.ProjectId,_____,b5fcdcfa-7f2e-46b6-9963-61645f706362,rev?*%
%TF.SameCoordinates,Original*%
%TF.FileFunction,Copper,L1,Top*%
%TF.FilePolarity,Positive*%
%FSLAX46Y46*%
G04 Gerber Fmt 4.6, Leading zero omitted, Abs format (unit mm)*
G04 Created by KiCad (PCBNEW 8.0.5) date 2024-09-28 03:45:08*
%MOMM*%
%LPD*%
G01*
G04 APERTURE LIST*
G04 Aperture macros list*
%AMRoundRect*
0 Rectangle with rounded corners*
0 $1 Rounding radius*
0 $2 $3 $4 $5 $6 $7 $8 $9 X,Y pos of 4 corners*
0 Add a 4 corners polygon primitive as box body*
4,1,4,$2,$3,$4,$5,$6,$7,$8,$9,$2,$3,0*
0 Add four circle primitives for the rounded corners*
1,1,$1+$1,$2,$3*
1,1,$1+$1,$4,$5*
1,1,$1+$1,$6,$7*
1,1,$1+$1,$8,$9*
0 Add four rect primitives between the rounded corners*
20,1,$1+$1,$2,$3,$4,$5,0*
20,1,$1+$1,$4,$5,$6,$7,0*
20,1,$1+$1,$6,$7,$8,$9,0*
20,1,$1+$1,$8,$9,$2,$3,0*%
G04 Aperture macros list end*
%TA.AperFunction,ComponentPad*%
%ADD10C,1.600000*%
%TD*%
%TA.AperFunction,ComponentPad*%
%ADD11C,1.524000*%
%TD*%
%TA.AperFunction,ComponentPad*%
%ADD12R,1.524000X1.524000*%
%TD*%
%TA.AperFunction,SMDPad,CuDef*%
%ADD13RoundRect,0.237500X-0.300000X-0.237500X0.300000X-0.237500X0.300000X0.237500X-0.300000X0.237500X0*%
%TD*%
%TA.AperFunction,ComponentPad*%
%ADD14C,1.750000*%
%TD*%
%TA.AperFunction,ComponentPad*%
%ADD15C,5.600000*%
%TD*%
%TA.AperFunction,ComponentPad*%
%ADD16R,1.700000X1.700000*%
%TD*%
%TA.AperFunction,ComponentPad*%
%ADD17O,1.700000X1.700000*%
%TD*%
%TA.AperFunction,SMDPad,CuDef*%
%ADD18RoundRect,0.237500X0.237500X-0.250000X0.237500X0.250000X-0.237500X0.250000X-0.237500X-0.250000X0*%
%TD*%
%TA.AperFunction,ComponentPad*%
%ADD19R,1.600000X1.600000*%
%TD*%
%TA.AperFunction,ComponentPad*%
%ADD20R,2.000000X1.905000*%
%TD*%
%TA.AperFunction,ComponentPad*%
%ADD21O,2.000000X1.905000*%
%TD*%
%TA.AperFunction,ComponentPad*%
%ADD22C,3.500000*%
%TD*%
%TA.AperFunction,ComponentPad*%
%ADD23R,3.500000X3.500000*%
%TD*%
%TA.AperFunction,ComponentPad*%
%ADD24C,1.400000*%
%TD*%
%TA.AperFunction,ComponentPad*%
%ADD25RoundRect,0.250000X-0.725000X0.600000X-0.725000X-0.600000X0.725000X-0.600000X0.725000X0.600000X0*%
%TD*%
%TA.AperFunction,ComponentPad*%
%ADD26O,1.950000X1.700000*%
%TD*%
%TA.AperFunction,ComponentPad*%
%ADD27RoundRect,0.250000X-0.600000X-0.750000X0.600000X-0.750000X0.600000X0.750000X-0.600000X0.750000X0*%
%TD*%
%TA.AperFunction,ComponentPad*%
%ADD28O,1.700000X2.000000*%
%TD*%
%TA.AperFunction,ComponentPad*%
%ADD29R,1.800000X1.800000*%
%TD*%
%TA.AperFunction,ComponentPad*%
%ADD30C,1.800000*%
%TD*%
%TA.AperFunction,SMDPad,CuDef*%
%ADD31RoundRect,0.237500X-0.250000X-0.237500X0.250000X-0.237500X0.250000X0.237500X-0.250000X0.237500X0*%
%TD*%
%TA.AperFunction,ViaPad*%
%ADD32C,0.800000*%
%TD*%
%TA.AperFunction,Conductor*%
%ADD33C,3.000000*%
%TD*%
%TA.AperFunction,Conductor*%
%ADD34C,2.000000*%
%TD*%
%TA.AperFunction,Conductor*%
%ADD35C,0.300000*%
%TD*%
%TA.AperFunction,Conductor*%
%ADD36C,0.500000*%
%TD*%
%TA.AperFunction,Conductor*%
%ADD37C,0.250000*%
%TD*%
G04 APERTURE END LIST*
D10*
%TO.P,C1,1*%
%TO.N,VDD*%
X77470000Y-90424000D03*
%TO.P,C1,2*%
%TO.N,GND*%
X77470000Y-87924000D03*
%TD*%
D11*
%TO.P,U1,1,PA02_A0_D0*%
%TO.N,Net-(U1-PA02_A0_D0)*%
X95250000Y-81280000D03*
%TO.P,U1,2,PA4_A1_D1*%
%TO.N,unconnected-(U1-PA4_A1_D1-Pad2)*%
X95250000Y-83820000D03*
%TO.P,U1,3,PA10_A2_D2*%
%TO.N,unconnected-(U1-PA10_A2_D2-Pad3)*%
X95250000Y-86360000D03*
%TO.P,U1,4,PA11_A3_D3*%
%TO.N,unconnected-(U1-PA11_A3_D3-Pad4)*%
X95250000Y-88900000D03*
%TO.P,U1,5,PA8_A4_D4_SDA*%
%TO.N,/RED LED*%
X95250000Y-91440000D03*
%TO.P,U1,6,PA9_A5_D5_SCL*%
%TO.N,/GREEN LED*%
X95250000Y-93980000D03*
%TO.P,U1,7,PB08_A6_D6_TX*%
%TO.N,unconnected-(U1-PB08_A6_D6_TX-Pad7)*%
X95250000Y-96520000D03*
%TO.P,U1,8,PB09_A7_D7_RX*%
%TO.N,unconnected-(U1-PB09_A7_D7_RX-Pad8)*%
X107950000Y-96520000D03*
%TO.P,U1,9,PA7_A8_D8_SCK*%
%TO.N,unconnected-(U1-PA7_A8_D8_SCK-Pad9)*%
X107950000Y-93980000D03*
%TO.P,U1,10,PA5_A9_D9_MISO*%
%TO.N,/DCDC RST1*%
X107950000Y-91440000D03*
%TO.P,U1,11,PA6_A10_D10_MOSI*%
%TO.N,/DCDC RST2*%
X107950000Y-88900000D03*
%TO.P,U1,12,3V3*%
%TO.N,unconnected-(U1-3V3-Pad12)*%
X107950000Y-86360000D03*
D12*
%TO.P,U1,13,GND*%
%TO.N,GND*%
X107950000Y-83820000D03*
D11*
%TO.P,U1,14,5V*%
%TO.N,+5V*%
X107950000Y-81280000D03*
%TD*%
D13*
%TO.P,C8,1*%
%TO.N,GND*%
X45694300Y-63957200D03*
%TO.P,C8,2*%
%TO.N,Net-(J4-Pin_2)*%
X47419300Y-63957200D03*
%TD*%
D14*
%TO.P,ENC1,1,RED*%
%TO.N,Net-(ENC1-RED)*%
X76711400Y-67997200D03*
%TO.P,ENC1,2,GREEN*%
%TO.N,Net-(ENC1-GREEN)*%
X76711400Y-65997200D03*
%TO.P,ENC1,3,SW*%
%TO.N,Net-(ENC1-SW)*%
X76711400Y-63997200D03*
%TO.P,ENC1,4,BLUE*%
%TO.N,Net-(ENC1-BLUE)*%
X76711400Y-61997200D03*
%TO.P,ENC1,5,Anode*%
%TO.N,Net-(ENC1-Anode)*%
X76711400Y-59997200D03*
%TO.P,ENC1,6,A*%
%TO.N,Net-(ENC1-A)*%
X91211400Y-66497200D03*
%TO.P,ENC1,7,B*%
%TO.N,Net-(ENC1-B)*%
X91211400Y-63997200D03*
%TO.P,ENC1,8,C*%
%TO.N,Net-(ENC1-C)*%
X91211400Y-61497200D03*
%TD*%
D15*
%TO.P,REF\u002A\u002A,1*%
%TO.N,N/C*%
X101600000Y-79375000D03*
%TD*%
D13*
%TO.P,C6,1*%
%TO.N,GND*%
X51536300Y-63957200D03*
%TO.P,C6,2*%
%TO.N,Net-(J2-Pin_2)*%
X53261300Y-63957200D03*
%TD*%
D16*
%TO.P,J7,1,Pin_1*%
%TO.N,Net-(ENC1-RED)*%
X72898000Y-69088000D03*
D17*
%TO.P,J7,2,Pin_2*%
%TO.N,Net-(ENC1-GREEN)*%
X72898000Y-66548000D03*
%TO.P,J7,3,Pin_3*%
%TO.N,Net-(ENC1-SW)*%
X72898000Y-64008000D03*
%TO.P,J7,4,Pin_4*%
%TO.N,Net-(ENC1-BLUE)*%
X72898000Y-61468000D03*
%TO.P,J7,5,Pin_5*%
%TO.N,Net-(ENC1-Anode)*%
X72898000Y-58928000D03*
%TD*%
D18*
%TO.P,R3,1*%
%TO.N,/RED LED*%
X91490800Y-90879300D03*
%TO.P,R3,2*%
%TO.N,Net-(D1-A)*%
X91490800Y-89054300D03*
%TD*%
D16*
%TO.P,J8,1,Pin_1*%
%TO.N,Net-(ENC1-A)*%
X95758000Y-66548000D03*
D17*
%TO.P,J8,2,Pin_2*%
%TO.N,Net-(ENC1-B)*%
X95758000Y-64008000D03*
%TO.P,J8,3,Pin_3*%
%TO.N,Net-(ENC1-C)*%
X95758000Y-61468000D03*
%TD*%
D15*
%TO.P,REF\u002A\u002A,1*%
%TO.N,N/C*%
X59690000Y-79375000D03*
%TD*%
D18*
%TO.P,R1,1*%
%TO.N,VDD*%
X97612200Y-89048600D03*
%TO.P,R1,2*%
%TO.N,Net-(U1-PA02_A0_D0)*%
X97612200Y-87223600D03*
%TD*%
D19*
%TO.P,C5,1*%
%TO.N,Net-(J4-Pin_2)*%
X46456600Y-78627600D03*
D10*
%TO.P,C5,2*%
%TO.N,GND*%
X46456600Y-81127600D03*
%TD*%
D20*
%TO.P,LDO1,1,Vin*%
%TO.N,VDD*%
X74930000Y-90424000D03*
D21*
%TO.P,LDO1,2,GND*%
%TO.N,GND*%
X74930000Y-87884000D03*
%TO.P,LDO1,3,Vout*%
%TO.N,+5V*%
X74930000Y-85344000D03*
%TD*%
D22*
%TO.P,J1,2,Pin_2*%
%TO.N,VDD*%
X39752000Y-85885000D03*
D23*
%TO.P,J1,1,Pin_1*%
%TO.N,GND*%
X44752000Y-85885000D03*
D24*
%TO.P,J1,*%
%TO.N,*%
X47752000Y-95885000D03*
X36752000Y-95885000D03*
%TD*%
D25*
%TO.P,J5,1,Pin_1*%
%TO.N,GND*%
X39801800Y-67974200D03*
D26*
%TO.P,J5,2,Pin_2*%
%TO.N,Net-(J4-Pin_2)*%
X39801800Y-70474200D03*
%TO.P,J5,3,Pin_3*%
%TO.N,/DATA*%
X39801800Y-72974200D03*
%TD*%
D19*
%TO.P,C2,1*%
%TO.N,+5V*%
X78994000Y-84804000D03*
D10*
%TO.P,C2,2*%
%TO.N,GND*%
X78994000Y-82804000D03*
%TD*%
D15*
%TO.P,REF\u002A\u002A,1*%
%TO.N,N/C*%
X84455000Y-79375000D03*
%TD*%
D13*
%TO.P,C10,1*%
%TO.N,GND*%
X39852300Y-63957200D03*
%TO.P,C10,2*%
%TO.N,Net-(J4-Pin_2)*%
X41577300Y-63957200D03*
%TD*%
D19*
%TO.P,C4,1*%
%TO.N,Net-(J2-Pin_2)*%
X64770000Y-75144000D03*
D10*
%TO.P,C4,2*%
%TO.N,GND*%
X64770000Y-72644000D03*
%TD*%
D25*
%TO.P,J4,1,Pin_1*%
%TO.N,GND*%
X45651800Y-67974200D03*
D26*
%TO.P,J4,2,Pin_2*%
%TO.N,Net-(J4-Pin_2)*%
X45651800Y-70474200D03*
%TO.P,J4,3,Pin_3*%
%TO.N,/DATA*%
X45651800Y-72974200D03*
%TD*%
D25*
%TO.P,J2,1,Pin_1*%
%TO.N,GND*%
X57351800Y-67974200D03*
D26*
%TO.P,J2,2,Pin_2*%
%TO.N,Net-(J2-Pin_2)*%
X57351800Y-70474200D03*
%TO.P,J2,3,Pin_3*%
%TO.N,/DATA*%
X57351800Y-72974200D03*
%TD*%
D27*
%TO.P,J6,1,Pin_1*%
%TO.N,GND*%
X63774000Y-66023000D03*
D28*
%TO.P,J6,2,Pin_2*%
%TO.N,/DATA*%
X66274000Y-66023000D03*
%TD*%
D25*
%TO.P,J3,1,Pin_1*%
%TO.N,GND*%
X51501800Y-67974200D03*
D26*
%TO.P,J3,2,Pin_2*%
%TO.N,Net-(J2-Pin_2)*%
X51501800Y-70474200D03*
%TO.P,J3,3,Pin_3*%
%TO.N,/DATA*%
X51501800Y-72974200D03*
%TD*%
D13*
%TO.P,C3,1*%
%TO.N,GND*%
X57378300Y-63957200D03*
%TO.P,C3,2*%
%TO.N,Net-(J2-Pin_2)*%
X59103300Y-63957200D03*
%TD*%
D29*
%TO.P,D1,1,K*%
%TO.N,GND*%
X37968000Y-80137000D03*
D30*
%TO.P,D1,2,A*%
%TO.N,Net-(D1-A)*%
X40508000Y-80137000D03*
%TD*%
D31*
%TO.P,R2,1*%
%TO.N,Net-(U1-PA02_A0_D0)*%
X97616000Y-85090000D03*
%TO.P,R2,2*%
%TO.N,GND*%
X99441000Y-85090000D03*
%TD*%
D11*
%TO.P,LT2,1,Vin*%
%TO.N,VDD*%
X52070000Y-93980000D03*
%TO.P,LT2,2,Vin*%
X52070000Y-96520000D03*
%TO.P,LT2,3,Vin*%
X54610000Y-96520000D03*
%TO.P,LT2,4,EN/UV*%
%TO.N,/DCDC RST2*%
X57150000Y-96520000D03*
%TO.P,LT2,5,MODE*%
%TO.N,unconnected-(LT2-MODE-Pad5)*%
X59690000Y-96520000D03*
%TO.P,LT2,6,INTVCC*%
%TO.N,unconnected-(LT2-INTVCC-Pad6)*%
X62230000Y-96520000D03*
%TO.P,LT2,7,PG*%
%TO.N,unconnected-(LT2-PG-Pad7)*%
X64770000Y-96520000D03*
D12*
%TO.P,LT2,8,GND*%
%TO.N,GND*%
X67310000Y-96520000D03*
%TO.P,LT2,9,GND*%
X69850000Y-96520000D03*
%TO.P,LT2,10,GND*%
X69850000Y-93980000D03*
D11*
%TO.P,LT2,11,Vout*%
%TO.N,Net-(J4-Pin_2)*%
X52070000Y-81280000D03*
%TO.P,LT2,12,Vout*%
X52070000Y-78740000D03*
%TO.P,LT2,13,Vout*%
X54610000Y-78740000D03*
D12*
%TO.P,LT2,14,GND*%
%TO.N,GND*%
X67310000Y-78740000D03*
%TO.P,LT2,15,GND*%
X69850000Y-78740000D03*
%TO.P,LT2,16,GND*%
X69850000Y-81280000D03*
%TD*%
D11*
%TO.P,LT1,1,Vin*%
%TO.N,VDD*%
X73660000Y-93980000D03*
%TO.P,LT1,2,Vin*%
X73660000Y-96520000D03*
%TO.P,LT1,3,Vin*%
X76200000Y-96520000D03*
%TO.P,LT1,4,EN/UV*%
%TO.N,/DCDC RST1*%
X78740000Y-96520000D03*
%TO.P,LT1,5,MODE*%
%TO.N,unconnected-(LT1-MODE-Pad5)*%
X81280000Y-96520000D03*
%TO.P,LT1,6,INTVCC*%
%TO.N,unconnected-(LT1-INTVCC-Pad6)*%
X83820000Y-96520000D03*
%TO.P,LT1,7,PG*%
%TO.N,unconnected-(LT1-PG-Pad7)*%
X86360000Y-96520000D03*
D12*
%TO.P,LT1,8,GND*%
%TO.N,GND*%
X88900000Y-96520000D03*
%TO.P,LT1,9,GND*%
X91440000Y-96520000D03*
%TO.P,LT1,10,GND*%
X91440000Y-93980000D03*
D11*
%TO.P,LT1,11,Vout*%
%TO.N,Net-(J2-Pin_2)*%
X73660000Y-81280000D03*
%TO.P,LT1,12,Vout*%
X73660000Y-78740000D03*
%TO.P,LT1,13,Vout*%
X76200000Y-78740000D03*
D12*
%TO.P,LT1,14,GND*%
%TO.N,GND*%
X88900000Y-78740000D03*
%TO.P,LT1,15,GND*%
X91440000Y-78740000D03*
%TO.P,LT1,16,GND*%
X91440000Y-81280000D03*
%TD*%
D32*
%TO.N,GND*%
X47244000Y-89916000D03*
X54610000Y-82042000D03*
X67310000Y-87630000D03*
X88265000Y-86360000D03*
X55245000Y-87630000D03*
X36195000Y-88900000D03*
X62865000Y-84455000D03*
X96774000Y-79502000D03*
X36195000Y-97155000D03*
X84455000Y-86360000D03*
X98552000Y-81534000D03*
X45085000Y-97155000D03*
X67818000Y-71628000D03*
X101600000Y-93980000D03*
X93345000Y-83820000D03*
X103505000Y-88265000D03*
X49530000Y-97155000D03*
X92075000Y-86360000D03*
X106045000Y-85090000D03*
X80010000Y-97790000D03*
X49022000Y-63754000D03*
X97155000Y-97155000D03*
X46990000Y-84455000D03*
X78232000Y-94996000D03*
X55118000Y-68072000D03*
X45720000Y-75184000D03*
X89154000Y-83820000D03*
X107950000Y-77470000D03*
X57785000Y-84455000D03*
X62992000Y-64262000D03*
X48514000Y-71882000D03*
X89154000Y-91186000D03*
X71120000Y-87630000D03*
X62865000Y-87630000D03*
X103632000Y-82296000D03*
X100330000Y-91440000D03*
X100330000Y-88265000D03*
X60452000Y-67818000D03*
X77978000Y-76708000D03*
X106045000Y-93980000D03*
X60452000Y-64262000D03*
X36068000Y-77978000D03*
X87884000Y-94488000D03*
X96774000Y-81534000D03*
X58420000Y-97790000D03*
X56388000Y-76962000D03*
X86614000Y-76708000D03*
X101600000Y-97155000D03*
X52070000Y-90170000D03*
X97155000Y-91440000D03*
X92964000Y-76708000D03*
X51562000Y-75438000D03*
X52705000Y-84455000D03*
X93345000Y-88900000D03*
X40640000Y-92710000D03*
X67818000Y-75692000D03*
X42672000Y-72136000D03*
X62738000Y-81788000D03*
X40640000Y-97155000D03*
X62992000Y-71374000D03*
X82042000Y-76708000D03*
X39878000Y-75184000D03*
X89154000Y-76708000D03*
X43180000Y-64008000D03*
X67818000Y-64262000D03*
X92964000Y-79502000D03*
X36830000Y-68326000D03*
X105410000Y-80010000D03*
X77978000Y-81280000D03*
X36195000Y-92710000D03*
X82042000Y-83820000D03*
X85090000Y-97790000D03*
X82804000Y-94488000D03*
X36195000Y-82550000D03*
X96774000Y-76708000D03*
X93345000Y-93980000D03*
X44958000Y-65786000D03*
X93345000Y-97155000D03*
X84328000Y-91186000D03*
X67818000Y-67564000D03*
X43180000Y-68072000D03*
X89154000Y-81788000D03*
X76200000Y-82804000D03*
X56388000Y-65786000D03*
X80645000Y-86360000D03*
X105410000Y-77470000D03*
X39116000Y-65786000D03*
X63500000Y-97790000D03*
X106045000Y-88265000D03*
X49530000Y-87630000D03*
X57404000Y-74930000D03*
X103505000Y-85090000D03*
X103505000Y-91440000D03*
X80010000Y-93726000D03*
X37084000Y-64008000D03*
X80010000Y-91186000D03*
X50800000Y-65786000D03*
X106045000Y-97155000D03*
X40640000Y-82550000D03*
X99060000Y-83820000D03*
X107950000Y-79756000D03*
X97155000Y-93980000D03*
X49022000Y-67818000D03*
X54356000Y-72136000D03*
X86614000Y-83820000D03*
X54864000Y-64008000D03*
%TO.N,/DCDC RST2*%
X68776000Y-92652000D03*
%TO.N,Net-(U1-PA02_A0_D0)*%
X97616000Y-83820000D03*
%TO.N,Net-(D1-A)*%
X79425800Y-87655400D03*
X63703200Y-83261200D03*
%TD*%
D33*
%TO.N,VDD*%
X45733000Y-93485000D02*
X51575000Y-93485000D01*
X39752000Y-87504000D02*
X45733000Y-93485000D01*
X39752000Y-85885000D02*
X39752000Y-87504000D01*
X51575000Y-93485000D02*
X52070000Y-93980000D01*
X64552284Y-92075000D02*
X66075284Y-90552000D01*
X76200000Y-96520000D02*
X73660000Y-93980000D01*
X70536800Y-90552000D02*
X73660000Y-93675200D01*
X53975000Y-92075000D02*
X64552284Y-92075000D01*
X66075284Y-90552000D02*
X70536800Y-90552000D01*
D34*
X77470000Y-90424000D02*
X77470000Y-92710000D01*
X74930000Y-90424000D02*
X77470000Y-90424000D01*
D35*
X97612200Y-89048600D02*
X96648800Y-90012000D01*
D33*
X73660000Y-93675200D02*
X73660000Y-93980000D01*
X52070000Y-93980000D02*
X52044600Y-93980000D01*
D34*
X77470000Y-92710000D02*
X76200000Y-93980000D01*
X76200000Y-93980000D02*
X76200000Y-96520000D01*
D33*
X54610000Y-96520000D02*
X52070000Y-96520000D01*
X73660000Y-96520000D02*
X76200000Y-96520000D01*
D35*
X77882000Y-90012000D02*
X77470000Y-90424000D01*
D33*
X52070000Y-93980000D02*
X53975000Y-92075000D01*
X73660000Y-93980000D02*
X73660000Y-96520000D01*
X52070000Y-93980000D02*
X54610000Y-96520000D01*
X52070000Y-96520000D02*
X52070000Y-93980000D01*
D35*
X96648800Y-90012000D02*
X77882000Y-90012000D01*
D36*
%TO.N,+5V*%
X93276000Y-82492000D02*
X99002000Y-82492000D01*
X99002000Y-82492000D02*
X99695000Y-83185000D01*
D34*
X74930000Y-85344000D02*
X78454000Y-85344000D01*
D36*
X78994000Y-84804000D02*
X90964000Y-84804000D01*
X106045000Y-83185000D02*
X107950000Y-81280000D01*
D34*
X78454000Y-85344000D02*
X78994000Y-84804000D01*
D36*
X99695000Y-83185000D02*
X106045000Y-83185000D01*
X90964000Y-84804000D02*
X93276000Y-82492000D01*
D33*
%TO.N,Net-(J2-Pin_2)*%
X68252284Y-83742000D02*
X64770000Y-80259716D01*
D34*
X63206000Y-75144000D02*
X64770000Y-75144000D01*
D36*
X59103300Y-63957200D02*
X59103300Y-68722700D01*
D33*
X72312000Y-83742000D02*
X68252284Y-83742000D01*
D34*
X57351800Y-70474200D02*
X58536200Y-70474200D01*
D36*
X53261300Y-68714700D02*
X51501800Y-70474200D01*
X59103300Y-68722700D02*
X57351800Y-70474200D01*
D33*
X73660000Y-82394000D02*
X72312000Y-83742000D01*
X76200000Y-78740000D02*
X73660000Y-78740000D01*
X73660000Y-81280000D02*
X73660000Y-82394000D01*
X73660000Y-81280000D02*
X76200000Y-78740000D01*
D34*
X51501800Y-70474200D02*
X57351800Y-70474200D01*
X58536200Y-70474200D02*
X63206000Y-75144000D01*
D33*
X64770000Y-80259716D02*
X64770000Y-75144000D01*
D36*
X53261300Y-63957200D02*
X53261300Y-68714700D01*
D33*
X73660000Y-78740000D02*
X73660000Y-81280000D01*
D34*
%TO.N,Net-(J4-Pin_2)*%
X45651800Y-70474200D02*
X39801800Y-70474200D01*
D33*
X51957600Y-78627600D02*
X46456600Y-78627600D01*
D34*
X39801800Y-70474200D02*
X36677600Y-70474200D01*
X41452800Y-77419200D02*
X42661200Y-78627600D01*
D33*
X52070000Y-78740000D02*
X54610000Y-78740000D01*
X54610000Y-78740000D02*
X52070000Y-81280000D01*
D34*
X36677600Y-70474200D02*
X36677600Y-75158600D01*
X38938200Y-77419200D02*
X41452800Y-77419200D01*
D36*
X47419300Y-63957200D02*
X47419300Y-68706700D01*
D33*
X52070000Y-81280000D02*
X52070000Y-78740000D01*
D36*
X47419300Y-68706700D02*
X45651800Y-70474200D01*
D33*
X52070000Y-78740000D02*
X51957600Y-78627600D01*
D34*
X36677600Y-75158600D02*
X38938200Y-77419200D01*
D36*
X41577300Y-68698700D02*
X39801800Y-70474200D01*
D34*
X42661200Y-78627600D02*
X46456600Y-78627600D01*
D36*
X41577300Y-63957200D02*
X41577300Y-68698700D01*
%TO.N,/RED LED*%
X95250000Y-91440000D02*
X92051500Y-91440000D01*
X92051500Y-91440000D02*
X91490800Y-90879300D01*
D35*
%TO.N,/DATA*%
X57351800Y-72974200D02*
X39801800Y-72974200D01*
%TO.N,/DCDC RST1*%
X107950000Y-91440000D02*
X106617000Y-92773000D01*
X82487000Y-92773000D02*
X78740000Y-96520000D01*
X106617000Y-92773000D02*
X82487000Y-92773000D01*
D36*
%TO.N,/DCDC RST2*%
X66120000Y-95308000D02*
X58362000Y-95308000D01*
X68776000Y-92652000D02*
X66120000Y-95308000D01*
X58362000Y-95308000D02*
X57150000Y-96520000D01*
D35*
%TO.N,Net-(U1-PA02_A0_D0)*%
X97616000Y-85090000D02*
X97616000Y-87219800D01*
X97616000Y-87219800D02*
X97612200Y-87223600D01*
X97616000Y-83820000D02*
X97616000Y-85090000D01*
D36*
%TO.N,Net-(D1-A)*%
X81940400Y-87655400D02*
X83339300Y-89054300D01*
X79425800Y-87655400D02*
X81940400Y-87655400D01*
X63703200Y-83261200D02*
X43632200Y-83261200D01*
X43632200Y-83261200D02*
X40508000Y-80137000D01*
X83339300Y-89054300D02*
X91490800Y-89054300D01*
D35*
%TO.N,Net-(ENC1-RED)*%
X72898000Y-69088000D02*
X75620600Y-69088000D01*
X75620600Y-69088000D02*
X76711400Y-67997200D01*
%TO.N,Net-(ENC1-Anode)*%
X72898000Y-58928000D02*
X75642200Y-58928000D01*
X75642200Y-58928000D02*
X76711400Y-59997200D01*
%TO.N,Net-(ENC1-SW)*%
X76700600Y-64008000D02*
X76711400Y-63997200D01*
D37*
X76707000Y-64008000D02*
X76708000Y-64009000D01*
D35*
X72898000Y-64008000D02*
X76700600Y-64008000D01*
%TO.N,Net-(ENC1-GREEN)*%
X76160600Y-66548000D02*
X76711400Y-65997200D01*
X72898000Y-66548000D02*
X76160600Y-66548000D01*
%TO.N,Net-(ENC1-BLUE)*%
X76182200Y-61468000D02*
X76711400Y-61997200D01*
X72898000Y-61468000D02*
X76182200Y-61468000D01*
%TO.N,Net-(ENC1-B)*%
X95747200Y-63997200D02*
X95758000Y-64008000D01*
X91211400Y-63997200D02*
X95747200Y-63997200D01*
D37*
X91209000Y-64008000D02*
X91208000Y-64009000D01*
D35*
%TO.N,Net-(ENC1-A)*%
X91211400Y-66497200D02*
X95707200Y-66497200D01*
D37*
X95719000Y-66509000D02*
X95758000Y-66548000D01*
D35*
X95707200Y-66497200D02*
X95758000Y-66548000D01*
D37*
%TO.N,Net-(ENC1-C)*%
X91249000Y-61468000D02*
X91208000Y-61509000D01*
D35*
X95728800Y-61497200D02*
X95758000Y-61468000D01*
X91211400Y-61497200D02*
X95728800Y-61497200D01*
%TD*%
%TA.AperFunction,Conductor*%
%TO.N,GND*%
G36*
X69539039Y-63011685D02*
G01*
X69584794Y-63064489D01*
X69596000Y-63116000D01*
X69596000Y-70996000D01*
X69576315Y-71063039D01*
X69523511Y-71108794D01*
X69472000Y-71120000D01*
X69342000Y-71120000D01*
X69342000Y-76200000D01*
X83779677Y-76200000D01*
X83846716Y-76219685D01*
X83892471Y-76272489D01*
X83902415Y-76341647D01*
X83873390Y-76405203D01*
X83814612Y-76442977D01*
X83808273Y-76444658D01*
X83592990Y-76495680D01*
X83592987Y-76495681D01*
X83264547Y-76615223D01*
X83264541Y-76615226D01*
X82952203Y-76772088D01*
X82660194Y-76964146D01*
X82660186Y-76964152D01*
X82392442Y-77188817D01*
X82392440Y-77188819D01*
X82152589Y-77443044D01*
X82152584Y-77443050D01*
X81943870Y-77723402D01*
X81769113Y-78026091D01*
X81769107Y-78026104D01*
X81630674Y-78347027D01*
X81530430Y-78681865D01*
X81530428Y-78681872D01*
X81469739Y-79026061D01*
X81469738Y-79026072D01*
X81449415Y-79374996D01*
X81449415Y-79375003D01*
X81469738Y-79723927D01*
X81469739Y-79723938D01*
X81530428Y-80068127D01*
X81530430Y-80068134D01*
X81630674Y-80402972D01*
X81769107Y-80723895D01*
X81769113Y-80723908D01*
X81943870Y-81026597D01*
X82152584Y-81306949D01*
X82152589Y-81306955D01*
X82236478Y-81395871D01*
X82392442Y-81561183D01*
X82564203Y-81705307D01*
X82660186Y-81785847D01*
X82660194Y-81785853D01*
X82952203Y-81977911D01*
X82952207Y-81977913D01*
X83264549Y-82134777D01*
X83592989Y-82254319D01*
X83933086Y-82334923D01*
X84280241Y-82375500D01*
X84280248Y-82375500D01*
X84629752Y-82375500D01*
X84629759Y-82375500D01*
X84976914Y-82334923D01*
X85317011Y-82254319D01*
X85645451Y-82134777D01*
X85957793Y-81977913D01*
X86076477Y-81899853D01*
X86249805Y-81785853D01*
X86249805Y-81785852D01*
X86249811Y-81785849D01*
X86517558Y-81561183D01*
X86757412Y-81306953D01*
X86966130Y-81026596D01*
X87140889Y-80723904D01*
X87279326Y-80402971D01*
X87379569Y-80068136D01*
X87383729Y-80044548D01*
X87440260Y-79723938D01*
X87440259Y-79723938D01*
X87440262Y-79723927D01*
X87457561Y-79426902D01*
X87460585Y-79375003D01*
X87460585Y-79374996D01*
X87447343Y-79147651D01*
X87440262Y-79026073D01*
X87440260Y-79026061D01*
X87379571Y-78681872D01*
X87379569Y-78681865D01*
X87379569Y-78681864D01*
X87279326Y-78347029D01*
X87140889Y-78026096D01*
X87067022Y-77898155D01*
X86966129Y-77723402D01*
X86757415Y-77443050D01*
X86757410Y-77443044D01*
X86641433Y-77320117D01*
X86517558Y-77188817D01*
X86328360Y-77030061D01*
X86249813Y-76964152D01*
X86249805Y-76964146D01*
X85957796Y-76772088D01*
X85645458Y-76615226D01*
X85645452Y-76615223D01*
X85317012Y-76495681D01*
X85317009Y-76495680D01*
X85101727Y-76444658D01*
X85041034Y-76410043D01*
X85008690Y-76348111D01*
X85014963Y-76278524D01*
X85057863Y-76223375D01*
X85123768Y-76200173D01*
X85130323Y-76200000D01*
X98936000Y-76200000D01*
X99003039Y-76219685D01*
X99048794Y-76272489D01*
X99060000Y-76324000D01*
X99060000Y-77740182D01*
X99043387Y-77802182D01*
X98914113Y-78026091D01*
X98914107Y-78026104D01*
X98775674Y-78347027D01*
X98675430Y-78681865D01*
X98675428Y-78681872D01*
X98614739Y-79026061D01*
X98614738Y-79026072D01*
X98594415Y-79374996D01*
X98594415Y-79375003D01*
X98614738Y-79723927D01*
X98614739Y-79723938D01*
X98675428Y-80068127D01*
X98675430Y-80068134D01*
X98775674Y-80402972D01*
X98914107Y-80723895D01*
X98914113Y-80723908D01*
X99088870Y-81026597D01*
X99297584Y-81306949D01*
X99297589Y-81306955D01*
X99381478Y-81395871D01*
X99537442Y-81561183D01*
X99709203Y-81705307D01*
X99805186Y-81785847D01*
X99805194Y-81785853D01*
X100097203Y-81977911D01*
X100097207Y-81977913D01*
X100409549Y-82134777D01*
X100737989Y-82254319D01*
X101078086Y-82334923D01*
X101425241Y-82375500D01*
X101425248Y-82375500D01*
X101774752Y-82375500D01*
X101774759Y-82375500D01*
X102121914Y-82334923D01*
X102462011Y-82254319D01*
X102790451Y-82134777D01*
X103102793Y-81977913D01*
X103221477Y-81899853D01*
X103394805Y-81785853D01*
X103394805Y-81785852D01*
X103394811Y-81785849D01*
X103662558Y-81561183D01*
X103902412Y-81306953D01*
X104111130Y-81026596D01*
X104285889Y-80723904D01*
X104424326Y-80402971D01*
X104524569Y-80068136D01*
X104528729Y-80044548D01*
X104585260Y-79723938D01*
X104585259Y-79723938D01*
X104585262Y-79723927D01*
X104602561Y-79426902D01*
X104605585Y-79375003D01*
X104605585Y-79374996D01*
X104592343Y-79147651D01*
X104585262Y-79026073D01*
X104585260Y-79026061D01*
X104524571Y-78681872D01*
X104524569Y-78681865D01*
X104524569Y-78681864D01*
X104424326Y-78347029D01*
X104285889Y-78026096D01*
X104156613Y-77802182D01*
X104140000Y-77740182D01*
X104140000Y-76324000D01*
X104159685Y-76256961D01*
X104212489Y-76211206D01*
X104264000Y-76200000D01*
X109350000Y-76200000D01*
X109417039Y-76219685D01*
X109462794Y-76272489D01*
X109474000Y-76324000D01*
X109474000Y-98174000D01*
X109454315Y-98241039D01*
X109401511Y-98286794D01*
X109350000Y-98298000D01*
X76974541Y-98298000D01*
X76907502Y-98278315D01*
X76861747Y-98225511D01*
X76851803Y-98156353D01*
X76880828Y-98092797D01*
X76927089Y-98059439D01*
X76953717Y-98048409D01*
X76953718Y-98048407D01*
X76953726Y-98048405D01*
X77146774Y-97936948D01*
X77323624Y-97801247D01*
X77481247Y-97643624D01*
X77616948Y-97466774D01*
X77728405Y-97273726D01*
X77778383Y-97153067D01*
X77822223Y-97098664D01*
X77888517Y-97076599D01*
X77956217Y-97093878D01*
X77988797Y-97121855D01*
X78056116Y-97203883D01*
X78202674Y-97324161D01*
X78202681Y-97324165D01*
X78369877Y-97413533D01*
X78369878Y-97413533D01*
X78369885Y-97413537D01*
X78551317Y-97468573D01*
X78551316Y-97468573D01*
X78568233Y-97470239D01*
X78740000Y-97487157D01*
X78928683Y-97468573D01*
X79110115Y-97413537D01*
X79277324Y-97324162D01*
X79423883Y-97203883D01*
X79544162Y-97057324D01*
X79633537Y-96890115D01*
X79688573Y-96708683D01*
X79707157Y-96520000D01*
X80312843Y-96520000D01*
X80331426Y-96708681D01*
X80349772Y-96769160D01*
X80386463Y-96890115D01*
X80386464Y-96890118D01*
X80386465Y-96890119D01*
X80386466Y-96890122D01*
X80475834Y-97057318D01*
X80475838Y-97057325D01*
X80596116Y-97203883D01*
X80742674Y-97324161D01*
X80742681Y-97324165D01*
X80909877Y-97413533D01*
X80909878Y-97413533D01*
X80909885Y-97413537D01*
X81091317Y-97468573D01*
X81091316Y-97468573D01*
X81108233Y-97470239D01*
X81280000Y-97487157D01*
X81468683Y-97468573D01*
X81650115Y-97413537D01*
X81817324Y-97324162D01*
X81963883Y-97203883D01*
X82084162Y-97057324D01*
X82173537Y-96890115D01*
X82228573Y-96708683D01*
X82247157Y-96520000D01*
X82852843Y-96520000D01*
X82871426Y-96708681D01*
X82889772Y-96769160D01*
X82926463Y-96890115D01*
X82926464Y-96890118D01*
X82926465Y-96890119D01*
X82926466Y-96890122D01*
X83015834Y-97057318D01*
X83015838Y-97057325D01*
X83136116Y-97203883D01*
X83282674Y-97324161D01*
X83282681Y-97324165D01*
X83449877Y-97413533D01*
X83449878Y-97413533D01*
X83449885Y-97413537D01*
X83631317Y-97468573D01*
X83631316Y-97468573D01*
X83648233Y-97470239D01*
X83820000Y-97487157D01*
X84008683Y-97468573D01*
X84190115Y-97413537D01*
X84357324Y-97324162D01*
X84503883Y-97203883D01*
X84624162Y-97057324D01*
X84713537Y-96890115D01*
X84768573Y-96708683D01*
X84787157Y-96520000D01*
X85392843Y-96520000D01*
X85411426Y-96708681D01*
X85429772Y-96769160D01*
X85466463Y-96890115D01*
X85466464Y-96890118D01*
X85466465Y-96890119D01*
X85466466Y-96890122D01*
X85555834Y-97057318D01*
X85555838Y-97057325D01*
X85676116Y-97203883D01*
X85822674Y-97324161D01*
X85822681Y-97324165D01*
X85989877Y-97413533D01*
X85989878Y-97413533D01*
X85989885Y-97413537D01*
X86171317Y-97468573D01*
X86171316Y-97468573D01*
X86188233Y-97470239D01*
X86360000Y-97487157D01*
X86548683Y-97468573D01*
X86730115Y-97413537D01*
X86897324Y-97324162D01*
X87043883Y-97203883D01*
X87164162Y-97057324D01*
X87253537Y-96890115D01*
X87308573Y-96708683D01*
X87327157Y-96520000D01*
X94282843Y-96520000D01*
X94301426Y-96708681D01*
X94319772Y-96769160D01*
X94356463Y-96890115D01*
X94356464Y-96890118D01*
X94356465Y-96890119D01*
X94356466Y-96890122D01*
X94445834Y-97057318D01*
X94445838Y-97057325D01*
X94566116Y-97203883D01*
X94712674Y-97324161D01*
X94712681Y-97324165D01*
X94879877Y-97413533D01*
X94879878Y-97413533D01*
X94879885Y-97413537D01*
X95061317Y-97468573D01*
X95061316Y-97468573D01*
X95078233Y-97470239D01*
X95250000Y-97487157D01*
X95438683Y-97468573D01*
X95620115Y-97413537D01*
X95787324Y-97324162D01*
X95933883Y-97203883D01*
X96054162Y-97057324D01*
X96143537Y-96890115D01*
X96198573Y-96708683D01*
X96217157Y-96520000D01*
X106982843Y-96520000D01*
X107001426Y-96708681D01*
X107019772Y-96769160D01*
X107056463Y-96890115D01*
X107056464Y-96890118D01*
X107056465Y-96890119D01*
X107056466Y-96890122D01*
X107145834Y-97057318D01*
X107145838Y-97057325D01*
X107266116Y-97203883D01*
X107412674Y-97324161D01*
X107412681Y-97324165D01*
X107579877Y-97413533D01*
X107579878Y-97413533D01*
X107579885Y-97413537D01*
X107761317Y-97468573D01*
X107761316Y-97468573D01*
X107778233Y-97470239D01*
X107950000Y-97487157D01*
X108138683Y-97468573D01*
X108320115Y-97413537D01*
X108487324Y-97324162D01*
X108633883Y-97203883D01*
X108754162Y-97057324D01*
X108843537Y-96890115D01*
X108898573Y-96708683D01*
X108917157Y-96520000D01*
X108898573Y-96331317D01*
X108843537Y-96149885D01*
X108832831Y-96129855D01*
X108754165Y-95982681D01*
X108754161Y-95982674D01*
X108633883Y-95836116D01*
X108487325Y-95715838D01*
X108487318Y-95715834D01*
X108320122Y-95626466D01*
X108320119Y-95626465D01*
X108320118Y-95626464D01*
X108320115Y-95626463D01*
X108138683Y-95571427D01*
X108138681Y-95571426D01*
X108138683Y-95571426D01*
X107950000Y-95552843D01*
X107761318Y-95571426D01*
X107654194Y-95603921D01*
X107579885Y-95626463D01*
X107579882Y-95626464D01*
X107579880Y-95626465D01*
X107579877Y-95626466D01*
X107412681Y-95715834D01*
X107412674Y-95715838D01*
X107266116Y-95836116D01*
X107145838Y-95982674D01*
X107145834Y-95982681D01*
X107056466Y-96149877D01*
X107056465Y-96149880D01*
X107001426Y-96331318D01*
X106982843Y-96520000D01*
X96217157Y-96520000D01*
X96198573Y-96331317D01*
X96143537Y-96149885D01*
X96132831Y-96129855D01*
X96054165Y-95982681D01*
X96054161Y-95982674D01*
X95933883Y-95836116D01*
X95787325Y-95715838D01*
X95787318Y-95715834D01*
X95620122Y-95626466D01*
X95620119Y-95626465D01*
X95620118Y-95626464D01*
X95620115Y-95626463D01*
X95438683Y-95571427D01*
X95438681Y-95571426D01*
X95438683Y-95571426D01*
X95250000Y-95552843D01*
X95061318Y-95571426D01*
X94954194Y-95603921D01*
X94879885Y-95626463D01*
X94879882Y-95626464D01*
X94879880Y-95626465D01*
X94879877Y-95626466D01*
X94712681Y-95715834D01*
X94712674Y-95715838D01*
X94566116Y-95836116D01*
X94445838Y-95982674D01*
X94445834Y-95982681D01*
X94356466Y-96149877D01*
X94356465Y-96149880D01*
X94301426Y-96331318D01*
X94282843Y-96520000D01*
X87327157Y-96520000D01*
X87308573Y-96331317D01*
X87253537Y-96149885D01*
X87242831Y-96129855D01*
X87164165Y-95982681D01*
X87164161Y-95982674D01*
X87043883Y-95836116D01*
X86897325Y-95715838D01*
X86897318Y-95715834D01*
X86730122Y-95626466D01*
X86730119Y-95626465D01*
X86730118Y-95626464D01*
X86730115Y-95626463D01*
X86548683Y-95571427D01*
X86548681Y-95571426D01*
X86548683Y-95571426D01*
X86360000Y-95552843D01*
X86171318Y-95571426D01*
X86064194Y-95603921D01*
X85989885Y-95626463D01*
X85989882Y-95626464D01*
X85989880Y-95626465D01*
X85989877Y-95626466D01*
X85822681Y-95715834D01*
X85822674Y-95715838D01*
X85676116Y-95836116D01*
X85555838Y-95982674D01*
X85555834Y-95982681D01*
X85466466Y-96149877D01*
X85466465Y-96149880D01*
X85411426Y-96331318D01*
X85392843Y-96520000D01*
X84787157Y-96520000D01*
X84768573Y-96331317D01*
X84713537Y-96149885D01*
X84702831Y-96129855D01*
X84624165Y-95982681D01*
X84624161Y-95982674D01*
X84503883Y-95836116D01*
X84357325Y-95715838D01*
X84357318Y-95715834D01*
X84190122Y-95626466D01*
X84190119Y-95626465D01*
X84190118Y-95626464D01*
X84190115Y-95626463D01*
X84008683Y-95571427D01*
X84008681Y-95571426D01*
X84008683Y-95571426D01*
X83820000Y-95552843D01*
X83631318Y-95571426D01*
X83524194Y-95603921D01*
X83449885Y-95626463D01*
X83449882Y-95626464D01*
X83449880Y-95626465D01*
X83449877Y-95626466D01*
X83282681Y-95715834D01*
X83282674Y-95715838D01*
X83136116Y-95836116D01*
X83015838Y-95982674D01*
X83015834Y-95982681D01*
X82926466Y-96149877D01*
X82926465Y-96149880D01*
X82871426Y-96331318D01*
X82852843Y-96520000D01*
X82247157Y-96520000D01*
X82228573Y-96331317D01*
X82173537Y-96149885D01*
X82162831Y-96129855D01*
X82084165Y-95982681D01*
X82084161Y-95982674D01*
X81963883Y-95836116D01*
X81817325Y-95715838D01*
X81817318Y-95715834D01*
X81650122Y-95626466D01*
X81650119Y-95626465D01*
X81650118Y-95626464D01*
X81650115Y-95626463D01*
X81468683Y-95571427D01*
X81468681Y-95571426D01*
X81468683Y-95571426D01*
X81280000Y-95552843D01*
X81091318Y-95571426D01*
X80984194Y-95603921D01*
X80909885Y-95626463D01*
X80909882Y-95626464D01*
X80909880Y-95626465D01*
X80909877Y-95626466D01*
X80742681Y-95715834D01*
X80742674Y-95715838D01*
X80596116Y-95836116D01*
X80475838Y-95982674D01*
X80475834Y-95982681D01*
X80386466Y-96149877D01*
X80386465Y-96149880D01*
X80331426Y-96331318D01*
X80312843Y-96520000D01*
X79707157Y-96520000D01*
X79688573Y-96331317D01*
X79648653Y-96199719D01*
X79648031Y-96129855D01*
X79679632Y-96076048D01*
X82595863Y-93159819D01*
X82657186Y-93126334D01*
X82683544Y-93123500D01*
X94445603Y-93123500D01*
X94512642Y-93143185D01*
X94558397Y-93195989D01*
X94568341Y-93265147D01*
X94541456Y-93326165D01*
X94445838Y-93442674D01*
X94445834Y-93442681D01*
X94356466Y-93609877D01*
X94356465Y-93609880D01*
X94301426Y-93791318D01*
X94282843Y-93980000D01*
X94301426Y-94168681D01*
X94301427Y-94168683D01*
X94356463Y-94350115D01*
X94356464Y-94350118D01*
X94356465Y-94350119D01*
X94356466Y-94350122D01*
X94445834Y-94517318D01*
X94445838Y-94517325D01*
X94566116Y-94663883D01*
X94712674Y-94784161D01*
X94712681Y-94784165D01*
X94879877Y-94873533D01*
X94879878Y-94873533D01*
X94879885Y-94873537D01*
X95061317Y-94928573D01*
X95061316Y-94928573D01*
X95078233Y-94930239D01*
X95250000Y-94947157D01*
X95438683Y-94928573D01*
X95620115Y-94873537D01*
X95787324Y-94784162D01*
X95933883Y-94663883D01*
X96054162Y-94517324D01*
X96143537Y-94350115D01*
X96198573Y-94168683D01*
X96217157Y-93980000D01*
X106982843Y-93980000D01*
X107001426Y-94168681D01*
X107001427Y-94168683D01*
X107056463Y-94350115D01*
X107056464Y-94350118D01*
X107056465Y-94350119D01*
X107056466Y-94350122D01*
X107145834Y-94517318D01*
X107145838Y-94517325D01*
X107266116Y-94663883D01*
X107412674Y-94784161D01*
X107412681Y-94784165D01*
X107579877Y-94873533D01*
X107579878Y-94873533D01*
X107579885Y-94873537D01*
X107761317Y-94928573D01*
X107761316Y-94928573D01*
X107778233Y-94930239D01*
X107950000Y-94947157D01*
X108138683Y-94928573D01*
X108320115Y-94873537D01*
X108487324Y-94784162D01*
X108633883Y-94663883D01*
X108754162Y-94517324D01*
X108843537Y-94350115D01*
X108898573Y-94168683D01*
X108917157Y-93980000D01*
X108898573Y-93791317D01*
X108843537Y-93609885D01*
X108840074Y-93603406D01*
X108754165Y-93442681D01*
X108754161Y-93442674D01*
X108633883Y-93296116D01*
X108487325Y-93175838D01*
X108487318Y-93175834D01*
X108320122Y-93086466D01*
X108320119Y-93086465D01*
X108320118Y-93086464D01*
X108320115Y-93086463D01*
X108138683Y-93031427D01*
X108138681Y-93031426D01*
X108138683Y-93031426D01*
X107950000Y-93012843D01*
X107761318Y-93031426D01*
X107654194Y-93063921D01*
X107579885Y-93086463D01*
X107579882Y-93086464D01*
X107579880Y-93086465D01*
X107579877Y-93086466D01*
X107412681Y-93175834D01*
X107412674Y-93175838D01*
X107266116Y-93296116D01*
X107145838Y-93442674D01*
X107145834Y-93442681D01*
X107056466Y-93609877D01*
X107056465Y-93609880D01*
X107001426Y-93791318D01*
X106982843Y-93980000D01*
X96217157Y-93980000D01*
X96198573Y-93791317D01*
X96143537Y-93609885D01*
X96140074Y-93603406D01*
X96054165Y-93442681D01*
X96054161Y-93442674D01*
X95958544Y-93326165D01*
X95931231Y-93261855D01*
X95943022Y-93192987D01*
X95990174Y-93141427D01*
X96054397Y-93123500D01*
X106663142Y-93123500D01*
X106663144Y-93123500D01*
X106752288Y-93099614D01*
X106775066Y-93086463D01*
X106832212Y-93053470D01*
X107506048Y-92379632D01*
X107567369Y-92346149D01*
X107629719Y-92348653D01*
X107761317Y-92388573D01*
X107761316Y-92388573D01*
X107778233Y-92390239D01*
X107950000Y-92407157D01*
X108138683Y-92388573D01*
X108320115Y-92333537D01*
X108487324Y-92244162D01*
X108633883Y-92123883D01*
X108754162Y-91977324D01*
X108843537Y-91810115D01*
X108898573Y-91628683D01*
X108917157Y-91440000D01*
X108898573Y-91251317D01*
X108843537Y-91069885D01*
X108843533Y-91069877D01*
X108754165Y-90902681D01*
X108754161Y-90902674D01*
X108633883Y-90756116D01*
X108487325Y-90635838D01*
X108487318Y-90635834D01*
X108320122Y-90546466D01*
X108320119Y-90546465D01*
X108320118Y-90546464D01*
X108320115Y-90546463D01*
X108138683Y-90491427D01*
X108138681Y-90491426D01*
X108138683Y-90491426D01*
X107950000Y-90472843D01*
X107761318Y-90491426D01*
X107654194Y-90523921D01*
X107579885Y-90546463D01*
X107579882Y-90546464D01*
X107579880Y-90546465D01*
X107579877Y-90546466D01*
X107412681Y-90635834D01*
X107412674Y-90635838D01*
X107266116Y-90756116D01*
X107145838Y-90902674D01*
X107145834Y-90902681D01*
X107056466Y-91069877D01*
X107056465Y-91069880D01*
X107001426Y-91251318D01*
X106982843Y-91440000D01*
X107001426Y-91628683D01*
X107041344Y-91760277D01*
X107041967Y-91830144D01*
X107010364Y-91883952D01*
X106508137Y-92386181D01*
X106446814Y-92419666D01*
X106420456Y-92422500D01*
X95916575Y-92422500D01*
X95849536Y-92402815D01*
X95803781Y-92350011D01*
X95793837Y-92280853D01*
X95822862Y-92217297D01*
X95837910Y-92202647D01*
X95933883Y-92123883D01*
X96054161Y-91977325D01*
X96054165Y-91977318D01*
X96132831Y-91830144D01*
X96143537Y-91810115D01*
X96198573Y-91628683D01*
X96217157Y-91440000D01*
X96198573Y-91251317D01*
X96143537Y-91069885D01*
X96143533Y-91069877D01*
X96054165Y-90902681D01*
X96054161Y-90902674D01*
X95933883Y-90756116D01*
X95787325Y-90635838D01*
X95787318Y-90635834D01*
X95712528Y-90595858D01*
X95662684Y-90546896D01*
X95647223Y-90478758D01*
X95671054Y-90413079D01*
X95726612Y-90370710D01*
X95770981Y-90362500D01*
X96694942Y-90362500D01*
X96694944Y-90362500D01*
X96784088Y-90338614D01*
X96799841Y-90329519D01*
X96799842Y-90329519D01*
X96864005Y-90292474D01*
X96864004Y-90292474D01*
X96864012Y-90292470D01*
X97383562Y-89772918D01*
X97444885Y-89739434D01*
X97471243Y-89736600D01*
X97902460Y-89736600D01*
X97932049Y-89733825D01*
X98056675Y-89690216D01*
X98162911Y-89611811D01*
X98241316Y-89505575D01*
X98284925Y-89380949D01*
X98287165Y-89357060D01*
X98287700Y-89351360D01*
X98287700Y-88900000D01*
X106982843Y-88900000D01*
X107001426Y-89088681D01*
X107001427Y-89088683D01*
X107056463Y-89270115D01*
X107056464Y-89270118D01*
X107056465Y-89270119D01*
X107056466Y-89270122D01*
X107145834Y-89437318D01*
X107145838Y-89437325D01*
X107266116Y-89583883D01*
X107412674Y-89704161D01*
X107412681Y-89704165D01*
X107579877Y-89793533D01*
X107579878Y-89793533D01*
X107579885Y-89793537D01*
X107761317Y-89848573D01*
X107761316Y-89848573D01*
X107778233Y-89850239D01*
X107950000Y-89867157D01*
X108138683Y-89848573D01*
X108320115Y-89793537D01*
X108487324Y-89704162D01*
X108633883Y-89583883D01*
X108754162Y-89437324D01*
X108843537Y-89270115D01*
X108898573Y-89088683D01*
X108917157Y-88900000D01*
X108898573Y-88711317D01*
X108843537Y-88529885D01*
X108842758Y-88528428D01*
X108754165Y-88362681D01*
X108754161Y-88362674D01*
X108633883Y-88216116D01*
X108487325Y-88095838D01*
X108487318Y-88095834D01*
X108320122Y-88006466D01*
X108320119Y-88006465D01*
X108320118Y-88006464D01*
X108320115Y-88006463D01*
X108138683Y-87951427D01*
X108138681Y-87951426D01*
X108138683Y-87951426D01*
X107950000Y-87932843D01*
X107761318Y-87951426D01*
X107654194Y-87983921D01*
X107579885Y-88006463D01*
X107579882Y-88006464D01*
X107579880Y-88006465D01*
X107579877Y-88006466D01*
X107412681Y-88095834D01*
X107412674Y-88095838D01*
X107266116Y-88216116D01*
X107145838Y-88362674D01*
X107145834Y-88362681D01*
X107056466Y-88529877D01*
X107056465Y-88529880D01*
X107001426Y-88711318D01*
X106982843Y-88900000D01*
X98287700Y-88900000D01*
X98287700Y-88745839D01*
X98284925Y-88716250D01*
X98245576Y-88603800D01*
X98241316Y-88591625D01*
X98235773Y-88584115D01*
X98162911Y-88485389D01*
X98162910Y-88485388D01*
X98056676Y-88406984D01*
X97932048Y-88363374D01*
X97932049Y-88363374D01*
X97902460Y-88360600D01*
X97902456Y-88360600D01*
X97321944Y-88360600D01*
X97321940Y-88360600D01*
X97292350Y-88363374D01*
X97167723Y-88406984D01*
X97061489Y-88485388D01*
X97061488Y-88485389D01*
X96983084Y-88591623D01*
X96939474Y-88716250D01*
X96936700Y-88745839D01*
X96936700Y-89177056D01*
X96917015Y-89244095D01*
X96900381Y-89264737D01*
X96539937Y-89625181D01*
X96478614Y-89658666D01*
X96452256Y-89661500D01*
X96132362Y-89661500D01*
X96065323Y-89641815D01*
X96019568Y-89589011D01*
X96009624Y-89519853D01*
X96036508Y-89458836D01*
X96044554Y-89449031D01*
X96054162Y-89437324D01*
X96143537Y-89270115D01*
X96198573Y-89088683D01*
X96217157Y-88900000D01*
X96198573Y-88711317D01*
X96143537Y-88529885D01*
X96142758Y-88528428D01*
X96054165Y-88362681D01*
X96054161Y-88362674D01*
X95933883Y-88216116D01*
X95787325Y-88095838D01*
X95787318Y-88095834D01*
X95620122Y-88006466D01*
X95620119Y-88006465D01*
X95620118Y-88006464D01*
X95620115Y-88006463D01*
X95438683Y-87951427D01*
X95438681Y-87951426D01*
X95438683Y-87951426D01*
X95250000Y-87932843D01*
X95061318Y-87951426D01*
X94954194Y-87983921D01*
X94879885Y-88006463D01*
X94879882Y-88006464D01*
X94879880Y-88006465D01*
X94879877Y-88006466D01*
X94712681Y-88095834D01*
X94712674Y-88095838D01*
X94566116Y-88216116D01*
X94445838Y-88362674D01*
X94445834Y-88362681D01*
X94356466Y-88529877D01*
X94356465Y-88529880D01*
X94301426Y-88711318D01*
X94282843Y-88900000D01*
X94301426Y-89088681D01*
X94301427Y-89088683D01*
X94356463Y-89270115D01*
X94356464Y-89270118D01*
X94356465Y-89270119D01*
X94356466Y-89270122D01*
X94445834Y-89437318D01*
X94445838Y-89437324D01*
X94463492Y-89458836D01*
X94490804Y-89523146D01*
X94479013Y-89592013D01*
X94431860Y-89643573D01*
X94367638Y-89661500D01*
X92242112Y-89661500D01*
X92175073Y-89641815D01*
X92129318Y-89589011D01*
X92119374Y-89519853D01*
X92125071Y-89496545D01*
X92163525Y-89386651D01*
X92163525Y-89386649D01*
X92166300Y-89357060D01*
X92166300Y-88751539D01*
X92163525Y-88721950D01*
X92130517Y-88627622D01*
X92119916Y-88597325D01*
X92115709Y-88591625D01*
X92041511Y-88491089D01*
X92041510Y-88491088D01*
X91935276Y-88412684D01*
X91810648Y-88369074D01*
X91810649Y-88369074D01*
X91781060Y-88366300D01*
X91781056Y-88366300D01*
X91200544Y-88366300D01*
X91200540Y-88366300D01*
X91170950Y-88369074D01*
X91046323Y-88412684D01*
X90940089Y-88491088D01*
X90940088Y-88491089D01*
X90894077Y-88553433D01*
X90838430Y-88595684D01*
X90794307Y-88603800D01*
X83577265Y-88603800D01*
X83510226Y-88584115D01*
X83489584Y-88567481D01*
X82217016Y-87294913D01*
X82217014Y-87294911D01*
X82145348Y-87253534D01*
X82114285Y-87235599D01*
X82082628Y-87227118D01*
X82041168Y-87216009D01*
X81999709Y-87204900D01*
X81999708Y-87204900D01*
X79867219Y-87204900D01*
X79800180Y-87185215D01*
X79791733Y-87179276D01*
X79728642Y-87130864D01*
X79582562Y-87070356D01*
X79582560Y-87070355D01*
X79425801Y-87049718D01*
X79425799Y-87049718D01*
X79269039Y-87070355D01*
X79269037Y-87070356D01*
X79122960Y-87130863D01*
X78997518Y-87227118D01*
X78901263Y-87352560D01*
X78840756Y-87498637D01*
X78840755Y-87498639D01*
X78820118Y-87655398D01*
X78820118Y-87655401D01*
X78840755Y-87812160D01*
X78840756Y-87812162D01*
X78898441Y-87951427D01*
X78901264Y-87958241D01*
X78997518Y-88083682D01*
X79122959Y-88179936D01*
X79269038Y-88240444D01*
X79347419Y-88250763D01*
X79425799Y-88261082D01*
X79425800Y-88261082D01*
X79425801Y-88261082D01*
X79478054Y-88254202D01*
X79582562Y-88240444D01*
X79728641Y-88179936D01*
X79791733Y-88131523D01*
X79856902Y-88106330D01*
X79867219Y-88105900D01*
X81702435Y-88105900D01*
X81769474Y-88125585D01*
X81790116Y-88142219D01*
X83062686Y-89414789D01*
X83089227Y-89430112D01*
X83137443Y-89480679D01*
X83150667Y-89549286D01*
X83124699Y-89614151D01*
X83067786Y-89654680D01*
X83027228Y-89661500D01*
X78456626Y-89661500D01*
X78389587Y-89641815D01*
X78368945Y-89625182D01*
X78327646Y-89583883D01*
X78252073Y-89508310D01*
X78099199Y-89397240D01*
X77930836Y-89311454D01*
X77751118Y-89253059D01*
X77564486Y-89223500D01*
X77564481Y-89223500D01*
X74835519Y-89223500D01*
X74835514Y-89223500D01*
X74648885Y-89253059D01*
X74648880Y-89253060D01*
X74612346Y-89264931D01*
X74574029Y-89271000D01*
X73910247Y-89271000D01*
X73851770Y-89282631D01*
X73851769Y-89282632D01*
X73785447Y-89326947D01*
X73741132Y-89393269D01*
X73741131Y-89393270D01*
X73729500Y-89451747D01*
X73729500Y-91040468D01*
X73709815Y-91107507D01*
X73657011Y-91153262D01*
X73587853Y-91163206D01*
X73524297Y-91134181D01*
X73517819Y-91128149D01*
X71821172Y-89431502D01*
X71821144Y-89431472D01*
X71660429Y-89270757D01*
X71660422Y-89270751D01*
X71483582Y-89135058D01*
X71483580Y-89135057D01*
X71483574Y-89135052D01*
X71290526Y-89023595D01*
X71290522Y-89023593D01*
X71084590Y-88938293D01*
X71084583Y-88938291D01*
X71084581Y-88938290D01*
X70869263Y-88880596D01*
X70869252Y-88880594D01*
X70869244Y-88880593D01*
X70867873Y-88880412D01*
X70867873Y-88880413D01*
X70648263Y-88851499D01*
X70648256Y-88851499D01*
X70425344Y-88851499D01*
X70421504Y-88851499D01*
X70421472Y-88851500D01*
X65963827Y-88851500D01*
X65963821Y-88851500D01*
X65963817Y-88851501D01*
X65742831Y-88880594D01*
X65742824Y-88880595D01*
X65742821Y-88880596D01*
X65670404Y-88900000D01*
X65527503Y-88938290D01*
X65527493Y-88938293D01*
X65321561Y-89023593D01*
X65321557Y-89023595D01*
X65128510Y-89135052D01*
X65128501Y-89135058D01*
X64951662Y-89270750D01*
X64910960Y-89311453D01*
X64794037Y-89428376D01*
X64794033Y-89428380D01*
X64337914Y-89884500D01*
X63884233Y-90338181D01*
X63822910Y-90371666D01*
X63796552Y-90374500D01*
X54090328Y-90374500D01*
X54090296Y-90374499D01*
X54086456Y-90374499D01*
X53863544Y-90374499D01*
X53863536Y-90374499D01*
X53667093Y-90400363D01*
X53642537Y-90403596D01*
X53440707Y-90457676D01*
X53427219Y-90461290D01*
X53427209Y-90461293D01*
X53221277Y-90546593D01*
X53221273Y-90546595D01*
X53028226Y-90658052D01*
X53028217Y-90658058D01*
X52851378Y-90793750D01*
X52772566Y-90872563D01*
X52693753Y-90951376D01*
X52693749Y-90951380D01*
X51883606Y-91761522D01*
X51822283Y-91795007D01*
X51779740Y-91796780D01*
X51686465Y-91784500D01*
X51686462Y-91784499D01*
X51686456Y-91784499D01*
X51463544Y-91784499D01*
X51459704Y-91784499D01*
X51459672Y-91784500D01*
X46488732Y-91784500D01*
X46421693Y-91764815D01*
X46401051Y-91748181D01*
X42405742Y-87752872D01*
X56269500Y-87752872D01*
X56269500Y-88015127D01*
X56281508Y-88106330D01*
X56303730Y-88275116D01*
X56361600Y-88491089D01*
X56371602Y-88528418D01*
X56371605Y-88528428D01*
X56471953Y-88770690D01*
X56471958Y-88770700D01*
X56603075Y-88997803D01*
X56762718Y-89205851D01*
X56762726Y-89205860D01*
X56948140Y-89391274D01*
X56948148Y-89391281D01*
X56948149Y-89391282D01*
X56950740Y-89393270D01*
X57156196Y-89550924D01*
X57383299Y-89682041D01*
X57383309Y-89682046D01*
X57625571Y-89782394D01*
X57625581Y-89782398D01*
X57878884Y-89850270D01*
X58138880Y-89884500D01*
X58138887Y-89884500D01*
X58401113Y-89884500D01*
X58401120Y-89884500D01*
X58661116Y-89850270D01*
X58914419Y-89782398D01*
X59156697Y-89682043D01*
X59383803Y-89550924D01*
X59591851Y-89391282D01*
X59591855Y-89391277D01*
X59591860Y-89391274D01*
X59777274Y-89205860D01*
X59777277Y-89205855D01*
X59777282Y-89205851D01*
X59936924Y-88997803D01*
X60068043Y-88770697D01*
X60075977Y-88751544D01*
X60158037Y-88553433D01*
X60168398Y-88528419D01*
X60236270Y-88275116D01*
X60270500Y-88015120D01*
X60270500Y-87752880D01*
X60236270Y-87492884D01*
X60168398Y-87239581D01*
X60168394Y-87239571D01*
X60068046Y-86997309D01*
X60068041Y-86997299D01*
X59936924Y-86770196D01*
X59792502Y-86581984D01*
X59777282Y-86562149D01*
X59777281Y-86562148D01*
X59777274Y-86562140D01*
X59591860Y-86376726D01*
X59591851Y-86376718D01*
X59383803Y-86217075D01*
X59156700Y-86085958D01*
X59156690Y-86085953D01*
X58914428Y-85985605D01*
X58914421Y-85985603D01*
X58914419Y-85985602D01*
X58661116Y-85917730D01*
X58603339Y-85910123D01*
X58401127Y-85883500D01*
X58401120Y-85883500D01*
X58138880Y-85883500D01*
X58138872Y-85883500D01*
X57907772Y-85913926D01*
X57878884Y-85917730D01*
X57671870Y-85973199D01*
X57625581Y-85985602D01*
X57625571Y-85985605D01*
X57383309Y-86085953D01*
X57383299Y-86085958D01*
X57156196Y-86217075D01*
X56948148Y-86376718D01*
X56762718Y-86562148D01*
X56603075Y-86770196D01*
X56471958Y-86997299D01*
X56471953Y-86997309D01*
X56371605Y-87239571D01*
X56371602Y-87239581D01*
X56303730Y-87492884D01*
X56302972Y-87498639D01*
X56269500Y-87752872D01*
X42405742Y-87752872D01*
X41532634Y-86879764D01*
X41499149Y-86818441D01*
X41504133Y-86748749D01*
X41511483Y-86732655D01*
X41530769Y-86697337D01*
X41628271Y-86435923D01*
X41679058Y-86202458D01*
X41687577Y-86163299D01*
X41687577Y-86163298D01*
X41687578Y-86163294D01*
X41707482Y-85885000D01*
X41687578Y-85606706D01*
X41676511Y-85555834D01*
X41649834Y-85433199D01*
X41628271Y-85334077D01*
X41530769Y-85072663D01*
X41525423Y-85062873D01*
X41397059Y-84827792D01*
X41397054Y-84827784D01*
X41229861Y-84604439D01*
X41229845Y-84604421D01*
X41032578Y-84407154D01*
X41032560Y-84407138D01*
X40809215Y-84239945D01*
X40809207Y-84239940D01*
X40564342Y-84106233D01*
X40564338Y-84106231D01*
X40465230Y-84069266D01*
X40302923Y-84008729D01*
X40302919Y-84008728D01*
X40302916Y-84008727D01*
X40030299Y-83949422D01*
X39752001Y-83929518D01*
X39751999Y-83929518D01*
X39473700Y-83949422D01*
X39201083Y-84008727D01*
X39201078Y-84008728D01*
X39201077Y-84008729D01*
X39137875Y-84032301D01*
X38939661Y-84106231D01*
X38939657Y-84106233D01*
X38694792Y-84239940D01*
X38694784Y-84239945D01*
X38471439Y-84407138D01*
X38471421Y-84407154D01*
X38274154Y-84604421D01*
X38274138Y-84604439D01*
X38106945Y-84827784D01*
X38106940Y-84827792D01*
X37973233Y-85072657D01*
X37973231Y-85072661D01*
X37875727Y-85334083D01*
X37816422Y-85606700D01*
X37796518Y-85884998D01*
X37796518Y-85885001D01*
X37816422Y-86163299D01*
X37862851Y-86376726D01*
X37875729Y-86435923D01*
X37973231Y-86697337D01*
X38036332Y-86812898D01*
X38051500Y-86872324D01*
X38051500Y-87388671D01*
X38051499Y-87388705D01*
X38051499Y-87615456D01*
X38073640Y-87783626D01*
X38073640Y-87783627D01*
X38080594Y-87836452D01*
X38080595Y-87836457D01*
X38080596Y-87836463D01*
X38126147Y-88006463D01*
X38138290Y-88051780D01*
X38138293Y-88051790D01*
X38223593Y-88257722D01*
X38223595Y-88257726D01*
X38335052Y-88450774D01*
X38335057Y-88450780D01*
X38335058Y-88450782D01*
X38470751Y-88627622D01*
X38470757Y-88627629D01*
X38631472Y-88788344D01*
X38631502Y-88788372D01*
X44449308Y-94606178D01*
X44449345Y-94606217D01*
X44609370Y-94766242D01*
X44609377Y-94766248D01*
X44778067Y-94895688D01*
X44786222Y-94901945D01*
X44786234Y-94901953D01*
X44979266Y-95013401D01*
X44979271Y-95013403D01*
X44979274Y-95013405D01*
X45185219Y-95098710D01*
X45400537Y-95156404D01*
X45621543Y-95185500D01*
X45844456Y-95185500D01*
X46901274Y-95185500D01*
X46968313Y-95205185D01*
X47014068Y-95257989D01*
X47024012Y-95327147D01*
X47008661Y-95371500D01*
X46924821Y-95516715D01*
X46924818Y-95516722D01*
X46875506Y-95668490D01*
X46866326Y-95696744D01*
X46846540Y-95885000D01*
X46866326Y-96073256D01*
X46866327Y-96073259D01*
X46924818Y-96253277D01*
X46924821Y-96253284D01*
X47019467Y-96417216D01*
X47146129Y-96557888D01*
X47299265Y-96669148D01*
X47299270Y-96669151D01*
X47472192Y-96746142D01*
X47472197Y-96746144D01*
X47657354Y-96785500D01*
X47657355Y-96785500D01*
X47846644Y-96785500D01*
X47846646Y-96785500D01*
X48031803Y-96746144D01*
X48204730Y-96669151D01*
X48357871Y-96557888D01*
X48484533Y-96417216D01*
X48579179Y-96253284D01*
X48637674Y-96073256D01*
X48657460Y-95885000D01*
X48637674Y-95696744D01*
X48579179Y-95516716D01*
X48495339Y-95371500D01*
X48478866Y-95303599D01*
X48501719Y-95237573D01*
X48556640Y-95194382D01*
X48602726Y-95185500D01*
X50245500Y-95185500D01*
X50312539Y-95205185D01*
X50358294Y-95257989D01*
X50369500Y-95309500D01*
X50369500Y-96631450D01*
X50369501Y-96631466D01*
X50398594Y-96852452D01*
X50398595Y-96852457D01*
X50398596Y-96852463D01*
X50456290Y-97067780D01*
X50456293Y-97067790D01*
X50512665Y-97203883D01*
X50541595Y-97273726D01*
X50653052Y-97466774D01*
X50653057Y-97466780D01*
X50653058Y-97466782D01*
X50788751Y-97643622D01*
X50788757Y-97643629D01*
X50946370Y-97801242D01*
X50946376Y-97801247D01*
X51123226Y-97936948D01*
X51316274Y-98048405D01*
X51316277Y-98048406D01*
X51316282Y-98048409D01*
X51342911Y-98059439D01*
X51397315Y-98103280D01*
X51419380Y-98169574D01*
X51402101Y-98237273D01*
X51350964Y-98284884D01*
X51295459Y-98298000D01*
X49530000Y-98298000D01*
X49530000Y-99444000D01*
X49510315Y-99511039D01*
X49457511Y-99556794D01*
X49406000Y-99568000D01*
X35176000Y-99568000D01*
X35108961Y-99548315D01*
X35063206Y-99495511D01*
X35052000Y-99444000D01*
X35052000Y-95885000D01*
X35846540Y-95885000D01*
X35866326Y-96073256D01*
X35866327Y-96073259D01*
X35924818Y-96253277D01*
X35924821Y-96253284D01*
X36019467Y-96417216D01*
X36146129Y-96557888D01*
X36299265Y-96669148D01*
X36299270Y-96669151D01*
X36472192Y-96746142D01*
X36472197Y-96746144D01*
X36657354Y-96785500D01*
X36657355Y-96785500D01*
X36846644Y-96785500D01*
X36846646Y-96785500D01*
X37031803Y-96746144D01*
X37204730Y-96669151D01*
X37357871Y-96557888D01*
X37484533Y-96417216D01*
X37579179Y-96253284D01*
X37637674Y-96073256D01*
X37657460Y-95885000D01*
X37637674Y-95696744D01*
X37579179Y-95516716D01*
X37484533Y-95352784D01*
X37357871Y-95212112D01*
X37281197Y-95156405D01*
X37204734Y-95100851D01*
X37204729Y-95100848D01*
X37031807Y-95023857D01*
X37031802Y-95023855D01*
X36886001Y-94992865D01*
X36846646Y-94984500D01*
X36657354Y-94984500D01*
X36624897Y-94991398D01*
X36472197Y-95023855D01*
X36472192Y-95023857D01*
X36299270Y-95100848D01*
X36299265Y-95100851D01*
X36146129Y-95212111D01*
X36019466Y-95352785D01*
X35924821Y-95516715D01*
X35924818Y-95516722D01*
X35875506Y-95668490D01*
X35866326Y-95696744D01*
X35846540Y-95885000D01*
X35052000Y-95885000D01*
X35052000Y-70379713D01*
X35477100Y-70379713D01*
X35477100Y-75253086D01*
X35506659Y-75439718D01*
X35565054Y-75619436D01*
X35650840Y-75787799D01*
X35761910Y-75940674D01*
X38156126Y-78334890D01*
X38309001Y-78445960D01*
X38477368Y-78531747D01*
X38657082Y-78590140D01*
X38727070Y-78601225D01*
X38843713Y-78619700D01*
X38843718Y-78619700D01*
X38843719Y-78619700D01*
X40904174Y-78619700D01*
X40971213Y-78639385D01*
X40991855Y-78656019D01*
X41372337Y-79036500D01*
X41745510Y-79409673D01*
X41879127Y-79543290D01*
X42032001Y-79654360D01*
X42095604Y-79686767D01*
X42200363Y-79740145D01*
X42200365Y-79740145D01*
X42200368Y-79740147D01*
X42296697Y-79771446D01*
X42380081Y-79798540D01*
X42566714Y-79828100D01*
X42566719Y-79828100D01*
X45200867Y-79828100D01*
X45267906Y-79847785D01*
X45288549Y-79864420D01*
X45332971Y-79908843D01*
X45332976Y-79908847D01*
X45509826Y-80044548D01*
X45702874Y-80156005D01*
X45908819Y-80241310D01*
X46124137Y-80299004D01*
X46345143Y-80328100D01*
X50245500Y-80328100D01*
X50312539Y-80347785D01*
X50358294Y-80400589D01*
X50369500Y-80452100D01*
X50369500Y-81164671D01*
X50369499Y-81164705D01*
X50369499Y-81391456D01*
X50389183Y-81540963D01*
X50389183Y-81540964D01*
X50398594Y-81612452D01*
X50398595Y-81612457D01*
X50398596Y-81612463D01*
X50456290Y-81827780D01*
X50456293Y-81827790D01*
X50541593Y-82033722D01*
X50541595Y-82033726D01*
X50653052Y-82226774D01*
X50653057Y-82226780D01*
X50653058Y-82226782D01*
X50788751Y-82403622D01*
X50788757Y-82403629D01*
X50946370Y-82561242D01*
X50946377Y-82561248D01*
X50981663Y-82588324D01*
X51022866Y-82644752D01*
X51027021Y-82714498D01*
X50992809Y-82775418D01*
X50931092Y-82808171D01*
X50906177Y-82810700D01*
X43870165Y-82810700D01*
X43803126Y-82791015D01*
X43782484Y-82774381D01*
X41591387Y-80583284D01*
X41557902Y-80521961D01*
X41559802Y-80461668D01*
X41594397Y-80340083D01*
X41613215Y-80137000D01*
X41594397Y-79933917D01*
X41538582Y-79737750D01*
X41531704Y-79723938D01*
X41494272Y-79648764D01*
X41447673Y-79555179D01*
X41324764Y-79392421D01*
X41324762Y-79392418D01*
X41174041Y-79255019D01*
X41174039Y-79255017D01*
X41000642Y-79147655D01*
X41000635Y-79147651D01*
X40905546Y-79110814D01*
X40810456Y-79073976D01*
X40609976Y-79036500D01*
X40406024Y-79036500D01*
X40205544Y-79073976D01*
X40205541Y-79073976D01*
X40205541Y-79073977D01*
X40015364Y-79147651D01*
X40015357Y-79147655D01*
X39841960Y-79255017D01*
X39841958Y-79255019D01*
X39691237Y-79392418D01*
X39568327Y-79555178D01*
X39477422Y-79737739D01*
X39477417Y-79737752D01*
X39421602Y-79933917D01*
X39402785Y-80136999D01*
X39402785Y-80137000D01*
X39421602Y-80340082D01*
X39477417Y-80536247D01*
X39477422Y-80536260D01*
X39568327Y-80718821D01*
X39691237Y-80881581D01*
X39841958Y-81018980D01*
X39841960Y-81018982D01*
X39854259Y-81026597D01*
X40015363Y-81126348D01*
X40205544Y-81200024D01*
X40406024Y-81237500D01*
X40406026Y-81237500D01*
X40609974Y-81237500D01*
X40609976Y-81237500D01*
X40810456Y-81200024D01*
X40824101Y-81194737D01*
X40893720Y-81188872D01*
X40955462Y-81221579D01*
X40956578Y-81222681D01*
X43355586Y-83621689D01*
X43458313Y-83680999D01*
X43472165Y-83684710D01*
X43472169Y-83684713D01*
X43472170Y-83684712D01*
X43489969Y-83689481D01*
X43572891Y-83711700D01*
X63261781Y-83711700D01*
X63328820Y-83731385D01*
X63337267Y-83737324D01*
X63400357Y-83785735D01*
X63400358Y-83785735D01*
X63400359Y-83785736D01*
X63546438Y-83846244D01*
X63624819Y-83856563D01*
X63703199Y-83866882D01*
X63703200Y-83866882D01*
X63703201Y-83866882D01*
X63759675Y-83859447D01*
X63859962Y-83846244D01*
X64006041Y-83785736D01*
X64131482Y-83689482D01*
X64227736Y-83564041D01*
X64288244Y-83417962D01*
X64308882Y-83261200D01*
X64288244Y-83104438D01*
X64227736Y-82958359D01*
X64131482Y-82832918D01*
X64006041Y-82736664D01*
X63981418Y-82726465D01*
X63859962Y-82676156D01*
X63859960Y-82676155D01*
X63703201Y-82655518D01*
X63703199Y-82655518D01*
X63546439Y-82676155D01*
X63546437Y-82676156D01*
X63400357Y-82736664D01*
X63337267Y-82785076D01*
X63272098Y-82810270D01*
X63261781Y-82810700D01*
X53233823Y-82810700D01*
X53166784Y-82791015D01*
X53121029Y-82738211D01*
X53111085Y-82669053D01*
X53140110Y-82605497D01*
X53158337Y-82588324D01*
X53174554Y-82575879D01*
X53193624Y-82561247D01*
X53351247Y-82403624D01*
X53356611Y-82398260D01*
X53356626Y-82398242D01*
X55728242Y-80026626D01*
X55728260Y-80026611D01*
X55891240Y-79863631D01*
X55891247Y-79863624D01*
X55959097Y-79775199D01*
X56026948Y-79686775D01*
X56138405Y-79493726D01*
X56187584Y-79374996D01*
X56684415Y-79374996D01*
X56684415Y-79375003D01*
X56704738Y-79723927D01*
X56704739Y-79723938D01*
X56765428Y-80068127D01*
X56765430Y-80068134D01*
X56865674Y-80402972D01*
X57004107Y-80723895D01*
X57004113Y-80723908D01*
X57178870Y-81026597D01*
X57387584Y-81306949D01*
X57387589Y-81306955D01*
X57471478Y-81395871D01*
X57627442Y-81561183D01*
X57799203Y-81705307D01*
X57895186Y-81785847D01*
X57895194Y-81785853D01*
X58187203Y-81977911D01*
X58187207Y-81977913D01*
X58499549Y-82134777D01*
X58827989Y-82254319D01*
X59168086Y-82334923D01*
X59515241Y-82375500D01*
X59515248Y-82375500D01*
X59864752Y-82375500D01*
X59864759Y-82375500D01*
X60211914Y-82334923D01*
X60552011Y-82254319D01*
X60880451Y-82134777D01*
X61192793Y-81977913D01*
X61311477Y-81899853D01*
X61484805Y-81785853D01*
X61484805Y-81785852D01*
X61484811Y-81785849D01*
X61752558Y-81561183D01*
X61992412Y-81306953D01*
X62201130Y-81026596D01*
X62375889Y-80723904D01*
X62514326Y-80402971D01*
X62614569Y-80068136D01*
X62618729Y-80044548D01*
X62675260Y-79723938D01*
X62675259Y-79723938D01*
X62675262Y-79723927D01*
X62692561Y-79426902D01*
X62695585Y-79375003D01*
X62695585Y-79374996D01*
X62682343Y-79147651D01*
X62675262Y-79026073D01*
X62675260Y-79026061D01*
X62614571Y-78681872D01*
X62614569Y-78681865D01*
X62614569Y-78681864D01*
X62514326Y-78347029D01*
X62375889Y-78026096D01*
X62302022Y-77898155D01*
X62201129Y-77723402D01*
X61992415Y-77443050D01*
X61992410Y-77443044D01*
X61876433Y-77320117D01*
X61752558Y-77188817D01*
X61563360Y-77030061D01*
X61484813Y-76964152D01*
X61484805Y-76964146D01*
X61192796Y-76772088D01*
X60880458Y-76615226D01*
X60880452Y-76615223D01*
X60552012Y-76495681D01*
X60552009Y-76495680D01*
X60211915Y-76415077D01*
X60168519Y-76410004D01*
X59864759Y-76374500D01*
X59515241Y-76374500D01*
X59211480Y-76410004D01*
X59168085Y-76415077D01*
X59168083Y-76415077D01*
X58827990Y-76495680D01*
X58827987Y-76495681D01*
X58499547Y-76615223D01*
X58499541Y-76615226D01*
X58187203Y-76772088D01*
X57895194Y-76964146D01*
X57895186Y-76964152D01*
X57627442Y-77188817D01*
X57627440Y-77188819D01*
X57387589Y-77443044D01*
X57387584Y-77443050D01*
X57178870Y-77723402D01*
X57004113Y-78026091D01*
X57004107Y-78026104D01*
X56865674Y-78347027D01*
X56765430Y-78681865D01*
X56765428Y-78681872D01*
X56704739Y-79026061D01*
X56704738Y-79026072D01*
X56684415Y-79374996D01*
X56187584Y-79374996D01*
X56223710Y-79287781D01*
X56281404Y-79072464D01*
X56310500Y-78851457D01*
X56310500Y-78628544D01*
X56297756Y-78531747D01*
X56281404Y-78407537D01*
X56223710Y-78192219D01*
X56138405Y-77986274D01*
X56026948Y-77793226D01*
X55973372Y-77723404D01*
X55891248Y-77616377D01*
X55891242Y-77616370D01*
X55733629Y-77458757D01*
X55733622Y-77458751D01*
X55556782Y-77323058D01*
X55556780Y-77323057D01*
X55556774Y-77323052D01*
X55363726Y-77211595D01*
X55363722Y-77211593D01*
X55157790Y-77126293D01*
X55157783Y-77126291D01*
X55157781Y-77126290D01*
X54942463Y-77068596D01*
X54942457Y-77068595D01*
X54942452Y-77068594D01*
X54721466Y-77039501D01*
X54721463Y-77039500D01*
X54721457Y-77039500D01*
X54721450Y-77039500D01*
X52591874Y-77039500D01*
X52544422Y-77030061D01*
X52517897Y-77019074D01*
X52505384Y-77013891D01*
X52505382Y-77013890D01*
X52505381Y-77013890D01*
X52290063Y-76956196D01*
X52240950Y-76949730D01*
X52069063Y-76927099D01*
X52069056Y-76927099D01*
X51846144Y-76927099D01*
X51842304Y-76927099D01*
X51842272Y-76927100D01*
X46345143Y-76927100D01*
X46345137Y-76927100D01*
X46345133Y-76927101D01*
X46124147Y-76956194D01*
X46124140Y-76956195D01*
X46124137Y-76956196D01*
X46094445Y-76964152D01*
X45908819Y-77013890D01*
X45908809Y-77013893D01*
X45702877Y-77099193D01*
X45702873Y-77099195D01*
X45509826Y-77210652D01*
X45509817Y-77210658D01*
X45332977Y-77346351D01*
X45332971Y-77346356D01*
X45288549Y-77390780D01*
X45227226Y-77424266D01*
X45200867Y-77427100D01*
X43209825Y-77427100D01*
X43142786Y-77407415D01*
X43122144Y-77390781D01*
X42695515Y-76964152D01*
X42234874Y-76503510D01*
X42081999Y-76392440D01*
X42046790Y-76374500D01*
X41913636Y-76306654D01*
X41733918Y-76248259D01*
X41547286Y-76218700D01*
X41547281Y-76218700D01*
X39486826Y-76218700D01*
X39419787Y-76199015D01*
X39399145Y-76182381D01*
X37914419Y-74697655D01*
X37880934Y-74636332D01*
X37878100Y-74609974D01*
X37878100Y-72870730D01*
X38626300Y-72870730D01*
X38626300Y-73077669D01*
X38666668Y-73280612D01*
X38666670Y-73280620D01*
X38734137Y-73443500D01*
X38745859Y-73471798D01*
X38746393Y-73472597D01*
X38860824Y-73643857D01*
X39007142Y-73790175D01*
X39007145Y-73790177D01*
X39179202Y-73905141D01*
X39370380Y-73984330D01*
X39551597Y-74020376D01*
X39573330Y-74024699D01*
X39573334Y-74024700D01*
X39573335Y-74024700D01*
X40030266Y-74024700D01*
X40030267Y-74024699D01*
X40233220Y-73984330D01*
X40424398Y-73905141D01*
X40596455Y-73790177D01*
X40742777Y-73643855D01*
X40857741Y-73471798D01*
X40869463Y-73443500D01*
X40886964Y-73401248D01*
X40930805Y-73346844D01*
X40997099Y-73324779D01*
X41001525Y-73324700D01*
X44452075Y-73324700D01*
X44519114Y-73344385D01*
X44564869Y-73397189D01*
X44566636Y-73401248D01*
X44595856Y-73471794D01*
X44710824Y-73643857D01*
X44857142Y-73790175D01*
X44857145Y-73790177D01*
X45029202Y-73905141D01*
X45220380Y-73984330D01*
X45401597Y-74020376D01*
X45423330Y-74024699D01*
X45423334Y-74024700D01*
X45423335Y-74024700D01*
X45880266Y-74024700D01*
X45880267Y-74024699D01*
X46083220Y-73984330D01*
X46274398Y-73905141D01*
X46446455Y-73790177D01*
X46592777Y-73643855D01*
X46707741Y-73471798D01*
X46719463Y-73443500D01*
X46736964Y-73401248D01*
X46780805Y-73346844D01*
X46847099Y-73324779D01*
X46851525Y-73324700D01*
X50302075Y-73324700D01*
X50369114Y-73344385D01*
X50414869Y-73397189D01*
X50416636Y-73401248D01*
X50445856Y-73471794D01*
X50560824Y-73643857D01*
X50707142Y-73790175D01*
X50707145Y-73790177D01*
X50879202Y-73905141D01*
X51070380Y-73984330D01*
X51251597Y-74020376D01*
X51273330Y-74024699D01*
X51273334Y-74024700D01*
X51273335Y-74024700D01*
X51730266Y-74024700D01*
X51730267Y-74024699D01*
X51933220Y-73984330D01*
X52124398Y-73905141D01*
X52296455Y-73790177D01*
X52442777Y-73643855D01*
X52557741Y-73471798D01*
X52569463Y-73443500D01*
X52586964Y-73401248D01*
X52630805Y-73346844D01*
X52697099Y-73324779D01*
X52701525Y-73324700D01*
X56152075Y-73324700D01*
X56219114Y-73344385D01*
X56264869Y-73397189D01*
X56266636Y-73401248D01*
X56295856Y-73471794D01*
X56410824Y-73643857D01*
X56557142Y-73790175D01*
X56557145Y-73790177D01*
X56729202Y-73905141D01*
X56920380Y-73984330D01*
X57101597Y-74020376D01*
X57123330Y-74024699D01*
X57123334Y-74024700D01*
X57123335Y-74024700D01*
X57580266Y-74024700D01*
X57580267Y-74024699D01*
X57783220Y-73984330D01*
X57974398Y-73905141D01*
X58146455Y-73790177D01*
X58292777Y-73643855D01*
X58407741Y-73471798D01*
X58486930Y-73280620D01*
X58527300Y-73077665D01*
X58527300Y-72870735D01*
X58486930Y-72667780D01*
X58407741Y-72476602D01*
X58292777Y-72304545D01*
X58292775Y-72304542D01*
X58146457Y-72158224D01*
X58060426Y-72100741D01*
X57974398Y-72043259D01*
X57783220Y-71964070D01*
X57783212Y-71964068D01*
X57580269Y-71923700D01*
X57580265Y-71923700D01*
X57123335Y-71923700D01*
X57123330Y-71923700D01*
X56920387Y-71964068D01*
X56920379Y-71964070D01*
X56729203Y-72043258D01*
X56557142Y-72158224D01*
X56410824Y-72304542D01*
X56295856Y-72476605D01*
X56266636Y-72547152D01*
X56222795Y-72601556D01*
X56156501Y-72623621D01*
X56152075Y-72623700D01*
X52701525Y-72623700D01*
X52634486Y-72604015D01*
X52588731Y-72551211D01*
X52586964Y-72547152D01*
X52557743Y-72476605D01*
X52442775Y-72304542D01*
X52296457Y-72158224D01*
X52210426Y-72100741D01*
X52124398Y-72043259D01*
X51933220Y-71964070D01*
X51933212Y-71964068D01*
X51730269Y-71923700D01*
X51730265Y-71923700D01*
X51273335Y-71923700D01*
X51273330Y-71923700D01*
X51070387Y-71964068D01*
X51070379Y-71964070D01*
X50879203Y-72043258D01*
X50707142Y-72158224D01*
X50560824Y-72304542D01*
X50445856Y-72476605D01*
X50416636Y-72547152D01*
X50372795Y-72601556D01*
X50306501Y-72623621D01*
X50302075Y-72623700D01*
X46851525Y-72623700D01*
X46784486Y-72604015D01*
X46738731Y-72551211D01*
X46736964Y-72547152D01*
X46707743Y-72476605D01*
X46592775Y-72304542D01*
X46446457Y-72158224D01*
X46360426Y-72100741D01*
X46274398Y-72043259D01*
X46083220Y-71964070D01*
X46083212Y-71964068D01*
X45880269Y-71923700D01*
X45880265Y-71923700D01*
X45423335Y-71923700D01*
X45423330Y-71923700D01*
X45220387Y-71964068D01*
X45220379Y-71964070D01*
X45029203Y-72043258D01*
X44857142Y-72158224D01*
X44710824Y-72304542D01*
X44595856Y-72476605D01*
X44566636Y-72547152D01*
X44522795Y-72601556D01*
X44456501Y-72623621D01*
X44452075Y-72623700D01*
X41001525Y-72623700D01*
X40934486Y-72604015D01*
X40888731Y-72551211D01*
X40886964Y-72547152D01*
X40857743Y-72476605D01*
X40742775Y-72304542D01*
X40596457Y-72158224D01*
X40510426Y-72100741D01*
X40424398Y-72043259D01*
X40233220Y-71964070D01*
X40233212Y-71964068D01*
X40030269Y-71923700D01*
X40030265Y-71923700D01*
X39573335Y-71923700D01*
X39573330Y-71923700D01*
X39370387Y-71964068D01*
X39370379Y-71964070D01*
X39179203Y-72043258D01*
X39007142Y-72158224D01*
X38860824Y-72304542D01*
X38745858Y-72476603D01*
X38666670Y-72667779D01*
X38666668Y-72667787D01*
X38626300Y-72870730D01*
X37878100Y-72870730D01*
X37878100Y-71798700D01*
X37897785Y-71731661D01*
X37950589Y-71685906D01*
X38002100Y-71674700D01*
X45746286Y-71674700D01*
X45932918Y-71645140D01*
X46112632Y-71586747D01*
X46280999Y-71500960D01*
X46433873Y-71389890D01*
X46567490Y-71256273D01*
X46678560Y-71103399D01*
X46764347Y-70935032D01*
X46822740Y-70755318D01*
X46852300Y-70568686D01*
X46852300Y-70379713D01*
X50301300Y-70379713D01*
X50301300Y-70568686D01*
X50330859Y-70755318D01*
X50389254Y-70935036D01*
X50475040Y-71103399D01*
X50586110Y-71256273D01*
X50719727Y-71389890D01*
X50872601Y-71500960D01*
X50952147Y-71541490D01*
X51040963Y-71586745D01*
X51040965Y-71586745D01*
X51040968Y-71586747D01*
X51137297Y-71618046D01*
X51220681Y-71645140D01*
X51407314Y-71674700D01*
X51407319Y-71674700D01*
X57257319Y-71674700D01*
X57987574Y-71674700D01*
X58054613Y-71694385D01*
X58075255Y-71711019D01*
X60269378Y-73905141D01*
X62423926Y-76059689D01*
X62576800Y-76170760D01*
X62728904Y-76248260D01*
X62728905Y-76248261D01*
X62734325Y-76251022D01*
X62745168Y-76256547D01*
X62924876Y-76314938D01*
X62924882Y-76314940D01*
X62964898Y-76321277D01*
X63028031Y-76351205D01*
X63064963Y-76410515D01*
X63069500Y-76443750D01*
X63069500Y-80144387D01*
X63069499Y-80144421D01*
X63069499Y-80371178D01*
X63077323Y-80430596D01*
X63078627Y-80440501D01*
X63098596Y-80592179D01*
X63138923Y-80742681D01*
X63156290Y-80807496D01*
X63156293Y-80807506D01*
X63198697Y-80909877D01*
X63241595Y-81013442D01*
X63353052Y-81206490D01*
X63353057Y-81206496D01*
X63353058Y-81206498D01*
X63488751Y-81383338D01*
X63488757Y-81383345D01*
X63649472Y-81544060D01*
X63649502Y-81544088D01*
X66968592Y-84863178D01*
X66968629Y-84863217D01*
X67128654Y-85023242D01*
X67128661Y-85023248D01*
X67254578Y-85119867D01*
X67305510Y-85158948D01*
X67498558Y-85270405D01*
X67704503Y-85355710D01*
X67919821Y-85413404D01*
X68140827Y-85442500D01*
X68140828Y-85442500D01*
X68363740Y-85442500D01*
X72196672Y-85442500D01*
X72196704Y-85442501D01*
X72200544Y-85442501D01*
X72423449Y-85442501D01*
X72423456Y-85442501D01*
X72644463Y-85413404D01*
X72859781Y-85355710D01*
X73065726Y-85270405D01*
X73258774Y-85158948D01*
X73288493Y-85136144D01*
X73435624Y-85023247D01*
X73568589Y-84890281D01*
X73629910Y-84856798D01*
X73699602Y-84861782D01*
X73755536Y-84903653D01*
X73779953Y-84969117D01*
X73774200Y-85016281D01*
X73759061Y-85062873D01*
X73759060Y-85062880D01*
X73729500Y-85249513D01*
X73729500Y-85438486D01*
X73759059Y-85625118D01*
X73817454Y-85804836D01*
X73874977Y-85917730D01*
X73903240Y-85973199D01*
X74014310Y-86126073D01*
X74147927Y-86259690D01*
X74300801Y-86370760D01*
X74380347Y-86411290D01*
X74469163Y-86456545D01*
X74469165Y-86456545D01*
X74469168Y-86456547D01*
X74565497Y-86487846D01*
X74648881Y-86514940D01*
X74835514Y-86544500D01*
X74835519Y-86544500D01*
X78548486Y-86544500D01*
X78735118Y-86514940D01*
X78914832Y-86456547D01*
X79083199Y-86370760D01*
X79098009Y-86360000D01*
X94282843Y-86360000D01*
X94301426Y-86548681D01*
X94311529Y-86581985D01*
X94356463Y-86730115D01*
X94356464Y-86730118D01*
X94356465Y-86730119D01*
X94356466Y-86730122D01*
X94445834Y-86897318D01*
X94445838Y-86897325D01*
X94566116Y-87043883D01*
X94712674Y-87164161D01*
X94712681Y-87164165D01*
X94879877Y-87253533D01*
X94879878Y-87253533D01*
X94879885Y-87253537D01*
X95061317Y-87308573D01*
X95061316Y-87308573D01*
X95078233Y-87310239D01*
X95250000Y-87327157D01*
X95438683Y-87308573D01*
X95620115Y-87253537D01*
X95787324Y-87164162D01*
X95933883Y-87043883D01*
X96054162Y-86897324D01*
X96143537Y-86730115D01*
X96198573Y-86548683D01*
X96217157Y-86360000D01*
X96198573Y-86171317D01*
X96143537Y-85989885D01*
X96143533Y-85989877D01*
X96054165Y-85822681D01*
X96054161Y-85822674D01*
X95933883Y-85676116D01*
X95787325Y-85555838D01*
X95787318Y-85555834D01*
X95620122Y-85466466D01*
X95620119Y-85466465D01*
X95620118Y-85466464D01*
X95620115Y-85466463D01*
X95438683Y-85411427D01*
X95438681Y-85411426D01*
X95438683Y-85411426D01*
X95250000Y-85392843D01*
X95061318Y-85411426D01*
X94958878Y-85442501D01*
X94879885Y-85466463D01*
X94879882Y-85466464D01*
X94879880Y-85466465D01*
X94879877Y-85466466D01*
X94712681Y-85555834D01*
X94712674Y-85555838D01*
X94566116Y-85676116D01*
X94445838Y-85822674D01*
X94445834Y-85822681D01*
X94356466Y-85989877D01*
X94356465Y-85989880D01*
X94301426Y-86171318D01*
X94282843Y-86360000D01*
X79098009Y-86360000D01*
X79236074Y-86259690D01*
X79654945Y-85840819D01*
X79716268Y-85807334D01*
X79742626Y-85804500D01*
X79813750Y-85804500D01*
X79813751Y-85804499D01*
X79828568Y-85801552D01*
X79872229Y-85792868D01*
X79872229Y-85792867D01*
X79872231Y-85792867D01*
X79938552Y-85748552D01*
X79982867Y-85682231D01*
X79982867Y-85682229D01*
X79982868Y-85682229D01*
X79994499Y-85623752D01*
X79994500Y-85623750D01*
X79994500Y-85509632D01*
X80014185Y-85442593D01*
X80018177Y-85436753D01*
X80020760Y-85433199D01*
X80077314Y-85322204D01*
X80125288Y-85271409D01*
X80187799Y-85254500D01*
X91023308Y-85254500D01*
X91023309Y-85254500D01*
X91113673Y-85230286D01*
X91137887Y-85223799D01*
X91240614Y-85164489D01*
X91605364Y-84799739D01*
X96928000Y-84799739D01*
X96928000Y-85380260D01*
X96930774Y-85409849D01*
X96974384Y-85534476D01*
X97052788Y-85640710D01*
X97052789Y-85640711D01*
X97159022Y-85719114D01*
X97159025Y-85719116D01*
X97182454Y-85727314D01*
X97239230Y-85768035D01*
X97264978Y-85832988D01*
X97265500Y-85844356D01*
X97265500Y-86459788D01*
X97245815Y-86526827D01*
X97193011Y-86572582D01*
X97182457Y-86576829D01*
X97167722Y-86581985D01*
X97061489Y-86660388D01*
X97061488Y-86660389D01*
X96983084Y-86766623D01*
X96939474Y-86891250D01*
X96936700Y-86920839D01*
X96936700Y-87526360D01*
X96939474Y-87555949D01*
X96983084Y-87680576D01*
X97061488Y-87786810D01*
X97061489Y-87786811D01*
X97167723Y-87865215D01*
X97167724Y-87865215D01*
X97167725Y-87865216D01*
X97292351Y-87908825D01*
X97292350Y-87908825D01*
X97321940Y-87911600D01*
X97321944Y-87911600D01*
X97902460Y-87911600D01*
X97932049Y-87908825D01*
X98056675Y-87865216D01*
X98162911Y-87786811D01*
X98241316Y-87680575D01*
X98284925Y-87555949D01*
X98287700Y-87526356D01*
X98287700Y-86920844D01*
X98285494Y-86897324D01*
X98284925Y-86891250D01*
X98259447Y-86818441D01*
X98241316Y-86766625D01*
X98216245Y-86732655D01*
X98162911Y-86660389D01*
X98162910Y-86660388D01*
X98056676Y-86581984D01*
X98056673Y-86581982D01*
X98049539Y-86579486D01*
X97992765Y-86538761D01*
X97967021Y-86473807D01*
X97966500Y-86462447D01*
X97966500Y-86360000D01*
X106982843Y-86360000D01*
X107001426Y-86548681D01*
X107011529Y-86581985D01*
X107056463Y-86730115D01*
X107056464Y-86730118D01*
X107056465Y-86730119D01*
X107056466Y-86730122D01*
X107145834Y-86897318D01*
X107145838Y-86897325D01*
X107266116Y-87043883D01*
X107412674Y-87164161D01*
X107412681Y-87164165D01*
X107579877Y-87253533D01*
X107579878Y-87253533D01*
X107579885Y-87253537D01*
X107761317Y-87308573D01*
X107761316Y-87308573D01*
X107778233Y-87310239D01*
X107950000Y-87327157D01*
X108138683Y-87308573D01*
X108320115Y-87253537D01*
X108487324Y-87164162D01*
X108633883Y-87043883D01*
X108754162Y-86897324D01*
X108843537Y-86730115D01*
X108898573Y-86548683D01*
X108917157Y-86360000D01*
X108898573Y-86171317D01*
X108843537Y-85989885D01*
X108843533Y-85989877D01*
X108754165Y-85822681D01*
X108754161Y-85822674D01*
X108633883Y-85676116D01*
X108487325Y-85555838D01*
X108487318Y-85555834D01*
X108320122Y-85466466D01*
X108320119Y-85466465D01*
X108320118Y-85466464D01*
X108320115Y-85466463D01*
X108138683Y-85411427D01*
X108138681Y-85411426D01*
X108138683Y-85411426D01*
X107950000Y-85392843D01*
X107761318Y-85411426D01*
X107658878Y-85442501D01*
X107579885Y-85466463D01*
X107579882Y-85466464D01*
X107579880Y-85466465D01*
X107579877Y-85466466D01*
X107412681Y-85555834D01*
X107412674Y-85555838D01*
X107266116Y-85676116D01*
X107145838Y-85822674D01*
X107145834Y-85822681D01*
X107056466Y-85989877D01*
X107056465Y-85989880D01*
X107001426Y-86171318D01*
X106982843Y-86360000D01*
X97966500Y-86360000D01*
X97966500Y-85844356D01*
X97986185Y-85777317D01*
X98038989Y-85731562D01*
X98049546Y-85727314D01*
X98072975Y-85719116D01*
X98179211Y-85640711D01*
X98257616Y-85534475D01*
X98301225Y-85409849D01*
X98304000Y-85380256D01*
X98304000Y-84799744D01*
X98301225Y-84770151D01*
X98257616Y-84645525D01*
X98227293Y-84604439D01*
X98179211Y-84539289D01*
X98179210Y-84539288D01*
X98072976Y-84460884D01*
X98064760Y-84456542D01*
X98066271Y-84453682D01*
X98022713Y-84422428D01*
X97996979Y-84357470D01*
X98010448Y-84288911D01*
X98039173Y-84254667D01*
X98038535Y-84254029D01*
X98044277Y-84248286D01*
X98044277Y-84248285D01*
X98044282Y-84248282D01*
X98140536Y-84122841D01*
X98201044Y-83976762D01*
X98221682Y-83820000D01*
X98221041Y-83815133D01*
X98204759Y-83691454D01*
X98201044Y-83663238D01*
X98140536Y-83517159D01*
X98044282Y-83391718D01*
X97918841Y-83295464D01*
X97887963Y-83282674D01*
X97772762Y-83234956D01*
X97772760Y-83234955D01*
X97616001Y-83214318D01*
X97615999Y-83214318D01*
X97459239Y-83234955D01*
X97459237Y-83234956D01*
X97313160Y-83295463D01*
X97187718Y-83391718D01*
X97091463Y-83517160D01*
X97030956Y-83663237D01*
X97030955Y-83663239D01*
X97010318Y-83819998D01*
X97010318Y-83820001D01*
X97030955Y-83976760D01*
X97030956Y-83976762D01*
X97091464Y-84122841D01*
X97187718Y-84248282D01*
X97187720Y-84248283D01*
X97187722Y-84248286D01*
X97193465Y-84254029D01*
X97192393Y-84255100D01*
X97228230Y-84304182D01*
X97232383Y-84373929D01*
X97198169Y-84434848D01*
X97166241Y-84454652D01*
X97167240Y-84456542D01*
X97159023Y-84460884D01*
X97052789Y-84539288D01*
X97052788Y-84539289D01*
X96974384Y-84645523D01*
X96930774Y-84770150D01*
X96928000Y-84799739D01*
X91605364Y-84799739D01*
X93426285Y-82978819D01*
X93487608Y-82945334D01*
X93513966Y-82942500D01*
X94462838Y-82942500D01*
X94529877Y-82962185D01*
X94575632Y-83014989D01*
X94585576Y-83084147D01*
X94558691Y-83145165D01*
X94445838Y-83282674D01*
X94445834Y-83282681D01*
X94356466Y-83449877D01*
X94356465Y-83449880D01*
X94301426Y-83631318D01*
X94282843Y-83820000D01*
X94301426Y-84008681D01*
X94301427Y-84008683D01*
X94356463Y-84190115D01*
X94356464Y-84190118D01*
X94356465Y-84190119D01*
X94356466Y-84190122D01*
X94445834Y-84357318D01*
X94445838Y-84357325D01*
X94566116Y-84503883D01*
X94712674Y-84624161D01*
X94712681Y-84624165D01*
X94879877Y-84713533D01*
X94879878Y-84713533D01*
X94879885Y-84713537D01*
X95061317Y-84768573D01*
X95061316Y-84768573D01*
X95077328Y-84770150D01*
X95250000Y-84787157D01*
X95438683Y-84768573D01*
X95620115Y-84713537D01*
X95787324Y-84624162D01*
X95933883Y-84503883D01*
X96054162Y-84357324D01*
X96143537Y-84190115D01*
X96198573Y-84008683D01*
X96217157Y-83820000D01*
X96198573Y-83631317D01*
X96143537Y-83449885D01*
X96112446Y-83391718D01*
X96054165Y-83282681D01*
X96054161Y-83282674D01*
X95941309Y-83145165D01*
X95913996Y-83080855D01*
X95925787Y-83011988D01*
X95972939Y-82960427D01*
X96037162Y-82942500D01*
X98764035Y-82942500D01*
X98831074Y-82962185D01*
X98851716Y-82978819D01*
X99418386Y-83545489D01*
X99521113Y-83604799D01*
X99545321Y-83611284D01*
X99545324Y-83611286D01*
X99545325Y-83611286D01*
X99575447Y-83619357D01*
X99635691Y-83635500D01*
X99635693Y-83635500D01*
X106104308Y-83635500D01*
X106104309Y-83635500D01*
X106194673Y-83611286D01*
X106218887Y-83604799D01*
X106321614Y-83545489D01*
X107614555Y-82252547D01*
X107675876Y-82219064D01*
X107738230Y-82221570D01*
X107761314Y-82228572D01*
X107761316Y-82228573D01*
X107778233Y-82230239D01*
X107950000Y-82247157D01*
X108138683Y-82228573D01*
X108320115Y-82173537D01*
X108487324Y-82084162D01*
X108633883Y-81963883D01*
X108754162Y-81817324D01*
X108843537Y-81650115D01*
X108898573Y-81468683D01*
X108917157Y-81280000D01*
X108898573Y-81091317D01*
X108843537Y-80909885D01*
X108828407Y-80881579D01*
X108754165Y-80742681D01*
X108754161Y-80742674D01*
X108633883Y-80596116D01*
X108487325Y-80475838D01*
X108487318Y-80475834D01*
X108320122Y-80386466D01*
X108320119Y-80386465D01*
X108320118Y-80386464D01*
X108320115Y-80386463D01*
X108138683Y-80331427D01*
X108138681Y-80331426D01*
X108138683Y-80331426D01*
X107950000Y-80312843D01*
X107761318Y-80331426D01*
X107654194Y-80363921D01*
X107579885Y-80386463D01*
X107579882Y-80386464D01*
X107579880Y-80386465D01*
X107579877Y-80386466D01*
X107412681Y-80475834D01*
X107412674Y-80475838D01*
X107266116Y-80596116D01*
X107145838Y-80742674D01*
X107145834Y-80742681D01*
X107056466Y-80909877D01*
X107056465Y-80909880D01*
X107001426Y-81091318D01*
X106982843Y-81279999D01*
X107001426Y-81468681D01*
X107008430Y-81491769D01*
X107009053Y-81561636D01*
X106977450Y-81615444D01*
X105894716Y-82698181D01*
X105833393Y-82731666D01*
X105807035Y-82734500D01*
X99932965Y-82734500D01*
X99865926Y-82714815D01*
X99845284Y-82698181D01*
X99278616Y-82131513D01*
X99278614Y-82131511D01*
X99227250Y-82101856D01*
X99175888Y-82072201D01*
X99163780Y-82068957D01*
X99151673Y-82065713D01*
X99151670Y-82065712D01*
X99113478Y-82055478D01*
X99061309Y-82041500D01*
X99061308Y-82041500D01*
X96132362Y-82041500D01*
X96065323Y-82021815D01*
X96019568Y-81969011D01*
X96009624Y-81899853D01*
X96036508Y-81838836D01*
X96043189Y-81830693D01*
X96054162Y-81817324D01*
X96143537Y-81650115D01*
X96198573Y-81468683D01*
X96217157Y-81280000D01*
X96198573Y-81091317D01*
X96143537Y-80909885D01*
X96128407Y-80881579D01*
X96054165Y-80742681D01*
X96054161Y-80742674D01*
X95933883Y-80596116D01*
X95787325Y-80475838D01*
X95787318Y-80475834D01*
X95620122Y-80386466D01*
X95620119Y-80386465D01*
X95620118Y-80386464D01*
X95620115Y-80386463D01*
X95438683Y-80331427D01*
X95438681Y-80331426D01*
X95438683Y-80331426D01*
X95250000Y-80312843D01*
X95061318Y-80331426D01*
X94954194Y-80363921D01*
X94879885Y-80386463D01*
X94879882Y-80386464D01*
X94879880Y-80386465D01*
X94879877Y-80386466D01*
X94712681Y-80475834D01*
X94712674Y-80475838D01*
X94566116Y-80596116D01*
X94445838Y-80742674D01*
X94445834Y-80742681D01*
X94356466Y-80909877D01*
X94356465Y-80909880D01*
X94301426Y-81091318D01*
X94282843Y-81280000D01*
X94301426Y-81468681D01*
X94301427Y-81468683D01*
X94356463Y-81650115D01*
X94356464Y-81650118D01*
X94356465Y-81650119D01*
X94356466Y-81650122D01*
X94445834Y-81817318D01*
X94445838Y-81817324D01*
X94463492Y-81838836D01*
X94490804Y-81903146D01*
X94479013Y-81972013D01*
X94431860Y-82023573D01*
X94367638Y-82041500D01*
X93216691Y-82041500D01*
X93126325Y-82065713D01*
X93126324Y-82065712D01*
X93102115Y-82072200D01*
X93102106Y-82072204D01*
X92999392Y-82131505D01*
X92999384Y-82131511D01*
X90813716Y-84317181D01*
X90752393Y-84350666D01*
X90726035Y-84353500D01*
X80187799Y-84353500D01*
X80120760Y-84333815D01*
X80077314Y-84285795D01*
X80061674Y-84255100D01*
X80020760Y-84174801D01*
X80020758Y-84174798D01*
X80020757Y-84174796D01*
X80018179Y-84171247D01*
X79994702Y-84105439D01*
X79994500Y-84098366D01*
X79994500Y-83984249D01*
X79994499Y-83984247D01*
X79982868Y-83925770D01*
X79982867Y-83925769D01*
X79938552Y-83859447D01*
X79872230Y-83815132D01*
X79872229Y-83815131D01*
X79813752Y-83803500D01*
X79813748Y-83803500D01*
X79699633Y-83803500D01*
X79632594Y-83783815D01*
X79626746Y-83779817D01*
X79623200Y-83777240D01*
X79454836Y-83691454D01*
X79275118Y-83633059D01*
X79088486Y-83603500D01*
X79088481Y-83603500D01*
X78899518Y-83603500D01*
X78899513Y-83603500D01*
X78712885Y-83633059D01*
X78623025Y-83662256D01*
X78553912Y-83684713D01*
X78533165Y-83691454D01*
X78364799Y-83777240D01*
X78361254Y-83779817D01*
X78295448Y-83803298D01*
X78288367Y-83803500D01*
X78174247Y-83803500D01*
X78115770Y-83815131D01*
X78115769Y-83815132D01*
X78049447Y-83859447D01*
X78005132Y-83925769D01*
X78005131Y-83925770D01*
X77993500Y-83984247D01*
X77993500Y-84019500D01*
X77973815Y-84086539D01*
X77921011Y-84132294D01*
X77869500Y-84143500D01*
X74835514Y-84143500D01*
X74648880Y-84173060D01*
X74648877Y-84173060D01*
X74602277Y-84188202D01*
X74532435Y-84190197D01*
X74472603Y-84154116D01*
X74441775Y-84091415D01*
X74449740Y-84022001D01*
X74476275Y-83982593D01*
X74778242Y-83680626D01*
X74778260Y-83680611D01*
X74941242Y-83517629D01*
X74941247Y-83517624D01*
X75076948Y-83340774D01*
X75188405Y-83147726D01*
X75273710Y-82941781D01*
X75331404Y-82726463D01*
X75345634Y-82618376D01*
X75360501Y-82505456D01*
X75360501Y-82282544D01*
X75360501Y-82278705D01*
X75360500Y-82278671D01*
X75360500Y-82035731D01*
X75380185Y-81968692D01*
X75396814Y-81948055D01*
X77318242Y-80026626D01*
X77318260Y-80026611D01*
X77481240Y-79863631D01*
X77481247Y-79863624D01*
X77549097Y-79775199D01*
X77616948Y-79686775D01*
X77728405Y-79493726D01*
X77813710Y-79287781D01*
X77871404Y-79072464D01*
X77900500Y-78851457D01*
X77900500Y-78628544D01*
X77887756Y-78531747D01*
X77871404Y-78407537D01*
X77813710Y-78192219D01*
X77728405Y-77986274D01*
X77616948Y-77793226D01*
X77563372Y-77723404D01*
X77481248Y-77616377D01*
X77481242Y-77616370D01*
X77323629Y-77458757D01*
X77323622Y-77458751D01*
X77146782Y-77323058D01*
X77146780Y-77323057D01*
X77146774Y-77323052D01*
X76953726Y-77211595D01*
X76953722Y-77211593D01*
X76747790Y-77126293D01*
X76747783Y-77126291D01*
X76747781Y-77126290D01*
X76532463Y-77068596D01*
X76532457Y-77068595D01*
X76532452Y-77068594D01*
X76311466Y-77039501D01*
X76311463Y-77039500D01*
X76311457Y-77039500D01*
X73771457Y-77039500D01*
X73548543Y-77039500D01*
X73548537Y-77039500D01*
X73548533Y-77039501D01*
X73327547Y-77068594D01*
X73327540Y-77068595D01*
X73327537Y-77068596D01*
X73112219Y-77126290D01*
X73112209Y-77126293D01*
X72906277Y-77211593D01*
X72906273Y-77211595D01*
X72713226Y-77323052D01*
X72713217Y-77323058D01*
X72536377Y-77458751D01*
X72536370Y-77458757D01*
X72378757Y-77616370D01*
X72378751Y-77616377D01*
X72243058Y-77793217D01*
X72243052Y-77793226D01*
X72131595Y-77986273D01*
X72131593Y-77986277D01*
X72046293Y-78192209D01*
X72046290Y-78192219D01*
X72008063Y-78334887D01*
X71988597Y-78407534D01*
X71988594Y-78407547D01*
X71959501Y-78628533D01*
X71959500Y-78628549D01*
X71959500Y-81164671D01*
X71959499Y-81164705D01*
X71959499Y-81395842D01*
X71959500Y-81395871D01*
X71959500Y-81638268D01*
X71939815Y-81705307D01*
X71923181Y-81725949D01*
X71643949Y-82005181D01*
X71582626Y-82038666D01*
X71556268Y-82041500D01*
X69008016Y-82041500D01*
X68940977Y-82021815D01*
X68920335Y-82005181D01*
X66506819Y-79591665D01*
X66473334Y-79530342D01*
X66470500Y-79503984D01*
X66470500Y-75032549D01*
X66470500Y-75032543D01*
X66441404Y-74811537D01*
X66383710Y-74596219D01*
X66298405Y-74390274D01*
X66186948Y-74197226D01*
X66051247Y-74020376D01*
X66051242Y-74020370D01*
X65893629Y-73862757D01*
X65893622Y-73862751D01*
X65716782Y-73727058D01*
X65716780Y-73727057D01*
X65716774Y-73727052D01*
X65523726Y-73615595D01*
X65523722Y-73615593D01*
X65317790Y-73530293D01*
X65317783Y-73530291D01*
X65317781Y-73530290D01*
X65102463Y-73472596D01*
X65102457Y-73472595D01*
X65102452Y-73472594D01*
X64881466Y-73443501D01*
X64881463Y-73443500D01*
X64881457Y-73443500D01*
X64658543Y-73443500D01*
X64658537Y-73443500D01*
X64658533Y-73443501D01*
X64437547Y-73472594D01*
X64437540Y-73472595D01*
X64437537Y-73472596D01*
X64222219Y-73530290D01*
X64222209Y-73530293D01*
X64016277Y-73615593D01*
X64016273Y-73615595D01*
X63823226Y-73727052D01*
X63823219Y-73727057D01*
X63719147Y-73806913D01*
X63653978Y-73832106D01*
X63585533Y-73818067D01*
X63555981Y-73796217D01*
X59318275Y-69558511D01*
X59196129Y-69469766D01*
X59153464Y-69414435D01*
X59147485Y-69344822D01*
X59180091Y-69283027D01*
X59181175Y-69281926D01*
X59463789Y-68999314D01*
X59523099Y-68896587D01*
X59536198Y-68847700D01*
X59553800Y-68782009D01*
X59553800Y-65769530D01*
X65223500Y-65769530D01*
X65223500Y-66276469D01*
X65263868Y-66479412D01*
X65263870Y-66479420D01*
X65343058Y-66670596D01*
X65458024Y-66842657D01*
X65604342Y-66988975D01*
X65604345Y-66988977D01*
X65776402Y-67103941D01*
X65967580Y-67183130D01*
X66170530Y-67223499D01*
X66170534Y-67223500D01*
X66170535Y-67223500D01*
X66377466Y-67223500D01*
X66377467Y-67223499D01*
X66580420Y-67183130D01*
X66771598Y-67103941D01*
X66943655Y-66988977D01*
X67089977Y-66842655D01*
X67204941Y-66670598D01*
X67284130Y-66479420D01*
X67324500Y-66276465D01*
X67324500Y-65769535D01*
X67284130Y-65566580D01*
X67204941Y-65375402D01*
X67089977Y-65203345D01*
X67089975Y-65203342D01*
X66943657Y-65057024D01*
X66833218Y-64983232D01*
X66771598Y-64942059D01*
X66580420Y-64862870D01*
X66580412Y-64862868D01*
X66377469Y-64822500D01*
X66377465Y-64822500D01*
X66170535Y-64822500D01*
X66170530Y-64822500D01*
X65967587Y-64862868D01*
X65967579Y-64862870D01*
X65776403Y-64942058D01*
X65604342Y-65057024D01*
X65458024Y-65203342D01*
X65343058Y-65375403D01*
X65263870Y-65566579D01*
X65263868Y-65566587D01*
X65223500Y-65769530D01*
X59553800Y-65769530D01*
X59553800Y-64690594D01*
X59573485Y-64623555D01*
X59604167Y-64590824D01*
X59638068Y-64565804D01*
X59716511Y-64507911D01*
X59794916Y-64401675D01*
X59838525Y-64277049D01*
X59841300Y-64247456D01*
X59841300Y-63666944D01*
X59840414Y-63657500D01*
X59838525Y-63637350D01*
X59794915Y-63512723D01*
X59716511Y-63406489D01*
X59716510Y-63406488D01*
X59610276Y-63328084D01*
X59485648Y-63284474D01*
X59485649Y-63284474D01*
X59456060Y-63281700D01*
X59456056Y-63281700D01*
X58750544Y-63281700D01*
X58750540Y-63281700D01*
X58720950Y-63284474D01*
X58596323Y-63328084D01*
X58490089Y-63406488D01*
X58490088Y-63406489D01*
X58411684Y-63512723D01*
X58368074Y-63637350D01*
X58365300Y-63666939D01*
X58365300Y-64247460D01*
X58368074Y-64277049D01*
X58411684Y-64401676D01*
X58490088Y-64507910D01*
X58490089Y-64507911D01*
X58602433Y-64590824D01*
X58644684Y-64646471D01*
X58652800Y-64690594D01*
X58652800Y-68484735D01*
X58633115Y-68551774D01*
X58616481Y-68572416D01*
X57951516Y-69237381D01*
X57890193Y-69270866D01*
X57863835Y-69273700D01*
X53638766Y-69273700D01*
X53571727Y-69254015D01*
X53525972Y-69201211D01*
X53516028Y-69132053D01*
X53545053Y-69068497D01*
X53551085Y-69062019D01*
X53577028Y-69036076D01*
X53621790Y-68991314D01*
X53681099Y-68888587D01*
X53700812Y-68815016D01*
X53711800Y-68774009D01*
X53711800Y-64690594D01*
X53731485Y-64623555D01*
X53762167Y-64590824D01*
X53796068Y-64565804D01*
X53874511Y-64507911D01*
X53952916Y-64401675D01*
X53996525Y-64277049D01*
X53999300Y-64247456D01*
X53999300Y-63666944D01*
X53998414Y-63657500D01*
X53996525Y-63637350D01*
X53952915Y-63512723D01*
X53874511Y-63406489D01*
X53874510Y-63406488D01*
X53768276Y-63328084D01*
X53643648Y-63284474D01*
X53643649Y-63284474D01*
X53614060Y-63281700D01*
X53614056Y-63281700D01*
X52908544Y-63281700D01*
X52908540Y-63281700D01*
X52878950Y-63284474D01*
X52754323Y-63328084D01*
X52648089Y-63406488D01*
X52648088Y-63406489D01*
X52569684Y-63512723D01*
X52526074Y-63637350D01*
X52523300Y-63666939D01*
X52523300Y-64247460D01*
X52526074Y-64277049D01*
X52569684Y-64401676D01*
X52648088Y-64507910D01*
X52648089Y-64507911D01*
X52760433Y-64590824D01*
X52802684Y-64646471D01*
X52810800Y-64690594D01*
X52810800Y-68476734D01*
X52791115Y-68543773D01*
X52774481Y-68564415D01*
X52101515Y-69237381D01*
X52040192Y-69270866D01*
X52013834Y-69273700D01*
X51407314Y-69273700D01*
X51220681Y-69303259D01*
X51040963Y-69361654D01*
X50872600Y-69447440D01*
X50785379Y-69510810D01*
X50719727Y-69558510D01*
X50719725Y-69558512D01*
X50719724Y-69558512D01*
X50586112Y-69692124D01*
X50586112Y-69692125D01*
X50586110Y-69692127D01*
X50538410Y-69757779D01*
X50475040Y-69845000D01*
X50389254Y-70013363D01*
X50330859Y-70193081D01*
X50301300Y-70379713D01*
X46852300Y-70379713D01*
X46822740Y-70193081D01*
X46784245Y-70074607D01*
X46782250Y-70004765D01*
X46814495Y-69948607D01*
X47204592Y-69558510D01*
X47779789Y-68983314D01*
X47790898Y-68964073D01*
X47814031Y-68924006D01*
X47839097Y-68880589D01*
X47839099Y-68880586D01*
X47869800Y-68766009D01*
X47869800Y-64690594D01*
X47889485Y-64623555D01*
X47920167Y-64590824D01*
X47954068Y-64565804D01*
X48032511Y-64507911D01*
X48110916Y-64401675D01*
X48154525Y-64277049D01*
X48157300Y-64247456D01*
X48157300Y-63666944D01*
X48156414Y-63657500D01*
X48154525Y-63637350D01*
X48110915Y-63512723D01*
X48032511Y-63406489D01*
X48032510Y-63406488D01*
X47926276Y-63328084D01*
X47801648Y-63284474D01*
X47801649Y-63284474D01*
X47772060Y-63281700D01*
X47772056Y-63281700D01*
X47066544Y-63281700D01*
X47066540Y-63281700D01*
X47036950Y-63284474D01*
X46912323Y-63328084D01*
X46806089Y-63406488D01*
X46806088Y-63406489D01*
X46727684Y-63512723D01*
X46684074Y-63637350D01*
X46681300Y-63666939D01*
X46681300Y-64247460D01*
X46684074Y-64277049D01*
X46727684Y-64401676D01*
X46806088Y-64507910D01*
X46806089Y-64507911D01*
X46918433Y-64590824D01*
X46960684Y-64646471D01*
X46968800Y-64690594D01*
X46968800Y-68468734D01*
X46949115Y-68535773D01*
X46932481Y-68556415D01*
X46177391Y-69311504D01*
X46116068Y-69344989D01*
X46051392Y-69341754D01*
X45932920Y-69303260D01*
X45746286Y-69273700D01*
X45746281Y-69273700D01*
X41938765Y-69273700D01*
X41871726Y-69254015D01*
X41825971Y-69201211D01*
X41816027Y-69132053D01*
X41845052Y-69068497D01*
X41851084Y-69062019D01*
X41877027Y-69036076D01*
X41937789Y-68975314D01*
X41997099Y-68872587D01*
X42012525Y-68815016D01*
X42027800Y-68758009D01*
X42027800Y-64690594D01*
X42047485Y-64623555D01*
X42078167Y-64590824D01*
X42112068Y-64565804D01*
X42190511Y-64507911D01*
X42268916Y-64401675D01*
X42312525Y-64277049D01*
X42315300Y-64247456D01*
X42315300Y-63666944D01*
X42314414Y-63657500D01*
X42312525Y-63637350D01*
X42268915Y-63512723D01*
X42190511Y-63406489D01*
X42190510Y-63406488D01*
X42084276Y-63328084D01*
X41959648Y-63284474D01*
X41959649Y-63284474D01*
X41930060Y-63281700D01*
X41930056Y-63281700D01*
X41224544Y-63281700D01*
X41224540Y-63281700D01*
X41194950Y-63284474D01*
X41070323Y-63328084D01*
X40964089Y-63406488D01*
X40964088Y-63406489D01*
X40885684Y-63512723D01*
X40842074Y-63637350D01*
X40839300Y-63666939D01*
X40839300Y-64247460D01*
X40842074Y-64277049D01*
X40885684Y-64401676D01*
X40964088Y-64507910D01*
X40964089Y-64507911D01*
X41076433Y-64590824D01*
X41118684Y-64646471D01*
X41126800Y-64690594D01*
X41126800Y-68460735D01*
X41107115Y-68527774D01*
X41090481Y-68548416D01*
X40401516Y-69237381D01*
X40340193Y-69270866D01*
X40313835Y-69273700D01*
X36583114Y-69273700D01*
X36396481Y-69303259D01*
X36216763Y-69361654D01*
X36048400Y-69447440D01*
X35961179Y-69510810D01*
X35895527Y-69558510D01*
X35895525Y-69558512D01*
X35895524Y-69558512D01*
X35761912Y-69692124D01*
X35761912Y-69692125D01*
X35761910Y-69692127D01*
X35714210Y-69757779D01*
X35650840Y-69845000D01*
X35565054Y-70013363D01*
X35506659Y-70193081D01*
X35477100Y-70379713D01*
X35052000Y-70379713D01*
X35052000Y-63116000D01*
X35071685Y-63048961D01*
X35124489Y-63003206D01*
X35176000Y-62992000D01*
X69472000Y-62992000D01*
X69539039Y-63011685D01*
G37*
%TD.AperFunction*%
%TA.AperFunction,Conductor*%
G36*
X69848107Y-92272185D02*
G01*
X69868749Y-92288819D01*
X71923181Y-94343251D01*
X71956666Y-94404574D01*
X71959500Y-94430932D01*
X71959500Y-96631450D01*
X71959501Y-96631466D01*
X71988594Y-96852452D01*
X71988595Y-96852457D01*
X71988596Y-96852463D01*
X72046290Y-97067780D01*
X72046293Y-97067790D01*
X72102665Y-97203883D01*
X72131595Y-97273726D01*
X72243052Y-97466774D01*
X72243057Y-97466780D01*
X72243058Y-97466782D01*
X72378751Y-97643622D01*
X72378757Y-97643629D01*
X72536370Y-97801242D01*
X72536376Y-97801247D01*
X72713226Y-97936948D01*
X72906274Y-98048405D01*
X72906277Y-98048406D01*
X72906282Y-98048409D01*
X72932911Y-98059439D01*
X72987315Y-98103280D01*
X73009380Y-98169574D01*
X72992101Y-98237273D01*
X72940964Y-98284884D01*
X72885459Y-98298000D01*
X57274000Y-98298000D01*
X57206961Y-98278315D01*
X57161206Y-98225511D01*
X57150000Y-98174000D01*
X57150000Y-97599544D01*
X57169685Y-97532505D01*
X57222489Y-97486750D01*
X57261846Y-97476141D01*
X57283016Y-97474055D01*
X57338683Y-97468573D01*
X57520115Y-97413537D01*
X57687324Y-97324162D01*
X57704400Y-97310147D01*
X57768709Y-97282834D01*
X57783066Y-97282000D01*
X59056934Y-97282000D01*
X59123973Y-97301685D01*
X59135592Y-97310142D01*
X59152676Y-97324162D01*
X59152677Y-97324162D01*
X59152679Y-97324164D01*
X59152681Y-97324165D01*
X59319877Y-97413533D01*
X59319878Y-97413533D01*
X59319885Y-97413537D01*
X59501317Y-97468573D01*
X59501316Y-97468573D01*
X59518233Y-97470239D01*
X59690000Y-97487157D01*
X59878683Y-97468573D01*
X60060115Y-97413537D01*
X60227324Y-97324162D01*
X60244400Y-97310147D01*
X60308709Y-97282834D01*
X60323066Y-97282000D01*
X61596934Y-97282000D01*
X61663973Y-97301685D01*
X61675592Y-97310142D01*
X61692676Y-97324162D01*
X61692677Y-97324162D01*
X61692679Y-97324164D01*
X61692681Y-97324165D01*
X61859877Y-97413533D01*
X61859878Y-97413533D01*
X61859885Y-97413537D01*
X62041317Y-97468573D01*
X62041316Y-97468573D01*
X62058233Y-97470239D01*
X62230000Y-97487157D01*
X62418683Y-97468573D01*
X62600115Y-97413537D01*
X62767324Y-97324162D01*
X62784400Y-97310147D01*
X62848709Y-97282834D01*
X62863066Y-97282000D01*
X64136934Y-97282000D01*
X64203973Y-97301685D01*
X64215592Y-97310142D01*
X64232676Y-97324162D01*
X64232677Y-97324162D01*
X64232679Y-97324164D01*
X64232681Y-97324165D01*
X64399877Y-97413533D01*
X64399878Y-97413533D01*
X64399885Y-97413537D01*
X64581317Y-97468573D01*
X64581316Y-97468573D01*
X64598233Y-97470239D01*
X64770000Y-97487157D01*
X64958683Y-97468573D01*
X65140115Y-97413537D01*
X65307324Y-97324162D01*
X65453883Y-97203883D01*
X65574162Y-97057324D01*
X65663537Y-96890115D01*
X65718573Y-96708683D01*
X65737157Y-96520000D01*
X65718573Y-96331317D01*
X65663537Y-96149885D01*
X65652831Y-96129855D01*
X65574165Y-95982681D01*
X65574161Y-95982675D01*
X65556508Y-95961164D01*
X65529196Y-95896854D01*
X65540987Y-95827987D01*
X65588140Y-95776427D01*
X65652362Y-95758500D01*
X66179308Y-95758500D01*
X66179309Y-95758500D01*
X66269673Y-95734286D01*
X66293887Y-95727799D01*
X66396614Y-95668489D01*
X68782422Y-93282679D01*
X68843743Y-93249196D01*
X68853896Y-93247426D01*
X68932762Y-93237044D01*
X69078841Y-93176536D01*
X69204282Y-93080282D01*
X69300536Y-92954841D01*
X69361044Y-92808762D01*
X69381682Y-92652000D01*
X69361044Y-92495238D01*
X69351094Y-92471218D01*
X69331517Y-92423952D01*
X69324048Y-92354483D01*
X69355324Y-92292004D01*
X69415413Y-92256352D01*
X69446078Y-92252500D01*
X69781068Y-92252500D01*
X69848107Y-92272185D01*
G37*
%TD.AperFunction*%
%TA.AperFunction,Conductor*%
G36*
X90774894Y-90382185D02*
G01*
X90820649Y-90434989D01*
X90830593Y-90504147D01*
X90824897Y-90527454D01*
X90818074Y-90546951D01*
X90815300Y-90576539D01*
X90815300Y-90743338D01*
X90805000Y-90778415D01*
X90805000Y-92298500D01*
X90785315Y-92365539D01*
X90732511Y-92411294D01*
X90681000Y-92422500D01*
X82440856Y-92422500D01*
X82351712Y-92446386D01*
X82351709Y-92446387D01*
X82271791Y-92492527D01*
X82271786Y-92492531D01*
X79183952Y-95580364D01*
X79122629Y-95613849D01*
X79060277Y-95611344D01*
X78928682Y-95571426D01*
X78928683Y-95571426D01*
X78740000Y-95552843D01*
X78551318Y-95571426D01*
X78444194Y-95603921D01*
X78369885Y-95626463D01*
X78369882Y-95626464D01*
X78369880Y-95626465D01*
X78369877Y-95626466D01*
X78202681Y-95715834D01*
X78202674Y-95715838D01*
X78056116Y-95836116D01*
X77988797Y-95918145D01*
X77931051Y-95957479D01*
X77861206Y-95959350D01*
X77801438Y-95923162D01*
X77778383Y-95886932D01*
X77728409Y-95766282D01*
X77728401Y-95766266D01*
X77616952Y-95573232D01*
X77616948Y-95573225D01*
X77615568Y-95571427D01*
X77549097Y-95484801D01*
X77549096Y-95484800D01*
X77481247Y-95396376D01*
X77481244Y-95396373D01*
X77481240Y-95396368D01*
X77436819Y-95351947D01*
X77403334Y-95290624D01*
X77400500Y-95264266D01*
X77400500Y-94528626D01*
X77420185Y-94461587D01*
X77436819Y-94440945D01*
X77897764Y-93980000D01*
X78385690Y-93492074D01*
X78496760Y-93339199D01*
X78582547Y-93170832D01*
X78640940Y-92991118D01*
X78654077Y-92908168D01*
X78670500Y-92804487D01*
X78670500Y-90486500D01*
X78690185Y-90419461D01*
X78742989Y-90373706D01*
X78794500Y-90362500D01*
X90707855Y-90362500D01*
X90774894Y-90382185D01*
G37*
%TD.AperFunction*%
%TD*%
M02*
