M48
; DRILL file {KiCad 8.0.5} date 2024-09-28T03:45:08+0900
; FORMAT={-:-/ absolute / inch / decimal}
; #@! TF.CreationDate,2024-09-28T03:45:08+09:00
; #@! TF.GenerationSoftware,Kicad,Pcbnew,8.0.5
; #@! TF.FileFunction,Plated,1,2,PTH
FMAT,2
INCH
; #@! TA.AperFunction,Plated,PTH,ViaDrill
T1C0.0157
; #@! TA.AperFunction,Plated,PTH,ComponentDrill
T2C0.0300
; #@! TA.AperFunction,Plated,PTH,ComponentDrill
T3C0.0315
; #@! TA.AperFunction,Plated,PTH,ComponentDrill
T4C0.0354
; #@! TA.AperFunction,Plated,PTH,ComponentDrill
T5C0.0374
; #@! TA.AperFunction,Plated,PTH,ComponentDrill
T6C0.0394
; #@! TA.AperFunction,Plated,PTH,ComponentDrill
T7C0.0433
; #@! TA.AperFunction,Plated,PTH,ComponentDrill
T8C0.0472
; #@! TA.AperFunction,Plated,PTH,ComponentDrill
T9C0.0748
; #@! TA.AperFunction,Plated,PTH,ComponentDrill
T10C0.1260
%
G90
G05
T1
X1.42Y-3.07
X1.425Y-3.25
X1.425Y-3.5
X1.425Y-3.65
X1.425Y-3.825
X1.45Y-2.69
X1.46Y-2.52
X1.54Y-2.59
X1.57Y-2.96
X1.6Y-3.25
X1.6Y-3.65
X1.6Y-3.825
X1.68Y-2.84
X1.7Y-2.52
X1.7Y-2.68
X1.77Y-2.59
X1.775Y-3.825
X1.8Y-2.96
X1.85Y-3.325
X1.86Y-3.54
X1.91Y-2.83
X1.93Y-2.51
X1.93Y-2.67
X1.95Y-3.45
X1.95Y-3.825
X2.0Y-2.59
X2.03Y-2.97
X2.05Y-3.55
X2.075Y-3.325
X2.14Y-2.84
X2.15Y-3.23
X2.16Y-2.52
X2.17Y-2.68
X2.175Y-3.45
X2.22Y-2.59
X2.22Y-3.03
X2.26Y-2.95
X2.275Y-3.325
X2.3Y-3.85
X2.38Y-2.53
X2.38Y-2.67
X2.47Y-3.22
X2.475Y-3.325
X2.475Y-3.45
X2.48Y-2.53
X2.48Y-2.81
X2.5Y-3.85
X2.508Y-3.278
X2.65Y-3.45
X2.67Y-2.53
X2.67Y-2.66
X2.67Y-2.82
X2.67Y-2.98
X2.7077Y-3.6477
X2.8Y-3.45
X3.0Y-3.26
X3.07Y-3.02
X3.07Y-3.2
X3.08Y-3.74
X3.127Y-3.451
X3.15Y-3.59
X3.15Y-3.69
X3.15Y-3.85
X3.175Y-3.4
X3.23Y-3.02
X3.23Y-3.3
X3.26Y-3.72
X3.32Y-3.59
X3.325Y-3.4
X3.35Y-3.85
X3.41Y-3.02
X3.41Y-3.3
X3.46Y-3.72
X3.475Y-3.4
X3.51Y-3.02
X3.51Y-3.22
X3.51Y-3.3
X3.51Y-3.59
X3.625Y-3.4
X3.66Y-3.02
X3.66Y-3.13
X3.675Y-3.3
X3.675Y-3.5
X3.675Y-3.7
X3.675Y-3.825
X3.81Y-3.02
X3.81Y-3.13
X3.81Y-3.21
X3.825Y-3.6
X3.825Y-3.7
X3.825Y-3.825
X3.8431Y-3.3
X3.88Y-3.21
X3.9Y-3.3
X3.95Y-3.475
X3.95Y-3.6
X4.0Y-3.7
X4.0Y-3.825
X4.075Y-3.35
X4.075Y-3.475
X4.075Y-3.6
X4.08Y-3.24
X4.15Y-3.05
X4.15Y-3.15
X4.175Y-3.35
X4.175Y-3.475
X4.175Y-3.7
X4.175Y-3.825
X4.25Y-3.05
X4.25Y-3.14
T2
X2.05Y-3.1
X2.05Y-3.2
X2.05Y-3.7
X2.05Y-3.8
X2.15Y-3.1
X2.15Y-3.8
X2.25Y-3.8
X2.35Y-3.8
X2.45Y-3.8
X2.55Y-3.8
X2.65Y-3.1
X2.65Y-3.8
X2.75Y-3.1
X2.75Y-3.2
X2.75Y-3.7
X2.75Y-3.8
X2.9Y-3.1
X2.9Y-3.2
X2.9Y-3.7
X2.9Y-3.8
X3.0Y-3.1
X3.0Y-3.8
X3.1Y-3.8
X3.2Y-3.8
X3.3Y-3.8
X3.4Y-3.8
X3.5Y-3.1
X3.5Y-3.8
X3.6Y-3.1
X3.6Y-3.2
X3.6Y-3.7
X3.6Y-3.8
X3.75Y-3.2
X3.75Y-3.3
X3.75Y-3.4
X3.75Y-3.5
X3.75Y-3.6
X3.75Y-3.7
X3.75Y-3.8
X4.25Y-3.2
X4.25Y-3.3
X4.25Y-3.4
X4.25Y-3.5
X4.25Y-3.6
X4.25Y-3.7
X4.25Y-3.8
T3
X1.829Y-3.0956
X1.829Y-3.194
X2.55Y-2.86
X2.55Y-2.9584
X3.05Y-3.4616
X3.05Y-3.56
X3.11Y-3.26
X3.11Y-3.3387
T4
X1.4948Y-3.155
X1.5948Y-3.155
T5
X1.567Y-2.6761
X1.567Y-2.7746
X1.567Y-2.873
X1.7973Y-2.6761
X1.7973Y-2.7746
X1.7973Y-2.873
X2.0276Y-2.6761
X2.0276Y-2.7746
X2.0276Y-2.873
X2.2579Y-2.6761
X2.2579Y-2.7746
X2.2579Y-2.873
T6
X1.4469Y-3.775
X1.88Y-3.775
X2.5108Y-2.5993
X2.6092Y-2.5993
X2.87Y-2.32
X2.87Y-2.42
X2.87Y-2.52
X2.87Y-2.62
X2.87Y-2.72
X3.77Y-2.42
X3.77Y-2.52
X3.77Y-2.62
T7
X2.95Y-3.36
X2.95Y-3.46
X2.95Y-3.56
T8
X3.0201Y-2.3621
X3.0201Y-2.4408
X3.0201Y-2.5196
X3.0201Y-2.5983
X3.0201Y-2.6771
X3.591Y-2.4211
X3.591Y-2.5196
X3.591Y-2.618
T9
X1.565Y-3.3813
X1.7619Y-3.3813
T10
X2.35Y-3.125
X3.325Y-3.125
X4.0Y-3.125
M30
