%TF.GenerationSoftware,KiCad,Pcbnew,8.0.5*%
%TF.CreationDate,2024-09-28T03:45:08+09:00*%
%TF.ProjectId,_____,b5fcdcfa-7f2e-46b6-9963-61645f706362,rev?*%
%TF.SameCoordinates,Original*%
%TF.FileFunction,Legend,Top*%
%TF.FilePolarity,Positive*%
%FSLAX46Y46*%
G04 Gerber Fmt 4.6, Leading zero omitted, Abs format (unit mm)*
G04 Created by KiCad (PCBNEW 8.0.5) date 2024-09-28 03:45:08*
%MOMM*%
%LPD*%
G01*
G04 APERTURE LIST*
G04 Aperture macros list*
%AMRoundRect*
0 Rectangle with rounded corners*
0 $1 Rounding radius*
0 $2 $3 $4 $5 $6 $7 $8 $9 X,Y pos of 4 corners*
0 Add a 4 corners polygon primitive as box body*
4,1,4,$2,$3,$4,$5,$6,$7,$8,$9,$2,$3,0*
0 Add four circle primitives for the rounded corners*
1,1,$1+$1,$2,$3*
1,1,$1+$1,$4,$5*
1,1,$1+$1,$6,$7*
1,1,$1+$1,$8,$9*
0 Add four rect primitives between the rounded corners*
20,1,$1+$1,$2,$3,$4,$5,0*
20,1,$1+$1,$4,$5,$6,$7,0*
20,1,$1+$1,$6,$7,$8,$9,0*
20,1,$1+$1,$8,$9,$2,$3,0*%
G04 Aperture macros list end*
%ADD10C,0.150000*%
%ADD11C,0.100000*%
%ADD12C,0.120000*%
%ADD13C,0.200000*%
%ADD14C,1.600000*%
%ADD15C,1.524000*%
%ADD16R,1.524000X1.524000*%
%ADD17RoundRect,0.237500X-0.300000X-0.237500X0.300000X-0.237500X0.300000X0.237500X-0.300000X0.237500X0*%
%ADD18C,1.750000*%
%ADD19C,5.600000*%
%ADD20R,1.700000X1.700000*%
%ADD21O,1.700000X1.700000*%
%ADD22RoundRect,0.237500X0.237500X-0.250000X0.237500X0.250000X-0.237500X0.250000X-0.237500X-0.250000X0*%
%ADD23R,1.600000X1.600000*%
%ADD24O,3.500000X3.500000*%
%ADD25R,2.000000X1.905000*%
%ADD26O,2.000000X1.905000*%
%ADD27C,3.500000*%
%ADD28R,3.500000X3.500000*%
%ADD29C,1.400000*%
%ADD30RoundRect,0.250000X-0.725000X0.600000X-0.725000X-0.600000X0.725000X-0.600000X0.725000X0.600000X0*%
%ADD31O,1.950000X1.700000*%
%ADD32RoundRect,0.250000X-0.600000X-0.750000X0.600000X-0.750000X0.600000X0.750000X-0.600000X0.750000X0*%
%ADD33O,1.700000X2.000000*%
%ADD34R,1.800000X1.800000*%
%ADD35C,1.800000*%
%ADD36RoundRect,0.237500X-0.250000X-0.237500X0.250000X-0.237500X0.250000X0.237500X-0.250000X0.237500X0*%
G04 APERTURE END LIST*
D10*
X69342000Y-71120000D02*
X69342000Y-62992000D01*
X70866000Y-62992000D02*
X70866000Y-71120000D01*
X79841580Y-89320666D02*
X79889200Y-89368285D01*
X79889200Y-89368285D02*
X79936819Y-89511142D01*
X79936819Y-89511142D02*
X79936819Y-89606380D01*
X79936819Y-89606380D02*
X79889200Y-89749237D01*
X79889200Y-89749237D02*
X79793961Y-89844475D01*
X79793961Y-89844475D02*
X79698723Y-89892094D01*
X79698723Y-89892094D02*
X79508247Y-89939713D01*
X79508247Y-89939713D02*
X79365390Y-89939713D01*
X79365390Y-89939713D02*
X79174914Y-89892094D01*
X79174914Y-89892094D02*
X79079676Y-89844475D01*
X79079676Y-89844475D02*
X78984438Y-89749237D01*
X78984438Y-89749237D02*
X78936819Y-89606380D01*
X78936819Y-89606380D02*
X78936819Y-89511142D01*
X78936819Y-89511142D02*
X78984438Y-89368285D01*
X78984438Y-89368285D02*
X79032057Y-89320666D01*
X79936819Y-88368285D02*
X79936819Y-88939713D01*
X79936819Y-88653999D02*
X78936819Y-88653999D01*
X78936819Y-88653999D02*
X79079676Y-88749237D01*
X79079676Y-88749237D02*
X79174914Y-88844475D01*
X79174914Y-88844475D02*
X79222533Y-88939713D01*
D11*
X100838095Y-88357419D02*
X100838095Y-89166942D01*
X100838095Y-89166942D02*
X100885714Y-89262180D01*
X100885714Y-89262180D02*
X100933333Y-89309800D01*
X100933333Y-89309800D02*
X101028571Y-89357419D01*
X101028571Y-89357419D02*
X101219047Y-89357419D01*
X101219047Y-89357419D02*
X101314285Y-89309800D01*
X101314285Y-89309800D02*
X101361904Y-89262180D01*
X101361904Y-89262180D02*
X101409523Y-89166942D01*
X101409523Y-89166942D02*
X101409523Y-88357419D01*
X102409523Y-89357419D02*
X101838095Y-89357419D01*
X102123809Y-89357419D02*
X102123809Y-88357419D01*
X102123809Y-88357419D02*
X102028571Y-88500276D01*
X102028571Y-88500276D02*
X101933333Y-88595514D01*
X101933333Y-88595514D02*
X101838095Y-88643133D01*
X97347693Y-81152419D02*
X96776265Y-81152419D01*
X97061979Y-81152419D02*
X97061979Y-80152419D01*
X97061979Y-80152419D02*
X96966741Y-80295276D01*
X96966741Y-80295276D02*
X96871503Y-80390514D01*
X96871503Y-80390514D02*
X96776265Y-80438133D01*
D10*
X43775333Y-64367580D02*
X43727714Y-64415200D01*
X43727714Y-64415200D02*
X43584857Y-64462819D01*
X43584857Y-64462819D02*
X43489619Y-64462819D01*
X43489619Y-64462819D02*
X43346762Y-64415200D01*
X43346762Y-64415200D02*
X43251524Y-64319961D01*
X43251524Y-64319961D02*
X43203905Y-64224723D01*
X43203905Y-64224723D02*
X43156286Y-64034247D01*
X43156286Y-64034247D02*
X43156286Y-63891390D01*
X43156286Y-63891390D02*
X43203905Y-63700914D01*
X43203905Y-63700914D02*
X43251524Y-63605676D01*
X43251524Y-63605676D02*
X43346762Y-63510438D01*
X43346762Y-63510438D02*
X43489619Y-63462819D01*
X43489619Y-63462819D02*
X43584857Y-63462819D01*
X43584857Y-63462819D02*
X43727714Y-63510438D01*
X43727714Y-63510438D02*
X43775333Y-63558057D01*
X44346762Y-63891390D02*
X44251524Y-63843771D01*
X44251524Y-63843771D02*
X44203905Y-63796152D01*
X44203905Y-63796152D02*
X44156286Y-63700914D01*
X44156286Y-63700914D02*
X44156286Y-63653295D01*
X44156286Y-63653295D02*
X44203905Y-63558057D01*
X44203905Y-63558057D02*
X44251524Y-63510438D01*
X44251524Y-63510438D02*
X44346762Y-63462819D01*
X44346762Y-63462819D02*
X44537238Y-63462819D01*
X44537238Y-63462819D02*
X44632476Y-63510438D01*
X44632476Y-63510438D02*
X44680095Y-63558057D01*
X44680095Y-63558057D02*
X44727714Y-63653295D01*
X44727714Y-63653295D02*
X44727714Y-63700914D01*
X44727714Y-63700914D02*
X44680095Y-63796152D01*
X44680095Y-63796152D02*
X44632476Y-63843771D01*
X44632476Y-63843771D02*
X44537238Y-63891390D01*
X44537238Y-63891390D02*
X44346762Y-63891390D01*
X44346762Y-63891390D02*
X44251524Y-63939009D01*
X44251524Y-63939009D02*
X44203905Y-63986628D01*
X44203905Y-63986628D02*
X44156286Y-64081866D01*
X44156286Y-64081866D02*
X44156286Y-64272342D01*
X44156286Y-64272342D02*
X44203905Y-64367580D01*
X44203905Y-64367580D02*
X44251524Y-64415200D01*
X44251524Y-64415200D02*
X44346762Y-64462819D01*
X44346762Y-64462819D02*
X44537238Y-64462819D01*
X44537238Y-64462819D02*
X44632476Y-64415200D01*
X44632476Y-64415200D02*
X44680095Y-64367580D01*
X44680095Y-64367580D02*
X44727714Y-64272342D01*
X44727714Y-64272342D02*
X44727714Y-64081866D01*
X44727714Y-64081866D02*
X44680095Y-63986628D01*
X44680095Y-63986628D02*
X44632476Y-63939009D01*
X44632476Y-63939009D02*
X44537238Y-63891390D01*
D11*
X83645009Y-65711485D02*
X83645009Y-65378152D01*
X84168819Y-65235295D02*
X84168819Y-65711485D01*
X84168819Y-65711485D02*
X83168819Y-65711485D01*
X83168819Y-65711485D02*
X83168819Y-65235295D01*
X84168819Y-64806723D02*
X83168819Y-64806723D01*
X83168819Y-64806723D02*
X84168819Y-64235295D01*
X84168819Y-64235295D02*
X83168819Y-64235295D01*
X84073580Y-63187676D02*
X84121200Y-63235295D01*
X84121200Y-63235295D02*
X84168819Y-63378152D01*
X84168819Y-63378152D02*
X84168819Y-63473390D01*
X84168819Y-63473390D02*
X84121200Y-63616247D01*
X84121200Y-63616247D02*
X84025961Y-63711485D01*
X84025961Y-63711485D02*
X83930723Y-63759104D01*
X83930723Y-63759104D02*
X83740247Y-63806723D01*
X83740247Y-63806723D02*
X83597390Y-63806723D01*
X83597390Y-63806723D02*
X83406914Y-63759104D01*
X83406914Y-63759104D02*
X83311676Y-63711485D01*
X83311676Y-63711485D02*
X83216438Y-63616247D01*
X83216438Y-63616247D02*
X83168819Y-63473390D01*
X83168819Y-63473390D02*
X83168819Y-63378152D01*
X83168819Y-63378152D02*
X83216438Y-63235295D01*
X83216438Y-63235295D02*
X83264057Y-63187676D01*
X84168819Y-62235295D02*
X84168819Y-62806723D01*
X84168819Y-62521009D02*
X83168819Y-62521009D01*
X83168819Y-62521009D02*
X83311676Y-62616247D01*
X83311676Y-62616247D02*
X83406914Y-62711485D01*
X83406914Y-62711485D02*
X83454533Y-62806723D01*
D10*
X49617333Y-64367580D02*
X49569714Y-64415200D01*
X49569714Y-64415200D02*
X49426857Y-64462819D01*
X49426857Y-64462819D02*
X49331619Y-64462819D01*
X49331619Y-64462819D02*
X49188762Y-64415200D01*
X49188762Y-64415200D02*
X49093524Y-64319961D01*
X49093524Y-64319961D02*
X49045905Y-64224723D01*
X49045905Y-64224723D02*
X48998286Y-64034247D01*
X48998286Y-64034247D02*
X48998286Y-63891390D01*
X48998286Y-63891390D02*
X49045905Y-63700914D01*
X49045905Y-63700914D02*
X49093524Y-63605676D01*
X49093524Y-63605676D02*
X49188762Y-63510438D01*
X49188762Y-63510438D02*
X49331619Y-63462819D01*
X49331619Y-63462819D02*
X49426857Y-63462819D01*
X49426857Y-63462819D02*
X49569714Y-63510438D01*
X49569714Y-63510438D02*
X49617333Y-63558057D01*
X50474476Y-63462819D02*
X50284000Y-63462819D01*
X50284000Y-63462819D02*
X50188762Y-63510438D01*
X50188762Y-63510438D02*
X50141143Y-63558057D01*
X50141143Y-63558057D02*
X50045905Y-63700914D01*
X50045905Y-63700914D02*
X49998286Y-63891390D01*
X49998286Y-63891390D02*
X49998286Y-64272342D01*
X49998286Y-64272342D02*
X50045905Y-64367580D01*
X50045905Y-64367580D02*
X50093524Y-64415200D01*
X50093524Y-64415200D02*
X50188762Y-64462819D01*
X50188762Y-64462819D02*
X50379238Y-64462819D01*
X50379238Y-64462819D02*
X50474476Y-64415200D01*
X50474476Y-64415200D02*
X50522095Y-64367580D01*
X50522095Y-64367580D02*
X50569714Y-64272342D01*
X50569714Y-64272342D02*
X50569714Y-64034247D01*
X50569714Y-64034247D02*
X50522095Y-63939009D01*
X50522095Y-63939009D02*
X50474476Y-63891390D01*
X50474476Y-63891390D02*
X50379238Y-63843771D01*
X50379238Y-63843771D02*
X50188762Y-63843771D01*
X50188762Y-63843771D02*
X50093524Y-63891390D01*
X50093524Y-63891390D02*
X50045905Y-63939009D01*
X50045905Y-63939009D02*
X49998286Y-64034247D01*
X72564666Y-70872819D02*
X72564666Y-71587104D01*
X72564666Y-71587104D02*
X72517047Y-71729961D01*
X72517047Y-71729961D02*
X72421809Y-71825200D01*
X72421809Y-71825200D02*
X72278952Y-71872819D01*
X72278952Y-71872819D02*
X72183714Y-71872819D01*
X72945619Y-70872819D02*
X73612285Y-70872819D01*
X73612285Y-70872819D02*
X73183714Y-71872819D01*
X90515619Y-90133466D02*
X90039428Y-90466799D01*
X90515619Y-90704894D02*
X89515619Y-90704894D01*
X89515619Y-90704894D02*
X89515619Y-90323942D01*
X89515619Y-90323942D02*
X89563238Y-90228704D01*
X89563238Y-90228704D02*
X89610857Y-90181085D01*
X89610857Y-90181085D02*
X89706095Y-90133466D01*
X89706095Y-90133466D02*
X89848952Y-90133466D01*
X89848952Y-90133466D02*
X89944190Y-90181085D01*
X89944190Y-90181085D02*
X89991809Y-90228704D01*
X89991809Y-90228704D02*
X90039428Y-90323942D01*
X90039428Y-90323942D02*
X90039428Y-90704894D01*
X89515619Y-89800132D02*
X89515619Y-89181085D01*
X89515619Y-89181085D02*
X89896571Y-89514418D01*
X89896571Y-89514418D02*
X89896571Y-89371561D01*
X89896571Y-89371561D02*
X89944190Y-89276323D01*
X89944190Y-89276323D02*
X89991809Y-89228704D01*
X89991809Y-89228704D02*
X90087047Y-89181085D01*
X90087047Y-89181085D02*
X90325142Y-89181085D01*
X90325142Y-89181085D02*
X90420380Y-89228704D01*
X90420380Y-89228704D02*
X90468000Y-89276323D01*
X90468000Y-89276323D02*
X90515619Y-89371561D01*
X90515619Y-89371561D02*
X90515619Y-89657275D01*
X90515619Y-89657275D02*
X90468000Y-89752513D01*
X90468000Y-89752513D02*
X90420380Y-89800132D01*
X95424666Y-68332819D02*
X95424666Y-69047104D01*
X95424666Y-69047104D02*
X95377047Y-69189961D01*
X95377047Y-69189961D02*
X95281809Y-69285200D01*
X95281809Y-69285200D02*
X95138952Y-69332819D01*
X95138952Y-69332819D02*
X95043714Y-69332819D01*
X96043714Y-68761390D02*
X95948476Y-68713771D01*
X95948476Y-68713771D02*
X95900857Y-68666152D01*
X95900857Y-68666152D02*
X95853238Y-68570914D01*
X95853238Y-68570914D02*
X95853238Y-68523295D01*
X95853238Y-68523295D02*
X95900857Y-68428057D01*
X95900857Y-68428057D02*
X95948476Y-68380438D01*
X95948476Y-68380438D02*
X96043714Y-68332819D01*
X96043714Y-68332819D02*
X96234190Y-68332819D01*
X96234190Y-68332819D02*
X96329428Y-68380438D01*
X96329428Y-68380438D02*
X96377047Y-68428057D01*
X96377047Y-68428057D02*
X96424666Y-68523295D01*
X96424666Y-68523295D02*
X96424666Y-68570914D01*
X96424666Y-68570914D02*
X96377047Y-68666152D01*
X96377047Y-68666152D02*
X96329428Y-68713771D01*
X96329428Y-68713771D02*
X96234190Y-68761390D01*
X96234190Y-68761390D02*
X96043714Y-68761390D01*
X96043714Y-68761390D02*
X95948476Y-68809009D01*
X95948476Y-68809009D02*
X95900857Y-68856628D01*
X95900857Y-68856628D02*
X95853238Y-68951866D01*
X95853238Y-68951866D02*
X95853238Y-69142342D01*
X95853238Y-69142342D02*
X95900857Y-69237580D01*
X95900857Y-69237580D02*
X95948476Y-69285200D01*
X95948476Y-69285200D02*
X96043714Y-69332819D01*
X96043714Y-69332819D02*
X96234190Y-69332819D01*
X96234190Y-69332819D02*
X96329428Y-69285200D01*
X96329428Y-69285200D02*
X96377047Y-69237580D01*
X96377047Y-69237580D02*
X96424666Y-69142342D01*
X96424666Y-69142342D02*
X96424666Y-68951866D01*
X96424666Y-68951866D02*
X96377047Y-68856628D01*
X96377047Y-68856628D02*
X96329428Y-68809009D01*
X96329428Y-68809009D02*
X96234190Y-68761390D01*
X99147333Y-88592819D02*
X98814000Y-88116628D01*
X98575905Y-88592819D02*
X98575905Y-87592819D01*
X98575905Y-87592819D02*
X98956857Y-87592819D01*
X98956857Y-87592819D02*
X99052095Y-87640438D01*
X99052095Y-87640438D02*
X99099714Y-87688057D01*
X99099714Y-87688057D02*
X99147333Y-87783295D01*
X99147333Y-87783295D02*
X99147333Y-87926152D01*
X99147333Y-87926152D02*
X99099714Y-88021390D01*
X99099714Y-88021390D02*
X99052095Y-88069009D01*
X99052095Y-88069009D02*
X98956857Y-88116628D01*
X98956857Y-88116628D02*
X98575905Y-88116628D01*
X100099714Y-88592819D02*
X99528286Y-88592819D01*
X99814000Y-88592819D02*
X99814000Y-87592819D01*
X99814000Y-87592819D02*
X99718762Y-87735676D01*
X99718762Y-87735676D02*
X99623524Y-87830914D01*
X99623524Y-87830914D02*
X99528286Y-87878533D01*
X46264533Y-84585980D02*
X46216914Y-84633600D01*
X46216914Y-84633600D02*
X46074057Y-84681219D01*
X46074057Y-84681219D02*
X45978819Y-84681219D01*
X45978819Y-84681219D02*
X45835962Y-84633600D01*
X45835962Y-84633600D02*
X45740724Y-84538361D01*
X45740724Y-84538361D02*
X45693105Y-84443123D01*
X45693105Y-84443123D02*
X45645486Y-84252647D01*
X45645486Y-84252647D02*
X45645486Y-84109790D01*
X45645486Y-84109790D02*
X45693105Y-83919314D01*
X45693105Y-83919314D02*
X45740724Y-83824076D01*
X45740724Y-83824076D02*
X45835962Y-83728838D01*
X45835962Y-83728838D02*
X45978819Y-83681219D01*
X45978819Y-83681219D02*
X46074057Y-83681219D01*
X46074057Y-83681219D02*
X46216914Y-83728838D01*
X46216914Y-83728838D02*
X46264533Y-83776457D01*
X47169295Y-83681219D02*
X46693105Y-83681219D01*
X46693105Y-83681219D02*
X46645486Y-84157409D01*
X46645486Y-84157409D02*
X46693105Y-84109790D01*
X46693105Y-84109790D02*
X46788343Y-84062171D01*
X46788343Y-84062171D02*
X47026438Y-84062171D01*
X47026438Y-84062171D02*
X47121676Y-84109790D01*
X47121676Y-84109790D02*
X47169295Y-84157409D01*
X47169295Y-84157409D02*
X47216914Y-84252647D01*
X47216914Y-84252647D02*
X47216914Y-84490742D01*
X47216914Y-84490742D02*
X47169295Y-84585980D01*
X47169295Y-84585980D02*
X47121676Y-84633600D01*
X47121676Y-84633600D02*
X47026438Y-84681219D01*
X47026438Y-84681219D02*
X46788343Y-84681219D01*
X46788343Y-84681219D02*
X46693105Y-84633600D01*
X46693105Y-84633600D02*
X46645486Y-84585980D01*
X54804819Y-89074476D02*
X54804819Y-89550666D01*
X54804819Y-89550666D02*
X53804819Y-89550666D01*
X54804819Y-88741142D02*
X53804819Y-88741142D01*
X53804819Y-88741142D02*
X53804819Y-88503047D01*
X53804819Y-88503047D02*
X53852438Y-88360190D01*
X53852438Y-88360190D02*
X53947676Y-88264952D01*
X53947676Y-88264952D02*
X54042914Y-88217333D01*
X54042914Y-88217333D02*
X54233390Y-88169714D01*
X54233390Y-88169714D02*
X54376247Y-88169714D01*
X54376247Y-88169714D02*
X54566723Y-88217333D01*
X54566723Y-88217333D02*
X54661961Y-88264952D01*
X54661961Y-88264952D02*
X54757200Y-88360190D01*
X54757200Y-88360190D02*
X54804819Y-88503047D01*
X54804819Y-88503047D02*
X54804819Y-88741142D01*
X53804819Y-87550666D02*
X53804819Y-87360190D01*
X53804819Y-87360190D02*
X53852438Y-87264952D01*
X53852438Y-87264952D02*
X53947676Y-87169714D01*
X53947676Y-87169714D02*
X54138152Y-87122095D01*
X54138152Y-87122095D02*
X54471485Y-87122095D01*
X54471485Y-87122095D02*
X54661961Y-87169714D01*
X54661961Y-87169714D02*
X54757200Y-87264952D01*
X54757200Y-87264952D02*
X54804819Y-87360190D01*
X54804819Y-87360190D02*
X54804819Y-87550666D01*
X54804819Y-87550666D02*
X54757200Y-87645904D01*
X54757200Y-87645904D02*
X54661961Y-87741142D01*
X54661961Y-87741142D02*
X54471485Y-87788761D01*
X54471485Y-87788761D02*
X54138152Y-87788761D01*
X54138152Y-87788761D02*
X53947676Y-87741142D01*
X53947676Y-87741142D02*
X53852438Y-87645904D01*
X53852438Y-87645904D02*
X53804819Y-87550666D01*
X54804819Y-86169714D02*
X54804819Y-86741142D01*
X54804819Y-86455428D02*
X53804819Y-86455428D01*
X53804819Y-86455428D02*
X53947676Y-86550666D01*
X53947676Y-86550666D02*
X54042914Y-86645904D01*
X54042914Y-86645904D02*
X54090533Y-86741142D01*
X42056619Y-70807533D02*
X42770904Y-70807533D01*
X42770904Y-70807533D02*
X42913761Y-70855152D01*
X42913761Y-70855152D02*
X43009000Y-70950390D01*
X43009000Y-70950390D02*
X43056619Y-71093247D01*
X43056619Y-71093247D02*
X43056619Y-71188485D01*
X42056619Y-69855152D02*
X42056619Y-70331342D01*
X42056619Y-70331342D02*
X42532809Y-70378961D01*
X42532809Y-70378961D02*
X42485190Y-70331342D01*
X42485190Y-70331342D02*
X42437571Y-70236104D01*
X42437571Y-70236104D02*
X42437571Y-69998009D01*
X42437571Y-69998009D02*
X42485190Y-69902771D01*
X42485190Y-69902771D02*
X42532809Y-69855152D01*
X42532809Y-69855152D02*
X42628047Y-69807533D01*
X42628047Y-69807533D02*
X42866142Y-69807533D01*
X42866142Y-69807533D02*
X42961380Y-69855152D01*
X42961380Y-69855152D02*
X43009000Y-69902771D01*
X43009000Y-69902771D02*
X43056619Y-69998009D01*
X43056619Y-69998009D02*
X43056619Y-70236104D01*
X43056619Y-70236104D02*
X43009000Y-70331342D01*
X43009000Y-70331342D02*
X42961380Y-70378961D01*
X82909580Y-83986666D02*
X82957200Y-84034285D01*
X82957200Y-84034285D02*
X83004819Y-84177142D01*
X83004819Y-84177142D02*
X83004819Y-84272380D01*
X83004819Y-84272380D02*
X82957200Y-84415237D01*
X82957200Y-84415237D02*
X82861961Y-84510475D01*
X82861961Y-84510475D02*
X82766723Y-84558094D01*
X82766723Y-84558094D02*
X82576247Y-84605713D01*
X82576247Y-84605713D02*
X82433390Y-84605713D01*
X82433390Y-84605713D02*
X82242914Y-84558094D01*
X82242914Y-84558094D02*
X82147676Y-84510475D01*
X82147676Y-84510475D02*
X82052438Y-84415237D01*
X82052438Y-84415237D02*
X82004819Y-84272380D01*
X82004819Y-84272380D02*
X82004819Y-84177142D01*
X82004819Y-84177142D02*
X82052438Y-84034285D01*
X82052438Y-84034285D02*
X82100057Y-83986666D01*
X82100057Y-83605713D02*
X82052438Y-83558094D01*
X82052438Y-83558094D02*
X82004819Y-83462856D01*
X82004819Y-83462856D02*
X82004819Y-83224761D01*
X82004819Y-83224761D02*
X82052438Y-83129523D01*
X82052438Y-83129523D02*
X82100057Y-83081904D01*
X82100057Y-83081904D02*
X82195295Y-83034285D01*
X82195295Y-83034285D02*
X82290533Y-83034285D01*
X82290533Y-83034285D02*
X82433390Y-83081904D01*
X82433390Y-83081904D02*
X83004819Y-83653332D01*
X83004819Y-83653332D02*
X83004819Y-83034285D01*
X36949142Y-64367580D02*
X36901523Y-64415200D01*
X36901523Y-64415200D02*
X36758666Y-64462819D01*
X36758666Y-64462819D02*
X36663428Y-64462819D01*
X36663428Y-64462819D02*
X36520571Y-64415200D01*
X36520571Y-64415200D02*
X36425333Y-64319961D01*
X36425333Y-64319961D02*
X36377714Y-64224723D01*
X36377714Y-64224723D02*
X36330095Y-64034247D01*
X36330095Y-64034247D02*
X36330095Y-63891390D01*
X36330095Y-63891390D02*
X36377714Y-63700914D01*
X36377714Y-63700914D02*
X36425333Y-63605676D01*
X36425333Y-63605676D02*
X36520571Y-63510438D01*
X36520571Y-63510438D02*
X36663428Y-63462819D01*
X36663428Y-63462819D02*
X36758666Y-63462819D01*
X36758666Y-63462819D02*
X36901523Y-63510438D01*
X36901523Y-63510438D02*
X36949142Y-63558057D01*
X37901523Y-64462819D02*
X37330095Y-64462819D01*
X37615809Y-64462819D02*
X37615809Y-63462819D01*
X37615809Y-63462819D02*
X37520571Y-63605676D01*
X37520571Y-63605676D02*
X37425333Y-63700914D01*
X37425333Y-63700914D02*
X37330095Y-63748533D01*
X38520571Y-63462819D02*
X38615809Y-63462819D01*
X38615809Y-63462819D02*
X38711047Y-63510438D01*
X38711047Y-63510438D02*
X38758666Y-63558057D01*
X38758666Y-63558057D02*
X38806285Y-63653295D01*
X38806285Y-63653295D02*
X38853904Y-63843771D01*
X38853904Y-63843771D02*
X38853904Y-64081866D01*
X38853904Y-64081866D02*
X38806285Y-64272342D01*
X38806285Y-64272342D02*
X38758666Y-64367580D01*
X38758666Y-64367580D02*
X38711047Y-64415200D01*
X38711047Y-64415200D02*
X38615809Y-64462819D01*
X38615809Y-64462819D02*
X38520571Y-64462819D01*
X38520571Y-64462819D02*
X38425333Y-64415200D01*
X38425333Y-64415200D02*
X38377714Y-64367580D01*
X38377714Y-64367580D02*
X38330095Y-64272342D01*
X38330095Y-64272342D02*
X38282476Y-64081866D01*
X38282476Y-64081866D02*
X38282476Y-63843771D01*
X38282476Y-63843771D02*
X38330095Y-63653295D01*
X38330095Y-63653295D02*
X38377714Y-63558057D01*
X38377714Y-63558057D02*
X38425333Y-63510438D01*
X38425333Y-63510438D02*
X38520571Y-63462819D01*
X60811580Y-74080666D02*
X60859200Y-74128285D01*
X60859200Y-74128285D02*
X60906819Y-74271142D01*
X60906819Y-74271142D02*
X60906819Y-74366380D01*
X60906819Y-74366380D02*
X60859200Y-74509237D01*
X60859200Y-74509237D02*
X60763961Y-74604475D01*
X60763961Y-74604475D02*
X60668723Y-74652094D01*
X60668723Y-74652094D02*
X60478247Y-74699713D01*
X60478247Y-74699713D02*
X60335390Y-74699713D01*
X60335390Y-74699713D02*
X60144914Y-74652094D01*
X60144914Y-74652094D02*
X60049676Y-74604475D01*
X60049676Y-74604475D02*
X59954438Y-74509237D01*
X59954438Y-74509237D02*
X59906819Y-74366380D01*
X59906819Y-74366380D02*
X59906819Y-74271142D01*
X59906819Y-74271142D02*
X59954438Y-74128285D01*
X59954438Y-74128285D02*
X60002057Y-74080666D01*
X60240152Y-73223523D02*
X60906819Y-73223523D01*
X59859200Y-73461618D02*
X60573485Y-73699713D01*
X60573485Y-73699713D02*
X60573485Y-73080666D01*
X47906619Y-70807533D02*
X48620904Y-70807533D01*
X48620904Y-70807533D02*
X48763761Y-70855152D01*
X48763761Y-70855152D02*
X48859000Y-70950390D01*
X48859000Y-70950390D02*
X48906619Y-71093247D01*
X48906619Y-71093247D02*
X48906619Y-71188485D01*
X48239952Y-69902771D02*
X48906619Y-69902771D01*
X47859000Y-70140866D02*
X48573285Y-70378961D01*
X48573285Y-70378961D02*
X48573285Y-69759914D01*
X59606619Y-70807533D02*
X60320904Y-70807533D01*
X60320904Y-70807533D02*
X60463761Y-70855152D01*
X60463761Y-70855152D02*
X60559000Y-70950390D01*
X60559000Y-70950390D02*
X60606619Y-71093247D01*
X60606619Y-71093247D02*
X60606619Y-71188485D01*
X59701857Y-70378961D02*
X59654238Y-70331342D01*
X59654238Y-70331342D02*
X59606619Y-70236104D01*
X59606619Y-70236104D02*
X59606619Y-69998009D01*
X59606619Y-69998009D02*
X59654238Y-69902771D01*
X59654238Y-69902771D02*
X59701857Y-69855152D01*
X59701857Y-69855152D02*
X59797095Y-69807533D01*
X59797095Y-69807533D02*
X59892333Y-69807533D01*
X59892333Y-69807533D02*
X60035190Y-69855152D01*
X60035190Y-69855152D02*
X60606619Y-70426580D01*
X60606619Y-70426580D02*
X60606619Y-69807533D01*
X59652819Y-66881333D02*
X60367104Y-66881333D01*
X60367104Y-66881333D02*
X60509961Y-66928952D01*
X60509961Y-66928952D02*
X60605200Y-67024190D01*
X60605200Y-67024190D02*
X60652819Y-67167047D01*
X60652819Y-67167047D02*
X60652819Y-67262285D01*
X59652819Y-65976571D02*
X59652819Y-66167047D01*
X59652819Y-66167047D02*
X59700438Y-66262285D01*
X59700438Y-66262285D02*
X59748057Y-66309904D01*
X59748057Y-66309904D02*
X59890914Y-66405142D01*
X59890914Y-66405142D02*
X60081390Y-66452761D01*
X60081390Y-66452761D02*
X60462342Y-66452761D01*
X60462342Y-66452761D02*
X60557580Y-66405142D01*
X60557580Y-66405142D02*
X60605200Y-66357523D01*
X60605200Y-66357523D02*
X60652819Y-66262285D01*
X60652819Y-66262285D02*
X60652819Y-66071809D01*
X60652819Y-66071809D02*
X60605200Y-65976571D01*
X60605200Y-65976571D02*
X60557580Y-65928952D01*
X60557580Y-65928952D02*
X60462342Y-65881333D01*
X60462342Y-65881333D02*
X60224247Y-65881333D01*
X60224247Y-65881333D02*
X60129009Y-65928952D01*
X60129009Y-65928952D02*
X60081390Y-65976571D01*
X60081390Y-65976571D02*
X60033771Y-66071809D01*
X60033771Y-66071809D02*
X60033771Y-66262285D01*
X60033771Y-66262285D02*
X60081390Y-66357523D01*
X60081390Y-66357523D02*
X60129009Y-66405142D01*
X60129009Y-66405142D02*
X60224247Y-66452761D01*
X53756619Y-70807533D02*
X54470904Y-70807533D01*
X54470904Y-70807533D02*
X54613761Y-70855152D01*
X54613761Y-70855152D02*
X54709000Y-70950390D01*
X54709000Y-70950390D02*
X54756619Y-71093247D01*
X54756619Y-71093247D02*
X54756619Y-71188485D01*
X53756619Y-70426580D02*
X53756619Y-69807533D01*
X53756619Y-69807533D02*
X54137571Y-70140866D01*
X54137571Y-70140866D02*
X54137571Y-69998009D01*
X54137571Y-69998009D02*
X54185190Y-69902771D01*
X54185190Y-69902771D02*
X54232809Y-69855152D01*
X54232809Y-69855152D02*
X54328047Y-69807533D01*
X54328047Y-69807533D02*
X54566142Y-69807533D01*
X54566142Y-69807533D02*
X54661380Y-69855152D01*
X54661380Y-69855152D02*
X54709000Y-69902771D01*
X54709000Y-69902771D02*
X54756619Y-69998009D01*
X54756619Y-69998009D02*
X54756619Y-70283723D01*
X54756619Y-70283723D02*
X54709000Y-70378961D01*
X54709000Y-70378961D02*
X54661380Y-70426580D01*
X55459333Y-64367580D02*
X55411714Y-64415200D01*
X55411714Y-64415200D02*
X55268857Y-64462819D01*
X55268857Y-64462819D02*
X55173619Y-64462819D01*
X55173619Y-64462819D02*
X55030762Y-64415200D01*
X55030762Y-64415200D02*
X54935524Y-64319961D01*
X54935524Y-64319961D02*
X54887905Y-64224723D01*
X54887905Y-64224723D02*
X54840286Y-64034247D01*
X54840286Y-64034247D02*
X54840286Y-63891390D01*
X54840286Y-63891390D02*
X54887905Y-63700914D01*
X54887905Y-63700914D02*
X54935524Y-63605676D01*
X54935524Y-63605676D02*
X55030762Y-63510438D01*
X55030762Y-63510438D02*
X55173619Y-63462819D01*
X55173619Y-63462819D02*
X55268857Y-63462819D01*
X55268857Y-63462819D02*
X55411714Y-63510438D01*
X55411714Y-63510438D02*
X55459333Y-63558057D01*
X55792667Y-63462819D02*
X56411714Y-63462819D01*
X56411714Y-63462819D02*
X56078381Y-63843771D01*
X56078381Y-63843771D02*
X56221238Y-63843771D01*
X56221238Y-63843771D02*
X56316476Y-63891390D01*
X56316476Y-63891390D02*
X56364095Y-63939009D01*
X56364095Y-63939009D02*
X56411714Y-64034247D01*
X56411714Y-64034247D02*
X56411714Y-64272342D01*
X56411714Y-64272342D02*
X56364095Y-64367580D01*
X56364095Y-64367580D02*
X56316476Y-64415200D01*
X56316476Y-64415200D02*
X56221238Y-64462819D01*
X56221238Y-64462819D02*
X55935524Y-64462819D01*
X55935524Y-64462819D02*
X55840286Y-64415200D01*
X55840286Y-64415200D02*
X55792667Y-64367580D01*
X36268819Y-80748094D02*
X35268819Y-80748094D01*
X35268819Y-80748094D02*
X35268819Y-80509999D01*
X35268819Y-80509999D02*
X35316438Y-80367142D01*
X35316438Y-80367142D02*
X35411676Y-80271904D01*
X35411676Y-80271904D02*
X35506914Y-80224285D01*
X35506914Y-80224285D02*
X35697390Y-80176666D01*
X35697390Y-80176666D02*
X35840247Y-80176666D01*
X35840247Y-80176666D02*
X36030723Y-80224285D01*
X36030723Y-80224285D02*
X36125961Y-80271904D01*
X36125961Y-80271904D02*
X36221200Y-80367142D01*
X36221200Y-80367142D02*
X36268819Y-80509999D01*
X36268819Y-80509999D02*
X36268819Y-80748094D01*
X36268819Y-79224285D02*
X36268819Y-79795713D01*
X36268819Y-79509999D02*
X35268819Y-79509999D01*
X35268819Y-79509999D02*
X35411676Y-79605237D01*
X35411676Y-79605237D02*
X35506914Y-79700475D01*
X35506914Y-79700475D02*
X35554533Y-79795713D01*
X98361833Y-84114819D02*
X98028500Y-83638628D01*
X97790405Y-84114819D02*
X97790405Y-83114819D01*
X97790405Y-83114819D02*
X98171357Y-83114819D01*
X98171357Y-83114819D02*
X98266595Y-83162438D01*
X98266595Y-83162438D02*
X98314214Y-83210057D01*
X98314214Y-83210057D02*
X98361833Y-83305295D01*
X98361833Y-83305295D02*
X98361833Y-83448152D01*
X98361833Y-83448152D02*
X98314214Y-83543390D01*
X98314214Y-83543390D02*
X98266595Y-83591009D01*
X98266595Y-83591009D02*
X98171357Y-83638628D01*
X98171357Y-83638628D02*
X97790405Y-83638628D01*
X98742786Y-83210057D02*
X98790405Y-83162438D01*
X98790405Y-83162438D02*
X98885643Y-83114819D01*
X98885643Y-83114819D02*
X99123738Y-83114819D01*
X99123738Y-83114819D02*
X99218976Y-83162438D01*
X99218976Y-83162438D02*
X99266595Y-83210057D01*
X99266595Y-83210057D02*
X99314214Y-83305295D01*
X99314214Y-83305295D02*
X99314214Y-83400533D01*
X99314214Y-83400533D02*
X99266595Y-83543390D01*
X99266595Y-83543390D02*
X98695167Y-84114819D01*
X98695167Y-84114819D02*
X99314214Y-84114819D01*
D11*
X60412380Y-95199419D02*
X59936190Y-95199419D01*
X59936190Y-95199419D02*
X59936190Y-94199419D01*
X60602857Y-94199419D02*
X61174285Y-94199419D01*
X60888571Y-95199419D02*
X60888571Y-94199419D01*
X61460000Y-94294657D02*
X61507619Y-94247038D01*
X61507619Y-94247038D02*
X61602857Y-94199419D01*
X61602857Y-94199419D02*
X61840952Y-94199419D01*
X61840952Y-94199419D02*
X61936190Y-94247038D01*
X61936190Y-94247038D02*
X61983809Y-94294657D01*
X61983809Y-94294657D02*
X62031428Y-94389895D01*
X62031428Y-94389895D02*
X62031428Y-94485133D01*
X62031428Y-94485133D02*
X61983809Y-94627990D01*
X61983809Y-94627990D02*
X61412381Y-95199419D01*
X61412381Y-95199419D02*
X62031428Y-95199419D01*
X82002380Y-94945419D02*
X81526190Y-94945419D01*
X81526190Y-94945419D02*
X81526190Y-93945419D01*
X82192857Y-93945419D02*
X82764285Y-93945419D01*
X82478571Y-94945419D02*
X82478571Y-93945419D01*
X83621428Y-94945419D02*
X83050000Y-94945419D01*
X83335714Y-94945419D02*
X83335714Y-93945419D01*
X83335714Y-93945419D02*
X83240476Y-94088276D01*
X83240476Y-94088276D02*
X83145238Y-94183514D01*
X83145238Y-94183514D02*
X83050000Y-94231133D01*
D12*
%TO.C,C1*%
X76550000Y-89803000D02*
X76550000Y-88545000D01*
X78390000Y-89803000D02*
X78390000Y-88545000D01*
%TO.C,U1*%
D13*
X93980000Y-77470000D02*
X109220000Y-77470000D01*
X109220000Y-97790000D01*
X93980000Y-97790000D01*
X93980000Y-77470000D01*
D11*
X93980000Y-80010000D02*
X96520000Y-80010000D01*
X96520000Y-97790000D01*
X93980000Y-97790000D01*
X93980000Y-80010000D01*
X99060000Y-77470000D02*
X104140000Y-77470000D01*
X104140000Y-80010000D01*
X99060000Y-80010000D01*
X99060000Y-77470000D01*
X106680000Y-80010000D02*
X109220000Y-80010000D01*
X109220000Y-87630000D01*
X106680000Y-87630000D01*
X106680000Y-80010000D01*
X106680000Y-87630000D02*
X109220000Y-87630000D01*
X109220000Y-97790000D01*
X106680000Y-97790000D01*
X106680000Y-87630000D01*
D12*
%TO.C,C8*%
X46410533Y-63447200D02*
X46703067Y-63447200D01*
X46410533Y-64467200D02*
X46703067Y-64467200D01*
%TO.C,ENC1*%
D11*
X75441400Y-70697200D02*
X92481400Y-70697200D01*
X92481400Y-57297200D01*
X75441400Y-57297200D01*
X75441400Y-70697200D01*
X82611400Y-59497200D02*
X84811400Y-59497200D01*
X84811400Y-57297200D01*
X82611400Y-57297200D01*
X82611400Y-59497200D01*
X82611400Y-68497200D02*
X84811400Y-68497200D01*
X84811400Y-70697200D01*
X82611400Y-70697200D01*
X82611400Y-68497200D01*
D12*
%TO.C,C6*%
X52252533Y-63447200D02*
X52545067Y-63447200D01*
X52252533Y-64467200D02*
X52545067Y-64467200D01*
%TO.C,J7*%
X71568000Y-67818000D02*
X71568000Y-57598000D01*
X74228000Y-57598000D02*
X71568000Y-57598000D01*
X74228000Y-67818000D02*
X71568000Y-67818000D01*
X74228000Y-67818000D02*
X74228000Y-57598000D01*
X74228000Y-69088000D02*
X74228000Y-70418000D01*
X74228000Y-70418000D02*
X72898000Y-70418000D01*
%TO.C,R3*%
X90968300Y-90221524D02*
X90968300Y-89712076D01*
X92013300Y-90221524D02*
X92013300Y-89712076D01*
%TO.C,J8*%
X94428000Y-65278000D02*
X94428000Y-60138000D01*
X97088000Y-60138000D02*
X94428000Y-60138000D01*
X97088000Y-65278000D02*
X94428000Y-65278000D01*
X97088000Y-65278000D02*
X97088000Y-60138000D01*
X97088000Y-66548000D02*
X97088000Y-67878000D01*
X97088000Y-67878000D02*
X95758000Y-67878000D01*
%TO.C,R1*%
X97089700Y-88390824D02*
X97089700Y-87881376D01*
X98134700Y-88390824D02*
X98134700Y-87881376D01*
%TO.C,C5*%
X45416600Y-80117600D02*
X43234600Y-80117600D01*
X45416600Y-80157600D02*
X43238600Y-80157600D01*
X45416600Y-80197600D02*
X43241600Y-80197600D01*
X45416600Y-80237600D02*
X43245600Y-80237600D01*
X45416600Y-80277600D02*
X43250600Y-80277600D01*
X45416600Y-80317600D02*
X43255600Y-80317600D01*
X45416600Y-80357600D02*
X43261600Y-80357600D01*
X45416600Y-80397600D02*
X43267600Y-80397600D01*
X45416600Y-80437600D02*
X43274600Y-80437600D01*
X45416600Y-80477600D02*
X43281600Y-80477600D01*
X45416600Y-80517600D02*
X43289600Y-80517600D01*
X45416600Y-80557600D02*
X43297600Y-80557600D01*
X45416600Y-80598600D02*
X43306600Y-80598600D01*
X45416600Y-80638600D02*
X43315600Y-80638600D01*
X45416600Y-80678600D02*
X43325600Y-80678600D01*
X45416600Y-80718600D02*
X43335600Y-80718600D01*
X45416600Y-80758600D02*
X43346600Y-80758600D01*
X45416600Y-80798600D02*
X43358600Y-80798600D01*
X45416600Y-80838600D02*
X43370600Y-80838600D01*
X45416600Y-80878600D02*
X43382600Y-80878600D01*
X45416600Y-80918600D02*
X43395600Y-80918600D01*
X45416600Y-80958600D02*
X43409600Y-80958600D01*
X45416600Y-80998600D02*
X43423600Y-80998600D01*
X45416600Y-81038600D02*
X43438600Y-81038600D01*
X45416600Y-81078600D02*
X43454600Y-81078600D01*
X45416600Y-81118600D02*
X43470600Y-81118600D01*
X45416600Y-81158600D02*
X43486600Y-81158600D01*
X45416600Y-81198600D02*
X43504600Y-81198600D01*
X45416600Y-81238600D02*
X43522600Y-81238600D01*
X45416600Y-81278600D02*
X43540600Y-81278600D01*
X45416600Y-81318600D02*
X43560600Y-81318600D01*
X45416600Y-81358600D02*
X43580600Y-81358600D01*
X45416600Y-81398600D02*
X43600600Y-81398600D01*
X45416600Y-81438600D02*
X43622600Y-81438600D01*
X45416600Y-81478600D02*
X43644600Y-81478600D01*
X45416600Y-81518600D02*
X43666600Y-81518600D01*
X45416600Y-81558600D02*
X43690600Y-81558600D01*
X45416600Y-81598600D02*
X43714600Y-81598600D01*
X45416600Y-81638600D02*
X43740600Y-81638600D01*
X45416600Y-81678600D02*
X43766600Y-81678600D01*
X45416600Y-81718600D02*
X43792600Y-81718600D01*
X45416600Y-81758600D02*
X43820600Y-81758600D01*
X45416600Y-81798600D02*
X43849600Y-81798600D01*
X45416600Y-81838600D02*
X43878600Y-81838600D01*
X45416600Y-81878600D02*
X43908600Y-81878600D01*
X45416600Y-81918600D02*
X43940600Y-81918600D01*
X45416600Y-81958600D02*
X43972600Y-81958600D01*
X45416600Y-81998600D02*
X44006600Y-81998600D01*
X45416600Y-82038600D02*
X44040600Y-82038600D01*
X45416600Y-82078600D02*
X44076600Y-82078600D01*
X45416600Y-82118600D02*
X44113600Y-82118600D01*
X45416600Y-82158600D02*
X44151600Y-82158600D01*
X46858600Y-83118600D02*
X46054600Y-83118600D01*
X47089600Y-83078600D02*
X45823600Y-83078600D01*
X47258600Y-83038600D02*
X45654600Y-83038600D01*
X47396600Y-82998600D02*
X45516600Y-82998600D01*
X47515600Y-82958600D02*
X45397600Y-82958600D01*
X47621600Y-82918600D02*
X45291600Y-82918600D01*
X47718600Y-82878600D02*
X45194600Y-82878600D01*
X47806600Y-82838600D02*
X45106600Y-82838600D01*
X47888600Y-82798600D02*
X45024600Y-82798600D01*
X47965600Y-82758600D02*
X44947600Y-82758600D01*
X48037600Y-82718600D02*
X44875600Y-82718600D01*
X48106600Y-82678600D02*
X44806600Y-82678600D01*
X48170600Y-82638600D02*
X44742600Y-82638600D01*
X48232600Y-82598600D02*
X44680600Y-82598600D01*
X48290600Y-82558600D02*
X44622600Y-82558600D01*
X48295600Y-76377359D02*
X48295600Y-77007359D01*
X48346600Y-82518600D02*
X44566600Y-82518600D01*
X48400600Y-82478600D02*
X44512600Y-82478600D01*
X48451600Y-82438600D02*
X44461600Y-82438600D01*
X48500600Y-82398600D02*
X44412600Y-82398600D01*
X48548600Y-82358600D02*
X44364600Y-82358600D01*
X48593600Y-82318600D02*
X44319600Y-82318600D01*
X48610600Y-76692359D02*
X47980600Y-76692359D01*
X48638600Y-82278600D02*
X44274600Y-82278600D01*
X48680600Y-82238600D02*
X44232600Y-82238600D01*
X48721600Y-82198600D02*
X44191600Y-82198600D01*
X48761600Y-82158600D02*
X47496600Y-82158600D01*
X48799600Y-82118600D02*
X47496600Y-82118600D01*
X48836600Y-82078600D02*
X47496600Y-82078600D01*
X48872600Y-82038600D02*
X47496600Y-82038600D01*
X48906600Y-81998600D02*
X47496600Y-81998600D01*
X48940600Y-81958600D02*
X47496600Y-81958600D01*
X48972600Y-81918600D02*
X47496600Y-81918600D01*
X49004600Y-81878600D02*
X47496600Y-81878600D01*
X49034600Y-81838600D02*
X47496600Y-81838600D01*
X49063600Y-81798600D02*
X47496600Y-81798600D01*
X49092600Y-81758600D02*
X47496600Y-81758600D01*
X49120600Y-81718600D02*
X47496600Y-81718600D01*
X49146600Y-81678600D02*
X47496600Y-81678600D01*
X49172600Y-81638600D02*
X47496600Y-81638600D01*
X49198600Y-81598600D02*
X47496600Y-81598600D01*
X49222600Y-81558600D02*
X47496600Y-81558600D01*
X49246600Y-81518600D02*
X47496600Y-81518600D01*
X49268600Y-81478600D02*
X47496600Y-81478600D01*
X49290600Y-81438600D02*
X47496600Y-81438600D01*
X49312600Y-81398600D02*
X47496600Y-81398600D01*
X49332600Y-81358600D02*
X47496600Y-81358600D01*
X49352600Y-81318600D02*
X47496600Y-81318600D01*
X49372600Y-81278600D02*
X47496600Y-81278600D01*
X49390600Y-81238600D02*
X47496600Y-81238600D01*
X49408600Y-81198600D02*
X47496600Y-81198600D01*
X49426600Y-81158600D02*
X47496600Y-81158600D01*
X49442600Y-81118600D02*
X47496600Y-81118600D01*
X49458600Y-81078600D02*
X47496600Y-81078600D01*
X49474600Y-81038600D02*
X47496600Y-81038600D01*
X49489600Y-80998600D02*
X47496600Y-80998600D01*
X49503600Y-80958600D02*
X47496600Y-80958600D01*
X49517600Y-80918600D02*
X47496600Y-80918600D01*
X49530600Y-80878600D02*
X47496600Y-80878600D01*
X49542600Y-80838600D02*
X47496600Y-80838600D01*
X49554600Y-80798600D02*
X47496600Y-80798600D01*
X49566600Y-80758600D02*
X47496600Y-80758600D01*
X49577600Y-80718600D02*
X47496600Y-80718600D01*
X49587600Y-80678600D02*
X47496600Y-80678600D01*
X49597600Y-80638600D02*
X47496600Y-80638600D01*
X49606600Y-80598600D02*
X47496600Y-80598600D01*
X49615600Y-80557600D02*
X47496600Y-80557600D01*
X49623600Y-80517600D02*
X47496600Y-80517600D01*
X49631600Y-80477600D02*
X47496600Y-80477600D01*
X49638600Y-80437600D02*
X47496600Y-80437600D01*
X49645600Y-80397600D02*
X47496600Y-80397600D01*
X49651600Y-80357600D02*
X47496600Y-80357600D01*
X49657600Y-80317600D02*
X47496600Y-80317600D01*
X49662600Y-80277600D02*
X47496600Y-80277600D01*
X49667600Y-80237600D02*
X47496600Y-80237600D01*
X49671600Y-80197600D02*
X47496600Y-80197600D01*
X49674600Y-80157600D02*
X47496600Y-80157600D01*
X49678600Y-80117600D02*
X47496600Y-80117600D01*
X49680600Y-80077600D02*
X43232600Y-80077600D01*
X49683600Y-80037600D02*
X43229600Y-80037600D01*
X49684600Y-79997600D02*
X43228600Y-79997600D01*
X49686600Y-79877600D02*
X43226600Y-79877600D01*
X49686600Y-79917600D02*
X43226600Y-79917600D01*
X49686600Y-79957600D02*
X43226600Y-79957600D01*
X49726600Y-79877600D02*
G75*
G02*
X43186600Y-79877600I-3270000J0D01*
G01*
X43186600Y-79877600D02*
G75*
G02*
X49726600Y-79877600I3270000J0D01*
G01*
%TO.C,LDO1*%
X55350000Y-82764000D02*
X71240000Y-82764000D01*
X55350000Y-93004000D02*
X55350000Y-82764000D01*
X55350000Y-93004000D02*
X71240000Y-93004000D01*
X71240000Y-85344000D02*
X73780000Y-85344000D01*
X71240000Y-87884000D02*
X73780000Y-87884000D01*
X71240000Y-90424000D02*
X73780000Y-90424000D01*
X71240000Y-93004000D02*
X71240000Y-82764000D01*
%TO.C,J5*%
X37191800Y-65064200D02*
X37191800Y-67564200D01*
X37491800Y-65364200D02*
X37491800Y-75584200D01*
X37491800Y-75584200D02*
X41511800Y-75584200D01*
X38991800Y-65364200D02*
X38991800Y-66364200D01*
X38991800Y-66364200D02*
X37491800Y-66364200D01*
X38991800Y-74584200D02*
X37491800Y-74584200D01*
X38991800Y-75584200D02*
X38991800Y-74584200D01*
X39691800Y-65064200D02*
X37191800Y-65064200D01*
X39801800Y-65364200D02*
X39801800Y-65864200D01*
X39801800Y-65864200D02*
X41011800Y-65864200D01*
X39801800Y-75084200D02*
X39801800Y-75584200D01*
X41011800Y-65864200D02*
X41011800Y-75084200D01*
X41011800Y-75084200D02*
X39801800Y-75084200D01*
X41511800Y-65364200D02*
X37491800Y-65364200D01*
X41511800Y-75584200D02*
X41511800Y-65364200D01*
%TO.C,C2*%
X76414000Y-83764000D02*
X77954000Y-83764000D01*
X76414000Y-83804000D02*
X77954000Y-83804000D01*
X76415000Y-83724000D02*
X77954000Y-83724000D01*
X76416000Y-83684000D02*
X77954000Y-83684000D01*
X76418000Y-83644000D02*
X77954000Y-83644000D01*
X76421000Y-83604000D02*
X77954000Y-83604000D01*
X76425000Y-83564000D02*
X77954000Y-83564000D01*
X76429000Y-83524000D02*
X77954000Y-83524000D01*
X76433000Y-83484000D02*
X77954000Y-83484000D01*
X76438000Y-83444000D02*
X77954000Y-83444000D01*
X76444000Y-83404000D02*
X77954000Y-83404000D01*
X76451000Y-83364000D02*
X77954000Y-83364000D01*
X76458000Y-83324000D02*
X77954000Y-83324000D01*
X76466000Y-83284000D02*
X77954000Y-83284000D01*
X76474000Y-83244000D02*
X77954000Y-83244000D01*
X76483000Y-83204000D02*
X77954000Y-83204000D01*
X76493000Y-83164000D02*
X77954000Y-83164000D01*
X76503000Y-83124000D02*
X77954000Y-83124000D01*
X76514000Y-83083000D02*
X77954000Y-83083000D01*
X76526000Y-83043000D02*
X77954000Y-83043000D01*
X76539000Y-83003000D02*
X77954000Y-83003000D01*
X76552000Y-82963000D02*
X77954000Y-82963000D01*
X76566000Y-82923000D02*
X77954000Y-82923000D01*
X76580000Y-82883000D02*
X77954000Y-82883000D01*
X76596000Y-82843000D02*
X77954000Y-82843000D01*
X76612000Y-82803000D02*
X77954000Y-82803000D01*
X76629000Y-82763000D02*
X77954000Y-82763000D01*
X76646000Y-82723000D02*
X77954000Y-82723000D01*
X76665000Y-82683000D02*
X77954000Y-82683000D01*
X76684000Y-82643000D02*
X77954000Y-82643000D01*
X76704000Y-82603000D02*
X77954000Y-82603000D01*
X76726000Y-82563000D02*
X77954000Y-82563000D01*
X76747000Y-82523000D02*
X77954000Y-82523000D01*
X76770000Y-82483000D02*
X77954000Y-82483000D01*
X76794000Y-82443000D02*
X77954000Y-82443000D01*
X76819000Y-82403000D02*
X77954000Y-82403000D01*
X76845000Y-82363000D02*
X77954000Y-82363000D01*
X76872000Y-82323000D02*
X77954000Y-82323000D01*
X76899000Y-82283000D02*
X77954000Y-82283000D01*
X76929000Y-82243000D02*
X77954000Y-82243000D01*
X76959000Y-82203000D02*
X77954000Y-82203000D01*
X76990000Y-82163000D02*
X77954000Y-82163000D01*
X77023000Y-82123000D02*
X77954000Y-82123000D01*
X77057000Y-82083000D02*
X77954000Y-82083000D01*
X77093000Y-82043000D02*
X77954000Y-82043000D01*
X77130000Y-82003000D02*
X77954000Y-82003000D01*
X77168000Y-81963000D02*
X77954000Y-81963000D01*
X77209000Y-81923000D02*
X77954000Y-81923000D01*
X77251000Y-81883000D02*
X77954000Y-81883000D01*
X77269000Y-86358775D02*
X77769000Y-86358775D01*
X77295000Y-81843000D02*
X77954000Y-81843000D01*
X77341000Y-81803000D02*
X77954000Y-81803000D01*
X77389000Y-81763000D02*
X80599000Y-81763000D01*
X77440000Y-81723000D02*
X80548000Y-81723000D01*
X77494000Y-81683000D02*
X80494000Y-81683000D01*
X77519000Y-86608775D02*
X77519000Y-86108775D01*
X77551000Y-81643000D02*
X80437000Y-81643000D01*
X77611000Y-81603000D02*
X80377000Y-81603000D01*
X77675000Y-81563000D02*
X80313000Y-81563000D01*
X77743000Y-81523000D02*
X80245000Y-81523000D01*
X77816000Y-81483000D02*
X80172000Y-81483000D01*
X77896000Y-81443000D02*
X80092000Y-81443000D01*
X77983000Y-81403000D02*
X80005000Y-81403000D01*
X78079000Y-81363000D02*
X79909000Y-81363000D01*
X78189000Y-81323000D02*
X79799000Y-81323000D01*
X78317000Y-81283000D02*
X79671000Y-81283000D01*
X78476000Y-81243000D02*
X79512000Y-81243000D01*
X78710000Y-81203000D02*
X79278000Y-81203000D01*
X80034000Y-81803000D02*
X80647000Y-81803000D01*
X80034000Y-81843000D02*
X80693000Y-81843000D01*
X80034000Y-81883000D02*
X80737000Y-81883000D01*
X80034000Y-81923000D02*
X80779000Y-81923000D01*
X80034000Y-81963000D02*
X80820000Y-81963000D01*
X80034000Y-82003000D02*
X80858000Y-82003000D01*
X80034000Y-82043000D02*
X80895000Y-82043000D01*
X80034000Y-82083000D02*
X80931000Y-82083000D01*
X80034000Y-82123000D02*
X80965000Y-82123000D01*
X80034000Y-82163000D02*
X80998000Y-82163000D01*
X80034000Y-82203000D02*
X81029000Y-82203000D01*
X80034000Y-82243000D02*
X81059000Y-82243000D01*
X80034000Y-82283000D02*
X81089000Y-82283000D01*
X80034000Y-82323000D02*
X81116000Y-82323000D01*
X80034000Y-82363000D02*
X81143000Y-82363000D01*
X80034000Y-82403000D02*
X81169000Y-82403000D01*
X80034000Y-82443000D02*
X81194000Y-82443000D01*
X80034000Y-82483000D02*
X81218000Y-82483000D01*
X80034000Y-82523000D02*
X81241000Y-82523000D01*
X80034000Y-82563000D02*
X81262000Y-82563000D01*
X80034000Y-82603000D02*
X81284000Y-82603000D01*
X80034000Y-82643000D02*
X81304000Y-82643000D01*
X80034000Y-82683000D02*
X81323000Y-82683000D01*
X80034000Y-82723000D02*
X81342000Y-82723000D01*
X80034000Y-82763000D02*
X81359000Y-82763000D01*
X80034000Y-82803000D02*
X81376000Y-82803000D01*
X80034000Y-82843000D02*
X81392000Y-82843000D01*
X80034000Y-82883000D02*
X81408000Y-82883000D01*
X80034000Y-82923000D02*
X81422000Y-82923000D01*
X80034000Y-82963000D02*
X81436000Y-82963000D01*
X80034000Y-83003000D02*
X81449000Y-83003000D01*
X80034000Y-83043000D02*
X81462000Y-83043000D01*
X80034000Y-83083000D02*
X81474000Y-83083000D01*
X80034000Y-83124000D02*
X81485000Y-83124000D01*
X80034000Y-83164000D02*
X81495000Y-83164000D01*
X80034000Y-83204000D02*
X81505000Y-83204000D01*
X80034000Y-83244000D02*
X81514000Y-83244000D01*
X80034000Y-83284000D02*
X81522000Y-83284000D01*
X80034000Y-83324000D02*
X81530000Y-83324000D01*
X80034000Y-83364000D02*
X81537000Y-83364000D01*
X80034000Y-83404000D02*
X81544000Y-83404000D01*
X80034000Y-83444000D02*
X81550000Y-83444000D01*
X80034000Y-83484000D02*
X81555000Y-83484000D01*
X80034000Y-83524000D02*
X81559000Y-83524000D01*
X80034000Y-83564000D02*
X81563000Y-83564000D01*
X80034000Y-83604000D02*
X81567000Y-83604000D01*
X80034000Y-83644000D02*
X81570000Y-83644000D01*
X80034000Y-83684000D02*
X81572000Y-83684000D01*
X80034000Y-83724000D02*
X81573000Y-83724000D01*
X80034000Y-83764000D02*
X81574000Y-83764000D01*
X80034000Y-83804000D02*
X81574000Y-83804000D01*
X81614000Y-83804000D02*
G75*
G02*
X76374000Y-83804000I-2620000J0D01*
G01*
X76374000Y-83804000D02*
G75*
G02*
X81614000Y-83804000I2620000J0D01*
G01*
%TO.C,C10*%
X40568533Y-63447200D02*
X40861067Y-63447200D01*
X40568533Y-64467200D02*
X40861067Y-64467200D01*
%TO.C,C4*%
X61540000Y-73814000D02*
X68000000Y-73814000D01*
X61540000Y-73854000D02*
X68000000Y-73854000D01*
X61540000Y-73894000D02*
X68000000Y-73894000D01*
X61542000Y-73774000D02*
X67998000Y-73774000D01*
X61543000Y-73734000D02*
X67997000Y-73734000D01*
X61546000Y-73694000D02*
X67994000Y-73694000D01*
X61548000Y-73654000D02*
X63730000Y-73654000D01*
X61552000Y-73614000D02*
X63730000Y-73614000D01*
X61555000Y-73574000D02*
X63730000Y-73574000D01*
X61559000Y-73534000D02*
X63730000Y-73534000D01*
X61564000Y-73494000D02*
X63730000Y-73494000D01*
X61569000Y-73454000D02*
X63730000Y-73454000D01*
X61575000Y-73414000D02*
X63730000Y-73414000D01*
X61581000Y-73374000D02*
X63730000Y-73374000D01*
X61588000Y-73334000D02*
X63730000Y-73334000D01*
X61595000Y-73294000D02*
X63730000Y-73294000D01*
X61603000Y-73254000D02*
X63730000Y-73254000D01*
X61611000Y-73214000D02*
X63730000Y-73214000D01*
X61620000Y-73173000D02*
X63730000Y-73173000D01*
X61629000Y-73133000D02*
X63730000Y-73133000D01*
X61639000Y-73093000D02*
X63730000Y-73093000D01*
X61649000Y-73053000D02*
X63730000Y-73053000D01*
X61660000Y-73013000D02*
X63730000Y-73013000D01*
X61672000Y-72973000D02*
X63730000Y-72973000D01*
X61684000Y-72933000D02*
X63730000Y-72933000D01*
X61696000Y-72893000D02*
X63730000Y-72893000D01*
X61709000Y-72853000D02*
X63730000Y-72853000D01*
X61723000Y-72813000D02*
X63730000Y-72813000D01*
X61737000Y-72773000D02*
X63730000Y-72773000D01*
X61752000Y-72733000D02*
X63730000Y-72733000D01*
X61768000Y-72693000D02*
X63730000Y-72693000D01*
X61784000Y-72653000D02*
X63730000Y-72653000D01*
X61800000Y-72613000D02*
X63730000Y-72613000D01*
X61818000Y-72573000D02*
X63730000Y-72573000D01*
X61836000Y-72533000D02*
X63730000Y-72533000D01*
X61854000Y-72493000D02*
X63730000Y-72493000D01*
X61874000Y-72453000D02*
X63730000Y-72453000D01*
X61894000Y-72413000D02*
X63730000Y-72413000D01*
X61914000Y-72373000D02*
X63730000Y-72373000D01*
X61936000Y-72333000D02*
X63730000Y-72333000D01*
X61958000Y-72293000D02*
X63730000Y-72293000D01*
X61980000Y-72253000D02*
X63730000Y-72253000D01*
X62004000Y-72213000D02*
X63730000Y-72213000D01*
X62028000Y-72173000D02*
X63730000Y-72173000D01*
X62054000Y-72133000D02*
X63730000Y-72133000D01*
X62080000Y-72093000D02*
X63730000Y-72093000D01*
X62106000Y-72053000D02*
X63730000Y-72053000D01*
X62134000Y-72013000D02*
X63730000Y-72013000D01*
X62163000Y-71973000D02*
X63730000Y-71973000D01*
X62192000Y-71933000D02*
X63730000Y-71933000D01*
X62222000Y-71893000D02*
X63730000Y-71893000D01*
X62254000Y-71853000D02*
X63730000Y-71853000D01*
X62286000Y-71813000D02*
X63730000Y-71813000D01*
X62320000Y-71773000D02*
X63730000Y-71773000D01*
X62354000Y-71733000D02*
X63730000Y-71733000D01*
X62390000Y-71693000D02*
X63730000Y-71693000D01*
X62427000Y-71653000D02*
X63730000Y-71653000D01*
X62465000Y-71613000D02*
X63730000Y-71613000D01*
X62505000Y-71573000D02*
X67035000Y-71573000D01*
X62546000Y-71533000D02*
X66994000Y-71533000D01*
X62588000Y-71493000D02*
X66952000Y-71493000D01*
X62616000Y-77079241D02*
X63246000Y-77079241D01*
X62633000Y-71453000D02*
X66907000Y-71453000D01*
X62678000Y-71413000D02*
X66862000Y-71413000D01*
X62726000Y-71373000D02*
X66814000Y-71373000D01*
X62775000Y-71333000D02*
X66765000Y-71333000D01*
X62826000Y-71293000D02*
X66714000Y-71293000D01*
X62880000Y-71253000D02*
X66660000Y-71253000D01*
X62931000Y-77394241D02*
X62931000Y-76764241D01*
X62936000Y-71213000D02*
X66604000Y-71213000D01*
X62994000Y-71173000D02*
X66546000Y-71173000D01*
X63056000Y-71133000D02*
X66484000Y-71133000D01*
X63120000Y-71093000D02*
X66420000Y-71093000D01*
X63189000Y-71053000D02*
X66351000Y-71053000D01*
X63261000Y-71013000D02*
X66279000Y-71013000D01*
X63338000Y-70973000D02*
X66202000Y-70973000D01*
X63420000Y-70933000D02*
X66120000Y-70933000D01*
X63508000Y-70893000D02*
X66032000Y-70893000D01*
X63605000Y-70853000D02*
X65935000Y-70853000D01*
X63711000Y-70813000D02*
X65829000Y-70813000D01*
X63830000Y-70773000D02*
X65710000Y-70773000D01*
X63968000Y-70733000D02*
X65572000Y-70733000D01*
X64137000Y-70693000D02*
X65403000Y-70693000D01*
X64368000Y-70653000D02*
X65172000Y-70653000D01*
X65810000Y-71613000D02*
X67075000Y-71613000D01*
X65810000Y-71653000D02*
X67113000Y-71653000D01*
X65810000Y-71693000D02*
X67150000Y-71693000D01*
X65810000Y-71733000D02*
X67186000Y-71733000D01*
X65810000Y-71773000D02*
X67220000Y-71773000D01*
X65810000Y-71813000D02*
X67254000Y-71813000D01*
X65810000Y-71853000D02*
X67286000Y-71853000D01*
X65810000Y-71893000D02*
X67318000Y-71893000D01*
X65810000Y-71933000D02*
X67348000Y-71933000D01*
X65810000Y-71973000D02*
X67377000Y-71973000D01*
X65810000Y-72013000D02*
X67406000Y-72013000D01*
X65810000Y-72053000D02*
X67434000Y-72053000D01*
X65810000Y-72093000D02*
X67460000Y-72093000D01*
X65810000Y-72133000D02*
X67486000Y-72133000D01*
X65810000Y-72173000D02*
X67512000Y-72173000D01*
X65810000Y-72213000D02*
X67536000Y-72213000D01*
X65810000Y-72253000D02*
X67560000Y-72253000D01*
X65810000Y-72293000D02*
X67582000Y-72293000D01*
X65810000Y-72333000D02*
X67604000Y-72333000D01*
X65810000Y-72373000D02*
X67626000Y-72373000D01*
X65810000Y-72413000D02*
X67646000Y-72413000D01*
X65810000Y-72453000D02*
X67666000Y-72453000D01*
X65810000Y-72493000D02*
X67686000Y-72493000D01*
X65810000Y-72533000D02*
X67704000Y-72533000D01*
X65810000Y-72573000D02*
X67722000Y-72573000D01*
X65810000Y-72613000D02*
X67740000Y-72613000D01*
X65810000Y-72653000D02*
X67756000Y-72653000D01*
X65810000Y-72693000D02*
X67772000Y-72693000D01*
X65810000Y-72733000D02*
X67788000Y-72733000D01*
X65810000Y-72773000D02*
X67803000Y-72773000D01*
X65810000Y-72813000D02*
X67817000Y-72813000D01*
X65810000Y-72853000D02*
X67831000Y-72853000D01*
X65810000Y-72893000D02*
X67844000Y-72893000D01*
X65810000Y-72933000D02*
X67856000Y-72933000D01*
X65810000Y-72973000D02*
X67868000Y-72973000D01*
X65810000Y-73013000D02*
X67880000Y-73013000D01*
X65810000Y-73053000D02*
X67891000Y-73053000D01*
X65810000Y-73093000D02*
X67901000Y-73093000D01*
X65810000Y-73133000D02*
X67911000Y-73133000D01*
X65810000Y-73173000D02*
X67920000Y-73173000D01*
X65810000Y-73214000D02*
X67929000Y-73214000D01*
X65810000Y-73254000D02*
X67937000Y-73254000D01*
X65810000Y-73294000D02*
X67945000Y-73294000D01*
X65810000Y-73334000D02*
X67952000Y-73334000D01*
X65810000Y-73374000D02*
X67959000Y-73374000D01*
X65810000Y-73414000D02*
X67965000Y-73414000D01*
X65810000Y-73454000D02*
X67971000Y-73454000D01*
X65810000Y-73494000D02*
X67976000Y-73494000D01*
X65810000Y-73534000D02*
X67981000Y-73534000D01*
X65810000Y-73574000D02*
X67985000Y-73574000D01*
X65810000Y-73614000D02*
X67988000Y-73614000D01*
X65810000Y-73654000D02*
X67992000Y-73654000D01*
X68040000Y-73894000D02*
G75*
G02*
X61500000Y-73894000I-3270000J0D01*
G01*
X61500000Y-73894000D02*
G75*
G02*
X68040000Y-73894000I3270000J0D01*
G01*
%TO.C,J4*%
X43041800Y-65064200D02*
X43041800Y-67564200D01*
X43341800Y-65364200D02*
X43341800Y-75584200D01*
X43341800Y-75584200D02*
X47361800Y-75584200D01*
X44841800Y-65364200D02*
X44841800Y-66364200D01*
X44841800Y-66364200D02*
X43341800Y-66364200D01*
X44841800Y-74584200D02*
X43341800Y-74584200D01*
X44841800Y-75584200D02*
X44841800Y-74584200D01*
X45541800Y-65064200D02*
X43041800Y-65064200D01*
X45651800Y-65364200D02*
X45651800Y-65864200D01*
X45651800Y-65864200D02*
X46861800Y-65864200D01*
X45651800Y-75084200D02*
X45651800Y-75584200D01*
X46861800Y-65864200D02*
X46861800Y-75084200D01*
X46861800Y-75084200D02*
X45651800Y-75084200D01*
X47361800Y-65364200D02*
X43341800Y-65364200D01*
X47361800Y-75584200D02*
X47361800Y-65364200D01*
%TO.C,J2*%
X54741800Y-65064200D02*
X54741800Y-67564200D01*
X55041800Y-65364200D02*
X55041800Y-75584200D01*
X55041800Y-75584200D02*
X59061800Y-75584200D01*
X56541800Y-65364200D02*
X56541800Y-66364200D01*
X56541800Y-66364200D02*
X55041800Y-66364200D01*
X56541800Y-74584200D02*
X55041800Y-74584200D01*
X56541800Y-75584200D02*
X56541800Y-74584200D01*
X57241800Y-65064200D02*
X54741800Y-65064200D01*
X57351800Y-65364200D02*
X57351800Y-65864200D01*
X57351800Y-65864200D02*
X58561800Y-65864200D01*
X57351800Y-75084200D02*
X57351800Y-75584200D01*
X58561800Y-65864200D02*
X58561800Y-75084200D01*
X58561800Y-75084200D02*
X57351800Y-75084200D01*
X59061800Y-65364200D02*
X55041800Y-65364200D01*
X59061800Y-75584200D02*
X59061800Y-65364200D01*
%TO.C,J6*%
X60924000Y-63273000D02*
X60924000Y-64523000D01*
X61214000Y-63563000D02*
X61214000Y-69533000D01*
X61214000Y-69533000D02*
X68834000Y-69533000D01*
X61224000Y-63573000D02*
X61224000Y-64323000D01*
X61224000Y-64323000D02*
X63024000Y-64323000D01*
X61224000Y-65823000D02*
X61974000Y-65823000D01*
X61974000Y-65823000D02*
X61974000Y-68773000D01*
X61974000Y-68773000D02*
X65024000Y-68773000D01*
X62174000Y-63273000D02*
X60924000Y-63273000D01*
X63024000Y-63573000D02*
X61224000Y-63573000D01*
X63024000Y-64323000D02*
X63024000Y-63573000D01*
X64524000Y-63573000D02*
X64524000Y-64323000D01*
X64524000Y-64323000D02*
X65524000Y-64323000D01*
X65524000Y-63573000D02*
X64524000Y-63573000D01*
X65524000Y-64323000D02*
X65524000Y-63573000D01*
X67024000Y-63573000D02*
X67024000Y-64323000D01*
X67024000Y-64323000D02*
X68824000Y-64323000D01*
X68074000Y-65823000D02*
X68074000Y-68773000D01*
X68074000Y-68773000D02*
X65024000Y-68773000D01*
X68824000Y-63573000D02*
X67024000Y-63573000D01*
X68824000Y-64323000D02*
X68824000Y-63573000D01*
X68824000Y-65823000D02*
X68074000Y-65823000D01*
X68834000Y-63563000D02*
X61214000Y-63563000D01*
X68834000Y-69533000D02*
X68834000Y-63563000D01*
%TO.C,J3*%
X48891800Y-65064200D02*
X48891800Y-67564200D01*
X49191800Y-65364200D02*
X49191800Y-75584200D01*
X49191800Y-75584200D02*
X53211800Y-75584200D01*
X50691800Y-65364200D02*
X50691800Y-66364200D01*
X50691800Y-66364200D02*
X49191800Y-66364200D01*
X50691800Y-74584200D02*
X49191800Y-74584200D01*
X50691800Y-75584200D02*
X50691800Y-74584200D01*
X51391800Y-65064200D02*
X48891800Y-65064200D01*
X51501800Y-65364200D02*
X51501800Y-65864200D01*
X51501800Y-65864200D02*
X52711800Y-65864200D01*
X51501800Y-75084200D02*
X51501800Y-75584200D01*
X52711800Y-65864200D02*
X52711800Y-75084200D01*
X52711800Y-75084200D02*
X51501800Y-75084200D01*
X53211800Y-65364200D02*
X49191800Y-65364200D01*
X53211800Y-75584200D02*
X53211800Y-65364200D01*
%TO.C,C3*%
X58094533Y-63447200D02*
X58387067Y-63447200D01*
X58094533Y-64467200D02*
X58387067Y-64467200D01*
%TO.C,D1*%
X36678000Y-78592000D02*
X36678000Y-81682000D01*
X36678000Y-78592170D02*
G75*
G02*
X42228000Y-80137462I2560000J-1544830D01*
G01*
X42228000Y-80136538D02*
G75*
G02*
X36678000Y-81681830I-2990000J-462D01*
G01*
X41738000Y-80137000D02*
G75*
G02*
X36738000Y-80137000I-2500000J0D01*
G01*
X36738000Y-80137000D02*
G75*
G02*
X41738000Y-80137000I2500000J0D01*
G01*
%TO.C,R2*%
X98273776Y-84567500D02*
X98783224Y-84567500D01*
X98273776Y-85612500D02*
X98783224Y-85612500D01*
%TO.C,LT2*%
D11*
X50800000Y-77470000D02*
X71120000Y-77470000D01*
X71120000Y-97790000D01*
X50800000Y-97790000D01*
X50800000Y-77470000D01*
%TO.C,LT1*%
X72390000Y-77470000D02*
X92710000Y-77470000D01*
X92710000Y-97790000D01*
X72390000Y-97790000D01*
X72390000Y-77470000D01*
%TD*%
%LPC*%
D14*
%TO.C,C1*%
X77470000Y-90424000D03*
X77470000Y-87924000D03*
%TD*%
D15*
%TO.C,U1*%
X95250000Y-81280000D03*
X95250000Y-83820000D03*
X95250000Y-86360000D03*
X95250000Y-88900000D03*
X95250000Y-91440000D03*
X95250000Y-93980000D03*
X95250000Y-96520000D03*
X107950000Y-96520000D03*
X107950000Y-93980000D03*
X107950000Y-91440000D03*
X107950000Y-88900000D03*
X107950000Y-86360000D03*
D16*
X107950000Y-83820000D03*
D15*
X107950000Y-81280000D03*
%TD*%
D17*
%TO.C,C8*%
X45694300Y-63957200D03*
X47419300Y-63957200D03*
%TD*%
D18*
%TO.C,ENC1*%
X76711400Y-67997200D03*
X76711400Y-65997200D03*
X76711400Y-63997200D03*
X76711400Y-61997200D03*
X76711400Y-59997200D03*
X91211400Y-66497200D03*
X91211400Y-63997200D03*
X91211400Y-61497200D03*
%TD*%
D19*
%TO.C,REF\u002A\u002A*%
X101600000Y-79375000D03*
%TD*%
D17*
%TO.C,C6*%
X51536300Y-63957200D03*
X53261300Y-63957200D03*
%TD*%
D20*
%TO.C,J7*%
X72898000Y-69088000D03*
D21*
X72898000Y-66548000D03*
X72898000Y-64008000D03*
X72898000Y-61468000D03*
X72898000Y-58928000D03*
%TD*%
D22*
%TO.C,R3*%
X91490800Y-90879300D03*
X91490800Y-89054300D03*
%TD*%
D20*
%TO.C,J8*%
X95758000Y-66548000D03*
D21*
X95758000Y-64008000D03*
X95758000Y-61468000D03*
%TD*%
D19*
%TO.C,REF\u002A\u002A*%
X59690000Y-79375000D03*
%TD*%
D22*
%TO.C,R1*%
X97612200Y-89048600D03*
X97612200Y-87223600D03*
%TD*%
D23*
%TO.C,C5*%
X46456600Y-78627600D03*
D14*
X46456600Y-81127600D03*
%TD*%
D24*
%TO.C,LDO1*%
X58270000Y-87884000D03*
D25*
X74930000Y-90424000D03*
D26*
X74930000Y-87884000D03*
X74930000Y-85344000D03*
%TD*%
D27*
%TO.C,J1*%
X39752000Y-85885000D03*
D28*
X44752000Y-85885000D03*
D29*
X47752000Y-95885000D03*
X36752000Y-95885000D03*
%TD*%
D30*
%TO.C,J5*%
X39801800Y-67974200D03*
D31*
X39801800Y-70474200D03*
X39801800Y-72974200D03*
%TD*%
D23*
%TO.C,C2*%
X78994000Y-84804000D03*
D14*
X78994000Y-82804000D03*
%TD*%
D19*
%TO.C,REF\u002A\u002A*%
X84455000Y-79375000D03*
%TD*%
D17*
%TO.C,C10*%
X39852300Y-63957200D03*
X41577300Y-63957200D03*
%TD*%
D23*
%TO.C,C4*%
X64770000Y-75144000D03*
D14*
X64770000Y-72644000D03*
%TD*%
D30*
%TO.C,J4*%
X45651800Y-67974200D03*
D31*
X45651800Y-70474200D03*
X45651800Y-72974200D03*
%TD*%
D30*
%TO.C,J2*%
X57351800Y-67974200D03*
D31*
X57351800Y-70474200D03*
X57351800Y-72974200D03*
%TD*%
D32*
%TO.C,J6*%
X63774000Y-66023000D03*
D33*
X66274000Y-66023000D03*
%TD*%
D30*
%TO.C,J3*%
X51501800Y-67974200D03*
D31*
X51501800Y-70474200D03*
X51501800Y-72974200D03*
%TD*%
D17*
%TO.C,C3*%
X57378300Y-63957200D03*
X59103300Y-63957200D03*
%TD*%
D34*
%TO.C,D1*%
X37968000Y-80137000D03*
D35*
X40508000Y-80137000D03*
%TD*%
D36*
%TO.C,R2*%
X97616000Y-85090000D03*
X99441000Y-85090000D03*
%TD*%
D15*
%TO.C,LT2*%
X52070000Y-93980000D03*
X52070000Y-96520000D03*
X54610000Y-96520000D03*
X57150000Y-96520000D03*
X59690000Y-96520000D03*
X62230000Y-96520000D03*
X64770000Y-96520000D03*
D16*
X67310000Y-96520000D03*
X69850000Y-96520000D03*
X69850000Y-93980000D03*
D15*
X52070000Y-81280000D03*
X52070000Y-78740000D03*
X54610000Y-78740000D03*
D16*
X67310000Y-78740000D03*
X69850000Y-78740000D03*
X69850000Y-81280000D03*
%TD*%
D15*
%TO.C,LT1*%
X73660000Y-93980000D03*
X73660000Y-96520000D03*
X76200000Y-96520000D03*
X78740000Y-96520000D03*
X81280000Y-96520000D03*
X83820000Y-96520000D03*
X86360000Y-96520000D03*
D16*
X88900000Y-96520000D03*
X91440000Y-96520000D03*
X91440000Y-93980000D03*
D15*
X73660000Y-81280000D03*
X73660000Y-78740000D03*
X76200000Y-78740000D03*
D16*
X88900000Y-78740000D03*
X91440000Y-78740000D03*
X91440000Y-81280000D03*
%TD*%
%LPD*%
M02*
