%TF.GenerationSoftware,KiCad,Pcbnew,8.0.5*%
%TF.CreationDate,2024-09-28T03:45:08+09:00*%
%TF.ProjectId,_____,b5fcdcfa-7f2e-46b6-9963-61645f706362,rev?*%
%TF.SameCoordinates,Original*%
%TF.FileFunction,Soldermask,Bot*%
%TF.FilePolarity,Negative*%
%FSLAX46Y46*%
G04 Gerber Fmt 4.6, Leading zero omitted, Abs format (unit mm)*
G04 Created by KiCad (PCBNEW 8.0.5) date 2024-09-28 03:45:08*
%MOMM*%
%LPD*%
G01*
G04 APERTURE LIST*
G04 Aperture macros list*
%AMRoundRect*
0 Rectangle with rounded corners*
0 $1 Rounding radius*
0 $2 $3 $4 $5 $6 $7 $8 $9 X,Y pos of 4 corners*
0 Add a 4 corners polygon primitive as box body*
4,1,4,$2,$3,$4,$5,$6,$7,$8,$9,$2,$3,0*
0 Add four circle primitives for the rounded corners*
1,1,$1+$1,$2,$3*
1,1,$1+$1,$4,$5*
1,1,$1+$1,$6,$7*
1,1,$1+$1,$8,$9*
0 Add four rect primitives between the rounded corners*
20,1,$1+$1,$2,$3,$4,$5,0*
20,1,$1+$1,$4,$5,$6,$7,0*
20,1,$1+$1,$6,$7,$8,$9,0*
20,1,$1+$1,$8,$9,$2,$3,0*%
G04 Aperture macros list end*
%ADD10C,1.600000*%
%ADD11C,1.524000*%
%ADD12R,1.524000X1.524000*%
%ADD13C,1.750000*%
%ADD14C,5.600000*%
%ADD15R,1.700000X1.700000*%
%ADD16O,1.700000X1.700000*%
%ADD17R,1.600000X1.600000*%
%ADD18O,3.500000X3.500000*%
%ADD19R,2.000000X1.905000*%
%ADD20O,2.000000X1.905000*%
%ADD21C,3.500000*%
%ADD22R,3.500000X3.500000*%
%ADD23C,1.400000*%
%ADD24RoundRect,0.250000X-0.725000X0.600000X-0.725000X-0.600000X0.725000X-0.600000X0.725000X0.600000X0*%
%ADD25O,1.950000X1.700000*%
%ADD26RoundRect,0.250000X-0.600000X-0.750000X0.600000X-0.750000X0.600000X0.750000X-0.600000X0.750000X0*%
%ADD27O,1.700000X2.000000*%
%ADD28R,1.800000X1.800000*%
%ADD29C,1.800000*%
G04 APERTURE END LIST*
D10*
%TO.C,C1*%
X77470000Y-90424000D03*
X77470000Y-87924000D03*
%TD*%
D11*
%TO.C,U1*%
X95250000Y-81280000D03*
X95250000Y-83820000D03*
X95250000Y-86360000D03*
X95250000Y-88900000D03*
X95250000Y-91440000D03*
X95250000Y-93980000D03*
X95250000Y-96520000D03*
X107950000Y-96520000D03*
X107950000Y-93980000D03*
X107950000Y-91440000D03*
X107950000Y-88900000D03*
X107950000Y-86360000D03*
D12*
X107950000Y-83820000D03*
D11*
X107950000Y-81280000D03*
%TD*%
D13*
%TO.C,ENC1*%
X76711400Y-67997200D03*
X76711400Y-65997200D03*
X76711400Y-63997200D03*
X76711400Y-61997200D03*
X76711400Y-59997200D03*
X91211400Y-66497200D03*
X91211400Y-63997200D03*
X91211400Y-61497200D03*
%TD*%
D14*
%TO.C,REF\u002A\u002A*%
X101600000Y-79375000D03*
%TD*%
D15*
%TO.C,J7*%
X72898000Y-69088000D03*
D16*
X72898000Y-66548000D03*
X72898000Y-64008000D03*
X72898000Y-61468000D03*
X72898000Y-58928000D03*
%TD*%
D15*
%TO.C,J8*%
X95758000Y-66548000D03*
D16*
X95758000Y-64008000D03*
X95758000Y-61468000D03*
%TD*%
D14*
%TO.C,REF\u002A\u002A*%
X59690000Y-79375000D03*
%TD*%
D17*
%TO.C,C5*%
X46456600Y-78627600D03*
D10*
X46456600Y-81127600D03*
%TD*%
D18*
%TO.C,LDO1*%
X58270000Y-87884000D03*
D19*
X74930000Y-90424000D03*
D20*
X74930000Y-87884000D03*
X74930000Y-85344000D03*
%TD*%
D21*
%TO.C,J1*%
X39752000Y-85885000D03*
D22*
X44752000Y-85885000D03*
D23*
X47752000Y-95885000D03*
X36752000Y-95885000D03*
%TD*%
D24*
%TO.C,J5*%
X39801800Y-67974200D03*
D25*
X39801800Y-70474200D03*
X39801800Y-72974200D03*
%TD*%
D17*
%TO.C,C2*%
X78994000Y-84804000D03*
D10*
X78994000Y-82804000D03*
%TD*%
D14*
%TO.C,REF\u002A\u002A*%
X84455000Y-79375000D03*
%TD*%
D17*
%TO.C,C4*%
X64770000Y-75144000D03*
D10*
X64770000Y-72644000D03*
%TD*%
D24*
%TO.C,J4*%
X45651800Y-67974200D03*
D25*
X45651800Y-70474200D03*
X45651800Y-72974200D03*
%TD*%
D24*
%TO.C,J2*%
X57351800Y-67974200D03*
D25*
X57351800Y-70474200D03*
X57351800Y-72974200D03*
%TD*%
D26*
%TO.C,J6*%
X63774000Y-66023000D03*
D27*
X66274000Y-66023000D03*
%TD*%
D24*
%TO.C,J3*%
X51501800Y-67974200D03*
D25*
X51501800Y-70474200D03*
X51501800Y-72974200D03*
%TD*%
D28*
%TO.C,D1*%
X37968000Y-80137000D03*
D29*
X40508000Y-80137000D03*
%TD*%
D11*
%TO.C,LT2*%
X52070000Y-93980000D03*
X52070000Y-96520000D03*
X54610000Y-96520000D03*
X57150000Y-96520000D03*
X59690000Y-96520000D03*
X62230000Y-96520000D03*
X64770000Y-96520000D03*
D12*
X67310000Y-96520000D03*
X69850000Y-96520000D03*
X69850000Y-93980000D03*
D11*
X52070000Y-81280000D03*
X52070000Y-78740000D03*
X54610000Y-78740000D03*
D12*
X67310000Y-78740000D03*
X69850000Y-78740000D03*
X69850000Y-81280000D03*
%TD*%
D11*
%TO.C,LT1*%
X73660000Y-93980000D03*
X73660000Y-96520000D03*
X76200000Y-96520000D03*
X78740000Y-96520000D03*
X81280000Y-96520000D03*
X83820000Y-96520000D03*
X86360000Y-96520000D03*
D12*
X88900000Y-96520000D03*
X91440000Y-96520000D03*
X91440000Y-93980000D03*
D11*
X73660000Y-81280000D03*
X73660000Y-78740000D03*
X76200000Y-78740000D03*
D12*
X88900000Y-78740000D03*
X91440000Y-78740000D03*
X91440000Y-81280000D03*
%TD*%
M02*
