%TF.GenerationSoftware,KiCad,Pcbnew,8.0.5*%
%TF.CreationDate,2024-09-28T03:45:08+09:00*%
%TF.ProjectId,_____,b5fcdcfa-7f2e-46b6-9963-61645f706362,rev?*%
%TF.SameCoordinates,Original*%
%TF.FileFunction,Profile,NP*%
%FSLAX46Y46*%
G04 Gerber Fmt 4.6, Leading zero omitted, Abs format (unit mm)*
G04 Created by KiCad (PCBNEW 8.0.5) date 2024-09-28 03:45:08*
%MOMM*%
%LPD*%
G01*
G04 APERTURE LIST*
%TA.AperFunction,Profile*%
%ADD10C,0.100000*%
%TD*%
%TA.AperFunction,Profile*%
%ADD11C,0.050000*%
%TD*%
G04 APERTURE END LIST*
D10*
X70604000Y-68699000D02*
G75*
G02*
X69604000Y-68699000I-500000J0D01*
G01*
X69604000Y-68699000D02*
G75*
G02*
X70604000Y-68699000I500000J0D01*
G01*
X97790000Y-71120000D02*
X70866000Y-71120000D01*
X70866000Y-62992000D02*
X70866000Y-56896000D01*
X70866000Y-71120000D02*
X69342000Y-71120000D01*
X109474000Y-98298000D02*
X49530000Y-98298000D01*
X70604000Y-63762000D02*
G75*
G02*
X69604000Y-63762000I-500000J0D01*
G01*
X69604000Y-63762000D02*
G75*
G02*
X70604000Y-63762000I500000J0D01*
G01*
X35052000Y-63246000D02*
X35052000Y-62992000D01*
X70604000Y-65413000D02*
G75*
G02*
X69604000Y-65413000I-500000J0D01*
G01*
X69604000Y-65413000D02*
G75*
G02*
X70604000Y-65413000I500000J0D01*
G01*
X35052000Y-99568000D02*
X35052000Y-63246000D01*
X69342000Y-71120000D02*
X69342000Y-76200000D01*
X49530000Y-98298000D02*
X49530000Y-99568000D01*
X69342000Y-62992000D02*
X70866000Y-62992000D01*
X35052000Y-62992000D02*
X69342000Y-62992000D01*
X97790000Y-56896000D02*
X97790000Y-71120000D01*
X109474000Y-76200000D02*
X109474000Y-98044000D01*
X70866000Y-56896000D02*
X97790000Y-56896000D01*
X109474000Y-98044000D02*
X109474000Y-98298000D01*
X69342000Y-76200000D02*
X109474000Y-76200000D01*
X70604000Y-70350000D02*
G75*
G02*
X69604000Y-70350000I-500000J0D01*
G01*
X69604000Y-70350000D02*
G75*
G02*
X70604000Y-70350000I500000J0D01*
G01*
X49530000Y-99568000D02*
X35052000Y-99568000D01*
X70604000Y-67064000D02*
G75*
G02*
X69604000Y-67064000I-500000J0D01*
G01*
X69604000Y-67064000D02*
G75*
G02*
X70604000Y-67064000I500000J0D01*
G01*
%TO.C,ENC1*%
D11*
X82611400Y-59497200D02*
X84811400Y-59497200D01*
X84811400Y-57297200D01*
X82611400Y-57297200D01*
X82611400Y-59497200D01*
X82611400Y-70697200D02*
X84811400Y-70697200D01*
X84811400Y-68497200D01*
X82611400Y-68497200D01*
X82611400Y-70697200D01*
%TD*%
M02*
