%TF.GenerationSoftware,KiCad,Pcbnew,8.0.5*%
%TF.CreationDate,2024-09-26T00:23:45+09:00*%
%TF.ProjectId,_____,b5fcdcfa-7f2e-46b6-9963-61645f706362,rev?*%
%TF.SameCoordinates,Original*%
%TF.FileFunction,Copper,L1,Top*%
%TF.FilePolarity,Positive*%
%FSLAX46Y46*%
G04 Gerber Fmt 4.6, Leading zero omitted, Abs format (unit mm)*
G04 Created by KiCad (PCBNEW 8.0.5) date 2024-09-26 00:23:45*
%MOMM*%
%LPD*%
G01*
G04 APERTURE LIST*
G04 Aperture macros list*
%AMRoundRect*
0 Rectangle with rounded corners*
0 $1 Rounding radius*
0 $2 $3 $4 $5 $6 $7 $8 $9 X,Y pos of 4 corners*
0 Add a 4 corners polygon primitive as box body*
4,1,4,$2,$3,$4,$5,$6,$7,$8,$9,$2,$3,0*
0 Add four circle primitives for the rounded corners*
1,1,$1+$1,$2,$3*
1,1,$1+$1,$4,$5*
1,1,$1+$1,$6,$7*
1,1,$1+$1,$8,$9*
0 Add four rect primitives between the rounded corners*
20,1,$1+$1,$2,$3,$4,$5,0*
20,1,$1+$1,$4,$5,$6,$7,0*
20,1,$1+$1,$6,$7,$8,$9,0*
20,1,$1+$1,$8,$9,$2,$3,0*%
G04 Aperture macros list end*
%TA.AperFunction,ComponentPad*%
%ADD10C,5.600000*%
%TD*%
%TA.AperFunction,ComponentPad*%
%ADD11RoundRect,0.250000X-0.600000X-0.725000X0.600000X-0.725000X0.600000X0.725000X-0.600000X0.725000X0*%
%TD*%
%TA.AperFunction,ComponentPad*%
%ADD12O,1.700000X1.950000*%
%TD*%
%TA.AperFunction,ComponentPad*%
%ADD13RoundRect,0.250000X-0.600000X-0.750000X0.600000X-0.750000X0.600000X0.750000X-0.600000X0.750000X0*%
%TD*%
%TA.AperFunction,ComponentPad*%
%ADD14O,1.700000X2.000000*%
%TD*%
%TA.AperFunction,SMDPad,CuDef*%
%ADD15RoundRect,0.237500X-0.237500X0.250000X-0.237500X-0.250000X0.237500X-0.250000X0.237500X0.250000X0*%
%TD*%
%TA.AperFunction,SMDPad,CuDef*%
%ADD16RoundRect,0.237500X-0.237500X0.300000X-0.237500X-0.300000X0.237500X-0.300000X0.237500X0.300000X0*%
%TD*%
%TA.AperFunction,ComponentPad*%
%ADD17C,1.524000*%
%TD*%
%TA.AperFunction,ComponentPad*%
%ADD18R,1.524000X1.524000*%
%TD*%
%TA.AperFunction,ComponentPad*%
%ADD19R,1.600000X1.600000*%
%TD*%
%TA.AperFunction,ComponentPad*%
%ADD20C,1.600000*%
%TD*%
%TA.AperFunction,SMDPad,CuDef*%
%ADD21RoundRect,0.237500X0.237500X-0.300000X0.237500X0.300000X-0.237500X0.300000X-0.237500X-0.300000X0*%
%TD*%
%TA.AperFunction,SMDPad,CuDef*%
%ADD22RoundRect,0.237500X0.250000X0.237500X-0.250000X0.237500X-0.250000X-0.237500X0.250000X-0.237500X0*%
%TD*%
%TA.AperFunction,ComponentPad*%
%ADD23C,1.800000*%
%TD*%
%TA.AperFunction,ComponentPad*%
%ADD24R,1.800000X1.800000*%
%TD*%
%TA.AperFunction,SMDPad,CuDef*%
%ADD25RoundRect,0.237500X0.237500X-0.250000X0.237500X0.250000X-0.237500X0.250000X-0.237500X-0.250000X0*%
%TD*%
%TA.AperFunction,ComponentPad*%
%ADD26C,1.400000*%
%TD*%
%TA.AperFunction,ComponentPad*%
%ADD27R,3.500000X3.500000*%
%TD*%
%TA.AperFunction,ComponentPad*%
%ADD28C,3.500000*%
%TD*%
%TA.AperFunction,ComponentPad*%
%ADD29O,2.000000X1.905000*%
%TD*%
%TA.AperFunction,ComponentPad*%
%ADD30R,2.000000X1.905000*%
%TD*%
%TA.AperFunction,ViaPad*%
%ADD31C,0.800000*%
%TD*%
%TA.AperFunction,Conductor*%
%ADD32C,0.250000*%
%TD*%
%TA.AperFunction,Conductor*%
%ADD33C,0.500000*%
%TD*%
%TA.AperFunction,Conductor*%
%ADD34C,1.000000*%
%TD*%
%TA.AperFunction,Conductor*%
%ADD35C,3.000000*%
%TD*%
%TA.AperFunction,Conductor*%
%ADD36C,2.000000*%
%TD*%
%TA.AperFunction,Conductor*%
%ADD37C,0.300000*%
%TD*%
G04 APERTURE END LIST*
D10*
%TO.P,,1*%
%TO.N,N/C*%
X92710000Y-71120000D03*
%TD*%
%TO.P,,1*%
%TO.N,N/C*%
X92710000Y-62230000D03*
%TD*%
%TO.P,REF\u002A\u002A,1*%
%TO.N,N/C*%
X43180000Y-93980000D03*
%TD*%
D11*
%TO.P,J3,1,Pin_1*%
%TO.N,GND*%
X105450000Y-83250000D03*
D12*
%TO.P,J3,2,Pin_2*%
%TO.N,Net-(J2-Pin_2)*%
X107950000Y-83250000D03*
%TO.P,J3,3,Pin_3*%
%TO.N,/DATA*%
X110450000Y-83250000D03*
%TD*%
D13*
%TO.P,J6,1,Pin_1*%
%TO.N,GND*%
X93004000Y-78469000D03*
D14*
%TO.P,J6,2,Pin_2*%
%TO.N,/DATA*%
X95504000Y-78469000D03*
%TD*%
D15*
%TO.P,R1,1*%
%TO.N,VDD*%
X58928000Y-66651500D03*
%TO.P,R1,2*%
%TO.N,Net-(U1-PA02_A0_D0)*%
X58928000Y-68476500D03*
%TD*%
D16*
%TO.P,C8,1*%
%TO.N,GND*%
X101092000Y-89053500D03*
%TO.P,C8,2*%
%TO.N,Net-(J4-Pin_2)*%
X101092000Y-90778500D03*
%TD*%
D17*
%TO.P,LT1,1,Vin*%
%TO.N,VDD*%
X69850000Y-92202000D03*
%TO.P,LT1,2,Vin*%
X69850000Y-94742000D03*
%TO.P,LT1,3,Vin*%
X72390000Y-94742000D03*
%TO.P,LT1,4,EN/UV*%
%TO.N,/DCDC RST1*%
X74930000Y-94742000D03*
%TO.P,LT1,5,MODE*%
%TO.N,unconnected-(LT1-MODE-Pad5)*%
X77470000Y-94742000D03*
%TO.P,LT1,6,INTVCC*%
%TO.N,unconnected-(LT1-INTVCC-Pad6)*%
X80010000Y-94742000D03*
%TO.P,LT1,7,PG*%
%TO.N,unconnected-(LT1-PG-Pad7)*%
X82550000Y-94742000D03*
D18*
%TO.P,LT1,8,GND*%
%TO.N,GND*%
X85090000Y-94742000D03*
%TO.P,LT1,9,GND*%
X87630000Y-94742000D03*
%TO.P,LT1,10,GND*%
X87630000Y-92202000D03*
D17*
%TO.P,LT1,11,Vout*%
%TO.N,Net-(J2-Pin_2)*%
X69850000Y-79502000D03*
%TO.P,LT1,12,Vout*%
X69850000Y-76962000D03*
%TO.P,LT1,13,Vout*%
X72390000Y-76962000D03*
D18*
%TO.P,LT1,14,GND*%
%TO.N,GND*%
X85090000Y-76962000D03*
%TO.P,LT1,15,GND*%
X87630000Y-76962000D03*
%TO.P,LT1,16,GND*%
X87630000Y-79502000D03*
%TD*%
D19*
%TO.P,C4,1*%
%TO.N,Net-(J2-Pin_2)*%
X93258000Y-86360000D03*
D20*
%TO.P,C4,2*%
%TO.N,GND*%
X95758000Y-86360000D03*
%TD*%
%TO.P,C1,1*%
%TO.N,VDD*%
X63474600Y-66502600D03*
%TO.P,C1,2*%
%TO.N,GND*%
X63474600Y-64002600D03*
%TD*%
%TO.P,C2,2*%
%TO.N,GND*%
X63500000Y-69621400D03*
D19*
%TO.P,C2,1*%
%TO.N,+5V*%
X63500000Y-71621400D03*
%TD*%
D16*
%TO.P,C3,1*%
%TO.N,GND*%
X101092000Y-77369500D03*
%TO.P,C3,2*%
%TO.N,Net-(J2-Pin_2)*%
X101092000Y-79094500D03*
%TD*%
D21*
%TO.P,C10,1*%
%TO.N,GND*%
X101092000Y-94842500D03*
%TO.P,C10,2*%
%TO.N,Net-(J4-Pin_2)*%
X101092000Y-93117500D03*
%TD*%
D10*
%TO.P,,1*%
%TO.N,N/C*%
X43180000Y-78740000D03*
%TD*%
D22*
%TO.P,R3,1*%
%TO.N,Net-(D1-K)*%
X51712500Y-70485000D03*
%TO.P,R3,2*%
%TO.N,GND*%
X49887500Y-70485000D03*
%TD*%
D23*
%TO.P,D1,2,A*%
%TO.N,/RED LED*%
X53878000Y-67305000D03*
D24*
%TO.P,D1,1,K*%
%TO.N,Net-(D1-K)*%
X53878000Y-64765000D03*
%TD*%
D11*
%TO.P,J4,1,Pin_1*%
%TO.N,GND*%
X105450000Y-89100000D03*
D12*
%TO.P,J4,2,Pin_2*%
%TO.N,Net-(J4-Pin_2)*%
X107950000Y-89100000D03*
%TO.P,J4,3,Pin_3*%
%TO.N,/DATA*%
X110450000Y-89100000D03*
%TD*%
D25*
%TO.P,R2,1*%
%TO.N,Net-(U1-PA02_A0_D0)*%
X57023000Y-68501900D03*
%TO.P,R2,2*%
%TO.N,GND*%
X57023000Y-66676900D03*
%TD*%
D11*
%TO.P,J5,1,Pin_1*%
%TO.N,GND*%
X105450000Y-94950000D03*
D12*
%TO.P,J5,2,Pin_2*%
%TO.N,Net-(J4-Pin_2)*%
X107950000Y-94950000D03*
%TO.P,J5,3,Pin_3*%
%TO.N,/DATA*%
X110450000Y-94950000D03*
%TD*%
D18*
%TO.P,LT2,16,GND*%
%TO.N,GND*%
X66040000Y-79375000D03*
%TO.P,LT2,15,GND*%
X66040000Y-76835000D03*
%TO.P,LT2,14,GND*%
X63500000Y-76835000D03*
D17*
%TO.P,LT2,13,Vout*%
%TO.N,Net-(J4-Pin_2)*%
X50800000Y-76835000D03*
%TO.P,LT2,12,Vout*%
X48260000Y-76835000D03*
%TO.P,LT2,11,Vout*%
X48260000Y-79375000D03*
D18*
%TO.P,LT2,10,GND*%
%TO.N,GND*%
X66040000Y-92075000D03*
%TO.P,LT2,9,GND*%
X66040000Y-94615000D03*
%TO.P,LT2,8,GND*%
X63500000Y-94615000D03*
D17*
%TO.P,LT2,7,PG*%
%TO.N,unconnected-(LT2-PG-Pad7)*%
X60960000Y-94615000D03*
%TO.P,LT2,6,INTVCC*%
%TO.N,unconnected-(LT2-INTVCC-Pad6)*%
X58420000Y-94615000D03*
%TO.P,LT2,5,MODE*%
%TO.N,unconnected-(LT2-MODE-Pad5)*%
X55880000Y-94615000D03*
%TO.P,LT2,4,EN/UV*%
%TO.N,/DCDC RST2*%
X53340000Y-94615000D03*
%TO.P,LT2,3,Vin*%
%TO.N,VDD*%
X50800000Y-94615000D03*
%TO.P,LT2,2,Vin*%
X48260000Y-94615000D03*
%TO.P,LT2,1,Vin*%
X48260000Y-92075000D03*
%TD*%
%TO.P,U1,14,5V*%
%TO.N,+5V*%
X43688000Y-60198000D03*
D18*
%TO.P,U1,13,GND*%
%TO.N,GND*%
X46228000Y-60198000D03*
D17*
%TO.P,U1,12,3V3*%
%TO.N,unconnected-(U1-3V3-Pad12)*%
X48768000Y-60198000D03*
%TO.P,U1,11,PA6_A10_D10_MOSI*%
%TO.N,/DCDC RST2*%
X51308000Y-60198000D03*
%TO.P,U1,10,PA5_A9_D9_MISO*%
%TO.N,/DCDC RST1*%
X53848000Y-60198000D03*
%TO.P,U1,9,PA7_A8_D8_SCK*%
%TO.N,unconnected-(U1-PA7_A8_D8_SCK-Pad9)*%
X56388000Y-60198000D03*
%TO.P,U1,8,PB09_A7_D7_RX*%
%TO.N,unconnected-(U1-PB09_A7_D7_RX-Pad8)*%
X58928000Y-60198000D03*
%TO.P,U1,7,PB08_A6_D6_TX*%
%TO.N,unconnected-(U1-PB08_A6_D6_TX-Pad7)*%
X58928000Y-72898000D03*
%TO.P,U1,6,PA9_A5_D5_SCL*%
%TO.N,/GREEN LED*%
X56388000Y-72898000D03*
%TO.P,U1,5,PA8_A4_D4_SDA*%
%TO.N,/RED LED*%
X53848000Y-72898000D03*
%TO.P,U1,4,PA11_A3_D3*%
%TO.N,unconnected-(U1-PA11_A3_D3-Pad4)*%
X51308000Y-72898000D03*
%TO.P,U1,3,PA10_A2_D2*%
%TO.N,unconnected-(U1-PA10_A2_D2-Pad3)*%
X48768000Y-72898000D03*
%TO.P,U1,2,PA4_A1_D1*%
%TO.N,unconnected-(U1-PA4_A1_D1-Pad2)*%
X46228000Y-72898000D03*
%TO.P,U1,1,PA02_A0_D0*%
%TO.N,Net-(U1-PA02_A0_D0)*%
X43688000Y-72898000D03*
%TD*%
D11*
%TO.P,J2,1,Pin_1*%
%TO.N,GND*%
X105450000Y-77400000D03*
D12*
%TO.P,J2,2,Pin_2*%
%TO.N,Net-(J2-Pin_2)*%
X107950000Y-77400000D03*
%TO.P,J2,3,Pin_3*%
%TO.N,/DATA*%
X110450000Y-77400000D03*
%TD*%
D19*
%TO.P,C5,1*%
%TO.N,Net-(J4-Pin_2)*%
X93258000Y-93980000D03*
D20*
%TO.P,C5,2*%
%TO.N,GND*%
X95758000Y-93980000D03*
%TD*%
D21*
%TO.P,C6,1*%
%TO.N,GND*%
X101092000Y-83158500D03*
%TO.P,C6,2*%
%TO.N,Net-(J2-Pin_2)*%
X101092000Y-81433500D03*
%TD*%
D26*
%TO.P,J1,*%
%TO.N,*%
X112600000Y-114300000D03*
X101600000Y-114300000D03*
D27*
%TO.P,J1,1,Pin_1*%
%TO.N,GND*%
X104600000Y-104300000D03*
D28*
%TO.P,J1,2,Pin_2*%
%TO.N,VDD*%
X109600000Y-104300000D03*
%TD*%
D29*
%TO.P,LDO1,3,Vout*%
%TO.N,+5V*%
X68046600Y-71602600D03*
%TO.P,LDO1,2,GND*%
%TO.N,GND*%
X68046600Y-69062600D03*
D30*
%TO.P,LDO1,1,Vin*%
%TO.N,VDD*%
X68046600Y-66522600D03*
%TD*%
D31*
%TO.N,GND*%
X58877200Y-63169800D03*
X55626000Y-67564000D03*
X52832000Y-69596000D03*
X56388000Y-70612000D03*
X59182000Y-70612000D03*
X52070000Y-64262000D03*
X40640000Y-62484000D03*
X55880000Y-64770000D03*
X44450000Y-66040000D03*
X48260000Y-66040000D03*
X48260000Y-71120000D03*
X44450000Y-71120000D03*
X40640000Y-71120000D03*
X40640000Y-74930000D03*
X44450000Y-74930000D03*
%TO.N,/DCDC RST1*%
X57912000Y-64262000D03*
X74930000Y-91948000D03*
X60207305Y-76962000D03*
%TO.N,GND*%
X88900000Y-71120000D03*
X83312000Y-71374000D03*
X78740000Y-71120000D03*
X73660000Y-71120000D03*
X73660000Y-66040000D03*
X78740000Y-66040000D03*
X83820000Y-66040000D03*
X88900000Y-66040000D03*
X88900000Y-60960000D03*
X83820000Y-60960000D03*
X78740000Y-60960000D03*
X73660000Y-60960000D03*
X68580000Y-60960000D03*
X63500000Y-60960000D03*
X71120000Y-81915000D03*
X56515000Y-80010000D03*
X54610000Y-77470000D03*
X59055000Y-77470000D03*
X59055000Y-81915000D03*
%TO.N,+5V*%
X61137800Y-63830200D03*
%TO.N,VDD*%
X61595000Y-81915000D03*
%TO.N,GND*%
X77470000Y-92075000D03*
X40005000Y-97790000D03*
X113030000Y-116840000D03*
X82296000Y-78994000D03*
X81280000Y-92075000D03*
X111760000Y-99060000D03*
X86995000Y-85090000D03*
X109220000Y-85090000D03*
X48895000Y-83185000D03*
X58420000Y-92075000D03*
X40005000Y-83185000D03*
X109220000Y-114935000D03*
X113030000Y-110490000D03*
X101600000Y-116840000D03*
X109220000Y-96520000D03*
X78994000Y-78994000D03*
X44450000Y-87630000D03*
X81915000Y-85090000D03*
X44450000Y-83185000D03*
X71120000Y-85090000D03*
X106680000Y-86360000D03*
X101625400Y-102235000D03*
X111760000Y-92710000D03*
X85598000Y-78994000D03*
X85598000Y-75438000D03*
X114300000Y-106680000D03*
X53340000Y-92075000D03*
X93218000Y-75438000D03*
X100965000Y-86360000D03*
X111760000Y-101600000D03*
X104140000Y-86360000D03*
X109220000Y-99060000D03*
X105410000Y-114935000D03*
X75692000Y-78994000D03*
X114300000Y-92710000D03*
X48895000Y-87630000D03*
X101600000Y-110490000D03*
X45720000Y-97790000D03*
X99060000Y-85090000D03*
X98425000Y-93980000D03*
X114300000Y-101600000D03*
X89662000Y-75438000D03*
X78740000Y-75692000D03*
X63500000Y-92075000D03*
X85090000Y-92075000D03*
X111760000Y-80645000D03*
X101600000Y-106680000D03*
X64135000Y-81915000D03*
X82042000Y-75565000D03*
X114300000Y-86360000D03*
X114300000Y-99060000D03*
X111760000Y-86360000D03*
X73660000Y-92075000D03*
X75692000Y-75692000D03*
X66040000Y-85090000D03*
X76200000Y-85090000D03*
X105410000Y-110490000D03*
X114300000Y-75565000D03*
X53340000Y-87630000D03*
X109220000Y-106680000D03*
X99060000Y-87630000D03*
X40005000Y-87630000D03*
X89535000Y-92075000D03*
X109220000Y-110490000D03*
X114300000Y-104140000D03*
X114300000Y-80645000D03*
X93980000Y-66040000D03*
%TD*%
D32*
%TO.N,/DCDC RST1*%
X59205076Y-67464000D02*
X60207305Y-68466229D01*
X57912000Y-66925076D02*
X58450924Y-67464000D01*
X58450924Y-67464000D02*
X59205076Y-67464000D01*
X57912000Y-64262000D02*
X57912000Y-66925076D01*
X60207305Y-68466229D02*
X60207305Y-76962000D01*
X74930000Y-94742000D02*
X74930000Y-91948000D01*
%TO.N,/DCDC RST2*%
X39878000Y-81153000D02*
X53340000Y-94615000D01*
X42926000Y-58928000D02*
X39878000Y-61976000D01*
X39878000Y-61976000D02*
X39878000Y-81153000D01*
X50038000Y-58928000D02*
X42926000Y-58928000D01*
X51308000Y-60198000D02*
X50038000Y-58928000D01*
D33*
%TO.N,+5V*%
X45567600Y-62077600D02*
X43688000Y-60198000D01*
X59385200Y-62077600D02*
X45567600Y-62077600D01*
X61137800Y-63830200D02*
X59385200Y-62077600D01*
D32*
%TO.N,Net-(U1-PA02_A0_D0)*%
X45110400Y-74320400D02*
X43688000Y-72898000D01*
X55092600Y-70432300D02*
X55092600Y-73507600D01*
X55092600Y-73507600D02*
X54279800Y-74320400D01*
X57023000Y-68501900D02*
X55092600Y-70432300D01*
X54279800Y-74320400D02*
X45110400Y-74320400D01*
X57048400Y-68476500D02*
X57023000Y-68501900D01*
X58928000Y-68476500D02*
X57048400Y-68476500D01*
%TO.N,VDD*%
X59076900Y-66502600D02*
X58928000Y-66651500D01*
X63474600Y-66502600D02*
X59076900Y-66502600D01*
D34*
X61595000Y-68382200D02*
X61595000Y-81915000D01*
X63474600Y-66502600D02*
X61595000Y-68382200D01*
X63494600Y-66522600D02*
X63474600Y-66502600D01*
X68046600Y-66522600D02*
X63494600Y-66522600D01*
D33*
%TO.N,Net-(D1-K)*%
X51712500Y-70485000D02*
X51712500Y-66930500D01*
X51712500Y-66930500D02*
X53878000Y-64765000D01*
%TO.N,/RED LED*%
X53848000Y-72898000D02*
X53848000Y-67335000D01*
X53848000Y-67335000D02*
X53878000Y-67305000D01*
D32*
%TO.N,GND*%
X105411500Y-83211500D02*
X105450000Y-83250000D01*
X105419500Y-77369500D02*
X105450000Y-77400000D01*
X105342500Y-94842500D02*
X105450000Y-94950000D01*
X105422500Y-89127500D02*
X105450000Y-89100000D01*
D35*
%TO.N,VDD*%
X69850000Y-97282000D02*
X69850000Y-92202000D01*
X99822000Y-97282000D02*
X72390000Y-97282000D01*
X69850000Y-97282000D02*
X50800000Y-97282000D01*
X106426000Y-99822000D02*
X109600000Y-102996000D01*
X50800000Y-94742000D02*
X48260000Y-92202000D01*
X50800000Y-97282000D02*
X50800000Y-94742000D01*
X72390000Y-97282000D02*
X69850000Y-97282000D01*
X109600000Y-102996000D02*
X109600000Y-104300000D01*
X102362000Y-99822000D02*
X106426000Y-99822000D01*
X50800000Y-97282000D02*
X48260000Y-94742000D01*
X72390000Y-94742000D02*
X72390000Y-97282000D01*
X69850000Y-92202000D02*
X72390000Y-94742000D01*
X48260000Y-92202000D02*
X48260000Y-94742000D01*
X99822000Y-97282000D02*
X102362000Y-99822000D01*
D32*
%TO.N,Net-(J2-Pin_2)*%
X101092000Y-79094500D02*
X101092000Y-80772000D01*
D36*
X107950000Y-80772000D02*
X107950000Y-83250000D01*
D35*
X99002380Y-81964000D02*
X100194380Y-80772000D01*
X100194380Y-80772000D02*
X101092000Y-80772000D01*
D36*
X107950000Y-80772000D02*
X101092000Y-80772000D01*
X107950000Y-77400000D02*
X107950000Y-80772000D01*
D34*
X93258000Y-86360000D02*
X93258000Y-81974800D01*
D35*
X93268800Y-81964000D02*
X99002380Y-81964000D01*
D32*
X93258000Y-81974800D02*
X93268800Y-81964000D01*
D35*
X74852000Y-81964000D02*
X93268800Y-81964000D01*
%TO.N,Net-(J4-Pin_2)*%
X48260000Y-76835000D02*
X48260000Y-79375000D01*
D36*
X107950000Y-91948000D02*
X101092000Y-91948000D01*
D35*
X48260000Y-76835000D02*
X60285000Y-88860000D01*
X48260000Y-76962000D02*
X50800000Y-76962000D01*
X60285000Y-88860000D02*
X90758000Y-88860000D01*
D36*
X107950000Y-91948000D02*
X107950000Y-94950000D01*
D34*
X93258000Y-93980000D02*
X93258000Y-91360000D01*
D35*
X50800000Y-76962000D02*
X48260000Y-79502000D01*
X90758000Y-88860000D02*
X93189000Y-91291000D01*
X93258000Y-91360000D02*
X93189000Y-91291000D01*
X93189000Y-91291000D02*
X100435000Y-91291000D01*
X100435000Y-91291000D02*
X101092000Y-91948000D01*
D33*
X101092000Y-90778500D02*
X101092000Y-93117500D01*
D36*
X107950000Y-89100000D02*
X107950000Y-91948000D01*
D37*
%TO.N,/DATA*%
X98281000Y-75692000D02*
X95504000Y-78469000D01*
X108742000Y-75692000D02*
X98281000Y-75692000D01*
X110450000Y-94950000D02*
X110450000Y-77400000D01*
X110450000Y-77400000D02*
X108742000Y-75692000D01*
D35*
%TO.N,Net-(J2-Pin_2)*%
X69850000Y-79502000D02*
X69850000Y-76962000D01*
X72390000Y-76962000D02*
X69850000Y-79502000D01*
X69850000Y-76962000D02*
X72390000Y-76962000D01*
X69850000Y-76962000D02*
X74852000Y-81964000D01*
%TD*%
%TA.AperFunction,Conductor*%
%TO.N,GND*%
G36*
X96463039Y-58439685D02*
G01*
X96508794Y-58492489D01*
X96520000Y-58544000D01*
X96520000Y-74930000D01*
X115446000Y-74930000D01*
X115513039Y-74949685D01*
X115558794Y-75002489D01*
X115570000Y-75054000D01*
X115570000Y-117986000D01*
X115550315Y-118053039D01*
X115497511Y-118098794D01*
X115446000Y-118110000D01*
X99184000Y-118110000D01*
X99116961Y-118090315D01*
X99071206Y-118037511D01*
X99060000Y-117986000D01*
X99060000Y-114300000D01*
X100694540Y-114300000D01*
X100714326Y-114488256D01*
X100714327Y-114488259D01*
X100772818Y-114668277D01*
X100772821Y-114668284D01*
X100867467Y-114832216D01*
X100994129Y-114972888D01*
X101147265Y-115084148D01*
X101147270Y-115084151D01*
X101320192Y-115161142D01*
X101320197Y-115161144D01*
X101505354Y-115200500D01*
X101505355Y-115200500D01*
X101694644Y-115200500D01*
X101694646Y-115200500D01*
X101879803Y-115161144D01*
X102052730Y-115084151D01*
X102205871Y-114972888D01*
X102332533Y-114832216D01*
X102427179Y-114668284D01*
X102485674Y-114488256D01*
X102505460Y-114300000D01*
X111694540Y-114300000D01*
X111714326Y-114488256D01*
X111714327Y-114488259D01*
X111772818Y-114668277D01*
X111772821Y-114668284D01*
X111867467Y-114832216D01*
X111994129Y-114972888D01*
X112147265Y-115084148D01*
X112147270Y-115084151D01*
X112320192Y-115161142D01*
X112320197Y-115161144D01*
X112505354Y-115200500D01*
X112505355Y-115200500D01*
X112694644Y-115200500D01*
X112694646Y-115200500D01*
X112879803Y-115161144D01*
X113052730Y-115084151D01*
X113205871Y-114972888D01*
X113332533Y-114832216D01*
X113427179Y-114668284D01*
X113485674Y-114488256D01*
X113505460Y-114300000D01*
X113485674Y-114111744D01*
X113427179Y-113931716D01*
X113332533Y-113767784D01*
X113205871Y-113627112D01*
X113205870Y-113627111D01*
X113052734Y-113515851D01*
X113052729Y-113515848D01*
X112879807Y-113438857D01*
X112879802Y-113438855D01*
X112734001Y-113407865D01*
X112694646Y-113399500D01*
X112505354Y-113399500D01*
X112472897Y-113406398D01*
X112320197Y-113438855D01*
X112320192Y-113438857D01*
X112147270Y-113515848D01*
X112147265Y-113515851D01*
X111994129Y-113627111D01*
X111867466Y-113767785D01*
X111772821Y-113931715D01*
X111772818Y-113931722D01*
X111714327Y-114111740D01*
X111714326Y-114111744D01*
X111694540Y-114300000D01*
X102505460Y-114300000D01*
X102485674Y-114111744D01*
X102427179Y-113931716D01*
X102332533Y-113767784D01*
X102205871Y-113627112D01*
X102205870Y-113627111D01*
X102052734Y-113515851D01*
X102052729Y-113515848D01*
X101879807Y-113438857D01*
X101879802Y-113438855D01*
X101734001Y-113407865D01*
X101694646Y-113399500D01*
X101505354Y-113399500D01*
X101472897Y-113406398D01*
X101320197Y-113438855D01*
X101320192Y-113438857D01*
X101147270Y-113515848D01*
X101147265Y-113515851D01*
X100994129Y-113627111D01*
X100867466Y-113767785D01*
X100772821Y-113931715D01*
X100772818Y-113931722D01*
X100714327Y-114111740D01*
X100714326Y-114111744D01*
X100694540Y-114300000D01*
X99060000Y-114300000D01*
X99060000Y-101622400D01*
X99079685Y-101555361D01*
X99132489Y-101509606D01*
X99184000Y-101498400D01*
X102059359Y-101498400D01*
X102075544Y-101499461D01*
X102250543Y-101522500D01*
X102473456Y-101522500D01*
X105670268Y-101522500D01*
X105737307Y-101542185D01*
X105757949Y-101558819D01*
X107728360Y-103529230D01*
X107761845Y-103590553D01*
X107756861Y-103660244D01*
X107723729Y-103749075D01*
X107723728Y-103749079D01*
X107664422Y-104021700D01*
X107644518Y-104299998D01*
X107644518Y-104300001D01*
X107664422Y-104578299D01*
X107723727Y-104850916D01*
X107723729Y-104850923D01*
X107784266Y-105013230D01*
X107821231Y-105112338D01*
X107821233Y-105112342D01*
X107954940Y-105357207D01*
X107954945Y-105357215D01*
X108122138Y-105580560D01*
X108122154Y-105580578D01*
X108319421Y-105777845D01*
X108319439Y-105777861D01*
X108542784Y-105945054D01*
X108542792Y-105945059D01*
X108787657Y-106078766D01*
X108787661Y-106078768D01*
X108787663Y-106078769D01*
X109049077Y-106176271D01*
X109185391Y-106205924D01*
X109321700Y-106235577D01*
X109321702Y-106235577D01*
X109321706Y-106235578D01*
X109569014Y-106253265D01*
X109599999Y-106255482D01*
X109600000Y-106255482D01*
X109600001Y-106255482D01*
X109627881Y-106253487D01*
X109878294Y-106235578D01*
X110150923Y-106176271D01*
X110412337Y-106078769D01*
X110657213Y-105945056D01*
X110880568Y-105777855D01*
X111077855Y-105580568D01*
X111245056Y-105357213D01*
X111378769Y-105112337D01*
X111476271Y-104850923D01*
X111535578Y-104578294D01*
X111555482Y-104300000D01*
X111535578Y-104021706D01*
X111476271Y-103749077D01*
X111378769Y-103487663D01*
X111378766Y-103487657D01*
X111315668Y-103372101D01*
X111300500Y-103312674D01*
X111300500Y-103111871D01*
X111300501Y-103111842D01*
X111300501Y-102884550D01*
X111300500Y-102884536D01*
X111299192Y-102874603D01*
X111271404Y-102663537D01*
X111213710Y-102448219D01*
X111128405Y-102242274D01*
X111016948Y-102049226D01*
X110881247Y-101872376D01*
X110881242Y-101872370D01*
X110721217Y-101712345D01*
X110721178Y-101712308D01*
X107710372Y-98701502D01*
X107710344Y-98701472D01*
X107549629Y-98540757D01*
X107549622Y-98540751D01*
X107372782Y-98405058D01*
X107372780Y-98405057D01*
X107372774Y-98405052D01*
X107179726Y-98293595D01*
X107179722Y-98293593D01*
X106973790Y-98208293D01*
X106973783Y-98208291D01*
X106973781Y-98208290D01*
X106758463Y-98150596D01*
X106709350Y-98144130D01*
X106537463Y-98121499D01*
X106537456Y-98121499D01*
X106314544Y-98121499D01*
X106310704Y-98121499D01*
X106310672Y-98121500D01*
X103117732Y-98121500D01*
X103050693Y-98101815D01*
X103030051Y-98085181D01*
X101106372Y-96161502D01*
X101106344Y-96161472D01*
X100945629Y-96000757D01*
X100945622Y-96000751D01*
X100768782Y-95865058D01*
X100768780Y-95865057D01*
X100768774Y-95865052D01*
X100575726Y-95753595D01*
X100575722Y-95753593D01*
X100369790Y-95668293D01*
X100369783Y-95668291D01*
X100369781Y-95668290D01*
X100154463Y-95610596D01*
X100105350Y-95604130D01*
X99933463Y-95581499D01*
X99933456Y-95581499D01*
X99710544Y-95581499D01*
X99706704Y-95581499D01*
X99706672Y-95581500D01*
X83368348Y-95581500D01*
X83301309Y-95561815D01*
X83255554Y-95509011D01*
X83245610Y-95439853D01*
X83272495Y-95378835D01*
X83354161Y-95279325D01*
X83354165Y-95279318D01*
X83369836Y-95250000D01*
X83443537Y-95112115D01*
X83498573Y-94930683D01*
X83517157Y-94742000D01*
X83498573Y-94553317D01*
X83443537Y-94371885D01*
X83433644Y-94353376D01*
X83354165Y-94204681D01*
X83354161Y-94204674D01*
X83233883Y-94058116D01*
X83087325Y-93937838D01*
X83087318Y-93937834D01*
X82920122Y-93848466D01*
X82920119Y-93848465D01*
X82920118Y-93848464D01*
X82920115Y-93848463D01*
X82738683Y-93793427D01*
X82738681Y-93793426D01*
X82738683Y-93793426D01*
X82550000Y-93774843D01*
X82361318Y-93793426D01*
X82254194Y-93825921D01*
X82179885Y-93848463D01*
X82179882Y-93848464D01*
X82179880Y-93848465D01*
X82179877Y-93848466D01*
X82012681Y-93937834D01*
X82012674Y-93937838D01*
X81866116Y-94058116D01*
X81745838Y-94204674D01*
X81745834Y-94204681D01*
X81656466Y-94371877D01*
X81656465Y-94371880D01*
X81656464Y-94371882D01*
X81656463Y-94371885D01*
X81639951Y-94426318D01*
X81601426Y-94553318D01*
X81582843Y-94742000D01*
X81601426Y-94930681D01*
X81617940Y-94985119D01*
X81656463Y-95112115D01*
X81656464Y-95112118D01*
X81656465Y-95112119D01*
X81656466Y-95112122D01*
X81745834Y-95279318D01*
X81745838Y-95279325D01*
X81827505Y-95378835D01*
X81854818Y-95443145D01*
X81843027Y-95512012D01*
X81795875Y-95563572D01*
X81731652Y-95581500D01*
X80828348Y-95581500D01*
X80761309Y-95561815D01*
X80715554Y-95509011D01*
X80705610Y-95439853D01*
X80732495Y-95378835D01*
X80814161Y-95279325D01*
X80814165Y-95279318D01*
X80829836Y-95250000D01*
X80903537Y-95112115D01*
X80958573Y-94930683D01*
X80977157Y-94742000D01*
X80958573Y-94553317D01*
X80903537Y-94371885D01*
X80893644Y-94353376D01*
X80814165Y-94204681D01*
X80814161Y-94204674D01*
X80693883Y-94058116D01*
X80547325Y-93937838D01*
X80547318Y-93937834D01*
X80380122Y-93848466D01*
X80380119Y-93848465D01*
X80380118Y-93848464D01*
X80380115Y-93848463D01*
X80198683Y-93793427D01*
X80198681Y-93793426D01*
X80198683Y-93793426D01*
X80010000Y-93774843D01*
X79821318Y-93793426D01*
X79714194Y-93825921D01*
X79639885Y-93848463D01*
X79639882Y-93848464D01*
X79639880Y-93848465D01*
X79639877Y-93848466D01*
X79472681Y-93937834D01*
X79472674Y-93937838D01*
X79326116Y-94058116D01*
X79205838Y-94204674D01*
X79205834Y-94204681D01*
X79116466Y-94371877D01*
X79116465Y-94371880D01*
X79116464Y-94371882D01*
X79116463Y-94371885D01*
X79099951Y-94426318D01*
X79061426Y-94553318D01*
X79042843Y-94742000D01*
X79061426Y-94930681D01*
X79077940Y-94985119D01*
X79116463Y-95112115D01*
X79116464Y-95112118D01*
X79116465Y-95112119D01*
X79116466Y-95112122D01*
X79205834Y-95279318D01*
X79205838Y-95279325D01*
X79287505Y-95378835D01*
X79314818Y-95443145D01*
X79303027Y-95512012D01*
X79255875Y-95563572D01*
X79191652Y-95581500D01*
X78288348Y-95581500D01*
X78221309Y-95561815D01*
X78175554Y-95509011D01*
X78165610Y-95439853D01*
X78192495Y-95378835D01*
X78274161Y-95279325D01*
X78274165Y-95279318D01*
X78289836Y-95250000D01*
X78363537Y-95112115D01*
X78418573Y-94930683D01*
X78437157Y-94742000D01*
X78418573Y-94553317D01*
X78363537Y-94371885D01*
X78353644Y-94353376D01*
X78274165Y-94204681D01*
X78274161Y-94204674D01*
X78153883Y-94058116D01*
X78007325Y-93937838D01*
X78007318Y-93937834D01*
X77840122Y-93848466D01*
X77840119Y-93848465D01*
X77840118Y-93848464D01*
X77840115Y-93848463D01*
X77658683Y-93793427D01*
X77658681Y-93793426D01*
X77658683Y-93793426D01*
X77470000Y-93774843D01*
X77281318Y-93793426D01*
X77174194Y-93825921D01*
X77099885Y-93848463D01*
X77099882Y-93848464D01*
X77099880Y-93848465D01*
X77099877Y-93848466D01*
X76932681Y-93937834D01*
X76932674Y-93937838D01*
X76786116Y-94058116D01*
X76665838Y-94204674D01*
X76665834Y-94204681D01*
X76576466Y-94371877D01*
X76576465Y-94371880D01*
X76576464Y-94371882D01*
X76576463Y-94371885D01*
X76559951Y-94426318D01*
X76521426Y-94553318D01*
X76502843Y-94742000D01*
X76521426Y-94930681D01*
X76537940Y-94985119D01*
X76576463Y-95112115D01*
X76576464Y-95112118D01*
X76576465Y-95112119D01*
X76576466Y-95112122D01*
X76665834Y-95279318D01*
X76665838Y-95279325D01*
X76747505Y-95378835D01*
X76774818Y-95443145D01*
X76763027Y-95512012D01*
X76715875Y-95563572D01*
X76651652Y-95581500D01*
X75748348Y-95581500D01*
X75681309Y-95561815D01*
X75635554Y-95509011D01*
X75625610Y-95439853D01*
X75652495Y-95378835D01*
X75734161Y-95279325D01*
X75734165Y-95279318D01*
X75749836Y-95250000D01*
X75823537Y-95112115D01*
X75878573Y-94930683D01*
X75897157Y-94742000D01*
X75878573Y-94553317D01*
X75823537Y-94371885D01*
X75813644Y-94353376D01*
X75734165Y-94204681D01*
X75734161Y-94204674D01*
X75613883Y-94058116D01*
X75467325Y-93937838D01*
X75467318Y-93937833D01*
X75321047Y-93859650D01*
X75271202Y-93810688D01*
X75255500Y-93750292D01*
X75255500Y-92516298D01*
X75275185Y-92449259D01*
X75304010Y-92417925D01*
X75358282Y-92376282D01*
X75454536Y-92250841D01*
X75515044Y-92104762D01*
X75535682Y-91948000D01*
X75515044Y-91791238D01*
X75454536Y-91645159D01*
X75358282Y-91519718D01*
X75232841Y-91423464D01*
X75086762Y-91362956D01*
X75086760Y-91362955D01*
X74930001Y-91342318D01*
X74929999Y-91342318D01*
X74773239Y-91362955D01*
X74773237Y-91362956D01*
X74627160Y-91423463D01*
X74501718Y-91519718D01*
X74405463Y-91645160D01*
X74344956Y-91791237D01*
X74344955Y-91791239D01*
X74324318Y-91947998D01*
X74324318Y-91948001D01*
X74344955Y-92104760D01*
X74344956Y-92104762D01*
X74405464Y-92250841D01*
X74501718Y-92376282D01*
X74555987Y-92417924D01*
X74597189Y-92474349D01*
X74604500Y-92516298D01*
X74604500Y-93750292D01*
X74584815Y-93817331D01*
X74538953Y-93859650D01*
X74392681Y-93937833D01*
X74392674Y-93937838D01*
X74246115Y-94058117D01*
X74178796Y-94140145D01*
X74121050Y-94179479D01*
X74051206Y-94181348D01*
X73991438Y-94145160D01*
X73968383Y-94108931D01*
X73918409Y-93988282D01*
X73918401Y-93988266D01*
X73806952Y-93795232D01*
X73806948Y-93795225D01*
X73775851Y-93754699D01*
X73712298Y-93671875D01*
X73712295Y-93671872D01*
X73693857Y-93647843D01*
X73671247Y-93618376D01*
X73671244Y-93618373D01*
X73671240Y-93618368D01*
X73511217Y-93458345D01*
X73511178Y-93458308D01*
X71134372Y-91081502D01*
X71134344Y-91081472D01*
X70973629Y-90920757D01*
X70973622Y-90920751D01*
X70793938Y-90782876D01*
X70752735Y-90726449D01*
X70748580Y-90656703D01*
X70782792Y-90595782D01*
X70844509Y-90563029D01*
X70869424Y-90560500D01*
X90002268Y-90560500D01*
X90069307Y-90580185D01*
X90089949Y-90596819D01*
X91905308Y-92412178D01*
X91905345Y-92412217D01*
X92068461Y-92575333D01*
X92068488Y-92575358D01*
X92124221Y-92631091D01*
X92134379Y-92641249D01*
X92281483Y-92754125D01*
X92311226Y-92776948D01*
X92347267Y-92797756D01*
X92395482Y-92848322D01*
X92408706Y-92916929D01*
X92382738Y-92981794D01*
X92354159Y-93008244D01*
X92313448Y-93035446D01*
X92269132Y-93101769D01*
X92269131Y-93101770D01*
X92257500Y-93160247D01*
X92257500Y-94799752D01*
X92269131Y-94858229D01*
X92269132Y-94858230D01*
X92313447Y-94924552D01*
X92379769Y-94968867D01*
X92379770Y-94968868D01*
X92438247Y-94980499D01*
X92438250Y-94980500D01*
X92438252Y-94980500D01*
X94077750Y-94980500D01*
X94077751Y-94980499D01*
X94092568Y-94977552D01*
X94136229Y-94968868D01*
X94136229Y-94968867D01*
X94136231Y-94968867D01*
X94202552Y-94924552D01*
X94246867Y-94858231D01*
X94246867Y-94858229D01*
X94246868Y-94858229D01*
X94258499Y-94799752D01*
X94258500Y-94799750D01*
X94258500Y-93160249D01*
X94258499Y-93160247D01*
X94254411Y-93139691D01*
X94260638Y-93070099D01*
X94303502Y-93014922D01*
X94369392Y-92991678D01*
X94376028Y-92991500D01*
X99679268Y-92991500D01*
X99746307Y-93011185D01*
X99766949Y-93027819D01*
X99968372Y-93229243D01*
X99968377Y-93229247D01*
X100145226Y-93364948D01*
X100338274Y-93476405D01*
X100372148Y-93490436D01*
X100426550Y-93534273D01*
X100441737Y-93564041D01*
X100462884Y-93624475D01*
X100462884Y-93624476D01*
X100541288Y-93730710D01*
X100541289Y-93730711D01*
X100647523Y-93809115D01*
X100647524Y-93809115D01*
X100647525Y-93809116D01*
X100772151Y-93852725D01*
X100772150Y-93852725D01*
X100801740Y-93855500D01*
X100801744Y-93855500D01*
X101382260Y-93855500D01*
X101411849Y-93852725D01*
X101467853Y-93833128D01*
X101536475Y-93809116D01*
X101642711Y-93730711D01*
X101721116Y-93624475D01*
X101742262Y-93564041D01*
X101782983Y-93507266D01*
X101811851Y-93490435D01*
X101845725Y-93476405D01*
X102038774Y-93364948D01*
X102215623Y-93229247D01*
X102260050Y-93184820D01*
X102321373Y-93151334D01*
X102347732Y-93148500D01*
X106625500Y-93148500D01*
X106692539Y-93168185D01*
X106738294Y-93220989D01*
X106749500Y-93272500D01*
X106749500Y-95044486D01*
X106779059Y-95231118D01*
X106837454Y-95410836D01*
X106895389Y-95524539D01*
X106923240Y-95579199D01*
X107034310Y-95732073D01*
X107167927Y-95865690D01*
X107320801Y-95976760D01*
X107367890Y-96000753D01*
X107489163Y-96062545D01*
X107489165Y-96062545D01*
X107489168Y-96062547D01*
X107558668Y-96085129D01*
X107668881Y-96120940D01*
X107855514Y-96150500D01*
X107855519Y-96150500D01*
X108044486Y-96150500D01*
X108231118Y-96120940D01*
X108410832Y-96062547D01*
X108579199Y-95976760D01*
X108732073Y-95865690D01*
X108865690Y-95732073D01*
X108976760Y-95579199D01*
X109062547Y-95410832D01*
X109120940Y-95231118D01*
X109129279Y-95178466D01*
X109150500Y-95044486D01*
X109150500Y-89005513D01*
X109120940Y-88818881D01*
X109072106Y-88668587D01*
X109062547Y-88639168D01*
X109062545Y-88639165D01*
X109062545Y-88639163D01*
X109017290Y-88550347D01*
X108976760Y-88470801D01*
X108865690Y-88317927D01*
X108732073Y-88184310D01*
X108579199Y-88073240D01*
X108521934Y-88044062D01*
X108410836Y-87987454D01*
X108231118Y-87929059D01*
X108044486Y-87899500D01*
X108044481Y-87899500D01*
X107855519Y-87899500D01*
X107855514Y-87899500D01*
X107668881Y-87929059D01*
X107489163Y-87987454D01*
X107320800Y-88073240D01*
X107233579Y-88136610D01*
X107167927Y-88184310D01*
X107167925Y-88184312D01*
X107167924Y-88184312D01*
X107034312Y-88317924D01*
X107034312Y-88317925D01*
X107034310Y-88317927D01*
X106986610Y-88383579D01*
X106923240Y-88470800D01*
X106837454Y-88639163D01*
X106779059Y-88818881D01*
X106749500Y-89005513D01*
X106749500Y-90623500D01*
X106729815Y-90690539D01*
X106677011Y-90736294D01*
X106625500Y-90747500D01*
X102347732Y-90747500D01*
X102280693Y-90727815D01*
X102260051Y-90711181D01*
X101719372Y-90170502D01*
X101719344Y-90170472D01*
X101558629Y-90009757D01*
X101558622Y-90009751D01*
X101381782Y-89874058D01*
X101381780Y-89874057D01*
X101381774Y-89874052D01*
X101188726Y-89762595D01*
X101188722Y-89762593D01*
X100982790Y-89677293D01*
X100982783Y-89677291D01*
X100982781Y-89677290D01*
X100767463Y-89619596D01*
X100718350Y-89613130D01*
X100546463Y-89590499D01*
X100546456Y-89590499D01*
X100323544Y-89590499D01*
X100319704Y-89590499D01*
X100319672Y-89590500D01*
X93944732Y-89590500D01*
X93877693Y-89570815D01*
X93857051Y-89554181D01*
X92042372Y-87739502D01*
X92042344Y-87739472D01*
X91881629Y-87578757D01*
X91881622Y-87578751D01*
X91704782Y-87443058D01*
X91704780Y-87443057D01*
X91704774Y-87443052D01*
X91511726Y-87331595D01*
X91511722Y-87331593D01*
X91305790Y-87246293D01*
X91305783Y-87246291D01*
X91305781Y-87246290D01*
X91090463Y-87188596D01*
X91041350Y-87182130D01*
X90869463Y-87159499D01*
X90869456Y-87159499D01*
X90646544Y-87159499D01*
X90642704Y-87159499D01*
X90642672Y-87159500D01*
X61040732Y-87159500D01*
X60973693Y-87139815D01*
X60953051Y-87123181D01*
X52085924Y-78256054D01*
X52052439Y-78194731D01*
X52057423Y-78125039D01*
X52078965Y-78088990D01*
X52078776Y-78088845D01*
X52080025Y-78087216D01*
X52080403Y-78086585D01*
X52081234Y-78085636D01*
X52081247Y-78085624D01*
X52215568Y-77910573D01*
X52216948Y-77908775D01*
X52216949Y-77908772D01*
X52216952Y-77908769D01*
X52328401Y-77715733D01*
X52328401Y-77715732D01*
X52328405Y-77715726D01*
X52413710Y-77509781D01*
X52471404Y-77294464D01*
X52500500Y-77073457D01*
X52500500Y-76850544D01*
X52471404Y-76629537D01*
X52446307Y-76535872D01*
X52413710Y-76414219D01*
X52328405Y-76208274D01*
X52216948Y-76015226D01*
X52098362Y-75860681D01*
X52081248Y-75838377D01*
X52081242Y-75838370D01*
X51923629Y-75680757D01*
X51923622Y-75680751D01*
X51746782Y-75545058D01*
X51746780Y-75545057D01*
X51746774Y-75545052D01*
X51553726Y-75433595D01*
X51553722Y-75433593D01*
X51347790Y-75348293D01*
X51347783Y-75348291D01*
X51347781Y-75348290D01*
X51132463Y-75290596D01*
X51132457Y-75290595D01*
X51132452Y-75290594D01*
X50911466Y-75261501D01*
X50911463Y-75261500D01*
X50911457Y-75261500D01*
X50911450Y-75261500D01*
X48929522Y-75261500D01*
X48882069Y-75252061D01*
X48807790Y-75221293D01*
X48807783Y-75221291D01*
X48807781Y-75221290D01*
X48592463Y-75163596D01*
X48543350Y-75157130D01*
X48371463Y-75134499D01*
X48371456Y-75134499D01*
X48148544Y-75134499D01*
X48148536Y-75134499D01*
X47952093Y-75160363D01*
X47927537Y-75163596D01*
X47712219Y-75221290D01*
X47712209Y-75221293D01*
X47506277Y-75306593D01*
X47506273Y-75306595D01*
X47313226Y-75418052D01*
X47313217Y-75418058D01*
X47136377Y-75553751D01*
X47136370Y-75553757D01*
X46978757Y-75711370D01*
X46978751Y-75711377D01*
X46889811Y-75827288D01*
X46843058Y-75888217D01*
X46843052Y-75888226D01*
X46731595Y-76081273D01*
X46731593Y-76081277D01*
X46646293Y-76287209D01*
X46646290Y-76287219D01*
X46593480Y-76484312D01*
X46588596Y-76502538D01*
X46559499Y-76723536D01*
X46559499Y-76950842D01*
X46559500Y-76950871D01*
X46559500Y-79386671D01*
X46559499Y-79386705D01*
X46559499Y-79613463D01*
X46579842Y-79767971D01*
X46588596Y-79834463D01*
X46606942Y-79902931D01*
X46646290Y-80049780D01*
X46646293Y-80049790D01*
X46719771Y-80227181D01*
X46731595Y-80255726D01*
X46843052Y-80448774D01*
X46843057Y-80448780D01*
X46843058Y-80448782D01*
X46978751Y-80625621D01*
X46978757Y-80625628D01*
X47136371Y-80783242D01*
X47136378Y-80783248D01*
X47262309Y-80879878D01*
X47313226Y-80918948D01*
X47506274Y-81030405D01*
X47636140Y-81084197D01*
X47698788Y-81110147D01*
X47712219Y-81115710D01*
X47927537Y-81173404D01*
X48148544Y-81202501D01*
X48148551Y-81202501D01*
X48371449Y-81202501D01*
X48371456Y-81202501D01*
X48592463Y-81173404D01*
X48807781Y-81115710D01*
X49013726Y-81030405D01*
X49206774Y-80918948D01*
X49383623Y-80783247D01*
X49505820Y-80661049D01*
X49567141Y-80627566D01*
X49636833Y-80632550D01*
X49681181Y-80661051D01*
X59001308Y-89981178D01*
X59001345Y-89981217D01*
X59161370Y-90141242D01*
X59161377Y-90141248D01*
X59285352Y-90236376D01*
X59285353Y-90236378D01*
X59338216Y-90276941D01*
X59338220Y-90276943D01*
X59338226Y-90276948D01*
X59531274Y-90388405D01*
X59737219Y-90473710D01*
X59952537Y-90531404D01*
X60173544Y-90560501D01*
X60173551Y-90560501D01*
X60400296Y-90560501D01*
X60400328Y-90560500D01*
X68830576Y-90560500D01*
X68897615Y-90580185D01*
X68943370Y-90632989D01*
X68953314Y-90702147D01*
X68924289Y-90765703D01*
X68906062Y-90782876D01*
X68726377Y-90920751D01*
X68726370Y-90920757D01*
X68568759Y-91078368D01*
X68568755Y-91078373D01*
X68491125Y-91179543D01*
X68433058Y-91255217D01*
X68433052Y-91255226D01*
X68321595Y-91448273D01*
X68321593Y-91448277D01*
X68236293Y-91654209D01*
X68236290Y-91654219D01*
X68198885Y-91793819D01*
X68178596Y-91869538D01*
X68149499Y-92090536D01*
X68149499Y-92317842D01*
X68149500Y-92317871D01*
X68149500Y-95457500D01*
X68129815Y-95524539D01*
X68077011Y-95570294D01*
X68025500Y-95581500D01*
X61646071Y-95581500D01*
X61579032Y-95561815D01*
X61533277Y-95509011D01*
X61523333Y-95439853D01*
X61552358Y-95376297D01*
X61567406Y-95361647D01*
X61643883Y-95298883D01*
X61742705Y-95178469D01*
X61764162Y-95152324D01*
X61853537Y-94985115D01*
X61908573Y-94803683D01*
X61927157Y-94615000D01*
X61908573Y-94426317D01*
X61853537Y-94244885D01*
X61831559Y-94203767D01*
X61764165Y-94077681D01*
X61764161Y-94077674D01*
X61643883Y-93931116D01*
X61497325Y-93810838D01*
X61497318Y-93810834D01*
X61330122Y-93721466D01*
X61330119Y-93721465D01*
X61330118Y-93721464D01*
X61330115Y-93721463D01*
X61148683Y-93666427D01*
X61148681Y-93666426D01*
X61148683Y-93666426D01*
X60960000Y-93647843D01*
X60771318Y-93666426D01*
X60664194Y-93698921D01*
X60589885Y-93721463D01*
X60589882Y-93721464D01*
X60589880Y-93721465D01*
X60589877Y-93721466D01*
X60422681Y-93810834D01*
X60422674Y-93810838D01*
X60276116Y-93931116D01*
X60155838Y-94077674D01*
X60155834Y-94077681D01*
X60066466Y-94244877D01*
X60066465Y-94244880D01*
X60011426Y-94426318D01*
X59992843Y-94615000D01*
X60011426Y-94803681D01*
X60011427Y-94803683D01*
X60066463Y-94985115D01*
X60066464Y-94985118D01*
X60066465Y-94985119D01*
X60066466Y-94985122D01*
X60155834Y-95152318D01*
X60155838Y-95152325D01*
X60276116Y-95298883D01*
X60352594Y-95361647D01*
X60391928Y-95419393D01*
X60393799Y-95489237D01*
X60357611Y-95549006D01*
X60294855Y-95579721D01*
X60273929Y-95581500D01*
X59106071Y-95581500D01*
X59039032Y-95561815D01*
X58993277Y-95509011D01*
X58983333Y-95439853D01*
X59012358Y-95376297D01*
X59027406Y-95361647D01*
X59103883Y-95298883D01*
X59202705Y-95178469D01*
X59224162Y-95152324D01*
X59313537Y-94985115D01*
X59368573Y-94803683D01*
X59387157Y-94615000D01*
X59368573Y-94426317D01*
X59313537Y-94244885D01*
X59291559Y-94203767D01*
X59224165Y-94077681D01*
X59224161Y-94077674D01*
X59103883Y-93931116D01*
X58957325Y-93810838D01*
X58957318Y-93810834D01*
X58790122Y-93721466D01*
X58790119Y-93721465D01*
X58790118Y-93721464D01*
X58790115Y-93721463D01*
X58608683Y-93666427D01*
X58608681Y-93666426D01*
X58608683Y-93666426D01*
X58420000Y-93647843D01*
X58231318Y-93666426D01*
X58124194Y-93698921D01*
X58049885Y-93721463D01*
X58049882Y-93721464D01*
X58049880Y-93721465D01*
X58049877Y-93721466D01*
X57882681Y-93810834D01*
X57882674Y-93810838D01*
X57736116Y-93931116D01*
X57615838Y-94077674D01*
X57615834Y-94077681D01*
X57526466Y-94244877D01*
X57526465Y-94244880D01*
X57471426Y-94426318D01*
X57452843Y-94615000D01*
X57471426Y-94803681D01*
X57471427Y-94803683D01*
X57526463Y-94985115D01*
X57526464Y-94985118D01*
X57526465Y-94985119D01*
X57526466Y-94985122D01*
X57615834Y-95152318D01*
X57615838Y-95152325D01*
X57736116Y-95298883D01*
X57812594Y-95361647D01*
X57851928Y-95419393D01*
X57853799Y-95489237D01*
X57817611Y-95549006D01*
X57754855Y-95579721D01*
X57733929Y-95581500D01*
X56566071Y-95581500D01*
X56499032Y-95561815D01*
X56453277Y-95509011D01*
X56443333Y-95439853D01*
X56472358Y-95376297D01*
X56487406Y-95361647D01*
X56563883Y-95298883D01*
X56662705Y-95178469D01*
X56684162Y-95152324D01*
X56773537Y-94985115D01*
X56828573Y-94803683D01*
X56847157Y-94615000D01*
X56828573Y-94426317D01*
X56773537Y-94244885D01*
X56751559Y-94203767D01*
X56684165Y-94077681D01*
X56684161Y-94077674D01*
X56563883Y-93931116D01*
X56417325Y-93810838D01*
X56417318Y-93810834D01*
X56250122Y-93721466D01*
X56250119Y-93721465D01*
X56250118Y-93721464D01*
X56250115Y-93721463D01*
X56068683Y-93666427D01*
X56068681Y-93666426D01*
X56068683Y-93666426D01*
X55880000Y-93647843D01*
X55691318Y-93666426D01*
X55584194Y-93698921D01*
X55509885Y-93721463D01*
X55509882Y-93721464D01*
X55509880Y-93721465D01*
X55509877Y-93721466D01*
X55342681Y-93810834D01*
X55342674Y-93810838D01*
X55196116Y-93931116D01*
X55075838Y-94077674D01*
X55075834Y-94077681D01*
X54986466Y-94244877D01*
X54986465Y-94244880D01*
X54931426Y-94426318D01*
X54912843Y-94615000D01*
X54931426Y-94803681D01*
X54931427Y-94803683D01*
X54986463Y-94985115D01*
X54986464Y-94985118D01*
X54986465Y-94985119D01*
X54986466Y-94985122D01*
X55075834Y-95152318D01*
X55075838Y-95152325D01*
X55196116Y-95298883D01*
X55272594Y-95361647D01*
X55311928Y-95419393D01*
X55313799Y-95489237D01*
X55277611Y-95549006D01*
X55214855Y-95579721D01*
X55193929Y-95581500D01*
X54026071Y-95581500D01*
X53959032Y-95561815D01*
X53913277Y-95509011D01*
X53903333Y-95439853D01*
X53932358Y-95376297D01*
X53947406Y-95361647D01*
X54023883Y-95298883D01*
X54122705Y-95178469D01*
X54144162Y-95152324D01*
X54233537Y-94985115D01*
X54288573Y-94803683D01*
X54307157Y-94615000D01*
X54288573Y-94426317D01*
X54233537Y-94244885D01*
X54211559Y-94203767D01*
X54144165Y-94077681D01*
X54144161Y-94077674D01*
X54023883Y-93931116D01*
X53877325Y-93810838D01*
X53877318Y-93810834D01*
X53710122Y-93721466D01*
X53710119Y-93721465D01*
X53710118Y-93721464D01*
X53710115Y-93721463D01*
X53528683Y-93666427D01*
X53528681Y-93666426D01*
X53528683Y-93666426D01*
X53340000Y-93647843D01*
X53151317Y-93666426D01*
X52992595Y-93714573D01*
X52922728Y-93715196D01*
X52868920Y-93683593D01*
X40239819Y-81054492D01*
X40206334Y-80993169D01*
X40203500Y-80966811D01*
X40203500Y-80015725D01*
X40223185Y-79948686D01*
X40275989Y-79902931D01*
X40345147Y-79892987D01*
X40408703Y-79922012D01*
X40441359Y-79966611D01*
X40494107Y-80088895D01*
X40494113Y-80088908D01*
X40668870Y-80391597D01*
X40877584Y-80671949D01*
X40877589Y-80671955D01*
X41001463Y-80803253D01*
X41117442Y-80926183D01*
X41270355Y-81054492D01*
X41385186Y-81150847D01*
X41385194Y-81150853D01*
X41677203Y-81342911D01*
X41677207Y-81342913D01*
X41989549Y-81499777D01*
X42317989Y-81619319D01*
X42658086Y-81699923D01*
X43005241Y-81740500D01*
X43005248Y-81740500D01*
X43354752Y-81740500D01*
X43354759Y-81740500D01*
X43701914Y-81699923D01*
X44042011Y-81619319D01*
X44370451Y-81499777D01*
X44682793Y-81342913D01*
X44940518Y-81173404D01*
X44974805Y-81150853D01*
X44974805Y-81150852D01*
X44974811Y-81150849D01*
X45242558Y-80926183D01*
X45482412Y-80671953D01*
X45691130Y-80391596D01*
X45865889Y-80088904D01*
X46004326Y-79767971D01*
X46104569Y-79433136D01*
X46112081Y-79390536D01*
X46165260Y-79088938D01*
X46165259Y-79088938D01*
X46165262Y-79088927D01*
X46182561Y-78791902D01*
X46185585Y-78740003D01*
X46185585Y-78739996D01*
X46173510Y-78532686D01*
X46165262Y-78391073D01*
X46156429Y-78340977D01*
X46104571Y-78046872D01*
X46104569Y-78046865D01*
X46104569Y-78046864D01*
X46004326Y-77712029D01*
X45865889Y-77391096D01*
X45739123Y-77171530D01*
X45691129Y-77088402D01*
X45482415Y-76808050D01*
X45482410Y-76808044D01*
X45313996Y-76629537D01*
X45242558Y-76553817D01*
X45076179Y-76414209D01*
X44974813Y-76329152D01*
X44974805Y-76329146D01*
X44682796Y-76137088D01*
X44370458Y-75980226D01*
X44370449Y-75980222D01*
X44042012Y-75860681D01*
X44042009Y-75860680D01*
X43701915Y-75780077D01*
X43658519Y-75775004D01*
X43354759Y-75739500D01*
X43005241Y-75739500D01*
X42701480Y-75775004D01*
X42658085Y-75780077D01*
X42658083Y-75780077D01*
X42317990Y-75860680D01*
X42317987Y-75860681D01*
X41989551Y-75980222D01*
X41989541Y-75980226D01*
X41677203Y-76137088D01*
X41385194Y-76329146D01*
X41385186Y-76329152D01*
X41117442Y-76553817D01*
X41117440Y-76553819D01*
X40877589Y-76808044D01*
X40877584Y-76808050D01*
X40668870Y-77088402D01*
X40494113Y-77391091D01*
X40494107Y-77391104D01*
X40441359Y-77513388D01*
X40396731Y-77567148D01*
X40330123Y-77588246D01*
X40262682Y-77569984D01*
X40215820Y-77518160D01*
X40203500Y-77464274D01*
X40203500Y-72898000D01*
X42720843Y-72898000D01*
X42739426Y-73086681D01*
X42739427Y-73086683D01*
X42794463Y-73268115D01*
X42794464Y-73268118D01*
X42794465Y-73268119D01*
X42794466Y-73268122D01*
X42883834Y-73435318D01*
X42883838Y-73435325D01*
X43004116Y-73581883D01*
X43150674Y-73702161D01*
X43150681Y-73702165D01*
X43317877Y-73791533D01*
X43317878Y-73791533D01*
X43317885Y-73791537D01*
X43499317Y-73846573D01*
X43499316Y-73846573D01*
X43516233Y-73848239D01*
X43688000Y-73865157D01*
X43876683Y-73846573D01*
X44023269Y-73802106D01*
X44093136Y-73801484D01*
X44114718Y-73809859D01*
X44146348Y-73825674D01*
X44178575Y-73848902D01*
X44849934Y-74520261D01*
X44849935Y-74520262D01*
X44910538Y-74580865D01*
X44910540Y-74580866D01*
X44910544Y-74580869D01*
X44984755Y-74623714D01*
X44984762Y-74623718D01*
X45067547Y-74645900D01*
X45067549Y-74645900D01*
X54322651Y-74645900D01*
X54322653Y-74645900D01*
X54405439Y-74623718D01*
X54479662Y-74580865D01*
X55282252Y-73778272D01*
X55282257Y-73778269D01*
X55292460Y-73768065D01*
X55292462Y-73768065D01*
X55353065Y-73707462D01*
X55380465Y-73660002D01*
X55380467Y-73660001D01*
X55395917Y-73633241D01*
X55395917Y-73633240D01*
X55395918Y-73633239D01*
X55418100Y-73550453D01*
X55418100Y-73550450D01*
X55419668Y-73544599D01*
X55456032Y-73484938D01*
X55518879Y-73454408D01*
X55588255Y-73462702D01*
X55635296Y-73498026D01*
X55704116Y-73581883D01*
X55850674Y-73702161D01*
X55850681Y-73702165D01*
X56017877Y-73791533D01*
X56017878Y-73791533D01*
X56017885Y-73791537D01*
X56199317Y-73846573D01*
X56199316Y-73846573D01*
X56216233Y-73848239D01*
X56388000Y-73865157D01*
X56576683Y-73846573D01*
X56758115Y-73791537D01*
X56925324Y-73702162D01*
X57071883Y-73581883D01*
X57192162Y-73435324D01*
X57281537Y-73268115D01*
X57336573Y-73086683D01*
X57355157Y-72898000D01*
X57336573Y-72709317D01*
X57281537Y-72527885D01*
X57276599Y-72518647D01*
X57192165Y-72360681D01*
X57192161Y-72360674D01*
X57071883Y-72214116D01*
X56925325Y-72093838D01*
X56925318Y-72093834D01*
X56758122Y-72004466D01*
X56758119Y-72004465D01*
X56758118Y-72004464D01*
X56758115Y-72004463D01*
X56576683Y-71949427D01*
X56576681Y-71949426D01*
X56576683Y-71949426D01*
X56388000Y-71930843D01*
X56199318Y-71949426D01*
X56092194Y-71981921D01*
X56017885Y-72004463D01*
X56017882Y-72004464D01*
X56017880Y-72004465D01*
X56017877Y-72004466D01*
X55850681Y-72093834D01*
X55850674Y-72093838D01*
X55704119Y-72214114D01*
X55637953Y-72294737D01*
X55580207Y-72334071D01*
X55510362Y-72335941D01*
X55450594Y-72299753D01*
X55419878Y-72236997D01*
X55418100Y-72216071D01*
X55418100Y-70618489D01*
X55437785Y-70551450D01*
X55454419Y-70530808D01*
X56759008Y-69226219D01*
X56820331Y-69192734D01*
X56846689Y-69189900D01*
X57313260Y-69189900D01*
X57342849Y-69187125D01*
X57467475Y-69143516D01*
X57467479Y-69143512D01*
X57475691Y-69139174D01*
X57476719Y-69141120D01*
X57530458Y-69121481D01*
X57598631Y-69136785D01*
X57601321Y-69138800D01*
X57607200Y-69138800D01*
X58521568Y-69138800D01*
X58562521Y-69145758D01*
X58608151Y-69161725D01*
X58614069Y-69162280D01*
X58637740Y-69164500D01*
X58637744Y-69164500D01*
X59218260Y-69164500D01*
X59237984Y-69162650D01*
X59247849Y-69161725D01*
X59293478Y-69145758D01*
X59334432Y-69138800D01*
X59757805Y-69138800D01*
X59824844Y-69158485D01*
X59870599Y-69211289D01*
X59881805Y-69262800D01*
X59881805Y-72196460D01*
X59862120Y-72263499D01*
X59809316Y-72309254D01*
X59740158Y-72319198D01*
X59676602Y-72290173D01*
X59661952Y-72275125D01*
X59611883Y-72214116D01*
X59465325Y-72093838D01*
X59465318Y-72093834D01*
X59298122Y-72004466D01*
X59298119Y-72004465D01*
X59298118Y-72004464D01*
X59298115Y-72004463D01*
X59116683Y-71949427D01*
X59116681Y-71949426D01*
X59116683Y-71949426D01*
X58928000Y-71930843D01*
X58739318Y-71949426D01*
X58632194Y-71981921D01*
X58557885Y-72004463D01*
X58557882Y-72004464D01*
X58557880Y-72004465D01*
X58557877Y-72004466D01*
X58390681Y-72093834D01*
X58390674Y-72093838D01*
X58244116Y-72214116D01*
X58123838Y-72360674D01*
X58123834Y-72360681D01*
X58034466Y-72527877D01*
X58034465Y-72527880D01*
X57979426Y-72709318D01*
X57960843Y-72898000D01*
X57979426Y-73086681D01*
X57979427Y-73086683D01*
X58034463Y-73268115D01*
X58034464Y-73268118D01*
X58034465Y-73268119D01*
X58034466Y-73268122D01*
X58123834Y-73435318D01*
X58123838Y-73435325D01*
X58244116Y-73581883D01*
X58390674Y-73702161D01*
X58390681Y-73702165D01*
X58557877Y-73791533D01*
X58557878Y-73791533D01*
X58557885Y-73791537D01*
X58739317Y-73846573D01*
X58739316Y-73846573D01*
X58756233Y-73848239D01*
X58928000Y-73865157D01*
X59116683Y-73846573D01*
X59298115Y-73791537D01*
X59465324Y-73702162D01*
X59611883Y-73581883D01*
X59661952Y-73520874D01*
X59719697Y-73481540D01*
X59789542Y-73479669D01*
X59849310Y-73515856D01*
X59880026Y-73578612D01*
X59881805Y-73599539D01*
X59881805Y-76393699D01*
X59862120Y-76460738D01*
X59833293Y-76492074D01*
X59779025Y-76533715D01*
X59682768Y-76659160D01*
X59622261Y-76805237D01*
X59622260Y-76805239D01*
X59601623Y-76961998D01*
X59601623Y-76962001D01*
X59622260Y-77118760D01*
X59622261Y-77118762D01*
X59682769Y-77264841D01*
X59779023Y-77390282D01*
X59904464Y-77486536D01*
X60050543Y-77547044D01*
X60128924Y-77557363D01*
X60207304Y-77567682D01*
X60207305Y-77567682D01*
X60207306Y-77567682D01*
X60259559Y-77560802D01*
X60364067Y-77547044D01*
X60510146Y-77486536D01*
X60635587Y-77390282D01*
X60672125Y-77342663D01*
X60728551Y-77301462D01*
X60798297Y-77297307D01*
X60859218Y-77331519D01*
X60891971Y-77393236D01*
X60894500Y-77418151D01*
X60894500Y-81983993D01*
X60894500Y-81983995D01*
X60894499Y-81983995D01*
X60921418Y-82119322D01*
X60921421Y-82119332D01*
X60974221Y-82246804D01*
X60974228Y-82246817D01*
X61050885Y-82361541D01*
X61050888Y-82361545D01*
X61148454Y-82459111D01*
X61148458Y-82459114D01*
X61263182Y-82535771D01*
X61263195Y-82535778D01*
X61390667Y-82588578D01*
X61390672Y-82588580D01*
X61390676Y-82588580D01*
X61390677Y-82588581D01*
X61526004Y-82615500D01*
X61526007Y-82615500D01*
X61663995Y-82615500D01*
X61755041Y-82597389D01*
X61799328Y-82588580D01*
X61926811Y-82535775D01*
X62041542Y-82459114D01*
X62139114Y-82361542D01*
X62215775Y-82246811D01*
X62268580Y-82119328D01*
X62281724Y-82053248D01*
X62295500Y-81983995D01*
X62295500Y-76850536D01*
X68149499Y-76850536D01*
X68149499Y-77077842D01*
X68149500Y-77077871D01*
X68149500Y-79386671D01*
X68149499Y-79386705D01*
X68149499Y-79613463D01*
X68169842Y-79767971D01*
X68178596Y-79834463D01*
X68196942Y-79902931D01*
X68236290Y-80049780D01*
X68236293Y-80049790D01*
X68309771Y-80227181D01*
X68321595Y-80255726D01*
X68433052Y-80448774D01*
X68433057Y-80448780D01*
X68433058Y-80448782D01*
X68568751Y-80625622D01*
X68568757Y-80625629D01*
X68726370Y-80783242D01*
X68726377Y-80783248D01*
X68856972Y-80883456D01*
X68903226Y-80918948D01*
X69096274Y-81030405D01*
X69226140Y-81084197D01*
X69288788Y-81110147D01*
X69302219Y-81115710D01*
X69517537Y-81173404D01*
X69738544Y-81202501D01*
X69738551Y-81202501D01*
X69961449Y-81202501D01*
X69961456Y-81202501D01*
X70182463Y-81173404D01*
X70397781Y-81115710D01*
X70603726Y-81030405D01*
X70796774Y-80918948D01*
X70843028Y-80883456D01*
X70973624Y-80783247D01*
X71032320Y-80724550D01*
X71093640Y-80691066D01*
X71163332Y-80696050D01*
X71207681Y-80724551D01*
X73568308Y-83085178D01*
X73568345Y-83085217D01*
X73728370Y-83245242D01*
X73728376Y-83245247D01*
X73905226Y-83380948D01*
X74098274Y-83492405D01*
X74304219Y-83577710D01*
X74519537Y-83635404D01*
X74740543Y-83664500D01*
X74740544Y-83664500D01*
X74963456Y-83664500D01*
X92433500Y-83664500D01*
X92500539Y-83684185D01*
X92546294Y-83736989D01*
X92557500Y-83788500D01*
X92557500Y-85235500D01*
X92537815Y-85302539D01*
X92485011Y-85348294D01*
X92444142Y-85357184D01*
X92444312Y-85358903D01*
X92438247Y-85359500D01*
X92379770Y-85371131D01*
X92379769Y-85371132D01*
X92313447Y-85415447D01*
X92269132Y-85481769D01*
X92269131Y-85481770D01*
X92257500Y-85540247D01*
X92257500Y-87179752D01*
X92269131Y-87238229D01*
X92269132Y-87238230D01*
X92313447Y-87304552D01*
X92379769Y-87348867D01*
X92379770Y-87348868D01*
X92438247Y-87360499D01*
X92438250Y-87360500D01*
X92438252Y-87360500D01*
X94077750Y-87360500D01*
X94077751Y-87360499D01*
X94092568Y-87357552D01*
X94136229Y-87348868D01*
X94136229Y-87348867D01*
X94136231Y-87348867D01*
X94202552Y-87304552D01*
X94246867Y-87238231D01*
X94246867Y-87238229D01*
X94246868Y-87238229D01*
X94258499Y-87179752D01*
X94258500Y-87179750D01*
X94258500Y-85540249D01*
X94258499Y-85540247D01*
X94246868Y-85481770D01*
X94246867Y-85481769D01*
X94202552Y-85415447D01*
X94136230Y-85371132D01*
X94136229Y-85371131D01*
X94077752Y-85359500D01*
X94071688Y-85358903D01*
X94071934Y-85356397D01*
X94015461Y-85339815D01*
X93969706Y-85287011D01*
X93958500Y-85235500D01*
X93958500Y-83788500D01*
X93978185Y-83721461D01*
X94030989Y-83675706D01*
X94082500Y-83664500D01*
X98887052Y-83664500D01*
X98887084Y-83664501D01*
X98890924Y-83664501D01*
X99113829Y-83664501D01*
X99113836Y-83664501D01*
X99334843Y-83635404D01*
X99550161Y-83577710D01*
X99756106Y-83492405D01*
X99949154Y-83380948D01*
X100026687Y-83321455D01*
X100126004Y-83245247D01*
X100283627Y-83087624D01*
X100288991Y-83082260D01*
X100289006Y-83082242D01*
X100862431Y-82508819D01*
X100923754Y-82475334D01*
X100950112Y-82472500D01*
X101203450Y-82472500D01*
X101203457Y-82472500D01*
X101424463Y-82443404D01*
X101639781Y-82385710D01*
X101845726Y-82300405D01*
X102038774Y-82188948D01*
X102215624Y-82053247D01*
X102260051Y-82008820D01*
X102321374Y-81975334D01*
X102347733Y-81972500D01*
X106625500Y-81972500D01*
X106692539Y-81992185D01*
X106738294Y-82044989D01*
X106749500Y-82096500D01*
X106749500Y-83344486D01*
X106779059Y-83531118D01*
X106837454Y-83710836D01*
X106919876Y-83872596D01*
X106923240Y-83879199D01*
X107034310Y-84032073D01*
X107167927Y-84165690D01*
X107320801Y-84276760D01*
X107378072Y-84305941D01*
X107489163Y-84362545D01*
X107489165Y-84362545D01*
X107489168Y-84362547D01*
X107551149Y-84382686D01*
X107668881Y-84420940D01*
X107855514Y-84450500D01*
X107855519Y-84450500D01*
X108044486Y-84450500D01*
X108166799Y-84431127D01*
X108186197Y-84429600D01*
X109975500Y-84429600D01*
X110042539Y-84449285D01*
X110088294Y-84502089D01*
X110099500Y-84553600D01*
X110099500Y-87900274D01*
X110079815Y-87967313D01*
X110027011Y-88013068D01*
X110022954Y-88014835D01*
X109952401Y-88044059D01*
X109952395Y-88044062D01*
X109780344Y-88159022D01*
X109634024Y-88305342D01*
X109519058Y-88477403D01*
X109439870Y-88668579D01*
X109439868Y-88668587D01*
X109399500Y-88871530D01*
X109399500Y-89328469D01*
X109439868Y-89531412D01*
X109439870Y-89531420D01*
X109519058Y-89722596D01*
X109634024Y-89894657D01*
X109780342Y-90040975D01*
X109952405Y-90155943D01*
X110022952Y-90185164D01*
X110077356Y-90229005D01*
X110099421Y-90295299D01*
X110099500Y-90299725D01*
X110099500Y-93750274D01*
X110079815Y-93817313D01*
X110027011Y-93863068D01*
X110022954Y-93864835D01*
X109952401Y-93894059D01*
X109952395Y-93894062D01*
X109780344Y-94009022D01*
X109634024Y-94155342D01*
X109519058Y-94327403D01*
X109439870Y-94518579D01*
X109439868Y-94518587D01*
X109399500Y-94721530D01*
X109399500Y-95178469D01*
X109439868Y-95381412D01*
X109439870Y-95381420D01*
X109518104Y-95570294D01*
X109519059Y-95572598D01*
X109525007Y-95581500D01*
X109634024Y-95744657D01*
X109780342Y-95890975D01*
X109780345Y-95890977D01*
X109952402Y-96005941D01*
X110143580Y-96085130D01*
X110323610Y-96120940D01*
X110346530Y-96125499D01*
X110346534Y-96125500D01*
X110346535Y-96125500D01*
X110553466Y-96125500D01*
X110553467Y-96125499D01*
X110756420Y-96085130D01*
X110947598Y-96005941D01*
X111119655Y-95890977D01*
X111265977Y-95744655D01*
X111380941Y-95572598D01*
X111460130Y-95381420D01*
X111500500Y-95178465D01*
X111500500Y-94721535D01*
X111460130Y-94518580D01*
X111380941Y-94327402D01*
X111265977Y-94155345D01*
X111265975Y-94155342D01*
X111119655Y-94009022D01*
X110947604Y-93894062D01*
X110947598Y-93894059D01*
X110877046Y-93864835D01*
X110822643Y-93820993D01*
X110800579Y-93754699D01*
X110800500Y-93750274D01*
X110800500Y-90299725D01*
X110820185Y-90232686D01*
X110872989Y-90186931D01*
X110877048Y-90185164D01*
X110947594Y-90155943D01*
X110947595Y-90155942D01*
X110947598Y-90155941D01*
X111119655Y-90040977D01*
X111265977Y-89894655D01*
X111380941Y-89722598D01*
X111460130Y-89531420D01*
X111500500Y-89328465D01*
X111500500Y-88871535D01*
X111460130Y-88668580D01*
X111380941Y-88477402D01*
X111265977Y-88305345D01*
X111265975Y-88305342D01*
X111119655Y-88159022D01*
X110947604Y-88044062D01*
X110947598Y-88044059D01*
X110877046Y-88014835D01*
X110822643Y-87970993D01*
X110800579Y-87904699D01*
X110800500Y-87900274D01*
X110800500Y-84449725D01*
X110820185Y-84382686D01*
X110872989Y-84336931D01*
X110877048Y-84335164D01*
X110947594Y-84305943D01*
X110947595Y-84305942D01*
X110947598Y-84305941D01*
X111119655Y-84190977D01*
X111265977Y-84044655D01*
X111380941Y-83872598D01*
X111460130Y-83681420D01*
X111500500Y-83478465D01*
X111500500Y-83021535D01*
X111460130Y-82818580D01*
X111380941Y-82627402D01*
X111265977Y-82455345D01*
X111265975Y-82455342D01*
X111119655Y-82309022D01*
X110947604Y-82194062D01*
X110947598Y-82194059D01*
X110877046Y-82164835D01*
X110822643Y-82120993D01*
X110800579Y-82054699D01*
X110800500Y-82050274D01*
X110800500Y-78599725D01*
X110820185Y-78532686D01*
X110872989Y-78486931D01*
X110877048Y-78485164D01*
X110947594Y-78455943D01*
X110947595Y-78455942D01*
X110947598Y-78455941D01*
X111119655Y-78340977D01*
X111265977Y-78194655D01*
X111380941Y-78022598D01*
X111460130Y-77831420D01*
X111500500Y-77628465D01*
X111500500Y-77171535D01*
X111460130Y-76968580D01*
X111380941Y-76777402D01*
X111265977Y-76605345D01*
X111265975Y-76605342D01*
X111119657Y-76459024D01*
X110985160Y-76369157D01*
X110947598Y-76344059D01*
X110915356Y-76330704D01*
X110756420Y-76264870D01*
X110756412Y-76264868D01*
X110553469Y-76224500D01*
X110553465Y-76224500D01*
X110346535Y-76224500D01*
X110346530Y-76224500D01*
X110143587Y-76264868D01*
X110143575Y-76264871D01*
X109984639Y-76330704D01*
X109915170Y-76338173D01*
X109852691Y-76306897D01*
X109849506Y-76303824D01*
X108957213Y-75411531D01*
X108957208Y-75411527D01*
X108877290Y-75365387D01*
X108877289Y-75365386D01*
X108877288Y-75365386D01*
X108788144Y-75341500D01*
X98234856Y-75341500D01*
X98145712Y-75365386D01*
X98145709Y-75365387D01*
X98065791Y-75411527D01*
X98065786Y-75411531D01*
X96122170Y-77355147D01*
X96060847Y-77388632D01*
X95991155Y-77383648D01*
X95987036Y-77382027D01*
X95810420Y-77308870D01*
X95810412Y-77308868D01*
X95607469Y-77268500D01*
X95607465Y-77268500D01*
X95400535Y-77268500D01*
X95400530Y-77268500D01*
X95197587Y-77308868D01*
X95197579Y-77308870D01*
X95006403Y-77388058D01*
X94834342Y-77503024D01*
X94688024Y-77649342D01*
X94573058Y-77821403D01*
X94493870Y-78012579D01*
X94493868Y-78012587D01*
X94453500Y-78215530D01*
X94453500Y-78722469D01*
X94493868Y-78925412D01*
X94493870Y-78925420D01*
X94549736Y-79060293D01*
X94573059Y-79116598D01*
X94583850Y-79132748D01*
X94688024Y-79288657D01*
X94834342Y-79434975D01*
X94834345Y-79434977D01*
X95006402Y-79549941D01*
X95197580Y-79629130D01*
X95400530Y-79669499D01*
X95400534Y-79669500D01*
X95400535Y-79669500D01*
X95607466Y-79669500D01*
X95607467Y-79669499D01*
X95810420Y-79629130D01*
X96001598Y-79549941D01*
X96173655Y-79434977D01*
X96319977Y-79288655D01*
X96434941Y-79116598D01*
X96514130Y-78925420D01*
X96554500Y-78722465D01*
X96554500Y-78215535D01*
X96550347Y-78194655D01*
X96517433Y-78029183D01*
X96523660Y-77959591D01*
X96551367Y-77917313D01*
X98389863Y-76078819D01*
X98451186Y-76045334D01*
X98477544Y-76042500D01*
X107460151Y-76042500D01*
X107527190Y-76062185D01*
X107572945Y-76114989D01*
X107582889Y-76184147D01*
X107553864Y-76247703D01*
X107498471Y-76284430D01*
X107489167Y-76287452D01*
X107320800Y-76373240D01*
X107244605Y-76428600D01*
X107167927Y-76484310D01*
X107167925Y-76484312D01*
X107167924Y-76484312D01*
X107034312Y-76617924D01*
X107034312Y-76617925D01*
X107034310Y-76617927D01*
X106986610Y-76683579D01*
X106923240Y-76770800D01*
X106837454Y-76939163D01*
X106779059Y-77118881D01*
X106749500Y-77305513D01*
X106749500Y-79447500D01*
X106729815Y-79514539D01*
X106677011Y-79560294D01*
X106625500Y-79571500D01*
X102347733Y-79571500D01*
X102280694Y-79551815D01*
X102260051Y-79535180D01*
X102215628Y-79490756D01*
X102215622Y-79490751D01*
X102038782Y-79355058D01*
X102038780Y-79355057D01*
X102038774Y-79355052D01*
X101845726Y-79243595D01*
X101845725Y-79243594D01*
X101845721Y-79243592D01*
X101844032Y-79242893D01*
X101843607Y-79242550D01*
X101842093Y-79241804D01*
X101842210Y-79241565D01*
X101842215Y-79241554D01*
X101842260Y-79241464D01*
X101789635Y-79199045D01*
X101767578Y-79132748D01*
X101767500Y-79128338D01*
X101767500Y-78741739D01*
X101764725Y-78712150D01*
X101721115Y-78587523D01*
X101642711Y-78481289D01*
X101642710Y-78481288D01*
X101536476Y-78402884D01*
X101411848Y-78359274D01*
X101411849Y-78359274D01*
X101382260Y-78356500D01*
X101382256Y-78356500D01*
X100801744Y-78356500D01*
X100801740Y-78356500D01*
X100772150Y-78359274D01*
X100647523Y-78402884D01*
X100541289Y-78481288D01*
X100541288Y-78481289D01*
X100462884Y-78587523D01*
X100419274Y-78712150D01*
X100416500Y-78741739D01*
X100416500Y-78947499D01*
X100396815Y-79014538D01*
X100344011Y-79060293D01*
X100292500Y-79071499D01*
X100082916Y-79071499D01*
X99872560Y-79099194D01*
X99861917Y-79100596D01*
X99802203Y-79116596D01*
X99646606Y-79158287D01*
X99646592Y-79158292D01*
X99538968Y-79202872D01*
X99538967Y-79202872D01*
X99440663Y-79243590D01*
X99440653Y-79243595D01*
X99247606Y-79355052D01*
X99247597Y-79355058D01*
X99070758Y-79490750D01*
X99026329Y-79535180D01*
X98913133Y-79648376D01*
X98913129Y-79648380D01*
X98612824Y-79948686D01*
X98334329Y-80227181D01*
X98273006Y-80260666D01*
X98246648Y-80263500D01*
X75607732Y-80263500D01*
X75540693Y-80243815D01*
X75520051Y-80227181D01*
X73612551Y-78319681D01*
X73579066Y-78258358D01*
X73584050Y-78188666D01*
X73612548Y-78144322D01*
X73671247Y-78085624D01*
X73805568Y-77910573D01*
X73806948Y-77908775D01*
X73806949Y-77908772D01*
X73806952Y-77908769D01*
X73918401Y-77715733D01*
X73918401Y-77715732D01*
X73918405Y-77715726D01*
X74003710Y-77509781D01*
X74061404Y-77294464D01*
X74090500Y-77073457D01*
X74090500Y-76850544D01*
X74061404Y-76629537D01*
X74036307Y-76535872D01*
X74003710Y-76414219D01*
X73918405Y-76208274D01*
X73806948Y-76015226D01*
X73688362Y-75860681D01*
X73671248Y-75838377D01*
X73671242Y-75838370D01*
X73513629Y-75680757D01*
X73513622Y-75680751D01*
X73336782Y-75545058D01*
X73336780Y-75545057D01*
X73336774Y-75545052D01*
X73143726Y-75433595D01*
X73143722Y-75433593D01*
X72937790Y-75348293D01*
X72937783Y-75348291D01*
X72937781Y-75348290D01*
X72722463Y-75290596D01*
X72722457Y-75290595D01*
X72722452Y-75290594D01*
X72501466Y-75261501D01*
X72501463Y-75261500D01*
X72501457Y-75261500D01*
X72501450Y-75261500D01*
X69965328Y-75261500D01*
X69965296Y-75261499D01*
X69961456Y-75261499D01*
X69738544Y-75261499D01*
X69738536Y-75261499D01*
X69542093Y-75287363D01*
X69517537Y-75290596D01*
X69457828Y-75306595D01*
X69302219Y-75348290D01*
X69302209Y-75348293D01*
X69096277Y-75433593D01*
X69096273Y-75433595D01*
X68903226Y-75545052D01*
X68903217Y-75545058D01*
X68726377Y-75680751D01*
X68726370Y-75680757D01*
X68568757Y-75838370D01*
X68568751Y-75838377D01*
X68477194Y-75957698D01*
X68459911Y-75980223D01*
X68459909Y-75980226D01*
X68433054Y-76015223D01*
X68433052Y-76015226D01*
X68321595Y-76208273D01*
X68321593Y-76208277D01*
X68236293Y-76414209D01*
X68236292Y-76414214D01*
X68236290Y-76414219D01*
X68181516Y-76618642D01*
X68178596Y-76629538D01*
X68149499Y-76850536D01*
X62295500Y-76850536D01*
X62295500Y-72585686D01*
X62315185Y-72518647D01*
X62367989Y-72472892D01*
X62437147Y-72462948D01*
X62500703Y-72491973D01*
X62522602Y-72516795D01*
X62555447Y-72565952D01*
X62621769Y-72610267D01*
X62621770Y-72610268D01*
X62680247Y-72621899D01*
X62680250Y-72621900D01*
X62680252Y-72621900D01*
X64319750Y-72621900D01*
X64319751Y-72621899D01*
X64334568Y-72618952D01*
X64378229Y-72610268D01*
X64378229Y-72610267D01*
X64378231Y-72610267D01*
X64444552Y-72565952D01*
X64488867Y-72499631D01*
X64488867Y-72499629D01*
X64488868Y-72499629D01*
X64500499Y-72441152D01*
X64500500Y-72441150D01*
X64500500Y-71511857D01*
X66846100Y-71511857D01*
X66846100Y-71693342D01*
X66874491Y-71872596D01*
X66874491Y-71872599D01*
X66930571Y-72045195D01*
X66955354Y-72093834D01*
X67012966Y-72206904D01*
X67119641Y-72353729D01*
X67247971Y-72482059D01*
X67394796Y-72588734D01*
X67556502Y-72671127D01*
X67556504Y-72671128D01*
X67729101Y-72727208D01*
X67729102Y-72727208D01*
X67729105Y-72727209D01*
X67908357Y-72755600D01*
X67908358Y-72755600D01*
X68184842Y-72755600D01*
X68184843Y-72755600D01*
X68364095Y-72727209D01*
X68364098Y-72727208D01*
X68364099Y-72727208D01*
X68536695Y-72671128D01*
X68536695Y-72671127D01*
X68536698Y-72671127D01*
X68698404Y-72588734D01*
X68845229Y-72482059D01*
X68973559Y-72353729D01*
X69080234Y-72206904D01*
X69162627Y-72045198D01*
X69218709Y-71872595D01*
X69247100Y-71693343D01*
X69247100Y-71511857D01*
X69218709Y-71332605D01*
X69218708Y-71332601D01*
X69218708Y-71332600D01*
X69162628Y-71160004D01*
X69161467Y-71157725D01*
X69142243Y-71119996D01*
X89704415Y-71119996D01*
X89704415Y-71120003D01*
X89724738Y-71468927D01*
X89724739Y-71468938D01*
X89785428Y-71813127D01*
X89785430Y-71813134D01*
X89885674Y-72147972D01*
X90024107Y-72468895D01*
X90024113Y-72468908D01*
X90198870Y-72771597D01*
X90407584Y-73051949D01*
X90407589Y-73051955D01*
X90531463Y-73183253D01*
X90647442Y-73306183D01*
X90801347Y-73435324D01*
X90915186Y-73530847D01*
X90915194Y-73530853D01*
X91207203Y-73722911D01*
X91429739Y-73834673D01*
X91519549Y-73879777D01*
X91847989Y-73999319D01*
X92188086Y-74079923D01*
X92535241Y-74120500D01*
X92535248Y-74120500D01*
X92884752Y-74120500D01*
X92884759Y-74120500D01*
X93231914Y-74079923D01*
X93572011Y-73999319D01*
X93900451Y-73879777D01*
X94212793Y-73722913D01*
X94504811Y-73530849D01*
X94772558Y-73306183D01*
X95012412Y-73051953D01*
X95221130Y-72771596D01*
X95395889Y-72468904D01*
X95534326Y-72147971D01*
X95634569Y-71813136D01*
X95695262Y-71468927D01*
X95715585Y-71120000D01*
X95715242Y-71114116D01*
X95704488Y-70929475D01*
X95695262Y-70771073D01*
X95695260Y-70771061D01*
X95634571Y-70426872D01*
X95634569Y-70426865D01*
X95621871Y-70384451D01*
X95534326Y-70092029D01*
X95395889Y-69771096D01*
X95221130Y-69468404D01*
X95221129Y-69468402D01*
X95012415Y-69188050D01*
X95012410Y-69188044D01*
X94855443Y-69021670D01*
X94772558Y-68933817D01*
X94624488Y-68809572D01*
X94504813Y-68709152D01*
X94504805Y-68709146D01*
X94212796Y-68517088D01*
X93900458Y-68360226D01*
X93900452Y-68360223D01*
X93572012Y-68240681D01*
X93572009Y-68240680D01*
X93231915Y-68160077D01*
X93188519Y-68155004D01*
X92884759Y-68119500D01*
X92535241Y-68119500D01*
X92231480Y-68155004D01*
X92188085Y-68160077D01*
X92188083Y-68160077D01*
X91847990Y-68240680D01*
X91847987Y-68240681D01*
X91519547Y-68360223D01*
X91519541Y-68360226D01*
X91207203Y-68517088D01*
X90915194Y-68709146D01*
X90915186Y-68709152D01*
X90647442Y-68933817D01*
X90647440Y-68933819D01*
X90407589Y-69188044D01*
X90407584Y-69188050D01*
X90198870Y-69468402D01*
X90024113Y-69771091D01*
X90024107Y-69771104D01*
X89885674Y-70092027D01*
X89785430Y-70426865D01*
X89785428Y-70426872D01*
X89724739Y-70771061D01*
X89724738Y-70771072D01*
X89704415Y-71119996D01*
X69142243Y-71119996D01*
X69080234Y-70998296D01*
X68973559Y-70851471D01*
X68845229Y-70723141D01*
X68698404Y-70616466D01*
X68536695Y-70534071D01*
X68364098Y-70477991D01*
X68229656Y-70456697D01*
X68184843Y-70449600D01*
X67908357Y-70449600D01*
X67848606Y-70459063D01*
X67729103Y-70477991D01*
X67729100Y-70477991D01*
X67556504Y-70534071D01*
X67394795Y-70616466D01*
X67338850Y-70657113D01*
X67247971Y-70723141D01*
X67247969Y-70723143D01*
X67247968Y-70723143D01*
X67119643Y-70851468D01*
X67119643Y-70851469D01*
X67119641Y-70851471D01*
X67112975Y-70860646D01*
X67012966Y-70998295D01*
X66930571Y-71160004D01*
X66874491Y-71332600D01*
X66874491Y-71332603D01*
X66846100Y-71511857D01*
X64500500Y-71511857D01*
X64500500Y-70801649D01*
X64500499Y-70801647D01*
X64488868Y-70743170D01*
X64488867Y-70743169D01*
X64444552Y-70676847D01*
X64378230Y-70632532D01*
X64378229Y-70632531D01*
X64319752Y-70620900D01*
X64319748Y-70620900D01*
X62680252Y-70620900D01*
X62680247Y-70620900D01*
X62621770Y-70632531D01*
X62621769Y-70632532D01*
X62555447Y-70676847D01*
X62522602Y-70726004D01*
X62468989Y-70770809D01*
X62399664Y-70779516D01*
X62336637Y-70749361D01*
X62299918Y-70689918D01*
X62295500Y-70657113D01*
X62295500Y-68931472D01*
X82706100Y-68931472D01*
X82706100Y-69193727D01*
X82732723Y-69395939D01*
X82740330Y-69453716D01*
X82744266Y-69468404D01*
X82808202Y-69707018D01*
X82808205Y-69707028D01*
X82908553Y-69949290D01*
X82908558Y-69949300D01*
X83039675Y-70176403D01*
X83199318Y-70384451D01*
X83199326Y-70384460D01*
X83384740Y-70569874D01*
X83384748Y-70569881D01*
X83592796Y-70729524D01*
X83819899Y-70860641D01*
X83819909Y-70860646D01*
X83986080Y-70929476D01*
X84062181Y-70960998D01*
X84315484Y-71028870D01*
X84575480Y-71063100D01*
X84575487Y-71063100D01*
X84837713Y-71063100D01*
X84837720Y-71063100D01*
X85097716Y-71028870D01*
X85351019Y-70960998D01*
X85593297Y-70860643D01*
X85820403Y-70729524D01*
X86028451Y-70569882D01*
X86028455Y-70569877D01*
X86028460Y-70569874D01*
X86213874Y-70384460D01*
X86213877Y-70384455D01*
X86213882Y-70384451D01*
X86373524Y-70176403D01*
X86504643Y-69949297D01*
X86604998Y-69707019D01*
X86672870Y-69453716D01*
X86707100Y-69193720D01*
X86707100Y-68931480D01*
X86672870Y-68671484D01*
X86604998Y-68418181D01*
X86561517Y-68313208D01*
X86504646Y-68175909D01*
X86504641Y-68175899D01*
X86373524Y-67948796D01*
X86213881Y-67740748D01*
X86213874Y-67740740D01*
X86028460Y-67555326D01*
X86028451Y-67555318D01*
X85820403Y-67395675D01*
X85593300Y-67264558D01*
X85593290Y-67264553D01*
X85351028Y-67164205D01*
X85351021Y-67164203D01*
X85351019Y-67164202D01*
X85097716Y-67096330D01*
X85039939Y-67088723D01*
X84837727Y-67062100D01*
X84837720Y-67062100D01*
X84575480Y-67062100D01*
X84575472Y-67062100D01*
X84344372Y-67092526D01*
X84315484Y-67096330D01*
X84237958Y-67117103D01*
X84062181Y-67164202D01*
X84062171Y-67164205D01*
X83819909Y-67264553D01*
X83819899Y-67264558D01*
X83592796Y-67395675D01*
X83384748Y-67555318D01*
X83199318Y-67740748D01*
X83039675Y-67948796D01*
X82908558Y-68175899D01*
X82908553Y-68175909D01*
X82808205Y-68418171D01*
X82808202Y-68418181D01*
X82770118Y-68560315D01*
X82740330Y-68671485D01*
X82706100Y-68931472D01*
X62295500Y-68931472D01*
X62295500Y-68723718D01*
X62315185Y-68656679D01*
X62331814Y-68636041D01*
X63426939Y-67540916D01*
X63488260Y-67507433D01*
X63502455Y-67505197D01*
X63670732Y-67488624D01*
X63859327Y-67431414D01*
X64033138Y-67338510D01*
X64122882Y-67264859D01*
X64139468Y-67251247D01*
X64203778Y-67223934D01*
X64218133Y-67223100D01*
X66722100Y-67223100D01*
X66789139Y-67242785D01*
X66834894Y-67295589D01*
X66846100Y-67347100D01*
X66846100Y-67494852D01*
X66857731Y-67553329D01*
X66857732Y-67553330D01*
X66902047Y-67619652D01*
X66968369Y-67663967D01*
X66968370Y-67663968D01*
X67026847Y-67675599D01*
X67026850Y-67675600D01*
X67026852Y-67675600D01*
X69066350Y-67675600D01*
X69066351Y-67675599D01*
X69081168Y-67672652D01*
X69124829Y-67663968D01*
X69124829Y-67663967D01*
X69124831Y-67663967D01*
X69191152Y-67619652D01*
X69235467Y-67553331D01*
X69235467Y-67553329D01*
X69235468Y-67553329D01*
X69247099Y-67494852D01*
X69247100Y-67494850D01*
X69247100Y-65550349D01*
X69247099Y-65550347D01*
X69235468Y-65491870D01*
X69235467Y-65491869D01*
X69191152Y-65425547D01*
X69124830Y-65381232D01*
X69124829Y-65381231D01*
X69066352Y-65369600D01*
X69066348Y-65369600D01*
X67026852Y-65369600D01*
X67026847Y-65369600D01*
X66968370Y-65381231D01*
X66968369Y-65381232D01*
X66902047Y-65425547D01*
X66857732Y-65491869D01*
X66857731Y-65491870D01*
X66846100Y-65550347D01*
X66846100Y-65698100D01*
X66826415Y-65765139D01*
X66773611Y-65810894D01*
X66722100Y-65822100D01*
X64266873Y-65822100D01*
X64199834Y-65802415D01*
X64188208Y-65793953D01*
X64033139Y-65666690D01*
X64033132Y-65666686D01*
X63859333Y-65573788D01*
X63859327Y-65573786D01*
X63670732Y-65516576D01*
X63670729Y-65516575D01*
X63474600Y-65497259D01*
X63278470Y-65516575D01*
X63089866Y-65573788D01*
X62916067Y-65666686D01*
X62916060Y-65666690D01*
X62763716Y-65791716D01*
X62638690Y-65944060D01*
X62638685Y-65944067D01*
X62549163Y-66111553D01*
X62500201Y-66161398D01*
X62439805Y-66177100D01*
X59606854Y-66177100D01*
X59539815Y-66157415D01*
X59507084Y-66126733D01*
X59478711Y-66088289D01*
X59478710Y-66088288D01*
X59372476Y-66009884D01*
X59247848Y-65966274D01*
X59247849Y-65966274D01*
X59218260Y-65963500D01*
X59218256Y-65963500D01*
X58637744Y-65963500D01*
X58637740Y-65963500D01*
X58608150Y-65966274D01*
X58483525Y-66009883D01*
X58449301Y-66035142D01*
X58435131Y-66045599D01*
X58369504Y-66069569D01*
X58301334Y-66054253D01*
X58252266Y-66004513D01*
X58237500Y-65945828D01*
X58237500Y-64830298D01*
X58257185Y-64763259D01*
X58286010Y-64731925D01*
X58340282Y-64690282D01*
X58436536Y-64564841D01*
X58497044Y-64418762D01*
X58517682Y-64262000D01*
X58497044Y-64105238D01*
X58436536Y-63959159D01*
X58340282Y-63833718D01*
X58214841Y-63737464D01*
X58173758Y-63720447D01*
X58068762Y-63676956D01*
X58068760Y-63676955D01*
X57912001Y-63656318D01*
X57911999Y-63656318D01*
X57755239Y-63676955D01*
X57755237Y-63676956D01*
X57609160Y-63737463D01*
X57483718Y-63833718D01*
X57387463Y-63959160D01*
X57326956Y-64105237D01*
X57326955Y-64105239D01*
X57306318Y-64261998D01*
X57306318Y-64262001D01*
X57326955Y-64418760D01*
X57326956Y-64418762D01*
X57387464Y-64564841D01*
X57483718Y-64690282D01*
X57537987Y-64731924D01*
X57579189Y-64788349D01*
X57586500Y-64830298D01*
X57586500Y-66967927D01*
X57587561Y-66975985D01*
X57585388Y-66976270D01*
X57583999Y-67034649D01*
X57581588Y-67038630D01*
X57589981Y-67726880D01*
X57571115Y-67794155D01*
X57518873Y-67840550D01*
X57449841Y-67851336D01*
X57425034Y-67845433D01*
X57342848Y-67816674D01*
X57342849Y-67816674D01*
X57313260Y-67813900D01*
X57313256Y-67813900D01*
X56732744Y-67813900D01*
X56732740Y-67813900D01*
X56703150Y-67816674D01*
X56578523Y-67860284D01*
X56472289Y-67938688D01*
X56472288Y-67938689D01*
X56393884Y-68044923D01*
X56350274Y-68169550D01*
X56347500Y-68199139D01*
X56347500Y-68456000D01*
X56327815Y-68523039D01*
X56275011Y-68568794D01*
X56223500Y-68580000D01*
X54422500Y-68580000D01*
X54355461Y-68560315D01*
X54309706Y-68507511D01*
X54298500Y-68456000D01*
X54298500Y-68407045D01*
X54318185Y-68340006D01*
X54367233Y-68296043D01*
X54370632Y-68294349D01*
X54370637Y-68294348D01*
X54544041Y-68186981D01*
X54694764Y-68049579D01*
X54817673Y-67886821D01*
X54908582Y-67704250D01*
X54964397Y-67508083D01*
X54983215Y-67305000D01*
X54979495Y-67264859D01*
X54964397Y-67101917D01*
X54951332Y-67056000D01*
X54908582Y-66905750D01*
X54906012Y-66900589D01*
X54834323Y-66756617D01*
X54817673Y-66723179D01*
X54758704Y-66645091D01*
X54694762Y-66560418D01*
X54544041Y-66423019D01*
X54544039Y-66423017D01*
X54370642Y-66315655D01*
X54370635Y-66315651D01*
X54275546Y-66278814D01*
X54180456Y-66241976D01*
X53979976Y-66204500D01*
X53776024Y-66204500D01*
X53575544Y-66241976D01*
X53575541Y-66241976D01*
X53575541Y-66241977D01*
X53385364Y-66315651D01*
X53385357Y-66315655D01*
X53211960Y-66423017D01*
X53211958Y-66423019D01*
X53162879Y-66467760D01*
X53100075Y-66498376D01*
X53057617Y-66493359D01*
X53062867Y-66507435D01*
X53048015Y-66575708D01*
X53038137Y-66591007D01*
X52938328Y-66723175D01*
X52847422Y-66905739D01*
X52847417Y-66905752D01*
X52791602Y-67101917D01*
X52772785Y-67304999D01*
X52772785Y-67305000D01*
X52791602Y-67508082D01*
X52847417Y-67704247D01*
X52847422Y-67704260D01*
X52938327Y-67886821D01*
X53061237Y-68049581D01*
X53211958Y-68186980D01*
X53211960Y-68186982D01*
X53338777Y-68265503D01*
X53385413Y-68317530D01*
X53397500Y-68370930D01*
X53397500Y-71631000D01*
X53377815Y-71698039D01*
X53325011Y-71743794D01*
X53273500Y-71755000D01*
X43180000Y-71755000D01*
X43238346Y-71930040D01*
X43240871Y-71999864D01*
X43205245Y-72059969D01*
X43179165Y-72078609D01*
X43150678Y-72093836D01*
X43150674Y-72093838D01*
X43004116Y-72214116D01*
X42883838Y-72360674D01*
X42883834Y-72360681D01*
X42794466Y-72527877D01*
X42794465Y-72527880D01*
X42739426Y-72709318D01*
X42720843Y-72898000D01*
X40203500Y-72898000D01*
X40203500Y-70194739D01*
X51024500Y-70194739D01*
X51024500Y-70775260D01*
X51027274Y-70804849D01*
X51070884Y-70929476D01*
X51149288Y-71035710D01*
X51149289Y-71035711D01*
X51255523Y-71114115D01*
X51255524Y-71114115D01*
X51255525Y-71114116D01*
X51380151Y-71157725D01*
X51380150Y-71157725D01*
X51409740Y-71160500D01*
X51409744Y-71160500D01*
X52015260Y-71160500D01*
X52044849Y-71157725D01*
X52169475Y-71114116D01*
X52275711Y-71035711D01*
X52354116Y-70929475D01*
X52397725Y-70804849D01*
X52400500Y-70775256D01*
X52400500Y-70194744D01*
X52397725Y-70165151D01*
X52354116Y-70040525D01*
X52286787Y-69949297D01*
X52275712Y-69934290D01*
X52213366Y-69888276D01*
X52171115Y-69832628D01*
X52163000Y-69788506D01*
X52163000Y-67168465D01*
X52182685Y-67101426D01*
X52199319Y-67080784D01*
X52523491Y-66756612D01*
X52851504Y-66428598D01*
X52912825Y-66395115D01*
X52961598Y-66398603D01*
X52955381Y-66379245D01*
X52973371Y-66311731D01*
X52991657Y-66288445D01*
X53378284Y-65901819D01*
X53439607Y-65868334D01*
X53465965Y-65865500D01*
X54797750Y-65865500D01*
X54797751Y-65865499D01*
X54812568Y-65862552D01*
X54856229Y-65853868D01*
X54856229Y-65853867D01*
X54856231Y-65853867D01*
X54922552Y-65809552D01*
X54966867Y-65743231D01*
X54966867Y-65743229D01*
X54966868Y-65743229D01*
X54978499Y-65684752D01*
X54978500Y-65684750D01*
X54978500Y-63845249D01*
X54978499Y-63845247D01*
X54966868Y-63786770D01*
X54966867Y-63786769D01*
X54922552Y-63720447D01*
X54856230Y-63676132D01*
X54856229Y-63676131D01*
X54797752Y-63664500D01*
X54797748Y-63664500D01*
X52958252Y-63664500D01*
X52958247Y-63664500D01*
X52899770Y-63676131D01*
X52899769Y-63676132D01*
X52833447Y-63720447D01*
X52789132Y-63786769D01*
X52789131Y-63786770D01*
X52777500Y-63845247D01*
X52777500Y-65177035D01*
X52757815Y-65244074D01*
X52741181Y-65264716D01*
X51352013Y-66653883D01*
X51352009Y-66653889D01*
X51292701Y-66756612D01*
X51292700Y-66756617D01*
X51262000Y-66871191D01*
X51262000Y-69788506D01*
X51242315Y-69855545D01*
X51211634Y-69888276D01*
X51149287Y-69934290D01*
X51070884Y-70040523D01*
X51027274Y-70165150D01*
X51024500Y-70194739D01*
X40203500Y-70194739D01*
X40203500Y-62162189D01*
X40223185Y-62095150D01*
X40239819Y-62074508D01*
X41312166Y-61002161D01*
X42578545Y-59735781D01*
X42639866Y-59702298D01*
X42709558Y-59707282D01*
X42765491Y-59749154D01*
X42789908Y-59814618D01*
X42784885Y-59859459D01*
X42739426Y-60009318D01*
X42720843Y-60198000D01*
X42739426Y-60386681D01*
X42757772Y-60447160D01*
X42794463Y-60568115D01*
X42794464Y-60568118D01*
X42794465Y-60568119D01*
X42794466Y-60568122D01*
X42883834Y-60735318D01*
X42883838Y-60735325D01*
X43004116Y-60881883D01*
X43150674Y-61002161D01*
X43150681Y-61002165D01*
X43317877Y-61091533D01*
X43317878Y-61091533D01*
X43317885Y-61091537D01*
X43499317Y-61146573D01*
X43499316Y-61146573D01*
X43516233Y-61148239D01*
X43688000Y-61165157D01*
X43876683Y-61146573D01*
X43899768Y-61139569D01*
X43969635Y-61138945D01*
X44023445Y-61170548D01*
X45290986Y-62438090D01*
X45393713Y-62497399D01*
X45417921Y-62503884D01*
X45417924Y-62503886D01*
X45417925Y-62503886D01*
X45448047Y-62511957D01*
X45508291Y-62528100D01*
X59147235Y-62528100D01*
X59214274Y-62547785D01*
X59234915Y-62564418D01*
X59877004Y-63206508D01*
X60507117Y-63836621D01*
X60540602Y-63897944D01*
X60542375Y-63908116D01*
X60552755Y-63986961D01*
X60601748Y-64105239D01*
X60613264Y-64133041D01*
X60709518Y-64258482D01*
X60834959Y-64354736D01*
X60981038Y-64415244D01*
X61059419Y-64425563D01*
X61137799Y-64435882D01*
X61137800Y-64435882D01*
X61137801Y-64435882D01*
X61190054Y-64429002D01*
X61294562Y-64415244D01*
X61440641Y-64354736D01*
X61566082Y-64258482D01*
X61662336Y-64133041D01*
X61722844Y-63986962D01*
X61743482Y-63830200D01*
X61737764Y-63786770D01*
X61723199Y-63676132D01*
X61722844Y-63673438D01*
X61662336Y-63527359D01*
X61566082Y-63401918D01*
X61440641Y-63305664D01*
X61440639Y-63305663D01*
X61294561Y-63245155D01*
X61215716Y-63234775D01*
X61151819Y-63206508D01*
X61144221Y-63199517D01*
X60174699Y-62229996D01*
X89704415Y-62229996D01*
X89704415Y-62230003D01*
X89724738Y-62578927D01*
X89724739Y-62578938D01*
X89785428Y-62923127D01*
X89785430Y-62923134D01*
X89885674Y-63257972D01*
X90024107Y-63578895D01*
X90024113Y-63578908D01*
X90198870Y-63881597D01*
X90407584Y-64161949D01*
X90407589Y-64161955D01*
X90531463Y-64293253D01*
X90647442Y-64416183D01*
X90823903Y-64564251D01*
X90915186Y-64640847D01*
X90915194Y-64640853D01*
X91207203Y-64832911D01*
X91207207Y-64832913D01*
X91519549Y-64989777D01*
X91847989Y-65109319D01*
X92188086Y-65189923D01*
X92535241Y-65230500D01*
X92535248Y-65230500D01*
X92884752Y-65230500D01*
X92884759Y-65230500D01*
X93231914Y-65189923D01*
X93572011Y-65109319D01*
X93900451Y-64989777D01*
X94212793Y-64832913D01*
X94504811Y-64640849D01*
X94772558Y-64416183D01*
X95012412Y-64161953D01*
X95221130Y-63881596D01*
X95395889Y-63578904D01*
X95534326Y-63257971D01*
X95634569Y-62923136D01*
X95695262Y-62578927D01*
X95715585Y-62230000D01*
X95695262Y-61881073D01*
X95692524Y-61865544D01*
X95634571Y-61536872D01*
X95634569Y-61536865D01*
X95534325Y-61202027D01*
X95518421Y-61165157D01*
X95395889Y-60881096D01*
X95221130Y-60578404D01*
X95221129Y-60578402D01*
X95012415Y-60298050D01*
X95012410Y-60298044D01*
X94896433Y-60175117D01*
X94772558Y-60043817D01*
X94624488Y-59919572D01*
X94504813Y-59819152D01*
X94504805Y-59819146D01*
X94212796Y-59627088D01*
X93900458Y-59470226D01*
X93900452Y-59470223D01*
X93572012Y-59350681D01*
X93572009Y-59350680D01*
X93231915Y-59270077D01*
X93188519Y-59265004D01*
X92884759Y-59229500D01*
X92535241Y-59229500D01*
X92231480Y-59265004D01*
X92188085Y-59270077D01*
X92188083Y-59270077D01*
X91847990Y-59350680D01*
X91847987Y-59350681D01*
X91519547Y-59470223D01*
X91519541Y-59470226D01*
X91207203Y-59627088D01*
X90915194Y-59819146D01*
X90915186Y-59819152D01*
X90647442Y-60043817D01*
X90647440Y-60043819D01*
X90407589Y-60298044D01*
X90407584Y-60298050D01*
X90198870Y-60578402D01*
X90024113Y-60881091D01*
X90024107Y-60881104D01*
X89885674Y-61202027D01*
X89785430Y-61536865D01*
X89785428Y-61536872D01*
X89724739Y-61881061D01*
X89724738Y-61881072D01*
X89704415Y-62229996D01*
X60174699Y-62229996D01*
X59661816Y-61717113D01*
X59661814Y-61717111D01*
X59559087Y-61657801D01*
X59559086Y-61657800D01*
X59559085Y-61657800D01*
X59559083Y-61657799D01*
X59531840Y-61650500D01*
X59531839Y-61650499D01*
X59531839Y-61650500D01*
X59488173Y-61638800D01*
X59444509Y-61627100D01*
X59444508Y-61627100D01*
X45805566Y-61627100D01*
X45738527Y-61607415D01*
X45717885Y-61590781D01*
X44660549Y-60533446D01*
X44627064Y-60472123D01*
X44629570Y-60409768D01*
X44636573Y-60386682D01*
X44636573Y-60386681D01*
X44655157Y-60198000D01*
X44636573Y-60009317D01*
X44581537Y-59827885D01*
X44559559Y-59786767D01*
X44492165Y-59660681D01*
X44492161Y-59660674D01*
X44371883Y-59514116D01*
X44322213Y-59473353D01*
X44282879Y-59415607D01*
X44281008Y-59345763D01*
X44317196Y-59285994D01*
X44379952Y-59255279D01*
X44400878Y-59253500D01*
X48055122Y-59253500D01*
X48122161Y-59273185D01*
X48167916Y-59325989D01*
X48177860Y-59395147D01*
X48148835Y-59458703D01*
X48133787Y-59473353D01*
X48084116Y-59514116D01*
X47963838Y-59660674D01*
X47963834Y-59660681D01*
X47874466Y-59827877D01*
X47874465Y-59827880D01*
X47874464Y-59827882D01*
X47874463Y-59827885D01*
X47851921Y-59902194D01*
X47819426Y-60009318D01*
X47800843Y-60198000D01*
X47819426Y-60386681D01*
X47837772Y-60447160D01*
X47874463Y-60568115D01*
X47874464Y-60568118D01*
X47874465Y-60568119D01*
X47874466Y-60568122D01*
X47963834Y-60735318D01*
X47963838Y-60735325D01*
X48084116Y-60881883D01*
X48230674Y-61002161D01*
X48230681Y-61002165D01*
X48397877Y-61091533D01*
X48397878Y-61091533D01*
X48397885Y-61091537D01*
X48579317Y-61146573D01*
X48579316Y-61146573D01*
X48596233Y-61148239D01*
X48768000Y-61165157D01*
X48956683Y-61146573D01*
X49138115Y-61091537D01*
X49305324Y-61002162D01*
X49451883Y-60881883D01*
X49572162Y-60735324D01*
X49661537Y-60568115D01*
X49716573Y-60386683D01*
X49735157Y-60198000D01*
X49716573Y-60009317D01*
X49661537Y-59827885D01*
X49639559Y-59786767D01*
X49572165Y-59660681D01*
X49572161Y-59660674D01*
X49451883Y-59514116D01*
X49402213Y-59473353D01*
X49362879Y-59415607D01*
X49361008Y-59345763D01*
X49397196Y-59285994D01*
X49459952Y-59255279D01*
X49480878Y-59253500D01*
X49851811Y-59253500D01*
X49918850Y-59273185D01*
X49939492Y-59289819D01*
X50376593Y-59726920D01*
X50410078Y-59788243D01*
X50407573Y-59850595D01*
X50359426Y-60009317D01*
X50340843Y-60198000D01*
X50359426Y-60386681D01*
X50377772Y-60447160D01*
X50414463Y-60568115D01*
X50414464Y-60568118D01*
X50414465Y-60568119D01*
X50414466Y-60568122D01*
X50503834Y-60735318D01*
X50503838Y-60735325D01*
X50624116Y-60881883D01*
X50770674Y-61002161D01*
X50770681Y-61002165D01*
X50937877Y-61091533D01*
X50937878Y-61091533D01*
X50937885Y-61091537D01*
X51119317Y-61146573D01*
X51119316Y-61146573D01*
X51136233Y-61148239D01*
X51308000Y-61165157D01*
X51496683Y-61146573D01*
X51678115Y-61091537D01*
X51845324Y-61002162D01*
X51991883Y-60881883D01*
X52112162Y-60735324D01*
X52201537Y-60568115D01*
X52256573Y-60386683D01*
X52275157Y-60198000D01*
X52880843Y-60198000D01*
X52899426Y-60386681D01*
X52917772Y-60447160D01*
X52954463Y-60568115D01*
X52954464Y-60568118D01*
X52954465Y-60568119D01*
X52954466Y-60568122D01*
X53043834Y-60735318D01*
X53043838Y-60735325D01*
X53164116Y-60881883D01*
X53310674Y-61002161D01*
X53310681Y-61002165D01*
X53477877Y-61091533D01*
X53477878Y-61091533D01*
X53477885Y-61091537D01*
X53659317Y-61146573D01*
X53659316Y-61146573D01*
X53676233Y-61148239D01*
X53848000Y-61165157D01*
X54036683Y-61146573D01*
X54218115Y-61091537D01*
X54385324Y-61002162D01*
X54531883Y-60881883D01*
X54652162Y-60735324D01*
X54741537Y-60568115D01*
X54796573Y-60386683D01*
X54815157Y-60198000D01*
X55420843Y-60198000D01*
X55439426Y-60386681D01*
X55457772Y-60447160D01*
X55494463Y-60568115D01*
X55494464Y-60568118D01*
X55494465Y-60568119D01*
X55494466Y-60568122D01*
X55583834Y-60735318D01*
X55583838Y-60735325D01*
X55704116Y-60881883D01*
X55850674Y-61002161D01*
X55850681Y-61002165D01*
X56017877Y-61091533D01*
X56017878Y-61091533D01*
X56017885Y-61091537D01*
X56199317Y-61146573D01*
X56199316Y-61146573D01*
X56216233Y-61148239D01*
X56388000Y-61165157D01*
X56576683Y-61146573D01*
X56758115Y-61091537D01*
X56925324Y-61002162D01*
X57071883Y-60881883D01*
X57192162Y-60735324D01*
X57281537Y-60568115D01*
X57336573Y-60386683D01*
X57355157Y-60198000D01*
X57960843Y-60198000D01*
X57979426Y-60386681D01*
X57997772Y-60447160D01*
X58034463Y-60568115D01*
X58034464Y-60568118D01*
X58034465Y-60568119D01*
X58034466Y-60568122D01*
X58123834Y-60735318D01*
X58123838Y-60735325D01*
X58244116Y-60881883D01*
X58390674Y-61002161D01*
X58390681Y-61002165D01*
X58557877Y-61091533D01*
X58557878Y-61091533D01*
X58557885Y-61091537D01*
X58739317Y-61146573D01*
X58739316Y-61146573D01*
X58756233Y-61148239D01*
X58928000Y-61165157D01*
X59116683Y-61146573D01*
X59298115Y-61091537D01*
X59465324Y-61002162D01*
X59611883Y-60881883D01*
X59732162Y-60735324D01*
X59821537Y-60568115D01*
X59876573Y-60386683D01*
X59895157Y-60198000D01*
X59876573Y-60009317D01*
X59821537Y-59827885D01*
X59799559Y-59786767D01*
X59732165Y-59660681D01*
X59732161Y-59660674D01*
X59611883Y-59514116D01*
X59465325Y-59393838D01*
X59465318Y-59393834D01*
X59298122Y-59304466D01*
X59298119Y-59304465D01*
X59298118Y-59304464D01*
X59298115Y-59304463D01*
X59116683Y-59249427D01*
X59116681Y-59249426D01*
X59116683Y-59249426D01*
X58928000Y-59230843D01*
X58739318Y-59249426D01*
X58660996Y-59273185D01*
X58557885Y-59304463D01*
X58557882Y-59304464D01*
X58557880Y-59304465D01*
X58557877Y-59304466D01*
X58390681Y-59393834D01*
X58390674Y-59393838D01*
X58244116Y-59514116D01*
X58123838Y-59660674D01*
X58123834Y-59660681D01*
X58034466Y-59827877D01*
X58034465Y-59827880D01*
X58034464Y-59827882D01*
X58034463Y-59827885D01*
X58011921Y-59902194D01*
X57979426Y-60009318D01*
X57960843Y-60198000D01*
X57355157Y-60198000D01*
X57336573Y-60009317D01*
X57281537Y-59827885D01*
X57259559Y-59786767D01*
X57192165Y-59660681D01*
X57192161Y-59660674D01*
X57071883Y-59514116D01*
X56925325Y-59393838D01*
X56925318Y-59393834D01*
X56758122Y-59304466D01*
X56758119Y-59304465D01*
X56758118Y-59304464D01*
X56758115Y-59304463D01*
X56576683Y-59249427D01*
X56576681Y-59249426D01*
X56576683Y-59249426D01*
X56388000Y-59230843D01*
X56199318Y-59249426D01*
X56120996Y-59273185D01*
X56017885Y-59304463D01*
X56017882Y-59304464D01*
X56017880Y-59304465D01*
X56017877Y-59304466D01*
X55850681Y-59393834D01*
X55850674Y-59393838D01*
X55704116Y-59514116D01*
X55583838Y-59660674D01*
X55583834Y-59660681D01*
X55494466Y-59827877D01*
X55494465Y-59827880D01*
X55494464Y-59827882D01*
X55494463Y-59827885D01*
X55471921Y-59902194D01*
X55439426Y-60009318D01*
X55420843Y-60198000D01*
X54815157Y-60198000D01*
X54796573Y-60009317D01*
X54741537Y-59827885D01*
X54719559Y-59786767D01*
X54652165Y-59660681D01*
X54652161Y-59660674D01*
X54531883Y-59514116D01*
X54385325Y-59393838D01*
X54385318Y-59393834D01*
X54218122Y-59304466D01*
X54218119Y-59304465D01*
X54218118Y-59304464D01*
X54218115Y-59304463D01*
X54036683Y-59249427D01*
X54036681Y-59249426D01*
X54036683Y-59249426D01*
X53848000Y-59230843D01*
X53659318Y-59249426D01*
X53580996Y-59273185D01*
X53477885Y-59304463D01*
X53477882Y-59304464D01*
X53477880Y-59304465D01*
X53477877Y-59304466D01*
X53310681Y-59393834D01*
X53310674Y-59393838D01*
X53164116Y-59514116D01*
X53043838Y-59660674D01*
X53043834Y-59660681D01*
X52954466Y-59827877D01*
X52954465Y-59827880D01*
X52954464Y-59827882D01*
X52954463Y-59827885D01*
X52931921Y-59902194D01*
X52899426Y-60009318D01*
X52880843Y-60198000D01*
X52275157Y-60198000D01*
X52256573Y-60009317D01*
X52201537Y-59827885D01*
X52179559Y-59786767D01*
X52112165Y-59660681D01*
X52112161Y-59660674D01*
X51991883Y-59514116D01*
X51845325Y-59393838D01*
X51845318Y-59393834D01*
X51678122Y-59304466D01*
X51678119Y-59304465D01*
X51678118Y-59304464D01*
X51678115Y-59304463D01*
X51496683Y-59249427D01*
X51496681Y-59249426D01*
X51496683Y-59249426D01*
X51308000Y-59230843D01*
X51119317Y-59249426D01*
X50960595Y-59297573D01*
X50890728Y-59298196D01*
X50836920Y-59266593D01*
X50237864Y-58667537D01*
X50237862Y-58667535D01*
X50209892Y-58651386D01*
X50161677Y-58600820D01*
X50148455Y-58532213D01*
X50174423Y-58467348D01*
X50231337Y-58426820D01*
X50271893Y-58420000D01*
X96396000Y-58420000D01*
X96463039Y-58439685D01*
G37*
%TD.AperFunction*%
%TA.AperFunction,Conductor*%
G36*
X39575203Y-81293180D02*
G01*
X39601386Y-81324892D01*
X39617535Y-81352862D01*
X39617537Y-81352864D01*
X48567716Y-90303043D01*
X48601201Y-90364366D01*
X48596217Y-90434058D01*
X48554345Y-90489991D01*
X48488881Y-90514408D01*
X48463849Y-90513663D01*
X48371463Y-90501499D01*
X48371456Y-90501499D01*
X48148544Y-90501499D01*
X48148536Y-90501499D01*
X47952093Y-90527363D01*
X47927537Y-90530596D01*
X47712219Y-90588290D01*
X47712209Y-90588293D01*
X47506277Y-90673593D01*
X47506273Y-90673595D01*
X47313226Y-90785052D01*
X47313217Y-90785058D01*
X47136377Y-90920751D01*
X47136370Y-90920757D01*
X46978759Y-91078368D01*
X46978755Y-91078373D01*
X46901125Y-91179543D01*
X46843058Y-91255217D01*
X46843052Y-91255226D01*
X46731595Y-91448273D01*
X46731593Y-91448277D01*
X46646293Y-91654209D01*
X46646290Y-91654219D01*
X46608885Y-91793819D01*
X46588596Y-91869538D01*
X46559499Y-92090536D01*
X46559499Y-92317842D01*
X46559500Y-92317871D01*
X46559500Y-94626671D01*
X46559499Y-94626705D01*
X46559499Y-94630544D01*
X46559499Y-94853456D01*
X46576833Y-94985115D01*
X46588596Y-95074463D01*
X46588597Y-95074465D01*
X46618574Y-95186343D01*
X46616911Y-95256193D01*
X46577748Y-95314055D01*
X46513519Y-95341559D01*
X46444617Y-95329972D01*
X46411118Y-95306117D01*
X46355000Y-95249999D01*
X46355000Y-98936000D01*
X46335315Y-99003039D01*
X46282511Y-99048794D01*
X46231000Y-99060000D01*
X39494000Y-99060000D01*
X39426961Y-99040315D01*
X39381206Y-98987511D01*
X39370000Y-98936000D01*
X39370000Y-93979996D01*
X40174415Y-93979996D01*
X40174415Y-93980003D01*
X40194738Y-94328927D01*
X40194739Y-94328938D01*
X40255428Y-94673127D01*
X40255430Y-94673134D01*
X40355674Y-95007972D01*
X40494107Y-95328895D01*
X40494113Y-95328908D01*
X40668870Y-95631597D01*
X40877584Y-95911949D01*
X40877589Y-95911955D01*
X40982591Y-96023250D01*
X41117442Y-96166183D01*
X41293903Y-96314251D01*
X41385186Y-96390847D01*
X41385194Y-96390853D01*
X41677203Y-96582911D01*
X41677207Y-96582913D01*
X41989549Y-96739777D01*
X42317989Y-96859319D01*
X42658086Y-96939923D01*
X43005241Y-96980500D01*
X43005248Y-96980500D01*
X43354752Y-96980500D01*
X43354759Y-96980500D01*
X43701914Y-96939923D01*
X44042011Y-96859319D01*
X44370451Y-96739777D01*
X44682793Y-96582913D01*
X44974811Y-96390849D01*
X45242558Y-96166183D01*
X45482412Y-95911953D01*
X45691130Y-95631596D01*
X45865889Y-95328904D01*
X46004326Y-95007971D01*
X46104569Y-94673136D01*
X46112081Y-94630536D01*
X46165260Y-94328938D01*
X46165259Y-94328938D01*
X46165262Y-94328927D01*
X46185585Y-93980000D01*
X46165262Y-93631073D01*
X46164099Y-93624475D01*
X46104571Y-93286872D01*
X46104569Y-93286865D01*
X46104569Y-93286864D01*
X46004326Y-92952029D01*
X45865889Y-92631096D01*
X45691130Y-92328404D01*
X45691129Y-92328402D01*
X45482415Y-92048050D01*
X45482410Y-92048044D01*
X45298884Y-91853519D01*
X45242558Y-91793817D01*
X45065394Y-91645159D01*
X44974813Y-91569152D01*
X44974805Y-91569146D01*
X44682796Y-91377088D01*
X44370458Y-91220226D01*
X44370452Y-91220223D01*
X44042012Y-91100681D01*
X44042009Y-91100680D01*
X43701915Y-91020077D01*
X43658519Y-91015004D01*
X43354759Y-90979500D01*
X43005241Y-90979500D01*
X42701480Y-91015004D01*
X42658085Y-91020077D01*
X42658083Y-91020077D01*
X42317990Y-91100680D01*
X42317987Y-91100681D01*
X41989547Y-91220223D01*
X41989541Y-91220226D01*
X41677203Y-91377088D01*
X41385194Y-91569146D01*
X41385186Y-91569152D01*
X41117442Y-91793817D01*
X41117440Y-91793819D01*
X40877589Y-92048044D01*
X40877584Y-92048050D01*
X40668870Y-92328402D01*
X40494113Y-92631091D01*
X40494107Y-92631104D01*
X40355674Y-92952027D01*
X40255430Y-93286865D01*
X40255428Y-93286872D01*
X40194739Y-93631061D01*
X40194738Y-93631072D01*
X40174415Y-93979996D01*
X39370000Y-93979996D01*
X39370000Y-81386893D01*
X39389685Y-81319854D01*
X39442489Y-81274099D01*
X39511647Y-81264155D01*
X39575203Y-81293180D01*
G37*
%TD.AperFunction*%
%TD*%
M02*
