%TF.GenerationSoftware,KiCad,Pcbnew,8.0.5*%
%TF.CreationDate,2024-10-04T09:52:45+09:00*%
%TF.ProjectId,UI__,5549fa7f-2e6b-4696-9361-645f70636258,rev?*%
%TF.SameCoordinates,Original*%
%TF.FileFunction,Profile,NP*%
%FSLAX46Y46*%
G04 Gerber Fmt 4.6, Leading zero omitted, Abs format (unit mm)*
G04 Created by KiCad (PCBNEW 8.0.5) date 2024-10-04 09:52:45*
%MOMM*%
%LPD*%
G01*
G04 APERTURE LIST*
%TA.AperFunction,Profile*%
%ADD10C,0.100000*%
%TD*%
%TA.AperFunction,Profile*%
%ADD11C,0.050000*%
%TD*%
G04 APERTURE END LIST*
D10*
X159512000Y-120142000D02*
X159500000Y-124000000D01*
X247015000Y-71000000D02*
X247015000Y-90678000D01*
X161290000Y-72644000D02*
G75*
G02*
X161290000Y-76200000I0J-1778000D01*
G01*
X236112000Y-70459600D02*
G75*
G02*
X235312000Y-70459600I-400000J0D01*
G01*
X235312000Y-70459600D02*
G75*
G02*
X236112000Y-70459600I400000J0D01*
G01*
X159500000Y-124000000D02*
X259000000Y-124000000D01*
X247015000Y-69977000D02*
X258445000Y-69977000D01*
X247015000Y-90678000D02*
X259000000Y-90678000D01*
X161290000Y-116586000D02*
G75*
G02*
X161290000Y-120142000I0J-1778000D01*
G01*
X258445000Y-59309000D02*
X219075000Y-59309000D01*
X161290000Y-120142000D02*
X159512000Y-120142000D01*
X242062000Y-70485000D02*
G75*
G02*
X241262000Y-70485000I-400000J0D01*
G01*
X241262000Y-70485000D02*
G75*
G02*
X242062000Y-70485000I400000J0D01*
G01*
X259000000Y-124000000D02*
X259000000Y-90678000D01*
X159512000Y-72644000D02*
X159500000Y-71000000D01*
X238887000Y-70485000D02*
G75*
G02*
X238087000Y-70485000I-400000J0D01*
G01*
X238087000Y-70485000D02*
G75*
G02*
X238887000Y-70485000I400000J0D01*
G01*
X247015000Y-71000000D02*
X247015000Y-69977000D01*
X161290000Y-76200000D02*
X159512000Y-76200000D01*
X219075000Y-69977000D02*
X233680000Y-69977000D01*
X161290000Y-72644000D02*
X159512000Y-72644000D01*
X159512000Y-76200000D02*
X159512000Y-116586000D01*
X219075000Y-59309000D02*
X219075000Y-69977000D01*
X258445000Y-69977000D02*
X258445000Y-59309000D01*
X161290000Y-116586000D02*
X159512000Y-116586000D01*
X239702620Y-74295000D02*
G75*
G02*
X236039380Y-74295000I-1831620J0D01*
G01*
X236039380Y-74295000D02*
G75*
G02*
X239702620Y-74295000I1831620J0D01*
G01*
X244983000Y-70485000D02*
G75*
G02*
X244183000Y-70485000I-400000J0D01*
G01*
X244183000Y-70485000D02*
G75*
G02*
X244983000Y-70485000I400000J0D01*
G01*
X239667051Y-118745000D02*
G75*
G02*
X236074949Y-118745000I-1796051J0D01*
G01*
X236074949Y-118745000D02*
G75*
G02*
X239667051Y-118745000I1796051J0D01*
G01*
X233680000Y-70993000D02*
X159500000Y-71000000D01*
X233680000Y-70993000D02*
X233680000Y-69977000D01*
D11*
%TO.C,ENC1*%
X256640000Y-109679600D02*
G75*
G02*
X247440000Y-109679600I-4600000J0D01*
G01*
X247440000Y-109679600D02*
G75*
G02*
X256640000Y-109679600I4600000J0D01*
G01*
%TD*%
M02*
