%TF.GenerationSoftware,KiCad,Pcbnew,8.0.5*%
%TF.CreationDate,2024-10-04T09:52:45+09:00*%
%TF.ProjectId,UI__,5549fa7f-2e6b-4696-9361-645f70636258,rev?*%
%TF.SameCoordinates,Original*%
%TF.FileFunction,Other,Comment*%
%FSLAX46Y46*%
G04 Gerber Fmt 4.6, Leading zero omitted, Abs format (unit mm)*
G04 Created by KiCad (PCBNEW 8.0.5) date 2024-10-04 09:52:45*
%MOMM*%
%LPD*%
G01*
G04 APERTURE LIST*
%ADD10C,0.150000*%
G04 APERTURE END LIST*
D10*
X197789997Y-82909580D02*
X197742378Y-82957200D01*
X197742378Y-82957200D02*
X197599521Y-83004819D01*
X197599521Y-83004819D02*
X197504283Y-83004819D01*
X197504283Y-83004819D02*
X197361426Y-82957200D01*
X197361426Y-82957200D02*
X197266188Y-82861961D01*
X197266188Y-82861961D02*
X197218569Y-82766723D01*
X197218569Y-82766723D02*
X197170950Y-82576247D01*
X197170950Y-82576247D02*
X197170950Y-82433390D01*
X197170950Y-82433390D02*
X197218569Y-82242914D01*
X197218569Y-82242914D02*
X197266188Y-82147676D01*
X197266188Y-82147676D02*
X197361426Y-82052438D01*
X197361426Y-82052438D02*
X197504283Y-82004819D01*
X197504283Y-82004819D02*
X197599521Y-82004819D01*
X197599521Y-82004819D02*
X197742378Y-82052438D01*
X197742378Y-82052438D02*
X197789997Y-82100057D01*
X198361426Y-83004819D02*
X198266188Y-82957200D01*
X198266188Y-82957200D02*
X198218569Y-82909580D01*
X198218569Y-82909580D02*
X198170950Y-82814342D01*
X198170950Y-82814342D02*
X198170950Y-82528628D01*
X198170950Y-82528628D02*
X198218569Y-82433390D01*
X198218569Y-82433390D02*
X198266188Y-82385771D01*
X198266188Y-82385771D02*
X198361426Y-82338152D01*
X198361426Y-82338152D02*
X198504283Y-82338152D01*
X198504283Y-82338152D02*
X198599521Y-82385771D01*
X198599521Y-82385771D02*
X198647140Y-82433390D01*
X198647140Y-82433390D02*
X198694759Y-82528628D01*
X198694759Y-82528628D02*
X198694759Y-82814342D01*
X198694759Y-82814342D02*
X198647140Y-82909580D01*
X198647140Y-82909580D02*
X198599521Y-82957200D01*
X198599521Y-82957200D02*
X198504283Y-83004819D01*
X198504283Y-83004819D02*
X198361426Y-83004819D01*
X199123331Y-82338152D02*
X199123331Y-83338152D01*
X199123331Y-82385771D02*
X199218569Y-82338152D01*
X199218569Y-82338152D02*
X199409045Y-82338152D01*
X199409045Y-82338152D02*
X199504283Y-82385771D01*
X199504283Y-82385771D02*
X199551902Y-82433390D01*
X199551902Y-82433390D02*
X199599521Y-82528628D01*
X199599521Y-82528628D02*
X199599521Y-82814342D01*
X199599521Y-82814342D02*
X199551902Y-82909580D01*
X199551902Y-82909580D02*
X199504283Y-82957200D01*
X199504283Y-82957200D02*
X199409045Y-83004819D01*
X199409045Y-83004819D02*
X199218569Y-83004819D01*
X199218569Y-83004819D02*
X199123331Y-82957200D01*
X200028093Y-82338152D02*
X200028093Y-83338152D01*
X200028093Y-82385771D02*
X200123331Y-82338152D01*
X200123331Y-82338152D02*
X200313807Y-82338152D01*
X200313807Y-82338152D02*
X200409045Y-82385771D01*
X200409045Y-82385771D02*
X200456664Y-82433390D01*
X200456664Y-82433390D02*
X200504283Y-82528628D01*
X200504283Y-82528628D02*
X200504283Y-82814342D01*
X200504283Y-82814342D02*
X200456664Y-82909580D01*
X200456664Y-82909580D02*
X200409045Y-82957200D01*
X200409045Y-82957200D02*
X200313807Y-83004819D01*
X200313807Y-83004819D02*
X200123331Y-83004819D01*
X200123331Y-83004819D02*
X200028093Y-82957200D01*
X201313807Y-82957200D02*
X201218569Y-83004819D01*
X201218569Y-83004819D02*
X201028093Y-83004819D01*
X201028093Y-83004819D02*
X200932855Y-82957200D01*
X200932855Y-82957200D02*
X200885236Y-82861961D01*
X200885236Y-82861961D02*
X200885236Y-82481009D01*
X200885236Y-82481009D02*
X200932855Y-82385771D01*
X200932855Y-82385771D02*
X201028093Y-82338152D01*
X201028093Y-82338152D02*
X201218569Y-82338152D01*
X201218569Y-82338152D02*
X201313807Y-82385771D01*
X201313807Y-82385771D02*
X201361426Y-82481009D01*
X201361426Y-82481009D02*
X201361426Y-82576247D01*
X201361426Y-82576247D02*
X200885236Y-82671485D01*
X201789998Y-83004819D02*
X201789998Y-82338152D01*
X201789998Y-82528628D02*
X201837617Y-82433390D01*
X201837617Y-82433390D02*
X201885236Y-82385771D01*
X201885236Y-82385771D02*
X201980474Y-82338152D01*
X201980474Y-82338152D02*
X202075712Y-82338152D01*
X203170951Y-83004819D02*
X203170951Y-82004819D01*
X203742379Y-83004819D02*
X203313808Y-82433390D01*
X203742379Y-82004819D02*
X203170951Y-82576247D01*
X204551903Y-82957200D02*
X204456665Y-83004819D01*
X204456665Y-83004819D02*
X204266189Y-83004819D01*
X204266189Y-83004819D02*
X204170951Y-82957200D01*
X204170951Y-82957200D02*
X204123332Y-82861961D01*
X204123332Y-82861961D02*
X204123332Y-82481009D01*
X204123332Y-82481009D02*
X204170951Y-82385771D01*
X204170951Y-82385771D02*
X204266189Y-82338152D01*
X204266189Y-82338152D02*
X204456665Y-82338152D01*
X204456665Y-82338152D02*
X204551903Y-82385771D01*
X204551903Y-82385771D02*
X204599522Y-82481009D01*
X204599522Y-82481009D02*
X204599522Y-82576247D01*
X204599522Y-82576247D02*
X204123332Y-82671485D01*
X205409046Y-82957200D02*
X205313808Y-83004819D01*
X205313808Y-83004819D02*
X205123332Y-83004819D01*
X205123332Y-83004819D02*
X205028094Y-82957200D01*
X205028094Y-82957200D02*
X204980475Y-82861961D01*
X204980475Y-82861961D02*
X204980475Y-82481009D01*
X204980475Y-82481009D02*
X205028094Y-82385771D01*
X205028094Y-82385771D02*
X205123332Y-82338152D01*
X205123332Y-82338152D02*
X205313808Y-82338152D01*
X205313808Y-82338152D02*
X205409046Y-82385771D01*
X205409046Y-82385771D02*
X205456665Y-82481009D01*
X205456665Y-82481009D02*
X205456665Y-82576247D01*
X205456665Y-82576247D02*
X204980475Y-82671485D01*
X205885237Y-82338152D02*
X205885237Y-83338152D01*
X205885237Y-82385771D02*
X205980475Y-82338152D01*
X205980475Y-82338152D02*
X206170951Y-82338152D01*
X206170951Y-82338152D02*
X206266189Y-82385771D01*
X206266189Y-82385771D02*
X206313808Y-82433390D01*
X206313808Y-82433390D02*
X206361427Y-82528628D01*
X206361427Y-82528628D02*
X206361427Y-82814342D01*
X206361427Y-82814342D02*
X206313808Y-82909580D01*
X206313808Y-82909580D02*
X206266189Y-82957200D01*
X206266189Y-82957200D02*
X206170951Y-83004819D01*
X206170951Y-83004819D02*
X205980475Y-83004819D01*
X205980475Y-83004819D02*
X205885237Y-82957200D01*
X206932856Y-83004819D02*
X206837618Y-82957200D01*
X206837618Y-82957200D02*
X206789999Y-82909580D01*
X206789999Y-82909580D02*
X206742380Y-82814342D01*
X206742380Y-82814342D02*
X206742380Y-82528628D01*
X206742380Y-82528628D02*
X206789999Y-82433390D01*
X206789999Y-82433390D02*
X206837618Y-82385771D01*
X206837618Y-82385771D02*
X206932856Y-82338152D01*
X206932856Y-82338152D02*
X207075713Y-82338152D01*
X207075713Y-82338152D02*
X207170951Y-82385771D01*
X207170951Y-82385771D02*
X207218570Y-82433390D01*
X207218570Y-82433390D02*
X207266189Y-82528628D01*
X207266189Y-82528628D02*
X207266189Y-82814342D01*
X207266189Y-82814342D02*
X207218570Y-82909580D01*
X207218570Y-82909580D02*
X207170951Y-82957200D01*
X207170951Y-82957200D02*
X207075713Y-83004819D01*
X207075713Y-83004819D02*
X206932856Y-83004819D01*
X208123332Y-82338152D02*
X208123332Y-83004819D01*
X207694761Y-82338152D02*
X207694761Y-82861961D01*
X207694761Y-82861961D02*
X207742380Y-82957200D01*
X207742380Y-82957200D02*
X207837618Y-83004819D01*
X207837618Y-83004819D02*
X207980475Y-83004819D01*
X207980475Y-83004819D02*
X208075713Y-82957200D01*
X208075713Y-82957200D02*
X208123332Y-82909580D01*
X208456666Y-82338152D02*
X208837618Y-82338152D01*
X208599523Y-82004819D02*
X208599523Y-82861961D01*
X208599523Y-82861961D02*
X208647142Y-82957200D01*
X208647142Y-82957200D02*
X208742380Y-83004819D01*
X208742380Y-83004819D02*
X208837618Y-83004819D01*
X209123333Y-82957200D02*
X209218571Y-83004819D01*
X209218571Y-83004819D02*
X209409047Y-83004819D01*
X209409047Y-83004819D02*
X209504285Y-82957200D01*
X209504285Y-82957200D02*
X209551904Y-82861961D01*
X209551904Y-82861961D02*
X209551904Y-82814342D01*
X209551904Y-82814342D02*
X209504285Y-82719104D01*
X209504285Y-82719104D02*
X209409047Y-82671485D01*
X209409047Y-82671485D02*
X209266190Y-82671485D01*
X209266190Y-82671485D02*
X209170952Y-82623866D01*
X209170952Y-82623866D02*
X209123333Y-82528628D01*
X209123333Y-82528628D02*
X209123333Y-82481009D01*
X209123333Y-82481009D02*
X209170952Y-82385771D01*
X209170952Y-82385771D02*
X209266190Y-82338152D01*
X209266190Y-82338152D02*
X209409047Y-82338152D01*
X209409047Y-82338152D02*
X209504285Y-82385771D01*
X210694762Y-82957200D02*
X210790000Y-83004819D01*
X210790000Y-83004819D02*
X210980476Y-83004819D01*
X210980476Y-83004819D02*
X211075714Y-82957200D01*
X211075714Y-82957200D02*
X211123333Y-82861961D01*
X211123333Y-82861961D02*
X211123333Y-82814342D01*
X211123333Y-82814342D02*
X211075714Y-82719104D01*
X211075714Y-82719104D02*
X210980476Y-82671485D01*
X210980476Y-82671485D02*
X210837619Y-82671485D01*
X210837619Y-82671485D02*
X210742381Y-82623866D01*
X210742381Y-82623866D02*
X210694762Y-82528628D01*
X210694762Y-82528628D02*
X210694762Y-82481009D01*
X210694762Y-82481009D02*
X210742381Y-82385771D01*
X210742381Y-82385771D02*
X210837619Y-82338152D01*
X210837619Y-82338152D02*
X210980476Y-82338152D01*
X210980476Y-82338152D02*
X211075714Y-82385771D01*
X211551905Y-83004819D02*
X211551905Y-82004819D01*
X211980476Y-83004819D02*
X211980476Y-82481009D01*
X211980476Y-82481009D02*
X211932857Y-82385771D01*
X211932857Y-82385771D02*
X211837619Y-82338152D01*
X211837619Y-82338152D02*
X211694762Y-82338152D01*
X211694762Y-82338152D02*
X211599524Y-82385771D01*
X211599524Y-82385771D02*
X211551905Y-82433390D01*
X212599524Y-83004819D02*
X212504286Y-82957200D01*
X212504286Y-82957200D02*
X212456667Y-82909580D01*
X212456667Y-82909580D02*
X212409048Y-82814342D01*
X212409048Y-82814342D02*
X212409048Y-82528628D01*
X212409048Y-82528628D02*
X212456667Y-82433390D01*
X212456667Y-82433390D02*
X212504286Y-82385771D01*
X212504286Y-82385771D02*
X212599524Y-82338152D01*
X212599524Y-82338152D02*
X212742381Y-82338152D01*
X212742381Y-82338152D02*
X212837619Y-82385771D01*
X212837619Y-82385771D02*
X212885238Y-82433390D01*
X212885238Y-82433390D02*
X212932857Y-82528628D01*
X212932857Y-82528628D02*
X212932857Y-82814342D01*
X212932857Y-82814342D02*
X212885238Y-82909580D01*
X212885238Y-82909580D02*
X212837619Y-82957200D01*
X212837619Y-82957200D02*
X212742381Y-83004819D01*
X212742381Y-83004819D02*
X212599524Y-83004819D01*
X213266191Y-82338152D02*
X213456667Y-83004819D01*
X213456667Y-83004819D02*
X213647143Y-82528628D01*
X213647143Y-82528628D02*
X213837619Y-83004819D01*
X213837619Y-83004819D02*
X214028095Y-82338152D01*
X214409048Y-82338152D02*
X214409048Y-83004819D01*
X214409048Y-82433390D02*
X214456667Y-82385771D01*
X214456667Y-82385771D02*
X214551905Y-82338152D01*
X214551905Y-82338152D02*
X214694762Y-82338152D01*
X214694762Y-82338152D02*
X214790000Y-82385771D01*
X214790000Y-82385771D02*
X214837619Y-82481009D01*
X214837619Y-82481009D02*
X214837619Y-83004819D01*
X216218572Y-83004819D02*
X216123334Y-82957200D01*
X216123334Y-82957200D02*
X216075715Y-82909580D01*
X216075715Y-82909580D02*
X216028096Y-82814342D01*
X216028096Y-82814342D02*
X216028096Y-82528628D01*
X216028096Y-82528628D02*
X216075715Y-82433390D01*
X216075715Y-82433390D02*
X216123334Y-82385771D01*
X216123334Y-82385771D02*
X216218572Y-82338152D01*
X216218572Y-82338152D02*
X216361429Y-82338152D01*
X216361429Y-82338152D02*
X216456667Y-82385771D01*
X216456667Y-82385771D02*
X216504286Y-82433390D01*
X216504286Y-82433390D02*
X216551905Y-82528628D01*
X216551905Y-82528628D02*
X216551905Y-82814342D01*
X216551905Y-82814342D02*
X216504286Y-82909580D01*
X216504286Y-82909580D02*
X216456667Y-82957200D01*
X216456667Y-82957200D02*
X216361429Y-83004819D01*
X216361429Y-83004819D02*
X216218572Y-83004819D01*
X216980477Y-82338152D02*
X216980477Y-83004819D01*
X216980477Y-82433390D02*
X217028096Y-82385771D01*
X217028096Y-82385771D02*
X217123334Y-82338152D01*
X217123334Y-82338152D02*
X217266191Y-82338152D01*
X217266191Y-82338152D02*
X217361429Y-82385771D01*
X217361429Y-82385771D02*
X217409048Y-82481009D01*
X217409048Y-82481009D02*
X217409048Y-83004819D01*
X218647144Y-83004819D02*
X218647144Y-82004819D01*
X218647144Y-82004819D02*
X218885239Y-82004819D01*
X218885239Y-82004819D02*
X219028096Y-82052438D01*
X219028096Y-82052438D02*
X219123334Y-82147676D01*
X219123334Y-82147676D02*
X219170953Y-82242914D01*
X219170953Y-82242914D02*
X219218572Y-82433390D01*
X219218572Y-82433390D02*
X219218572Y-82576247D01*
X219218572Y-82576247D02*
X219170953Y-82766723D01*
X219170953Y-82766723D02*
X219123334Y-82861961D01*
X219123334Y-82861961D02*
X219028096Y-82957200D01*
X219028096Y-82957200D02*
X218885239Y-83004819D01*
X218885239Y-83004819D02*
X218647144Y-83004819D01*
X219551906Y-82338152D02*
X219742382Y-83004819D01*
X219742382Y-83004819D02*
X219932858Y-82528628D01*
X219932858Y-82528628D02*
X220123334Y-83004819D01*
X220123334Y-83004819D02*
X220313810Y-82338152D01*
X221123334Y-82338152D02*
X221123334Y-83147676D01*
X221123334Y-83147676D02*
X221075715Y-83242914D01*
X221075715Y-83242914D02*
X221028096Y-83290533D01*
X221028096Y-83290533D02*
X220932858Y-83338152D01*
X220932858Y-83338152D02*
X220790001Y-83338152D01*
X220790001Y-83338152D02*
X220694763Y-83290533D01*
X221123334Y-82957200D02*
X221028096Y-83004819D01*
X221028096Y-83004819D02*
X220837620Y-83004819D01*
X220837620Y-83004819D02*
X220742382Y-82957200D01*
X220742382Y-82957200D02*
X220694763Y-82909580D01*
X220694763Y-82909580D02*
X220647144Y-82814342D01*
X220647144Y-82814342D02*
X220647144Y-82528628D01*
X220647144Y-82528628D02*
X220694763Y-82433390D01*
X220694763Y-82433390D02*
X220742382Y-82385771D01*
X220742382Y-82385771D02*
X220837620Y-82338152D01*
X220837620Y-82338152D02*
X221028096Y-82338152D01*
X221028096Y-82338152D02*
X221123334Y-82385771D01*
X221551906Y-82957200D02*
X221647144Y-83004819D01*
X221647144Y-83004819D02*
X221837620Y-83004819D01*
X221837620Y-83004819D02*
X221932858Y-82957200D01*
X221932858Y-82957200D02*
X221980477Y-82861961D01*
X221980477Y-82861961D02*
X221980477Y-82814342D01*
X221980477Y-82814342D02*
X221932858Y-82719104D01*
X221932858Y-82719104D02*
X221837620Y-82671485D01*
X221837620Y-82671485D02*
X221694763Y-82671485D01*
X221694763Y-82671485D02*
X221599525Y-82623866D01*
X221599525Y-82623866D02*
X221551906Y-82528628D01*
X221551906Y-82528628D02*
X221551906Y-82481009D01*
X221551906Y-82481009D02*
X221599525Y-82385771D01*
X221599525Y-82385771D02*
X221694763Y-82338152D01*
X221694763Y-82338152D02*
X221837620Y-82338152D01*
X221837620Y-82338152D02*
X221932858Y-82385771D01*
X223313811Y-83004819D02*
X223218573Y-82957200D01*
X223218573Y-82957200D02*
X223170954Y-82861961D01*
X223170954Y-82861961D02*
X223170954Y-82004819D01*
X224123335Y-83004819D02*
X224123335Y-82481009D01*
X224123335Y-82481009D02*
X224075716Y-82385771D01*
X224075716Y-82385771D02*
X223980478Y-82338152D01*
X223980478Y-82338152D02*
X223790002Y-82338152D01*
X223790002Y-82338152D02*
X223694764Y-82385771D01*
X224123335Y-82957200D02*
X224028097Y-83004819D01*
X224028097Y-83004819D02*
X223790002Y-83004819D01*
X223790002Y-83004819D02*
X223694764Y-82957200D01*
X223694764Y-82957200D02*
X223647145Y-82861961D01*
X223647145Y-82861961D02*
X223647145Y-82766723D01*
X223647145Y-82766723D02*
X223694764Y-82671485D01*
X223694764Y-82671485D02*
X223790002Y-82623866D01*
X223790002Y-82623866D02*
X224028097Y-82623866D01*
X224028097Y-82623866D02*
X224123335Y-82576247D01*
X224504288Y-82338152D02*
X224742383Y-83004819D01*
X224980478Y-82338152D02*
X224742383Y-83004819D01*
X224742383Y-83004819D02*
X224647145Y-83242914D01*
X224647145Y-83242914D02*
X224599526Y-83290533D01*
X224599526Y-83290533D02*
X224504288Y-83338152D01*
X225742383Y-82957200D02*
X225647145Y-83004819D01*
X225647145Y-83004819D02*
X225456669Y-83004819D01*
X225456669Y-83004819D02*
X225361431Y-82957200D01*
X225361431Y-82957200D02*
X225313812Y-82861961D01*
X225313812Y-82861961D02*
X225313812Y-82481009D01*
X225313812Y-82481009D02*
X225361431Y-82385771D01*
X225361431Y-82385771D02*
X225456669Y-82338152D01*
X225456669Y-82338152D02*
X225647145Y-82338152D01*
X225647145Y-82338152D02*
X225742383Y-82385771D01*
X225742383Y-82385771D02*
X225790002Y-82481009D01*
X225790002Y-82481009D02*
X225790002Y-82576247D01*
X225790002Y-82576247D02*
X225313812Y-82671485D01*
X226218574Y-83004819D02*
X226218574Y-82338152D01*
X226218574Y-82528628D02*
X226266193Y-82433390D01*
X226266193Y-82433390D02*
X226313812Y-82385771D01*
X226313812Y-82385771D02*
X226409050Y-82338152D01*
X226409050Y-82338152D02*
X226504288Y-82338152D01*
%TO.C,REF\u002A\u002A*%
X240925000Y-64643000D02*
G75*
G02*
X235325000Y-64643000I-2800000J0D01*
G01*
X235325000Y-64643000D02*
G75*
G02*
X240925000Y-64643000I2800000J0D01*
G01*
%TD*%
M02*
