M48
; DRILL file {KiCad 8.0.5} date 2024-10-04T09:52:45+0900
; FORMAT={-:-/ absolute / inch / decimal}
; #@! TF.CreationDate,2024-10-04T09:52:45+09:00
; #@! TF.GenerationSoftware,Kicad,Pcbnew,8.0.5
; #@! TF.FileFunction,Plated,1,2,PTH
FMAT,2
INCH
; #@! TA.AperFunction,Plated,PTH,ViaDrill
T1C0.0157
; #@! TA.AperFunction,Plated,PTH,ComponentDrill
T2C0.0300
; #@! TA.AperFunction,Plated,PTH,ComponentDrill
T3C0.0314
; #@! TA.AperFunction,Plated,PTH,ComponentDrill
T4C0.0315
; #@! TA.AperFunction,Plated,PTH,ComponentDrill
T5C0.0374
; #@! TA.AperFunction,Plated,PTH,ComponentDrill
T6C0.0402
; #@! TA.AperFunction,Plated,PTH,ComponentDrill
T7C0.0433
; #@! TA.AperFunction,Plated,PTH,ComponentDrill
T8C0.1260
%
G90
G05
T1
X6.35Y-2.825
X6.35Y-3.05
X6.35Y-3.3
X6.35Y-3.5
X6.35Y-4.25
X6.35Y-4.425
X6.35Y-4.85
X6.5Y-3.75
X6.5Y-3.9
X6.5Y-4.15
X6.5Y-4.55
X6.6Y-2.9
X6.625Y-4.675
X6.7Y-4.0
X6.7Y-4.35
X6.75Y-3.5
X6.75Y-3.75
X6.8Y-3.125
X6.85Y-3.9
X6.85Y-4.5
X6.85Y-4.85
X6.9Y-2.9
X6.9Y-3.8
X6.9Y-4.15
X6.95Y-3.7
X6.975Y-3.025
X6.975Y-3.4
X7.05Y-4.35
X7.05Y-4.65
X7.05Y-4.85
X7.1Y-3.9
X7.195Y-4.005
X7.2Y-2.9
X7.2Y-3.3
X7.2Y-3.625
X7.2Y-3.9215
X7.275Y-3.85
X7.47Y-4.28
X7.475Y-4.05
X7.5Y-2.9
X7.5Y-3.1
X7.5Y-3.3
X7.5Y-3.5
X7.5Y-3.8
X7.5Y-4.175
X7.575Y-4.85
X7.58Y-4.705
X7.59Y-4.42
X7.59Y-4.58
X7.6Y-4.2
X7.65Y-4.025
X7.6536Y-4.2536
X7.675Y-4.325
X7.73Y-4.24
X7.75Y-4.415
X7.765Y-4.575
X7.785Y-4.69
X7.8Y-2.9
X7.8Y-3.1
X7.8Y-3.3
X7.8Y-3.5
X7.8Y-3.8
X7.8Y-4.85
X7.845Y-4.33
X7.85Y-4.11
X8.065Y-4.475
X8.07Y-4.58
X8.075Y-4.1
X8.075Y-4.77
X8.08Y-4.375
X8.085Y-4.265
X8.09Y-3.435
X8.09Y-3.925
X8.095Y-3.78
X8.1Y-2.95
X8.1Y-3.3
X8.35Y-3.15
X8.35Y-3.3
X8.35Y-3.55
X8.43Y-4.575
X8.44Y-4.67
X8.5224Y-4.5974
X8.55Y-4.075
X8.565Y-4.27
X8.565Y-4.37
X8.565Y-4.5
X8.565Y-4.775
X8.57Y-3.66
X8.57Y-3.78
X8.57Y-3.865
X8.57Y-4.16
X8.575Y-3.985
X8.6Y-2.9
X8.6Y-3.3
X8.6Y-3.55
X8.63Y-4.66
X8.845Y-4.435
X8.85Y-3.225
X8.855Y-4.2925
X8.855Y-4.35
X8.865Y-3.88
X8.87Y-3.71
X8.87Y-4.55
X8.87Y-4.67
X8.87Y-4.77
X8.875Y-3.45
X8.95Y-3.965
X8.95Y-4.4
X8.98Y-4.77
X9.0Y-2.95
X9.0Y-4.075
X9.025Y-3.45
X9.025Y-3.88
X9.03Y-3.705
X9.04Y-4.57
X9.05Y-3.625
X9.07Y-4.132
X9.0743Y-4.0556
X9.1Y-3.1
X9.12Y-4.17
X9.125Y-3.625
X9.125Y-4.675
X9.15Y-3.55
X9.15Y-3.725
X9.15Y-4.0
X9.15Y-4.35
X9.15Y-4.43
X9.175Y-2.825
X9.18Y-4.24
X9.1942Y-4.0538
X9.2126Y-4.1535
X9.225Y-4.4
X9.25Y-3.9
X9.275Y-4.225
X9.275Y-4.35
X9.28Y-4.47
X9.28Y-4.75
X9.2825Y-4.0175
X9.3Y-3.1
X9.3Y-3.3
X9.3Y-3.5
X9.3Y-4.1
X9.3075Y-4.2575
X9.311Y-4.1535
X9.35Y-3.8
X9.3504Y-4.3307
X9.375Y-4.0
X9.4Y-3.7
X9.4Y-4.35
X9.42Y-4.47
X9.4291Y-4.252
X9.43Y-4.575
X9.45Y-3.85
X9.45Y-3.95
X9.475Y-4.3
X9.5Y-2.9
X9.51Y-4.65
X9.525Y-4.85
X9.625Y-4.75
X9.6535Y-4.4
X9.675Y-3.9
X9.695Y-3.42
X9.7Y-2.9
X9.7Y-3.1
X9.7Y-3.3
X9.705Y-3.785
X9.705Y-4.165
X9.705Y-4.315
X9.75Y-3.675
X9.75Y-4.0
X9.775Y-4.475
X9.775Y-4.695
X9.775Y-4.85
X9.8Y-4.1
X9.8622Y-3.6811
X9.925Y-3.95
X10.1Y-4.075
X10.125Y-3.775
X10.125Y-4.475
X10.125Y-4.85
T2
X9.7228Y-4.7441
X9.8228Y-3.8441
X9.8228Y-4.7441
X9.9228Y-3.8441
X9.9228Y-4.7441
X10.0228Y-3.8441
X10.0228Y-4.7441
X10.1228Y-4.7441
T3
X6.5638Y-3.189
X6.6426Y-3.189
X6.7212Y-3.189
X6.8Y-3.189
T4
X6.35Y-3.65
X6.35Y-3.75
X6.35Y-3.85
X6.35Y-3.95
X8.7Y-2.453
X8.7Y-2.553
X8.7Y-2.653
X9.175Y-2.9016
X9.175Y-3.0
X9.55Y-3.15
X9.55Y-3.25
X9.55Y-3.35
X9.55Y-3.45
X9.55Y-3.55
X9.55Y-3.65
X9.55Y-3.75
X9.55Y-3.85
X9.55Y-3.95
X9.55Y-4.05
X9.55Y-4.15
X9.55Y-4.25
X9.55Y-4.35
X9.55Y-4.45
T5
X7.0362Y-3.248
X7.1347Y-3.248
X7.2331Y-3.248
X8.95Y-3.2147
X8.95Y-3.3131
X8.95Y-3.4116
X8.95Y-3.51
X9.8Y-2.442
X9.8Y-2.5404
X9.8Y-2.6389
T6
X7.9921Y-2.8748
X7.9921Y-2.9748
X7.9921Y-3.0748
X7.9921Y-3.1748
X7.9921Y-3.2748
X7.9921Y-3.3748
X7.9921Y-3.4748
X7.9921Y-3.5748
X7.9921Y-3.6748
X7.9921Y-3.7748
X7.9921Y-3.8748
X7.9921Y-3.9748
X7.9921Y-4.0748
X7.9921Y-4.1748
X7.9921Y-4.2748
X7.9921Y-4.3748
X7.9921Y-4.4748
X7.9921Y-4.5748
X7.9921Y-4.6748
X7.9921Y-4.7748
X8.2421Y-4.7657
X8.3421Y-4.7657
X8.4421Y-4.7657
X8.6921Y-2.8748
X8.6921Y-2.9748
X8.6921Y-3.0748
X8.6921Y-3.1748
X8.6921Y-3.2748
X8.6921Y-3.3748
X8.6921Y-3.4748
X8.6921Y-3.5748
X8.6921Y-3.6748
X8.6921Y-3.7748
X8.6921Y-3.8748
X8.6921Y-3.9748
X8.6921Y-4.0748
X8.6921Y-4.1748
X8.6921Y-4.2748
X8.6921Y-4.3748
X8.6921Y-4.4748
X8.6921Y-4.5748
X8.6921Y-4.6748
X8.6921Y-4.7748
T7
X7.2191Y-4.5114
X7.2191Y-4.6886
X7.475Y-4.5114
X7.475Y-4.6886
T8
X9.375Y-2.545
M30
