%TF.GenerationSoftware,KiCad,Pcbnew,8.0.5*%
%TF.CreationDate,2024-10-04T09:52:44+09:00*%
%TF.ProjectId,UI__,5549fa7f-2e6b-4696-9361-645f70636258,rev?*%
%TF.SameCoordinates,Original*%
%TF.FileFunction,Legend,Top*%
%TF.FilePolarity,Positive*%
%FSLAX46Y46*%
G04 Gerber Fmt 4.6, Leading zero omitted, Abs format (unit mm)*
G04 Created by KiCad (PCBNEW 8.0.5) date 2024-10-04 09:52:44*
%MOMM*%
%LPD*%
G01*
G04 APERTURE LIST*
G04 Aperture macros list*
%AMRoundRect*
0 Rectangle with rounded corners*
0 $1 Rounding radius*
0 $2 $3 $4 $5 $6 $7 $8 $9 X,Y pos of 4 corners*
0 Add a 4 corners polygon primitive as box body*
4,1,4,$2,$3,$4,$5,$6,$7,$8,$9,$2,$3,0*
0 Add four circle primitives for the rounded corners*
1,1,$1+$1,$2,$3*
1,1,$1+$1,$4,$5*
1,1,$1+$1,$6,$7*
1,1,$1+$1,$8,$9*
0 Add four rect primitives between the rounded corners*
20,1,$1+$1,$2,$3,$4,$5,0*
20,1,$1+$1,$4,$5,$6,$7,0*
20,1,$1+$1,$6,$7,$8,$9,0*
20,1,$1+$1,$8,$9,$2,$3,0*%
G04 Aperture macros list end*
%ADD10C,0.150000*%
%ADD11C,0.100000*%
%ADD12C,0.120000*%
%ADD13C,0.200000*%
%ADD14RoundRect,0.250000X0.725000X-0.600000X0.725000X0.600000X-0.725000X0.600000X-0.725000X-0.600000X0*%
%ADD15O,1.950000X1.700000*%
%ADD16RoundRect,0.237500X0.300000X0.237500X-0.300000X0.237500X-0.300000X-0.237500X0.300000X-0.237500X0*%
%ADD17O,3.000000X1.500000*%
%ADD18C,1.524000*%
%ADD19C,5.600000*%
%ADD20RoundRect,0.237500X-0.300000X-0.237500X0.300000X-0.237500X0.300000X0.237500X-0.300000X0.237500X0*%
%ADD21RoundRect,0.237500X0.250000X0.237500X-0.250000X0.237500X-0.250000X-0.237500X0.250000X-0.237500X0*%
%ADD22RoundRect,0.237500X-0.250000X-0.237500X0.250000X-0.237500X0.250000X0.237500X-0.250000X0.237500X0*%
%ADD23O,1.800000X1.800000*%
%ADD24O,1.500000X1.500000*%
%ADD25O,1.700000X1.700000*%
%ADD26R,1.700000X1.700000*%
%ADD27C,2.000000*%
%ADD28RoundRect,0.250000X-0.600000X-0.725000X0.600000X-0.725000X0.600000X0.725000X-0.600000X0.725000X0*%
%ADD29O,1.700000X1.950000*%
%ADD30R,1.600000X1.600000*%
%ADD31C,1.600000*%
%ADD32RoundRect,0.250000X-0.725000X0.600000X-0.725000X-0.600000X0.725000X-0.600000X0.725000X0.600000X0*%
%ADD33R,1.270000X1.270000*%
%ADD34C,1.270000*%
G04 APERTURE END LIST*
D10*
X233680000Y-70993000D02*
X247015000Y-70993000D01*
X233680000Y-69977000D02*
X247015000Y-69977000D01*
X244874819Y-64860133D02*
X245589104Y-64860133D01*
X245589104Y-64860133D02*
X245731961Y-64907752D01*
X245731961Y-64907752D02*
X245827200Y-65002990D01*
X245827200Y-65002990D02*
X245874819Y-65145847D01*
X245874819Y-65145847D02*
X245874819Y-65241085D01*
X244970057Y-64431561D02*
X244922438Y-64383942D01*
X244922438Y-64383942D02*
X244874819Y-64288704D01*
X244874819Y-64288704D02*
X244874819Y-64050609D01*
X244874819Y-64050609D02*
X244922438Y-63955371D01*
X244922438Y-63955371D02*
X244970057Y-63907752D01*
X244970057Y-63907752D02*
X245065295Y-63860133D01*
X245065295Y-63860133D02*
X245160533Y-63860133D01*
X245160533Y-63860133D02*
X245303390Y-63907752D01*
X245303390Y-63907752D02*
X245874819Y-64479180D01*
X245874819Y-64479180D02*
X245874819Y-63860133D01*
X247833333Y-95359580D02*
X247785714Y-95407200D01*
X247785714Y-95407200D02*
X247642857Y-95454819D01*
X247642857Y-95454819D02*
X247547619Y-95454819D01*
X247547619Y-95454819D02*
X247404762Y-95407200D01*
X247404762Y-95407200D02*
X247309524Y-95311961D01*
X247309524Y-95311961D02*
X247261905Y-95216723D01*
X247261905Y-95216723D02*
X247214286Y-95026247D01*
X247214286Y-95026247D02*
X247214286Y-94883390D01*
X247214286Y-94883390D02*
X247261905Y-94692914D01*
X247261905Y-94692914D02*
X247309524Y-94597676D01*
X247309524Y-94597676D02*
X247404762Y-94502438D01*
X247404762Y-94502438D02*
X247547619Y-94454819D01*
X247547619Y-94454819D02*
X247642857Y-94454819D01*
X247642857Y-94454819D02*
X247785714Y-94502438D01*
X247785714Y-94502438D02*
X247833333Y-94550057D01*
X248690476Y-94788152D02*
X248690476Y-95454819D01*
X248452381Y-94407200D02*
X248214286Y-95121485D01*
X248214286Y-95121485D02*
X248833333Y-95121485D01*
X211544819Y-96011904D02*
X212354342Y-96011904D01*
X212354342Y-96011904D02*
X212449580Y-95964285D01*
X212449580Y-95964285D02*
X212497200Y-95916666D01*
X212497200Y-95916666D02*
X212544819Y-95821428D01*
X212544819Y-95821428D02*
X212544819Y-95630952D01*
X212544819Y-95630952D02*
X212497200Y-95535714D01*
X212497200Y-95535714D02*
X212449580Y-95488095D01*
X212449580Y-95488095D02*
X212354342Y-95440476D01*
X212354342Y-95440476D02*
X211544819Y-95440476D01*
X212544819Y-94440476D02*
X212544819Y-95011904D01*
X212544819Y-94726190D02*
X211544819Y-94726190D01*
X211544819Y-94726190D02*
X211687676Y-94821428D01*
X211687676Y-94821428D02*
X211782914Y-94916666D01*
X211782914Y-94916666D02*
X211830533Y-95011904D01*
X194497438Y-110631144D02*
X194497438Y-109488287D01*
X196497438Y-110059716D02*
X194497438Y-110059716D01*
X195449819Y-108154953D02*
X195449819Y-108821620D01*
X196497438Y-108821620D02*
X194497438Y-108821620D01*
X194497438Y-108821620D02*
X194497438Y-107869239D01*
X194497438Y-107393048D02*
X194497438Y-106250191D01*
X196497438Y-106821620D02*
X194497438Y-106821620D01*
X194497438Y-104250190D02*
X194497438Y-103012095D01*
X194497438Y-103012095D02*
X195259342Y-103678762D01*
X195259342Y-103678762D02*
X195259342Y-103393047D01*
X195259342Y-103393047D02*
X195354580Y-103202571D01*
X195354580Y-103202571D02*
X195449819Y-103107333D01*
X195449819Y-103107333D02*
X195640295Y-103012095D01*
X195640295Y-103012095D02*
X196116485Y-103012095D01*
X196116485Y-103012095D02*
X196306961Y-103107333D01*
X196306961Y-103107333D02*
X196402200Y-103202571D01*
X196402200Y-103202571D02*
X196497438Y-103393047D01*
X196497438Y-103393047D02*
X196497438Y-103964476D01*
X196497438Y-103964476D02*
X196402200Y-104154952D01*
X196402200Y-104154952D02*
X196306961Y-104250190D01*
X194687914Y-102250190D02*
X194592676Y-102154952D01*
X194592676Y-102154952D02*
X194497438Y-101964476D01*
X194497438Y-101964476D02*
X194497438Y-101488285D01*
X194497438Y-101488285D02*
X194592676Y-101297809D01*
X194592676Y-101297809D02*
X194687914Y-101202571D01*
X194687914Y-101202571D02*
X194878390Y-101107333D01*
X194878390Y-101107333D02*
X195068866Y-101107333D01*
X195068866Y-101107333D02*
X195354580Y-101202571D01*
X195354580Y-101202571D02*
X196497438Y-102345428D01*
X196497438Y-102345428D02*
X196497438Y-101107333D01*
X194497438Y-99869238D02*
X194497438Y-99678761D01*
X194497438Y-99678761D02*
X194592676Y-99488285D01*
X194592676Y-99488285D02*
X194687914Y-99393047D01*
X194687914Y-99393047D02*
X194878390Y-99297809D01*
X194878390Y-99297809D02*
X195259342Y-99202571D01*
X195259342Y-99202571D02*
X195735533Y-99202571D01*
X195735533Y-99202571D02*
X196116485Y-99297809D01*
X196116485Y-99297809D02*
X196306961Y-99393047D01*
X196306961Y-99393047D02*
X196402200Y-99488285D01*
X196402200Y-99488285D02*
X196497438Y-99678761D01*
X196497438Y-99678761D02*
X196497438Y-99869238D01*
X196497438Y-99869238D02*
X196402200Y-100059714D01*
X196402200Y-100059714D02*
X196306961Y-100154952D01*
X196306961Y-100154952D02*
X196116485Y-100250190D01*
X196116485Y-100250190D02*
X195735533Y-100345428D01*
X195735533Y-100345428D02*
X195259342Y-100345428D01*
X195259342Y-100345428D02*
X194878390Y-100250190D01*
X194878390Y-100250190D02*
X194687914Y-100154952D01*
X194687914Y-100154952D02*
X194592676Y-100059714D01*
X194592676Y-100059714D02*
X194497438Y-99869238D01*
X196497438Y-98535904D02*
X195164104Y-97488285D01*
X195164104Y-98535904D02*
X196497438Y-97488285D01*
X194687914Y-96821618D02*
X194592676Y-96726380D01*
X194592676Y-96726380D02*
X194497438Y-96535904D01*
X194497438Y-96535904D02*
X194497438Y-96059713D01*
X194497438Y-96059713D02*
X194592676Y-95869237D01*
X194592676Y-95869237D02*
X194687914Y-95773999D01*
X194687914Y-95773999D02*
X194878390Y-95678761D01*
X194878390Y-95678761D02*
X195068866Y-95678761D01*
X195068866Y-95678761D02*
X195354580Y-95773999D01*
X195354580Y-95773999D02*
X196497438Y-96916856D01*
X196497438Y-96916856D02*
X196497438Y-95678761D01*
X195164104Y-93964475D02*
X196497438Y-93964475D01*
X194402200Y-94440666D02*
X195830771Y-94916856D01*
X195830771Y-94916856D02*
X195830771Y-93678761D01*
X194497438Y-92535904D02*
X194497438Y-92345427D01*
X194497438Y-92345427D02*
X194592676Y-92154951D01*
X194592676Y-92154951D02*
X194687914Y-92059713D01*
X194687914Y-92059713D02*
X194878390Y-91964475D01*
X194878390Y-91964475D02*
X195259342Y-91869237D01*
X195259342Y-91869237D02*
X195735533Y-91869237D01*
X195735533Y-91869237D02*
X196116485Y-91964475D01*
X196116485Y-91964475D02*
X196306961Y-92059713D01*
X196306961Y-92059713D02*
X196402200Y-92154951D01*
X196402200Y-92154951D02*
X196497438Y-92345427D01*
X196497438Y-92345427D02*
X196497438Y-92535904D01*
X196497438Y-92535904D02*
X196402200Y-92726380D01*
X196402200Y-92726380D02*
X196306961Y-92821618D01*
X196306961Y-92821618D02*
X196116485Y-92916856D01*
X196116485Y-92916856D02*
X195735533Y-93012094D01*
X195735533Y-93012094D02*
X195259342Y-93012094D01*
X195259342Y-93012094D02*
X194878390Y-92916856D01*
X194878390Y-92916856D02*
X194687914Y-92821618D01*
X194687914Y-92821618D02*
X194592676Y-92726380D01*
X194592676Y-92726380D02*
X194497438Y-92535904D01*
X196402200Y-90916856D02*
X196497438Y-90916856D01*
X196497438Y-90916856D02*
X196687914Y-91012094D01*
X196687914Y-91012094D02*
X196783152Y-91107332D01*
X194687914Y-88631141D02*
X194592676Y-88535903D01*
X194592676Y-88535903D02*
X194497438Y-88345427D01*
X194497438Y-88345427D02*
X194497438Y-87869236D01*
X194497438Y-87869236D02*
X194592676Y-87678760D01*
X194592676Y-87678760D02*
X194687914Y-87583522D01*
X194687914Y-87583522D02*
X194878390Y-87488284D01*
X194878390Y-87488284D02*
X195068866Y-87488284D01*
X195068866Y-87488284D02*
X195354580Y-87583522D01*
X195354580Y-87583522D02*
X196497438Y-88726379D01*
X196497438Y-88726379D02*
X196497438Y-87488284D01*
X196306961Y-86631141D02*
X196402200Y-86535903D01*
X196402200Y-86535903D02*
X196497438Y-86631141D01*
X196497438Y-86631141D02*
X196402200Y-86726379D01*
X196402200Y-86726379D02*
X196306961Y-86631141D01*
X196306961Y-86631141D02*
X196497438Y-86631141D01*
X195354580Y-85393046D02*
X195259342Y-85583522D01*
X195259342Y-85583522D02*
X195164104Y-85678760D01*
X195164104Y-85678760D02*
X194973628Y-85773998D01*
X194973628Y-85773998D02*
X194878390Y-85773998D01*
X194878390Y-85773998D02*
X194687914Y-85678760D01*
X194687914Y-85678760D02*
X194592676Y-85583522D01*
X194592676Y-85583522D02*
X194497438Y-85393046D01*
X194497438Y-85393046D02*
X194497438Y-85012093D01*
X194497438Y-85012093D02*
X194592676Y-84821617D01*
X194592676Y-84821617D02*
X194687914Y-84726379D01*
X194687914Y-84726379D02*
X194878390Y-84631141D01*
X194878390Y-84631141D02*
X194973628Y-84631141D01*
X194973628Y-84631141D02*
X195164104Y-84726379D01*
X195164104Y-84726379D02*
X195259342Y-84821617D01*
X195259342Y-84821617D02*
X195354580Y-85012093D01*
X195354580Y-85012093D02*
X195354580Y-85393046D01*
X195354580Y-85393046D02*
X195449819Y-85583522D01*
X195449819Y-85583522D02*
X195545057Y-85678760D01*
X195545057Y-85678760D02*
X195735533Y-85773998D01*
X195735533Y-85773998D02*
X196116485Y-85773998D01*
X196116485Y-85773998D02*
X196306961Y-85678760D01*
X196306961Y-85678760D02*
X196402200Y-85583522D01*
X196402200Y-85583522D02*
X196497438Y-85393046D01*
X196497438Y-85393046D02*
X196497438Y-85012093D01*
X196497438Y-85012093D02*
X196402200Y-84821617D01*
X196402200Y-84821617D02*
X196306961Y-84726379D01*
X196306961Y-84726379D02*
X196116485Y-84631141D01*
X196116485Y-84631141D02*
X195735533Y-84631141D01*
X195735533Y-84631141D02*
X195545057Y-84726379D01*
X195545057Y-84726379D02*
X195449819Y-84821617D01*
X195449819Y-84821617D02*
X195354580Y-85012093D01*
X194497438Y-83869236D02*
X194878390Y-83869236D01*
X194497438Y-83107331D02*
X194878390Y-83107331D01*
D11*
X253754285Y-123106390D02*
X253420952Y-123106390D01*
X253278095Y-122582580D02*
X253754285Y-122582580D01*
X253754285Y-122582580D02*
X253754285Y-123582580D01*
X253754285Y-123582580D02*
X253278095Y-123582580D01*
X252849523Y-122582580D02*
X252849523Y-123582580D01*
X252849523Y-123582580D02*
X252278095Y-122582580D01*
X252278095Y-122582580D02*
X252278095Y-123582580D01*
X251230476Y-122677819D02*
X251278095Y-122630200D01*
X251278095Y-122630200D02*
X251420952Y-122582580D01*
X251420952Y-122582580D02*
X251516190Y-122582580D01*
X251516190Y-122582580D02*
X251659047Y-122630200D01*
X251659047Y-122630200D02*
X251754285Y-122725438D01*
X251754285Y-122725438D02*
X251801904Y-122820676D01*
X251801904Y-122820676D02*
X251849523Y-123011152D01*
X251849523Y-123011152D02*
X251849523Y-123154009D01*
X251849523Y-123154009D02*
X251801904Y-123344485D01*
X251801904Y-123344485D02*
X251754285Y-123439723D01*
X251754285Y-123439723D02*
X251659047Y-123534961D01*
X251659047Y-123534961D02*
X251516190Y-123582580D01*
X251516190Y-123582580D02*
X251420952Y-123582580D01*
X251420952Y-123582580D02*
X251278095Y-123534961D01*
X251278095Y-123534961D02*
X251230476Y-123487342D01*
X250278095Y-122582580D02*
X250849523Y-122582580D01*
X250563809Y-122582580D02*
X250563809Y-123582580D01*
X250563809Y-123582580D02*
X250659047Y-123439723D01*
X250659047Y-123439723D02*
X250754285Y-123344485D01*
X250754285Y-123344485D02*
X250849523Y-123296866D01*
D10*
X256833333Y-95359580D02*
X256785714Y-95407200D01*
X256785714Y-95407200D02*
X256642857Y-95454819D01*
X256642857Y-95454819D02*
X256547619Y-95454819D01*
X256547619Y-95454819D02*
X256404762Y-95407200D01*
X256404762Y-95407200D02*
X256309524Y-95311961D01*
X256309524Y-95311961D02*
X256261905Y-95216723D01*
X256261905Y-95216723D02*
X256214286Y-95026247D01*
X256214286Y-95026247D02*
X256214286Y-94883390D01*
X256214286Y-94883390D02*
X256261905Y-94692914D01*
X256261905Y-94692914D02*
X256309524Y-94597676D01*
X256309524Y-94597676D02*
X256404762Y-94502438D01*
X256404762Y-94502438D02*
X256547619Y-94454819D01*
X256547619Y-94454819D02*
X256642857Y-94454819D01*
X256642857Y-94454819D02*
X256785714Y-94502438D01*
X256785714Y-94502438D02*
X256833333Y-94550057D01*
X257166667Y-94454819D02*
X257785714Y-94454819D01*
X257785714Y-94454819D02*
X257452381Y-94835771D01*
X257452381Y-94835771D02*
X257595238Y-94835771D01*
X257595238Y-94835771D02*
X257690476Y-94883390D01*
X257690476Y-94883390D02*
X257738095Y-94931009D01*
X257738095Y-94931009D02*
X257785714Y-95026247D01*
X257785714Y-95026247D02*
X257785714Y-95264342D01*
X257785714Y-95264342D02*
X257738095Y-95359580D01*
X257738095Y-95359580D02*
X257690476Y-95407200D01*
X257690476Y-95407200D02*
X257595238Y-95454819D01*
X257595238Y-95454819D02*
X257309524Y-95454819D01*
X257309524Y-95454819D02*
X257214286Y-95407200D01*
X257214286Y-95407200D02*
X257166667Y-95359580D01*
D11*
X222313332Y-68746400D02*
X222170475Y-68698780D01*
X222170475Y-68698780D02*
X221932380Y-68698780D01*
X221932380Y-68698780D02*
X221837142Y-68746400D01*
X221837142Y-68746400D02*
X221789523Y-68794019D01*
X221789523Y-68794019D02*
X221741904Y-68889257D01*
X221741904Y-68889257D02*
X221741904Y-68984495D01*
X221741904Y-68984495D02*
X221789523Y-69079733D01*
X221789523Y-69079733D02*
X221837142Y-69127352D01*
X221837142Y-69127352D02*
X221932380Y-69174971D01*
X221932380Y-69174971D02*
X222122856Y-69222590D01*
X222122856Y-69222590D02*
X222218094Y-69270209D01*
X222218094Y-69270209D02*
X222265713Y-69317828D01*
X222265713Y-69317828D02*
X222313332Y-69413066D01*
X222313332Y-69413066D02*
X222313332Y-69508304D01*
X222313332Y-69508304D02*
X222265713Y-69603542D01*
X222265713Y-69603542D02*
X222218094Y-69651161D01*
X222218094Y-69651161D02*
X222122856Y-69698780D01*
X222122856Y-69698780D02*
X221884761Y-69698780D01*
X221884761Y-69698780D02*
X221741904Y-69651161D01*
X221408570Y-69698780D02*
X221170475Y-68698780D01*
X221170475Y-68698780D02*
X220979999Y-69413066D01*
X220979999Y-69413066D02*
X220789523Y-68698780D01*
X220789523Y-68698780D02*
X220551428Y-69698780D01*
X220218094Y-69603542D02*
X220170475Y-69651161D01*
X220170475Y-69651161D02*
X220075237Y-69698780D01*
X220075237Y-69698780D02*
X219837142Y-69698780D01*
X219837142Y-69698780D02*
X219741904Y-69651161D01*
X219741904Y-69651161D02*
X219694285Y-69603542D01*
X219694285Y-69603542D02*
X219646666Y-69508304D01*
X219646666Y-69508304D02*
X219646666Y-69413066D01*
X219646666Y-69413066D02*
X219694285Y-69270209D01*
X219694285Y-69270209D02*
X220265713Y-68698780D01*
X220265713Y-68698780D02*
X219646666Y-68698780D01*
D10*
X253833333Y-93884819D02*
X253500000Y-93408628D01*
X253261905Y-93884819D02*
X253261905Y-92884819D01*
X253261905Y-92884819D02*
X253642857Y-92884819D01*
X253642857Y-92884819D02*
X253738095Y-92932438D01*
X253738095Y-92932438D02*
X253785714Y-92980057D01*
X253785714Y-92980057D02*
X253833333Y-93075295D01*
X253833333Y-93075295D02*
X253833333Y-93218152D01*
X253833333Y-93218152D02*
X253785714Y-93313390D01*
X253785714Y-93313390D02*
X253738095Y-93361009D01*
X253738095Y-93361009D02*
X253642857Y-93408628D01*
X253642857Y-93408628D02*
X253261905Y-93408628D01*
X254690476Y-93218152D02*
X254690476Y-93884819D01*
X254452381Y-92837200D02*
X254214286Y-93551485D01*
X254214286Y-93551485D02*
X254833333Y-93551485D01*
X250333333Y-93954819D02*
X250000000Y-93478628D01*
X249761905Y-93954819D02*
X249761905Y-92954819D01*
X249761905Y-92954819D02*
X250142857Y-92954819D01*
X250142857Y-92954819D02*
X250238095Y-93002438D01*
X250238095Y-93002438D02*
X250285714Y-93050057D01*
X250285714Y-93050057D02*
X250333333Y-93145295D01*
X250333333Y-93145295D02*
X250333333Y-93288152D01*
X250333333Y-93288152D02*
X250285714Y-93383390D01*
X250285714Y-93383390D02*
X250238095Y-93431009D01*
X250238095Y-93431009D02*
X250142857Y-93478628D01*
X250142857Y-93478628D02*
X249761905Y-93478628D01*
X251238095Y-92954819D02*
X250761905Y-92954819D01*
X250761905Y-92954819D02*
X250714286Y-93431009D01*
X250714286Y-93431009D02*
X250761905Y-93383390D01*
X250761905Y-93383390D02*
X250857143Y-93335771D01*
X250857143Y-93335771D02*
X251095238Y-93335771D01*
X251095238Y-93335771D02*
X251190476Y-93383390D01*
X251190476Y-93383390D02*
X251238095Y-93431009D01*
X251238095Y-93431009D02*
X251285714Y-93526247D01*
X251285714Y-93526247D02*
X251285714Y-93764342D01*
X251285714Y-93764342D02*
X251238095Y-93859580D01*
X251238095Y-93859580D02*
X251190476Y-93907200D01*
X251190476Y-93907200D02*
X251095238Y-93954819D01*
X251095238Y-93954819D02*
X250857143Y-93954819D01*
X250857143Y-93954819D02*
X250761905Y-93907200D01*
X250761905Y-93907200D02*
X250714286Y-93859580D01*
D12*
%TO.C,J2*%
X246510000Y-59466800D02*
X246510000Y-60886800D01*
X246510000Y-60886800D02*
X251010000Y-60886800D01*
X246510000Y-68166800D02*
X251010000Y-68166800D01*
X246510000Y-69586800D02*
X246510000Y-68166800D01*
X246820000Y-66726800D02*
X247420000Y-67026800D01*
X246820000Y-67326800D02*
X246820000Y-66726800D01*
X247420000Y-67026800D02*
X246820000Y-67326800D01*
X251010000Y-60886800D02*
X251010000Y-64526800D01*
X251010000Y-68166800D02*
X251010000Y-64526800D01*
X252120000Y-61776800D02*
X252120000Y-62276800D01*
X252120000Y-62276800D02*
X257620000Y-62276800D01*
X252120000Y-64276800D02*
X252120000Y-64776800D01*
X252120000Y-64776800D02*
X257620000Y-64776800D01*
X252120000Y-66776800D02*
X252120000Y-67276800D01*
X252120000Y-67276800D02*
X257620000Y-67276800D01*
X257620000Y-61776800D02*
X252120000Y-61776800D01*
X257620000Y-62276800D02*
X257620000Y-61776800D01*
X257620000Y-64276800D02*
X252120000Y-64276800D01*
X257620000Y-64776800D02*
X257620000Y-64276800D01*
X257620000Y-66776800D02*
X252120000Y-66776800D01*
X257620000Y-67276800D02*
X257620000Y-66776800D01*
X258230000Y-59466800D02*
X246510000Y-59466800D01*
X258230000Y-64526800D02*
X258230000Y-59466800D01*
X258230000Y-64526800D02*
X258230000Y-69586800D01*
X258230000Y-69586800D02*
X246510000Y-69586800D01*
%TO.C,C4*%
X250646267Y-94490000D02*
X250353733Y-94490000D01*
X250646267Y-95510000D02*
X250353733Y-95510000D01*
%TO.C,U1*%
X157480000Y-71120000D02*
X157480000Y-121920000D01*
X157480000Y-121920000D02*
X246380000Y-121920000D01*
X165354000Y-121920000D02*
X165354000Y-71120000D01*
X233680000Y-121920000D02*
X233680000Y-71120000D01*
X240316000Y-114280000D02*
X240316000Y-78760000D01*
X240570000Y-78760000D02*
X244570000Y-78760000D01*
X240570000Y-111760000D02*
X244570000Y-111760000D01*
X244570000Y-78760000D02*
X244570000Y-114280000D01*
X244570000Y-114280000D02*
X240570000Y-114280000D01*
X246380000Y-71120000D02*
X157480000Y-71120000D01*
X246380000Y-121920000D02*
X246380000Y-71120000D01*
D11*
X160020000Y-101600000D02*
X162560000Y-101600000D01*
X162560000Y-91440000D01*
X160020000Y-91440000D01*
X160020000Y-101600000D01*
D12*
X163086051Y-74422000D02*
G75*
G02*
X159493949Y-74422000I-1796051J0D01*
G01*
X159493949Y-74422000D02*
G75*
G02*
X163086051Y-74422000I1796051J0D01*
G01*
X163086051Y-118364000D02*
G75*
G02*
X159493949Y-118364000I-1796051J0D01*
G01*
X159493949Y-118364000D02*
G75*
G02*
X163086051Y-118364000I1796051J0D01*
G01*
X239667051Y-74295000D02*
G75*
G02*
X236074949Y-74295000I-1796051J0D01*
G01*
X236074949Y-74295000D02*
G75*
G02*
X239667051Y-74295000I1796051J0D01*
G01*
X239667051Y-118745000D02*
G75*
G02*
X236074949Y-118745000I-1796051J0D01*
G01*
X236074949Y-118745000D02*
G75*
G02*
X239667051Y-118745000I1796051J0D01*
G01*
%TO.C,ENC1*%
D11*
X255850000Y-98910000D02*
X248230000Y-98910000D01*
X248230000Y-96370000D01*
X255850000Y-96370000D01*
X255850000Y-98910000D01*
D13*
X258390000Y-121770000D02*
X245690000Y-121770000D01*
X245690000Y-96370000D01*
X258390000Y-96370000D01*
X258390000Y-121770000D01*
D11*
X258390000Y-121770000D02*
X245690000Y-121770000D01*
X245690000Y-119230000D01*
X258390000Y-119230000D01*
X258390000Y-121770000D01*
X256740000Y-109679600D02*
G75*
G02*
X247340000Y-109679600I-4700000J0D01*
G01*
X247340000Y-109679600D02*
G75*
G02*
X256740000Y-109679600I4700000J0D01*
G01*
D12*
%TO.C,C3*%
X253853733Y-94490000D02*
X254146267Y-94490000D01*
X253853733Y-95510000D02*
X254146267Y-95510000D01*
%TO.C,SW2*%
D11*
X222250000Y-68656200D02*
X208280000Y-68656200D01*
X208280000Y-61036200D01*
X222250000Y-61036200D01*
X222250000Y-68656200D01*
X222250000Y-68656200D02*
X219710000Y-68656200D01*
X219710000Y-61036200D01*
X222250000Y-61036200D01*
X222250000Y-68656200D01*
X216952102Y-64846200D02*
G75*
G02*
X209767898Y-64846200I-3592102J0D01*
G01*
X209767898Y-64846200D02*
G75*
G02*
X216952102Y-64846200I3592102J0D01*
G01*
D12*
%TO.C,R4*%
X254254724Y-91477500D02*
X253745276Y-91477500D01*
X254254724Y-92522500D02*
X253745276Y-92522500D01*
%TO.C,R5*%
X250245276Y-91477500D02*
X250754724Y-91477500D01*
X250245276Y-92522500D02*
X250754724Y-92522500D01*
%TD*%
%LPC*%
D14*
%TO.C,J2*%
X248920000Y-67026800D03*
D15*
X248920000Y-64526800D03*
X248920000Y-62026800D03*
%TD*%
D16*
%TO.C,C4*%
X251362500Y-95000000D03*
X249637500Y-95000000D03*
%TD*%
D17*
%TO.C,U1*%
X242570000Y-113030000D03*
X242570000Y-110490000D03*
X242570000Y-107950000D03*
X242570000Y-105410000D03*
X242570000Y-102870000D03*
X242570000Y-100330000D03*
X242570000Y-97790000D03*
X242570000Y-95250000D03*
X242570000Y-92710000D03*
X242570000Y-90170000D03*
X242570000Y-87630000D03*
X242570000Y-85090000D03*
X242570000Y-82550000D03*
X242570000Y-80010000D03*
D18*
X161290000Y-100330000D03*
X161290000Y-97790000D03*
X161290000Y-95250000D03*
X161290000Y-92710000D03*
%TD*%
%TO.C,ENC1*%
X257120000Y-120500000D03*
X254580000Y-120500000D03*
X252040000Y-120500000D03*
X249500000Y-120500000D03*
X246960000Y-120500000D03*
X254580000Y-97640000D03*
X249500000Y-97640000D03*
X252040000Y-97640000D03*
%TD*%
D19*
%TO.C,REF\u002A\u002A*%
X238125000Y-64643000D03*
%TD*%
D20*
%TO.C,C3*%
X253137500Y-95000000D03*
X254862500Y-95000000D03*
%TD*%
D18*
%TO.C,SW2*%
X220980000Y-67386200D03*
X220980000Y-64846200D03*
X220980000Y-62306200D03*
%TD*%
D21*
%TO.C,R4*%
X254912500Y-92000000D03*
X253087500Y-92000000D03*
%TD*%
D22*
%TO.C,R5*%
X249587500Y-92000000D03*
X251412500Y-92000000D03*
%TD*%
D23*
%TO.C,U3*%
X214615000Y-73150000D03*
D24*
X214315000Y-76180000D03*
X209465000Y-76180000D03*
D23*
X209165000Y-73150000D03*
D25*
X220780000Y-73020000D03*
X220780000Y-75560000D03*
D26*
X220780000Y-78100000D03*
D25*
X220780000Y-80640000D03*
X220780000Y-83180000D03*
X220780000Y-85720000D03*
X220780000Y-88260000D03*
D26*
X220780000Y-90800000D03*
D25*
X220780000Y-93340000D03*
X220780000Y-95880000D03*
X220780000Y-98420000D03*
X220780000Y-100960000D03*
D26*
X220780000Y-103500000D03*
D25*
X220780000Y-106040000D03*
X220780000Y-108580000D03*
X220780000Y-111120000D03*
X220780000Y-113660000D03*
D26*
X220780000Y-116200000D03*
D25*
X220780000Y-118740000D03*
X220780000Y-121280000D03*
X203000000Y-121280000D03*
X203000000Y-118740000D03*
D26*
X203000000Y-116200000D03*
D25*
X203000000Y-113660000D03*
X203000000Y-111120000D03*
X203000000Y-108580000D03*
X203000000Y-106040000D03*
D26*
X203000000Y-103500000D03*
D25*
X203000000Y-100960000D03*
X203000000Y-98420000D03*
X203000000Y-95880000D03*
X203000000Y-93340000D03*
D26*
X203000000Y-90800000D03*
D25*
X203000000Y-88260000D03*
X203000000Y-85720000D03*
X203000000Y-83180000D03*
X203000000Y-80640000D03*
D26*
X203000000Y-78100000D03*
D25*
X203000000Y-75560000D03*
X203000000Y-73020000D03*
X214430000Y-121050000D03*
D26*
X211890000Y-121050000D03*
D25*
X209350000Y-121050000D03*
%TD*%
D27*
%TO.C,SW1*%
X189865000Y-114590000D03*
X183365000Y-114590000D03*
X189865000Y-119090000D03*
X183365000Y-119090000D03*
%TD*%
D28*
%TO.C,J4*%
X178720520Y-82500000D03*
D29*
X181220520Y-82500000D03*
X183720520Y-82500000D03*
%TD*%
D30*
%TO.C,C1*%
X233045000Y-73700000D03*
D31*
X233045000Y-76200000D03*
%TD*%
D32*
%TO.C,J1*%
X227330000Y-81654000D03*
D15*
X227330000Y-84154000D03*
X227330000Y-86654000D03*
X227330000Y-89154000D03*
%TD*%
D33*
%TO.C,J5*%
X172720000Y-81000120D03*
D34*
X170718480Y-81000000D03*
X168722040Y-81000000D03*
X166720520Y-81000000D03*
%TD*%
%LPD*%
M02*
