%TF.GenerationSoftware,KiCad,Pcbnew,8.0.5*%
%TF.CreationDate,2024-10-04T09:52:44+09:00*%
%TF.ProjectId,UI__,5549fa7f-2e6b-4696-9361-645f70636258,rev?*%
%TF.SameCoordinates,Original*%
%TF.FileFunction,Copper,L2,Bot*%
%TF.FilePolarity,Positive*%
%FSLAX46Y46*%
G04 Gerber Fmt 4.6, Leading zero omitted, Abs format (unit mm)*
G04 Created by KiCad (PCBNEW 8.0.5) date 2024-10-04 09:52:44*
%MOMM*%
%LPD*%
G01*
G04 APERTURE LIST*
G04 Aperture macros list*
%AMRoundRect*
0 Rectangle with rounded corners*
0 $1 Rounding radius*
0 $2 $3 $4 $5 $6 $7 $8 $9 X,Y pos of 4 corners*
0 Add a 4 corners polygon primitive as box body*
4,1,4,$2,$3,$4,$5,$6,$7,$8,$9,$2,$3,0*
0 Add four circle primitives for the rounded corners*
1,1,$1+$1,$2,$3*
1,1,$1+$1,$4,$5*
1,1,$1+$1,$6,$7*
1,1,$1+$1,$8,$9*
0 Add four rect primitives between the rounded corners*
20,1,$1+$1,$2,$3,$4,$5,0*
20,1,$1+$1,$4,$5,$6,$7,0*
20,1,$1+$1,$6,$7,$8,$9,0*
20,1,$1+$1,$8,$9,$2,$3,0*%
G04 Aperture macros list end*
%TA.AperFunction,ComponentPad*%
%ADD10RoundRect,0.250000X0.725000X-0.600000X0.725000X0.600000X-0.725000X0.600000X-0.725000X-0.600000X0*%
%TD*%
%TA.AperFunction,ComponentPad*%
%ADD11O,1.950000X1.700000*%
%TD*%
%TA.AperFunction,ComponentPad*%
%ADD12O,3.000000X1.500000*%
%TD*%
%TA.AperFunction,ComponentPad*%
%ADD13C,1.524000*%
%TD*%
%TA.AperFunction,ComponentPad*%
%ADD14C,5.600000*%
%TD*%
%TA.AperFunction,ComponentPad*%
%ADD15O,1.700000X1.700000*%
%TD*%
%TA.AperFunction,SMDPad,CuDef*%
%ADD16R,3.500000X1.700000*%
%TD*%
%TA.AperFunction,ComponentPad*%
%ADD17R,1.700000X1.700000*%
%TD*%
%TA.AperFunction,SMDPad,CuDef*%
%ADD18R,1.700000X3.500000*%
%TD*%
%TA.AperFunction,SMDPad,CuDef*%
%ADD19RoundRect,0.237500X-0.237500X0.250000X-0.237500X-0.250000X0.237500X-0.250000X0.237500X0.250000X0*%
%TD*%
%TA.AperFunction,ComponentPad*%
%ADD20C,2.000000*%
%TD*%
%TA.AperFunction,ComponentPad*%
%ADD21RoundRect,0.250000X-0.600000X-0.725000X0.600000X-0.725000X0.600000X0.725000X-0.600000X0.725000X0*%
%TD*%
%TA.AperFunction,ComponentPad*%
%ADD22O,1.700000X1.950000*%
%TD*%
%TA.AperFunction,ComponentPad*%
%ADD23R,1.600000X1.600000*%
%TD*%
%TA.AperFunction,ComponentPad*%
%ADD24C,1.600000*%
%TD*%
%TA.AperFunction,ComponentPad*%
%ADD25RoundRect,0.250000X-0.725000X0.600000X-0.725000X-0.600000X0.725000X-0.600000X0.725000X0.600000X0*%
%TD*%
%TA.AperFunction,ComponentPad*%
%ADD26R,1.270000X1.270000*%
%TD*%
%TA.AperFunction,ComponentPad*%
%ADD27C,1.270000*%
%TD*%
%TA.AperFunction,ViaPad*%
%ADD28C,0.800000*%
%TD*%
%TA.AperFunction,Conductor*%
%ADD29C,0.250000*%
%TD*%
G04 APERTURE END LIST*
D10*
%TO.P,J2,1,Pin_1*%
%TO.N,Net-(J2-Pin_1)*%
X248920000Y-67026800D03*
D11*
%TO.P,J2,2,Pin_2*%
%TO.N,Net-(J2-Pin_2)*%
X248920000Y-64526800D03*
%TO.P,J2,3,Pin_3*%
%TO.N,GND*%
X248920000Y-62026800D03*
%TD*%
D12*
%TO.P,U1,1,VCC*%
%TO.N,+5V*%
X242570000Y-113030000D03*
%TO.P,U1,2,GND*%
%TO.N,GND*%
X242570000Y-110490000D03*
%TO.P,U1,3,CS*%
%TO.N,/CS_TFT*%
X242570000Y-107950000D03*
%TO.P,U1,4,RST*%
%TO.N,/RESET*%
X242570000Y-105410000D03*
%TO.P,U1,5,DC*%
%TO.N,/D{slash}C*%
X242570000Y-102870000D03*
%TO.P,U1,6,MOSI*%
%TO.N,/MOSI*%
X242570000Y-100330000D03*
%TO.P,U1,7,SCK*%
%TO.N,/SCK*%
X242570000Y-97790000D03*
%TO.P,U1,8,LED*%
%TO.N,+3.3V*%
X242570000Y-95250000D03*
%TO.P,U1,9,MISO*%
%TO.N,/MISO*%
X242570000Y-92710000D03*
%TO.P,U1,10,T_CLK*%
%TO.N,/SCK*%
X242570000Y-90170000D03*
%TO.P,U1,11,T_CS*%
%TO.N,/CS_Touch*%
X242570000Y-87630000D03*
%TO.P,U1,12,T_DIN*%
%TO.N,/MOSI*%
X242570000Y-85090000D03*
%TO.P,U1,13,T_DO*%
%TO.N,/MISO*%
X242570000Y-82550000D03*
%TO.P,U1,14,T_IRQ*%
%TO.N,unconnected-(U1-T_IRQ-Pad14)*%
X242570000Y-80010000D03*
D13*
%TO.P,U1,15,SD_CS*%
%TO.N,/CS_SD*%
X161290000Y-100330000D03*
%TO.P,U1,16,SD_MOSI*%
%TO.N,/MOSI*%
X161290000Y-97790000D03*
%TO.P,U1,17,SD_MISO*%
%TO.N,/MISO*%
X161290000Y-95250000D03*
%TO.P,U1,18,SD_SCK*%
%TO.N,/SCK*%
X161290000Y-92710000D03*
%TD*%
%TO.P,ENC1,1,RED*%
%TO.N,Net-(ENC1-RED)*%
X257120000Y-120500000D03*
%TO.P,ENC1,2,GREEN*%
%TO.N,Net-(ENC1-GREEN)*%
X254580000Y-120500000D03*
%TO.P,ENC1,3,SW*%
%TO.N,/SW*%
X252040000Y-120500000D03*
%TO.P,ENC1,4,BLUE*%
%TO.N,Net-(ENC1-BLUE)*%
X249500000Y-120500000D03*
%TO.P,ENC1,5,Anode*%
%TO.N,+3.3V*%
X246960000Y-120500000D03*
%TO.P,ENC1,6,A*%
%TO.N,/ENC_A*%
X254580000Y-97640000D03*
%TO.P,ENC1,7,B*%
%TO.N,/ENC_B*%
X249500000Y-97640000D03*
%TO.P,ENC1,8,C*%
%TO.N,GND*%
X252040000Y-97640000D03*
%TD*%
D14*
%TO.P,REF\u002A\u002A,1*%
%TO.N,N/C*%
X238125000Y-64643000D03*
%TD*%
D13*
%TO.P,SW2,1,Vcc*%
%TO.N,Net-(J2-Pin_1)*%
X220980000Y-67386200D03*
%TO.P,SW2,2,IO*%
%TO.N,Net-(J2-Pin_2)*%
X220980000Y-64846200D03*
%TO.P,SW2,3,GND*%
%TO.N,GND*%
X220980000Y-62306200D03*
%TD*%
D15*
%TO.P,U3,1,GPIO0*%
%TO.N,/RX_main*%
X220780000Y-73020000D03*
D16*
X221680000Y-73020000D03*
D15*
%TO.P,U3,2,GPIO1*%
%TO.N,/TX_main*%
X220780000Y-75560000D03*
D16*
X221680000Y-75560000D03*
D17*
%TO.P,U3,3,GND*%
%TO.N,GND*%
X220780000Y-78100000D03*
D16*
X221680000Y-78100000D03*
D15*
%TO.P,U3,4,GPIO2*%
%TO.N,unconnected-(U3-GPIO2-Pad4)_1*%
X220780000Y-80640000D03*
D16*
%TO.N,unconnected-(U3-GPIO2-Pad4)*%
X221680000Y-80640000D03*
D15*
%TO.P,U3,5,GPIO3*%
%TO.N,unconnected-(U3-GPIO3-Pad5)_1*%
X220780000Y-83180000D03*
D16*
%TO.N,unconnected-(U3-GPIO3-Pad5)*%
X221680000Y-83180000D03*
D15*
%TO.P,U3,6,GPIO4*%
%TO.N,unconnected-(U3-GPIO4-Pad6)_1*%
X220780000Y-85720000D03*
D16*
%TO.N,unconnected-(U3-GPIO4-Pad6)*%
X221680000Y-85720000D03*
D15*
%TO.P,U3,7,GPIO5*%
%TO.N,unconnected-(U3-GPIO5-Pad7)*%
X220780000Y-88260000D03*
D16*
%TO.N,unconnected-(U3-GPIO5-Pad7)_1*%
X221680000Y-88260000D03*
D17*
%TO.P,U3,8,GND*%
%TO.N,GND*%
X220780000Y-90800000D03*
D16*
X221680000Y-90800000D03*
D15*
%TO.P,U3,9,GPIO6*%
%TO.N,unconnected-(U3-GPIO6-Pad9)_1*%
X220780000Y-93340000D03*
D16*
%TO.N,unconnected-(U3-GPIO6-Pad9)*%
X221680000Y-93340000D03*
D15*
%TO.P,U3,10,GPIO7*%
%TO.N,/LED_B*%
X220780000Y-95880000D03*
D16*
X221680000Y-95880000D03*
D15*
%TO.P,U3,11,GPIO8*%
%TO.N,/LED_G*%
X220780000Y-98420000D03*
D16*
X221680000Y-98420000D03*
D15*
%TO.P,U3,12,GPIO9*%
%TO.N,/LED_R*%
X220780000Y-100960000D03*
D16*
X221680000Y-100960000D03*
D17*
%TO.P,U3,13,GND*%
%TO.N,GND*%
X220780000Y-103500000D03*
D16*
X221680000Y-103500000D03*
D15*
%TO.P,U3,14,GPIO10*%
%TO.N,unconnected-(U3-GPIO10-Pad14)*%
X220780000Y-106040000D03*
D16*
%TO.N,unconnected-(U3-GPIO10-Pad14)_1*%
X221680000Y-106040000D03*
D15*
%TO.P,U3,15,GPIO11*%
%TO.N,/SW*%
X220780000Y-108580000D03*
D16*
X221680000Y-108580000D03*
D15*
%TO.P,U3,16,GPIO12*%
%TO.N,/ENC_B*%
X220780000Y-111120000D03*
D16*
X221680000Y-111120000D03*
D15*
%TO.P,U3,17,GPIO13*%
%TO.N,/ENC_A*%
X220780000Y-113660000D03*
D16*
X221680000Y-113660000D03*
D17*
%TO.P,U3,18,GND*%
%TO.N,GND*%
X220780000Y-116200000D03*
D16*
X221680000Y-116200000D03*
D15*
%TO.P,U3,19,GPIO14*%
%TO.N,unconnected-(U3-GPIO14-Pad19)*%
X220780000Y-118740000D03*
D16*
%TO.N,unconnected-(U3-GPIO14-Pad19)_1*%
X221680000Y-118740000D03*
D15*
%TO.P,U3,20,GPIO15*%
%TO.N,/neopi_in*%
X220780000Y-121280000D03*
D16*
X221680000Y-121280000D03*
D15*
%TO.P,U3,21,GPIO16*%
%TO.N,/MISO*%
X203000000Y-121280000D03*
D16*
X202100000Y-121280000D03*
D15*
%TO.P,U3,22,GPIO17*%
%TO.N,/CS_TFT*%
X203000000Y-118740000D03*
D16*
X202100000Y-118740000D03*
D17*
%TO.P,U3,23,GND*%
%TO.N,GND*%
X203000000Y-116200000D03*
D16*
X202100000Y-116200000D03*
D15*
%TO.P,U3,24,GPIO18*%
%TO.N,/SCK*%
X203000000Y-113660000D03*
D16*
X202100000Y-113660000D03*
D15*
%TO.P,U3,25,GPIO19*%
%TO.N,/MOSI*%
X203000000Y-111120000D03*
D16*
X202100000Y-111120000D03*
D15*
%TO.P,U3,26,GPIO20*%
%TO.N,/CS_Touch*%
X203000000Y-108580000D03*
D16*
X202100000Y-108580000D03*
D15*
%TO.P,U3,27,GPIO21*%
%TO.N,/CS_SD*%
X203000000Y-106040000D03*
D16*
X202100000Y-106040000D03*
D17*
%TO.P,U3,28,GND*%
%TO.N,GND*%
X203000000Y-103500000D03*
D16*
X202100000Y-103500000D03*
D15*
%TO.P,U3,29,GPIO22*%
%TO.N,/D{slash}C*%
X203000000Y-100960000D03*
D16*
X202100000Y-100960000D03*
D15*
%TO.P,U3,30,RUN*%
%TO.N,/enable_pico*%
X203000000Y-98420000D03*
D16*
X202100000Y-98420000D03*
D15*
%TO.P,U3,31,GPIO26_ADC0*%
%TO.N,/RESET*%
X203000000Y-95880000D03*
D16*
X202100000Y-95880000D03*
D15*
%TO.P,U3,32,GPIO27_ADC1*%
%TO.N,/IO*%
X203000000Y-93340000D03*
D16*
X202100000Y-93340000D03*
D17*
%TO.P,U3,33,AGND*%
%TO.N,unconnected-(U3-AGND-Pad33)_1*%
X203000000Y-90800000D03*
D16*
%TO.N,unconnected-(U3-AGND-Pad33)*%
X202100000Y-90800000D03*
D15*
%TO.P,U3,34,GPIO28_ADC2*%
%TO.N,unconnected-(U3-GPIO28_ADC2-Pad34)_1*%
X203000000Y-88260000D03*
D16*
%TO.N,unconnected-(U3-GPIO28_ADC2-Pad34)*%
X202100000Y-88260000D03*
D15*
%TO.P,U3,35,ADC_VREF*%
%TO.N,unconnected-(U3-ADC_VREF-Pad35)*%
X203000000Y-85720000D03*
D16*
%TO.N,unconnected-(U3-ADC_VREF-Pad35)_1*%
X202100000Y-85720000D03*
D15*
%TO.P,U3,36,3V3*%
%TO.N,+3.3V*%
X203000000Y-83180000D03*
D16*
X202100000Y-83180000D03*
D15*
%TO.P,U3,37,3V3_EN*%
%TO.N,unconnected-(U3-3V3_EN-Pad37)*%
X203000000Y-80640000D03*
D16*
%TO.N,unconnected-(U3-3V3_EN-Pad37)_1*%
X202100000Y-80640000D03*
D17*
%TO.P,U3,38,GND*%
%TO.N,GND*%
X203000000Y-78100000D03*
D16*
X202100000Y-78100000D03*
D15*
%TO.P,U3,39,VSYS*%
%TO.N,+5V*%
X203000000Y-75560000D03*
D16*
X202100000Y-75560000D03*
D15*
%TO.P,U3,40,VBUS*%
%TO.N,unconnected-(U3-VBUS-Pad40)*%
X203000000Y-73020000D03*
D16*
%TO.N,unconnected-(U3-VBUS-Pad40)_1*%
X202100000Y-73020000D03*
D15*
%TO.P,U3,41,SWCLK*%
%TO.N,unconnected-(U3-SWCLK-Pad41)_1*%
X214430000Y-121050000D03*
D18*
%TO.N,unconnected-(U3-SWCLK-Pad41)*%
X214430000Y-121950000D03*
D17*
%TO.P,U3,42,GND*%
%TO.N,unconnected-(U3-GND-Pad42)_1*%
X211890000Y-121050000D03*
D18*
%TO.N,unconnected-(U3-GND-Pad42)*%
X211890000Y-121950000D03*
D15*
%TO.P,U3,43,SWDIO*%
%TO.N,unconnected-(U3-SWDIO-Pad43)_1*%
X209350000Y-121050000D03*
D18*
%TO.N,unconnected-(U3-SWDIO-Pad43)*%
X209350000Y-121950000D03*
%TD*%
D19*
%TO.P,R1,1*%
%TO.N,/LED_R*%
X257000000Y-116087500D03*
%TO.P,R1,2*%
%TO.N,Net-(ENC1-RED)*%
X257000000Y-117912500D03*
%TD*%
%TO.P,R2,1*%
%TO.N,/LED_G*%
X254500000Y-116000000D03*
%TO.P,R2,2*%
%TO.N,Net-(ENC1-GREEN)*%
X254500000Y-117825000D03*
%TD*%
D20*
%TO.P,SW1,1,1*%
%TO.N,/enable_pico*%
X189865000Y-114590000D03*
X183365000Y-114590000D03*
%TO.P,SW1,2,2*%
%TO.N,GND*%
X189865000Y-119090000D03*
X183365000Y-119090000D03*
%TD*%
D19*
%TO.P,R3,1*%
%TO.N,/LED_B*%
X249500000Y-116175000D03*
%TO.P,R3,2*%
%TO.N,Net-(ENC1-BLUE)*%
X249500000Y-118000000D03*
%TD*%
D21*
%TO.P,J4,1,Pin_1*%
%TO.N,+5V*%
X178720520Y-82500000D03*
D22*
%TO.P,J4,2,Pin_2*%
%TO.N,/IO*%
X181220520Y-82500000D03*
%TO.P,J4,3,Pin_3*%
%TO.N,GND*%
X183720520Y-82500000D03*
%TD*%
D23*
%TO.P,C1,1*%
%TO.N,GND*%
X233045000Y-73700000D03*
D24*
%TO.P,C1,2*%
%TO.N,+5V*%
X233045000Y-76200000D03*
%TD*%
D25*
%TO.P,J1,1,Pin_1*%
%TO.N,+5V*%
X227330000Y-81654000D03*
D11*
%TO.P,J1,2,Pin_2*%
%TO.N,GND*%
X227330000Y-84154000D03*
%TO.P,J1,3,Pin_3*%
%TO.N,/RX_main*%
X227330000Y-86654000D03*
%TO.P,J1,4,Pin_4*%
%TO.N,/TX_main*%
X227330000Y-89154000D03*
%TD*%
D26*
%TO.P,J5,1,Pin_1*%
%TO.N,unconnected-(J5-Pin_1-Pad1)*%
X172720000Y-81000120D03*
D27*
%TO.P,J5,2,Pin_2*%
%TO.N,/neopi_in*%
X170718480Y-81000000D03*
%TO.P,J5,3,Pin_3*%
%TO.N,+5V*%
X168722040Y-81000000D03*
%TO.P,J5,4,Pin_4*%
%TO.N,GND*%
X166720520Y-81000000D03*
%TD*%
D28*
%TO.N,GND*%
X229235000Y-87630000D03*
X217551000Y-110998000D03*
X233172000Y-107696000D03*
X238760000Y-93980000D03*
X173990000Y-114300000D03*
X199263000Y-109982000D03*
X170180000Y-101600000D03*
X218440000Y-83820000D03*
X236220000Y-78740000D03*
X246380000Y-73660000D03*
X212090000Y-83820000D03*
X198120000Y-83820000D03*
X257175000Y-113665000D03*
X256540000Y-103505000D03*
X239268000Y-113538000D03*
X205613000Y-96012000D03*
X179070000Y-123190000D03*
X225298000Y-115570000D03*
X236220000Y-104140000D03*
X214376000Y-118618000D03*
X241554000Y-118110000D03*
X225171000Y-98552000D03*
X217805000Y-101219000D03*
X170180000Y-110490000D03*
X252095000Y-100330000D03*
X179070000Y-110490000D03*
X236220000Y-88900000D03*
X190500000Y-83820000D03*
X173990000Y-123190000D03*
X161290000Y-123190000D03*
X246380000Y-83820000D03*
X182880000Y-83820000D03*
X177165000Y-86360000D03*
X225298000Y-121158000D03*
X165100000Y-99060000D03*
X182880000Y-92075000D03*
X161290000Y-107950000D03*
X189865000Y-102870000D03*
X176530000Y-93980000D03*
X248285000Y-113665000D03*
X205486000Y-87249000D03*
X204851000Y-113665000D03*
X234950000Y-99060000D03*
X229616000Y-116078000D03*
X197231000Y-116205000D03*
X231775000Y-118745000D03*
X182753000Y-101727000D03*
X247650000Y-93345000D03*
X199390000Y-104394000D03*
X224790000Y-81915000D03*
X240030000Y-100330000D03*
X177165000Y-76835000D03*
X232410000Y-112522000D03*
X212090000Y-90170000D03*
X235712000Y-120650000D03*
X171450000Y-88900000D03*
X218440000Y-73660000D03*
X217678000Y-96012000D03*
X233045000Y-71755000D03*
X161290000Y-71755000D03*
X198120000Y-96520000D03*
X225298000Y-94234000D03*
X217678000Y-92964000D03*
X246253000Y-86868000D03*
X198120000Y-73660000D03*
X196850000Y-112141000D03*
X205105000Y-104140000D03*
X198120000Y-78740000D03*
X229362000Y-94107000D03*
X232410000Y-101600000D03*
X194310000Y-102235000D03*
X196342000Y-107696000D03*
X205105000Y-121158000D03*
X198120000Y-123190000D03*
X217678000Y-98171000D03*
X232410000Y-94615000D03*
X232410000Y-90170000D03*
X232410000Y-110490000D03*
X192786000Y-116332000D03*
X238760000Y-110490000D03*
X190500000Y-78740000D03*
X179070000Y-118110000D03*
X161290000Y-83820000D03*
X241300000Y-73660000D03*
X205740000Y-74930000D03*
X241935000Y-123190000D03*
X214122000Y-116205000D03*
X190500000Y-73660000D03*
X175260000Y-105410000D03*
X171450000Y-95250000D03*
X197739000Y-119126000D03*
X189738000Y-108712000D03*
X224663000Y-112649000D03*
X235712000Y-113538000D03*
X227330000Y-100711000D03*
X238125000Y-101600000D03*
X212090000Y-80010000D03*
X194945000Y-109855000D03*
X237490000Y-96520000D03*
X228600000Y-74930000D03*
X236220000Y-83820000D03*
X240665000Y-109220000D03*
X161290000Y-112395000D03*
X172720000Y-79375000D03*
X248285000Y-123190000D03*
X217551000Y-114300000D03*
X161290000Y-88900000D03*
X165100000Y-95250000D03*
X217678000Y-105664000D03*
X173990000Y-99060000D03*
X165100000Y-115570000D03*
X225425000Y-87630000D03*
X235585000Y-110490000D03*
X231140000Y-78740000D03*
X205359000Y-108331000D03*
X217170000Y-103505000D03*
X180340000Y-99060000D03*
X165100000Y-105410000D03*
X229235000Y-98552000D03*
X204978000Y-116332000D03*
X217551000Y-121285000D03*
X228092000Y-121158000D03*
X182880000Y-73660000D03*
X231648000Y-105918000D03*
X257175000Y-123190000D03*
X205740000Y-83820000D03*
X167640000Y-73660000D03*
X198120000Y-88900000D03*
X175260000Y-73660000D03*
X217551000Y-108458000D03*
X244475000Y-120650000D03*
X192786000Y-112268000D03*
X184785000Y-97790000D03*
X205232000Y-111125000D03*
X218440000Y-90170000D03*
X225298000Y-118618000D03*
X257175000Y-95885000D03*
X190500000Y-88900000D03*
X246380000Y-78740000D03*
X205486000Y-99695000D03*
X248920000Y-104140000D03*
X161290000Y-77470000D03*
X192532000Y-119507000D03*
X192405000Y-123190000D03*
X247650000Y-101600000D03*
X168275000Y-118745000D03*
X190500000Y-96520000D03*
%TO.N,/ENC_A*%
X245200000Y-111760000D03*
X234315000Y-111760000D03*
%TO.N,/ENC_B*%
X227330000Y-111760000D03*
X236410500Y-108140500D03*
%TO.N,/SW*%
X248285000Y-119253000D03*
%TO.N,+3.3V*%
X246507000Y-109601000D03*
X246507000Y-96139000D03*
X250500000Y-93500000D03*
X246507000Y-105791000D03*
X231775000Y-92075000D03*
X229870000Y-92075000D03*
%TO.N,/neopi_in*%
X193040000Y-106680000D03*
X216470000Y-116775000D03*
X194402653Y-108042653D03*
%TO.N,/LED_B*%
X239522000Y-116205000D03*
X219202000Y-118364000D03*
%TO.N,/CS_TFT*%
X239500000Y-108000000D03*
X237500000Y-110000000D03*
%TO.N,/RESET*%
X236500000Y-105500000D03*
X234000000Y-105500000D03*
%TO.N,/D{slash}C*%
X230487347Y-103012653D03*
X233532653Y-102967347D03*
%TO.N,/MOSI*%
X245745000Y-99060000D03*
X235585000Y-107315000D03*
X182880000Y-99605000D03*
%TO.N,/SCK*%
X175260000Y-96520000D03*
X230378000Y-104951847D03*
X235775500Y-102044500D03*
X224917000Y-110490000D03*
X240030000Y-97790000D03*
X224917000Y-109030000D03*
%TO.N,/CS_Touch*%
X228600000Y-103505000D03*
%TO.N,/CS_SD*%
X190500000Y-106045000D03*
%TD*%
D29*
%TO.N,/ENC_A*%
X234315000Y-111760000D02*
X245200000Y-111760000D01*
%TO.N,/ENC_B*%
X221420000Y-111760000D02*
X220780000Y-111120000D01*
X249500000Y-97640000D02*
X249500000Y-101655000D01*
X237871000Y-106680000D02*
X236410500Y-108140500D01*
X244475000Y-106680000D02*
X237871000Y-106680000D01*
X249500000Y-101655000D02*
X244475000Y-106680000D01*
X227330000Y-111760000D02*
X221420000Y-111760000D01*
%TO.N,Net-(ENC1-RED)*%
X257000000Y-120380000D02*
X257120000Y-120500000D01*
X257000000Y-117912500D02*
X257000000Y-120380000D01*
%TO.N,Net-(ENC1-GREEN)*%
X254500000Y-117825000D02*
X254500000Y-120420000D01*
X254500000Y-120420000D02*
X254580000Y-120500000D01*
%TO.N,/SW*%
X227491000Y-107730000D02*
X221630000Y-107730000D01*
X238506000Y-121666000D02*
X238379000Y-121539000D01*
X248285000Y-119253000D02*
X240919000Y-119253000D01*
X238379000Y-121539000D02*
X230886000Y-121539000D01*
X240919000Y-119253000D02*
X238506000Y-121666000D01*
X230886000Y-121539000D02*
X228600000Y-119253000D01*
X221630000Y-107730000D02*
X220780000Y-108580000D01*
X228600000Y-119253000D02*
X228600000Y-108839000D01*
X228600000Y-108839000D02*
X227491000Y-107730000D01*
%TO.N,Net-(ENC1-BLUE)*%
X249500000Y-118000000D02*
X249500000Y-120500000D01*
%TO.N,+3.3V*%
X246507000Y-96139000D02*
X246507000Y-95250000D01*
X246507000Y-95250000D02*
X242570000Y-95250000D01*
X246507000Y-109601000D02*
X246507000Y-105791000D01*
X247750000Y-95250000D02*
X246507000Y-95250000D01*
X250500000Y-93500000D02*
X249500000Y-93500000D01*
X229870000Y-92075000D02*
X231775000Y-92075000D01*
X249500000Y-93500000D02*
X247750000Y-95250000D01*
%TO.N,/neopi_in*%
X216470000Y-116775000D02*
X220780000Y-121085000D01*
X193040000Y-106680000D02*
X194402653Y-108042653D01*
X220780000Y-121085000D02*
X220780000Y-121280000D01*
%TO.N,/LED_R*%
X229997000Y-115189000D02*
X229997000Y-108567000D01*
X231121000Y-116313000D02*
X229997000Y-115189000D01*
X222390000Y-100960000D02*
X220780000Y-100960000D01*
X256120500Y-116967000D02*
X254381000Y-116967000D01*
X238652917Y-116987500D02*
X237978417Y-116313000D01*
X237978417Y-116313000D02*
X231121000Y-116313000D01*
X254360500Y-116987500D02*
X238652917Y-116987500D01*
X257000000Y-116087500D02*
X256120500Y-116967000D01*
X254381000Y-116967000D02*
X254360500Y-116987500D01*
X229997000Y-108567000D02*
X222390000Y-100960000D01*
%TO.N,/LED_G*%
X222390000Y-98420000D02*
X231140000Y-107170000D01*
X231140000Y-107170000D02*
X231140000Y-114046000D01*
X232410000Y-115316000D02*
X253816000Y-115316000D01*
X220780000Y-98420000D02*
X222390000Y-98420000D01*
X253816000Y-115316000D02*
X254500000Y-116000000D01*
X231140000Y-114046000D02*
X232410000Y-115316000D01*
%TO.N,/LED_B*%
X249500000Y-116175000D02*
X239552000Y-116175000D01*
X219202000Y-118364000D02*
X219202000Y-97458000D01*
X239552000Y-116175000D02*
X239522000Y-116205000D01*
X219202000Y-97458000D02*
X220780000Y-95880000D01*
%TO.N,/CS_TFT*%
X239500000Y-108000000D02*
X237500000Y-110000000D01*
%TO.N,/RESET*%
X236500000Y-105500000D02*
X234000000Y-105500000D01*
%TO.N,/D{slash}C*%
X233532653Y-102967347D02*
X233487347Y-103012653D01*
X233487347Y-103012653D02*
X230487347Y-103012653D01*
%TO.N,/MOSI*%
X245745000Y-99060000D02*
X244475000Y-100330000D01*
X182880000Y-99605000D02*
X194395000Y-111120000D01*
X242570000Y-100599720D02*
X242570000Y-100330000D01*
X235854720Y-107315000D02*
X242570000Y-100599720D01*
X235585000Y-107315000D02*
X235854720Y-107315000D01*
X244475000Y-100330000D02*
X242570000Y-100330000D01*
X194395000Y-111120000D02*
X203000000Y-111120000D01*
%TO.N,/SCK*%
X230378000Y-104951847D02*
X232868153Y-104951847D01*
X242570000Y-90170000D02*
X240745000Y-91995000D01*
X240030000Y-97790000D02*
X242570000Y-97790000D01*
X240745000Y-91995000D02*
X240745000Y-95965000D01*
X224917000Y-109030000D02*
X224917000Y-110490000D01*
X175260000Y-96520000D02*
X192400000Y-113660000D01*
X232868153Y-104951847D02*
X235775500Y-102044500D01*
X240745000Y-95965000D02*
X242570000Y-97790000D01*
X192400000Y-113660000D02*
X203000000Y-113660000D01*
%TO.N,/CS_Touch*%
X228600000Y-103505000D02*
X228600000Y-101600000D01*
X228600000Y-101600000D02*
X242570000Y-87630000D01*
%TO.N,/CS_SD*%
X190500000Y-106045000D02*
X190590000Y-105955000D01*
X190590000Y-105955000D02*
X202915000Y-105955000D01*
X202915000Y-105955000D02*
X203000000Y-106040000D01*
%TD*%
%TA.AperFunction,Conductor*%
%TO.N,GND*%
G36*
X229430703Y-115475301D02*
G01*
X229452601Y-115500122D01*
X229466513Y-115520942D01*
X229466514Y-115520943D01*
X229511141Y-115587732D01*
X229511144Y-115587736D01*
X229602586Y-115679178D01*
X229602608Y-115679198D01*
X230632016Y-116708606D01*
X230632045Y-116708637D01*
X230722263Y-116798855D01*
X230722271Y-116798861D01*
X230769621Y-116830499D01*
X230769623Y-116830500D01*
X230824714Y-116867312D01*
X230905207Y-116900652D01*
X230938548Y-116914463D01*
X230948977Y-116916537D01*
X230968053Y-116920332D01*
X230968073Y-116920335D01*
X230968095Y-116920340D01*
X231059391Y-116938499D01*
X231059392Y-116938500D01*
X231059393Y-116938500D01*
X231059394Y-116938500D01*
X236950096Y-116938500D01*
X237017135Y-116958185D01*
X237062890Y-117010989D01*
X237072834Y-117080147D01*
X237043809Y-117143703D01*
X237012096Y-117169887D01*
X236857830Y-117258953D01*
X236647657Y-117426559D01*
X236464820Y-117623613D01*
X236313394Y-117845715D01*
X236313392Y-117845719D01*
X236196761Y-118087903D01*
X236196760Y-118087906D01*
X236196759Y-118087909D01*
X236185570Y-118124184D01*
X236117527Y-118344772D01*
X236117526Y-118344777D01*
X236117525Y-118344781D01*
X236109164Y-118400251D01*
X236077460Y-118610587D01*
X236077460Y-118879412D01*
X236086977Y-118942548D01*
X236117525Y-119145219D01*
X236117526Y-119145221D01*
X236117527Y-119145227D01*
X236196759Y-119402091D01*
X236313391Y-119644280D01*
X236313393Y-119644282D01*
X236313394Y-119644285D01*
X236441600Y-119832328D01*
X236464822Y-119866389D01*
X236647657Y-120063440D01*
X236647661Y-120063443D01*
X236647662Y-120063444D01*
X236857830Y-120231047D01*
X237090630Y-120365455D01*
X237340862Y-120463664D01*
X237340874Y-120463666D01*
X237340875Y-120463667D01*
X237602937Y-120523480D01*
X237870997Y-120543569D01*
X237871000Y-120543569D01*
X237871003Y-120543569D01*
X238072047Y-120528502D01*
X238139063Y-120523480D01*
X238401138Y-120463664D01*
X238543546Y-120407772D01*
X238613140Y-120401604D01*
X238675024Y-120434042D01*
X238709547Y-120494787D01*
X238705748Y-120564553D01*
X238676527Y-120610882D01*
X238410229Y-120877181D01*
X238348906Y-120910666D01*
X238322548Y-120913500D01*
X231196452Y-120913500D01*
X231129413Y-120893815D01*
X231108771Y-120877181D01*
X229261819Y-119030229D01*
X229228334Y-118968906D01*
X229225500Y-118942548D01*
X229225500Y-115569014D01*
X229245185Y-115501975D01*
X229297989Y-115456220D01*
X229367147Y-115446276D01*
X229430703Y-115475301D01*
G37*
%TD.AperFunction*%
%TA.AperFunction,Conductor*%
G36*
X248467539Y-117632685D02*
G01*
X248513294Y-117685489D01*
X248524500Y-117737000D01*
X248524500Y-118230163D01*
X248504815Y-118297202D01*
X248452011Y-118342957D01*
X248386183Y-118352422D01*
X248386104Y-118353179D01*
X248383109Y-118352864D01*
X248382853Y-118352901D01*
X248381976Y-118352745D01*
X248379646Y-118352500D01*
X248190354Y-118352500D01*
X248187160Y-118353179D01*
X248005197Y-118391855D01*
X248005192Y-118391857D01*
X247832270Y-118468848D01*
X247832265Y-118468851D01*
X247679130Y-118580110D01*
X247679126Y-118580114D01*
X247673400Y-118586474D01*
X247613913Y-118623121D01*
X247581252Y-118627500D01*
X240857389Y-118627500D01*
X240796971Y-118639518D01*
X240753743Y-118648116D01*
X240736546Y-118651537D01*
X240622716Y-118698687D01*
X240548305Y-118748408D01*
X240548304Y-118748409D01*
X240520263Y-118767144D01*
X239745390Y-119542017D01*
X239684067Y-119575502D01*
X239614375Y-119570518D01*
X239558442Y-119528646D01*
X239534025Y-119463182D01*
X239544785Y-119406898D01*
X239543545Y-119406412D01*
X239545239Y-119402095D01*
X239545238Y-119402095D01*
X239545241Y-119402091D01*
X239624475Y-119145219D01*
X239664540Y-118879407D01*
X239664540Y-118879397D01*
X239664541Y-118879391D01*
X239667051Y-118745000D01*
X239664541Y-118610608D01*
X239664540Y-118610601D01*
X239664540Y-118610593D01*
X239624475Y-118344781D01*
X239545241Y-118087909D01*
X239428606Y-117845716D01*
X239402107Y-117806848D01*
X239380608Y-117740372D01*
X239398462Y-117672822D01*
X239450002Y-117625648D01*
X239504562Y-117613000D01*
X248400500Y-117613000D01*
X248467539Y-117632685D01*
G37*
%TD.AperFunction*%
%TA.AperFunction,Conductor*%
G36*
X240594977Y-90592126D02*
G01*
X240650910Y-90633998D01*
X240662128Y-90652013D01*
X240738551Y-90802000D01*
X240750476Y-90825405D01*
X240805854Y-90901626D01*
X240829334Y-90967431D01*
X240813509Y-91035485D01*
X240793217Y-91062192D01*
X240259144Y-91596264D01*
X240259138Y-91596272D01*
X240190690Y-91698708D01*
X240190688Y-91698713D01*
X240170658Y-91747071D01*
X240144391Y-91810486D01*
X240144387Y-91810497D01*
X240143537Y-91812547D01*
X240143536Y-91812549D01*
X240127624Y-91892549D01*
X240127624Y-91892550D01*
X240119500Y-91933391D01*
X240119500Y-96026610D01*
X240141856Y-96139000D01*
X240143537Y-96147452D01*
X240145306Y-96151722D01*
X240154846Y-96174754D01*
X240154845Y-96174754D01*
X240190685Y-96261281D01*
X240190690Y-96261290D01*
X240221817Y-96307873D01*
X240221818Y-96307874D01*
X240259141Y-96363733D01*
X240350586Y-96455178D01*
X240350608Y-96455198D01*
X240793217Y-96897807D01*
X240826702Y-96959130D01*
X240821718Y-97028822D01*
X240805851Y-97058378D01*
X240792076Y-97077336D01*
X240736744Y-97119999D01*
X240667131Y-97125975D01*
X240618876Y-97104764D01*
X240482734Y-97005851D01*
X240482729Y-97005848D01*
X240309807Y-96928857D01*
X240309802Y-96928855D01*
X240163728Y-96897807D01*
X240124646Y-96889500D01*
X239935354Y-96889500D01*
X239902897Y-96896398D01*
X239750197Y-96928855D01*
X239750192Y-96928857D01*
X239577270Y-97005848D01*
X239577265Y-97005851D01*
X239424129Y-97117111D01*
X239297466Y-97257785D01*
X239202821Y-97421715D01*
X239202818Y-97421722D01*
X239144327Y-97601740D01*
X239144326Y-97601744D01*
X239124540Y-97790000D01*
X239144326Y-97978256D01*
X239144327Y-97978259D01*
X239202818Y-98158277D01*
X239202821Y-98158284D01*
X239297467Y-98322216D01*
X239388810Y-98423662D01*
X239424129Y-98462888D01*
X239577265Y-98574148D01*
X239577270Y-98574151D01*
X239750192Y-98651142D01*
X239750197Y-98651144D01*
X239935354Y-98690500D01*
X239935355Y-98690500D01*
X240124644Y-98690500D01*
X240124646Y-98690500D01*
X240309803Y-98651144D01*
X240482730Y-98574151D01*
X240618878Y-98475233D01*
X240684682Y-98451755D01*
X240752736Y-98467580D01*
X240792078Y-98502667D01*
X240844016Y-98574151D01*
X240866172Y-98604646D01*
X241005354Y-98743828D01*
X241164595Y-98859524D01*
X241287992Y-98922397D01*
X241341213Y-98949515D01*
X241392009Y-98997489D01*
X241408804Y-99065310D01*
X241386267Y-99131445D01*
X241341213Y-99170485D01*
X241164594Y-99260476D01*
X241085595Y-99317873D01*
X241005354Y-99376172D01*
X241005352Y-99376174D01*
X241005351Y-99376174D01*
X240866174Y-99515351D01*
X240866174Y-99515352D01*
X240866172Y-99515354D01*
X240857877Y-99526771D01*
X240750476Y-99674594D01*
X240661117Y-99849970D01*
X240600290Y-100037173D01*
X240569500Y-100231577D01*
X240569500Y-100428422D01*
X240600290Y-100622826D01*
X240661117Y-100810029D01*
X240739397Y-100963662D01*
X240750476Y-100985405D01*
X240866172Y-101144646D01*
X240866174Y-101144648D01*
X240915646Y-101194120D01*
X240949131Y-101255443D01*
X240944147Y-101325135D01*
X240915646Y-101369482D01*
X237365113Y-104920015D01*
X237303790Y-104953500D01*
X237234098Y-104948516D01*
X237185282Y-104915307D01*
X237105871Y-104827112D01*
X237105867Y-104827109D01*
X236952734Y-104715851D01*
X236952729Y-104715848D01*
X236779807Y-104638857D01*
X236779802Y-104638855D01*
X236634001Y-104607865D01*
X236594646Y-104599500D01*
X236405354Y-104599500D01*
X236372897Y-104606398D01*
X236220197Y-104638855D01*
X236220192Y-104638857D01*
X236047270Y-104715848D01*
X236047265Y-104715851D01*
X235894130Y-104827110D01*
X235894126Y-104827114D01*
X235888400Y-104833474D01*
X235828913Y-104870121D01*
X235796252Y-104874500D01*
X234703748Y-104874500D01*
X234636709Y-104854815D01*
X234611600Y-104833474D01*
X234605873Y-104827114D01*
X234605869Y-104827110D01*
X234452734Y-104715851D01*
X234452732Y-104715850D01*
X234296502Y-104646290D01*
X234243266Y-104601039D01*
X234222945Y-104534190D01*
X234241991Y-104466966D01*
X234259253Y-104445335D01*
X235723272Y-102981319D01*
X235784595Y-102947834D01*
X235810953Y-102945000D01*
X235870144Y-102945000D01*
X235870146Y-102945000D01*
X236055303Y-102905644D01*
X236228230Y-102828651D01*
X236381371Y-102717388D01*
X236508033Y-102576716D01*
X236602679Y-102412784D01*
X236661174Y-102232756D01*
X236680960Y-102044500D01*
X236661174Y-101856244D01*
X236602679Y-101676216D01*
X236508033Y-101512284D01*
X236381371Y-101371612D01*
X236381370Y-101371611D01*
X236228234Y-101260351D01*
X236228229Y-101260348D01*
X236055307Y-101183357D01*
X236055302Y-101183355D01*
X235909501Y-101152365D01*
X235870146Y-101144000D01*
X235680854Y-101144000D01*
X235648397Y-101150898D01*
X235495697Y-101183355D01*
X235495692Y-101183357D01*
X235322770Y-101260348D01*
X235322765Y-101260351D01*
X235169629Y-101371611D01*
X235042966Y-101512285D01*
X234948321Y-101676215D01*
X234948318Y-101676222D01*
X234935196Y-101716609D01*
X234889826Y-101856244D01*
X234872179Y-102024149D01*
X234845594Y-102088763D01*
X234836539Y-102098868D01*
X234465503Y-102469904D01*
X234404180Y-102503389D01*
X234334488Y-102498405D01*
X234278555Y-102456533D01*
X234270437Y-102444226D01*
X234265186Y-102435131D01*
X234138524Y-102294459D01*
X234138523Y-102294458D01*
X233985387Y-102183198D01*
X233985382Y-102183195D01*
X233812460Y-102106204D01*
X233812455Y-102106202D01*
X233666654Y-102075212D01*
X233627299Y-102066847D01*
X233438007Y-102066847D01*
X233405550Y-102073745D01*
X233252850Y-102106202D01*
X233252845Y-102106204D01*
X233079923Y-102183195D01*
X233079918Y-102183198D01*
X232926783Y-102294457D01*
X232926776Y-102294463D01*
X232880261Y-102346125D01*
X232820775Y-102382774D01*
X232788111Y-102387153D01*
X231191095Y-102387153D01*
X231124056Y-102367468D01*
X231098947Y-102346127D01*
X231093220Y-102339767D01*
X231093216Y-102339763D01*
X230940081Y-102228504D01*
X230940076Y-102228501D01*
X230767154Y-102151510D01*
X230767149Y-102151508D01*
X230621348Y-102120518D01*
X230581993Y-102112153D01*
X230392701Y-102112153D01*
X230360244Y-102119051D01*
X230207544Y-102151508D01*
X230207539Y-102151510D01*
X230034617Y-102228501D01*
X230034612Y-102228504D01*
X229881476Y-102339764D01*
X229754813Y-102480438D01*
X229660168Y-102644368D01*
X229660165Y-102644375D01*
X229601674Y-102824393D01*
X229601673Y-102824397D01*
X229586921Y-102964760D01*
X229560336Y-103029374D01*
X229503039Y-103069359D01*
X229433220Y-103072019D01*
X229373046Y-103036510D01*
X229356213Y-103013798D01*
X229332534Y-102972785D01*
X229257350Y-102889284D01*
X229227120Y-102826292D01*
X229225500Y-102806312D01*
X229225500Y-101910452D01*
X229245185Y-101843413D01*
X229261819Y-101822771D01*
X234823309Y-96261281D01*
X240463964Y-90620625D01*
X240525285Y-90587142D01*
X240594977Y-90592126D01*
G37*
%TD.AperFunction*%
%TA.AperFunction,Conductor*%
G36*
X220726425Y-102310971D02*
G01*
X220780000Y-102315659D01*
X220833575Y-102310971D01*
X220844384Y-102310499D01*
X222804547Y-102310499D01*
X222871586Y-102330184D01*
X222892228Y-102346818D01*
X223483681Y-102938271D01*
X223517166Y-102999594D01*
X223520000Y-103025952D01*
X223520000Y-104565500D01*
X223500315Y-104632539D01*
X223447511Y-104678294D01*
X223396000Y-104689500D01*
X220844385Y-104689500D01*
X220833578Y-104689028D01*
X220780001Y-104684341D01*
X220779997Y-104684341D01*
X220726419Y-104689028D01*
X220715613Y-104689500D01*
X219951500Y-104689500D01*
X219884461Y-104669815D01*
X219838706Y-104617011D01*
X219827500Y-104565500D01*
X219827500Y-102434499D01*
X219847185Y-102367460D01*
X219899989Y-102321705D01*
X219951495Y-102310499D01*
X220715616Y-102310499D01*
X220726425Y-102310971D01*
G37*
%TD.AperFunction*%
%TA.AperFunction,Conductor*%
G36*
X192079471Y-106600185D02*
G01*
X192125226Y-106652989D01*
X192135752Y-106691535D01*
X192154326Y-106868256D01*
X192154327Y-106868259D01*
X192212818Y-107048277D01*
X192212821Y-107048284D01*
X192307467Y-107212216D01*
X192403479Y-107318848D01*
X192434129Y-107352888D01*
X192587265Y-107464148D01*
X192587270Y-107464151D01*
X192760192Y-107541142D01*
X192760197Y-107541144D01*
X192945354Y-107580500D01*
X193004548Y-107580500D01*
X193071587Y-107600185D01*
X193092229Y-107616819D01*
X193463691Y-107988282D01*
X193497176Y-108049605D01*
X193499331Y-108063001D01*
X193503131Y-108099151D01*
X193516979Y-108230909D01*
X193516980Y-108230912D01*
X193575471Y-108410930D01*
X193575474Y-108410937D01*
X193670120Y-108574869D01*
X193758222Y-108672716D01*
X193796782Y-108715541D01*
X193949918Y-108826801D01*
X193949923Y-108826804D01*
X194122845Y-108903795D01*
X194122850Y-108903797D01*
X194308007Y-108943153D01*
X194308008Y-108943153D01*
X194497297Y-108943153D01*
X194497299Y-108943153D01*
X194682456Y-108903797D01*
X194855383Y-108826804D01*
X195008524Y-108715541D01*
X195135186Y-108574869D01*
X195229832Y-108410937D01*
X195288327Y-108230909D01*
X195308113Y-108042653D01*
X195288327Y-107854397D01*
X195229832Y-107674369D01*
X195135186Y-107510437D01*
X195008524Y-107369765D01*
X195008523Y-107369764D01*
X194855387Y-107258504D01*
X194855382Y-107258501D01*
X194682460Y-107181510D01*
X194682455Y-107181508D01*
X194536654Y-107150518D01*
X194497299Y-107142153D01*
X194497298Y-107142153D01*
X194438106Y-107142153D01*
X194371067Y-107122468D01*
X194350425Y-107105834D01*
X194036772Y-106792181D01*
X194003287Y-106730858D01*
X194008271Y-106661166D01*
X194050143Y-106605233D01*
X194115607Y-106580816D01*
X194124453Y-106580500D01*
X199725501Y-106580500D01*
X199792540Y-106600185D01*
X199838295Y-106652989D01*
X199849501Y-106704500D01*
X199849501Y-106937876D01*
X199855908Y-106997483D01*
X199906202Y-107132328D01*
X199906203Y-107132330D01*
X199931302Y-107165858D01*
X199966004Y-107212214D01*
X199983578Y-107235689D01*
X200007995Y-107301153D01*
X199993144Y-107369426D01*
X199983578Y-107384311D01*
X199906203Y-107487669D01*
X199906202Y-107487671D01*
X199855908Y-107622517D01*
X199850334Y-107674368D01*
X199849501Y-107682123D01*
X199849500Y-107682135D01*
X199849500Y-109477870D01*
X199849501Y-109477876D01*
X199855908Y-109537483D01*
X199906202Y-109672328D01*
X199906203Y-109672330D01*
X199983578Y-109775689D01*
X200007995Y-109841153D01*
X199993144Y-109909426D01*
X199983578Y-109924311D01*
X199906203Y-110027669D01*
X199906202Y-110027671D01*
X199855908Y-110162517D01*
X199853141Y-110188259D01*
X199849501Y-110222123D01*
X199849500Y-110222135D01*
X199849500Y-110370500D01*
X199829815Y-110437539D01*
X199777011Y-110483294D01*
X199725500Y-110494500D01*
X194705452Y-110494500D01*
X194638413Y-110474815D01*
X194617771Y-110458181D01*
X191076248Y-106916658D01*
X191042763Y-106855335D01*
X191047747Y-106785643D01*
X191089619Y-106729710D01*
X191090876Y-106728782D01*
X191105871Y-106717888D01*
X191192634Y-106621527D01*
X191252121Y-106584879D01*
X191284784Y-106580500D01*
X192012432Y-106580500D01*
X192079471Y-106600185D01*
G37*
%TD.AperFunction*%
%TA.AperFunction,Conductor*%
G36*
X246958039Y-70936485D02*
G01*
X247003794Y-70989289D01*
X247015000Y-71040800D01*
X247015000Y-90678000D01*
X258876000Y-90678000D01*
X258943039Y-90697685D01*
X258988794Y-90750489D01*
X259000000Y-90802000D01*
X259000000Y-123876000D01*
X258980315Y-123943039D01*
X258927511Y-123988794D01*
X258876000Y-124000000D01*
X215880880Y-124000000D01*
X215813841Y-123980315D01*
X215768086Y-123927511D01*
X215758142Y-123858353D01*
X215764698Y-123832666D01*
X215774091Y-123807483D01*
X215780500Y-123747873D01*
X215780499Y-121114381D01*
X215780971Y-121103578D01*
X215785659Y-121050000D01*
X215785659Y-121049999D01*
X215780971Y-120996418D01*
X215780499Y-120985610D01*
X215780499Y-120152129D01*
X215780498Y-120152123D01*
X215780497Y-120152116D01*
X215774880Y-120099853D01*
X215774091Y-120092516D01*
X215723797Y-119957671D01*
X215723793Y-119957664D01*
X215637547Y-119842455D01*
X215637544Y-119842452D01*
X215522335Y-119756206D01*
X215522328Y-119756202D01*
X215387482Y-119705908D01*
X215387483Y-119705908D01*
X215327883Y-119699501D01*
X215327881Y-119699500D01*
X215327873Y-119699500D01*
X215327865Y-119699500D01*
X214494383Y-119699500D01*
X214483576Y-119699028D01*
X214430002Y-119694341D01*
X214429999Y-119694341D01*
X214394865Y-119697414D01*
X214376421Y-119699028D01*
X214365616Y-119699500D01*
X213532129Y-119699500D01*
X213532123Y-119699501D01*
X213472516Y-119705908D01*
X213337671Y-119756202D01*
X213337669Y-119756203D01*
X213234311Y-119833578D01*
X213168847Y-119857995D01*
X213100574Y-119843144D01*
X213085689Y-119833578D01*
X212982330Y-119756203D01*
X212982328Y-119756202D01*
X212847482Y-119705908D01*
X212847483Y-119705908D01*
X212787883Y-119699501D01*
X212787881Y-119699500D01*
X212787873Y-119699500D01*
X212787864Y-119699500D01*
X210992129Y-119699500D01*
X210992123Y-119699501D01*
X210932516Y-119705908D01*
X210797671Y-119756202D01*
X210797669Y-119756203D01*
X210694311Y-119833578D01*
X210628847Y-119857995D01*
X210560574Y-119843144D01*
X210545689Y-119833578D01*
X210442330Y-119756203D01*
X210442328Y-119756202D01*
X210307482Y-119705908D01*
X210307483Y-119705908D01*
X210247883Y-119699501D01*
X210247881Y-119699500D01*
X210247873Y-119699500D01*
X210247865Y-119699500D01*
X209414383Y-119699500D01*
X209403576Y-119699028D01*
X209350002Y-119694341D01*
X209349999Y-119694341D01*
X209314865Y-119697414D01*
X209296421Y-119699028D01*
X209285616Y-119699500D01*
X208452129Y-119699500D01*
X208452123Y-119699501D01*
X208392516Y-119705908D01*
X208257671Y-119756202D01*
X208257664Y-119756206D01*
X208142455Y-119842452D01*
X208142452Y-119842455D01*
X208056206Y-119957664D01*
X208056202Y-119957671D01*
X208005908Y-120092517D01*
X207999744Y-120149857D01*
X207999501Y-120152123D01*
X207999500Y-120152135D01*
X207999500Y-120985618D01*
X207999028Y-120996425D01*
X207994341Y-121049997D01*
X207994341Y-121050001D01*
X207999028Y-121103574D01*
X207999500Y-121114381D01*
X207999500Y-123747870D01*
X207999501Y-123747876D01*
X208005908Y-123807481D01*
X208015302Y-123832666D01*
X208020286Y-123902358D01*
X207986801Y-123963681D01*
X207925478Y-123997166D01*
X207899120Y-124000000D01*
X159624386Y-124000000D01*
X159557347Y-123980315D01*
X159511592Y-123927511D01*
X159500387Y-123875614D01*
X159511616Y-120265614D01*
X159531509Y-120198636D01*
X159584455Y-120153046D01*
X159635615Y-120142000D01*
X161290020Y-120142000D01*
X161423039Y-120139515D01*
X161423047Y-120139514D01*
X161423056Y-120139514D01*
X161604563Y-120112156D01*
X161686192Y-120099853D01*
X161686193Y-120099852D01*
X161686197Y-120099852D01*
X161940487Y-120021414D01*
X162129943Y-119930176D01*
X162180239Y-119905956D01*
X162180239Y-119905955D01*
X162180247Y-119905952D01*
X162400119Y-119756045D01*
X162595194Y-119575043D01*
X162761112Y-119366987D01*
X162894169Y-119136527D01*
X162991391Y-118888810D01*
X163050606Y-118629369D01*
X163062636Y-118468848D01*
X163070493Y-118364004D01*
X163070493Y-118363995D01*
X163050606Y-118098632D01*
X163050606Y-118098630D01*
X162992063Y-117842135D01*
X199849500Y-117842135D01*
X199849500Y-119637870D01*
X199849501Y-119637876D01*
X199855908Y-119697483D01*
X199906202Y-119832328D01*
X199906203Y-119832330D01*
X199983578Y-119935689D01*
X200007995Y-120001153D01*
X199993144Y-120069426D01*
X199983578Y-120084311D01*
X199906203Y-120187669D01*
X199906202Y-120187671D01*
X199855908Y-120322517D01*
X199851292Y-120365455D01*
X199849501Y-120382123D01*
X199849500Y-120382135D01*
X199849500Y-122177870D01*
X199849501Y-122177876D01*
X199855908Y-122237483D01*
X199906202Y-122372328D01*
X199906206Y-122372335D01*
X199992452Y-122487544D01*
X199992455Y-122487547D01*
X200107664Y-122573793D01*
X200107671Y-122573797D01*
X200242517Y-122624091D01*
X200242516Y-122624091D01*
X200249444Y-122624835D01*
X200302127Y-122630500D01*
X202935611Y-122630499D01*
X202946419Y-122630971D01*
X202999999Y-122635659D01*
X203000000Y-122635659D01*
X203000001Y-122635659D01*
X203053580Y-122630971D01*
X203064388Y-122630499D01*
X203897871Y-122630499D01*
X203897872Y-122630499D01*
X203957483Y-122624091D01*
X204092331Y-122573796D01*
X204207546Y-122487546D01*
X204293796Y-122372331D01*
X204344091Y-122237483D01*
X204350500Y-122177873D01*
X204350499Y-121344383D01*
X204350971Y-121333576D01*
X204355659Y-121280000D01*
X204355659Y-121279999D01*
X204350971Y-121226421D01*
X204350499Y-121215613D01*
X204350499Y-120382129D01*
X204350498Y-120382123D01*
X204350497Y-120382116D01*
X204344091Y-120322517D01*
X204297886Y-120198636D01*
X204293797Y-120187671D01*
X204293795Y-120187668D01*
X204267195Y-120152135D01*
X204216421Y-120084309D01*
X204192004Y-120018848D01*
X204206855Y-119950575D01*
X204216416Y-119935696D01*
X204293796Y-119832331D01*
X204344091Y-119697483D01*
X204350500Y-119637873D01*
X204350499Y-118804384D01*
X204350971Y-118793576D01*
X204355659Y-118740000D01*
X204355659Y-118739999D01*
X204350971Y-118686421D01*
X204350499Y-118675613D01*
X204350499Y-117842129D01*
X204350498Y-117842123D01*
X204350497Y-117842116D01*
X204344091Y-117782517D01*
X204337649Y-117765246D01*
X204293797Y-117647671D01*
X204293793Y-117647664D01*
X204207547Y-117532455D01*
X204207544Y-117532452D01*
X204092335Y-117446206D01*
X204092328Y-117446202D01*
X203957482Y-117395908D01*
X203957483Y-117395908D01*
X203897883Y-117389501D01*
X203897881Y-117389500D01*
X203897873Y-117389500D01*
X203897865Y-117389500D01*
X203064380Y-117389500D01*
X203053573Y-117389028D01*
X203021580Y-117386229D01*
X203000001Y-117384341D01*
X202999998Y-117384341D01*
X202946424Y-117389028D01*
X202935617Y-117389500D01*
X200302129Y-117389500D01*
X200302123Y-117389501D01*
X200242516Y-117395908D01*
X200107671Y-117446202D01*
X200107664Y-117446206D01*
X199992455Y-117532452D01*
X199992452Y-117532455D01*
X199906206Y-117647664D01*
X199906202Y-117647671D01*
X199855908Y-117782517D01*
X199850612Y-117831784D01*
X199849501Y-117842123D01*
X199849500Y-117842135D01*
X162992063Y-117842135D01*
X162991394Y-117839203D01*
X162991393Y-117839202D01*
X162991391Y-117839190D01*
X162894169Y-117591473D01*
X162894168Y-117591472D01*
X162894169Y-117591472D01*
X162845466Y-117507117D01*
X162761112Y-117361013D01*
X162595194Y-117152957D01*
X162585220Y-117143703D01*
X162516723Y-117080147D01*
X162400119Y-116971955D01*
X162392147Y-116966520D01*
X162180250Y-116822050D01*
X162180239Y-116822043D01*
X162082552Y-116775000D01*
X215564540Y-116775000D01*
X215584326Y-116963256D01*
X215584327Y-116963259D01*
X215642818Y-117143277D01*
X215642821Y-117143284D01*
X215737467Y-117307216D01*
X215811131Y-117389028D01*
X215864129Y-117447888D01*
X216017265Y-117559148D01*
X216017270Y-117559151D01*
X216190192Y-117636142D01*
X216190197Y-117636144D01*
X216375354Y-117675500D01*
X216434548Y-117675500D01*
X216501587Y-117695185D01*
X216522229Y-117711819D01*
X219393181Y-120582771D01*
X219426666Y-120644094D01*
X219429500Y-120670452D01*
X219429500Y-121215616D01*
X219429028Y-121226423D01*
X219424341Y-121279997D01*
X219424341Y-121280002D01*
X219429028Y-121333576D01*
X219429500Y-121344383D01*
X219429500Y-122177870D01*
X219429501Y-122177876D01*
X219435908Y-122237483D01*
X219486202Y-122372328D01*
X219486206Y-122372335D01*
X219572452Y-122487544D01*
X219572455Y-122487547D01*
X219687664Y-122573793D01*
X219687671Y-122573797D01*
X219822517Y-122624091D01*
X219822516Y-122624091D01*
X219829444Y-122624835D01*
X219882127Y-122630500D01*
X220715616Y-122630499D01*
X220726425Y-122630971D01*
X220780000Y-122635659D01*
X220833575Y-122630971D01*
X220844384Y-122630499D01*
X223477871Y-122630499D01*
X223477872Y-122630499D01*
X223537483Y-122624091D01*
X223672331Y-122573796D01*
X223787546Y-122487546D01*
X223873796Y-122372331D01*
X223924091Y-122237483D01*
X223930500Y-122177873D01*
X223930499Y-120382128D01*
X223924091Y-120322517D01*
X223877886Y-120198636D01*
X223873797Y-120187671D01*
X223873795Y-120187668D01*
X223847195Y-120152135D01*
X223796421Y-120084309D01*
X223772004Y-120018848D01*
X223786855Y-119950575D01*
X223796416Y-119935696D01*
X223873796Y-119832331D01*
X223924091Y-119697483D01*
X223930500Y-119637873D01*
X223930499Y-117842128D01*
X223924091Y-117782517D01*
X223917649Y-117765246D01*
X223873797Y-117647671D01*
X223873793Y-117647664D01*
X223787547Y-117532455D01*
X223787544Y-117532452D01*
X223672335Y-117446206D01*
X223672328Y-117446202D01*
X223537482Y-117395908D01*
X223537483Y-117395908D01*
X223477883Y-117389501D01*
X223477881Y-117389500D01*
X223477873Y-117389500D01*
X223477865Y-117389500D01*
X220844385Y-117389500D01*
X220833578Y-117389028D01*
X220780001Y-117384341D01*
X220779997Y-117384341D01*
X220726419Y-117389028D01*
X220715613Y-117389500D01*
X219951500Y-117389500D01*
X219884461Y-117369815D01*
X219838706Y-117317011D01*
X219827500Y-117265500D01*
X219827500Y-115134499D01*
X219847185Y-115067460D01*
X219899989Y-115021705D01*
X219951495Y-115010499D01*
X220715616Y-115010499D01*
X220726425Y-115010971D01*
X220780000Y-115015659D01*
X220833575Y-115010971D01*
X220844384Y-115010499D01*
X223477871Y-115010499D01*
X223477872Y-115010499D01*
X223537483Y-115004091D01*
X223672331Y-114953796D01*
X223787546Y-114867546D01*
X223873796Y-114752331D01*
X223924091Y-114617483D01*
X223930500Y-114557873D01*
X223930499Y-112762128D01*
X223924091Y-112702517D01*
X223908420Y-112660500D01*
X223870697Y-112559359D01*
X223872275Y-112558770D01*
X223859630Y-112500662D01*
X223884043Y-112435196D01*
X223939974Y-112393321D01*
X223983315Y-112385500D01*
X226626252Y-112385500D01*
X226693291Y-112405185D01*
X226718400Y-112426526D01*
X226724126Y-112432885D01*
X226724130Y-112432889D01*
X226877265Y-112544148D01*
X226877270Y-112544151D01*
X227050192Y-112621142D01*
X227050197Y-112621144D01*
X227235354Y-112660500D01*
X227235355Y-112660500D01*
X227424644Y-112660500D01*
X227424646Y-112660500D01*
X227609803Y-112621144D01*
X227782730Y-112544151D01*
X227782733Y-112544148D01*
X227788363Y-112540899D01*
X227789904Y-112543569D01*
X227842948Y-112524415D01*
X227911062Y-112539980D01*
X227959948Y-112589900D01*
X227974500Y-112648185D01*
X227974500Y-119314611D01*
X227998535Y-119435444D01*
X227998540Y-119435461D01*
X228045685Y-119549280D01*
X228045687Y-119549283D01*
X228045688Y-119549286D01*
X228063205Y-119575502D01*
X228079914Y-119600507D01*
X228079915Y-119600509D01*
X228114141Y-119651733D01*
X228205586Y-119743178D01*
X228205608Y-119743198D01*
X230397016Y-121934606D01*
X230397045Y-121934637D01*
X230487263Y-122024855D01*
X230487267Y-122024858D01*
X230589707Y-122093307D01*
X230589713Y-122093310D01*
X230589714Y-122093311D01*
X230703548Y-122140463D01*
X230732436Y-122146209D01*
X230758497Y-122151393D01*
X230758517Y-122151396D01*
X230758539Y-122151401D01*
X230824391Y-122164499D01*
X230824392Y-122164500D01*
X230824393Y-122164500D01*
X230824394Y-122164500D01*
X238088572Y-122164500D01*
X238155611Y-122184185D01*
X238157464Y-122185399D01*
X238209709Y-122220309D01*
X238209718Y-122220314D01*
X238323538Y-122267459D01*
X238323542Y-122267460D01*
X238323549Y-122267463D01*
X238444388Y-122291499D01*
X238444392Y-122291500D01*
X238444393Y-122291500D01*
X238567608Y-122291500D01*
X238567609Y-122291499D01*
X238688451Y-122267463D01*
X238802286Y-122220312D01*
X238904733Y-122151857D01*
X241141772Y-119914819D01*
X241203095Y-119881334D01*
X241229453Y-119878500D01*
X245662154Y-119878500D01*
X245729193Y-119898185D01*
X245774948Y-119950989D01*
X245784892Y-120020147D01*
X245774537Y-120054903D01*
X245769107Y-120066547D01*
X245769104Y-120066554D01*
X245711930Y-120279929D01*
X245711929Y-120279937D01*
X245692677Y-120499997D01*
X245692677Y-120500002D01*
X245711929Y-120720062D01*
X245711930Y-120720070D01*
X245769104Y-120933445D01*
X245769105Y-120933447D01*
X245769106Y-120933450D01*
X245848436Y-121103574D01*
X245862466Y-121133662D01*
X245862468Y-121133666D01*
X245989170Y-121314615D01*
X245989175Y-121314621D01*
X246145378Y-121470824D01*
X246145384Y-121470829D01*
X246326333Y-121597531D01*
X246326335Y-121597532D01*
X246326338Y-121597534D01*
X246526550Y-121690894D01*
X246739932Y-121748070D01*
X246897123Y-121761822D01*
X246959998Y-121767323D01*
X246960000Y-121767323D01*
X246960002Y-121767323D01*
X247015017Y-121762509D01*
X247180068Y-121748070D01*
X247393450Y-121690894D01*
X247593662Y-121597534D01*
X247774620Y-121470826D01*
X247930826Y-121314620D01*
X248057534Y-121133662D01*
X248117618Y-121004811D01*
X248163790Y-120952371D01*
X248230983Y-120933219D01*
X248297865Y-120953435D01*
X248342382Y-121004811D01*
X248402464Y-121133658D01*
X248402468Y-121133666D01*
X248529170Y-121314615D01*
X248529175Y-121314621D01*
X248685378Y-121470824D01*
X248685384Y-121470829D01*
X248866333Y-121597531D01*
X248866335Y-121597532D01*
X248866338Y-121597534D01*
X249066550Y-121690894D01*
X249279932Y-121748070D01*
X249437123Y-121761822D01*
X249499998Y-121767323D01*
X249500000Y-121767323D01*
X249500002Y-121767323D01*
X249555017Y-121762509D01*
X249720068Y-121748070D01*
X249933450Y-121690894D01*
X250133662Y-121597534D01*
X250314620Y-121470826D01*
X250470826Y-121314620D01*
X250597534Y-121133662D01*
X250657618Y-121004811D01*
X250703790Y-120952371D01*
X250770983Y-120933219D01*
X250837865Y-120953435D01*
X250882382Y-121004811D01*
X250942464Y-121133658D01*
X250942468Y-121133666D01*
X251069170Y-121314615D01*
X251069175Y-121314621D01*
X251225378Y-121470824D01*
X251225384Y-121470829D01*
X251406333Y-121597531D01*
X251406335Y-121597532D01*
X251406338Y-121597534D01*
X251606550Y-121690894D01*
X251819932Y-121748070D01*
X251977123Y-121761822D01*
X252039998Y-121767323D01*
X252040000Y-121767323D01*
X252040002Y-121767323D01*
X252095017Y-121762509D01*
X252260068Y-121748070D01*
X252473450Y-121690894D01*
X252673662Y-121597534D01*
X252854620Y-121470826D01*
X253010826Y-121314620D01*
X253137534Y-121133662D01*
X253197618Y-121004811D01*
X253243790Y-120952371D01*
X253310983Y-120933219D01*
X253377865Y-120953435D01*
X253422382Y-121004811D01*
X253482464Y-121133658D01*
X253482468Y-121133666D01*
X253609170Y-121314615D01*
X253609175Y-121314621D01*
X253765378Y-121470824D01*
X253765384Y-121470829D01*
X253946333Y-121597531D01*
X253946335Y-121597532D01*
X253946338Y-121597534D01*
X254146550Y-121690894D01*
X254359932Y-121748070D01*
X254517123Y-121761822D01*
X254579998Y-121767323D01*
X254580000Y-121767323D01*
X254580002Y-121767323D01*
X254635017Y-121762509D01*
X254800068Y-121748070D01*
X255013450Y-121690894D01*
X255213662Y-121597534D01*
X255394620Y-121470826D01*
X255550826Y-121314620D01*
X255677534Y-121133662D01*
X255737618Y-121004811D01*
X255783790Y-120952371D01*
X255850983Y-120933219D01*
X255917865Y-120953435D01*
X255962382Y-121004811D01*
X256022464Y-121133658D01*
X256022468Y-121133666D01*
X256149170Y-121314615D01*
X256149175Y-121314621D01*
X256305378Y-121470824D01*
X256305384Y-121470829D01*
X256486333Y-121597531D01*
X256486335Y-121597532D01*
X256486338Y-121597534D01*
X256686550Y-121690894D01*
X256899932Y-121748070D01*
X257057123Y-121761822D01*
X257119998Y-121767323D01*
X257120000Y-121767323D01*
X257120002Y-121767323D01*
X257175017Y-121762509D01*
X257340068Y-121748070D01*
X257553450Y-121690894D01*
X257753662Y-121597534D01*
X257934620Y-121470826D01*
X258090826Y-121314620D01*
X258217534Y-121133662D01*
X258310894Y-120933450D01*
X258368070Y-120720068D01*
X258383511Y-120543569D01*
X258387323Y-120500002D01*
X258387323Y-120499997D01*
X258375552Y-120365455D01*
X258368070Y-120279932D01*
X258310894Y-120066550D01*
X258217534Y-119866339D01*
X258140417Y-119756204D01*
X258090827Y-119685381D01*
X258043310Y-119637864D01*
X257934620Y-119529174D01*
X257934616Y-119529171D01*
X257934615Y-119529170D01*
X257753666Y-119402468D01*
X257753657Y-119402464D01*
X257697093Y-119376087D01*
X257644655Y-119329915D01*
X257625500Y-119263706D01*
X257625500Y-118859481D01*
X257645185Y-118792442D01*
X257684404Y-118753942D01*
X257685295Y-118753392D01*
X257698350Y-118745340D01*
X257820340Y-118623350D01*
X257910908Y-118476516D01*
X257965174Y-118312753D01*
X257975500Y-118211677D01*
X257975499Y-117613324D01*
X257965174Y-117512247D01*
X257910908Y-117348484D01*
X257820340Y-117201650D01*
X257706371Y-117087681D01*
X257672886Y-117026358D01*
X257677870Y-116956666D01*
X257706371Y-116912319D01*
X257751380Y-116867310D01*
X257820340Y-116798350D01*
X257910908Y-116651516D01*
X257965174Y-116487753D01*
X257975500Y-116386677D01*
X257975499Y-115788324D01*
X257965174Y-115687247D01*
X257910908Y-115523484D01*
X257820340Y-115376650D01*
X257698350Y-115254660D01*
X257551516Y-115164092D01*
X257387753Y-115109826D01*
X257387751Y-115109825D01*
X257286678Y-115099500D01*
X256713330Y-115099500D01*
X256713312Y-115099501D01*
X256612247Y-115109825D01*
X256448484Y-115164092D01*
X256448481Y-115164093D01*
X256301648Y-115254661D01*
X256179661Y-115376648D01*
X256089093Y-115523481D01*
X256089092Y-115523484D01*
X256034826Y-115687247D01*
X256034826Y-115687248D01*
X256034825Y-115687248D01*
X256024500Y-115788315D01*
X256024500Y-116127046D01*
X256004815Y-116194085D01*
X255988182Y-116214727D01*
X255897729Y-116305181D01*
X255836406Y-116338666D01*
X255810047Y-116341500D01*
X255599500Y-116341500D01*
X255532461Y-116321815D01*
X255486706Y-116269011D01*
X255475500Y-116217500D01*
X255475499Y-115700830D01*
X255475498Y-115700812D01*
X255465174Y-115599747D01*
X255454990Y-115569014D01*
X255410908Y-115435984D01*
X255320340Y-115289150D01*
X255198350Y-115167160D01*
X255105395Y-115109825D01*
X255051518Y-115076593D01*
X255051513Y-115076591D01*
X255050069Y-115076112D01*
X254887753Y-115022326D01*
X254887751Y-115022325D01*
X254786684Y-115012000D01*
X254786677Y-115012000D01*
X254447952Y-115012000D01*
X254380913Y-114992315D01*
X254360271Y-114975681D01*
X254306198Y-114921608D01*
X254306178Y-114921586D01*
X254214736Y-114830144D01*
X254214728Y-114830138D01*
X254155057Y-114790267D01*
X254155055Y-114790266D01*
X254112286Y-114761688D01*
X254112287Y-114761688D01*
X254112285Y-114761687D01*
X254072039Y-114745017D01*
X254031792Y-114728347D01*
X253998452Y-114714537D01*
X253998444Y-114714535D01*
X253892513Y-114693464D01*
X253892512Y-114693464D01*
X253877611Y-114690500D01*
X253877607Y-114690500D01*
X253877606Y-114690500D01*
X232720452Y-114690500D01*
X232653413Y-114670815D01*
X232632771Y-114654181D01*
X231801819Y-113823229D01*
X231768334Y-113761906D01*
X231765500Y-113735548D01*
X231765500Y-107237741D01*
X231765501Y-107237720D01*
X231765501Y-107108391D01*
X231741464Y-106987552D01*
X231741461Y-106987542D01*
X231736799Y-106976289D01*
X231736796Y-106976283D01*
X231697112Y-106880476D01*
X231694312Y-106873715D01*
X231694311Y-106873713D01*
X231694310Y-106873711D01*
X231625858Y-106771267D01*
X231625855Y-106771263D01*
X230792145Y-105937554D01*
X230758660Y-105876231D01*
X230763644Y-105806540D01*
X230805516Y-105750606D01*
X230829393Y-105736593D01*
X230830730Y-105735998D01*
X230983871Y-105624735D01*
X230988800Y-105619261D01*
X230989600Y-105618373D01*
X231049087Y-105581726D01*
X231081748Y-105577347D01*
X232929759Y-105577347D01*
X232929760Y-105577347D01*
X232965824Y-105570173D01*
X233035411Y-105576399D01*
X233090590Y-105619261D01*
X233113334Y-105678822D01*
X233114326Y-105688255D01*
X233114326Y-105688257D01*
X233172818Y-105868277D01*
X233172821Y-105868284D01*
X233267467Y-106032216D01*
X233369185Y-106145185D01*
X233394129Y-106172888D01*
X233547265Y-106284148D01*
X233547270Y-106284151D01*
X233720192Y-106361142D01*
X233720197Y-106361144D01*
X233905354Y-106400500D01*
X233905355Y-106400500D01*
X234094644Y-106400500D01*
X234094646Y-106400500D01*
X234279803Y-106361144D01*
X234452730Y-106284151D01*
X234605871Y-106172888D01*
X234608788Y-106169647D01*
X234611600Y-106166526D01*
X234671087Y-106129879D01*
X234703748Y-106125500D01*
X235796252Y-106125500D01*
X235863291Y-106145185D01*
X235888400Y-106166526D01*
X235894126Y-106172885D01*
X235894127Y-106172887D01*
X235894130Y-106172889D01*
X235902999Y-106179332D01*
X235945665Y-106234661D01*
X235951646Y-106304274D01*
X235919041Y-106366070D01*
X235917796Y-106367332D01*
X235884757Y-106400371D01*
X235823434Y-106433856D01*
X235771298Y-106433980D01*
X235679646Y-106414500D01*
X235490354Y-106414500D01*
X235478602Y-106416998D01*
X235305197Y-106453855D01*
X235305192Y-106453857D01*
X235132270Y-106530848D01*
X235132265Y-106530851D01*
X234979129Y-106642111D01*
X234852466Y-106782785D01*
X234757821Y-106946715D01*
X234757818Y-106946722D01*
X234706120Y-107105834D01*
X234699326Y-107126744D01*
X234679540Y-107315000D01*
X234699326Y-107503256D01*
X234699327Y-107503259D01*
X234757818Y-107683277D01*
X234757821Y-107683284D01*
X234852467Y-107847216D01*
X234900486Y-107900546D01*
X234979129Y-107987888D01*
X235132265Y-108099148D01*
X235132270Y-108099151D01*
X235305191Y-108176142D01*
X235305193Y-108176142D01*
X235305197Y-108176144D01*
X235425318Y-108201676D01*
X235486796Y-108234867D01*
X235520573Y-108296029D01*
X235522855Y-108310004D01*
X235524825Y-108328754D01*
X235583318Y-108508777D01*
X235583321Y-108508784D01*
X235677967Y-108672716D01*
X235760743Y-108764648D01*
X235804629Y-108813388D01*
X235913060Y-108892168D01*
X235945116Y-108933739D01*
X235946240Y-108933066D01*
X235952000Y-108942666D01*
X235955726Y-108947498D01*
X235956018Y-108949363D01*
X235966000Y-108965999D01*
X235966000Y-108966000D01*
X236582146Y-109992910D01*
X236599137Y-110043743D01*
X236614326Y-110188257D01*
X236614327Y-110188260D01*
X236672818Y-110368277D01*
X236672821Y-110368284D01*
X236767467Y-110532216D01*
X236894129Y-110672888D01*
X237047265Y-110784148D01*
X237047270Y-110784151D01*
X237220192Y-110861142D01*
X237220197Y-110861144D01*
X237352239Y-110889210D01*
X237413721Y-110922402D01*
X237447497Y-110983565D01*
X237442845Y-111053280D01*
X237401241Y-111109412D01*
X237335893Y-111134141D01*
X237326458Y-111134500D01*
X235018748Y-111134500D01*
X234951709Y-111114815D01*
X234926600Y-111093474D01*
X234920873Y-111087114D01*
X234920869Y-111087110D01*
X234767734Y-110975851D01*
X234767729Y-110975848D01*
X234594807Y-110898857D01*
X234594802Y-110898855D01*
X234417380Y-110861144D01*
X234409646Y-110859500D01*
X234220354Y-110859500D01*
X234212620Y-110861144D01*
X234035197Y-110898855D01*
X234035192Y-110898857D01*
X233862270Y-110975848D01*
X233862265Y-110975851D01*
X233709129Y-111087111D01*
X233582466Y-111227785D01*
X233487821Y-111391715D01*
X233487818Y-111391722D01*
X233446550Y-111518733D01*
X233429326Y-111571744D01*
X233409540Y-111760000D01*
X233429326Y-111948256D01*
X233429327Y-111948259D01*
X233487818Y-112128277D01*
X233487821Y-112128284D01*
X233582467Y-112292216D01*
X233673503Y-112393321D01*
X233709129Y-112432888D01*
X233862265Y-112544148D01*
X233862270Y-112544151D01*
X234035192Y-112621142D01*
X234035197Y-112621144D01*
X234220354Y-112660500D01*
X234220355Y-112660500D01*
X234409644Y-112660500D01*
X234409646Y-112660500D01*
X234594803Y-112621144D01*
X234767730Y-112544151D01*
X234920871Y-112432888D01*
X234923788Y-112429647D01*
X234926600Y-112426526D01*
X234986087Y-112389879D01*
X235018748Y-112385500D01*
X240543886Y-112385500D01*
X240610925Y-112405185D01*
X240656680Y-112457989D01*
X240666624Y-112527147D01*
X240661817Y-112547819D01*
X240661117Y-112549972D01*
X240661116Y-112549975D01*
X240648144Y-112589900D01*
X240600290Y-112737173D01*
X240569500Y-112931577D01*
X240569500Y-113128422D01*
X240600290Y-113322826D01*
X240661117Y-113510029D01*
X240740189Y-113665215D01*
X240750476Y-113685405D01*
X240866172Y-113844646D01*
X241005354Y-113983828D01*
X241164595Y-114099524D01*
X241224257Y-114129923D01*
X241339970Y-114188882D01*
X241339972Y-114188882D01*
X241339975Y-114188884D01*
X241418231Y-114214311D01*
X241527173Y-114249709D01*
X241721578Y-114280500D01*
X241721583Y-114280500D01*
X243418422Y-114280500D01*
X243612826Y-114249709D01*
X243800025Y-114188884D01*
X243975405Y-114099524D01*
X244134646Y-113983828D01*
X244273828Y-113844646D01*
X244389524Y-113685405D01*
X244478884Y-113510025D01*
X244539709Y-113322826D01*
X244570500Y-113128422D01*
X244570500Y-112931577D01*
X244539709Y-112737173D01*
X244514796Y-112660500D01*
X244511401Y-112650054D01*
X244509406Y-112580215D01*
X244545486Y-112520382D01*
X244608187Y-112489553D01*
X244677601Y-112497517D01*
X244702214Y-112511416D01*
X244714555Y-112520382D01*
X244747270Y-112544151D01*
X244920192Y-112621142D01*
X244920197Y-112621144D01*
X245105354Y-112660500D01*
X245105355Y-112660500D01*
X245294644Y-112660500D01*
X245294646Y-112660500D01*
X245479803Y-112621144D01*
X245652730Y-112544151D01*
X245805871Y-112432888D01*
X245932533Y-112292216D01*
X246027179Y-112128284D01*
X246085674Y-111948256D01*
X246105460Y-111760000D01*
X246085674Y-111571744D01*
X246027179Y-111391716D01*
X245932533Y-111227784D01*
X245805871Y-111087112D01*
X245805870Y-111087111D01*
X245652734Y-110975851D01*
X245652729Y-110975848D01*
X245479807Y-110898857D01*
X245479802Y-110898855D01*
X245302380Y-110861144D01*
X245294646Y-110859500D01*
X245105354Y-110859500D01*
X245097620Y-110861144D01*
X244920197Y-110898855D01*
X244920192Y-110898857D01*
X244747270Y-110975848D01*
X244747265Y-110975851D01*
X244594130Y-111087110D01*
X244594126Y-111087114D01*
X244588400Y-111093474D01*
X244528913Y-111130121D01*
X244496252Y-111134500D01*
X237673542Y-111134500D01*
X237606503Y-111114815D01*
X237560748Y-111062011D01*
X237550804Y-110992853D01*
X237579829Y-110929297D01*
X237638607Y-110891523D01*
X237647757Y-110889210D01*
X237779803Y-110861144D01*
X237952730Y-110784151D01*
X238105871Y-110672888D01*
X238232533Y-110532216D01*
X238327179Y-110368284D01*
X238385674Y-110188256D01*
X238403321Y-110020345D01*
X238429905Y-109955732D01*
X238438952Y-109945636D01*
X239447771Y-108936819D01*
X239509094Y-108903334D01*
X239535452Y-108900500D01*
X239594644Y-108900500D01*
X239594646Y-108900500D01*
X239779803Y-108861144D01*
X239952730Y-108784151D01*
X240105871Y-108672888D01*
X240232533Y-108532216D01*
X240327179Y-108368284D01*
X240366185Y-108248233D01*
X240405622Y-108190559D01*
X240469980Y-108163360D01*
X240538827Y-108175274D01*
X240590303Y-108222518D01*
X240602047Y-108248233D01*
X240661117Y-108430029D01*
X240750476Y-108605405D01*
X240866172Y-108764646D01*
X241005354Y-108903828D01*
X241164595Y-109019524D01*
X241193601Y-109034303D01*
X241339970Y-109108882D01*
X241339972Y-109108882D01*
X241339975Y-109108884D01*
X241383709Y-109123094D01*
X241527173Y-109169709D01*
X241721578Y-109200500D01*
X241721583Y-109200500D01*
X243418422Y-109200500D01*
X243612826Y-109169709D01*
X243800025Y-109108884D01*
X243975405Y-109019524D01*
X244134646Y-108903828D01*
X244273828Y-108764646D01*
X244389524Y-108605405D01*
X244478884Y-108430025D01*
X244539709Y-108242826D01*
X244541596Y-108230909D01*
X244570500Y-108048422D01*
X244570500Y-107851577D01*
X244539709Y-107657173D01*
X244502008Y-107541144D01*
X244478884Y-107469975D01*
X244478881Y-107469971D01*
X244478881Y-107469968D01*
X244478155Y-107468215D01*
X244478077Y-107467495D01*
X244477378Y-107465342D01*
X244477830Y-107465194D01*
X244470689Y-107398745D01*
X244501967Y-107336267D01*
X244562057Y-107300617D01*
X244568499Y-107299156D01*
X244597029Y-107293481D01*
X244657452Y-107281463D01*
X244707496Y-107260734D01*
X244771286Y-107234312D01*
X244822509Y-107200084D01*
X244873733Y-107165858D01*
X244960858Y-107078733D01*
X244960859Y-107078731D01*
X244967925Y-107071665D01*
X244967928Y-107071661D01*
X245654547Y-106385041D01*
X245715868Y-106351558D01*
X245785560Y-106356542D01*
X245834375Y-106389750D01*
X245849649Y-106406713D01*
X245879879Y-106469705D01*
X245881500Y-106489687D01*
X245881500Y-108902312D01*
X245861815Y-108969351D01*
X245849650Y-108985284D01*
X245774466Y-109068784D01*
X245679821Y-109232715D01*
X245679818Y-109232722D01*
X245626024Y-109398284D01*
X245621326Y-109412744D01*
X245601540Y-109601000D01*
X245621326Y-109789256D01*
X245621327Y-109789259D01*
X245679818Y-109969277D01*
X245679821Y-109969284D01*
X245774467Y-110133216D01*
X245901129Y-110273888D01*
X246054265Y-110385148D01*
X246054270Y-110385151D01*
X246227192Y-110462142D01*
X246227197Y-110462144D01*
X246412354Y-110501500D01*
X246412355Y-110501500D01*
X246601644Y-110501500D01*
X246601646Y-110501500D01*
X246786803Y-110462144D01*
X246959730Y-110385151D01*
X247112871Y-110273888D01*
X247239533Y-110133216D01*
X247239534Y-110133212D01*
X247243355Y-110127956D01*
X247245242Y-110129327D01*
X247288090Y-110088460D01*
X247356695Y-110075226D01*
X247421564Y-110101183D01*
X247462102Y-110158091D01*
X247467703Y-110181281D01*
X247518183Y-110537776D01*
X247618419Y-110957456D01*
X247618422Y-110957464D01*
X247757500Y-111365864D01*
X247757507Y-111365881D01*
X247934225Y-111759479D01*
X247934234Y-111759497D01*
X248147031Y-112134816D01*
X248147036Y-112134824D01*
X248394035Y-112488555D01*
X248394044Y-112488567D01*
X248394046Y-112488570D01*
X248394048Y-112488572D01*
X248673105Y-112817641D01*
X248981750Y-113119134D01*
X248981754Y-113119137D01*
X248981759Y-113119142D01*
X248995720Y-113130429D01*
X249317271Y-113390400D01*
X249676719Y-113629055D01*
X249676726Y-113629059D01*
X249676725Y-113629059D01*
X250056925Y-113832997D01*
X250056934Y-113833001D01*
X250056936Y-113833002D01*
X250454581Y-114000449D01*
X250454594Y-114000453D01*
X250866152Y-114129923D01*
X251141419Y-114188882D01*
X251288051Y-114220289D01*
X251716552Y-114270751D01*
X252147895Y-114280866D01*
X252578290Y-114250544D01*
X253003955Y-114180053D01*
X253421149Y-114070012D01*
X253826205Y-113921387D01*
X254215563Y-113735486D01*
X254585803Y-113513941D01*
X254933670Y-113258700D01*
X255256108Y-112972006D01*
X255550282Y-112656378D01*
X255618628Y-112567668D01*
X255813601Y-112314599D01*
X255813606Y-112314592D01*
X255813608Y-112314590D01*
X256043771Y-111949646D01*
X256238748Y-111564752D01*
X256396828Y-111163292D01*
X256406415Y-111130121D01*
X256427947Y-111055613D01*
X256516619Y-110748792D01*
X256597069Y-110324897D01*
X256637472Y-109895331D01*
X256637472Y-109895315D01*
X256637473Y-109895302D01*
X256640000Y-109679600D01*
X256637473Y-109463897D01*
X256637472Y-109463883D01*
X256637472Y-109463869D01*
X256597069Y-109034303D01*
X256584742Y-108969351D01*
X256516620Y-108610412D01*
X256516619Y-108610411D01*
X256516619Y-108610408D01*
X256411950Y-108248233D01*
X256396830Y-108195913D01*
X256358729Y-108099151D01*
X256238748Y-107794448D01*
X256043771Y-107409554D01*
X255813608Y-107044610D01*
X255813606Y-107044607D01*
X255813601Y-107044600D01*
X255550290Y-106702831D01*
X255503836Y-106652989D01*
X255256108Y-106387194D01*
X255232350Y-106366070D01*
X254933670Y-106100500D01*
X254585807Y-105845261D01*
X254585801Y-105845257D01*
X254215567Y-105623716D01*
X254215561Y-105623713D01*
X253826209Y-105437814D01*
X253421148Y-105289187D01*
X253421141Y-105289185D01*
X253003961Y-105179148D01*
X253002777Y-105178952D01*
X252578290Y-105108656D01*
X252578288Y-105108655D01*
X252578285Y-105108655D01*
X252147906Y-105078334D01*
X252147902Y-105078334D01*
X252147896Y-105078334D01*
X252147895Y-105078334D01*
X252084526Y-105079819D01*
X251716554Y-105088448D01*
X251716552Y-105088448D01*
X251288051Y-105138910D01*
X250866152Y-105229276D01*
X250454594Y-105358746D01*
X250454582Y-105358750D01*
X250056943Y-105526194D01*
X250056925Y-105526202D01*
X249676725Y-105730140D01*
X249317280Y-105968793D01*
X249317258Y-105968810D01*
X248981759Y-106240057D01*
X248673104Y-106541560D01*
X248394044Y-106870632D01*
X248394035Y-106870644D01*
X248147036Y-107224375D01*
X248147031Y-107224383D01*
X247934234Y-107599702D01*
X247934225Y-107599720D01*
X247757507Y-107993318D01*
X247757500Y-107993335D01*
X247618422Y-108401735D01*
X247618419Y-108401743D01*
X247601257Y-108473599D01*
X247520103Y-108813388D01*
X247518184Y-108821422D01*
X247485578Y-109051681D01*
X247456689Y-109115298D01*
X247397991Y-109153197D01*
X247328122Y-109153346D01*
X247269263Y-109115697D01*
X247255415Y-109096293D01*
X247239533Y-109068784D01*
X247195178Y-109019523D01*
X247164350Y-108985284D01*
X247134120Y-108922292D01*
X247132500Y-108902312D01*
X247132500Y-106489687D01*
X247152185Y-106422648D01*
X247164350Y-106406715D01*
X247199810Y-106367332D01*
X247239533Y-106323216D01*
X247334179Y-106159284D01*
X247392674Y-105979256D01*
X247412460Y-105791000D01*
X247392674Y-105602744D01*
X247334179Y-105422716D01*
X247239533Y-105258784D01*
X247112871Y-105118112D01*
X247112870Y-105118111D01*
X247112869Y-105118110D01*
X247109263Y-105114863D01*
X247072615Y-105055376D01*
X247073946Y-104985519D01*
X247104553Y-104935035D01*
X249898729Y-102140860D01*
X249898733Y-102140858D01*
X249985858Y-102053733D01*
X250042141Y-101969500D01*
X250054312Y-101951286D01*
X250101463Y-101837451D01*
X250102667Y-101831401D01*
X250125500Y-101716606D01*
X250125500Y-98807799D01*
X250145185Y-98740760D01*
X250178377Y-98706224D01*
X250199098Y-98691715D01*
X250314620Y-98610826D01*
X250470826Y-98454620D01*
X250597534Y-98273662D01*
X250690894Y-98073450D01*
X250748070Y-97860068D01*
X250767323Y-97640000D01*
X250767323Y-97639997D01*
X253312677Y-97639997D01*
X253312677Y-97640002D01*
X253331929Y-97860062D01*
X253331930Y-97860070D01*
X253389104Y-98073445D01*
X253389105Y-98073447D01*
X253389106Y-98073450D01*
X253428665Y-98158284D01*
X253482466Y-98273662D01*
X253482468Y-98273666D01*
X253609170Y-98454615D01*
X253609175Y-98454621D01*
X253765378Y-98610824D01*
X253765384Y-98610829D01*
X253946333Y-98737531D01*
X253946335Y-98737532D01*
X253946338Y-98737534D01*
X254146550Y-98830894D01*
X254359932Y-98888070D01*
X254517123Y-98901822D01*
X254579998Y-98907323D01*
X254580000Y-98907323D01*
X254580002Y-98907323D01*
X254635017Y-98902509D01*
X254800068Y-98888070D01*
X255013450Y-98830894D01*
X255213662Y-98737534D01*
X255394620Y-98610826D01*
X255550826Y-98454620D01*
X255677534Y-98273662D01*
X255770894Y-98073450D01*
X255828070Y-97860068D01*
X255847323Y-97640000D01*
X255828070Y-97419932D01*
X255770894Y-97206550D01*
X255677534Y-97006339D01*
X255550826Y-96825380D01*
X255394620Y-96669174D01*
X255394616Y-96669171D01*
X255394615Y-96669170D01*
X255213666Y-96542468D01*
X255213662Y-96542466D01*
X255171224Y-96522677D01*
X255013450Y-96449106D01*
X255013447Y-96449105D01*
X255013445Y-96449104D01*
X254800070Y-96391930D01*
X254800062Y-96391929D01*
X254580002Y-96372677D01*
X254579998Y-96372677D01*
X254359937Y-96391929D01*
X254359929Y-96391930D01*
X254146554Y-96449104D01*
X254146548Y-96449107D01*
X253946340Y-96542465D01*
X253946338Y-96542466D01*
X253765377Y-96669175D01*
X253609175Y-96825377D01*
X253482466Y-97006338D01*
X253482465Y-97006340D01*
X253389107Y-97206548D01*
X253389104Y-97206554D01*
X253331930Y-97419929D01*
X253331929Y-97419937D01*
X253312677Y-97639997D01*
X250767323Y-97639997D01*
X250748070Y-97419932D01*
X250690894Y-97206550D01*
X250597534Y-97006339D01*
X250470826Y-96825380D01*
X250314620Y-96669174D01*
X250314616Y-96669171D01*
X250314615Y-96669170D01*
X250133666Y-96542468D01*
X250133662Y-96542466D01*
X250091224Y-96522677D01*
X249933450Y-96449106D01*
X249933447Y-96449105D01*
X249933445Y-96449104D01*
X249720070Y-96391930D01*
X249720062Y-96391929D01*
X249500002Y-96372677D01*
X249499998Y-96372677D01*
X249279937Y-96391929D01*
X249279929Y-96391930D01*
X249066554Y-96449104D01*
X249066548Y-96449107D01*
X248866340Y-96542465D01*
X248866338Y-96542466D01*
X248685377Y-96669175D01*
X248529175Y-96825377D01*
X248402466Y-97006338D01*
X248402465Y-97006340D01*
X248309107Y-97206548D01*
X248309104Y-97206554D01*
X248251930Y-97419929D01*
X248251929Y-97419937D01*
X248232677Y-97639997D01*
X248232677Y-97640002D01*
X248251929Y-97860062D01*
X248251930Y-97860070D01*
X248309104Y-98073445D01*
X248309105Y-98073447D01*
X248309106Y-98073450D01*
X248348665Y-98158284D01*
X248402466Y-98273662D01*
X248402468Y-98273666D01*
X248529170Y-98454615D01*
X248529174Y-98454620D01*
X248685380Y-98610826D01*
X248799166Y-98690500D01*
X248821623Y-98706224D01*
X248865248Y-98760801D01*
X248874500Y-98807799D01*
X248874500Y-101344548D01*
X248854815Y-101411587D01*
X248838181Y-101432229D01*
X247226681Y-103043729D01*
X247165358Y-103077214D01*
X247095666Y-103072230D01*
X247039733Y-103030358D01*
X247015316Y-102964894D01*
X247015000Y-102956048D01*
X247015000Y-99060000D01*
X246762110Y-99060000D01*
X246695071Y-99040315D01*
X246649316Y-98987511D01*
X246638790Y-98948964D01*
X246630674Y-98871744D01*
X246572179Y-98691716D01*
X246477533Y-98527784D01*
X246350871Y-98387112D01*
X246350870Y-98387111D01*
X246197734Y-98275851D01*
X246197729Y-98275848D01*
X246024807Y-98198857D01*
X246024802Y-98198855D01*
X245879001Y-98167865D01*
X245839646Y-98159500D01*
X245650354Y-98159500D01*
X245617897Y-98166398D01*
X245465197Y-98198855D01*
X245465192Y-98198857D01*
X245292270Y-98275848D01*
X245292265Y-98275851D01*
X245139129Y-98387111D01*
X245012466Y-98527785D01*
X244917821Y-98691715D01*
X244917818Y-98691722D01*
X244863296Y-98859525D01*
X244859326Y-98871744D01*
X244855587Y-98907323D01*
X244841678Y-99039651D01*
X244815093Y-99104266D01*
X244806038Y-99114370D01*
X244427122Y-99493286D01*
X244365799Y-99526771D01*
X244296107Y-99521787D01*
X244251760Y-99493286D01*
X244134648Y-99376174D01*
X244134646Y-99376172D01*
X244054392Y-99317864D01*
X243975403Y-99260474D01*
X243798787Y-99170485D01*
X243747990Y-99122511D01*
X243731195Y-99054690D01*
X243753732Y-98988555D01*
X243798787Y-98949515D01*
X243975403Y-98859525D01*
X243975402Y-98859525D01*
X243975405Y-98859524D01*
X244134646Y-98743828D01*
X244273828Y-98604646D01*
X244389524Y-98445405D01*
X244478884Y-98270025D01*
X244539709Y-98082826D01*
X244541195Y-98073445D01*
X244570500Y-97888422D01*
X244570500Y-97691577D01*
X244539709Y-97497173D01*
X244502008Y-97381142D01*
X244478884Y-97309975D01*
X244478882Y-97309972D01*
X244478882Y-97309970D01*
X244426186Y-97206548D01*
X244389524Y-97134595D01*
X244273828Y-96975354D01*
X244134646Y-96836172D01*
X244054392Y-96777864D01*
X243975403Y-96720474D01*
X243798787Y-96630485D01*
X243747990Y-96582511D01*
X243731195Y-96514690D01*
X243753732Y-96448555D01*
X243798787Y-96409515D01*
X243975403Y-96319525D01*
X243975402Y-96319525D01*
X243975405Y-96319524D01*
X244134646Y-96203828D01*
X244273828Y-96064646D01*
X244365137Y-95938971D01*
X244374115Y-95926614D01*
X244429446Y-95883949D01*
X244474433Y-95875500D01*
X245491519Y-95875500D01*
X245558558Y-95895185D01*
X245604313Y-95947989D01*
X245614839Y-96012458D01*
X245601540Y-96139000D01*
X245621326Y-96327256D01*
X245621327Y-96327259D01*
X245679818Y-96507277D01*
X245679821Y-96507284D01*
X245774467Y-96671216D01*
X245870511Y-96777883D01*
X245901129Y-96811888D01*
X246054265Y-96923148D01*
X246054270Y-96923151D01*
X246227192Y-97000142D01*
X246227197Y-97000144D01*
X246412354Y-97039500D01*
X246412355Y-97039500D01*
X246601644Y-97039500D01*
X246601646Y-97039500D01*
X246786803Y-97000144D01*
X246959730Y-96923151D01*
X247112871Y-96811888D01*
X247239533Y-96671216D01*
X247334179Y-96507284D01*
X247392674Y-96327256D01*
X247412460Y-96139000D01*
X247399160Y-96012459D01*
X247411730Y-95943732D01*
X247459462Y-95892708D01*
X247522481Y-95875500D01*
X247811608Y-95875500D01*
X247811608Y-95875499D01*
X247888476Y-95860210D01*
X247888477Y-95860210D01*
X247903268Y-95857267D01*
X247932452Y-95851463D01*
X247932457Y-95851460D01*
X247932460Y-95851460D01*
X247965787Y-95837654D01*
X247965786Y-95837654D01*
X247965792Y-95837652D01*
X248046286Y-95804312D01*
X248097509Y-95770084D01*
X248148733Y-95735858D01*
X248235858Y-95648733D01*
X248235859Y-95648731D01*
X248242925Y-95641665D01*
X248242927Y-95641661D01*
X249715301Y-94169288D01*
X249776622Y-94135805D01*
X249846314Y-94140789D01*
X249888463Y-94169466D01*
X249889299Y-94168539D01*
X249894130Y-94172889D01*
X250047265Y-94284148D01*
X250047270Y-94284151D01*
X250220192Y-94361142D01*
X250220197Y-94361144D01*
X250405354Y-94400500D01*
X250405355Y-94400500D01*
X250594644Y-94400500D01*
X250594646Y-94400500D01*
X250779803Y-94361144D01*
X250952730Y-94284151D01*
X251105871Y-94172888D01*
X251232533Y-94032216D01*
X251327179Y-93868284D01*
X251385674Y-93688256D01*
X251405460Y-93500000D01*
X251385674Y-93311744D01*
X251327179Y-93131716D01*
X251232533Y-92967784D01*
X251105871Y-92827112D01*
X251105870Y-92827111D01*
X250952734Y-92715851D01*
X250952729Y-92715848D01*
X250779807Y-92638857D01*
X250779802Y-92638855D01*
X250630938Y-92607214D01*
X250594646Y-92599500D01*
X250405354Y-92599500D01*
X250372897Y-92606398D01*
X250220197Y-92638855D01*
X250220192Y-92638857D01*
X250047270Y-92715848D01*
X250047265Y-92715851D01*
X249894130Y-92827110D01*
X249894126Y-92827114D01*
X249888400Y-92833474D01*
X249828913Y-92870121D01*
X249796252Y-92874500D01*
X249438389Y-92874500D01*
X249317553Y-92898535D01*
X249317541Y-92898539D01*
X249285262Y-92911909D01*
X249270397Y-92918067D01*
X249248169Y-92927274D01*
X249203713Y-92945688D01*
X249193557Y-92952475D01*
X249193449Y-92952547D01*
X249101268Y-93014140D01*
X249057705Y-93057703D01*
X249014142Y-93101267D01*
X249014139Y-93101270D01*
X247527229Y-94588181D01*
X247465906Y-94621666D01*
X247439548Y-94624500D01*
X244474433Y-94624500D01*
X244407394Y-94604815D01*
X244374115Y-94573386D01*
X244336668Y-94521846D01*
X244273828Y-94435354D01*
X244134646Y-94296172D01*
X244054392Y-94237864D01*
X243975403Y-94180474D01*
X243798787Y-94090485D01*
X243747990Y-94042511D01*
X243731195Y-93974690D01*
X243753732Y-93908555D01*
X243798787Y-93869515D01*
X243975403Y-93779525D01*
X243975402Y-93779525D01*
X243975405Y-93779524D01*
X244134646Y-93663828D01*
X244273828Y-93524646D01*
X244389524Y-93365405D01*
X244478884Y-93190025D01*
X244539709Y-93002826D01*
X244545259Y-92967784D01*
X244570500Y-92808422D01*
X244570500Y-92611577D01*
X244539709Y-92417173D01*
X244511487Y-92330317D01*
X244478884Y-92229975D01*
X244478882Y-92229972D01*
X244478882Y-92229970D01*
X244401881Y-92078848D01*
X244389524Y-92054595D01*
X244273828Y-91895354D01*
X244134646Y-91756172D01*
X244054392Y-91697864D01*
X243975403Y-91640474D01*
X243798787Y-91550485D01*
X243747990Y-91502511D01*
X243731195Y-91434690D01*
X243753732Y-91368555D01*
X243798787Y-91329515D01*
X243975403Y-91239525D01*
X243975402Y-91239525D01*
X243975405Y-91239524D01*
X244134646Y-91123828D01*
X244273828Y-90984646D01*
X244389524Y-90825405D01*
X244478884Y-90650025D01*
X244539709Y-90462826D01*
X244570500Y-90268422D01*
X244570500Y-90071577D01*
X244539709Y-89877173D01*
X244478882Y-89689970D01*
X244389523Y-89514594D01*
X244355341Y-89467547D01*
X244273828Y-89355354D01*
X244134646Y-89216172D01*
X244054392Y-89157864D01*
X243975403Y-89100474D01*
X243798787Y-89010485D01*
X243747990Y-88962511D01*
X243731195Y-88894690D01*
X243753732Y-88828555D01*
X243798787Y-88789515D01*
X243975403Y-88699525D01*
X243975402Y-88699525D01*
X243975405Y-88699524D01*
X244134646Y-88583828D01*
X244273828Y-88444646D01*
X244389524Y-88285405D01*
X244478884Y-88110025D01*
X244539709Y-87922826D01*
X244549816Y-87859011D01*
X244570500Y-87728422D01*
X244570500Y-87531577D01*
X244539709Y-87337173D01*
X244478882Y-87149970D01*
X244389523Y-86974594D01*
X244357541Y-86930575D01*
X244273828Y-86815354D01*
X244134646Y-86676172D01*
X244054392Y-86617864D01*
X243975403Y-86560474D01*
X243798787Y-86470485D01*
X243747990Y-86422511D01*
X243731195Y-86354690D01*
X243753732Y-86288555D01*
X243798787Y-86249515D01*
X243975403Y-86159525D01*
X243975402Y-86159525D01*
X243975405Y-86159524D01*
X244134646Y-86043828D01*
X244273828Y-85904646D01*
X244389524Y-85745405D01*
X244478884Y-85570025D01*
X244539709Y-85382826D01*
X244552273Y-85303500D01*
X244570500Y-85188422D01*
X244570500Y-84991577D01*
X244539709Y-84797173D01*
X244478882Y-84609970D01*
X244389523Y-84434594D01*
X244357541Y-84390575D01*
X244273828Y-84275354D01*
X244134646Y-84136172D01*
X244054392Y-84077864D01*
X243975403Y-84020474D01*
X243798787Y-83930485D01*
X243747990Y-83882511D01*
X243731195Y-83814690D01*
X243753732Y-83748555D01*
X243798787Y-83709515D01*
X243975403Y-83619525D01*
X243975402Y-83619525D01*
X243975405Y-83619524D01*
X244134646Y-83503828D01*
X244273828Y-83364646D01*
X244389524Y-83205405D01*
X244478884Y-83030025D01*
X244539709Y-82842826D01*
X244558742Y-82722656D01*
X244570500Y-82648422D01*
X244570500Y-82451577D01*
X244539709Y-82257173D01*
X244487610Y-82096832D01*
X244478884Y-82069975D01*
X244478882Y-82069972D01*
X244478882Y-82069970D01*
X244389523Y-81894594D01*
X244273828Y-81735354D01*
X244134646Y-81596172D01*
X244025937Y-81517190D01*
X243975403Y-81480474D01*
X243798787Y-81390485D01*
X243747990Y-81342511D01*
X243731195Y-81274690D01*
X243753732Y-81208555D01*
X243798787Y-81169515D01*
X243975403Y-81079525D01*
X243975402Y-81079525D01*
X243975405Y-81079524D01*
X244134646Y-80963828D01*
X244273828Y-80824646D01*
X244389524Y-80665405D01*
X244478884Y-80490025D01*
X244539709Y-80302826D01*
X244550968Y-80231739D01*
X244570500Y-80108422D01*
X244570500Y-79911577D01*
X244539709Y-79717173D01*
X244484633Y-79547669D01*
X244478884Y-79529975D01*
X244478882Y-79529972D01*
X244478882Y-79529970D01*
X244389523Y-79354594D01*
X244383429Y-79346206D01*
X244273828Y-79195354D01*
X244134646Y-79056172D01*
X243975405Y-78940476D01*
X243800029Y-78851117D01*
X243612826Y-78790290D01*
X243418422Y-78759500D01*
X243418417Y-78759500D01*
X241721583Y-78759500D01*
X241721578Y-78759500D01*
X241527173Y-78790290D01*
X241339970Y-78851117D01*
X241164594Y-78940476D01*
X241073741Y-79006485D01*
X241005354Y-79056172D01*
X241005352Y-79056174D01*
X241005351Y-79056174D01*
X240866174Y-79195351D01*
X240866174Y-79195352D01*
X240866172Y-79195354D01*
X240816485Y-79263741D01*
X240750476Y-79354594D01*
X240661117Y-79529970D01*
X240600290Y-79717173D01*
X240569500Y-79911577D01*
X240569500Y-80108422D01*
X240600290Y-80302826D01*
X240661117Y-80490029D01*
X240750476Y-80665405D01*
X240866172Y-80824646D01*
X241005354Y-80963828D01*
X241164595Y-81079524D01*
X241287992Y-81142397D01*
X241341213Y-81169515D01*
X241392009Y-81217489D01*
X241408804Y-81285310D01*
X241386267Y-81351445D01*
X241341213Y-81390485D01*
X241164594Y-81480476D01*
X241085595Y-81537873D01*
X241005354Y-81596172D01*
X241005352Y-81596174D01*
X241005351Y-81596174D01*
X240866174Y-81735351D01*
X240866174Y-81735352D01*
X240866172Y-81735354D01*
X240842264Y-81768261D01*
X240750476Y-81894594D01*
X240661117Y-82069970D01*
X240600290Y-82257173D01*
X240569500Y-82451577D01*
X240569500Y-82648422D01*
X240600290Y-82842826D01*
X240661117Y-83030029D01*
X240750476Y-83205405D01*
X240866172Y-83364646D01*
X241005354Y-83503828D01*
X241164595Y-83619524D01*
X241234435Y-83655109D01*
X241341213Y-83709515D01*
X241392009Y-83757489D01*
X241408804Y-83825310D01*
X241386267Y-83891445D01*
X241341213Y-83930485D01*
X241164594Y-84020476D01*
X241085595Y-84077873D01*
X241005354Y-84136172D01*
X241005352Y-84136174D01*
X241005351Y-84136174D01*
X240866174Y-84275351D01*
X240866174Y-84275352D01*
X240866172Y-84275354D01*
X240816485Y-84343741D01*
X240750476Y-84434594D01*
X240661117Y-84609970D01*
X240600290Y-84797173D01*
X240569500Y-84991577D01*
X240569500Y-85188422D01*
X240600290Y-85382826D01*
X240661117Y-85570029D01*
X240750476Y-85745405D01*
X240866172Y-85904646D01*
X241005354Y-86043828D01*
X241164595Y-86159524D01*
X241287992Y-86222397D01*
X241341213Y-86249515D01*
X241392009Y-86297489D01*
X241408804Y-86365310D01*
X241386267Y-86431445D01*
X241341213Y-86470485D01*
X241164594Y-86560476D01*
X241085595Y-86617873D01*
X241005354Y-86676172D01*
X241005352Y-86676174D01*
X241005351Y-86676174D01*
X240866174Y-86815351D01*
X240866174Y-86815352D01*
X240866172Y-86815354D01*
X240816485Y-86883741D01*
X240750476Y-86974594D01*
X240661117Y-87149970D01*
X240600290Y-87337173D01*
X240569500Y-87531577D01*
X240569500Y-87728422D01*
X240600290Y-87922826D01*
X240661117Y-88110029D01*
X240744771Y-88274208D01*
X240750476Y-88285405D01*
X240778795Y-88324383D01*
X240805853Y-88361624D01*
X240829333Y-88427430D01*
X240813508Y-88495484D01*
X240793216Y-88522191D01*
X228196969Y-101118437D01*
X228196929Y-101118480D01*
X228114139Y-101201270D01*
X228114138Y-101201272D01*
X228045690Y-101303708D01*
X228045689Y-101303710D01*
X228022898Y-101358732D01*
X228022899Y-101358733D01*
X227998536Y-101417549D01*
X227998535Y-101417555D01*
X227974500Y-101538389D01*
X227974500Y-102728382D01*
X227954815Y-102795421D01*
X227902011Y-102841176D01*
X227832965Y-102851136D01*
X227725440Y-102835776D01*
X227661857Y-102806809D01*
X227655294Y-102800703D01*
X223966818Y-99112227D01*
X223933333Y-99050904D01*
X223930499Y-99024546D01*
X223930499Y-97522129D01*
X223930498Y-97522123D01*
X223930497Y-97522116D01*
X223924091Y-97462517D01*
X223908875Y-97421722D01*
X223873797Y-97327671D01*
X223873795Y-97327668D01*
X223860550Y-97309975D01*
X223796421Y-97224309D01*
X223772004Y-97158848D01*
X223786855Y-97090575D01*
X223796416Y-97075696D01*
X223873796Y-96972331D01*
X223924091Y-96837483D01*
X223930500Y-96777873D01*
X223930499Y-94982128D01*
X223924091Y-94922517D01*
X223884569Y-94816554D01*
X223873797Y-94787671D01*
X223873795Y-94787668D01*
X223796421Y-94684309D01*
X223772004Y-94618848D01*
X223786855Y-94550575D01*
X223796416Y-94535696D01*
X223873796Y-94432331D01*
X223924091Y-94297483D01*
X223930500Y-94237873D01*
X223930499Y-92442128D01*
X223924091Y-92382517D01*
X223884569Y-92276554D01*
X223873797Y-92247671D01*
X223873793Y-92247664D01*
X223787547Y-92132455D01*
X223787544Y-92132452D01*
X223710799Y-92075000D01*
X228964540Y-92075000D01*
X228984326Y-92263256D01*
X228984327Y-92263259D01*
X229042818Y-92443277D01*
X229042821Y-92443284D01*
X229137467Y-92607216D01*
X229230016Y-92710002D01*
X229264129Y-92747888D01*
X229417265Y-92859148D01*
X229417270Y-92859151D01*
X229590192Y-92936142D01*
X229590197Y-92936144D01*
X229775354Y-92975500D01*
X229775355Y-92975500D01*
X229964644Y-92975500D01*
X229964646Y-92975500D01*
X230149803Y-92936144D01*
X230322730Y-92859151D01*
X230475871Y-92747888D01*
X230478788Y-92744647D01*
X230481600Y-92741526D01*
X230541087Y-92704879D01*
X230573748Y-92700500D01*
X231071252Y-92700500D01*
X231138291Y-92720185D01*
X231163400Y-92741526D01*
X231169126Y-92747885D01*
X231169130Y-92747889D01*
X231322265Y-92859148D01*
X231322270Y-92859151D01*
X231495192Y-92936142D01*
X231495197Y-92936144D01*
X231680354Y-92975500D01*
X231680355Y-92975500D01*
X231869644Y-92975500D01*
X231869646Y-92975500D01*
X232054803Y-92936144D01*
X232227730Y-92859151D01*
X232380871Y-92747888D01*
X232507533Y-92607216D01*
X232602179Y-92443284D01*
X232660674Y-92263256D01*
X232680460Y-92075000D01*
X232660674Y-91886744D01*
X232602179Y-91706716D01*
X232507533Y-91542784D01*
X232380871Y-91402112D01*
X232380870Y-91402111D01*
X232227734Y-91290851D01*
X232227729Y-91290848D01*
X232054807Y-91213857D01*
X232054802Y-91213855D01*
X231909001Y-91182865D01*
X231869646Y-91174500D01*
X231680354Y-91174500D01*
X231647897Y-91181398D01*
X231495197Y-91213855D01*
X231495192Y-91213857D01*
X231322270Y-91290848D01*
X231322265Y-91290851D01*
X231169130Y-91402110D01*
X231169126Y-91402114D01*
X231163400Y-91408474D01*
X231103913Y-91445121D01*
X231071252Y-91449500D01*
X230573748Y-91449500D01*
X230506709Y-91429815D01*
X230481600Y-91408474D01*
X230475873Y-91402114D01*
X230475869Y-91402110D01*
X230322734Y-91290851D01*
X230322729Y-91290848D01*
X230149807Y-91213857D01*
X230149802Y-91213855D01*
X230004001Y-91182865D01*
X229964646Y-91174500D01*
X229775354Y-91174500D01*
X229742897Y-91181398D01*
X229590197Y-91213855D01*
X229590192Y-91213857D01*
X229417270Y-91290848D01*
X229417265Y-91290851D01*
X229264129Y-91402111D01*
X229137466Y-91542785D01*
X229042821Y-91706715D01*
X229042818Y-91706722D01*
X228984327Y-91886740D01*
X228984326Y-91886744D01*
X228964540Y-92075000D01*
X223710799Y-92075000D01*
X223672335Y-92046206D01*
X223672328Y-92046202D01*
X223537482Y-91995908D01*
X223537483Y-91995908D01*
X223477883Y-91989501D01*
X223477881Y-91989500D01*
X223477873Y-91989500D01*
X223477865Y-91989500D01*
X220844385Y-91989500D01*
X220833578Y-91989028D01*
X220780001Y-91984341D01*
X220779997Y-91984341D01*
X220726419Y-91989028D01*
X220715613Y-91989500D01*
X219882129Y-91989500D01*
X219882123Y-91989501D01*
X219822516Y-91995908D01*
X219687671Y-92046202D01*
X219687664Y-92046206D01*
X219572455Y-92132452D01*
X219572452Y-92132455D01*
X219486206Y-92247664D01*
X219486202Y-92247671D01*
X219435908Y-92382517D01*
X219429501Y-92442116D01*
X219429501Y-92442123D01*
X219429500Y-92442135D01*
X219429500Y-93275616D01*
X219429028Y-93286423D01*
X219424341Y-93339997D01*
X219424341Y-93340002D01*
X219429028Y-93393576D01*
X219429500Y-93404383D01*
X219429500Y-94237870D01*
X219429501Y-94237876D01*
X219435908Y-94297483D01*
X219486202Y-94432328D01*
X219486203Y-94432330D01*
X219563578Y-94535689D01*
X219587995Y-94601153D01*
X219573144Y-94669426D01*
X219563578Y-94684311D01*
X219486203Y-94787669D01*
X219486202Y-94787671D01*
X219435908Y-94922517D01*
X219429501Y-94982116D01*
X219429501Y-94982123D01*
X219429500Y-94982135D01*
X219429500Y-95815616D01*
X219429028Y-95826423D01*
X219424341Y-95879997D01*
X219424341Y-95880002D01*
X219429028Y-95933576D01*
X219429500Y-95944383D01*
X219429500Y-96294547D01*
X219409815Y-96361586D01*
X219393181Y-96382228D01*
X218803270Y-96972139D01*
X218803267Y-96972142D01*
X218775267Y-97000142D01*
X218716142Y-97059266D01*
X218697246Y-97087547D01*
X218651280Y-97156339D01*
X218647688Y-97161714D01*
X218625591Y-97215063D01*
X218600538Y-97275545D01*
X218600535Y-97275555D01*
X218594847Y-97304150D01*
X218594848Y-97304151D01*
X218579463Y-97381501D01*
X218579461Y-97381507D01*
X218576500Y-97396389D01*
X218576500Y-117665312D01*
X218556815Y-117732351D01*
X218544651Y-117748283D01*
X218529378Y-117765246D01*
X218469892Y-117801895D01*
X218400035Y-117800566D01*
X218349546Y-117769956D01*
X217408960Y-116829370D01*
X217375475Y-116768047D01*
X217373323Y-116754671D01*
X217355674Y-116586744D01*
X217297179Y-116406716D01*
X217202533Y-116242784D01*
X217075871Y-116102112D01*
X217075870Y-116102111D01*
X216922734Y-115990851D01*
X216922729Y-115990848D01*
X216749807Y-115913857D01*
X216749802Y-115913855D01*
X216604001Y-115882865D01*
X216564646Y-115874500D01*
X216375354Y-115874500D01*
X216342897Y-115881398D01*
X216190197Y-115913855D01*
X216190192Y-115913857D01*
X216017270Y-115990848D01*
X216017265Y-115990851D01*
X215864129Y-116102111D01*
X215737466Y-116242785D01*
X215642821Y-116406715D01*
X215642818Y-116406722D01*
X215584327Y-116586740D01*
X215584326Y-116586744D01*
X215564540Y-116775000D01*
X162082552Y-116775000D01*
X161940489Y-116706587D01*
X161940491Y-116706587D01*
X161686198Y-116628148D01*
X161686192Y-116628146D01*
X161423059Y-116588486D01*
X161423039Y-116588484D01*
X161290020Y-116586000D01*
X161290000Y-116586000D01*
X159636000Y-116586000D01*
X159568961Y-116566315D01*
X159523206Y-116513511D01*
X159512000Y-116462000D01*
X159512000Y-114589994D01*
X181859357Y-114589994D01*
X181859357Y-114590005D01*
X181879890Y-114837812D01*
X181879892Y-114837824D01*
X181940936Y-115078881D01*
X182040826Y-115306606D01*
X182176833Y-115514782D01*
X182176836Y-115514785D01*
X182345256Y-115697738D01*
X182541491Y-115850474D01*
X182541493Y-115850475D01*
X182658612Y-115913857D01*
X182760190Y-115968828D01*
X182995386Y-116049571D01*
X183240665Y-116090500D01*
X183489335Y-116090500D01*
X183734614Y-116049571D01*
X183969810Y-115968828D01*
X184188509Y-115850474D01*
X184384744Y-115697738D01*
X184553164Y-115514785D01*
X184689173Y-115306607D01*
X184789063Y-115078881D01*
X184850108Y-114837821D01*
X184850744Y-114830144D01*
X184870643Y-114590005D01*
X184870643Y-114589994D01*
X188359357Y-114589994D01*
X188359357Y-114590005D01*
X188379890Y-114837812D01*
X188379892Y-114837824D01*
X188440936Y-115078881D01*
X188540826Y-115306606D01*
X188676833Y-115514782D01*
X188676836Y-115514785D01*
X188845256Y-115697738D01*
X189041491Y-115850474D01*
X189041493Y-115850475D01*
X189158612Y-115913857D01*
X189260190Y-115968828D01*
X189495386Y-116049571D01*
X189740665Y-116090500D01*
X189989335Y-116090500D01*
X190234614Y-116049571D01*
X190469810Y-115968828D01*
X190688509Y-115850474D01*
X190884744Y-115697738D01*
X191053164Y-115514785D01*
X191189173Y-115306607D01*
X191289063Y-115078881D01*
X191350108Y-114837821D01*
X191350744Y-114830144D01*
X191370643Y-114590005D01*
X191370643Y-114589994D01*
X191350109Y-114342187D01*
X191350107Y-114342175D01*
X191289063Y-114101118D01*
X191189173Y-113873393D01*
X191053166Y-113665217D01*
X190989091Y-113595613D01*
X190884744Y-113482262D01*
X190688509Y-113329526D01*
X190688507Y-113329525D01*
X190688506Y-113329524D01*
X190469811Y-113211172D01*
X190469802Y-113211169D01*
X190234616Y-113130429D01*
X189989335Y-113089500D01*
X189740665Y-113089500D01*
X189495383Y-113130429D01*
X189260197Y-113211169D01*
X189260188Y-113211172D01*
X189041493Y-113329524D01*
X188845257Y-113482261D01*
X188676833Y-113665217D01*
X188540826Y-113873393D01*
X188440936Y-114101118D01*
X188379892Y-114342175D01*
X188379890Y-114342187D01*
X188359357Y-114589994D01*
X184870643Y-114589994D01*
X184850109Y-114342187D01*
X184850107Y-114342175D01*
X184789063Y-114101118D01*
X184689173Y-113873393D01*
X184553166Y-113665217D01*
X184489091Y-113595613D01*
X184384744Y-113482262D01*
X184188509Y-113329526D01*
X184188507Y-113329525D01*
X184188506Y-113329524D01*
X183969811Y-113211172D01*
X183969802Y-113211169D01*
X183734616Y-113130429D01*
X183489335Y-113089500D01*
X183240665Y-113089500D01*
X182995383Y-113130429D01*
X182760197Y-113211169D01*
X182760188Y-113211172D01*
X182541493Y-113329524D01*
X182345257Y-113482261D01*
X182176833Y-113665217D01*
X182040826Y-113873393D01*
X181940936Y-114101118D01*
X181879892Y-114342175D01*
X181879890Y-114342187D01*
X181859357Y-114589994D01*
X159512000Y-114589994D01*
X159512000Y-92709997D01*
X160022677Y-92709997D01*
X160022677Y-92710002D01*
X160041929Y-92930062D01*
X160041930Y-92930070D01*
X160099104Y-93143445D01*
X160099105Y-93143447D01*
X160099106Y-93143450D01*
X160190757Y-93339997D01*
X160192466Y-93343662D01*
X160192468Y-93343666D01*
X160319170Y-93524615D01*
X160319175Y-93524621D01*
X160475378Y-93680824D01*
X160475384Y-93680829D01*
X160656333Y-93807531D01*
X160656335Y-93807532D01*
X160656338Y-93807534D01*
X160775748Y-93863215D01*
X160785189Y-93867618D01*
X160837628Y-93913790D01*
X160856780Y-93980984D01*
X160836564Y-94047865D01*
X160785189Y-94092382D01*
X160656340Y-94152465D01*
X160656338Y-94152466D01*
X160475377Y-94279175D01*
X160319175Y-94435377D01*
X160192466Y-94616338D01*
X160192465Y-94616340D01*
X160099107Y-94816548D01*
X160099104Y-94816554D01*
X160041930Y-95029929D01*
X160041929Y-95029937D01*
X160022677Y-95249997D01*
X160022677Y-95250002D01*
X160041929Y-95470062D01*
X160041930Y-95470070D01*
X160099104Y-95683445D01*
X160099105Y-95683447D01*
X160099106Y-95683450D01*
X160177452Y-95851464D01*
X160192466Y-95883662D01*
X160192468Y-95883666D01*
X160319170Y-96064615D01*
X160319175Y-96064621D01*
X160475378Y-96220824D01*
X160475384Y-96220829D01*
X160656333Y-96347531D01*
X160656335Y-96347532D01*
X160656338Y-96347534D01*
X160710258Y-96372677D01*
X160785189Y-96407618D01*
X160837628Y-96453790D01*
X160856780Y-96520984D01*
X160836564Y-96587865D01*
X160785189Y-96632382D01*
X160656340Y-96692465D01*
X160656338Y-96692466D01*
X160475377Y-96819175D01*
X160319175Y-96975377D01*
X160192466Y-97156338D01*
X160192465Y-97156340D01*
X160099107Y-97356548D01*
X160099104Y-97356554D01*
X160041930Y-97569929D01*
X160041929Y-97569937D01*
X160022677Y-97789997D01*
X160022677Y-97790002D01*
X160041929Y-98010062D01*
X160041930Y-98010070D01*
X160099104Y-98223445D01*
X160099105Y-98223447D01*
X160099106Y-98223450D01*
X160163259Y-98361027D01*
X160192466Y-98423662D01*
X160192468Y-98423666D01*
X160319170Y-98604615D01*
X160319175Y-98604621D01*
X160475378Y-98760824D01*
X160475384Y-98760829D01*
X160656333Y-98887531D01*
X160656335Y-98887532D01*
X160656338Y-98887534D01*
X160751934Y-98932111D01*
X160785189Y-98947618D01*
X160837628Y-98993790D01*
X160856780Y-99060984D01*
X160836564Y-99127865D01*
X160785189Y-99172382D01*
X160656340Y-99232465D01*
X160656338Y-99232466D01*
X160475377Y-99359175D01*
X160319175Y-99515377D01*
X160192466Y-99696338D01*
X160192465Y-99696340D01*
X160099107Y-99896548D01*
X160099104Y-99896554D01*
X160041930Y-100109929D01*
X160041929Y-100109937D01*
X160022677Y-100329997D01*
X160022677Y-100330002D01*
X160041929Y-100550062D01*
X160041930Y-100550070D01*
X160099104Y-100763445D01*
X160099105Y-100763447D01*
X160099106Y-100763450D01*
X160163259Y-100901027D01*
X160192466Y-100963662D01*
X160192468Y-100963666D01*
X160319170Y-101144615D01*
X160319175Y-101144621D01*
X160475378Y-101300824D01*
X160475384Y-101300829D01*
X160656333Y-101427531D01*
X160656335Y-101427532D01*
X160656338Y-101427534D01*
X160856550Y-101520894D01*
X161069932Y-101578070D01*
X161227123Y-101591822D01*
X161289998Y-101597323D01*
X161290000Y-101597323D01*
X161290002Y-101597323D01*
X161345017Y-101592509D01*
X161510068Y-101578070D01*
X161723450Y-101520894D01*
X161923662Y-101427534D01*
X162104620Y-101300826D01*
X162260826Y-101144620D01*
X162387534Y-100963662D01*
X162480894Y-100763450D01*
X162538070Y-100550068D01*
X162557323Y-100330000D01*
X162538070Y-100109932D01*
X162480894Y-99896550D01*
X162387534Y-99696339D01*
X162260826Y-99515380D01*
X162104620Y-99359174D01*
X162104616Y-99359171D01*
X162104615Y-99359170D01*
X161923666Y-99232468D01*
X161923658Y-99232464D01*
X161794811Y-99172382D01*
X161742371Y-99126210D01*
X161723219Y-99059017D01*
X161743435Y-98992135D01*
X161794811Y-98947618D01*
X161800802Y-98944824D01*
X161923662Y-98887534D01*
X162104620Y-98760826D01*
X162260826Y-98604620D01*
X162387534Y-98423662D01*
X162480894Y-98223450D01*
X162538070Y-98010068D01*
X162557323Y-97790000D01*
X162538070Y-97569932D01*
X162480894Y-97356550D01*
X162387534Y-97156339D01*
X162282162Y-97005851D01*
X162260827Y-96975381D01*
X162183253Y-96897807D01*
X162104620Y-96819174D01*
X162104616Y-96819171D01*
X162104615Y-96819170D01*
X161923666Y-96692468D01*
X161923658Y-96692464D01*
X161794811Y-96632382D01*
X161742371Y-96586210D01*
X161723499Y-96520000D01*
X174354540Y-96520000D01*
X174374326Y-96708256D01*
X174374327Y-96708259D01*
X174432818Y-96888277D01*
X174432821Y-96888284D01*
X174527467Y-97052216D01*
X174621219Y-97156338D01*
X174654129Y-97192888D01*
X174807265Y-97304148D01*
X174807270Y-97304151D01*
X174980192Y-97381142D01*
X174980197Y-97381144D01*
X175165354Y-97420500D01*
X175224548Y-97420500D01*
X175291587Y-97440185D01*
X175312229Y-97456819D01*
X192001262Y-114145854D01*
X192001265Y-114145857D01*
X192065657Y-114188882D01*
X192103714Y-114214311D01*
X192217548Y-114261463D01*
X192313256Y-114280500D01*
X192338388Y-114285499D01*
X192338392Y-114285500D01*
X192338393Y-114285500D01*
X192338394Y-114285500D01*
X199725501Y-114285500D01*
X199792540Y-114305185D01*
X199838295Y-114357989D01*
X199849501Y-114409500D01*
X199849501Y-114557876D01*
X199855908Y-114617483D01*
X199906202Y-114752328D01*
X199906206Y-114752335D01*
X199992452Y-114867544D01*
X199992455Y-114867547D01*
X200107664Y-114953793D01*
X200107671Y-114953797D01*
X200242517Y-115004091D01*
X200242516Y-115004091D01*
X200247493Y-115004626D01*
X200302127Y-115010500D01*
X202935611Y-115010499D01*
X202946419Y-115010971D01*
X202999999Y-115015659D01*
X203000000Y-115015659D01*
X203000001Y-115015659D01*
X203053580Y-115010971D01*
X203064388Y-115010499D01*
X203897871Y-115010499D01*
X203897872Y-115010499D01*
X203957483Y-115004091D01*
X204092331Y-114953796D01*
X204207546Y-114867546D01*
X204293796Y-114752331D01*
X204344091Y-114617483D01*
X204350500Y-114557873D01*
X204350499Y-113724384D01*
X204350971Y-113713576D01*
X204355659Y-113660000D01*
X204355659Y-113659999D01*
X204350971Y-113606421D01*
X204350499Y-113595613D01*
X204350499Y-112762129D01*
X204350498Y-112762123D01*
X204350497Y-112762116D01*
X204344091Y-112702517D01*
X204326882Y-112656378D01*
X204293797Y-112567671D01*
X204293795Y-112567668D01*
X204276188Y-112544148D01*
X204216421Y-112464309D01*
X204192004Y-112398848D01*
X204206855Y-112330575D01*
X204216416Y-112315696D01*
X204293796Y-112212331D01*
X204344091Y-112077483D01*
X204350500Y-112017873D01*
X204350499Y-111184384D01*
X204350971Y-111173576D01*
X204355659Y-111120000D01*
X204355659Y-111119999D01*
X204350971Y-111066421D01*
X204350499Y-111055613D01*
X204350499Y-110222129D01*
X204350498Y-110222123D01*
X204350497Y-110222116D01*
X204344091Y-110162517D01*
X204342440Y-110158091D01*
X204293797Y-110027671D01*
X204293795Y-110027668D01*
X204216421Y-109924309D01*
X204192004Y-109858848D01*
X204206855Y-109790575D01*
X204216416Y-109775696D01*
X204293796Y-109672331D01*
X204344091Y-109537483D01*
X204350500Y-109477873D01*
X204350499Y-108644384D01*
X204350971Y-108633576D01*
X204355659Y-108580000D01*
X204355659Y-108579999D01*
X204350971Y-108526421D01*
X204350499Y-108515613D01*
X204350499Y-107682129D01*
X204350498Y-107682123D01*
X204350497Y-107682116D01*
X204344091Y-107622517D01*
X204342108Y-107617201D01*
X204293797Y-107487671D01*
X204293795Y-107487668D01*
X204280545Y-107469968D01*
X204216421Y-107384309D01*
X204192004Y-107318848D01*
X204206855Y-107250575D01*
X204216416Y-107235696D01*
X204293796Y-107132331D01*
X204344091Y-106997483D01*
X204350500Y-106937873D01*
X204350499Y-106104384D01*
X204350971Y-106093576D01*
X204355659Y-106040000D01*
X204355659Y-106039999D01*
X204350971Y-105986421D01*
X204350499Y-105975613D01*
X204350499Y-105142129D01*
X204350498Y-105142123D01*
X204350497Y-105142116D01*
X204344091Y-105082517D01*
X204337989Y-105066158D01*
X204293797Y-104947671D01*
X204293793Y-104947664D01*
X204207547Y-104832455D01*
X204207544Y-104832452D01*
X204092335Y-104746206D01*
X204092328Y-104746202D01*
X203957482Y-104695908D01*
X203957483Y-104695908D01*
X203897883Y-104689501D01*
X203897881Y-104689500D01*
X203897873Y-104689500D01*
X203897865Y-104689500D01*
X203064380Y-104689500D01*
X203053573Y-104689028D01*
X203027024Y-104686705D01*
X203000001Y-104684341D01*
X202999998Y-104684341D01*
X202946424Y-104689028D01*
X202935617Y-104689500D01*
X200302129Y-104689500D01*
X200302123Y-104689501D01*
X200242516Y-104695908D01*
X200107671Y-104746202D01*
X200107664Y-104746206D01*
X199992455Y-104832452D01*
X199992452Y-104832455D01*
X199906206Y-104947664D01*
X199906202Y-104947671D01*
X199855908Y-105082517D01*
X199849846Y-105138910D01*
X199849501Y-105142123D01*
X199849500Y-105142135D01*
X199849500Y-105205500D01*
X199829815Y-105272539D01*
X199777011Y-105318294D01*
X199725500Y-105329500D01*
X191087510Y-105329500D01*
X191020471Y-105309815D01*
X191014632Y-105305824D01*
X190952730Y-105260849D01*
X190952729Y-105260848D01*
X190779807Y-105183857D01*
X190779802Y-105183855D01*
X190634001Y-105152865D01*
X190594646Y-105144500D01*
X190405354Y-105144500D01*
X190372897Y-105151398D01*
X190220197Y-105183855D01*
X190220192Y-105183857D01*
X190047270Y-105260848D01*
X190047265Y-105260851D01*
X189894129Y-105372111D01*
X189894128Y-105372112D01*
X189809845Y-105465717D01*
X189750358Y-105502365D01*
X189680501Y-105501034D01*
X189630015Y-105470425D01*
X183818960Y-99659370D01*
X183785475Y-99598047D01*
X183783323Y-99584671D01*
X183765674Y-99416744D01*
X183707179Y-99236716D01*
X183612533Y-99072784D01*
X183485871Y-98932112D01*
X183451752Y-98907323D01*
X183332734Y-98820851D01*
X183332729Y-98820848D01*
X183159807Y-98743857D01*
X183159802Y-98743855D01*
X183014001Y-98712865D01*
X182974646Y-98704500D01*
X182785354Y-98704500D01*
X182752897Y-98711398D01*
X182600197Y-98743855D01*
X182600192Y-98743857D01*
X182427270Y-98820848D01*
X182427265Y-98820851D01*
X182274129Y-98932111D01*
X182147466Y-99072785D01*
X182052821Y-99236715D01*
X182052818Y-99236722D01*
X181994327Y-99416740D01*
X181994326Y-99416744D01*
X181974540Y-99605000D01*
X181994326Y-99793256D01*
X181994327Y-99793259D01*
X182052818Y-99973277D01*
X182052821Y-99973284D01*
X182147467Y-100137216D01*
X182232436Y-100231583D01*
X182274129Y-100277888D01*
X182427265Y-100389148D01*
X182427270Y-100389151D01*
X182600192Y-100466142D01*
X182600197Y-100466144D01*
X182785354Y-100505500D01*
X182844548Y-100505500D01*
X182911587Y-100525185D01*
X182932229Y-100541819D01*
X193906016Y-111515606D01*
X193906045Y-111515637D01*
X193996263Y-111605855D01*
X193996267Y-111605858D01*
X194098707Y-111674307D01*
X194098713Y-111674310D01*
X194098714Y-111674311D01*
X194212548Y-111721463D01*
X194272971Y-111733481D01*
X194333393Y-111745500D01*
X194333394Y-111745500D01*
X199725501Y-111745500D01*
X199792540Y-111765185D01*
X199838295Y-111817989D01*
X199849501Y-111869500D01*
X199849501Y-112017876D01*
X199855908Y-112077483D01*
X199906202Y-112212328D01*
X199906203Y-112212330D01*
X199906204Y-112212331D01*
X199966004Y-112292214D01*
X199983578Y-112315689D01*
X200007995Y-112381153D01*
X199993144Y-112449426D01*
X199983578Y-112464311D01*
X199906203Y-112567669D01*
X199906202Y-112567671D01*
X199855908Y-112702517D01*
X199849501Y-112762116D01*
X199849501Y-112762123D01*
X199849500Y-112762135D01*
X199849500Y-112910500D01*
X199829815Y-112977539D01*
X199777011Y-113023294D01*
X199725500Y-113034500D01*
X192710453Y-113034500D01*
X192643414Y-113014815D01*
X192622772Y-112998181D01*
X176198960Y-96574370D01*
X176165475Y-96513047D01*
X176163323Y-96499671D01*
X176145674Y-96331744D01*
X176087179Y-96151716D01*
X175992533Y-95987784D01*
X175865871Y-95847112D01*
X175865870Y-95847111D01*
X175712734Y-95735851D01*
X175712729Y-95735848D01*
X175539807Y-95658857D01*
X175539802Y-95658855D01*
X175394001Y-95627865D01*
X175354646Y-95619500D01*
X175165354Y-95619500D01*
X175132897Y-95626398D01*
X174980197Y-95658855D01*
X174980192Y-95658857D01*
X174807270Y-95735848D01*
X174807265Y-95735851D01*
X174654129Y-95847111D01*
X174527466Y-95987785D01*
X174432821Y-96151715D01*
X174432818Y-96151722D01*
X174378296Y-96319525D01*
X174374326Y-96331744D01*
X174354540Y-96520000D01*
X161723499Y-96520000D01*
X161723219Y-96519017D01*
X161743435Y-96452135D01*
X161794811Y-96407618D01*
X161828456Y-96391929D01*
X161923662Y-96347534D01*
X162104620Y-96220826D01*
X162260826Y-96064620D01*
X162387534Y-95883662D01*
X162480894Y-95683450D01*
X162538070Y-95470068D01*
X162557323Y-95250000D01*
X162538070Y-95029932D01*
X162480894Y-94816550D01*
X162387534Y-94616339D01*
X162260826Y-94435380D01*
X162104620Y-94279174D01*
X162104616Y-94279171D01*
X162104615Y-94279170D01*
X161923666Y-94152468D01*
X161923658Y-94152464D01*
X161794811Y-94092382D01*
X161742371Y-94046210D01*
X161723219Y-93979017D01*
X161743435Y-93912135D01*
X161794811Y-93867618D01*
X161800802Y-93864824D01*
X161923662Y-93807534D01*
X162104620Y-93680826D01*
X162260826Y-93524620D01*
X162387534Y-93343662D01*
X162480894Y-93143450D01*
X162538070Y-92930068D01*
X162556811Y-92715849D01*
X162557323Y-92710002D01*
X162557323Y-92709997D01*
X162538070Y-92489937D01*
X162538070Y-92489932D01*
X162480894Y-92276550D01*
X162387534Y-92076339D01*
X162287444Y-91933394D01*
X162260827Y-91895381D01*
X162252186Y-91886740D01*
X162104620Y-91739174D01*
X162104616Y-91739171D01*
X162104615Y-91739170D01*
X161923666Y-91612468D01*
X161923662Y-91612466D01*
X161888923Y-91596267D01*
X161723450Y-91519106D01*
X161723447Y-91519105D01*
X161723445Y-91519104D01*
X161510070Y-91461930D01*
X161510062Y-91461929D01*
X161290002Y-91442677D01*
X161289998Y-91442677D01*
X161069937Y-91461929D01*
X161069929Y-91461930D01*
X160856554Y-91519104D01*
X160856548Y-91519107D01*
X160656340Y-91612465D01*
X160656338Y-91612466D01*
X160475377Y-91739175D01*
X160319175Y-91895377D01*
X160192466Y-92076338D01*
X160192465Y-92076340D01*
X160099107Y-92276548D01*
X160099104Y-92276554D01*
X160041930Y-92489929D01*
X160041929Y-92489937D01*
X160022677Y-92709997D01*
X159512000Y-92709997D01*
X159512000Y-80999999D01*
X167581675Y-80999999D01*
X167581675Y-81000000D01*
X167601091Y-81209537D01*
X167601091Y-81209539D01*
X167601092Y-81209542D01*
X167641467Y-81351445D01*
X167658682Y-81411950D01*
X167750414Y-81596172D01*
X167752482Y-81600325D01*
X167879300Y-81768259D01*
X168017884Y-81894595D01*
X168034816Y-81910030D01*
X168034818Y-81910032D01*
X168213732Y-82020811D01*
X168213738Y-82020814D01*
X168255308Y-82036918D01*
X168409964Y-82096832D01*
X168616820Y-82135500D01*
X168616822Y-82135500D01*
X168827258Y-82135500D01*
X168827260Y-82135500D01*
X169034116Y-82096832D01*
X169230344Y-82020813D01*
X169409263Y-81910031D01*
X169564780Y-81768259D01*
X169621306Y-81693405D01*
X169677415Y-81651770D01*
X169747127Y-81647079D01*
X169808309Y-81680821D01*
X169819210Y-81693402D01*
X169844720Y-81727183D01*
X169875741Y-81768261D01*
X170031256Y-81910030D01*
X170031258Y-81910032D01*
X170210172Y-82020811D01*
X170210178Y-82020814D01*
X170251748Y-82036918D01*
X170406404Y-82096832D01*
X170613260Y-82135500D01*
X170613262Y-82135500D01*
X170823698Y-82135500D01*
X170823700Y-82135500D01*
X171030556Y-82096832D01*
X171226784Y-82020813D01*
X171405703Y-81910031D01*
X171459230Y-81861235D01*
X171522034Y-81830618D01*
X171591421Y-81838815D01*
X171642034Y-81878561D01*
X171727452Y-81992664D01*
X171727455Y-81992667D01*
X171842664Y-82078913D01*
X171842671Y-82078917D01*
X171977517Y-82129211D01*
X171977516Y-82129211D01*
X171984444Y-82129955D01*
X172037127Y-82135620D01*
X173402872Y-82135619D01*
X173462483Y-82129211D01*
X173597331Y-82078916D01*
X173712546Y-81992666D01*
X173798796Y-81877451D01*
X173849091Y-81742603D01*
X173850985Y-81724983D01*
X177370020Y-81724983D01*
X177370020Y-83275001D01*
X177370021Y-83275018D01*
X177380520Y-83377796D01*
X177380521Y-83377799D01*
X177426414Y-83516294D01*
X177435706Y-83544334D01*
X177527808Y-83693656D01*
X177651864Y-83817712D01*
X177801186Y-83909814D01*
X177967723Y-83964999D01*
X178070511Y-83975500D01*
X179370528Y-83975499D01*
X179473317Y-83964999D01*
X179639854Y-83909814D01*
X179789176Y-83817712D01*
X179913232Y-83693656D01*
X180005334Y-83544334D01*
X180005334Y-83544331D01*
X180008698Y-83538879D01*
X180060646Y-83492154D01*
X180129608Y-83480931D01*
X180193690Y-83508774D01*
X180201918Y-83516294D01*
X180340733Y-83655109D01*
X180512699Y-83780048D01*
X180512701Y-83780049D01*
X180512704Y-83780051D01*
X180702108Y-83876557D01*
X180904277Y-83942246D01*
X181114233Y-83975500D01*
X181114234Y-83975500D01*
X181326806Y-83975500D01*
X181326807Y-83975500D01*
X181536763Y-83942246D01*
X181738932Y-83876557D01*
X181928336Y-83780051D01*
X181971687Y-83748555D01*
X182100306Y-83655109D01*
X182100308Y-83655106D01*
X182100312Y-83655104D01*
X182250624Y-83504792D01*
X182250626Y-83504788D01*
X182250629Y-83504786D01*
X182375568Y-83332820D01*
X182375567Y-83332820D01*
X182375571Y-83332816D01*
X182472077Y-83143412D01*
X182537766Y-82941243D01*
X182571020Y-82731287D01*
X182571020Y-82268713D01*
X182537766Y-82058757D01*
X182472077Y-81856588D01*
X182375571Y-81667184D01*
X182375569Y-81667181D01*
X182375568Y-81667179D01*
X182250629Y-81495213D01*
X182100306Y-81344890D01*
X181928340Y-81219951D01*
X181738934Y-81123444D01*
X181738933Y-81123443D01*
X181738932Y-81123443D01*
X181536763Y-81057754D01*
X181536761Y-81057753D01*
X181536760Y-81057753D01*
X181375477Y-81032208D01*
X181326807Y-81024500D01*
X181114233Y-81024500D01*
X181065562Y-81032208D01*
X180904280Y-81057753D01*
X180702105Y-81123444D01*
X180512699Y-81219951D01*
X180340735Y-81344889D01*
X180201918Y-81483706D01*
X180140595Y-81517190D01*
X180070903Y-81512206D01*
X180014970Y-81470334D01*
X180008698Y-81461120D01*
X179913232Y-81306344D01*
X179789177Y-81182289D01*
X179789176Y-81182288D01*
X179639854Y-81090186D01*
X179473317Y-81035001D01*
X179473315Y-81035000D01*
X179370530Y-81024500D01*
X178070518Y-81024500D01*
X178070501Y-81024501D01*
X177967723Y-81035000D01*
X177967720Y-81035001D01*
X177801188Y-81090185D01*
X177801183Y-81090187D01*
X177651862Y-81182289D01*
X177527809Y-81306342D01*
X177435707Y-81455663D01*
X177435705Y-81455668D01*
X177430845Y-81470334D01*
X177380521Y-81622203D01*
X177380521Y-81622204D01*
X177380520Y-81622204D01*
X177370020Y-81724983D01*
X173850985Y-81724983D01*
X173855500Y-81682993D01*
X173855499Y-80317248D01*
X173849091Y-80257637D01*
X173839432Y-80231741D01*
X173798797Y-80122791D01*
X173798793Y-80122784D01*
X173712547Y-80007575D01*
X173712544Y-80007572D01*
X173597335Y-79921326D01*
X173597328Y-79921322D01*
X173462482Y-79871028D01*
X173462483Y-79871028D01*
X173402883Y-79864621D01*
X173402881Y-79864620D01*
X173402873Y-79864620D01*
X173402864Y-79864620D01*
X172037129Y-79864620D01*
X172037123Y-79864621D01*
X171977516Y-79871028D01*
X171842671Y-79921322D01*
X171842664Y-79921326D01*
X171727455Y-80007572D01*
X171642140Y-80121537D01*
X171586206Y-80163407D01*
X171516514Y-80168391D01*
X171459337Y-80138863D01*
X171405703Y-80089969D01*
X171405700Y-80089967D01*
X171405699Y-80089966D01*
X171226787Y-79979188D01*
X171226781Y-79979185D01*
X171072128Y-79919273D01*
X171030556Y-79903168D01*
X170823700Y-79864500D01*
X170613260Y-79864500D01*
X170406404Y-79903168D01*
X170406401Y-79903168D01*
X170406401Y-79903169D01*
X170210178Y-79979185D01*
X170210172Y-79979188D01*
X170031258Y-80089967D01*
X170031256Y-80089969D01*
X169875741Y-80231739D01*
X169819214Y-80306593D01*
X169763105Y-80348229D01*
X169693393Y-80352920D01*
X169632211Y-80319178D01*
X169621306Y-80306593D01*
X169564778Y-80231739D01*
X169409263Y-80089969D01*
X169409261Y-80089967D01*
X169230347Y-79979188D01*
X169230341Y-79979185D01*
X169075688Y-79919273D01*
X169034116Y-79903168D01*
X168827260Y-79864500D01*
X168616820Y-79864500D01*
X168409964Y-79903168D01*
X168409961Y-79903168D01*
X168409961Y-79903169D01*
X168213738Y-79979185D01*
X168213732Y-79979188D01*
X168034818Y-80089967D01*
X168034816Y-80089969D01*
X167879301Y-80231739D01*
X167752482Y-80399674D01*
X167658682Y-80588049D01*
X167601091Y-80790462D01*
X167581675Y-80999999D01*
X159512000Y-80999999D01*
X159512000Y-79742135D01*
X199849500Y-79742135D01*
X199849500Y-81537870D01*
X199849501Y-81537876D01*
X199855908Y-81597483D01*
X199906202Y-81732328D01*
X199906203Y-81732330D01*
X199983578Y-81835689D01*
X200007995Y-81901153D01*
X199993144Y-81969426D01*
X199983578Y-81984311D01*
X199906203Y-82087669D01*
X199906202Y-82087671D01*
X199855908Y-82222517D01*
X199850942Y-82268713D01*
X199849501Y-82282123D01*
X199849500Y-82282135D01*
X199849500Y-84077870D01*
X199849501Y-84077876D01*
X199855908Y-84137483D01*
X199906202Y-84272328D01*
X199906203Y-84272330D01*
X199983578Y-84375689D01*
X200007995Y-84441153D01*
X199993144Y-84509426D01*
X199983578Y-84524311D01*
X199906203Y-84627669D01*
X199906202Y-84627671D01*
X199855908Y-84762517D01*
X199849501Y-84822116D01*
X199849501Y-84822123D01*
X199849500Y-84822135D01*
X199849500Y-86617870D01*
X199849501Y-86617876D01*
X199855908Y-86677483D01*
X199906202Y-86812328D01*
X199906203Y-86812330D01*
X199983578Y-86915689D01*
X200007995Y-86981153D01*
X199993144Y-87049426D01*
X199983578Y-87064311D01*
X199906203Y-87167669D01*
X199906202Y-87167671D01*
X199855908Y-87302517D01*
X199849533Y-87361816D01*
X199849501Y-87362123D01*
X199849500Y-87362135D01*
X199849500Y-89157870D01*
X199849501Y-89157876D01*
X199855908Y-89217483D01*
X199906202Y-89352328D01*
X199906203Y-89352330D01*
X199983578Y-89455689D01*
X200007995Y-89521153D01*
X199993144Y-89589426D01*
X199983578Y-89604311D01*
X199906203Y-89707669D01*
X199906202Y-89707671D01*
X199855908Y-89842517D01*
X199849501Y-89902116D01*
X199849501Y-89902123D01*
X199849500Y-89902135D01*
X199849500Y-91697870D01*
X199849501Y-91697876D01*
X199855908Y-91757483D01*
X199906202Y-91892328D01*
X199906203Y-91892330D01*
X199936944Y-91933394D01*
X199978591Y-91989028D01*
X199983578Y-91995689D01*
X200007995Y-92061153D01*
X199993144Y-92129426D01*
X199983578Y-92144311D01*
X199906203Y-92247669D01*
X199906202Y-92247671D01*
X199855908Y-92382517D01*
X199849501Y-92442116D01*
X199849501Y-92442123D01*
X199849500Y-92442135D01*
X199849500Y-94237870D01*
X199849501Y-94237876D01*
X199855908Y-94297483D01*
X199906202Y-94432328D01*
X199906203Y-94432330D01*
X199983578Y-94535689D01*
X200007995Y-94601153D01*
X199993144Y-94669426D01*
X199983578Y-94684311D01*
X199906203Y-94787669D01*
X199906202Y-94787671D01*
X199855908Y-94922517D01*
X199849501Y-94982116D01*
X199849501Y-94982123D01*
X199849500Y-94982135D01*
X199849500Y-96777870D01*
X199849501Y-96777876D01*
X199855908Y-96837483D01*
X199906202Y-96972328D01*
X199906203Y-96972330D01*
X199931297Y-97005851D01*
X199966004Y-97052214D01*
X199983578Y-97075689D01*
X200007995Y-97141153D01*
X199993144Y-97209426D01*
X199983578Y-97224311D01*
X199906203Y-97327669D01*
X199906202Y-97327671D01*
X199855908Y-97462517D01*
X199849501Y-97522116D01*
X199849501Y-97522123D01*
X199849500Y-97522135D01*
X199849500Y-99317870D01*
X199849501Y-99317876D01*
X199855908Y-99377483D01*
X199906202Y-99512328D01*
X199906203Y-99512330D01*
X199983578Y-99615689D01*
X200007995Y-99681153D01*
X199993144Y-99749426D01*
X199983578Y-99764311D01*
X199906203Y-99867669D01*
X199906202Y-99867671D01*
X199855908Y-100002517D01*
X199849501Y-100062116D01*
X199849501Y-100062123D01*
X199849500Y-100062135D01*
X199849500Y-101857870D01*
X199849501Y-101857876D01*
X199855908Y-101917483D01*
X199906202Y-102052328D01*
X199906206Y-102052335D01*
X199992452Y-102167544D01*
X199992455Y-102167547D01*
X200107664Y-102253793D01*
X200107671Y-102253797D01*
X200242517Y-102304091D01*
X200242516Y-102304091D01*
X200247493Y-102304626D01*
X200302127Y-102310500D01*
X202935611Y-102310499D01*
X202946419Y-102310971D01*
X202999999Y-102315659D01*
X203000000Y-102315659D01*
X203000001Y-102315659D01*
X203053580Y-102310971D01*
X203064388Y-102310499D01*
X203897871Y-102310499D01*
X203897872Y-102310499D01*
X203957483Y-102304091D01*
X204092331Y-102253796D01*
X204207546Y-102167546D01*
X204293796Y-102052331D01*
X204344091Y-101917483D01*
X204350500Y-101857873D01*
X204350499Y-101024384D01*
X204350971Y-101013576D01*
X204355659Y-100960000D01*
X204355659Y-100959999D01*
X204350971Y-100906421D01*
X204350499Y-100895613D01*
X204350499Y-100062129D01*
X204350498Y-100062123D01*
X204350497Y-100062116D01*
X204344091Y-100002517D01*
X204333185Y-99973277D01*
X204293797Y-99867671D01*
X204293795Y-99867668D01*
X204280550Y-99849975D01*
X204216421Y-99764309D01*
X204192004Y-99698848D01*
X204206855Y-99630575D01*
X204216416Y-99615696D01*
X204293796Y-99512331D01*
X204344091Y-99377483D01*
X204350500Y-99317873D01*
X204350499Y-98484384D01*
X204350971Y-98473576D01*
X204355659Y-98420000D01*
X204355659Y-98419999D01*
X204350971Y-98366421D01*
X204350499Y-98355613D01*
X204350499Y-97522129D01*
X204350498Y-97522123D01*
X204350497Y-97522116D01*
X204344091Y-97462517D01*
X204328875Y-97421722D01*
X204293797Y-97327671D01*
X204293795Y-97327668D01*
X204280550Y-97309975D01*
X204216421Y-97224309D01*
X204192004Y-97158848D01*
X204206855Y-97090575D01*
X204216416Y-97075696D01*
X204293796Y-96972331D01*
X204344091Y-96837483D01*
X204350500Y-96777873D01*
X204350499Y-95944383D01*
X204350971Y-95933576D01*
X204355659Y-95880000D01*
X204355659Y-95879999D01*
X204350971Y-95826421D01*
X204350499Y-95815613D01*
X204350499Y-94982129D01*
X204350498Y-94982123D01*
X204350497Y-94982116D01*
X204344091Y-94922517D01*
X204304569Y-94816554D01*
X204293797Y-94787671D01*
X204293795Y-94787668D01*
X204216421Y-94684309D01*
X204192004Y-94618848D01*
X204206855Y-94550575D01*
X204216416Y-94535696D01*
X204293796Y-94432331D01*
X204344091Y-94297483D01*
X204350500Y-94237873D01*
X204350499Y-93404383D01*
X204350971Y-93393576D01*
X204355659Y-93340000D01*
X204355659Y-93339999D01*
X204350971Y-93286421D01*
X204350499Y-93275613D01*
X204350499Y-92442129D01*
X204350498Y-92442123D01*
X204350497Y-92442116D01*
X204344091Y-92382517D01*
X204304569Y-92276554D01*
X204293797Y-92247671D01*
X204293795Y-92247668D01*
X204280550Y-92229975D01*
X204216421Y-92144309D01*
X204192004Y-92078848D01*
X204206855Y-92010575D01*
X204216416Y-91995696D01*
X204293796Y-91892331D01*
X204344091Y-91757483D01*
X204350500Y-91697873D01*
X204350499Y-89902128D01*
X204344091Y-89842517D01*
X204293796Y-89707669D01*
X204216421Y-89604309D01*
X204192004Y-89538848D01*
X204206855Y-89470575D01*
X204216416Y-89455696D01*
X204293796Y-89352331D01*
X204344091Y-89217483D01*
X204350500Y-89157873D01*
X204350499Y-88324383D01*
X204350971Y-88313576D01*
X204355659Y-88260000D01*
X204355659Y-88259999D01*
X204350971Y-88206421D01*
X204350499Y-88195613D01*
X204350499Y-87362129D01*
X204350498Y-87362123D01*
X204350497Y-87362116D01*
X204344091Y-87302517D01*
X204293796Y-87167669D01*
X204216421Y-87064309D01*
X204192004Y-86998848D01*
X204206855Y-86930575D01*
X204216416Y-86915696D01*
X204293796Y-86812331D01*
X204344091Y-86677483D01*
X204350500Y-86617873D01*
X204350499Y-85784383D01*
X204350971Y-85773576D01*
X204355659Y-85720000D01*
X204355659Y-85719999D01*
X204350971Y-85666421D01*
X204350499Y-85655613D01*
X204350499Y-84822129D01*
X204350498Y-84822123D01*
X204350497Y-84822116D01*
X204344091Y-84762517D01*
X204293796Y-84627669D01*
X204216421Y-84524309D01*
X204192004Y-84458848D01*
X204206855Y-84390575D01*
X204216416Y-84375696D01*
X204293796Y-84272331D01*
X204344091Y-84137483D01*
X204350500Y-84077873D01*
X204350499Y-83244383D01*
X204350971Y-83233576D01*
X204355659Y-83180000D01*
X204355659Y-83179999D01*
X204350971Y-83126421D01*
X204350499Y-83115613D01*
X204350499Y-82282129D01*
X204350498Y-82282123D01*
X204350497Y-82282116D01*
X204344091Y-82222517D01*
X204293796Y-82087669D01*
X204216421Y-81984309D01*
X204192004Y-81918848D01*
X204206855Y-81850575D01*
X204216416Y-81835696D01*
X204293796Y-81732331D01*
X204344091Y-81597483D01*
X204350500Y-81537873D01*
X204350499Y-80704383D01*
X204350971Y-80693576D01*
X204355659Y-80640000D01*
X204355659Y-80639999D01*
X204355659Y-80639997D01*
X219424341Y-80639997D01*
X219424341Y-80640002D01*
X219429028Y-80693576D01*
X219429500Y-80704383D01*
X219429500Y-81537870D01*
X219429501Y-81537876D01*
X219435908Y-81597483D01*
X219486202Y-81732328D01*
X219486203Y-81732330D01*
X219563578Y-81835689D01*
X219587995Y-81901153D01*
X219573144Y-81969426D01*
X219563578Y-81984311D01*
X219486203Y-82087669D01*
X219486202Y-82087671D01*
X219435908Y-82222517D01*
X219430942Y-82268713D01*
X219429501Y-82282123D01*
X219429500Y-82282135D01*
X219429500Y-83115616D01*
X219429028Y-83126423D01*
X219424341Y-83179997D01*
X219424341Y-83180002D01*
X219429028Y-83233576D01*
X219429500Y-83244383D01*
X219429500Y-84077870D01*
X219429501Y-84077876D01*
X219435908Y-84137483D01*
X219486202Y-84272328D01*
X219486203Y-84272330D01*
X219563578Y-84375689D01*
X219587995Y-84441153D01*
X219573144Y-84509426D01*
X219563578Y-84524311D01*
X219486203Y-84627669D01*
X219486202Y-84627671D01*
X219435908Y-84762517D01*
X219429501Y-84822116D01*
X219429501Y-84822123D01*
X219429500Y-84822135D01*
X219429500Y-85655616D01*
X219429028Y-85666423D01*
X219424341Y-85719997D01*
X219424341Y-85720002D01*
X219429028Y-85773576D01*
X219429500Y-85784383D01*
X219429500Y-86617870D01*
X219429501Y-86617876D01*
X219435908Y-86677483D01*
X219486202Y-86812328D01*
X219486203Y-86812330D01*
X219563578Y-86915689D01*
X219587995Y-86981153D01*
X219573144Y-87049426D01*
X219563578Y-87064311D01*
X219486203Y-87167669D01*
X219486202Y-87167671D01*
X219435908Y-87302517D01*
X219429533Y-87361816D01*
X219429501Y-87362123D01*
X219429500Y-87362135D01*
X219429500Y-88195616D01*
X219429028Y-88206423D01*
X219424341Y-88259997D01*
X219424341Y-88260002D01*
X219429028Y-88313576D01*
X219429500Y-88324383D01*
X219429500Y-89157870D01*
X219429501Y-89157876D01*
X219435908Y-89217483D01*
X219486202Y-89352328D01*
X219486206Y-89352335D01*
X219572452Y-89467544D01*
X219572455Y-89467547D01*
X219687664Y-89553793D01*
X219687671Y-89553797D01*
X219822517Y-89604091D01*
X219822516Y-89604091D01*
X219829444Y-89604835D01*
X219882127Y-89610500D01*
X220715616Y-89610499D01*
X220726425Y-89610971D01*
X220780000Y-89615659D01*
X220833575Y-89610971D01*
X220844384Y-89610499D01*
X223477871Y-89610499D01*
X223477872Y-89610499D01*
X223537483Y-89604091D01*
X223672331Y-89553796D01*
X223787546Y-89467546D01*
X223873796Y-89352331D01*
X223924091Y-89217483D01*
X223930500Y-89157873D01*
X223930499Y-87362128D01*
X223924091Y-87302517D01*
X223873796Y-87167669D01*
X223796421Y-87064309D01*
X223772004Y-86998848D01*
X223786855Y-86930575D01*
X223796416Y-86915696D01*
X223873796Y-86812331D01*
X223924091Y-86677483D01*
X223930500Y-86617873D01*
X223930500Y-86547713D01*
X225854500Y-86547713D01*
X225854500Y-86760287D01*
X225887754Y-86970243D01*
X225913482Y-87049426D01*
X225953444Y-87172414D01*
X226049951Y-87361820D01*
X226174890Y-87533786D01*
X226325209Y-87684105D01*
X226325214Y-87684109D01*
X226489793Y-87803682D01*
X226532459Y-87859011D01*
X226538438Y-87928625D01*
X226505833Y-87990420D01*
X226489793Y-88004318D01*
X226325214Y-88123890D01*
X226325209Y-88123894D01*
X226174890Y-88274213D01*
X226049951Y-88446179D01*
X225953444Y-88635585D01*
X225887753Y-88837760D01*
X225854500Y-89047713D01*
X225854500Y-89260286D01*
X225887326Y-89467546D01*
X225887754Y-89470243D01*
X225933326Y-89610500D01*
X225953444Y-89672414D01*
X226049951Y-89861820D01*
X226174890Y-90033786D01*
X226325213Y-90184109D01*
X226497179Y-90309048D01*
X226497181Y-90309049D01*
X226497184Y-90309051D01*
X226686588Y-90405557D01*
X226888757Y-90471246D01*
X227098713Y-90504500D01*
X227098714Y-90504500D01*
X227561286Y-90504500D01*
X227561287Y-90504500D01*
X227771243Y-90471246D01*
X227973412Y-90405557D01*
X228162816Y-90309051D01*
X228184789Y-90293086D01*
X228334786Y-90184109D01*
X228334788Y-90184106D01*
X228334792Y-90184104D01*
X228485104Y-90033792D01*
X228485106Y-90033788D01*
X228485109Y-90033786D01*
X228610048Y-89861820D01*
X228610047Y-89861820D01*
X228610051Y-89861816D01*
X228706557Y-89672412D01*
X228772246Y-89470243D01*
X228805500Y-89260287D01*
X228805500Y-89047713D01*
X228772246Y-88837757D01*
X228706557Y-88635588D01*
X228610051Y-88446184D01*
X228610049Y-88446181D01*
X228610048Y-88446179D01*
X228485109Y-88274213D01*
X228334792Y-88123896D01*
X228334784Y-88123890D01*
X228170204Y-88004316D01*
X228127540Y-87948989D01*
X228121561Y-87879376D01*
X228154166Y-87817580D01*
X228170199Y-87803686D01*
X228334792Y-87684104D01*
X228485104Y-87533792D01*
X228485106Y-87533788D01*
X228485109Y-87533786D01*
X228610048Y-87361820D01*
X228610047Y-87361820D01*
X228610051Y-87361816D01*
X228706557Y-87172412D01*
X228772246Y-86970243D01*
X228805500Y-86760287D01*
X228805500Y-86547713D01*
X228772246Y-86337757D01*
X228706557Y-86135588D01*
X228610051Y-85946184D01*
X228610049Y-85946181D01*
X228610048Y-85946179D01*
X228485109Y-85774213D01*
X228334786Y-85623890D01*
X228162820Y-85498951D01*
X227973414Y-85402444D01*
X227973413Y-85402443D01*
X227973412Y-85402443D01*
X227771243Y-85336754D01*
X227771241Y-85336753D01*
X227771240Y-85336753D01*
X227609957Y-85311208D01*
X227561287Y-85303500D01*
X227098713Y-85303500D01*
X227050042Y-85311208D01*
X226888760Y-85336753D01*
X226686585Y-85402444D01*
X226497179Y-85498951D01*
X226325213Y-85623890D01*
X226174890Y-85774213D01*
X226049951Y-85946179D01*
X225953444Y-86135585D01*
X225887753Y-86337760D01*
X225874330Y-86422511D01*
X225854500Y-86547713D01*
X223930500Y-86547713D01*
X223930499Y-84822128D01*
X223924091Y-84762517D01*
X223873796Y-84627669D01*
X223796421Y-84524309D01*
X223772004Y-84458848D01*
X223786855Y-84390575D01*
X223796416Y-84375696D01*
X223873796Y-84272331D01*
X223924091Y-84137483D01*
X223930500Y-84077873D01*
X223930499Y-82282128D01*
X223924091Y-82222517D01*
X223873796Y-82087669D01*
X223796421Y-81984309D01*
X223772004Y-81918848D01*
X223786855Y-81850575D01*
X223796416Y-81835696D01*
X223873796Y-81732331D01*
X223924091Y-81597483D01*
X223930500Y-81537873D01*
X223930500Y-81003983D01*
X225854500Y-81003983D01*
X225854500Y-82304001D01*
X225854501Y-82304018D01*
X225865000Y-82406796D01*
X225865001Y-82406799D01*
X225920185Y-82573331D01*
X225920186Y-82573334D01*
X226012288Y-82722656D01*
X226136344Y-82846712D01*
X226285666Y-82938814D01*
X226452203Y-82993999D01*
X226554991Y-83004500D01*
X228105008Y-83004499D01*
X228207797Y-82993999D01*
X228374334Y-82938814D01*
X228523656Y-82846712D01*
X228647712Y-82722656D01*
X228739814Y-82573334D01*
X228794999Y-82406797D01*
X228805500Y-82304009D01*
X228805499Y-81003992D01*
X228794999Y-80901203D01*
X228739814Y-80734666D01*
X228647712Y-80585344D01*
X228523656Y-80461288D01*
X228374334Y-80369186D01*
X228207797Y-80314001D01*
X228207795Y-80314000D01*
X228105010Y-80303500D01*
X226554998Y-80303500D01*
X226554981Y-80303501D01*
X226452203Y-80314000D01*
X226452200Y-80314001D01*
X226285668Y-80369185D01*
X226285663Y-80369187D01*
X226136342Y-80461289D01*
X226012289Y-80585342D01*
X225920187Y-80734663D01*
X225920186Y-80734666D01*
X225865001Y-80901203D01*
X225865001Y-80901204D01*
X225865000Y-80901204D01*
X225854500Y-81003983D01*
X223930500Y-81003983D01*
X223930499Y-79742128D01*
X223924091Y-79682517D01*
X223873796Y-79547669D01*
X223873795Y-79547668D01*
X223873793Y-79547664D01*
X223787547Y-79432455D01*
X223787544Y-79432452D01*
X223672335Y-79346206D01*
X223672328Y-79346202D01*
X223537482Y-79295908D01*
X223537483Y-79295908D01*
X223477883Y-79289501D01*
X223477881Y-79289500D01*
X223477873Y-79289500D01*
X223477865Y-79289500D01*
X220844385Y-79289500D01*
X220833578Y-79289028D01*
X220780001Y-79284341D01*
X220779997Y-79284341D01*
X220726419Y-79289028D01*
X220715613Y-79289500D01*
X219882129Y-79289500D01*
X219882123Y-79289501D01*
X219822516Y-79295908D01*
X219687671Y-79346202D01*
X219687664Y-79346206D01*
X219572455Y-79432452D01*
X219572452Y-79432455D01*
X219486206Y-79547664D01*
X219486202Y-79547671D01*
X219435908Y-79682517D01*
X219429501Y-79742116D01*
X219429501Y-79742123D01*
X219429500Y-79742135D01*
X219429500Y-80575616D01*
X219429028Y-80586423D01*
X219424341Y-80639997D01*
X204355659Y-80639997D01*
X204350971Y-80586421D01*
X204350499Y-80575613D01*
X204350499Y-79742129D01*
X204350498Y-79742123D01*
X204350497Y-79742116D01*
X204344091Y-79682517D01*
X204293796Y-79547669D01*
X204293795Y-79547668D01*
X204293793Y-79547664D01*
X204207547Y-79432455D01*
X204207544Y-79432452D01*
X204092335Y-79346206D01*
X204092328Y-79346202D01*
X203957482Y-79295908D01*
X203957483Y-79295908D01*
X203897883Y-79289501D01*
X203897881Y-79289500D01*
X203897873Y-79289500D01*
X203897865Y-79289500D01*
X203064380Y-79289500D01*
X203053573Y-79289028D01*
X203027024Y-79286705D01*
X203000001Y-79284341D01*
X202999998Y-79284341D01*
X202946424Y-79289028D01*
X202935617Y-79289500D01*
X200302129Y-79289500D01*
X200302123Y-79289501D01*
X200242516Y-79295908D01*
X200107671Y-79346202D01*
X200107664Y-79346206D01*
X199992455Y-79432452D01*
X199992452Y-79432455D01*
X199906206Y-79547664D01*
X199906202Y-79547671D01*
X199855908Y-79682517D01*
X199849501Y-79742116D01*
X199849501Y-79742123D01*
X199849500Y-79742135D01*
X159512000Y-79742135D01*
X159512000Y-76324000D01*
X159531685Y-76256961D01*
X159584489Y-76211206D01*
X159636000Y-76200000D01*
X161290020Y-76200000D01*
X161423039Y-76197515D01*
X161423047Y-76197514D01*
X161423056Y-76197514D01*
X161604563Y-76170156D01*
X161686192Y-76157853D01*
X161686193Y-76157852D01*
X161686197Y-76157852D01*
X161940487Y-76079414D01*
X162140743Y-75982976D01*
X162180239Y-75963956D01*
X162180239Y-75963955D01*
X162180247Y-75963952D01*
X162400119Y-75814045D01*
X162595194Y-75633043D01*
X162761112Y-75424987D01*
X162894169Y-75194527D01*
X162991391Y-74946810D01*
X163050606Y-74687369D01*
X163063726Y-74512297D01*
X163070493Y-74422004D01*
X163070493Y-74421995D01*
X163052651Y-74183915D01*
X163050606Y-74156631D01*
X162991391Y-73897190D01*
X162894169Y-73649473D01*
X162894168Y-73649472D01*
X162894169Y-73649472D01*
X162817406Y-73516517D01*
X162761112Y-73419013D01*
X162595194Y-73210957D01*
X162400119Y-73029955D01*
X162385516Y-73019999D01*
X162180250Y-72880050D01*
X162180239Y-72880043D01*
X161940489Y-72764587D01*
X161940491Y-72764587D01*
X161686198Y-72686148D01*
X161686192Y-72686146D01*
X161423059Y-72646486D01*
X161423039Y-72646484D01*
X161290020Y-72644000D01*
X161290000Y-72644000D01*
X159635098Y-72644000D01*
X159568059Y-72624315D01*
X159522304Y-72571511D01*
X159511101Y-72520905D01*
X159510744Y-72471932D01*
X159508191Y-72122135D01*
X199849500Y-72122135D01*
X199849500Y-73917870D01*
X199849501Y-73917876D01*
X199855908Y-73977483D01*
X199906202Y-74112328D01*
X199906203Y-74112330D01*
X199983578Y-74215689D01*
X200007995Y-74281153D01*
X199993144Y-74349426D01*
X199983578Y-74364311D01*
X199906203Y-74467669D01*
X199906202Y-74467671D01*
X199855908Y-74602517D01*
X199849501Y-74662116D01*
X199849501Y-74662123D01*
X199849500Y-74662135D01*
X199849500Y-76457870D01*
X199849501Y-76457876D01*
X199855908Y-76517483D01*
X199906202Y-76652328D01*
X199906206Y-76652335D01*
X199992452Y-76767544D01*
X199992455Y-76767547D01*
X200107664Y-76853793D01*
X200107671Y-76853797D01*
X200242517Y-76904091D01*
X200242516Y-76904091D01*
X200249444Y-76904835D01*
X200302127Y-76910500D01*
X202935611Y-76910499D01*
X202946419Y-76910971D01*
X202999999Y-76915659D01*
X203000000Y-76915659D01*
X203000001Y-76915659D01*
X203053580Y-76910971D01*
X203064388Y-76910499D01*
X203897871Y-76910499D01*
X203897872Y-76910499D01*
X203957483Y-76904091D01*
X204092331Y-76853796D01*
X204207546Y-76767546D01*
X204293796Y-76652331D01*
X204344091Y-76517483D01*
X204350500Y-76457873D01*
X204350500Y-76179997D01*
X208209723Y-76179997D01*
X208209723Y-76180002D01*
X208228793Y-76397975D01*
X208228793Y-76397979D01*
X208285422Y-76609322D01*
X208285424Y-76609326D01*
X208285425Y-76609330D01*
X208305477Y-76652331D01*
X208377897Y-76807638D01*
X208377898Y-76807639D01*
X208503402Y-76986877D01*
X208658123Y-77141598D01*
X208837361Y-77267102D01*
X209035670Y-77359575D01*
X209247023Y-77416207D01*
X209429926Y-77432208D01*
X209464998Y-77435277D01*
X209465000Y-77435277D01*
X209465002Y-77435277D01*
X209493254Y-77432805D01*
X209682977Y-77416207D01*
X209894330Y-77359575D01*
X210092639Y-77267102D01*
X210271877Y-77141598D01*
X210426598Y-76986877D01*
X210552102Y-76807639D01*
X210644575Y-76609330D01*
X210701207Y-76397977D01*
X210718527Y-76200000D01*
X210720277Y-76180002D01*
X210720277Y-76179997D01*
X213059723Y-76179997D01*
X213059723Y-76180002D01*
X213078793Y-76397975D01*
X213078793Y-76397979D01*
X213135422Y-76609322D01*
X213135424Y-76609326D01*
X213135425Y-76609330D01*
X213155477Y-76652331D01*
X213227897Y-76807638D01*
X213227898Y-76807639D01*
X213353402Y-76986877D01*
X213508123Y-77141598D01*
X213687361Y-77267102D01*
X213885670Y-77359575D01*
X214097023Y-77416207D01*
X214279926Y-77432208D01*
X214314998Y-77435277D01*
X214315000Y-77435277D01*
X214315002Y-77435277D01*
X214343254Y-77432805D01*
X214532977Y-77416207D01*
X214744330Y-77359575D01*
X214942639Y-77267102D01*
X215121877Y-77141598D01*
X215276598Y-76986877D01*
X215402102Y-76807639D01*
X215494575Y-76609330D01*
X215551207Y-76397977D01*
X215568527Y-76200000D01*
X215570277Y-76180002D01*
X215570277Y-76179997D01*
X215561477Y-76079414D01*
X215551207Y-75962023D01*
X215511556Y-75814045D01*
X215494577Y-75750677D01*
X215494576Y-75750676D01*
X215494575Y-75750670D01*
X215402102Y-75552362D01*
X215402100Y-75552359D01*
X215402099Y-75552357D01*
X215276599Y-75373124D01*
X215210451Y-75306976D01*
X215121877Y-75218402D01*
X214942639Y-75092898D01*
X214942640Y-75092898D01*
X214942638Y-75092897D01*
X214843484Y-75046661D01*
X214744330Y-75000425D01*
X214744326Y-75000424D01*
X214744322Y-75000422D01*
X214532977Y-74943793D01*
X214315002Y-74924723D01*
X214314998Y-74924723D01*
X214169682Y-74937436D01*
X214097023Y-74943793D01*
X214097020Y-74943793D01*
X213885677Y-75000422D01*
X213885668Y-75000426D01*
X213687361Y-75092898D01*
X213687357Y-75092900D01*
X213508121Y-75218402D01*
X213353402Y-75373121D01*
X213227900Y-75552357D01*
X213227898Y-75552361D01*
X213135426Y-75750668D01*
X213135422Y-75750677D01*
X213078793Y-75962020D01*
X213078793Y-75962024D01*
X213059723Y-76179997D01*
X210720277Y-76179997D01*
X210711477Y-76079414D01*
X210701207Y-75962023D01*
X210661556Y-75814045D01*
X210644577Y-75750677D01*
X210644576Y-75750676D01*
X210644575Y-75750670D01*
X210552102Y-75552362D01*
X210552100Y-75552359D01*
X210552099Y-75552357D01*
X210426599Y-75373124D01*
X210360451Y-75306976D01*
X210271877Y-75218402D01*
X210092639Y-75092898D01*
X210092640Y-75092898D01*
X210092638Y-75092897D01*
X209993484Y-75046661D01*
X209894330Y-75000425D01*
X209894326Y-75000424D01*
X209894322Y-75000422D01*
X209682977Y-74943793D01*
X209465002Y-74924723D01*
X209464998Y-74924723D01*
X209319682Y-74937436D01*
X209247023Y-74943793D01*
X209247020Y-74943793D01*
X209035677Y-75000422D01*
X209035668Y-75000426D01*
X208837361Y-75092898D01*
X208837357Y-75092900D01*
X208658121Y-75218402D01*
X208503402Y-75373121D01*
X208377900Y-75552357D01*
X208377898Y-75552361D01*
X208285426Y-75750668D01*
X208285422Y-75750677D01*
X208228793Y-75962020D01*
X208228793Y-75962024D01*
X208209723Y-76179997D01*
X204350500Y-76179997D01*
X204350499Y-75624383D01*
X204350971Y-75613576D01*
X204355659Y-75560000D01*
X204355659Y-75559999D01*
X204350971Y-75506421D01*
X204350499Y-75495613D01*
X204350499Y-74662129D01*
X204350498Y-74662123D01*
X204350497Y-74662116D01*
X204344091Y-74602517D01*
X204293796Y-74467669D01*
X204216421Y-74364309D01*
X204192004Y-74298848D01*
X204206855Y-74230575D01*
X204216416Y-74215696D01*
X204293796Y-74112331D01*
X204344091Y-73977483D01*
X204350500Y-73917873D01*
X204350499Y-73149993D01*
X207759700Y-73149993D01*
X207759700Y-73150006D01*
X207778864Y-73381297D01*
X207778866Y-73381308D01*
X207835842Y-73606300D01*
X207929075Y-73818848D01*
X208056016Y-74013147D01*
X208056019Y-74013151D01*
X208056021Y-74013153D01*
X208213216Y-74183913D01*
X208213219Y-74183915D01*
X208213222Y-74183918D01*
X208396365Y-74326464D01*
X208396371Y-74326468D01*
X208396374Y-74326470D01*
X208600497Y-74436936D01*
X208690019Y-74467669D01*
X208820015Y-74512297D01*
X208820017Y-74512297D01*
X208820019Y-74512298D01*
X209048951Y-74550500D01*
X209048952Y-74550500D01*
X209281048Y-74550500D01*
X209281049Y-74550500D01*
X209509981Y-74512298D01*
X209729503Y-74436936D01*
X209933626Y-74326470D01*
X210116784Y-74183913D01*
X210273979Y-74013153D01*
X210400924Y-73818849D01*
X210494157Y-73606300D01*
X210551134Y-73381305D01*
X210559278Y-73283023D01*
X210570300Y-73150006D01*
X210570300Y-73149993D01*
X213209700Y-73149993D01*
X213209700Y-73150006D01*
X213228864Y-73381297D01*
X213228866Y-73381308D01*
X213285842Y-73606300D01*
X213379075Y-73818848D01*
X213506016Y-74013147D01*
X213506019Y-74013151D01*
X213506021Y-74013153D01*
X213663216Y-74183913D01*
X213663219Y-74183915D01*
X213663222Y-74183918D01*
X213846365Y-74326464D01*
X213846371Y-74326468D01*
X213846374Y-74326470D01*
X214050497Y-74436936D01*
X214140019Y-74467669D01*
X214270015Y-74512297D01*
X214270017Y-74512297D01*
X214270019Y-74512298D01*
X214498951Y-74550500D01*
X214498952Y-74550500D01*
X214731048Y-74550500D01*
X214731049Y-74550500D01*
X214959981Y-74512298D01*
X215179503Y-74436936D01*
X215383626Y-74326470D01*
X215566784Y-74183913D01*
X215723979Y-74013153D01*
X215850924Y-73818849D01*
X215944157Y-73606300D01*
X216001134Y-73381305D01*
X216009278Y-73283023D01*
X216020300Y-73150006D01*
X216020300Y-73149993D01*
X216009528Y-73019997D01*
X219424341Y-73019997D01*
X219424341Y-73020002D01*
X219429028Y-73073576D01*
X219429500Y-73084383D01*
X219429500Y-73917870D01*
X219429501Y-73917876D01*
X219435908Y-73977483D01*
X219486202Y-74112328D01*
X219486203Y-74112330D01*
X219563578Y-74215689D01*
X219587995Y-74281153D01*
X219573144Y-74349426D01*
X219563578Y-74364311D01*
X219486203Y-74467669D01*
X219486202Y-74467671D01*
X219435908Y-74602517D01*
X219429501Y-74662116D01*
X219429501Y-74662123D01*
X219429500Y-74662135D01*
X219429500Y-75495616D01*
X219429028Y-75506423D01*
X219424341Y-75559997D01*
X219424341Y-75560002D01*
X219429028Y-75613576D01*
X219429500Y-75624383D01*
X219429500Y-76457870D01*
X219429501Y-76457876D01*
X219435908Y-76517483D01*
X219486202Y-76652328D01*
X219486206Y-76652335D01*
X219572452Y-76767544D01*
X219572455Y-76767547D01*
X219687664Y-76853793D01*
X219687671Y-76853797D01*
X219822517Y-76904091D01*
X219822516Y-76904091D01*
X219829444Y-76904835D01*
X219882127Y-76910500D01*
X220715616Y-76910499D01*
X220726425Y-76910971D01*
X220780000Y-76915659D01*
X220833575Y-76910971D01*
X220844384Y-76910499D01*
X223477871Y-76910499D01*
X223477872Y-76910499D01*
X223537483Y-76904091D01*
X223672331Y-76853796D01*
X223787546Y-76767546D01*
X223873796Y-76652331D01*
X223924091Y-76517483D01*
X223930500Y-76457873D01*
X223930500Y-76199998D01*
X231739532Y-76199998D01*
X231739532Y-76200000D01*
X231759364Y-76426686D01*
X231759366Y-76426697D01*
X231818258Y-76646488D01*
X231818261Y-76646497D01*
X231914431Y-76852732D01*
X231914432Y-76852734D01*
X232044954Y-77039141D01*
X232205858Y-77200045D01*
X232205861Y-77200047D01*
X232392266Y-77330568D01*
X232598504Y-77426739D01*
X232818308Y-77485635D01*
X232980230Y-77499801D01*
X233044998Y-77505468D01*
X233045000Y-77505468D01*
X233045002Y-77505468D01*
X233101673Y-77500509D01*
X233271692Y-77485635D01*
X233491496Y-77426739D01*
X233697734Y-77330568D01*
X233884139Y-77200047D01*
X234045047Y-77039139D01*
X234175568Y-76852734D01*
X234271739Y-76646496D01*
X234330635Y-76426692D01*
X234350468Y-76200000D01*
X234348718Y-76180002D01*
X234331481Y-75982979D01*
X234330635Y-75973308D01*
X234271739Y-75753504D01*
X234175568Y-75547266D01*
X234053633Y-75373123D01*
X234045045Y-75360858D01*
X233884141Y-75199954D01*
X233697734Y-75069432D01*
X233697732Y-75069431D01*
X233491497Y-74973261D01*
X233491488Y-74973258D01*
X233271697Y-74914366D01*
X233271693Y-74914365D01*
X233271692Y-74914365D01*
X233271691Y-74914364D01*
X233271686Y-74914364D01*
X233045002Y-74894532D01*
X233044998Y-74894532D01*
X232818313Y-74914364D01*
X232818302Y-74914366D01*
X232598511Y-74973258D01*
X232598502Y-74973261D01*
X232392267Y-75069431D01*
X232392265Y-75069432D01*
X232205858Y-75199954D01*
X232044954Y-75360858D01*
X231914432Y-75547265D01*
X231914431Y-75547267D01*
X231818261Y-75753502D01*
X231818258Y-75753511D01*
X231759366Y-75973302D01*
X231759364Y-75973313D01*
X231739532Y-76199998D01*
X223930500Y-76199998D01*
X223930499Y-74662128D01*
X223924091Y-74602517D01*
X223873796Y-74467669D01*
X223796421Y-74364309D01*
X223772004Y-74298848D01*
X223772841Y-74295000D01*
X236036931Y-74295000D01*
X236046226Y-74422004D01*
X236056476Y-74562042D01*
X236056478Y-74562056D01*
X236114691Y-74823387D01*
X236114694Y-74823394D01*
X236210346Y-75073485D01*
X236341387Y-75306976D01*
X236341389Y-75306979D01*
X236341390Y-75306980D01*
X236505036Y-75518909D01*
X236697795Y-75704752D01*
X236915559Y-75860549D01*
X236988588Y-75898095D01*
X237153671Y-75982972D01*
X237153681Y-75982976D01*
X237153687Y-75982979D01*
X237407103Y-76069432D01*
X237670406Y-76118067D01*
X237878522Y-76125672D01*
X237937982Y-76127846D01*
X237937982Y-76127845D01*
X237937984Y-76127846D01*
X238204135Y-76098561D01*
X238463185Y-76030836D01*
X238709614Y-75926115D01*
X238938170Y-75786630D01*
X239143980Y-75615353D01*
X239143982Y-75615349D01*
X239143985Y-75615348D01*
X239230389Y-75518915D01*
X239322660Y-75415935D01*
X239470399Y-75192626D01*
X239584050Y-74950186D01*
X239661191Y-74693782D01*
X239700177Y-74428878D01*
X239702620Y-74295000D01*
X239700177Y-74161122D01*
X239661191Y-73896218D01*
X239661188Y-73896210D01*
X239661188Y-73896206D01*
X239584053Y-73639824D01*
X239584051Y-73639817D01*
X239568339Y-73606300D01*
X239470399Y-73397374D01*
X239322660Y-73174065D01*
X239230388Y-73071084D01*
X239143984Y-72974651D01*
X239143985Y-72974651D01*
X239036560Y-72885251D01*
X238938170Y-72803370D01*
X238938167Y-72803368D01*
X238938166Y-72803367D01*
X238817050Y-72729452D01*
X238709614Y-72663885D01*
X238709610Y-72663883D01*
X238709608Y-72663882D01*
X238463181Y-72559162D01*
X238251895Y-72503925D01*
X238204135Y-72491439D01*
X238204133Y-72491438D01*
X238204130Y-72491438D01*
X237937981Y-72462153D01*
X237670413Y-72471932D01*
X237670406Y-72471933D01*
X237407107Y-72520567D01*
X237407101Y-72520568D01*
X237153681Y-72607023D01*
X237153671Y-72607027D01*
X236915562Y-72729449D01*
X236915557Y-72729452D01*
X236697793Y-72885249D01*
X236697791Y-72885251D01*
X236505043Y-73071083D01*
X236505042Y-73071084D01*
X236505038Y-73071088D01*
X236505036Y-73071091D01*
X236494771Y-73084385D01*
X236341387Y-73283023D01*
X236210346Y-73516514D01*
X236114694Y-73766605D01*
X236114691Y-73766612D01*
X236056478Y-74027943D01*
X236056476Y-74027957D01*
X236046730Y-74161122D01*
X236036931Y-74295000D01*
X223772841Y-74295000D01*
X223786855Y-74230575D01*
X223796416Y-74215696D01*
X223873796Y-74112331D01*
X223924091Y-73977483D01*
X223930500Y-73917873D01*
X223930499Y-72122128D01*
X223924091Y-72062517D01*
X223890901Y-71973531D01*
X223873797Y-71927671D01*
X223873793Y-71927664D01*
X223787547Y-71812455D01*
X223787544Y-71812452D01*
X223672335Y-71726206D01*
X223672328Y-71726202D01*
X223537482Y-71675908D01*
X223537483Y-71675908D01*
X223477883Y-71669501D01*
X223477881Y-71669500D01*
X223477873Y-71669500D01*
X223477865Y-71669500D01*
X220844385Y-71669500D01*
X220833578Y-71669028D01*
X220780001Y-71664341D01*
X220779997Y-71664341D01*
X220726419Y-71669028D01*
X220715613Y-71669500D01*
X219882129Y-71669500D01*
X219882123Y-71669501D01*
X219822516Y-71675908D01*
X219687671Y-71726202D01*
X219687664Y-71726206D01*
X219572455Y-71812452D01*
X219572452Y-71812455D01*
X219486206Y-71927664D01*
X219486202Y-71927671D01*
X219435908Y-72062517D01*
X219430149Y-72116087D01*
X219429501Y-72122123D01*
X219429500Y-72122135D01*
X219429500Y-72955616D01*
X219429028Y-72966423D01*
X219424341Y-73019997D01*
X216009528Y-73019997D01*
X216001135Y-72918702D01*
X216001133Y-72918691D01*
X215944157Y-72693699D01*
X215850924Y-72481151D01*
X215723983Y-72286852D01*
X215723980Y-72286849D01*
X215723979Y-72286847D01*
X215566784Y-72116087D01*
X215566779Y-72116083D01*
X215566777Y-72116081D01*
X215383634Y-71973535D01*
X215383628Y-71973531D01*
X215179504Y-71863064D01*
X215179495Y-71863061D01*
X214959984Y-71787702D01*
X214788282Y-71759050D01*
X214731049Y-71749500D01*
X214498951Y-71749500D01*
X214453164Y-71757140D01*
X214270015Y-71787702D01*
X214050504Y-71863061D01*
X214050495Y-71863064D01*
X213846371Y-71973531D01*
X213846365Y-71973535D01*
X213663222Y-72116081D01*
X213663219Y-72116084D01*
X213663216Y-72116086D01*
X213663216Y-72116087D01*
X213604267Y-72180122D01*
X213506016Y-72286852D01*
X213379075Y-72481151D01*
X213285842Y-72693699D01*
X213228866Y-72918691D01*
X213228864Y-72918702D01*
X213209700Y-73149993D01*
X210570300Y-73149993D01*
X210551135Y-72918702D01*
X210551133Y-72918691D01*
X210494157Y-72693699D01*
X210400924Y-72481151D01*
X210273983Y-72286852D01*
X210273980Y-72286849D01*
X210273979Y-72286847D01*
X210116784Y-72116087D01*
X210116779Y-72116083D01*
X210116777Y-72116081D01*
X209933634Y-71973535D01*
X209933628Y-71973531D01*
X209729504Y-71863064D01*
X209729495Y-71863061D01*
X209509984Y-71787702D01*
X209338282Y-71759050D01*
X209281049Y-71749500D01*
X209048951Y-71749500D01*
X209003164Y-71757140D01*
X208820015Y-71787702D01*
X208600504Y-71863061D01*
X208600495Y-71863064D01*
X208396371Y-71973531D01*
X208396365Y-71973535D01*
X208213222Y-72116081D01*
X208213219Y-72116084D01*
X208213216Y-72116086D01*
X208213216Y-72116087D01*
X208154267Y-72180122D01*
X208056016Y-72286852D01*
X207929075Y-72481151D01*
X207835842Y-72693699D01*
X207778866Y-72918691D01*
X207778864Y-72918702D01*
X207759700Y-73149993D01*
X204350499Y-73149993D01*
X204350499Y-73084383D01*
X204350971Y-73073576D01*
X204351189Y-73071091D01*
X204355659Y-73020000D01*
X204350971Y-72966421D01*
X204350499Y-72955613D01*
X204350499Y-72122129D01*
X204350498Y-72122123D01*
X204350497Y-72122116D01*
X204344091Y-72062517D01*
X204310901Y-71973531D01*
X204293797Y-71927671D01*
X204293793Y-71927664D01*
X204207547Y-71812455D01*
X204207544Y-71812452D01*
X204092335Y-71726206D01*
X204092328Y-71726202D01*
X203957482Y-71675908D01*
X203957483Y-71675908D01*
X203897883Y-71669501D01*
X203897881Y-71669500D01*
X203897873Y-71669500D01*
X203897865Y-71669500D01*
X203064380Y-71669500D01*
X203053573Y-71669028D01*
X203027024Y-71666705D01*
X203000001Y-71664341D01*
X202999998Y-71664341D01*
X202946424Y-71669028D01*
X202935617Y-71669500D01*
X200302129Y-71669500D01*
X200302123Y-71669501D01*
X200242516Y-71675908D01*
X200107671Y-71726202D01*
X200107664Y-71726206D01*
X199992455Y-71812452D01*
X199992452Y-71812455D01*
X199906206Y-71927664D01*
X199906202Y-71927671D01*
X199855908Y-72062517D01*
X199850149Y-72116087D01*
X199849501Y-72122123D01*
X199849500Y-72122135D01*
X159508191Y-72122135D01*
X159500911Y-71124890D01*
X159520106Y-71057712D01*
X159572575Y-71011573D01*
X159624895Y-70999988D01*
X233680000Y-70993000D01*
X233680000Y-70992999D01*
X233716315Y-70956682D01*
X233717745Y-70958111D01*
X233752489Y-70928006D01*
X233804000Y-70916800D01*
X246891000Y-70916800D01*
X246958039Y-70936485D01*
G37*
%TD.AperFunction*%
%TD*%
M02*
