%TF.GenerationSoftware,KiCad,Pcbnew,8.0.5*%
%TF.CreationDate,2024-10-04T09:52:44+09:00*%
%TF.ProjectId,UI__,5549fa7f-2e6b-4696-9361-645f70636258,rev?*%
%TF.SameCoordinates,Original*%
%TF.FileFunction,Legend,Bot*%
%TF.FilePolarity,Positive*%
%FSLAX46Y46*%
G04 Gerber Fmt 4.6, Leading zero omitted, Abs format (unit mm)*
G04 Created by KiCad (PCBNEW 8.0.5) date 2024-10-04 09:52:44*
%MOMM*%
%LPD*%
G01*
G04 APERTURE LIST*
G04 Aperture macros list*
%AMRoundRect*
0 Rectangle with rounded corners*
0 $1 Rounding radius*
0 $2 $3 $4 $5 $6 $7 $8 $9 X,Y pos of 4 corners*
0 Add a 4 corners polygon primitive as box body*
4,1,4,$2,$3,$4,$5,$6,$7,$8,$9,$2,$3,0*
0 Add four circle primitives for the rounded corners*
1,1,$1+$1,$2,$3*
1,1,$1+$1,$4,$5*
1,1,$1+$1,$6,$7*
1,1,$1+$1,$8,$9*
0 Add four rect primitives between the rounded corners*
20,1,$1+$1,$2,$3,$4,$5,0*
20,1,$1+$1,$4,$5,$6,$7,0*
20,1,$1+$1,$6,$7,$8,$9,0*
20,1,$1+$1,$8,$9,$2,$3,0*%
G04 Aperture macros list end*
%ADD10C,0.150000*%
%ADD11C,0.120000*%
%ADD12C,0.127000*%
%ADD13RoundRect,0.250000X0.725000X-0.600000X0.725000X0.600000X-0.725000X0.600000X-0.725000X-0.600000X0*%
%ADD14O,1.950000X1.700000*%
%ADD15O,3.000000X1.500000*%
%ADD16C,1.524000*%
%ADD17C,5.600000*%
%ADD18O,1.800000X1.800000*%
%ADD19O,1.500000X1.500000*%
%ADD20O,1.700000X1.700000*%
%ADD21R,3.500000X1.700000*%
%ADD22R,1.700000X1.700000*%
%ADD23R,1.700000X3.500000*%
%ADD24RoundRect,0.237500X-0.237500X0.250000X-0.237500X-0.250000X0.237500X-0.250000X0.237500X0.250000X0*%
%ADD25C,2.000000*%
%ADD26RoundRect,0.250000X-0.600000X-0.725000X0.600000X-0.725000X0.600000X0.725000X-0.600000X0.725000X0*%
%ADD27O,1.700000X1.950000*%
%ADD28R,1.600000X1.600000*%
%ADD29C,1.600000*%
%ADD30RoundRect,0.250000X-0.725000X0.600000X-0.725000X-0.600000X0.725000X-0.600000X0.725000X0.600000X0*%
%ADD31R,1.270000X1.270000*%
%ADD32C,1.270000*%
G04 APERTURE END LIST*
D10*
X212651904Y-96604819D02*
X212651904Y-97414342D01*
X212651904Y-97414342D02*
X212604285Y-97509580D01*
X212604285Y-97509580D02*
X212556666Y-97557200D01*
X212556666Y-97557200D02*
X212461428Y-97604819D01*
X212461428Y-97604819D02*
X212270952Y-97604819D01*
X212270952Y-97604819D02*
X212175714Y-97557200D01*
X212175714Y-97557200D02*
X212128095Y-97509580D01*
X212128095Y-97509580D02*
X212080476Y-97414342D01*
X212080476Y-97414342D02*
X212080476Y-96604819D01*
X211699523Y-96604819D02*
X211080476Y-96604819D01*
X211080476Y-96604819D02*
X211413809Y-96985771D01*
X211413809Y-96985771D02*
X211270952Y-96985771D01*
X211270952Y-96985771D02*
X211175714Y-97033390D01*
X211175714Y-97033390D02*
X211128095Y-97081009D01*
X211128095Y-97081009D02*
X211080476Y-97176247D01*
X211080476Y-97176247D02*
X211080476Y-97414342D01*
X211080476Y-97414342D02*
X211128095Y-97509580D01*
X211128095Y-97509580D02*
X211175714Y-97557200D01*
X211175714Y-97557200D02*
X211270952Y-97604819D01*
X211270952Y-97604819D02*
X211556666Y-97604819D01*
X211556666Y-97604819D02*
X211651904Y-97557200D01*
X211651904Y-97557200D02*
X211699523Y-97509580D01*
X199803564Y-116348431D02*
X199884376Y-116375368D01*
X199884376Y-116375368D02*
X199965188Y-116456180D01*
X199965188Y-116456180D02*
X200019063Y-116563930D01*
X200019063Y-116563930D02*
X200019063Y-116671680D01*
X200019063Y-116671680D02*
X199992126Y-116752492D01*
X199992126Y-116752492D02*
X199911314Y-116887179D01*
X199911314Y-116887179D02*
X199830501Y-116967991D01*
X199830501Y-116967991D02*
X199695814Y-117048803D01*
X199695814Y-117048803D02*
X199615002Y-117075741D01*
X199615002Y-117075741D02*
X199507253Y-117075741D01*
X199507253Y-117075741D02*
X199399503Y-117021866D01*
X199399503Y-117021866D02*
X199345628Y-116967991D01*
X199345628Y-116967991D02*
X199291753Y-116860241D01*
X199291753Y-116860241D02*
X199291753Y-116806367D01*
X199291753Y-116806367D02*
X199480315Y-116617805D01*
X199480315Y-116617805D02*
X199588065Y-116725554D01*
X198995442Y-116617805D02*
X199561127Y-116052119D01*
X199561127Y-116052119D02*
X198672193Y-116294556D01*
X198672193Y-116294556D02*
X199237879Y-115728871D01*
X198402819Y-116025182D02*
X198968505Y-115459497D01*
X198968505Y-115459497D02*
X198833818Y-115324810D01*
X198833818Y-115324810D02*
X198726068Y-115270935D01*
X198726068Y-115270935D02*
X198618319Y-115270935D01*
X198618319Y-115270935D02*
X198537506Y-115297872D01*
X198537506Y-115297872D02*
X198402819Y-115378685D01*
X198402819Y-115378685D02*
X198322007Y-115459497D01*
X198322007Y-115459497D02*
X198241195Y-115594184D01*
X198241195Y-115594184D02*
X198214258Y-115674996D01*
X198214258Y-115674996D02*
X198214258Y-115782746D01*
X198214258Y-115782746D02*
X198268132Y-115890495D01*
X198268132Y-115890495D02*
X198402819Y-116025182D01*
X225376627Y-101081494D02*
X225457439Y-101108431D01*
X225457439Y-101108431D02*
X225538251Y-101189243D01*
X225538251Y-101189243D02*
X225592126Y-101296993D01*
X225592126Y-101296993D02*
X225592126Y-101404742D01*
X225592126Y-101404742D02*
X225565189Y-101485555D01*
X225565189Y-101485555D02*
X225484376Y-101620242D01*
X225484376Y-101620242D02*
X225403564Y-101701054D01*
X225403564Y-101701054D02*
X225268877Y-101781866D01*
X225268877Y-101781866D02*
X225188065Y-101808803D01*
X225188065Y-101808803D02*
X225080315Y-101808803D01*
X225080315Y-101808803D02*
X224972566Y-101754929D01*
X224972566Y-101754929D02*
X224918691Y-101701054D01*
X224918691Y-101701054D02*
X224864816Y-101593304D01*
X224864816Y-101593304D02*
X224864816Y-101539429D01*
X224864816Y-101539429D02*
X225053378Y-101350868D01*
X225053378Y-101350868D02*
X225161128Y-101458617D01*
X224568505Y-101350868D02*
X225134190Y-100785182D01*
X225134190Y-100785182D02*
X224918691Y-100569683D01*
X224918691Y-100569683D02*
X224837879Y-100542746D01*
X224837879Y-100542746D02*
X224784004Y-100542746D01*
X224784004Y-100542746D02*
X224703192Y-100569683D01*
X224703192Y-100569683D02*
X224622380Y-100650495D01*
X224622380Y-100650495D02*
X224595442Y-100731307D01*
X224595442Y-100731307D02*
X224595442Y-100785182D01*
X224595442Y-100785182D02*
X224622380Y-100865994D01*
X224622380Y-100865994D02*
X224837879Y-101081494D01*
X223975882Y-100758245D02*
X223868132Y-100650495D01*
X223868132Y-100650495D02*
X223841195Y-100569683D01*
X223841195Y-100569683D02*
X223841195Y-100515808D01*
X223841195Y-100515808D02*
X223868132Y-100381121D01*
X223868132Y-100381121D02*
X223948945Y-100246434D01*
X223948945Y-100246434D02*
X224164444Y-100030935D01*
X224164444Y-100030935D02*
X224245256Y-100003998D01*
X224245256Y-100003998D02*
X224299131Y-100003998D01*
X224299131Y-100003998D02*
X224379943Y-100030935D01*
X224379943Y-100030935D02*
X224487693Y-100138685D01*
X224487693Y-100138685D02*
X224514630Y-100219497D01*
X224514630Y-100219497D02*
X224514630Y-100273372D01*
X224514630Y-100273372D02*
X224487693Y-100354184D01*
X224487693Y-100354184D02*
X224353006Y-100488871D01*
X224353006Y-100488871D02*
X224272193Y-100515808D01*
X224272193Y-100515808D02*
X224218319Y-100515808D01*
X224218319Y-100515808D02*
X224137506Y-100488871D01*
X224137506Y-100488871D02*
X224029757Y-100381121D01*
X224029757Y-100381121D02*
X224002819Y-100300309D01*
X224002819Y-100300309D02*
X224002819Y-100246434D01*
X224002819Y-100246434D02*
X224029757Y-100165622D01*
X199792001Y-88396868D02*
X199872814Y-88423805D01*
X199872814Y-88423805D02*
X199953626Y-88504618D01*
X199953626Y-88504618D02*
X200007501Y-88612367D01*
X200007501Y-88612367D02*
X200007501Y-88720117D01*
X200007501Y-88720117D02*
X199980563Y-88800929D01*
X199980563Y-88800929D02*
X199899751Y-88935616D01*
X199899751Y-88935616D02*
X199818939Y-89016428D01*
X199818939Y-89016428D02*
X199684252Y-89097241D01*
X199684252Y-89097241D02*
X199603439Y-89124178D01*
X199603439Y-89124178D02*
X199495690Y-89124178D01*
X199495690Y-89124178D02*
X199387940Y-89070303D01*
X199387940Y-89070303D02*
X199334065Y-89016428D01*
X199334065Y-89016428D02*
X199280191Y-88908679D01*
X199280191Y-88908679D02*
X199280191Y-88854804D01*
X199280191Y-88854804D02*
X199468752Y-88666242D01*
X199468752Y-88666242D02*
X199576502Y-88773992D01*
X198983879Y-88666242D02*
X199549565Y-88100557D01*
X199549565Y-88100557D02*
X199334065Y-87885057D01*
X199334065Y-87885057D02*
X199253253Y-87858120D01*
X199253253Y-87858120D02*
X199199378Y-87858120D01*
X199199378Y-87858120D02*
X199118566Y-87885057D01*
X199118566Y-87885057D02*
X199037754Y-87965870D01*
X199037754Y-87965870D02*
X199010817Y-88046682D01*
X199010817Y-88046682D02*
X199010817Y-88100557D01*
X199010817Y-88100557D02*
X199037754Y-88181369D01*
X199037754Y-88181369D02*
X199253253Y-88396868D01*
X198956942Y-87615683D02*
X198956942Y-87561809D01*
X198956942Y-87561809D02*
X198930004Y-87480996D01*
X198930004Y-87480996D02*
X198795317Y-87346309D01*
X198795317Y-87346309D02*
X198714505Y-87319372D01*
X198714505Y-87319372D02*
X198660630Y-87319372D01*
X198660630Y-87319372D02*
X198579818Y-87346309D01*
X198579818Y-87346309D02*
X198525943Y-87400184D01*
X198525943Y-87400184D02*
X198472069Y-87507934D01*
X198472069Y-87507934D02*
X198472069Y-88154431D01*
X198472069Y-88154431D02*
X198121882Y-87804245D01*
X198121882Y-87157747D02*
X198202694Y-87184685D01*
X198202694Y-87184685D02*
X198256569Y-87184685D01*
X198256569Y-87184685D02*
X198337381Y-87157747D01*
X198337381Y-87157747D02*
X198364319Y-87130810D01*
X198364319Y-87130810D02*
X198391256Y-87049998D01*
X198391256Y-87049998D02*
X198391256Y-86996123D01*
X198391256Y-86996123D02*
X198364319Y-86915311D01*
X198364319Y-86915311D02*
X198256569Y-86807561D01*
X198256569Y-86807561D02*
X198175757Y-86780624D01*
X198175757Y-86780624D02*
X198121882Y-86780624D01*
X198121882Y-86780624D02*
X198041070Y-86807561D01*
X198041070Y-86807561D02*
X198014133Y-86834499D01*
X198014133Y-86834499D02*
X197987195Y-86915311D01*
X197987195Y-86915311D02*
X197987195Y-86969186D01*
X197987195Y-86969186D02*
X198014133Y-87049998D01*
X198014133Y-87049998D02*
X198121882Y-87157747D01*
X198121882Y-87157747D02*
X198148820Y-87238560D01*
X198148820Y-87238560D02*
X198148820Y-87292434D01*
X198148820Y-87292434D02*
X198121882Y-87373247D01*
X198121882Y-87373247D02*
X198014133Y-87480996D01*
X198014133Y-87480996D02*
X197933320Y-87507934D01*
X197933320Y-87507934D02*
X197879446Y-87507934D01*
X197879446Y-87507934D02*
X197798633Y-87480996D01*
X197798633Y-87480996D02*
X197690884Y-87373247D01*
X197690884Y-87373247D02*
X197663946Y-87292434D01*
X197663946Y-87292434D02*
X197663946Y-87238560D01*
X197663946Y-87238560D02*
X197690884Y-87157747D01*
X197690884Y-87157747D02*
X197798633Y-87049998D01*
X197798633Y-87049998D02*
X197879446Y-87023060D01*
X197879446Y-87023060D02*
X197933320Y-87023060D01*
X197933320Y-87023060D02*
X198014133Y-87049998D01*
X225403564Y-103648431D02*
X225484376Y-103675368D01*
X225484376Y-103675368D02*
X225565188Y-103756180D01*
X225565188Y-103756180D02*
X225619063Y-103863930D01*
X225619063Y-103863930D02*
X225619063Y-103971680D01*
X225619063Y-103971680D02*
X225592126Y-104052492D01*
X225592126Y-104052492D02*
X225511314Y-104187179D01*
X225511314Y-104187179D02*
X225430501Y-104267991D01*
X225430501Y-104267991D02*
X225295814Y-104348803D01*
X225295814Y-104348803D02*
X225215002Y-104375741D01*
X225215002Y-104375741D02*
X225107253Y-104375741D01*
X225107253Y-104375741D02*
X224999503Y-104321866D01*
X224999503Y-104321866D02*
X224945628Y-104267991D01*
X224945628Y-104267991D02*
X224891753Y-104160241D01*
X224891753Y-104160241D02*
X224891753Y-104106367D01*
X224891753Y-104106367D02*
X225080315Y-103917805D01*
X225080315Y-103917805D02*
X225188065Y-104025554D01*
X224595442Y-103917805D02*
X225161127Y-103352119D01*
X225161127Y-103352119D02*
X224272193Y-103594556D01*
X224272193Y-103594556D02*
X224837879Y-103028871D01*
X224002819Y-103325182D02*
X224568505Y-102759497D01*
X224568505Y-102759497D02*
X224433818Y-102624810D01*
X224433818Y-102624810D02*
X224326068Y-102570935D01*
X224326068Y-102570935D02*
X224218319Y-102570935D01*
X224218319Y-102570935D02*
X224137506Y-102597872D01*
X224137506Y-102597872D02*
X224002819Y-102678685D01*
X224002819Y-102678685D02*
X223922007Y-102759497D01*
X223922007Y-102759497D02*
X223841195Y-102894184D01*
X223841195Y-102894184D02*
X223814258Y-102974996D01*
X223814258Y-102974996D02*
X223814258Y-103082746D01*
X223814258Y-103082746D02*
X223868132Y-103190495D01*
X223868132Y-103190495D02*
X224002819Y-103325182D01*
X225376627Y-85841494D02*
X225457439Y-85868431D01*
X225457439Y-85868431D02*
X225538251Y-85949243D01*
X225538251Y-85949243D02*
X225592126Y-86056993D01*
X225592126Y-86056993D02*
X225592126Y-86164742D01*
X225592126Y-86164742D02*
X225565189Y-86245555D01*
X225565189Y-86245555D02*
X225484376Y-86380242D01*
X225484376Y-86380242D02*
X225403564Y-86461054D01*
X225403564Y-86461054D02*
X225268877Y-86541866D01*
X225268877Y-86541866D02*
X225188065Y-86568803D01*
X225188065Y-86568803D02*
X225080315Y-86568803D01*
X225080315Y-86568803D02*
X224972566Y-86514929D01*
X224972566Y-86514929D02*
X224918691Y-86461054D01*
X224918691Y-86461054D02*
X224864816Y-86353304D01*
X224864816Y-86353304D02*
X224864816Y-86299429D01*
X224864816Y-86299429D02*
X225053378Y-86110868D01*
X225053378Y-86110868D02*
X225161128Y-86218617D01*
X224568505Y-86110868D02*
X225134190Y-85545182D01*
X225134190Y-85545182D02*
X224918691Y-85329683D01*
X224918691Y-85329683D02*
X224837879Y-85302746D01*
X224837879Y-85302746D02*
X224784004Y-85302746D01*
X224784004Y-85302746D02*
X224703192Y-85329683D01*
X224703192Y-85329683D02*
X224622380Y-85410495D01*
X224622380Y-85410495D02*
X224595442Y-85491307D01*
X224595442Y-85491307D02*
X224595442Y-85545182D01*
X224595442Y-85545182D02*
X224622380Y-85625994D01*
X224622380Y-85625994D02*
X224837879Y-85841494D01*
X224137506Y-84925622D02*
X223760383Y-85302746D01*
X224487693Y-84844810D02*
X224218319Y-85383558D01*
X224218319Y-85383558D02*
X223868132Y-85033372D01*
X199792001Y-93740868D02*
X199872814Y-93767805D01*
X199872814Y-93767805D02*
X199953626Y-93848618D01*
X199953626Y-93848618D02*
X200007501Y-93956367D01*
X200007501Y-93956367D02*
X200007501Y-94064117D01*
X200007501Y-94064117D02*
X199980563Y-94144929D01*
X199980563Y-94144929D02*
X199899751Y-94279616D01*
X199899751Y-94279616D02*
X199818939Y-94360428D01*
X199818939Y-94360428D02*
X199684252Y-94441241D01*
X199684252Y-94441241D02*
X199603439Y-94468178D01*
X199603439Y-94468178D02*
X199495690Y-94468178D01*
X199495690Y-94468178D02*
X199387940Y-94414303D01*
X199387940Y-94414303D02*
X199334065Y-94360428D01*
X199334065Y-94360428D02*
X199280191Y-94252679D01*
X199280191Y-94252679D02*
X199280191Y-94198804D01*
X199280191Y-94198804D02*
X199468752Y-94010242D01*
X199468752Y-94010242D02*
X199576502Y-94117992D01*
X198983879Y-94010242D02*
X199549565Y-93444557D01*
X199549565Y-93444557D02*
X199334065Y-93229057D01*
X199334065Y-93229057D02*
X199253253Y-93202120D01*
X199253253Y-93202120D02*
X199199378Y-93202120D01*
X199199378Y-93202120D02*
X199118566Y-93229057D01*
X199118566Y-93229057D02*
X199037754Y-93309870D01*
X199037754Y-93309870D02*
X199010817Y-93390682D01*
X199010817Y-93390682D02*
X199010817Y-93444557D01*
X199010817Y-93444557D02*
X199037754Y-93525369D01*
X199037754Y-93525369D02*
X199253253Y-93740868D01*
X198956942Y-92959683D02*
X198956942Y-92905809D01*
X198956942Y-92905809D02*
X198930004Y-92824996D01*
X198930004Y-92824996D02*
X198795317Y-92690309D01*
X198795317Y-92690309D02*
X198714505Y-92663372D01*
X198714505Y-92663372D02*
X198660630Y-92663372D01*
X198660630Y-92663372D02*
X198579818Y-92690309D01*
X198579818Y-92690309D02*
X198525943Y-92744184D01*
X198525943Y-92744184D02*
X198472069Y-92851934D01*
X198472069Y-92851934D02*
X198472069Y-93498431D01*
X198472069Y-93498431D02*
X198121882Y-93148245D01*
X198499006Y-92393998D02*
X198121882Y-92016874D01*
X198121882Y-92016874D02*
X197798633Y-92824996D01*
X199803564Y-103648431D02*
X199884376Y-103675368D01*
X199884376Y-103675368D02*
X199965188Y-103756180D01*
X199965188Y-103756180D02*
X200019063Y-103863930D01*
X200019063Y-103863930D02*
X200019063Y-103971680D01*
X200019063Y-103971680D02*
X199992126Y-104052492D01*
X199992126Y-104052492D02*
X199911314Y-104187179D01*
X199911314Y-104187179D02*
X199830501Y-104267991D01*
X199830501Y-104267991D02*
X199695814Y-104348803D01*
X199695814Y-104348803D02*
X199615002Y-104375741D01*
X199615002Y-104375741D02*
X199507253Y-104375741D01*
X199507253Y-104375741D02*
X199399503Y-104321866D01*
X199399503Y-104321866D02*
X199345628Y-104267991D01*
X199345628Y-104267991D02*
X199291753Y-104160241D01*
X199291753Y-104160241D02*
X199291753Y-104106367D01*
X199291753Y-104106367D02*
X199480315Y-103917805D01*
X199480315Y-103917805D02*
X199588065Y-104025554D01*
X198995442Y-103917805D02*
X199561127Y-103352119D01*
X199561127Y-103352119D02*
X198672193Y-103594556D01*
X198672193Y-103594556D02*
X199237879Y-103028871D01*
X198402819Y-103325182D02*
X198968505Y-102759497D01*
X198968505Y-102759497D02*
X198833818Y-102624810D01*
X198833818Y-102624810D02*
X198726068Y-102570935D01*
X198726068Y-102570935D02*
X198618319Y-102570935D01*
X198618319Y-102570935D02*
X198537506Y-102597872D01*
X198537506Y-102597872D02*
X198402819Y-102678685D01*
X198402819Y-102678685D02*
X198322007Y-102759497D01*
X198322007Y-102759497D02*
X198241195Y-102894184D01*
X198241195Y-102894184D02*
X198214258Y-102974996D01*
X198214258Y-102974996D02*
X198214258Y-103082746D01*
X198214258Y-103082746D02*
X198268132Y-103190495D01*
X198268132Y-103190495D02*
X198402819Y-103325182D01*
X225403564Y-90948431D02*
X225484376Y-90975368D01*
X225484376Y-90975368D02*
X225565188Y-91056180D01*
X225565188Y-91056180D02*
X225619063Y-91163930D01*
X225619063Y-91163930D02*
X225619063Y-91271680D01*
X225619063Y-91271680D02*
X225592126Y-91352492D01*
X225592126Y-91352492D02*
X225511314Y-91487179D01*
X225511314Y-91487179D02*
X225430501Y-91567991D01*
X225430501Y-91567991D02*
X225295814Y-91648803D01*
X225295814Y-91648803D02*
X225215002Y-91675741D01*
X225215002Y-91675741D02*
X225107253Y-91675741D01*
X225107253Y-91675741D02*
X224999503Y-91621866D01*
X224999503Y-91621866D02*
X224945628Y-91567991D01*
X224945628Y-91567991D02*
X224891753Y-91460241D01*
X224891753Y-91460241D02*
X224891753Y-91406367D01*
X224891753Y-91406367D02*
X225080315Y-91217805D01*
X225080315Y-91217805D02*
X225188065Y-91325554D01*
X224595442Y-91217805D02*
X225161127Y-90652119D01*
X225161127Y-90652119D02*
X224272193Y-90894556D01*
X224272193Y-90894556D02*
X224837879Y-90328871D01*
X224002819Y-90625182D02*
X224568505Y-90059497D01*
X224568505Y-90059497D02*
X224433818Y-89924810D01*
X224433818Y-89924810D02*
X224326068Y-89870935D01*
X224326068Y-89870935D02*
X224218319Y-89870935D01*
X224218319Y-89870935D02*
X224137506Y-89897872D01*
X224137506Y-89897872D02*
X224002819Y-89978685D01*
X224002819Y-89978685D02*
X223922007Y-90059497D01*
X223922007Y-90059497D02*
X223841195Y-90194184D01*
X223841195Y-90194184D02*
X223814258Y-90274996D01*
X223814258Y-90274996D02*
X223814258Y-90382746D01*
X223814258Y-90382746D02*
X223868132Y-90490495D01*
X223868132Y-90490495D02*
X224002819Y-90625182D01*
X199936593Y-73677585D02*
X199182346Y-74054709D01*
X199182346Y-74054709D02*
X199559470Y-73300462D01*
X198912972Y-73192712D02*
X198805223Y-73138838D01*
X198805223Y-73138838D02*
X198751348Y-73138838D01*
X198751348Y-73138838D02*
X198670536Y-73165775D01*
X198670536Y-73165775D02*
X198589723Y-73246587D01*
X198589723Y-73246587D02*
X198562786Y-73327399D01*
X198562786Y-73327399D02*
X198562786Y-73381274D01*
X198562786Y-73381274D02*
X198589723Y-73462086D01*
X198589723Y-73462086D02*
X198805223Y-73677586D01*
X198805223Y-73677586D02*
X199370908Y-73111900D01*
X199370908Y-73111900D02*
X199182346Y-72923338D01*
X199182346Y-72923338D02*
X199101534Y-72896401D01*
X199101534Y-72896401D02*
X199047659Y-72896401D01*
X199047659Y-72896401D02*
X198966847Y-72923338D01*
X198966847Y-72923338D02*
X198912972Y-72977213D01*
X198912972Y-72977213D02*
X198886035Y-73058025D01*
X198886035Y-73058025D02*
X198886035Y-73111900D01*
X198886035Y-73111900D02*
X198912972Y-73192712D01*
X198912972Y-73192712D02*
X199101534Y-73381274D01*
X198805223Y-72546215D02*
X198347287Y-73004151D01*
X198347287Y-73004151D02*
X198266475Y-73031088D01*
X198266475Y-73031088D02*
X198212600Y-73031088D01*
X198212600Y-73031088D02*
X198131788Y-73004151D01*
X198131788Y-73004151D02*
X198024038Y-72896401D01*
X198024038Y-72896401D02*
X197997101Y-72815589D01*
X197997101Y-72815589D02*
X197997101Y-72761714D01*
X197997101Y-72761714D02*
X198024038Y-72680902D01*
X198024038Y-72680902D02*
X198481974Y-72222966D01*
X197700789Y-72519277D02*
X197593040Y-72465403D01*
X197593040Y-72465403D02*
X197458353Y-72330716D01*
X197458353Y-72330716D02*
X197431415Y-72249903D01*
X197431415Y-72249903D02*
X197431415Y-72196029D01*
X197431415Y-72196029D02*
X197458353Y-72115216D01*
X197458353Y-72115216D02*
X197512228Y-72061342D01*
X197512228Y-72061342D02*
X197593040Y-72034404D01*
X197593040Y-72034404D02*
X197646915Y-72034404D01*
X197646915Y-72034404D02*
X197727727Y-72061342D01*
X197727727Y-72061342D02*
X197862414Y-72142154D01*
X197862414Y-72142154D02*
X197943226Y-72169091D01*
X197943226Y-72169091D02*
X197997101Y-72169091D01*
X197997101Y-72169091D02*
X198077913Y-72142154D01*
X198077913Y-72142154D02*
X198131788Y-72088279D01*
X198131788Y-72088279D02*
X198158725Y-72007467D01*
X198158725Y-72007467D02*
X198158725Y-71953592D01*
X198158725Y-71953592D02*
X198131788Y-71872780D01*
X198131788Y-71872780D02*
X197997101Y-71738093D01*
X197997101Y-71738093D02*
X197889351Y-71684218D01*
X225376627Y-88381494D02*
X225457439Y-88408431D01*
X225457439Y-88408431D02*
X225538251Y-88489243D01*
X225538251Y-88489243D02*
X225592126Y-88596993D01*
X225592126Y-88596993D02*
X225592126Y-88704742D01*
X225592126Y-88704742D02*
X225565189Y-88785555D01*
X225565189Y-88785555D02*
X225484376Y-88920242D01*
X225484376Y-88920242D02*
X225403564Y-89001054D01*
X225403564Y-89001054D02*
X225268877Y-89081866D01*
X225268877Y-89081866D02*
X225188065Y-89108803D01*
X225188065Y-89108803D02*
X225080315Y-89108803D01*
X225080315Y-89108803D02*
X224972566Y-89054929D01*
X224972566Y-89054929D02*
X224918691Y-89001054D01*
X224918691Y-89001054D02*
X224864816Y-88893304D01*
X224864816Y-88893304D02*
X224864816Y-88839429D01*
X224864816Y-88839429D02*
X225053378Y-88650868D01*
X225053378Y-88650868D02*
X225161128Y-88758617D01*
X224568505Y-88650868D02*
X225134190Y-88085182D01*
X225134190Y-88085182D02*
X224918691Y-87869683D01*
X224918691Y-87869683D02*
X224837879Y-87842746D01*
X224837879Y-87842746D02*
X224784004Y-87842746D01*
X224784004Y-87842746D02*
X224703192Y-87869683D01*
X224703192Y-87869683D02*
X224622380Y-87950495D01*
X224622380Y-87950495D02*
X224595442Y-88031307D01*
X224595442Y-88031307D02*
X224595442Y-88085182D01*
X224595442Y-88085182D02*
X224622380Y-88165994D01*
X224622380Y-88165994D02*
X224837879Y-88381494D01*
X224299131Y-87250123D02*
X224568505Y-87519497D01*
X224568505Y-87519497D02*
X224326068Y-87815808D01*
X224326068Y-87815808D02*
X224326068Y-87761933D01*
X224326068Y-87761933D02*
X224299131Y-87681121D01*
X224299131Y-87681121D02*
X224164444Y-87546434D01*
X224164444Y-87546434D02*
X224083632Y-87519497D01*
X224083632Y-87519497D02*
X224029757Y-87519497D01*
X224029757Y-87519497D02*
X223948945Y-87546434D01*
X223948945Y-87546434D02*
X223814258Y-87681121D01*
X223814258Y-87681121D02*
X223787320Y-87761933D01*
X223787320Y-87761933D02*
X223787320Y-87815808D01*
X223787320Y-87815808D02*
X223814258Y-87896620D01*
X223814258Y-87896620D02*
X223948945Y-88031307D01*
X223948945Y-88031307D02*
X224029757Y-88058245D01*
X224029757Y-88058245D02*
X224083632Y-88058245D01*
X199792001Y-108970868D02*
X199872814Y-108997805D01*
X199872814Y-108997805D02*
X199953626Y-109078618D01*
X199953626Y-109078618D02*
X200007501Y-109186367D01*
X200007501Y-109186367D02*
X200007501Y-109294117D01*
X200007501Y-109294117D02*
X199980563Y-109374929D01*
X199980563Y-109374929D02*
X199899751Y-109509616D01*
X199899751Y-109509616D02*
X199818939Y-109590428D01*
X199818939Y-109590428D02*
X199684252Y-109671241D01*
X199684252Y-109671241D02*
X199603439Y-109698178D01*
X199603439Y-109698178D02*
X199495690Y-109698178D01*
X199495690Y-109698178D02*
X199387940Y-109644303D01*
X199387940Y-109644303D02*
X199334065Y-109590428D01*
X199334065Y-109590428D02*
X199280191Y-109482679D01*
X199280191Y-109482679D02*
X199280191Y-109428804D01*
X199280191Y-109428804D02*
X199468752Y-109240242D01*
X199468752Y-109240242D02*
X199576502Y-109347992D01*
X198983879Y-109240242D02*
X199549565Y-108674557D01*
X199549565Y-108674557D02*
X199334065Y-108459057D01*
X199334065Y-108459057D02*
X199253253Y-108432120D01*
X199253253Y-108432120D02*
X199199378Y-108432120D01*
X199199378Y-108432120D02*
X199118566Y-108459057D01*
X199118566Y-108459057D02*
X199037754Y-108539870D01*
X199037754Y-108539870D02*
X199010817Y-108620682D01*
X199010817Y-108620682D02*
X199010817Y-108674557D01*
X199010817Y-108674557D02*
X199037754Y-108755369D01*
X199037754Y-108755369D02*
X199253253Y-108970868D01*
X198956942Y-108189683D02*
X198956942Y-108135809D01*
X198956942Y-108135809D02*
X198930004Y-108054996D01*
X198930004Y-108054996D02*
X198795317Y-107920309D01*
X198795317Y-107920309D02*
X198714505Y-107893372D01*
X198714505Y-107893372D02*
X198660630Y-107893372D01*
X198660630Y-107893372D02*
X198579818Y-107920309D01*
X198579818Y-107920309D02*
X198525943Y-107974184D01*
X198525943Y-107974184D02*
X198472069Y-108081934D01*
X198472069Y-108081934D02*
X198472069Y-108728431D01*
X198472069Y-108728431D02*
X198121882Y-108378245D01*
X198337381Y-107462373D02*
X198283507Y-107408499D01*
X198283507Y-107408499D02*
X198202694Y-107381561D01*
X198202694Y-107381561D02*
X198148820Y-107381561D01*
X198148820Y-107381561D02*
X198068007Y-107408499D01*
X198068007Y-107408499D02*
X197933320Y-107489311D01*
X197933320Y-107489311D02*
X197798633Y-107623998D01*
X197798633Y-107623998D02*
X197717821Y-107758685D01*
X197717821Y-107758685D02*
X197690884Y-107839497D01*
X197690884Y-107839497D02*
X197690884Y-107893372D01*
X197690884Y-107893372D02*
X197717821Y-107974184D01*
X197717821Y-107974184D02*
X197771696Y-108028059D01*
X197771696Y-108028059D02*
X197852508Y-108054996D01*
X197852508Y-108054996D02*
X197906383Y-108054996D01*
X197906383Y-108054996D02*
X197987195Y-108028059D01*
X197987195Y-108028059D02*
X198121882Y-107947247D01*
X198121882Y-107947247D02*
X198256569Y-107812560D01*
X198256569Y-107812560D02*
X198337381Y-107677873D01*
X198337381Y-107677873D02*
X198364319Y-107597060D01*
X198364319Y-107597060D02*
X198364319Y-107543186D01*
X198364319Y-107543186D02*
X198337381Y-107462373D01*
X225900001Y-114050868D02*
X225980814Y-114077805D01*
X225980814Y-114077805D02*
X226061626Y-114158618D01*
X226061626Y-114158618D02*
X226115501Y-114266367D01*
X226115501Y-114266367D02*
X226115501Y-114374117D01*
X226115501Y-114374117D02*
X226088563Y-114454929D01*
X226088563Y-114454929D02*
X226007751Y-114589616D01*
X226007751Y-114589616D02*
X225926939Y-114670428D01*
X225926939Y-114670428D02*
X225792252Y-114751241D01*
X225792252Y-114751241D02*
X225711439Y-114778178D01*
X225711439Y-114778178D02*
X225603690Y-114778178D01*
X225603690Y-114778178D02*
X225495940Y-114724303D01*
X225495940Y-114724303D02*
X225442065Y-114670428D01*
X225442065Y-114670428D02*
X225388191Y-114562679D01*
X225388191Y-114562679D02*
X225388191Y-114508804D01*
X225388191Y-114508804D02*
X225576752Y-114320242D01*
X225576752Y-114320242D02*
X225684502Y-114427992D01*
X225091879Y-114320242D02*
X225657565Y-113754557D01*
X225657565Y-113754557D02*
X225442065Y-113539057D01*
X225442065Y-113539057D02*
X225361253Y-113512120D01*
X225361253Y-113512120D02*
X225307378Y-113512120D01*
X225307378Y-113512120D02*
X225226566Y-113539057D01*
X225226566Y-113539057D02*
X225145754Y-113619870D01*
X225145754Y-113619870D02*
X225118817Y-113700682D01*
X225118817Y-113700682D02*
X225118817Y-113754557D01*
X225118817Y-113754557D02*
X225145754Y-113835369D01*
X225145754Y-113835369D02*
X225361253Y-114050868D01*
X224229882Y-113458245D02*
X224553131Y-113781494D01*
X224391507Y-113619870D02*
X224957192Y-113054184D01*
X224957192Y-113054184D02*
X224930255Y-113188871D01*
X224930255Y-113188871D02*
X224930255Y-113296621D01*
X224930255Y-113296621D02*
X224957192Y-113377433D01*
X224607006Y-112703998D02*
X224256820Y-112353812D01*
X224256820Y-112353812D02*
X224229882Y-112757873D01*
X224229882Y-112757873D02*
X224149070Y-112677060D01*
X224149070Y-112677060D02*
X224068258Y-112650123D01*
X224068258Y-112650123D02*
X224014383Y-112650123D01*
X224014383Y-112650123D02*
X223933571Y-112677060D01*
X223933571Y-112677060D02*
X223798884Y-112811747D01*
X223798884Y-112811747D02*
X223771946Y-112892560D01*
X223771946Y-112892560D02*
X223771946Y-112946434D01*
X223771946Y-112946434D02*
X223798884Y-113027247D01*
X223798884Y-113027247D02*
X223960508Y-113188871D01*
X223960508Y-113188871D02*
X224041320Y-113215808D01*
X224041320Y-113215808D02*
X224095195Y-113215808D01*
X225376627Y-93461494D02*
X225457439Y-93488431D01*
X225457439Y-93488431D02*
X225538251Y-93569243D01*
X225538251Y-93569243D02*
X225592126Y-93676993D01*
X225592126Y-93676993D02*
X225592126Y-93784742D01*
X225592126Y-93784742D02*
X225565189Y-93865555D01*
X225565189Y-93865555D02*
X225484376Y-94000242D01*
X225484376Y-94000242D02*
X225403564Y-94081054D01*
X225403564Y-94081054D02*
X225268877Y-94161866D01*
X225268877Y-94161866D02*
X225188065Y-94188803D01*
X225188065Y-94188803D02*
X225080315Y-94188803D01*
X225080315Y-94188803D02*
X224972566Y-94134929D01*
X224972566Y-94134929D02*
X224918691Y-94081054D01*
X224918691Y-94081054D02*
X224864816Y-93973304D01*
X224864816Y-93973304D02*
X224864816Y-93919429D01*
X224864816Y-93919429D02*
X225053378Y-93730868D01*
X225053378Y-93730868D02*
X225161128Y-93838617D01*
X224568505Y-93730868D02*
X225134190Y-93165182D01*
X225134190Y-93165182D02*
X224918691Y-92949683D01*
X224918691Y-92949683D02*
X224837879Y-92922746D01*
X224837879Y-92922746D02*
X224784004Y-92922746D01*
X224784004Y-92922746D02*
X224703192Y-92949683D01*
X224703192Y-92949683D02*
X224622380Y-93030495D01*
X224622380Y-93030495D02*
X224595442Y-93111307D01*
X224595442Y-93111307D02*
X224595442Y-93165182D01*
X224595442Y-93165182D02*
X224622380Y-93245994D01*
X224622380Y-93245994D02*
X224837879Y-93461494D01*
X224326068Y-92357060D02*
X224433818Y-92464810D01*
X224433818Y-92464810D02*
X224460755Y-92545622D01*
X224460755Y-92545622D02*
X224460755Y-92599497D01*
X224460755Y-92599497D02*
X224433818Y-92734184D01*
X224433818Y-92734184D02*
X224353006Y-92868871D01*
X224353006Y-92868871D02*
X224137506Y-93084370D01*
X224137506Y-93084370D02*
X224056694Y-93111307D01*
X224056694Y-93111307D02*
X224002819Y-93111307D01*
X224002819Y-93111307D02*
X223922007Y-93084370D01*
X223922007Y-93084370D02*
X223814258Y-92976620D01*
X223814258Y-92976620D02*
X223787320Y-92895808D01*
X223787320Y-92895808D02*
X223787320Y-92841933D01*
X223787320Y-92841933D02*
X223814258Y-92761121D01*
X223814258Y-92761121D02*
X223948945Y-92626434D01*
X223948945Y-92626434D02*
X224029757Y-92599497D01*
X224029757Y-92599497D02*
X224083632Y-92599497D01*
X224083632Y-92599497D02*
X224164444Y-92626434D01*
X224164444Y-92626434D02*
X224272193Y-92734184D01*
X224272193Y-92734184D02*
X224299131Y-92814996D01*
X224299131Y-92814996D02*
X224299131Y-92868871D01*
X224299131Y-92868871D02*
X224272193Y-92949683D01*
X199967592Y-81108584D02*
X199617406Y-80758398D01*
X199617406Y-80758398D02*
X199590468Y-81162459D01*
X199590468Y-81162459D02*
X199509656Y-81081646D01*
X199509656Y-81081646D02*
X199428844Y-81054709D01*
X199428844Y-81054709D02*
X199374969Y-81054709D01*
X199374969Y-81054709D02*
X199294157Y-81081646D01*
X199294157Y-81081646D02*
X199159470Y-81216333D01*
X199159470Y-81216333D02*
X199132532Y-81297146D01*
X199132532Y-81297146D02*
X199132532Y-81351020D01*
X199132532Y-81351020D02*
X199159470Y-81431833D01*
X199159470Y-81431833D02*
X199321094Y-81593457D01*
X199321094Y-81593457D02*
X199401906Y-81620394D01*
X199401906Y-81620394D02*
X199455781Y-81620394D01*
X199455781Y-80596773D02*
X198701534Y-80973897D01*
X198701534Y-80973897D02*
X199078657Y-80219649D01*
X198943971Y-80084963D02*
X198593784Y-79734776D01*
X198593784Y-79734776D02*
X198566847Y-80138837D01*
X198566847Y-80138837D02*
X198486035Y-80058025D01*
X198486035Y-80058025D02*
X198405223Y-80031088D01*
X198405223Y-80031088D02*
X198351348Y-80031088D01*
X198351348Y-80031088D02*
X198270535Y-80058025D01*
X198270535Y-80058025D02*
X198135848Y-80192712D01*
X198135848Y-80192712D02*
X198108911Y-80273524D01*
X198108911Y-80273524D02*
X198108911Y-80327399D01*
X198108911Y-80327399D02*
X198135848Y-80408211D01*
X198135848Y-80408211D02*
X198297473Y-80569836D01*
X198297473Y-80569836D02*
X198378285Y-80596773D01*
X198378285Y-80596773D02*
X198432160Y-80596773D01*
X197866474Y-80246587D02*
X197435476Y-79815588D01*
X197650975Y-79330715D02*
X197462413Y-79142153D01*
X197085290Y-79357652D02*
X197354664Y-79627026D01*
X197354664Y-79627026D02*
X197920349Y-79061341D01*
X197920349Y-79061341D02*
X197650975Y-78791967D01*
X196842853Y-79115215D02*
X197408538Y-78549530D01*
X197408538Y-78549530D02*
X196519604Y-78791967D01*
X196519604Y-78791967D02*
X197085289Y-78226281D01*
X199792001Y-106440868D02*
X199872814Y-106467805D01*
X199872814Y-106467805D02*
X199953626Y-106548618D01*
X199953626Y-106548618D02*
X200007501Y-106656367D01*
X200007501Y-106656367D02*
X200007501Y-106764117D01*
X200007501Y-106764117D02*
X199980563Y-106844929D01*
X199980563Y-106844929D02*
X199899751Y-106979616D01*
X199899751Y-106979616D02*
X199818939Y-107060428D01*
X199818939Y-107060428D02*
X199684252Y-107141241D01*
X199684252Y-107141241D02*
X199603439Y-107168178D01*
X199603439Y-107168178D02*
X199495690Y-107168178D01*
X199495690Y-107168178D02*
X199387940Y-107114303D01*
X199387940Y-107114303D02*
X199334065Y-107060428D01*
X199334065Y-107060428D02*
X199280191Y-106952679D01*
X199280191Y-106952679D02*
X199280191Y-106898804D01*
X199280191Y-106898804D02*
X199468752Y-106710242D01*
X199468752Y-106710242D02*
X199576502Y-106817992D01*
X198983879Y-106710242D02*
X199549565Y-106144557D01*
X199549565Y-106144557D02*
X199334065Y-105929057D01*
X199334065Y-105929057D02*
X199253253Y-105902120D01*
X199253253Y-105902120D02*
X199199378Y-105902120D01*
X199199378Y-105902120D02*
X199118566Y-105929057D01*
X199118566Y-105929057D02*
X199037754Y-106009870D01*
X199037754Y-106009870D02*
X199010817Y-106090682D01*
X199010817Y-106090682D02*
X199010817Y-106144557D01*
X199010817Y-106144557D02*
X199037754Y-106225369D01*
X199037754Y-106225369D02*
X199253253Y-106440868D01*
X198956942Y-105659683D02*
X198956942Y-105605809D01*
X198956942Y-105605809D02*
X198930004Y-105524996D01*
X198930004Y-105524996D02*
X198795317Y-105390309D01*
X198795317Y-105390309D02*
X198714505Y-105363372D01*
X198714505Y-105363372D02*
X198660630Y-105363372D01*
X198660630Y-105363372D02*
X198579818Y-105390309D01*
X198579818Y-105390309D02*
X198525943Y-105444184D01*
X198525943Y-105444184D02*
X198472069Y-105551934D01*
X198472069Y-105551934D02*
X198472069Y-106198431D01*
X198472069Y-106198431D02*
X198121882Y-105848245D01*
X197583134Y-105309497D02*
X197906383Y-105632746D01*
X197744759Y-105471121D02*
X198310444Y-104905436D01*
X198310444Y-104905436D02*
X198283507Y-105040123D01*
X198283507Y-105040123D02*
X198283507Y-105147873D01*
X198283507Y-105147873D02*
X198310444Y-105228685D01*
X225900001Y-106430868D02*
X225980814Y-106457805D01*
X225980814Y-106457805D02*
X226061626Y-106538618D01*
X226061626Y-106538618D02*
X226115501Y-106646367D01*
X226115501Y-106646367D02*
X226115501Y-106754117D01*
X226115501Y-106754117D02*
X226088563Y-106834929D01*
X226088563Y-106834929D02*
X226007751Y-106969616D01*
X226007751Y-106969616D02*
X225926939Y-107050428D01*
X225926939Y-107050428D02*
X225792252Y-107131241D01*
X225792252Y-107131241D02*
X225711439Y-107158178D01*
X225711439Y-107158178D02*
X225603690Y-107158178D01*
X225603690Y-107158178D02*
X225495940Y-107104303D01*
X225495940Y-107104303D02*
X225442065Y-107050428D01*
X225442065Y-107050428D02*
X225388191Y-106942679D01*
X225388191Y-106942679D02*
X225388191Y-106888804D01*
X225388191Y-106888804D02*
X225576752Y-106700242D01*
X225576752Y-106700242D02*
X225684502Y-106807992D01*
X225091879Y-106700242D02*
X225657565Y-106134557D01*
X225657565Y-106134557D02*
X225442065Y-105919057D01*
X225442065Y-105919057D02*
X225361253Y-105892120D01*
X225361253Y-105892120D02*
X225307378Y-105892120D01*
X225307378Y-105892120D02*
X225226566Y-105919057D01*
X225226566Y-105919057D02*
X225145754Y-105999870D01*
X225145754Y-105999870D02*
X225118817Y-106080682D01*
X225118817Y-106080682D02*
X225118817Y-106134557D01*
X225118817Y-106134557D02*
X225145754Y-106215369D01*
X225145754Y-106215369D02*
X225361253Y-106430868D01*
X224229882Y-105838245D02*
X224553131Y-106161494D01*
X224391507Y-105999870D02*
X224957192Y-105434184D01*
X224957192Y-105434184D02*
X224930255Y-105568871D01*
X224930255Y-105568871D02*
X224930255Y-105676621D01*
X224930255Y-105676621D02*
X224957192Y-105757433D01*
X224445381Y-104922373D02*
X224391507Y-104868499D01*
X224391507Y-104868499D02*
X224310694Y-104841561D01*
X224310694Y-104841561D02*
X224256820Y-104841561D01*
X224256820Y-104841561D02*
X224176007Y-104868499D01*
X224176007Y-104868499D02*
X224041320Y-104949311D01*
X224041320Y-104949311D02*
X223906633Y-105083998D01*
X223906633Y-105083998D02*
X223825821Y-105218685D01*
X223825821Y-105218685D02*
X223798884Y-105299497D01*
X223798884Y-105299497D02*
X223798884Y-105353372D01*
X223798884Y-105353372D02*
X223825821Y-105434184D01*
X223825821Y-105434184D02*
X223879696Y-105488059D01*
X223879696Y-105488059D02*
X223960508Y-105514996D01*
X223960508Y-105514996D02*
X224014383Y-105514996D01*
X224014383Y-105514996D02*
X224095195Y-105488059D01*
X224095195Y-105488059D02*
X224229882Y-105407247D01*
X224229882Y-105407247D02*
X224364569Y-105272560D01*
X224364569Y-105272560D02*
X224445381Y-105137873D01*
X224445381Y-105137873D02*
X224472319Y-105057060D01*
X224472319Y-105057060D02*
X224472319Y-105003186D01*
X224472319Y-105003186D02*
X224445381Y-104922373D01*
X225376627Y-73141494D02*
X225457439Y-73168431D01*
X225457439Y-73168431D02*
X225538251Y-73249243D01*
X225538251Y-73249243D02*
X225592126Y-73356993D01*
X225592126Y-73356993D02*
X225592126Y-73464742D01*
X225592126Y-73464742D02*
X225565189Y-73545555D01*
X225565189Y-73545555D02*
X225484376Y-73680242D01*
X225484376Y-73680242D02*
X225403564Y-73761054D01*
X225403564Y-73761054D02*
X225268877Y-73841866D01*
X225268877Y-73841866D02*
X225188065Y-73868803D01*
X225188065Y-73868803D02*
X225080315Y-73868803D01*
X225080315Y-73868803D02*
X224972566Y-73814929D01*
X224972566Y-73814929D02*
X224918691Y-73761054D01*
X224918691Y-73761054D02*
X224864816Y-73653304D01*
X224864816Y-73653304D02*
X224864816Y-73599429D01*
X224864816Y-73599429D02*
X225053378Y-73410868D01*
X225053378Y-73410868D02*
X225161128Y-73518617D01*
X224568505Y-73410868D02*
X225134190Y-72845182D01*
X225134190Y-72845182D02*
X224918691Y-72629683D01*
X224918691Y-72629683D02*
X224837879Y-72602746D01*
X224837879Y-72602746D02*
X224784004Y-72602746D01*
X224784004Y-72602746D02*
X224703192Y-72629683D01*
X224703192Y-72629683D02*
X224622380Y-72710495D01*
X224622380Y-72710495D02*
X224595442Y-72791307D01*
X224595442Y-72791307D02*
X224595442Y-72845182D01*
X224595442Y-72845182D02*
X224622380Y-72925994D01*
X224622380Y-72925994D02*
X224837879Y-73141494D01*
X224460755Y-72171747D02*
X224406880Y-72117872D01*
X224406880Y-72117872D02*
X224326068Y-72090935D01*
X224326068Y-72090935D02*
X224272193Y-72090935D01*
X224272193Y-72090935D02*
X224191381Y-72117872D01*
X224191381Y-72117872D02*
X224056694Y-72198685D01*
X224056694Y-72198685D02*
X223922007Y-72333372D01*
X223922007Y-72333372D02*
X223841195Y-72468059D01*
X223841195Y-72468059D02*
X223814258Y-72548871D01*
X223814258Y-72548871D02*
X223814258Y-72602746D01*
X223814258Y-72602746D02*
X223841195Y-72683558D01*
X223841195Y-72683558D02*
X223895070Y-72737433D01*
X223895070Y-72737433D02*
X223975882Y-72764370D01*
X223975882Y-72764370D02*
X224029757Y-72764370D01*
X224029757Y-72764370D02*
X224110569Y-72737433D01*
X224110569Y-72737433D02*
X224245256Y-72656620D01*
X224245256Y-72656620D02*
X224379943Y-72521933D01*
X224379943Y-72521933D02*
X224460755Y-72387246D01*
X224460755Y-72387246D02*
X224487693Y-72306434D01*
X224487693Y-72306434D02*
X224487693Y-72252559D01*
X224487693Y-72252559D02*
X224460755Y-72171747D01*
X225476627Y-75671494D02*
X225557439Y-75698431D01*
X225557439Y-75698431D02*
X225638251Y-75779243D01*
X225638251Y-75779243D02*
X225692126Y-75886993D01*
X225692126Y-75886993D02*
X225692126Y-75994742D01*
X225692126Y-75994742D02*
X225665189Y-76075555D01*
X225665189Y-76075555D02*
X225584376Y-76210242D01*
X225584376Y-76210242D02*
X225503564Y-76291054D01*
X225503564Y-76291054D02*
X225368877Y-76371866D01*
X225368877Y-76371866D02*
X225288065Y-76398803D01*
X225288065Y-76398803D02*
X225180315Y-76398803D01*
X225180315Y-76398803D02*
X225072566Y-76344929D01*
X225072566Y-76344929D02*
X225018691Y-76291054D01*
X225018691Y-76291054D02*
X224964816Y-76183304D01*
X224964816Y-76183304D02*
X224964816Y-76129429D01*
X224964816Y-76129429D02*
X225153378Y-75940868D01*
X225153378Y-75940868D02*
X225261128Y-76048617D01*
X224668505Y-75940868D02*
X225234190Y-75375182D01*
X225234190Y-75375182D02*
X225018691Y-75159683D01*
X225018691Y-75159683D02*
X224937879Y-75132746D01*
X224937879Y-75132746D02*
X224884004Y-75132746D01*
X224884004Y-75132746D02*
X224803192Y-75159683D01*
X224803192Y-75159683D02*
X224722380Y-75240495D01*
X224722380Y-75240495D02*
X224695442Y-75321307D01*
X224695442Y-75321307D02*
X224695442Y-75375182D01*
X224695442Y-75375182D02*
X224722380Y-75455994D01*
X224722380Y-75455994D02*
X224937879Y-75671494D01*
X223806508Y-75078871D02*
X224129757Y-75402120D01*
X223968132Y-75240495D02*
X224533818Y-74674810D01*
X224533818Y-74674810D02*
X224506880Y-74809497D01*
X224506880Y-74809497D02*
X224506880Y-74917246D01*
X224506880Y-74917246D02*
X224533818Y-74998059D01*
X199738126Y-91891240D02*
X199468752Y-91621866D01*
X199630376Y-92106739D02*
X200007500Y-91352492D01*
X200007500Y-91352492D02*
X199253253Y-91729615D01*
X199307128Y-90705994D02*
X199387940Y-90732932D01*
X199387940Y-90732932D02*
X199468752Y-90813744D01*
X199468752Y-90813744D02*
X199522627Y-90921494D01*
X199522627Y-90921494D02*
X199522627Y-91029243D01*
X199522627Y-91029243D02*
X199495689Y-91110055D01*
X199495689Y-91110055D02*
X199414877Y-91244742D01*
X199414877Y-91244742D02*
X199334065Y-91325555D01*
X199334065Y-91325555D02*
X199199378Y-91406367D01*
X199199378Y-91406367D02*
X199118566Y-91433304D01*
X199118566Y-91433304D02*
X199010816Y-91433304D01*
X199010816Y-91433304D02*
X198903067Y-91379429D01*
X198903067Y-91379429D02*
X198849192Y-91325555D01*
X198849192Y-91325555D02*
X198795317Y-91217805D01*
X198795317Y-91217805D02*
X198795317Y-91163930D01*
X198795317Y-91163930D02*
X198983879Y-90975368D01*
X198983879Y-90975368D02*
X199091628Y-91083118D01*
X198499006Y-90975368D02*
X199064691Y-90409683D01*
X199064691Y-90409683D02*
X198175757Y-90652120D01*
X198175757Y-90652120D02*
X198741442Y-90086434D01*
X197906383Y-90382746D02*
X198472068Y-89817060D01*
X198472068Y-89817060D02*
X198337381Y-89682373D01*
X198337381Y-89682373D02*
X198229632Y-89628498D01*
X198229632Y-89628498D02*
X198121882Y-89628498D01*
X198121882Y-89628498D02*
X198041070Y-89655436D01*
X198041070Y-89655436D02*
X197906383Y-89736248D01*
X197906383Y-89736248D02*
X197825571Y-89817060D01*
X197825571Y-89817060D02*
X197744758Y-89951747D01*
X197744758Y-89951747D02*
X197717821Y-90032560D01*
X197717821Y-90032560D02*
X197717821Y-90140309D01*
X197717821Y-90140309D02*
X197771696Y-90248059D01*
X197771696Y-90248059D02*
X197906383Y-90382746D01*
X199734935Y-86684049D02*
X199465561Y-86414675D01*
X199627186Y-86899549D02*
X200004309Y-86145301D01*
X200004309Y-86145301D02*
X199250062Y-86522425D01*
X199061500Y-86333863D02*
X199627186Y-85768178D01*
X199627186Y-85768178D02*
X199492499Y-85633491D01*
X199492499Y-85633491D02*
X199384749Y-85579616D01*
X199384749Y-85579616D02*
X199277000Y-85579616D01*
X199277000Y-85579616D02*
X199196187Y-85606553D01*
X199196187Y-85606553D02*
X199061500Y-85687366D01*
X199061500Y-85687366D02*
X198980688Y-85768178D01*
X198980688Y-85768178D02*
X198899876Y-85902865D01*
X198899876Y-85902865D02*
X198872939Y-85983677D01*
X198872939Y-85983677D02*
X198872939Y-86091427D01*
X198872939Y-86091427D02*
X198926813Y-86199176D01*
X198926813Y-86199176D02*
X199061500Y-86333863D01*
X198226441Y-85391054D02*
X198226441Y-85444929D01*
X198226441Y-85444929D02*
X198280316Y-85552679D01*
X198280316Y-85552679D02*
X198334191Y-85606553D01*
X198334191Y-85606553D02*
X198441940Y-85660428D01*
X198441940Y-85660428D02*
X198549690Y-85660428D01*
X198549690Y-85660428D02*
X198630502Y-85633491D01*
X198630502Y-85633491D02*
X198765189Y-85552679D01*
X198765189Y-85552679D02*
X198846001Y-85471866D01*
X198846001Y-85471866D02*
X198926813Y-85337179D01*
X198926813Y-85337179D02*
X198953751Y-85256367D01*
X198953751Y-85256367D02*
X198953751Y-85148618D01*
X198953751Y-85148618D02*
X198899876Y-85040868D01*
X198899876Y-85040868D02*
X198846001Y-84986993D01*
X198846001Y-84986993D02*
X198738252Y-84933118D01*
X198738252Y-84933118D02*
X198684377Y-84933118D01*
X198010942Y-85391054D02*
X197579943Y-84960056D01*
X198145629Y-84286621D02*
X197391381Y-84663744D01*
X197391381Y-84663744D02*
X197768505Y-83909497D01*
X196691009Y-83963372D02*
X197148945Y-83882560D01*
X197014258Y-84286621D02*
X197579943Y-83720935D01*
X197579943Y-83720935D02*
X197364444Y-83505436D01*
X197364444Y-83505436D02*
X197283632Y-83478499D01*
X197283632Y-83478499D02*
X197229757Y-83478499D01*
X197229757Y-83478499D02*
X197148945Y-83505436D01*
X197148945Y-83505436D02*
X197068133Y-83586248D01*
X197068133Y-83586248D02*
X197041195Y-83667061D01*
X197041195Y-83667061D02*
X197041195Y-83720935D01*
X197041195Y-83720935D02*
X197068133Y-83801748D01*
X197068133Y-83801748D02*
X197283632Y-84017247D01*
X196744884Y-83424624D02*
X196556322Y-83236062D01*
X196179199Y-83451561D02*
X196448573Y-83720935D01*
X196448573Y-83720935D02*
X197014258Y-83155250D01*
X197014258Y-83155250D02*
X196744884Y-82885876D01*
X196044511Y-82724251D02*
X196233073Y-82912813D01*
X195936762Y-83209125D02*
X196502447Y-82643439D01*
X196502447Y-82643439D02*
X196233073Y-82374065D01*
X199969250Y-76220242D02*
X199215003Y-76597366D01*
X199215003Y-76597366D02*
X199592126Y-75843118D01*
X198891754Y-76220242D02*
X198784004Y-76166367D01*
X198784004Y-76166367D02*
X198649317Y-76031680D01*
X198649317Y-76031680D02*
X198622380Y-75950868D01*
X198622380Y-75950868D02*
X198622380Y-75896993D01*
X198622380Y-75896993D02*
X198649317Y-75816181D01*
X198649317Y-75816181D02*
X198703192Y-75762306D01*
X198703192Y-75762306D02*
X198784004Y-75735369D01*
X198784004Y-75735369D02*
X198837879Y-75735369D01*
X198837879Y-75735369D02*
X198918691Y-75762306D01*
X198918691Y-75762306D02*
X199053378Y-75843118D01*
X199053378Y-75843118D02*
X199134191Y-75870056D01*
X199134191Y-75870056D02*
X199188065Y-75870056D01*
X199188065Y-75870056D02*
X199268878Y-75843118D01*
X199268878Y-75843118D02*
X199322752Y-75789244D01*
X199322752Y-75789244D02*
X199349690Y-75708431D01*
X199349690Y-75708431D02*
X199349690Y-75654557D01*
X199349690Y-75654557D02*
X199322752Y-75573744D01*
X199322752Y-75573744D02*
X199188065Y-75439057D01*
X199188065Y-75439057D02*
X199080316Y-75385183D01*
X198460755Y-75304370D02*
X198191381Y-75573744D01*
X198945629Y-75196621D02*
X198460755Y-75304370D01*
X198460755Y-75304370D02*
X198568505Y-74819497D01*
X197868133Y-75196621D02*
X197760383Y-75142746D01*
X197760383Y-75142746D02*
X197625696Y-75008059D01*
X197625696Y-75008059D02*
X197598759Y-74927247D01*
X197598759Y-74927247D02*
X197598759Y-74873372D01*
X197598759Y-74873372D02*
X197625696Y-74792560D01*
X197625696Y-74792560D02*
X197679571Y-74738685D01*
X197679571Y-74738685D02*
X197760383Y-74711748D01*
X197760383Y-74711748D02*
X197814258Y-74711748D01*
X197814258Y-74711748D02*
X197895070Y-74738685D01*
X197895070Y-74738685D02*
X198029757Y-74819497D01*
X198029757Y-74819497D02*
X198110569Y-74846435D01*
X198110569Y-74846435D02*
X198164444Y-74846435D01*
X198164444Y-74846435D02*
X198245256Y-74819497D01*
X198245256Y-74819497D02*
X198299131Y-74765622D01*
X198299131Y-74765622D02*
X198326069Y-74684810D01*
X198326069Y-74684810D02*
X198326069Y-74630935D01*
X198326069Y-74630935D02*
X198299131Y-74550123D01*
X198299131Y-74550123D02*
X198164444Y-74415436D01*
X198164444Y-74415436D02*
X198056695Y-74361561D01*
X199051348Y-99093710D02*
X199509283Y-99012898D01*
X199374596Y-99416959D02*
X199940282Y-98851274D01*
X199940282Y-98851274D02*
X199724783Y-98635775D01*
X199724783Y-98635775D02*
X199643970Y-98608837D01*
X199643970Y-98608837D02*
X199590096Y-98608837D01*
X199590096Y-98608837D02*
X199509283Y-98635775D01*
X199509283Y-98635775D02*
X199428471Y-98716587D01*
X199428471Y-98716587D02*
X199401534Y-98797399D01*
X199401534Y-98797399D02*
X199401534Y-98851274D01*
X199401534Y-98851274D02*
X199428471Y-98932086D01*
X199428471Y-98932086D02*
X199643970Y-99147585D01*
X199374596Y-98285588D02*
X198916661Y-98743524D01*
X198916661Y-98743524D02*
X198835848Y-98770462D01*
X198835848Y-98770462D02*
X198781974Y-98770462D01*
X198781974Y-98770462D02*
X198701161Y-98743524D01*
X198701161Y-98743524D02*
X198593412Y-98635775D01*
X198593412Y-98635775D02*
X198566474Y-98554962D01*
X198566474Y-98554962D02*
X198566474Y-98501088D01*
X198566474Y-98501088D02*
X198593412Y-98420275D01*
X198593412Y-98420275D02*
X199051348Y-97962340D01*
X198216288Y-98258651D02*
X198781974Y-97692966D01*
X198781974Y-97692966D02*
X197893040Y-97935402D01*
X197893040Y-97935402D02*
X198458725Y-97369717D01*
X199792001Y-114050868D02*
X199872814Y-114077805D01*
X199872814Y-114077805D02*
X199953626Y-114158618D01*
X199953626Y-114158618D02*
X200007501Y-114266367D01*
X200007501Y-114266367D02*
X200007501Y-114374117D01*
X200007501Y-114374117D02*
X199980563Y-114454929D01*
X199980563Y-114454929D02*
X199899751Y-114589616D01*
X199899751Y-114589616D02*
X199818939Y-114670428D01*
X199818939Y-114670428D02*
X199684252Y-114751241D01*
X199684252Y-114751241D02*
X199603439Y-114778178D01*
X199603439Y-114778178D02*
X199495690Y-114778178D01*
X199495690Y-114778178D02*
X199387940Y-114724303D01*
X199387940Y-114724303D02*
X199334065Y-114670428D01*
X199334065Y-114670428D02*
X199280191Y-114562679D01*
X199280191Y-114562679D02*
X199280191Y-114508804D01*
X199280191Y-114508804D02*
X199468752Y-114320242D01*
X199468752Y-114320242D02*
X199576502Y-114427992D01*
X198983879Y-114320242D02*
X199549565Y-113754557D01*
X199549565Y-113754557D02*
X199334065Y-113539057D01*
X199334065Y-113539057D02*
X199253253Y-113512120D01*
X199253253Y-113512120D02*
X199199378Y-113512120D01*
X199199378Y-113512120D02*
X199118566Y-113539057D01*
X199118566Y-113539057D02*
X199037754Y-113619870D01*
X199037754Y-113619870D02*
X199010817Y-113700682D01*
X199010817Y-113700682D02*
X199010817Y-113754557D01*
X199010817Y-113754557D02*
X199037754Y-113835369D01*
X199037754Y-113835369D02*
X199253253Y-114050868D01*
X198121882Y-113458245D02*
X198445131Y-113781494D01*
X198283507Y-113619870D02*
X198849192Y-113054184D01*
X198849192Y-113054184D02*
X198822255Y-113188871D01*
X198822255Y-113188871D02*
X198822255Y-113296621D01*
X198822255Y-113296621D02*
X198849192Y-113377433D01*
X198121882Y-112811747D02*
X198202694Y-112838685D01*
X198202694Y-112838685D02*
X198256569Y-112838685D01*
X198256569Y-112838685D02*
X198337381Y-112811747D01*
X198337381Y-112811747D02*
X198364319Y-112784810D01*
X198364319Y-112784810D02*
X198391256Y-112703998D01*
X198391256Y-112703998D02*
X198391256Y-112650123D01*
X198391256Y-112650123D02*
X198364319Y-112569311D01*
X198364319Y-112569311D02*
X198256569Y-112461561D01*
X198256569Y-112461561D02*
X198175757Y-112434624D01*
X198175757Y-112434624D02*
X198121882Y-112434624D01*
X198121882Y-112434624D02*
X198041070Y-112461561D01*
X198041070Y-112461561D02*
X198014133Y-112488499D01*
X198014133Y-112488499D02*
X197987195Y-112569311D01*
X197987195Y-112569311D02*
X197987195Y-112623186D01*
X197987195Y-112623186D02*
X198014133Y-112703998D01*
X198014133Y-112703998D02*
X198121882Y-112811747D01*
X198121882Y-112811747D02*
X198148820Y-112892560D01*
X198148820Y-112892560D02*
X198148820Y-112946434D01*
X198148820Y-112946434D02*
X198121882Y-113027247D01*
X198121882Y-113027247D02*
X198014133Y-113134996D01*
X198014133Y-113134996D02*
X197933320Y-113161934D01*
X197933320Y-113161934D02*
X197879446Y-113161934D01*
X197879446Y-113161934D02*
X197798633Y-113134996D01*
X197798633Y-113134996D02*
X197690884Y-113027247D01*
X197690884Y-113027247D02*
X197663946Y-112946434D01*
X197663946Y-112946434D02*
X197663946Y-112892560D01*
X197663946Y-112892560D02*
X197690884Y-112811747D01*
X197690884Y-112811747D02*
X197798633Y-112703998D01*
X197798633Y-112703998D02*
X197879446Y-112677060D01*
X197879446Y-112677060D02*
X197933320Y-112677060D01*
X197933320Y-112677060D02*
X198014133Y-112703998D01*
X199792001Y-96270868D02*
X199872814Y-96297805D01*
X199872814Y-96297805D02*
X199953626Y-96378618D01*
X199953626Y-96378618D02*
X200007501Y-96486367D01*
X200007501Y-96486367D02*
X200007501Y-96594117D01*
X200007501Y-96594117D02*
X199980563Y-96674929D01*
X199980563Y-96674929D02*
X199899751Y-96809616D01*
X199899751Y-96809616D02*
X199818939Y-96890428D01*
X199818939Y-96890428D02*
X199684252Y-96971241D01*
X199684252Y-96971241D02*
X199603439Y-96998178D01*
X199603439Y-96998178D02*
X199495690Y-96998178D01*
X199495690Y-96998178D02*
X199387940Y-96944303D01*
X199387940Y-96944303D02*
X199334065Y-96890428D01*
X199334065Y-96890428D02*
X199280191Y-96782679D01*
X199280191Y-96782679D02*
X199280191Y-96728804D01*
X199280191Y-96728804D02*
X199468752Y-96540242D01*
X199468752Y-96540242D02*
X199576502Y-96647992D01*
X198983879Y-96540242D02*
X199549565Y-95974557D01*
X199549565Y-95974557D02*
X199334065Y-95759057D01*
X199334065Y-95759057D02*
X199253253Y-95732120D01*
X199253253Y-95732120D02*
X199199378Y-95732120D01*
X199199378Y-95732120D02*
X199118566Y-95759057D01*
X199118566Y-95759057D02*
X199037754Y-95839870D01*
X199037754Y-95839870D02*
X199010817Y-95920682D01*
X199010817Y-95920682D02*
X199010817Y-95974557D01*
X199010817Y-95974557D02*
X199037754Y-96055369D01*
X199037754Y-96055369D02*
X199253253Y-96270868D01*
X198956942Y-95489683D02*
X198956942Y-95435809D01*
X198956942Y-95435809D02*
X198930004Y-95354996D01*
X198930004Y-95354996D02*
X198795317Y-95220309D01*
X198795317Y-95220309D02*
X198714505Y-95193372D01*
X198714505Y-95193372D02*
X198660630Y-95193372D01*
X198660630Y-95193372D02*
X198579818Y-95220309D01*
X198579818Y-95220309D02*
X198525943Y-95274184D01*
X198525943Y-95274184D02*
X198472069Y-95381934D01*
X198472069Y-95381934D02*
X198472069Y-96028431D01*
X198472069Y-96028431D02*
X198121882Y-95678245D01*
X198202694Y-94627686D02*
X198310444Y-94735436D01*
X198310444Y-94735436D02*
X198337381Y-94816248D01*
X198337381Y-94816248D02*
X198337381Y-94870123D01*
X198337381Y-94870123D02*
X198310444Y-95004810D01*
X198310444Y-95004810D02*
X198229632Y-95139497D01*
X198229632Y-95139497D02*
X198014133Y-95354996D01*
X198014133Y-95354996D02*
X197933320Y-95381934D01*
X197933320Y-95381934D02*
X197879446Y-95381934D01*
X197879446Y-95381934D02*
X197798633Y-95354996D01*
X197798633Y-95354996D02*
X197690884Y-95247247D01*
X197690884Y-95247247D02*
X197663946Y-95166434D01*
X197663946Y-95166434D02*
X197663946Y-95112560D01*
X197663946Y-95112560D02*
X197690884Y-95031747D01*
X197690884Y-95031747D02*
X197825571Y-94897060D01*
X197825571Y-94897060D02*
X197906383Y-94870123D01*
X197906383Y-94870123D02*
X197960258Y-94870123D01*
X197960258Y-94870123D02*
X198041070Y-94897060D01*
X198041070Y-94897060D02*
X198148820Y-95004810D01*
X198148820Y-95004810D02*
X198175757Y-95085622D01*
X198175757Y-95085622D02*
X198175757Y-95139497D01*
X198175757Y-95139497D02*
X198148820Y-95220309D01*
X199792001Y-119130868D02*
X199872814Y-119157805D01*
X199872814Y-119157805D02*
X199953626Y-119238618D01*
X199953626Y-119238618D02*
X200007501Y-119346367D01*
X200007501Y-119346367D02*
X200007501Y-119454117D01*
X200007501Y-119454117D02*
X199980563Y-119534929D01*
X199980563Y-119534929D02*
X199899751Y-119669616D01*
X199899751Y-119669616D02*
X199818939Y-119750428D01*
X199818939Y-119750428D02*
X199684252Y-119831241D01*
X199684252Y-119831241D02*
X199603439Y-119858178D01*
X199603439Y-119858178D02*
X199495690Y-119858178D01*
X199495690Y-119858178D02*
X199387940Y-119804303D01*
X199387940Y-119804303D02*
X199334065Y-119750428D01*
X199334065Y-119750428D02*
X199280191Y-119642679D01*
X199280191Y-119642679D02*
X199280191Y-119588804D01*
X199280191Y-119588804D02*
X199468752Y-119400242D01*
X199468752Y-119400242D02*
X199576502Y-119507992D01*
X198983879Y-119400242D02*
X199549565Y-118834557D01*
X199549565Y-118834557D02*
X199334065Y-118619057D01*
X199334065Y-118619057D02*
X199253253Y-118592120D01*
X199253253Y-118592120D02*
X199199378Y-118592120D01*
X199199378Y-118592120D02*
X199118566Y-118619057D01*
X199118566Y-118619057D02*
X199037754Y-118699870D01*
X199037754Y-118699870D02*
X199010817Y-118780682D01*
X199010817Y-118780682D02*
X199010817Y-118834557D01*
X199010817Y-118834557D02*
X199037754Y-118915369D01*
X199037754Y-118915369D02*
X199253253Y-119130868D01*
X198121882Y-118538245D02*
X198445131Y-118861494D01*
X198283507Y-118699870D02*
X198849192Y-118134184D01*
X198849192Y-118134184D02*
X198822255Y-118268871D01*
X198822255Y-118268871D02*
X198822255Y-118376621D01*
X198822255Y-118376621D02*
X198849192Y-118457433D01*
X198499006Y-117783998D02*
X198121882Y-117406874D01*
X198121882Y-117406874D02*
X197798633Y-118214996D01*
X225376627Y-98541494D02*
X225457439Y-98568431D01*
X225457439Y-98568431D02*
X225538251Y-98649243D01*
X225538251Y-98649243D02*
X225592126Y-98756993D01*
X225592126Y-98756993D02*
X225592126Y-98864742D01*
X225592126Y-98864742D02*
X225565189Y-98945555D01*
X225565189Y-98945555D02*
X225484376Y-99080242D01*
X225484376Y-99080242D02*
X225403564Y-99161054D01*
X225403564Y-99161054D02*
X225268877Y-99241866D01*
X225268877Y-99241866D02*
X225188065Y-99268803D01*
X225188065Y-99268803D02*
X225080315Y-99268803D01*
X225080315Y-99268803D02*
X224972566Y-99214929D01*
X224972566Y-99214929D02*
X224918691Y-99161054D01*
X224918691Y-99161054D02*
X224864816Y-99053304D01*
X224864816Y-99053304D02*
X224864816Y-98999429D01*
X224864816Y-98999429D02*
X225053378Y-98810868D01*
X225053378Y-98810868D02*
X225161128Y-98918617D01*
X224568505Y-98810868D02*
X225134190Y-98245182D01*
X225134190Y-98245182D02*
X224918691Y-98029683D01*
X224918691Y-98029683D02*
X224837879Y-98002746D01*
X224837879Y-98002746D02*
X224784004Y-98002746D01*
X224784004Y-98002746D02*
X224703192Y-98029683D01*
X224703192Y-98029683D02*
X224622380Y-98110495D01*
X224622380Y-98110495D02*
X224595442Y-98191307D01*
X224595442Y-98191307D02*
X224595442Y-98245182D01*
X224595442Y-98245182D02*
X224622380Y-98325994D01*
X224622380Y-98325994D02*
X224837879Y-98541494D01*
X224245256Y-97841121D02*
X224326068Y-97868059D01*
X224326068Y-97868059D02*
X224379943Y-97868059D01*
X224379943Y-97868059D02*
X224460755Y-97841121D01*
X224460755Y-97841121D02*
X224487693Y-97814184D01*
X224487693Y-97814184D02*
X224514630Y-97733372D01*
X224514630Y-97733372D02*
X224514630Y-97679497D01*
X224514630Y-97679497D02*
X224487693Y-97598685D01*
X224487693Y-97598685D02*
X224379943Y-97490935D01*
X224379943Y-97490935D02*
X224299131Y-97463998D01*
X224299131Y-97463998D02*
X224245256Y-97463998D01*
X224245256Y-97463998D02*
X224164444Y-97490935D01*
X224164444Y-97490935D02*
X224137506Y-97517872D01*
X224137506Y-97517872D02*
X224110569Y-97598685D01*
X224110569Y-97598685D02*
X224110569Y-97652559D01*
X224110569Y-97652559D02*
X224137506Y-97733372D01*
X224137506Y-97733372D02*
X224245256Y-97841121D01*
X224245256Y-97841121D02*
X224272193Y-97921933D01*
X224272193Y-97921933D02*
X224272193Y-97975808D01*
X224272193Y-97975808D02*
X224245256Y-98056620D01*
X224245256Y-98056620D02*
X224137506Y-98164370D01*
X224137506Y-98164370D02*
X224056694Y-98191307D01*
X224056694Y-98191307D02*
X224002819Y-98191307D01*
X224002819Y-98191307D02*
X223922007Y-98164370D01*
X223922007Y-98164370D02*
X223814258Y-98056620D01*
X223814258Y-98056620D02*
X223787320Y-97975808D01*
X223787320Y-97975808D02*
X223787320Y-97921933D01*
X223787320Y-97921933D02*
X223814258Y-97841121D01*
X223814258Y-97841121D02*
X223922007Y-97733372D01*
X223922007Y-97733372D02*
X224002819Y-97706434D01*
X224002819Y-97706434D02*
X224056694Y-97706434D01*
X224056694Y-97706434D02*
X224137506Y-97733372D01*
X219399524Y-123674200D02*
X219285238Y-123712295D01*
X219285238Y-123712295D02*
X219094762Y-123712295D01*
X219094762Y-123712295D02*
X219018571Y-123674200D01*
X219018571Y-123674200D02*
X218980476Y-123636104D01*
X218980476Y-123636104D02*
X218942381Y-123559914D01*
X218942381Y-123559914D02*
X218942381Y-123483723D01*
X218942381Y-123483723D02*
X218980476Y-123407533D01*
X218980476Y-123407533D02*
X219018571Y-123369438D01*
X219018571Y-123369438D02*
X219094762Y-123331342D01*
X219094762Y-123331342D02*
X219247143Y-123293247D01*
X219247143Y-123293247D02*
X219323333Y-123255152D01*
X219323333Y-123255152D02*
X219361428Y-123217057D01*
X219361428Y-123217057D02*
X219399524Y-123140866D01*
X219399524Y-123140866D02*
X219399524Y-123064676D01*
X219399524Y-123064676D02*
X219361428Y-122988485D01*
X219361428Y-122988485D02*
X219323333Y-122950390D01*
X219323333Y-122950390D02*
X219247143Y-122912295D01*
X219247143Y-122912295D02*
X219056666Y-122912295D01*
X219056666Y-122912295D02*
X218942381Y-122950390D01*
X218675714Y-122912295D02*
X218485238Y-123712295D01*
X218485238Y-123712295D02*
X218332857Y-123140866D01*
X218332857Y-123140866D02*
X218180476Y-123712295D01*
X218180476Y-123712295D02*
X217990000Y-122912295D01*
X217228094Y-123636104D02*
X217266190Y-123674200D01*
X217266190Y-123674200D02*
X217380475Y-123712295D01*
X217380475Y-123712295D02*
X217456666Y-123712295D01*
X217456666Y-123712295D02*
X217570952Y-123674200D01*
X217570952Y-123674200D02*
X217647142Y-123598009D01*
X217647142Y-123598009D02*
X217685237Y-123521819D01*
X217685237Y-123521819D02*
X217723333Y-123369438D01*
X217723333Y-123369438D02*
X217723333Y-123255152D01*
X217723333Y-123255152D02*
X217685237Y-123102771D01*
X217685237Y-123102771D02*
X217647142Y-123026580D01*
X217647142Y-123026580D02*
X217570952Y-122950390D01*
X217570952Y-122950390D02*
X217456666Y-122912295D01*
X217456666Y-122912295D02*
X217380475Y-122912295D01*
X217380475Y-122912295D02*
X217266190Y-122950390D01*
X217266190Y-122950390D02*
X217228094Y-122988485D01*
X216504285Y-123712295D02*
X216885237Y-123712295D01*
X216885237Y-123712295D02*
X216885237Y-122912295D01*
X216237618Y-123712295D02*
X216237618Y-122912295D01*
X215780475Y-123712295D02*
X216123333Y-123255152D01*
X215780475Y-122912295D02*
X216237618Y-123369438D01*
X225276627Y-95971494D02*
X225357439Y-95998431D01*
X225357439Y-95998431D02*
X225438251Y-96079243D01*
X225438251Y-96079243D02*
X225492126Y-96186993D01*
X225492126Y-96186993D02*
X225492126Y-96294742D01*
X225492126Y-96294742D02*
X225465189Y-96375555D01*
X225465189Y-96375555D02*
X225384376Y-96510242D01*
X225384376Y-96510242D02*
X225303564Y-96591054D01*
X225303564Y-96591054D02*
X225168877Y-96671866D01*
X225168877Y-96671866D02*
X225088065Y-96698803D01*
X225088065Y-96698803D02*
X224980315Y-96698803D01*
X224980315Y-96698803D02*
X224872566Y-96644929D01*
X224872566Y-96644929D02*
X224818691Y-96591054D01*
X224818691Y-96591054D02*
X224764816Y-96483304D01*
X224764816Y-96483304D02*
X224764816Y-96429429D01*
X224764816Y-96429429D02*
X224953378Y-96240868D01*
X224953378Y-96240868D02*
X225061128Y-96348617D01*
X224468505Y-96240868D02*
X225034190Y-95675182D01*
X225034190Y-95675182D02*
X224818691Y-95459683D01*
X224818691Y-95459683D02*
X224737879Y-95432746D01*
X224737879Y-95432746D02*
X224684004Y-95432746D01*
X224684004Y-95432746D02*
X224603192Y-95459683D01*
X224603192Y-95459683D02*
X224522380Y-95540495D01*
X224522380Y-95540495D02*
X224495442Y-95621307D01*
X224495442Y-95621307D02*
X224495442Y-95675182D01*
X224495442Y-95675182D02*
X224522380Y-95755994D01*
X224522380Y-95755994D02*
X224737879Y-95971494D01*
X224522380Y-95163372D02*
X224145256Y-94786248D01*
X224145256Y-94786248D02*
X223822007Y-95594370D01*
X226046001Y-111510868D02*
X226126814Y-111537805D01*
X226126814Y-111537805D02*
X226207626Y-111618618D01*
X226207626Y-111618618D02*
X226261501Y-111726367D01*
X226261501Y-111726367D02*
X226261501Y-111834117D01*
X226261501Y-111834117D02*
X226234563Y-111914929D01*
X226234563Y-111914929D02*
X226153751Y-112049616D01*
X226153751Y-112049616D02*
X226072939Y-112130428D01*
X226072939Y-112130428D02*
X225938252Y-112211241D01*
X225938252Y-112211241D02*
X225857439Y-112238178D01*
X225857439Y-112238178D02*
X225749690Y-112238178D01*
X225749690Y-112238178D02*
X225641940Y-112184303D01*
X225641940Y-112184303D02*
X225588065Y-112130428D01*
X225588065Y-112130428D02*
X225534191Y-112022679D01*
X225534191Y-112022679D02*
X225534191Y-111968804D01*
X225534191Y-111968804D02*
X225722752Y-111780242D01*
X225722752Y-111780242D02*
X225830502Y-111887992D01*
X225237879Y-111780242D02*
X225803565Y-111214557D01*
X225803565Y-111214557D02*
X225588065Y-110999057D01*
X225588065Y-110999057D02*
X225507253Y-110972120D01*
X225507253Y-110972120D02*
X225453378Y-110972120D01*
X225453378Y-110972120D02*
X225372566Y-110999057D01*
X225372566Y-110999057D02*
X225291754Y-111079870D01*
X225291754Y-111079870D02*
X225264817Y-111160682D01*
X225264817Y-111160682D02*
X225264817Y-111214557D01*
X225264817Y-111214557D02*
X225291754Y-111295369D01*
X225291754Y-111295369D02*
X225507253Y-111510868D01*
X224375882Y-110918245D02*
X224699131Y-111241494D01*
X224537507Y-111079870D02*
X225103192Y-110514184D01*
X225103192Y-110514184D02*
X225076255Y-110648871D01*
X225076255Y-110648871D02*
X225076255Y-110756621D01*
X225076255Y-110756621D02*
X225103192Y-110837433D01*
X224672194Y-110190935D02*
X224672194Y-110137060D01*
X224672194Y-110137060D02*
X224645256Y-110056248D01*
X224645256Y-110056248D02*
X224510569Y-109921561D01*
X224510569Y-109921561D02*
X224429757Y-109894624D01*
X224429757Y-109894624D02*
X224375882Y-109894624D01*
X224375882Y-109894624D02*
X224295070Y-109921561D01*
X224295070Y-109921561D02*
X224241195Y-109975436D01*
X224241195Y-109975436D02*
X224187320Y-110083186D01*
X224187320Y-110083186D02*
X224187320Y-110729683D01*
X224187320Y-110729683D02*
X223837134Y-110379497D01*
X225376627Y-83301494D02*
X225457439Y-83328431D01*
X225457439Y-83328431D02*
X225538251Y-83409243D01*
X225538251Y-83409243D02*
X225592126Y-83516993D01*
X225592126Y-83516993D02*
X225592126Y-83624742D01*
X225592126Y-83624742D02*
X225565189Y-83705555D01*
X225565189Y-83705555D02*
X225484376Y-83840242D01*
X225484376Y-83840242D02*
X225403564Y-83921054D01*
X225403564Y-83921054D02*
X225268877Y-84001866D01*
X225268877Y-84001866D02*
X225188065Y-84028803D01*
X225188065Y-84028803D02*
X225080315Y-84028803D01*
X225080315Y-84028803D02*
X224972566Y-83974929D01*
X224972566Y-83974929D02*
X224918691Y-83921054D01*
X224918691Y-83921054D02*
X224864816Y-83813304D01*
X224864816Y-83813304D02*
X224864816Y-83759429D01*
X224864816Y-83759429D02*
X225053378Y-83570868D01*
X225053378Y-83570868D02*
X225161128Y-83678617D01*
X224568505Y-83570868D02*
X225134190Y-83005182D01*
X225134190Y-83005182D02*
X224918691Y-82789683D01*
X224918691Y-82789683D02*
X224837879Y-82762746D01*
X224837879Y-82762746D02*
X224784004Y-82762746D01*
X224784004Y-82762746D02*
X224703192Y-82789683D01*
X224703192Y-82789683D02*
X224622380Y-82870495D01*
X224622380Y-82870495D02*
X224595442Y-82951307D01*
X224595442Y-82951307D02*
X224595442Y-83005182D01*
X224595442Y-83005182D02*
X224622380Y-83085994D01*
X224622380Y-83085994D02*
X224837879Y-83301494D01*
X224622380Y-82493372D02*
X224272193Y-82143185D01*
X224272193Y-82143185D02*
X224245256Y-82547246D01*
X224245256Y-82547246D02*
X224164444Y-82466434D01*
X224164444Y-82466434D02*
X224083632Y-82439497D01*
X224083632Y-82439497D02*
X224029757Y-82439497D01*
X224029757Y-82439497D02*
X223948945Y-82466434D01*
X223948945Y-82466434D02*
X223814258Y-82601121D01*
X223814258Y-82601121D02*
X223787320Y-82681933D01*
X223787320Y-82681933D02*
X223787320Y-82735808D01*
X223787320Y-82735808D02*
X223814258Y-82816620D01*
X223814258Y-82816620D02*
X223975882Y-82978245D01*
X223975882Y-82978245D02*
X224056694Y-83005182D01*
X224056694Y-83005182D02*
X224110569Y-83005182D01*
X225403564Y-116348431D02*
X225484376Y-116375368D01*
X225484376Y-116375368D02*
X225565188Y-116456180D01*
X225565188Y-116456180D02*
X225619063Y-116563930D01*
X225619063Y-116563930D02*
X225619063Y-116671680D01*
X225619063Y-116671680D02*
X225592126Y-116752492D01*
X225592126Y-116752492D02*
X225511314Y-116887179D01*
X225511314Y-116887179D02*
X225430501Y-116967991D01*
X225430501Y-116967991D02*
X225295814Y-117048803D01*
X225295814Y-117048803D02*
X225215002Y-117075741D01*
X225215002Y-117075741D02*
X225107253Y-117075741D01*
X225107253Y-117075741D02*
X224999503Y-117021866D01*
X224999503Y-117021866D02*
X224945628Y-116967991D01*
X224945628Y-116967991D02*
X224891753Y-116860241D01*
X224891753Y-116860241D02*
X224891753Y-116806367D01*
X224891753Y-116806367D02*
X225080315Y-116617805D01*
X225080315Y-116617805D02*
X225188065Y-116725554D01*
X224595442Y-116617805D02*
X225161127Y-116052119D01*
X225161127Y-116052119D02*
X224272193Y-116294556D01*
X224272193Y-116294556D02*
X224837879Y-115728871D01*
X224002819Y-116025182D02*
X224568505Y-115459497D01*
X224568505Y-115459497D02*
X224433818Y-115324810D01*
X224433818Y-115324810D02*
X224326068Y-115270935D01*
X224326068Y-115270935D02*
X224218319Y-115270935D01*
X224218319Y-115270935D02*
X224137506Y-115297872D01*
X224137506Y-115297872D02*
X224002819Y-115378685D01*
X224002819Y-115378685D02*
X223922007Y-115459497D01*
X223922007Y-115459497D02*
X223841195Y-115594184D01*
X223841195Y-115594184D02*
X223814258Y-115674996D01*
X223814258Y-115674996D02*
X223814258Y-115782746D01*
X223814258Y-115782746D02*
X223868132Y-115890495D01*
X223868132Y-115890495D02*
X224002819Y-116025182D01*
X225476627Y-80761494D02*
X225557439Y-80788431D01*
X225557439Y-80788431D02*
X225638251Y-80869243D01*
X225638251Y-80869243D02*
X225692126Y-80976993D01*
X225692126Y-80976993D02*
X225692126Y-81084742D01*
X225692126Y-81084742D02*
X225665189Y-81165555D01*
X225665189Y-81165555D02*
X225584376Y-81300242D01*
X225584376Y-81300242D02*
X225503564Y-81381054D01*
X225503564Y-81381054D02*
X225368877Y-81461866D01*
X225368877Y-81461866D02*
X225288065Y-81488803D01*
X225288065Y-81488803D02*
X225180315Y-81488803D01*
X225180315Y-81488803D02*
X225072566Y-81434929D01*
X225072566Y-81434929D02*
X225018691Y-81381054D01*
X225018691Y-81381054D02*
X224964816Y-81273304D01*
X224964816Y-81273304D02*
X224964816Y-81219429D01*
X224964816Y-81219429D02*
X225153378Y-81030868D01*
X225153378Y-81030868D02*
X225261128Y-81138617D01*
X224668505Y-81030868D02*
X225234190Y-80465182D01*
X225234190Y-80465182D02*
X225018691Y-80249683D01*
X225018691Y-80249683D02*
X224937879Y-80222746D01*
X224937879Y-80222746D02*
X224884004Y-80222746D01*
X224884004Y-80222746D02*
X224803192Y-80249683D01*
X224803192Y-80249683D02*
X224722380Y-80330495D01*
X224722380Y-80330495D02*
X224695442Y-80411307D01*
X224695442Y-80411307D02*
X224695442Y-80465182D01*
X224695442Y-80465182D02*
X224722380Y-80545994D01*
X224722380Y-80545994D02*
X224937879Y-80761494D01*
X224641567Y-79980309D02*
X224641567Y-79926434D01*
X224641567Y-79926434D02*
X224614630Y-79845622D01*
X224614630Y-79845622D02*
X224479943Y-79710935D01*
X224479943Y-79710935D02*
X224399131Y-79683998D01*
X224399131Y-79683998D02*
X224345256Y-79683998D01*
X224345256Y-79683998D02*
X224264444Y-79710935D01*
X224264444Y-79710935D02*
X224210569Y-79764810D01*
X224210569Y-79764810D02*
X224156694Y-79872559D01*
X224156694Y-79872559D02*
X224156694Y-80519057D01*
X224156694Y-80519057D02*
X223806508Y-80168871D01*
X199792001Y-101350868D02*
X199872814Y-101377805D01*
X199872814Y-101377805D02*
X199953626Y-101458618D01*
X199953626Y-101458618D02*
X200007501Y-101566367D01*
X200007501Y-101566367D02*
X200007501Y-101674117D01*
X200007501Y-101674117D02*
X199980563Y-101754929D01*
X199980563Y-101754929D02*
X199899751Y-101889616D01*
X199899751Y-101889616D02*
X199818939Y-101970428D01*
X199818939Y-101970428D02*
X199684252Y-102051241D01*
X199684252Y-102051241D02*
X199603439Y-102078178D01*
X199603439Y-102078178D02*
X199495690Y-102078178D01*
X199495690Y-102078178D02*
X199387940Y-102024303D01*
X199387940Y-102024303D02*
X199334065Y-101970428D01*
X199334065Y-101970428D02*
X199280191Y-101862679D01*
X199280191Y-101862679D02*
X199280191Y-101808804D01*
X199280191Y-101808804D02*
X199468752Y-101620242D01*
X199468752Y-101620242D02*
X199576502Y-101727992D01*
X198983879Y-101620242D02*
X199549565Y-101054557D01*
X199549565Y-101054557D02*
X199334065Y-100839057D01*
X199334065Y-100839057D02*
X199253253Y-100812120D01*
X199253253Y-100812120D02*
X199199378Y-100812120D01*
X199199378Y-100812120D02*
X199118566Y-100839057D01*
X199118566Y-100839057D02*
X199037754Y-100919870D01*
X199037754Y-100919870D02*
X199010817Y-101000682D01*
X199010817Y-101000682D02*
X199010817Y-101054557D01*
X199010817Y-101054557D02*
X199037754Y-101135369D01*
X199037754Y-101135369D02*
X199253253Y-101350868D01*
X198956942Y-100569683D02*
X198956942Y-100515809D01*
X198956942Y-100515809D02*
X198930004Y-100434996D01*
X198930004Y-100434996D02*
X198795317Y-100300309D01*
X198795317Y-100300309D02*
X198714505Y-100273372D01*
X198714505Y-100273372D02*
X198660630Y-100273372D01*
X198660630Y-100273372D02*
X198579818Y-100300309D01*
X198579818Y-100300309D02*
X198525943Y-100354184D01*
X198525943Y-100354184D02*
X198472069Y-100461934D01*
X198472069Y-100461934D02*
X198472069Y-101108431D01*
X198472069Y-101108431D02*
X198121882Y-100758245D01*
X198418194Y-100030935D02*
X198418194Y-99977060D01*
X198418194Y-99977060D02*
X198391256Y-99896248D01*
X198391256Y-99896248D02*
X198256569Y-99761561D01*
X198256569Y-99761561D02*
X198175757Y-99734624D01*
X198175757Y-99734624D02*
X198121882Y-99734624D01*
X198121882Y-99734624D02*
X198041070Y-99761561D01*
X198041070Y-99761561D02*
X197987195Y-99815436D01*
X197987195Y-99815436D02*
X197933320Y-99923186D01*
X197933320Y-99923186D02*
X197933320Y-100569683D01*
X197933320Y-100569683D02*
X197583134Y-100219497D01*
X199999876Y-83640868D02*
X199649690Y-83290682D01*
X199649690Y-83290682D02*
X199622752Y-83694743D01*
X199622752Y-83694743D02*
X199541940Y-83613931D01*
X199541940Y-83613931D02*
X199461128Y-83586993D01*
X199461128Y-83586993D02*
X199407253Y-83586993D01*
X199407253Y-83586993D02*
X199326441Y-83613931D01*
X199326441Y-83613931D02*
X199191754Y-83748618D01*
X199191754Y-83748618D02*
X199164817Y-83829430D01*
X199164817Y-83829430D02*
X199164817Y-83883305D01*
X199164817Y-83883305D02*
X199191754Y-83964117D01*
X199191754Y-83964117D02*
X199353378Y-84125741D01*
X199353378Y-84125741D02*
X199434191Y-84152679D01*
X199434191Y-84152679D02*
X199488065Y-84152679D01*
X199488065Y-83129057D02*
X198733818Y-83506181D01*
X198733818Y-83506181D02*
X199110942Y-82751934D01*
X198976255Y-82617247D02*
X198626069Y-82267061D01*
X198626069Y-82267061D02*
X198599131Y-82671122D01*
X198599131Y-82671122D02*
X198518319Y-82590309D01*
X198518319Y-82590309D02*
X198437507Y-82563372D01*
X198437507Y-82563372D02*
X198383632Y-82563372D01*
X198383632Y-82563372D02*
X198302820Y-82590309D01*
X198302820Y-82590309D02*
X198168133Y-82724996D01*
X198168133Y-82724996D02*
X198141195Y-82805809D01*
X198141195Y-82805809D02*
X198141195Y-82859683D01*
X198141195Y-82859683D02*
X198168133Y-82940496D01*
X198168133Y-82940496D02*
X198329757Y-83102120D01*
X198329757Y-83102120D02*
X198410569Y-83129057D01*
X198410569Y-83129057D02*
X198464444Y-83129057D01*
X225900001Y-121670868D02*
X225980814Y-121697805D01*
X225980814Y-121697805D02*
X226061626Y-121778618D01*
X226061626Y-121778618D02*
X226115501Y-121886367D01*
X226115501Y-121886367D02*
X226115501Y-121994117D01*
X226115501Y-121994117D02*
X226088563Y-122074929D01*
X226088563Y-122074929D02*
X226007751Y-122209616D01*
X226007751Y-122209616D02*
X225926939Y-122290428D01*
X225926939Y-122290428D02*
X225792252Y-122371241D01*
X225792252Y-122371241D02*
X225711439Y-122398178D01*
X225711439Y-122398178D02*
X225603690Y-122398178D01*
X225603690Y-122398178D02*
X225495940Y-122344303D01*
X225495940Y-122344303D02*
X225442065Y-122290428D01*
X225442065Y-122290428D02*
X225388191Y-122182679D01*
X225388191Y-122182679D02*
X225388191Y-122128804D01*
X225388191Y-122128804D02*
X225576752Y-121940242D01*
X225576752Y-121940242D02*
X225684502Y-122047992D01*
X225091879Y-121940242D02*
X225657565Y-121374557D01*
X225657565Y-121374557D02*
X225442065Y-121159057D01*
X225442065Y-121159057D02*
X225361253Y-121132120D01*
X225361253Y-121132120D02*
X225307378Y-121132120D01*
X225307378Y-121132120D02*
X225226566Y-121159057D01*
X225226566Y-121159057D02*
X225145754Y-121239870D01*
X225145754Y-121239870D02*
X225118817Y-121320682D01*
X225118817Y-121320682D02*
X225118817Y-121374557D01*
X225118817Y-121374557D02*
X225145754Y-121455369D01*
X225145754Y-121455369D02*
X225361253Y-121670868D01*
X224229882Y-121078245D02*
X224553131Y-121401494D01*
X224391507Y-121239870D02*
X224957192Y-120674184D01*
X224957192Y-120674184D02*
X224930255Y-120808871D01*
X224930255Y-120808871D02*
X224930255Y-120916621D01*
X224930255Y-120916621D02*
X224957192Y-120997433D01*
X224283757Y-120000749D02*
X224553131Y-120270123D01*
X224553131Y-120270123D02*
X224310694Y-120566434D01*
X224310694Y-120566434D02*
X224310694Y-120512560D01*
X224310694Y-120512560D02*
X224283757Y-120431747D01*
X224283757Y-120431747D02*
X224149070Y-120297060D01*
X224149070Y-120297060D02*
X224068258Y-120270123D01*
X224068258Y-120270123D02*
X224014383Y-120270123D01*
X224014383Y-120270123D02*
X223933571Y-120297060D01*
X223933571Y-120297060D02*
X223798884Y-120431747D01*
X223798884Y-120431747D02*
X223771946Y-120512560D01*
X223771946Y-120512560D02*
X223771946Y-120566434D01*
X223771946Y-120566434D02*
X223798884Y-120647247D01*
X223798884Y-120647247D02*
X223933571Y-120781934D01*
X223933571Y-120781934D02*
X224014383Y-120808871D01*
X224014383Y-120808871D02*
X224068258Y-120808871D01*
X199803564Y-78248431D02*
X199884376Y-78275368D01*
X199884376Y-78275368D02*
X199965188Y-78356180D01*
X199965188Y-78356180D02*
X200019063Y-78463930D01*
X200019063Y-78463930D02*
X200019063Y-78571680D01*
X200019063Y-78571680D02*
X199992126Y-78652492D01*
X199992126Y-78652492D02*
X199911314Y-78787179D01*
X199911314Y-78787179D02*
X199830501Y-78867991D01*
X199830501Y-78867991D02*
X199695814Y-78948803D01*
X199695814Y-78948803D02*
X199615002Y-78975741D01*
X199615002Y-78975741D02*
X199507253Y-78975741D01*
X199507253Y-78975741D02*
X199399503Y-78921866D01*
X199399503Y-78921866D02*
X199345628Y-78867991D01*
X199345628Y-78867991D02*
X199291753Y-78760241D01*
X199291753Y-78760241D02*
X199291753Y-78706367D01*
X199291753Y-78706367D02*
X199480315Y-78517805D01*
X199480315Y-78517805D02*
X199588065Y-78625554D01*
X198995442Y-78517805D02*
X199561127Y-77952119D01*
X199561127Y-77952119D02*
X198672193Y-78194556D01*
X198672193Y-78194556D02*
X199237879Y-77628871D01*
X198402819Y-77925182D02*
X198968505Y-77359497D01*
X198968505Y-77359497D02*
X198833818Y-77224810D01*
X198833818Y-77224810D02*
X198726068Y-77170935D01*
X198726068Y-77170935D02*
X198618319Y-77170935D01*
X198618319Y-77170935D02*
X198537506Y-77197872D01*
X198537506Y-77197872D02*
X198402819Y-77278685D01*
X198402819Y-77278685D02*
X198322007Y-77359497D01*
X198322007Y-77359497D02*
X198241195Y-77494184D01*
X198241195Y-77494184D02*
X198214258Y-77574996D01*
X198214258Y-77574996D02*
X198214258Y-77682746D01*
X198214258Y-77682746D02*
X198268132Y-77790495D01*
X198268132Y-77790495D02*
X198402819Y-77925182D01*
X225403564Y-78248431D02*
X225484376Y-78275368D01*
X225484376Y-78275368D02*
X225565188Y-78356180D01*
X225565188Y-78356180D02*
X225619063Y-78463930D01*
X225619063Y-78463930D02*
X225619063Y-78571680D01*
X225619063Y-78571680D02*
X225592126Y-78652492D01*
X225592126Y-78652492D02*
X225511314Y-78787179D01*
X225511314Y-78787179D02*
X225430501Y-78867991D01*
X225430501Y-78867991D02*
X225295814Y-78948803D01*
X225295814Y-78948803D02*
X225215002Y-78975741D01*
X225215002Y-78975741D02*
X225107253Y-78975741D01*
X225107253Y-78975741D02*
X224999503Y-78921866D01*
X224999503Y-78921866D02*
X224945628Y-78867991D01*
X224945628Y-78867991D02*
X224891753Y-78760241D01*
X224891753Y-78760241D02*
X224891753Y-78706367D01*
X224891753Y-78706367D02*
X225080315Y-78517805D01*
X225080315Y-78517805D02*
X225188065Y-78625554D01*
X224595442Y-78517805D02*
X225161127Y-77952119D01*
X225161127Y-77952119D02*
X224272193Y-78194556D01*
X224272193Y-78194556D02*
X224837879Y-77628871D01*
X224002819Y-77925182D02*
X224568505Y-77359497D01*
X224568505Y-77359497D02*
X224433818Y-77224810D01*
X224433818Y-77224810D02*
X224326068Y-77170935D01*
X224326068Y-77170935D02*
X224218319Y-77170935D01*
X224218319Y-77170935D02*
X224137506Y-77197872D01*
X224137506Y-77197872D02*
X224002819Y-77278685D01*
X224002819Y-77278685D02*
X223922007Y-77359497D01*
X223922007Y-77359497D02*
X223841195Y-77494184D01*
X223841195Y-77494184D02*
X223814258Y-77574996D01*
X223814258Y-77574996D02*
X223814258Y-77682746D01*
X223814258Y-77682746D02*
X223868132Y-77790495D01*
X223868132Y-77790495D02*
X224002819Y-77925182D01*
X225946001Y-119130868D02*
X226026814Y-119157805D01*
X226026814Y-119157805D02*
X226107626Y-119238618D01*
X226107626Y-119238618D02*
X226161501Y-119346367D01*
X226161501Y-119346367D02*
X226161501Y-119454117D01*
X226161501Y-119454117D02*
X226134563Y-119534929D01*
X226134563Y-119534929D02*
X226053751Y-119669616D01*
X226053751Y-119669616D02*
X225972939Y-119750428D01*
X225972939Y-119750428D02*
X225838252Y-119831241D01*
X225838252Y-119831241D02*
X225757439Y-119858178D01*
X225757439Y-119858178D02*
X225649690Y-119858178D01*
X225649690Y-119858178D02*
X225541940Y-119804303D01*
X225541940Y-119804303D02*
X225488065Y-119750428D01*
X225488065Y-119750428D02*
X225434191Y-119642679D01*
X225434191Y-119642679D02*
X225434191Y-119588804D01*
X225434191Y-119588804D02*
X225622752Y-119400242D01*
X225622752Y-119400242D02*
X225730502Y-119507992D01*
X225137879Y-119400242D02*
X225703565Y-118834557D01*
X225703565Y-118834557D02*
X225488065Y-118619057D01*
X225488065Y-118619057D02*
X225407253Y-118592120D01*
X225407253Y-118592120D02*
X225353378Y-118592120D01*
X225353378Y-118592120D02*
X225272566Y-118619057D01*
X225272566Y-118619057D02*
X225191754Y-118699870D01*
X225191754Y-118699870D02*
X225164817Y-118780682D01*
X225164817Y-118780682D02*
X225164817Y-118834557D01*
X225164817Y-118834557D02*
X225191754Y-118915369D01*
X225191754Y-118915369D02*
X225407253Y-119130868D01*
X224275882Y-118538245D02*
X224599131Y-118861494D01*
X224437507Y-118699870D02*
X225003192Y-118134184D01*
X225003192Y-118134184D02*
X224976255Y-118268871D01*
X224976255Y-118268871D02*
X224976255Y-118376621D01*
X224976255Y-118376621D02*
X225003192Y-118457433D01*
X224168133Y-117676248D02*
X223791009Y-118053372D01*
X224518319Y-117595436D02*
X224248945Y-118134184D01*
X224248945Y-118134184D02*
X223898759Y-117783998D01*
X207985238Y-123674200D02*
X207870952Y-123712295D01*
X207870952Y-123712295D02*
X207680476Y-123712295D01*
X207680476Y-123712295D02*
X207604285Y-123674200D01*
X207604285Y-123674200D02*
X207566190Y-123636104D01*
X207566190Y-123636104D02*
X207528095Y-123559914D01*
X207528095Y-123559914D02*
X207528095Y-123483723D01*
X207528095Y-123483723D02*
X207566190Y-123407533D01*
X207566190Y-123407533D02*
X207604285Y-123369438D01*
X207604285Y-123369438D02*
X207680476Y-123331342D01*
X207680476Y-123331342D02*
X207832857Y-123293247D01*
X207832857Y-123293247D02*
X207909047Y-123255152D01*
X207909047Y-123255152D02*
X207947142Y-123217057D01*
X207947142Y-123217057D02*
X207985238Y-123140866D01*
X207985238Y-123140866D02*
X207985238Y-123064676D01*
X207985238Y-123064676D02*
X207947142Y-122988485D01*
X207947142Y-122988485D02*
X207909047Y-122950390D01*
X207909047Y-122950390D02*
X207832857Y-122912295D01*
X207832857Y-122912295D02*
X207642380Y-122912295D01*
X207642380Y-122912295D02*
X207528095Y-122950390D01*
X207261428Y-122912295D02*
X207070952Y-123712295D01*
X207070952Y-123712295D02*
X206918571Y-123140866D01*
X206918571Y-123140866D02*
X206766190Y-123712295D01*
X206766190Y-123712295D02*
X206575714Y-122912295D01*
X206270951Y-123712295D02*
X206270951Y-122912295D01*
X206270951Y-122912295D02*
X206080475Y-122912295D01*
X206080475Y-122912295D02*
X205966189Y-122950390D01*
X205966189Y-122950390D02*
X205889999Y-123026580D01*
X205889999Y-123026580D02*
X205851904Y-123102771D01*
X205851904Y-123102771D02*
X205813808Y-123255152D01*
X205813808Y-123255152D02*
X205813808Y-123369438D01*
X205813808Y-123369438D02*
X205851904Y-123521819D01*
X205851904Y-123521819D02*
X205889999Y-123598009D01*
X205889999Y-123598009D02*
X205966189Y-123674200D01*
X205966189Y-123674200D02*
X206080475Y-123712295D01*
X206080475Y-123712295D02*
X206270951Y-123712295D01*
X205470951Y-123712295D02*
X205470951Y-122912295D01*
X204937618Y-122912295D02*
X204785237Y-122912295D01*
X204785237Y-122912295D02*
X204709047Y-122950390D01*
X204709047Y-122950390D02*
X204632856Y-123026580D01*
X204632856Y-123026580D02*
X204594761Y-123178961D01*
X204594761Y-123178961D02*
X204594761Y-123445628D01*
X204594761Y-123445628D02*
X204632856Y-123598009D01*
X204632856Y-123598009D02*
X204709047Y-123674200D01*
X204709047Y-123674200D02*
X204785237Y-123712295D01*
X204785237Y-123712295D02*
X204937618Y-123712295D01*
X204937618Y-123712295D02*
X205013809Y-123674200D01*
X205013809Y-123674200D02*
X205089999Y-123598009D01*
X205089999Y-123598009D02*
X205128095Y-123445628D01*
X205128095Y-123445628D02*
X205128095Y-123178961D01*
X205128095Y-123178961D02*
X205089999Y-123026580D01*
X205089999Y-123026580D02*
X205013809Y-122950390D01*
X205013809Y-122950390D02*
X204937618Y-122912295D01*
X226046001Y-108970868D02*
X226126814Y-108997805D01*
X226126814Y-108997805D02*
X226207626Y-109078618D01*
X226207626Y-109078618D02*
X226261501Y-109186367D01*
X226261501Y-109186367D02*
X226261501Y-109294117D01*
X226261501Y-109294117D02*
X226234563Y-109374929D01*
X226234563Y-109374929D02*
X226153751Y-109509616D01*
X226153751Y-109509616D02*
X226072939Y-109590428D01*
X226072939Y-109590428D02*
X225938252Y-109671241D01*
X225938252Y-109671241D02*
X225857439Y-109698178D01*
X225857439Y-109698178D02*
X225749690Y-109698178D01*
X225749690Y-109698178D02*
X225641940Y-109644303D01*
X225641940Y-109644303D02*
X225588065Y-109590428D01*
X225588065Y-109590428D02*
X225534191Y-109482679D01*
X225534191Y-109482679D02*
X225534191Y-109428804D01*
X225534191Y-109428804D02*
X225722752Y-109240242D01*
X225722752Y-109240242D02*
X225830502Y-109347992D01*
X225237879Y-109240242D02*
X225803565Y-108674557D01*
X225803565Y-108674557D02*
X225588065Y-108459057D01*
X225588065Y-108459057D02*
X225507253Y-108432120D01*
X225507253Y-108432120D02*
X225453378Y-108432120D01*
X225453378Y-108432120D02*
X225372566Y-108459057D01*
X225372566Y-108459057D02*
X225291754Y-108539870D01*
X225291754Y-108539870D02*
X225264817Y-108620682D01*
X225264817Y-108620682D02*
X225264817Y-108674557D01*
X225264817Y-108674557D02*
X225291754Y-108755369D01*
X225291754Y-108755369D02*
X225507253Y-108970868D01*
X224375882Y-108378245D02*
X224699131Y-108701494D01*
X224537507Y-108539870D02*
X225103192Y-107974184D01*
X225103192Y-107974184D02*
X225076255Y-108108871D01*
X225076255Y-108108871D02*
X225076255Y-108216621D01*
X225076255Y-108216621D02*
X225103192Y-108297433D01*
X223837134Y-107839497D02*
X224160383Y-108162746D01*
X223998759Y-108001121D02*
X224564444Y-107435436D01*
X224564444Y-107435436D02*
X224537507Y-107570123D01*
X224537507Y-107570123D02*
X224537507Y-107677873D01*
X224537507Y-107677873D02*
X224564444Y-107758685D01*
X199792001Y-111510868D02*
X199872814Y-111537805D01*
X199872814Y-111537805D02*
X199953626Y-111618618D01*
X199953626Y-111618618D02*
X200007501Y-111726367D01*
X200007501Y-111726367D02*
X200007501Y-111834117D01*
X200007501Y-111834117D02*
X199980563Y-111914929D01*
X199980563Y-111914929D02*
X199899751Y-112049616D01*
X199899751Y-112049616D02*
X199818939Y-112130428D01*
X199818939Y-112130428D02*
X199684252Y-112211241D01*
X199684252Y-112211241D02*
X199603439Y-112238178D01*
X199603439Y-112238178D02*
X199495690Y-112238178D01*
X199495690Y-112238178D02*
X199387940Y-112184303D01*
X199387940Y-112184303D02*
X199334065Y-112130428D01*
X199334065Y-112130428D02*
X199280191Y-112022679D01*
X199280191Y-112022679D02*
X199280191Y-111968804D01*
X199280191Y-111968804D02*
X199468752Y-111780242D01*
X199468752Y-111780242D02*
X199576502Y-111887992D01*
X198983879Y-111780242D02*
X199549565Y-111214557D01*
X199549565Y-111214557D02*
X199334065Y-110999057D01*
X199334065Y-110999057D02*
X199253253Y-110972120D01*
X199253253Y-110972120D02*
X199199378Y-110972120D01*
X199199378Y-110972120D02*
X199118566Y-110999057D01*
X199118566Y-110999057D02*
X199037754Y-111079870D01*
X199037754Y-111079870D02*
X199010817Y-111160682D01*
X199010817Y-111160682D02*
X199010817Y-111214557D01*
X199010817Y-111214557D02*
X199037754Y-111295369D01*
X199037754Y-111295369D02*
X199253253Y-111510868D01*
X198121882Y-110918245D02*
X198445131Y-111241494D01*
X198283507Y-111079870D02*
X198849192Y-110514184D01*
X198849192Y-110514184D02*
X198822255Y-110648871D01*
X198822255Y-110648871D02*
X198822255Y-110756621D01*
X198822255Y-110756621D02*
X198849192Y-110837433D01*
X197852508Y-110648871D02*
X197744759Y-110541121D01*
X197744759Y-110541121D02*
X197717821Y-110460309D01*
X197717821Y-110460309D02*
X197717821Y-110406434D01*
X197717821Y-110406434D02*
X197744759Y-110271747D01*
X197744759Y-110271747D02*
X197825571Y-110137060D01*
X197825571Y-110137060D02*
X198041070Y-109921561D01*
X198041070Y-109921561D02*
X198121882Y-109894624D01*
X198121882Y-109894624D02*
X198175757Y-109894624D01*
X198175757Y-109894624D02*
X198256569Y-109921561D01*
X198256569Y-109921561D02*
X198364319Y-110029311D01*
X198364319Y-110029311D02*
X198391256Y-110110123D01*
X198391256Y-110110123D02*
X198391256Y-110163998D01*
X198391256Y-110163998D02*
X198364319Y-110244810D01*
X198364319Y-110244810D02*
X198229632Y-110379497D01*
X198229632Y-110379497D02*
X198148820Y-110406434D01*
X198148820Y-110406434D02*
X198094945Y-110406434D01*
X198094945Y-110406434D02*
X198014133Y-110379497D01*
X198014133Y-110379497D02*
X197906383Y-110271747D01*
X197906383Y-110271747D02*
X197879446Y-110190935D01*
X197879446Y-110190935D02*
X197879446Y-110137060D01*
X197879446Y-110137060D02*
X197906383Y-110056248D01*
X199792001Y-121670868D02*
X199872814Y-121697805D01*
X199872814Y-121697805D02*
X199953626Y-121778618D01*
X199953626Y-121778618D02*
X200007501Y-121886367D01*
X200007501Y-121886367D02*
X200007501Y-121994117D01*
X200007501Y-121994117D02*
X199980563Y-122074929D01*
X199980563Y-122074929D02*
X199899751Y-122209616D01*
X199899751Y-122209616D02*
X199818939Y-122290428D01*
X199818939Y-122290428D02*
X199684252Y-122371241D01*
X199684252Y-122371241D02*
X199603439Y-122398178D01*
X199603439Y-122398178D02*
X199495690Y-122398178D01*
X199495690Y-122398178D02*
X199387940Y-122344303D01*
X199387940Y-122344303D02*
X199334065Y-122290428D01*
X199334065Y-122290428D02*
X199280191Y-122182679D01*
X199280191Y-122182679D02*
X199280191Y-122128804D01*
X199280191Y-122128804D02*
X199468752Y-121940242D01*
X199468752Y-121940242D02*
X199576502Y-122047992D01*
X198983879Y-121940242D02*
X199549565Y-121374557D01*
X199549565Y-121374557D02*
X199334065Y-121159057D01*
X199334065Y-121159057D02*
X199253253Y-121132120D01*
X199253253Y-121132120D02*
X199199378Y-121132120D01*
X199199378Y-121132120D02*
X199118566Y-121159057D01*
X199118566Y-121159057D02*
X199037754Y-121239870D01*
X199037754Y-121239870D02*
X199010817Y-121320682D01*
X199010817Y-121320682D02*
X199010817Y-121374557D01*
X199010817Y-121374557D02*
X199037754Y-121455369D01*
X199037754Y-121455369D02*
X199253253Y-121670868D01*
X198121882Y-121078245D02*
X198445131Y-121401494D01*
X198283507Y-121239870D02*
X198849192Y-120674184D01*
X198849192Y-120674184D02*
X198822255Y-120808871D01*
X198822255Y-120808871D02*
X198822255Y-120916621D01*
X198822255Y-120916621D02*
X198849192Y-120997433D01*
X198202694Y-120027686D02*
X198310444Y-120135436D01*
X198310444Y-120135436D02*
X198337381Y-120216248D01*
X198337381Y-120216248D02*
X198337381Y-120270123D01*
X198337381Y-120270123D02*
X198310444Y-120404810D01*
X198310444Y-120404810D02*
X198229632Y-120539497D01*
X198229632Y-120539497D02*
X198014133Y-120754996D01*
X198014133Y-120754996D02*
X197933320Y-120781934D01*
X197933320Y-120781934D02*
X197879446Y-120781934D01*
X197879446Y-120781934D02*
X197798633Y-120754996D01*
X197798633Y-120754996D02*
X197690884Y-120647247D01*
X197690884Y-120647247D02*
X197663946Y-120566434D01*
X197663946Y-120566434D02*
X197663946Y-120512560D01*
X197663946Y-120512560D02*
X197690884Y-120431747D01*
X197690884Y-120431747D02*
X197825571Y-120297060D01*
X197825571Y-120297060D02*
X197906383Y-120270123D01*
X197906383Y-120270123D02*
X197960258Y-120270123D01*
X197960258Y-120270123D02*
X198041070Y-120297060D01*
X198041070Y-120297060D02*
X198148820Y-120404810D01*
X198148820Y-120404810D02*
X198175757Y-120485622D01*
X198175757Y-120485622D02*
X198175757Y-120539497D01*
X198175757Y-120539497D02*
X198148820Y-120620309D01*
X257454819Y-114333333D02*
X256978628Y-114000000D01*
X257454819Y-113761905D02*
X256454819Y-113761905D01*
X256454819Y-113761905D02*
X256454819Y-114142857D01*
X256454819Y-114142857D02*
X256502438Y-114238095D01*
X256502438Y-114238095D02*
X256550057Y-114285714D01*
X256550057Y-114285714D02*
X256645295Y-114333333D01*
X256645295Y-114333333D02*
X256788152Y-114333333D01*
X256788152Y-114333333D02*
X256883390Y-114285714D01*
X256883390Y-114285714D02*
X256931009Y-114238095D01*
X256931009Y-114238095D02*
X256978628Y-114142857D01*
X256978628Y-114142857D02*
X256978628Y-113761905D01*
X257454819Y-115285714D02*
X257454819Y-114714286D01*
X257454819Y-115000000D02*
X256454819Y-115000000D01*
X256454819Y-115000000D02*
X256597676Y-114904762D01*
X256597676Y-114904762D02*
X256692914Y-114809524D01*
X256692914Y-114809524D02*
X256740533Y-114714286D01*
X253524819Y-116833333D02*
X253048628Y-116500000D01*
X253524819Y-116261905D02*
X252524819Y-116261905D01*
X252524819Y-116261905D02*
X252524819Y-116642857D01*
X252524819Y-116642857D02*
X252572438Y-116738095D01*
X252572438Y-116738095D02*
X252620057Y-116785714D01*
X252620057Y-116785714D02*
X252715295Y-116833333D01*
X252715295Y-116833333D02*
X252858152Y-116833333D01*
X252858152Y-116833333D02*
X252953390Y-116785714D01*
X252953390Y-116785714D02*
X253001009Y-116738095D01*
X253001009Y-116738095D02*
X253048628Y-116642857D01*
X253048628Y-116642857D02*
X253048628Y-116261905D01*
X252620057Y-117214286D02*
X252572438Y-117261905D01*
X252572438Y-117261905D02*
X252524819Y-117357143D01*
X252524819Y-117357143D02*
X252524819Y-117595238D01*
X252524819Y-117595238D02*
X252572438Y-117690476D01*
X252572438Y-117690476D02*
X252620057Y-117738095D01*
X252620057Y-117738095D02*
X252715295Y-117785714D01*
X252715295Y-117785714D02*
X252810533Y-117785714D01*
X252810533Y-117785714D02*
X252953390Y-117738095D01*
X252953390Y-117738095D02*
X253524819Y-117166667D01*
X253524819Y-117166667D02*
X253524819Y-117785714D01*
X187948332Y-112997200D02*
X187805475Y-113044819D01*
X187805475Y-113044819D02*
X187567380Y-113044819D01*
X187567380Y-113044819D02*
X187472142Y-112997200D01*
X187472142Y-112997200D02*
X187424523Y-112949580D01*
X187424523Y-112949580D02*
X187376904Y-112854342D01*
X187376904Y-112854342D02*
X187376904Y-112759104D01*
X187376904Y-112759104D02*
X187424523Y-112663866D01*
X187424523Y-112663866D02*
X187472142Y-112616247D01*
X187472142Y-112616247D02*
X187567380Y-112568628D01*
X187567380Y-112568628D02*
X187757856Y-112521009D01*
X187757856Y-112521009D02*
X187853094Y-112473390D01*
X187853094Y-112473390D02*
X187900713Y-112425771D01*
X187900713Y-112425771D02*
X187948332Y-112330533D01*
X187948332Y-112330533D02*
X187948332Y-112235295D01*
X187948332Y-112235295D02*
X187900713Y-112140057D01*
X187900713Y-112140057D02*
X187853094Y-112092438D01*
X187853094Y-112092438D02*
X187757856Y-112044819D01*
X187757856Y-112044819D02*
X187519761Y-112044819D01*
X187519761Y-112044819D02*
X187376904Y-112092438D01*
X187043570Y-112044819D02*
X186805475Y-113044819D01*
X186805475Y-113044819D02*
X186614999Y-112330533D01*
X186614999Y-112330533D02*
X186424523Y-113044819D01*
X186424523Y-113044819D02*
X186186428Y-112044819D01*
X185281666Y-113044819D02*
X185853094Y-113044819D01*
X185567380Y-113044819D02*
X185567380Y-112044819D01*
X185567380Y-112044819D02*
X185662618Y-112187676D01*
X185662618Y-112187676D02*
X185757856Y-112282914D01*
X185757856Y-112282914D02*
X185853094Y-112330533D01*
X248524819Y-116920833D02*
X248048628Y-116587500D01*
X248524819Y-116349405D02*
X247524819Y-116349405D01*
X247524819Y-116349405D02*
X247524819Y-116730357D01*
X247524819Y-116730357D02*
X247572438Y-116825595D01*
X247572438Y-116825595D02*
X247620057Y-116873214D01*
X247620057Y-116873214D02*
X247715295Y-116920833D01*
X247715295Y-116920833D02*
X247858152Y-116920833D01*
X247858152Y-116920833D02*
X247953390Y-116873214D01*
X247953390Y-116873214D02*
X248001009Y-116825595D01*
X248001009Y-116825595D02*
X248048628Y-116730357D01*
X248048628Y-116730357D02*
X248048628Y-116349405D01*
X247524819Y-117254167D02*
X247524819Y-117873214D01*
X247524819Y-117873214D02*
X247905771Y-117539881D01*
X247905771Y-117539881D02*
X247905771Y-117682738D01*
X247905771Y-117682738D02*
X247953390Y-117777976D01*
X247953390Y-117777976D02*
X248001009Y-117825595D01*
X248001009Y-117825595D02*
X248096247Y-117873214D01*
X248096247Y-117873214D02*
X248334342Y-117873214D01*
X248334342Y-117873214D02*
X248429580Y-117825595D01*
X248429580Y-117825595D02*
X248477200Y-117777976D01*
X248477200Y-117777976D02*
X248524819Y-117682738D01*
X248524819Y-117682738D02*
X248524819Y-117397024D01*
X248524819Y-117397024D02*
X248477200Y-117301786D01*
X248477200Y-117301786D02*
X248429580Y-117254167D01*
X181553853Y-85454819D02*
X181553853Y-86169104D01*
X181553853Y-86169104D02*
X181601472Y-86311961D01*
X181601472Y-86311961D02*
X181696710Y-86407200D01*
X181696710Y-86407200D02*
X181839567Y-86454819D01*
X181839567Y-86454819D02*
X181934805Y-86454819D01*
X180649091Y-85788152D02*
X180649091Y-86454819D01*
X180887186Y-85407200D02*
X181125281Y-86121485D01*
X181125281Y-86121485D02*
X180506234Y-86121485D01*
X229594580Y-73493333D02*
X229642200Y-73445714D01*
X229642200Y-73445714D02*
X229689819Y-73302857D01*
X229689819Y-73302857D02*
X229689819Y-73207619D01*
X229689819Y-73207619D02*
X229642200Y-73064762D01*
X229642200Y-73064762D02*
X229546961Y-72969524D01*
X229546961Y-72969524D02*
X229451723Y-72921905D01*
X229451723Y-72921905D02*
X229261247Y-72874286D01*
X229261247Y-72874286D02*
X229118390Y-72874286D01*
X229118390Y-72874286D02*
X228927914Y-72921905D01*
X228927914Y-72921905D02*
X228832676Y-72969524D01*
X228832676Y-72969524D02*
X228737438Y-73064762D01*
X228737438Y-73064762D02*
X228689819Y-73207619D01*
X228689819Y-73207619D02*
X228689819Y-73302857D01*
X228689819Y-73302857D02*
X228737438Y-73445714D01*
X228737438Y-73445714D02*
X228785057Y-73493333D01*
X229689819Y-74445714D02*
X229689819Y-73874286D01*
X229689819Y-74160000D02*
X228689819Y-74160000D01*
X228689819Y-74160000D02*
X228832676Y-74064762D01*
X228832676Y-74064762D02*
X228927914Y-73969524D01*
X228927914Y-73969524D02*
X228975533Y-73874286D01*
X230203333Y-76924819D02*
X230203333Y-77639104D01*
X230203333Y-77639104D02*
X230250952Y-77781961D01*
X230250952Y-77781961D02*
X230346190Y-77877200D01*
X230346190Y-77877200D02*
X230489047Y-77924819D01*
X230489047Y-77924819D02*
X230584285Y-77924819D01*
X229203333Y-77924819D02*
X229774761Y-77924819D01*
X229489047Y-77924819D02*
X229489047Y-76924819D01*
X229489047Y-76924819D02*
X229584285Y-77067676D01*
X229584285Y-77067676D02*
X229679523Y-77162914D01*
X229679523Y-77162914D02*
X229774761Y-77210533D01*
X170053593Y-71304819D02*
X170053593Y-72019104D01*
X170053593Y-72019104D02*
X170101212Y-72161961D01*
X170101212Y-72161961D02*
X170196450Y-72257200D01*
X170196450Y-72257200D02*
X170339307Y-72304819D01*
X170339307Y-72304819D02*
X170434545Y-72304819D01*
X169101212Y-71304819D02*
X169577402Y-71304819D01*
X169577402Y-71304819D02*
X169625021Y-71781009D01*
X169625021Y-71781009D02*
X169577402Y-71733390D01*
X169577402Y-71733390D02*
X169482164Y-71685771D01*
X169482164Y-71685771D02*
X169244069Y-71685771D01*
X169244069Y-71685771D02*
X169148831Y-71733390D01*
X169148831Y-71733390D02*
X169101212Y-71781009D01*
X169101212Y-71781009D02*
X169053593Y-71876247D01*
X169053593Y-71876247D02*
X169053593Y-72114342D01*
X169053593Y-72114342D02*
X169101212Y-72209580D01*
X169101212Y-72209580D02*
X169148831Y-72257200D01*
X169148831Y-72257200D02*
X169244069Y-72304819D01*
X169244069Y-72304819D02*
X169482164Y-72304819D01*
X169482164Y-72304819D02*
X169577402Y-72257200D01*
X169577402Y-72257200D02*
X169625021Y-72209580D01*
D11*
%TO.C,U3*%
X201390000Y-71650000D02*
X222390000Y-71650000D01*
X201390000Y-71950000D02*
X201390000Y-71650000D01*
X201390000Y-74450000D02*
X201390000Y-74050000D01*
X201390000Y-77050000D02*
X201390000Y-76650000D01*
X201390000Y-79550000D02*
X201390000Y-79150000D01*
X201390000Y-82150000D02*
X201390000Y-81750000D01*
X201390000Y-84650000D02*
X201390000Y-84250000D01*
X201390000Y-87150000D02*
X201390000Y-86750000D01*
X201390000Y-89750000D02*
X201390000Y-89350000D01*
X201390000Y-92250000D02*
X201390000Y-91850000D01*
X201390000Y-94850000D02*
X201390000Y-94450000D01*
X201390000Y-97350000D02*
X201390000Y-96950000D01*
X201390000Y-99850000D02*
X201390000Y-99450000D01*
X201390000Y-102450000D02*
X201390000Y-102050000D01*
X201390000Y-104950000D02*
X201390000Y-104550000D01*
X201390000Y-107550000D02*
X201390000Y-107150000D01*
X201390000Y-110050000D02*
X201390000Y-109650000D01*
X201390000Y-112650000D02*
X201390000Y-112250000D01*
X201390000Y-115150000D02*
X201390000Y-114750000D01*
X201390000Y-117650000D02*
X201390000Y-117250000D01*
X201390000Y-120250000D02*
X201390000Y-119850000D01*
X208190000Y-122650000D02*
X201390000Y-122650000D01*
X210390000Y-122650000D02*
X210790000Y-122650000D01*
X212990000Y-122650000D02*
X213390000Y-122650000D01*
X219383000Y-71650000D02*
X219383000Y-74317000D01*
X219383000Y-74317000D02*
X222390000Y-74317000D01*
X222390000Y-71950000D02*
X222390000Y-71650000D01*
X222390000Y-74450000D02*
X222390000Y-74050000D01*
X222390000Y-77050000D02*
X222390000Y-76650000D01*
X222390000Y-79550000D02*
X222390000Y-79150000D01*
X222390000Y-82150000D02*
X222390000Y-81750000D01*
X222390000Y-84650000D02*
X222390000Y-84250000D01*
X222390000Y-87150000D02*
X222390000Y-86750000D01*
X222390000Y-89750000D02*
X222390000Y-89350000D01*
X222390000Y-92250000D02*
X222390000Y-91850000D01*
X222390000Y-94850000D02*
X222390000Y-94450000D01*
X222390000Y-97350000D02*
X222390000Y-96950000D01*
X222390000Y-99850000D02*
X222390000Y-99450000D01*
X222390000Y-102450000D02*
X222390000Y-102050000D01*
X222390000Y-104950000D02*
X222390000Y-104550000D01*
X222390000Y-107550000D02*
X222390000Y-107150000D01*
X222390000Y-110050000D02*
X222390000Y-109650000D01*
X222390000Y-112650000D02*
X222390000Y-112250000D01*
X222390000Y-115150000D02*
X222390000Y-114750000D01*
X222390000Y-117650000D02*
X222390000Y-117250000D01*
X222390000Y-120250000D02*
X222390000Y-119850000D01*
X222390000Y-122650000D02*
X215590000Y-122650000D01*
%TO.C,R1*%
X256477500Y-117254724D02*
X256477500Y-116745276D01*
X257522500Y-117254724D02*
X257522500Y-116745276D01*
%TO.C,R2*%
X253977500Y-117167224D02*
X253977500Y-116657776D01*
X255022500Y-117167224D02*
X255022500Y-116657776D01*
%TO.C,SW1*%
X183115000Y-116090000D02*
X183115000Y-117590000D01*
X184365000Y-120090000D02*
X188865000Y-120090000D01*
X188865000Y-113590000D02*
X184365000Y-113590000D01*
X190115000Y-117590000D02*
X190115000Y-116090000D01*
%TO.C,R3*%
X248977500Y-117342224D02*
X248977500Y-116832776D01*
X250022500Y-117342224D02*
X250022500Y-116832776D01*
%TO.C,J4*%
X176160520Y-73190000D02*
X181220520Y-73190000D01*
X176160520Y-84910000D02*
X176160520Y-73190000D01*
X177580520Y-80410000D02*
X177580520Y-84910000D01*
X177580520Y-84910000D02*
X176160520Y-84910000D01*
X178420520Y-84600000D02*
X178720520Y-84000000D01*
X178470520Y-73800000D02*
X178470520Y-79300000D01*
X178470520Y-79300000D02*
X178970520Y-79300000D01*
X178720520Y-84000000D02*
X179020520Y-84600000D01*
X178970520Y-73800000D02*
X178470520Y-73800000D01*
X178970520Y-79300000D02*
X178970520Y-73800000D01*
X179020520Y-84600000D02*
X178420520Y-84600000D01*
X180970520Y-73800000D02*
X180970520Y-79300000D01*
X180970520Y-79300000D02*
X181470520Y-79300000D01*
X181220520Y-80410000D02*
X177580520Y-80410000D01*
X181220520Y-80410000D02*
X184860520Y-80410000D01*
X181470520Y-73800000D02*
X180970520Y-73800000D01*
X181470520Y-79300000D02*
X181470520Y-73800000D01*
X183470520Y-73800000D02*
X183470520Y-79300000D01*
X183470520Y-79300000D02*
X183970520Y-79300000D01*
X183970520Y-73800000D02*
X183470520Y-73800000D01*
X183970520Y-79300000D02*
X183970520Y-73800000D01*
X184860520Y-80410000D02*
X184860520Y-84910000D01*
X184860520Y-84910000D02*
X186280520Y-84910000D01*
X186280520Y-73190000D02*
X181220520Y-73190000D01*
X186280520Y-84910000D02*
X186280520Y-73190000D01*
%TO.C,C1*%
X231570000Y-72645225D02*
X231570000Y-72145225D01*
X231820000Y-72395225D02*
X231320000Y-72395225D01*
X232005000Y-75190000D02*
X230476000Y-75190000D01*
X232005000Y-75230000D02*
X230480000Y-75230000D01*
X232005000Y-75270000D02*
X230484000Y-75270000D01*
X232005000Y-75310000D02*
X230489000Y-75310000D01*
X232005000Y-75350000D02*
X230495000Y-75350000D01*
X232005000Y-75390000D02*
X230502000Y-75390000D01*
X232005000Y-75430000D02*
X230509000Y-75430000D01*
X232005000Y-75470000D02*
X230517000Y-75470000D01*
X232005000Y-75510000D02*
X230525000Y-75510000D01*
X232005000Y-75550000D02*
X230534000Y-75550000D01*
X232005000Y-75590000D02*
X230544000Y-75590000D01*
X232005000Y-75630000D02*
X230554000Y-75630000D01*
X232005000Y-75671000D02*
X230565000Y-75671000D01*
X232005000Y-75711000D02*
X230577000Y-75711000D01*
X232005000Y-75751000D02*
X230590000Y-75751000D01*
X232005000Y-75791000D02*
X230603000Y-75791000D01*
X232005000Y-75831000D02*
X230617000Y-75831000D01*
X232005000Y-75871000D02*
X230631000Y-75871000D01*
X232005000Y-75911000D02*
X230647000Y-75911000D01*
X232005000Y-75951000D02*
X230663000Y-75951000D01*
X232005000Y-75991000D02*
X230680000Y-75991000D01*
X232005000Y-76031000D02*
X230697000Y-76031000D01*
X232005000Y-76071000D02*
X230716000Y-76071000D01*
X232005000Y-76111000D02*
X230735000Y-76111000D01*
X232005000Y-76151000D02*
X230755000Y-76151000D01*
X232005000Y-76191000D02*
X230777000Y-76191000D01*
X232005000Y-76231000D02*
X230798000Y-76231000D01*
X232005000Y-76271000D02*
X230821000Y-76271000D01*
X232005000Y-76311000D02*
X230845000Y-76311000D01*
X232005000Y-76351000D02*
X230870000Y-76351000D01*
X232005000Y-76391000D02*
X230896000Y-76391000D01*
X232005000Y-76431000D02*
X230923000Y-76431000D01*
X232005000Y-76471000D02*
X230950000Y-76471000D01*
X232005000Y-76511000D02*
X230980000Y-76511000D01*
X232005000Y-76551000D02*
X231010000Y-76551000D01*
X232005000Y-76591000D02*
X231041000Y-76591000D01*
X232005000Y-76631000D02*
X231074000Y-76631000D01*
X232005000Y-76671000D02*
X231108000Y-76671000D01*
X232005000Y-76711000D02*
X231144000Y-76711000D01*
X232005000Y-76751000D02*
X231181000Y-76751000D01*
X232005000Y-76791000D02*
X231219000Y-76791000D01*
X232005000Y-76831000D02*
X231260000Y-76831000D01*
X232005000Y-76871000D02*
X231302000Y-76871000D01*
X232005000Y-76911000D02*
X231346000Y-76911000D01*
X232005000Y-76951000D02*
X231392000Y-76951000D01*
X232005000Y-76991000D02*
X231440000Y-76991000D01*
X232005000Y-77031000D02*
X231491000Y-77031000D01*
X232005000Y-77071000D02*
X231545000Y-77071000D01*
X232005000Y-77111000D02*
X231602000Y-77111000D01*
X232005000Y-77151000D02*
X231662000Y-77151000D01*
X232005000Y-77191000D02*
X231726000Y-77191000D01*
X232005000Y-77231000D02*
X231794000Y-77231000D01*
X233329000Y-77551000D02*
X232761000Y-77551000D01*
X233563000Y-77511000D02*
X232527000Y-77511000D01*
X233722000Y-77471000D02*
X232368000Y-77471000D01*
X233850000Y-77431000D02*
X232240000Y-77431000D01*
X233960000Y-77391000D02*
X232130000Y-77391000D01*
X234056000Y-77351000D02*
X232034000Y-77351000D01*
X234143000Y-77311000D02*
X231947000Y-77311000D01*
X234223000Y-77271000D02*
X231867000Y-77271000D01*
X234296000Y-77231000D02*
X234085000Y-77231000D01*
X234364000Y-77191000D02*
X234085000Y-77191000D01*
X234428000Y-77151000D02*
X234085000Y-77151000D01*
X234488000Y-77111000D02*
X234085000Y-77111000D01*
X234545000Y-77071000D02*
X234085000Y-77071000D01*
X234599000Y-77031000D02*
X234085000Y-77031000D01*
X234650000Y-76991000D02*
X234085000Y-76991000D01*
X234698000Y-76951000D02*
X234085000Y-76951000D01*
X234744000Y-76911000D02*
X234085000Y-76911000D01*
X234788000Y-76871000D02*
X234085000Y-76871000D01*
X234830000Y-76831000D02*
X234085000Y-76831000D01*
X234871000Y-76791000D02*
X234085000Y-76791000D01*
X234909000Y-76751000D02*
X234085000Y-76751000D01*
X234946000Y-76711000D02*
X234085000Y-76711000D01*
X234982000Y-76671000D02*
X234085000Y-76671000D01*
X235016000Y-76631000D02*
X234085000Y-76631000D01*
X235049000Y-76591000D02*
X234085000Y-76591000D01*
X235080000Y-76551000D02*
X234085000Y-76551000D01*
X235110000Y-76511000D02*
X234085000Y-76511000D01*
X235140000Y-76471000D02*
X234085000Y-76471000D01*
X235167000Y-76431000D02*
X234085000Y-76431000D01*
X235194000Y-76391000D02*
X234085000Y-76391000D01*
X235220000Y-76351000D02*
X234085000Y-76351000D01*
X235245000Y-76311000D02*
X234085000Y-76311000D01*
X235269000Y-76271000D02*
X234085000Y-76271000D01*
X235292000Y-76231000D02*
X234085000Y-76231000D01*
X235313000Y-76191000D02*
X234085000Y-76191000D01*
X235335000Y-76151000D02*
X234085000Y-76151000D01*
X235355000Y-76111000D02*
X234085000Y-76111000D01*
X235374000Y-76071000D02*
X234085000Y-76071000D01*
X235393000Y-76031000D02*
X234085000Y-76031000D01*
X235410000Y-75991000D02*
X234085000Y-75991000D01*
X235427000Y-75951000D02*
X234085000Y-75951000D01*
X235443000Y-75911000D02*
X234085000Y-75911000D01*
X235459000Y-75871000D02*
X234085000Y-75871000D01*
X235473000Y-75831000D02*
X234085000Y-75831000D01*
X235487000Y-75791000D02*
X234085000Y-75791000D01*
X235500000Y-75751000D02*
X234085000Y-75751000D01*
X235513000Y-75711000D02*
X234085000Y-75711000D01*
X235525000Y-75671000D02*
X234085000Y-75671000D01*
X235536000Y-75630000D02*
X234085000Y-75630000D01*
X235546000Y-75590000D02*
X234085000Y-75590000D01*
X235556000Y-75550000D02*
X234085000Y-75550000D01*
X235565000Y-75510000D02*
X234085000Y-75510000D01*
X235573000Y-75470000D02*
X234085000Y-75470000D01*
X235581000Y-75430000D02*
X234085000Y-75430000D01*
X235588000Y-75390000D02*
X234085000Y-75390000D01*
X235595000Y-75350000D02*
X234085000Y-75350000D01*
X235601000Y-75310000D02*
X234085000Y-75310000D01*
X235606000Y-75270000D02*
X234085000Y-75270000D01*
X235610000Y-75230000D02*
X234085000Y-75230000D01*
X235614000Y-75190000D02*
X234085000Y-75190000D01*
X235618000Y-75150000D02*
X230472000Y-75150000D01*
X235621000Y-75110000D02*
X230469000Y-75110000D01*
X235623000Y-75070000D02*
X230467000Y-75070000D01*
X235624000Y-75030000D02*
X230466000Y-75030000D01*
X235625000Y-74950000D02*
X230465000Y-74950000D01*
X235625000Y-74990000D02*
X230465000Y-74990000D01*
X235665000Y-74950000D02*
G75*
G02*
X230425000Y-74950000I-2620000J0D01*
G01*
X230425000Y-74950000D02*
G75*
G02*
X235665000Y-74950000I2620000J0D01*
G01*
%TO.C,J1*%
X224920000Y-79094000D02*
X236640000Y-79094000D01*
X224920000Y-80514000D02*
X224920000Y-79094000D01*
X224920000Y-90294000D02*
X224920000Y-91714000D01*
X224920000Y-91714000D02*
X236640000Y-91714000D01*
X225230000Y-81354000D02*
X225830000Y-81654000D01*
X225230000Y-81954000D02*
X225230000Y-81354000D01*
X225830000Y-81654000D02*
X225230000Y-81954000D01*
X229420000Y-80514000D02*
X224920000Y-80514000D01*
X229420000Y-85404000D02*
X229420000Y-80514000D01*
X229420000Y-85404000D02*
X229420000Y-90294000D01*
X229420000Y-90294000D02*
X224920000Y-90294000D01*
X230530000Y-81404000D02*
X230530000Y-81904000D01*
X230530000Y-81904000D02*
X236030000Y-81904000D01*
X230530000Y-83904000D02*
X230530000Y-84404000D01*
X230530000Y-84404000D02*
X236030000Y-84404000D01*
X230530000Y-86404000D02*
X230530000Y-86904000D01*
X230530000Y-86904000D02*
X236030000Y-86904000D01*
X230530000Y-88904000D02*
X230530000Y-89404000D01*
X230530000Y-89404000D02*
X236030000Y-89404000D01*
X236030000Y-81404000D02*
X230530000Y-81404000D01*
X236030000Y-81904000D02*
X236030000Y-81404000D01*
X236030000Y-83904000D02*
X230530000Y-83904000D01*
X236030000Y-84404000D02*
X236030000Y-83904000D01*
X236030000Y-86404000D02*
X230530000Y-86404000D01*
X236030000Y-86904000D02*
X236030000Y-86404000D01*
X236030000Y-88904000D02*
X230530000Y-88904000D01*
X236030000Y-89404000D02*
X236030000Y-88904000D01*
X236640000Y-79094000D02*
X236640000Y-85404000D01*
X236640000Y-91714000D02*
X236640000Y-85404000D01*
D12*
%TO.C,J5*%
X164720260Y-72900000D02*
X166921180Y-72900000D01*
X164720260Y-82700000D02*
X164720260Y-72900000D01*
X166921180Y-72900000D02*
X166921180Y-73901100D01*
X166921180Y-73900000D02*
X172519340Y-73900000D01*
X172520260Y-72900000D02*
X174721180Y-72900000D01*
X172520260Y-73901100D02*
X172520260Y-72900000D01*
X174718980Y-82298340D02*
X174718980Y-80301900D01*
X174720260Y-82700000D02*
X164720260Y-82700000D01*
X174720260Y-82700000D02*
X174720260Y-72900000D01*
%TD*%
%LPC*%
D13*
%TO.C,J2*%
X248920000Y-67026800D03*
D14*
X248920000Y-64526800D03*
X248920000Y-62026800D03*
%TD*%
D15*
%TO.C,U1*%
X242570000Y-113030000D03*
X242570000Y-110490000D03*
X242570000Y-107950000D03*
X242570000Y-105410000D03*
X242570000Y-102870000D03*
X242570000Y-100330000D03*
X242570000Y-97790000D03*
X242570000Y-95250000D03*
X242570000Y-92710000D03*
X242570000Y-90170000D03*
X242570000Y-87630000D03*
X242570000Y-85090000D03*
X242570000Y-82550000D03*
X242570000Y-80010000D03*
D16*
X161290000Y-100330000D03*
X161290000Y-97790000D03*
X161290000Y-95250000D03*
X161290000Y-92710000D03*
%TD*%
%TO.C,ENC1*%
X257120000Y-120500000D03*
X254580000Y-120500000D03*
X252040000Y-120500000D03*
X249500000Y-120500000D03*
X246960000Y-120500000D03*
X254580000Y-97640000D03*
X249500000Y-97640000D03*
X252040000Y-97640000D03*
%TD*%
D17*
%TO.C,REF\u002A\u002A*%
X238125000Y-64643000D03*
%TD*%
D16*
%TO.C,SW2*%
X220980000Y-67386200D03*
X220980000Y-64846200D03*
X220980000Y-62306200D03*
%TD*%
D18*
%TO.C,U3*%
X214615000Y-73150000D03*
D19*
X214315000Y-76180000D03*
X209465000Y-76180000D03*
D18*
X209165000Y-73150000D03*
D20*
X220780000Y-73020000D03*
D21*
X221680000Y-73020000D03*
D20*
X220780000Y-75560000D03*
D21*
X221680000Y-75560000D03*
D22*
X220780000Y-78100000D03*
D21*
X221680000Y-78100000D03*
D20*
X220780000Y-80640000D03*
D21*
X221680000Y-80640000D03*
D20*
X220780000Y-83180000D03*
D21*
X221680000Y-83180000D03*
D20*
X220780000Y-85720000D03*
D21*
X221680000Y-85720000D03*
D20*
X220780000Y-88260000D03*
D21*
X221680000Y-88260000D03*
D22*
X220780000Y-90800000D03*
D21*
X221680000Y-90800000D03*
D20*
X220780000Y-93340000D03*
D21*
X221680000Y-93340000D03*
D20*
X220780000Y-95880000D03*
D21*
X221680000Y-95880000D03*
D20*
X220780000Y-98420000D03*
D21*
X221680000Y-98420000D03*
D20*
X220780000Y-100960000D03*
D21*
X221680000Y-100960000D03*
D22*
X220780000Y-103500000D03*
D21*
X221680000Y-103500000D03*
D20*
X220780000Y-106040000D03*
D21*
X221680000Y-106040000D03*
D20*
X220780000Y-108580000D03*
D21*
X221680000Y-108580000D03*
D20*
X220780000Y-111120000D03*
D21*
X221680000Y-111120000D03*
D20*
X220780000Y-113660000D03*
D21*
X221680000Y-113660000D03*
D22*
X220780000Y-116200000D03*
D21*
X221680000Y-116200000D03*
D20*
X220780000Y-118740000D03*
D21*
X221680000Y-118740000D03*
D20*
X220780000Y-121280000D03*
D21*
X221680000Y-121280000D03*
D20*
X203000000Y-121280000D03*
D21*
X202100000Y-121280000D03*
D20*
X203000000Y-118740000D03*
D21*
X202100000Y-118740000D03*
D22*
X203000000Y-116200000D03*
D21*
X202100000Y-116200000D03*
D20*
X203000000Y-113660000D03*
D21*
X202100000Y-113660000D03*
D20*
X203000000Y-111120000D03*
D21*
X202100000Y-111120000D03*
D20*
X203000000Y-108580000D03*
D21*
X202100000Y-108580000D03*
D20*
X203000000Y-106040000D03*
D21*
X202100000Y-106040000D03*
D22*
X203000000Y-103500000D03*
D21*
X202100000Y-103500000D03*
D20*
X203000000Y-100960000D03*
D21*
X202100000Y-100960000D03*
D20*
X203000000Y-98420000D03*
D21*
X202100000Y-98420000D03*
D20*
X203000000Y-95880000D03*
D21*
X202100000Y-95880000D03*
D20*
X203000000Y-93340000D03*
D21*
X202100000Y-93340000D03*
D22*
X203000000Y-90800000D03*
D21*
X202100000Y-90800000D03*
D20*
X203000000Y-88260000D03*
D21*
X202100000Y-88260000D03*
D20*
X203000000Y-85720000D03*
D21*
X202100000Y-85720000D03*
D20*
X203000000Y-83180000D03*
D21*
X202100000Y-83180000D03*
D20*
X203000000Y-80640000D03*
D21*
X202100000Y-80640000D03*
D22*
X203000000Y-78100000D03*
D21*
X202100000Y-78100000D03*
D20*
X203000000Y-75560000D03*
D21*
X202100000Y-75560000D03*
D20*
X203000000Y-73020000D03*
D21*
X202100000Y-73020000D03*
D20*
X214430000Y-121050000D03*
D23*
X214430000Y-121950000D03*
D22*
X211890000Y-121050000D03*
D23*
X211890000Y-121950000D03*
D20*
X209350000Y-121050000D03*
D23*
X209350000Y-121950000D03*
%TD*%
D24*
%TO.C,R1*%
X257000000Y-116087500D03*
X257000000Y-117912500D03*
%TD*%
%TO.C,R2*%
X254500000Y-116000000D03*
X254500000Y-117825000D03*
%TD*%
D25*
%TO.C,SW1*%
X189865000Y-114590000D03*
X183365000Y-114590000D03*
X189865000Y-119090000D03*
X183365000Y-119090000D03*
%TD*%
D24*
%TO.C,R3*%
X249500000Y-116175000D03*
X249500000Y-118000000D03*
%TD*%
D26*
%TO.C,J4*%
X178720520Y-82500000D03*
D27*
X181220520Y-82500000D03*
X183720520Y-82500000D03*
%TD*%
D28*
%TO.C,C1*%
X233045000Y-73700000D03*
D29*
X233045000Y-76200000D03*
%TD*%
D30*
%TO.C,J1*%
X227330000Y-81654000D03*
D14*
X227330000Y-84154000D03*
X227330000Y-86654000D03*
X227330000Y-89154000D03*
%TD*%
D31*
%TO.C,J5*%
X172720000Y-81000120D03*
D32*
X170718480Y-81000000D03*
X168722040Y-81000000D03*
X166720520Y-81000000D03*
%TD*%
%LPD*%
M02*
