%TF.GenerationSoftware,KiCad,Pcbnew,8.0.5*%
%TF.CreationDate,2024-09-26T00:44:33+09:00*%
%TF.ProjectId,____________,ddc6f3b7-e7e1-4fcb-9f09-dbfa7f2e6b69,rev?*%
%TF.SameCoordinates,Original*%
%TF.FileFunction,Copper,L1,Top*%
%TF.FilePolarity,Positive*%
%FSLAX46Y46*%
G04 Gerber Fmt 4.6, Leading zero omitted, Abs format (unit mm)*
G04 Created by KiCad (PCBNEW 8.0.5) date 2024-09-26 00:44:33*
%MOMM*%
%LPD*%
G01*
G04 APERTURE LIST*
%TA.AperFunction,ComponentPad*%
%ADD10C,1.750000*%
%TD*%
%TA.AperFunction,ComponentPad*%
%ADD11R,1.700000X1.700000*%
%TD*%
%TA.AperFunction,ComponentPad*%
%ADD12O,1.700000X1.700000*%
%TD*%
%TA.AperFunction,Conductor*%
%ADD13C,0.300000*%
%TD*%
%TA.AperFunction,Conductor*%
%ADD14C,0.250000*%
%TD*%
%TA.AperFunction,Conductor*%
%ADD15C,0.500000*%
%TD*%
G04 APERTURE END LIST*
D10*
%TO.P,ENC1,1,RED*%
%TO.N,Net-(ENC1-RED)*%
X73215000Y-62230000D03*
%TO.P,ENC1,2,GREEN*%
%TO.N,Net-(ENC1-GREEN)*%
X75215000Y-62230000D03*
%TO.P,ENC1,3,SW*%
%TO.N,Net-(ENC1-SW)*%
X77215000Y-62230000D03*
%TO.P,ENC1,4,BLUE*%
%TO.N,Net-(ENC1-BLUE)*%
X79215000Y-62230000D03*
%TO.P,ENC1,5,Anode*%
%TO.N,Net-(ENC1-Anode)*%
X81215000Y-62230000D03*
%TO.P,ENC1,6,A*%
%TO.N,Net-(ENC1-A)*%
X74715000Y-76730000D03*
%TO.P,ENC1,7,B*%
%TO.N,Net-(ENC1-B)*%
X77215000Y-76730000D03*
%TO.P,ENC1,8,C*%
%TO.N,Net-(ENC1-C)*%
X79715000Y-76730000D03*
%TD*%
D11*
%TO.P,J2,1,Pin_1*%
%TO.N,Net-(ENC1-A)*%
X74676000Y-81280000D03*
D12*
%TO.P,J2,2,Pin_2*%
%TO.N,Net-(ENC1-B)*%
X77216000Y-81280000D03*
%TO.P,J2,3,Pin_3*%
%TO.N,Net-(ENC1-C)*%
X79756000Y-81280000D03*
%TD*%
D11*
%TO.P,J1,1,Pin_1*%
%TO.N,Net-(ENC1-RED)*%
X72136000Y-58420000D03*
D12*
%TO.P,J1,2,Pin_2*%
%TO.N,Net-(ENC1-GREEN)*%
X74676000Y-58420000D03*
%TO.P,J1,3,Pin_3*%
%TO.N,Net-(ENC1-SW)*%
X77216000Y-58420000D03*
%TO.P,J1,4,Pin_4*%
%TO.N,Net-(ENC1-BLUE)*%
X79756000Y-58420000D03*
%TO.P,J1,5,Pin_5*%
%TO.N,Net-(ENC1-Anode)*%
X82296000Y-58420000D03*
%TD*%
D13*
%TO.N,Net-(ENC1-RED)*%
X73215000Y-59499000D02*
X72136000Y-58420000D01*
X73215000Y-62230000D02*
X73215000Y-59499000D01*
%TO.N,Net-(ENC1-GREEN)*%
X75215000Y-58959000D02*
X74676000Y-58420000D01*
X75215000Y-62230000D02*
X75215000Y-58959000D01*
D14*
%TO.N,Net-(ENC1-SW)*%
X77216000Y-62229000D02*
X77215000Y-62230000D01*
X77216000Y-58420000D02*
X77216000Y-62229000D01*
D13*
%TO.N,Net-(ENC1-BLUE)*%
X79215000Y-62230000D02*
X79215000Y-58961000D01*
X79215000Y-58961000D02*
X79756000Y-58420000D01*
D15*
%TO.N,Net-(ENC1-Anode)*%
X81215000Y-59501000D02*
X82296000Y-58420000D01*
X81215000Y-62230000D02*
X81215000Y-59501000D01*
D14*
%TO.N,Net-(ENC1-A)*%
X74715000Y-76730000D02*
X74715000Y-81241000D01*
X74715000Y-81241000D02*
X74676000Y-81280000D01*
%TO.N,Net-(ENC1-B)*%
X77216000Y-81280000D02*
X77216000Y-76731000D01*
X77216000Y-76731000D02*
X77215000Y-76730000D01*
%TO.N,Net-(ENC1-C)*%
X79756000Y-76771000D02*
X79715000Y-76730000D01*
X79756000Y-81280000D02*
X79756000Y-76771000D01*
%TD*%
M02*
