%TF.GenerationSoftware,KiCad,Pcbnew,8.0.5*%
%TF.CreationDate,2024-09-27T00:24:26+09:00*%
%TF.ProjectId,____,fb90fa7f-2e6b-4696-9361-645f70636258,rev?*%
%TF.SameCoordinates,Original*%
%TF.FileFunction,Legend,Top*%
%TF.FilePolarity,Positive*%
%FSLAX46Y46*%
G04 Gerber Fmt 4.6, Leading zero omitted, Abs format (unit mm)*
G04 Created by KiCad (PCBNEW 8.0.5) date 2024-09-27 00:24:26*
%MOMM*%
%LPD*%
G01*
G04 APERTURE LIST*
G04 Aperture macros list*
%AMRoundRect*
0 Rectangle with rounded corners*
0 $1 Rounding radius*
0 $2 $3 $4 $5 $6 $7 $8 $9 X,Y pos of 4 corners*
0 Add a 4 corners polygon primitive as box body*
4,1,4,$2,$3,$4,$5,$6,$7,$8,$9,$2,$3,0*
0 Add four circle primitives for the rounded corners*
1,1,$1+$1,$2,$3*
1,1,$1+$1,$4,$5*
1,1,$1+$1,$6,$7*
1,1,$1+$1,$8,$9*
0 Add four rect primitives between the rounded corners*
20,1,$1+$1,$2,$3,$4,$5,0*
20,1,$1+$1,$4,$5,$6,$7,0*
20,1,$1+$1,$6,$7,$8,$9,0*
20,1,$1+$1,$8,$9,$2,$3,0*%
%AMOutline4P*
0 Free polygon, 4 corners , with rotation*
0 The origin of the aperture is its center*
0 number of corners: always 4*
0 $1 to $8 corner X, Y*
0 $9 Rotation angle, in degrees counterclockwise*
0 create outline with 4 corners*
4,1,4,$1,$2,$3,$4,$5,$6,$7,$8,$1,$2,$9*%
G04 Aperture macros list end*
%ADD10C,0.150000*%
%ADD11C,0.100000*%
%ADD12C,0.120000*%
%ADD13C,0.152400*%
%ADD14R,1.700000X1.700000*%
%ADD15O,1.700000X1.700000*%
%ADD16RoundRect,0.250001X1.099999X1.099999X-1.099999X1.099999X-1.099999X-1.099999X1.099999X-1.099999X0*%
%ADD17C,2.700000*%
%ADD18R,1.600000X1.600000*%
%ADD19C,1.600000*%
%ADD20RoundRect,0.237500X-0.237500X0.250000X-0.237500X-0.250000X0.237500X-0.250000X0.237500X0.250000X0*%
%ADD21C,5.600000*%
%ADD22R,3.800000X3.800000*%
%ADD23C,3.800000*%
%ADD24R,3.200000X3.200000*%
%ADD25O,3.200000X3.200000*%
%ADD26R,2.000000X1.905000*%
%ADD27O,2.000000X1.905000*%
%ADD28Outline4P,-1.500000X-0.600000X1.500000X-0.600000X1.500000X0.600000X-1.500000X0.600000X0.000000*%
%ADD29Outline4P,-2.035000X-0.885000X2.035000X-0.885000X2.035000X0.885000X-2.035000X0.885000X0.000000*%
%ADD30Outline4P,-0.600000X-1.500000X0.600000X-1.500000X0.600000X1.500000X-0.600000X1.500000X0.000000*%
%ADD31Outline4P,-0.885000X-2.035000X0.885000X-2.035000X0.885000X2.035000X-0.885000X2.035000X0.000000*%
%ADD32Outline4P,-0.750000X-0.600000X0.750000X-0.600000X0.750000X0.600000X-0.750000X0.600000X0.000000*%
%ADD33Outline4P,-0.500000X-0.600000X0.500000X-0.600000X0.500000X0.600000X-0.500000X0.600000X0.000000*%
%ADD34RoundRect,0.250000X0.750000X-0.600000X0.750000X0.600000X-0.750000X0.600000X-0.750000X-0.600000X0*%
%ADD35O,2.000000X1.700000*%
%ADD36R,2.108200X2.108200*%
%ADD37C,2.108200*%
%ADD38RoundRect,0.237500X-0.250000X-0.237500X0.250000X-0.237500X0.250000X0.237500X-0.250000X0.237500X0*%
%ADD39C,4.000000*%
%ADD40RoundRect,0.237500X-0.237500X0.300000X-0.237500X-0.300000X0.237500X-0.300000X0.237500X0.300000X0*%
%ADD41C,1.440000*%
%ADD42RoundRect,0.237500X0.237500X-0.250000X0.237500X0.250000X-0.237500X0.250000X-0.237500X-0.250000X0*%
%ADD43RoundRect,0.237500X0.250000X0.237500X-0.250000X0.237500X-0.250000X-0.237500X0.250000X-0.237500X0*%
%ADD44C,1.524000*%
%ADD45R,1.524000X1.524000*%
G04 APERTURE END LIST*
D10*
G36*
X33747637Y-117838242D02*
G01*
X35678377Y-117838242D01*
X35810254Y-117846442D01*
X35947289Y-117876737D01*
X36066208Y-117929356D01*
X36167012Y-118004297D01*
X36227923Y-118071494D01*
X36294631Y-118180839D01*
X36339507Y-118305545D01*
X36361069Y-118429288D01*
X36365921Y-118530060D01*
X36360912Y-118656093D01*
X36353098Y-118774302D01*
X36115572Y-118787736D01*
X36121765Y-118662320D01*
X36123510Y-118545935D01*
X36104791Y-118416248D01*
X36042264Y-118300366D01*
X35990397Y-118248570D01*
X35882835Y-118184570D01*
X35761003Y-118151853D01*
X35644794Y-118143545D01*
X33747637Y-118143545D01*
X33747637Y-117838242D01*
G37*
G36*
X34529214Y-115761567D02*
G01*
X36326842Y-115761567D01*
X36326842Y-116036340D01*
X36014211Y-116036340D01*
X36115021Y-116115576D01*
X36200685Y-116206738D01*
X36271203Y-116309825D01*
X36283489Y-116331874D01*
X36333721Y-116453232D01*
X36360769Y-116577338D01*
X36365921Y-116661602D01*
X36354377Y-116786994D01*
X36314473Y-116907851D01*
X36246066Y-117009269D01*
X36219986Y-117035904D01*
X36115897Y-117109256D01*
X35990018Y-117152160D01*
X35856674Y-117164742D01*
X34529214Y-117164742D01*
X34529214Y-116872872D01*
X35767526Y-116872872D01*
X35903141Y-116858087D01*
X36017344Y-116804983D01*
X36093819Y-116699078D01*
X36115572Y-116563905D01*
X36093950Y-116433907D01*
X36040999Y-116321365D01*
X36002609Y-116264707D01*
X35920750Y-116172229D01*
X35824465Y-116092630D01*
X35752260Y-116046720D01*
X34529214Y-116046720D01*
X34529214Y-115761567D01*
G37*
G36*
X34912676Y-113910817D02*
G01*
X34998161Y-114185590D01*
X34879438Y-114235328D01*
X34779460Y-114316501D01*
X34717569Y-114423624D01*
X34693765Y-114556698D01*
X34693468Y-114575157D01*
X34704974Y-114700895D01*
X34747483Y-114816984D01*
X34775289Y-114856647D01*
X34878043Y-114929061D01*
X34954808Y-114940911D01*
X35075708Y-114919540D01*
X35159972Y-114855426D01*
X35218437Y-114744906D01*
X35258880Y-114621144D01*
X35271713Y-114572104D01*
X35306517Y-114427390D01*
X35343404Y-114293724D01*
X35391498Y-114164934D01*
X35453177Y-114050608D01*
X35514734Y-113976152D01*
X35622725Y-113904990D01*
X35749422Y-113871502D01*
X35835303Y-113866242D01*
X35968804Y-113881553D01*
X36084917Y-113927487D01*
X36183642Y-114004042D01*
X36230976Y-114059805D01*
X36296208Y-114173524D01*
X36336270Y-114291963D01*
X36359463Y-114426736D01*
X36365921Y-114558060D01*
X36358965Y-114690238D01*
X36330710Y-114838232D01*
X36280719Y-114967086D01*
X36208994Y-115076798D01*
X36115534Y-115167370D01*
X36000338Y-115238800D01*
X35920788Y-115272471D01*
X35818817Y-114994034D01*
X35935645Y-114946657D01*
X36041395Y-114870601D01*
X36114246Y-114772164D01*
X36154196Y-114651345D01*
X36162588Y-114551344D01*
X36152750Y-114424201D01*
X36114968Y-114301698D01*
X36061838Y-114224669D01*
X35954762Y-114157371D01*
X35863391Y-114144069D01*
X35738893Y-114162986D01*
X35644183Y-114230164D01*
X35584496Y-114345416D01*
X35542930Y-114469104D01*
X35523893Y-114537300D01*
X35492752Y-114682013D01*
X35455390Y-114810541D01*
X35406895Y-114933960D01*
X35344947Y-115042882D01*
X35283314Y-115113102D01*
X35169830Y-115178635D01*
X35046697Y-115205597D01*
X34976179Y-115208967D01*
X34854372Y-115194719D01*
X34737044Y-115145465D01*
X34638679Y-115061029D01*
X34612868Y-115028838D01*
X34548146Y-114911034D01*
X34510391Y-114785637D01*
X34493132Y-114658764D01*
X34490136Y-114572104D01*
X34500451Y-114423296D01*
X34531399Y-114291332D01*
X34582979Y-114176214D01*
X34672108Y-114060309D01*
X34769078Y-113982251D01*
X34886680Y-113921038D01*
X34912676Y-113910817D01*
G37*
G36*
X33903953Y-112983915D02*
G01*
X34529214Y-112983915D01*
X34529214Y-112554658D01*
X34747812Y-112554658D01*
X34747812Y-112983915D01*
X35855453Y-112983915D01*
X35983146Y-112968383D01*
X36091458Y-112905283D01*
X36142763Y-112793644D01*
X36147323Y-112735398D01*
X36142843Y-112607641D01*
X36131448Y-112510084D01*
X36347602Y-112524128D01*
X36360751Y-112645692D01*
X36365760Y-112772951D01*
X36365921Y-112801954D01*
X36354725Y-112935644D01*
X36311735Y-113066161D01*
X36236501Y-113164049D01*
X36129025Y-113229308D01*
X35989305Y-113261937D01*
X35907355Y-113266016D01*
X34747812Y-113266016D01*
X34747812Y-113557886D01*
X34529214Y-113557886D01*
X34529214Y-113266016D01*
X33966235Y-113266016D01*
X33903953Y-112983915D01*
G37*
G36*
X33747637Y-108586933D02*
G01*
X36326842Y-108586933D01*
X36326842Y-108878803D01*
X34812536Y-108878803D01*
X33997986Y-108871476D01*
X33997986Y-108931926D01*
X34116444Y-108964079D01*
X34256788Y-109002820D01*
X34388546Y-109039951D01*
X34511717Y-109075473D01*
X34648187Y-109115973D01*
X34772293Y-109154155D01*
X34791775Y-109160293D01*
X36326842Y-109648168D01*
X36326842Y-110039568D01*
X34795439Y-110517062D01*
X34670925Y-110556037D01*
X34553057Y-110591575D01*
X34420795Y-110630398D01*
X34373510Y-110644069D01*
X34241962Y-110681735D01*
X34123987Y-110715626D01*
X34003640Y-110750488D01*
X33997986Y-110752146D01*
X33997986Y-110812596D01*
X34117665Y-110813817D01*
X34817421Y-110805269D01*
X36326842Y-110805269D01*
X36326842Y-111080042D01*
X33747637Y-111080042D01*
X33747637Y-110566521D01*
X35282093Y-110103071D01*
X35406409Y-110065916D01*
X35529429Y-110029213D01*
X35664164Y-109989047D01*
X35701580Y-109977896D01*
X35826280Y-109941161D01*
X35947161Y-109905217D01*
X36067661Y-109868852D01*
X36076493Y-109866155D01*
X36076493Y-109805705D01*
X35956216Y-109768593D01*
X35824253Y-109728035D01*
X35678503Y-109683283D01*
X35538484Y-109640312D01*
X35419807Y-109603901D01*
X35289420Y-109563905D01*
X33747637Y-109093127D01*
X33747637Y-108586933D01*
G37*
G36*
X35562128Y-106486287D02*
G01*
X35691333Y-106504131D01*
X35810760Y-106533871D01*
X35941162Y-106585262D01*
X36057483Y-106653784D01*
X36143660Y-106723971D01*
X36230263Y-106820233D01*
X36295596Y-106927365D01*
X36339657Y-107045366D01*
X36362448Y-107174236D01*
X36365921Y-107252757D01*
X36355939Y-107386394D01*
X36325993Y-107508868D01*
X36265823Y-107637647D01*
X36192622Y-107735935D01*
X36099457Y-107823061D01*
X36081988Y-107836497D01*
X35965361Y-107909539D01*
X35834533Y-107964641D01*
X35711092Y-107997592D01*
X35577219Y-108017363D01*
X35432913Y-108023953D01*
X35293928Y-108018005D01*
X35164723Y-108000161D01*
X35045297Y-107970421D01*
X34914894Y-107919030D01*
X34798573Y-107850508D01*
X34712397Y-107780321D01*
X34625793Y-107683762D01*
X34560460Y-107576276D01*
X34516399Y-107457862D01*
X34493608Y-107328520D01*
X34490136Y-107249704D01*
X34708733Y-107249704D01*
X34725445Y-107377521D01*
X34783214Y-107497902D01*
X34870487Y-107586768D01*
X34920003Y-107620342D01*
X35034844Y-107674358D01*
X35155010Y-107707531D01*
X35292196Y-107726736D01*
X35426196Y-107732083D01*
X35558374Y-107727017D01*
X35696519Y-107708301D01*
X35817366Y-107675793D01*
X35934298Y-107621754D01*
X35984291Y-107587980D01*
X36077111Y-107492444D01*
X36131402Y-107376273D01*
X36147323Y-107252757D01*
X36130756Y-107125921D01*
X36073488Y-107006519D01*
X35986972Y-106918430D01*
X35937885Y-106885171D01*
X35821869Y-106830565D01*
X35700415Y-106797030D01*
X35561712Y-106777614D01*
X35426196Y-106772209D01*
X35294892Y-106777275D01*
X35157657Y-106795992D01*
X35037602Y-106828499D01*
X34921434Y-106882538D01*
X34871765Y-106916312D01*
X34778945Y-107011356D01*
X34724654Y-107126890D01*
X34708733Y-107249704D01*
X34490136Y-107249704D01*
X34500053Y-107117913D01*
X34529806Y-106996855D01*
X34589587Y-106869187D01*
X34676366Y-106756128D01*
X34772236Y-106670848D01*
X34889578Y-106596616D01*
X35020944Y-106540617D01*
X35144706Y-106507129D01*
X35278773Y-106487036D01*
X35423143Y-106480339D01*
X35562128Y-106486287D01*
G37*
G36*
X34529214Y-104664393D02*
G01*
X36326842Y-105241417D01*
X36326842Y-105596790D01*
X34529214Y-106173814D01*
X34529214Y-105864847D01*
X35512292Y-105590073D01*
X35641314Y-105556051D01*
X35771227Y-105522287D01*
X35889926Y-105491550D01*
X36030211Y-105455299D01*
X36092369Y-105439254D01*
X36092369Y-105385520D01*
X35971807Y-105351934D01*
X35842706Y-105317916D01*
X35780348Y-105301867D01*
X35657330Y-105270583D01*
X35534952Y-105237515D01*
X35501912Y-105227983D01*
X34529214Y-104953210D01*
X34529214Y-104664393D01*
G37*
G36*
X35475045Y-104079431D02*
G01*
X35616216Y-104071630D01*
X35742135Y-104048226D01*
X35867367Y-104002373D01*
X35972678Y-103936142D01*
X35995893Y-103916399D01*
X36075749Y-103821827D01*
X36126028Y-103709842D01*
X36146732Y-103580446D01*
X36147323Y-103552478D01*
X36134400Y-103428143D01*
X36086657Y-103305659D01*
X36003735Y-103207484D01*
X35885634Y-103133620D01*
X35779738Y-103095743D01*
X35868276Y-102831351D01*
X35984911Y-102881277D01*
X36108837Y-102960027D01*
X36208463Y-103056934D01*
X36283790Y-103171998D01*
X36334818Y-103305220D01*
X36361547Y-103456598D01*
X36365921Y-103556141D01*
X36356046Y-103697377D01*
X36326422Y-103826163D01*
X36277049Y-103942498D01*
X36207926Y-104046382D01*
X36119054Y-104137816D01*
X36085041Y-104165527D01*
X35969102Y-104240473D01*
X35838203Y-104297010D01*
X35714098Y-104330820D01*
X35579001Y-104351106D01*
X35432913Y-104357868D01*
X35296272Y-104351786D01*
X35168754Y-104333539D01*
X35050359Y-104303128D01*
X34920329Y-104250578D01*
X34803435Y-104180511D01*
X34716060Y-104108741D01*
X34628029Y-104010600D01*
X34561620Y-103902642D01*
X34516832Y-103784866D01*
X34493666Y-103657273D01*
X34490136Y-103579955D01*
X34490409Y-103576291D01*
X34708733Y-103576291D01*
X34725608Y-103707560D01*
X34776234Y-103822013D01*
X34860610Y-103919650D01*
X34881535Y-103937160D01*
X34995410Y-104006623D01*
X35117341Y-104048983D01*
X35242067Y-104070182D01*
X35271713Y-104072715D01*
X35271713Y-103098796D01*
X35135624Y-103117496D01*
X35017395Y-103151003D01*
X34905736Y-103206398D01*
X34834518Y-103262439D01*
X34757868Y-103363533D01*
X34716594Y-103484547D01*
X34708733Y-103576291D01*
X34490409Y-103576291D01*
X34499817Y-103449953D01*
X34528861Y-103330598D01*
X34587219Y-103204808D01*
X34671932Y-103093511D01*
X34765519Y-103009648D01*
X34881166Y-102936130D01*
X35011189Y-102880669D01*
X35134078Y-102847503D01*
X35267529Y-102827603D01*
X35411542Y-102820970D01*
X35475045Y-102820970D01*
X35475045Y-104079431D01*
G37*
G36*
X33747637Y-101861706D02*
G01*
X35584344Y-101938643D01*
X35584344Y-102163957D01*
X33747637Y-102234177D01*
X33747637Y-101861706D01*
G37*
G36*
X35943991Y-101858043D02*
G01*
X36326842Y-101858043D01*
X36326842Y-102240893D01*
X35943991Y-102240893D01*
X35943991Y-101858043D01*
G37*
X50974666Y-114262819D02*
X50974666Y-114977104D01*
X50974666Y-114977104D02*
X50927047Y-115119961D01*
X50927047Y-115119961D02*
X50831809Y-115215200D01*
X50831809Y-115215200D02*
X50688952Y-115262819D01*
X50688952Y-115262819D02*
X50593714Y-115262819D01*
X51927047Y-114262819D02*
X51450857Y-114262819D01*
X51450857Y-114262819D02*
X51403238Y-114739009D01*
X51403238Y-114739009D02*
X51450857Y-114691390D01*
X51450857Y-114691390D02*
X51546095Y-114643771D01*
X51546095Y-114643771D02*
X51784190Y-114643771D01*
X51784190Y-114643771D02*
X51879428Y-114691390D01*
X51879428Y-114691390D02*
X51927047Y-114739009D01*
X51927047Y-114739009D02*
X51974666Y-114834247D01*
X51974666Y-114834247D02*
X51974666Y-115072342D01*
X51974666Y-115072342D02*
X51927047Y-115167580D01*
X51927047Y-115167580D02*
X51879428Y-115215200D01*
X51879428Y-115215200D02*
X51784190Y-115262819D01*
X51784190Y-115262819D02*
X51546095Y-115262819D01*
X51546095Y-115262819D02*
X51450857Y-115215200D01*
X51450857Y-115215200D02*
X51403238Y-115167580D01*
X88566666Y-90894819D02*
X88566666Y-91609104D01*
X88566666Y-91609104D02*
X88519047Y-91751961D01*
X88519047Y-91751961D02*
X88423809Y-91847200D01*
X88423809Y-91847200D02*
X88280952Y-91894819D01*
X88280952Y-91894819D02*
X88185714Y-91894819D01*
X89471428Y-91228152D02*
X89471428Y-91894819D01*
X89233333Y-90847200D02*
X88995238Y-91561485D01*
X88995238Y-91561485D02*
X89614285Y-91561485D01*
X46261933Y-105939580D02*
X46214314Y-105987200D01*
X46214314Y-105987200D02*
X46071457Y-106034819D01*
X46071457Y-106034819D02*
X45976219Y-106034819D01*
X45976219Y-106034819D02*
X45833362Y-105987200D01*
X45833362Y-105987200D02*
X45738124Y-105891961D01*
X45738124Y-105891961D02*
X45690505Y-105796723D01*
X45690505Y-105796723D02*
X45642886Y-105606247D01*
X45642886Y-105606247D02*
X45642886Y-105463390D01*
X45642886Y-105463390D02*
X45690505Y-105272914D01*
X45690505Y-105272914D02*
X45738124Y-105177676D01*
X45738124Y-105177676D02*
X45833362Y-105082438D01*
X45833362Y-105082438D02*
X45976219Y-105034819D01*
X45976219Y-105034819D02*
X46071457Y-105034819D01*
X46071457Y-105034819D02*
X46214314Y-105082438D01*
X46214314Y-105082438D02*
X46261933Y-105130057D01*
X46595267Y-105034819D02*
X47214314Y-105034819D01*
X47214314Y-105034819D02*
X46880981Y-105415771D01*
X46880981Y-105415771D02*
X47023838Y-105415771D01*
X47023838Y-105415771D02*
X47119076Y-105463390D01*
X47119076Y-105463390D02*
X47166695Y-105511009D01*
X47166695Y-105511009D02*
X47214314Y-105606247D01*
X47214314Y-105606247D02*
X47214314Y-105844342D01*
X47214314Y-105844342D02*
X47166695Y-105939580D01*
X47166695Y-105939580D02*
X47119076Y-105987200D01*
X47119076Y-105987200D02*
X47023838Y-106034819D01*
X47023838Y-106034819D02*
X46738124Y-106034819D01*
X46738124Y-106034819D02*
X46642886Y-105987200D01*
X46642886Y-105987200D02*
X46595267Y-105939580D01*
X58112819Y-121070666D02*
X57636628Y-121403999D01*
X58112819Y-121642094D02*
X57112819Y-121642094D01*
X57112819Y-121642094D02*
X57112819Y-121261142D01*
X57112819Y-121261142D02*
X57160438Y-121165904D01*
X57160438Y-121165904D02*
X57208057Y-121118285D01*
X57208057Y-121118285D02*
X57303295Y-121070666D01*
X57303295Y-121070666D02*
X57446152Y-121070666D01*
X57446152Y-121070666D02*
X57541390Y-121118285D01*
X57541390Y-121118285D02*
X57589009Y-121165904D01*
X57589009Y-121165904D02*
X57636628Y-121261142D01*
X57636628Y-121261142D02*
X57636628Y-121642094D01*
X58112819Y-120118285D02*
X58112819Y-120689713D01*
X58112819Y-120403999D02*
X57112819Y-120403999D01*
X57112819Y-120403999D02*
X57255676Y-120499237D01*
X57255676Y-120499237D02*
X57350914Y-120594475D01*
X57350914Y-120594475D02*
X57398533Y-120689713D01*
X81612819Y-126537666D02*
X81136628Y-126870999D01*
X81612819Y-127109094D02*
X80612819Y-127109094D01*
X80612819Y-127109094D02*
X80612819Y-126728142D01*
X80612819Y-126728142D02*
X80660438Y-126632904D01*
X80660438Y-126632904D02*
X80708057Y-126585285D01*
X80708057Y-126585285D02*
X80803295Y-126537666D01*
X80803295Y-126537666D02*
X80946152Y-126537666D01*
X80946152Y-126537666D02*
X81041390Y-126585285D01*
X81041390Y-126585285D02*
X81089009Y-126632904D01*
X81089009Y-126632904D02*
X81136628Y-126728142D01*
X81136628Y-126728142D02*
X81136628Y-127109094D01*
X80708057Y-126156713D02*
X80660438Y-126109094D01*
X80660438Y-126109094D02*
X80612819Y-126013856D01*
X80612819Y-126013856D02*
X80612819Y-125775761D01*
X80612819Y-125775761D02*
X80660438Y-125680523D01*
X80660438Y-125680523D02*
X80708057Y-125632904D01*
X80708057Y-125632904D02*
X80803295Y-125585285D01*
X80803295Y-125585285D02*
X80898533Y-125585285D01*
X80898533Y-125585285D02*
X81041390Y-125632904D01*
X81041390Y-125632904D02*
X81612819Y-126204332D01*
X81612819Y-126204332D02*
X81612819Y-125585285D01*
X37766666Y-96164819D02*
X37766666Y-96879104D01*
X37766666Y-96879104D02*
X37719047Y-97021961D01*
X37719047Y-97021961D02*
X37623809Y-97117200D01*
X37623809Y-97117200D02*
X37480952Y-97164819D01*
X37480952Y-97164819D02*
X37385714Y-97164819D01*
X38766666Y-97164819D02*
X38195238Y-97164819D01*
X38480952Y-97164819D02*
X38480952Y-96164819D01*
X38480952Y-96164819D02*
X38385714Y-96307676D01*
X38385714Y-96307676D02*
X38290476Y-96402914D01*
X38290476Y-96402914D02*
X38195238Y-96450533D01*
X44028571Y-92824700D02*
X45171429Y-92824700D01*
X31028571Y-92824700D02*
X32171429Y-92824700D01*
X31600000Y-93396128D02*
X31600000Y-92253271D01*
X44727905Y-124660819D02*
X44727905Y-123660819D01*
X44727905Y-123660819D02*
X44966000Y-123660819D01*
X44966000Y-123660819D02*
X45108857Y-123708438D01*
X45108857Y-123708438D02*
X45204095Y-123803676D01*
X45204095Y-123803676D02*
X45251714Y-123898914D01*
X45251714Y-123898914D02*
X45299333Y-124089390D01*
X45299333Y-124089390D02*
X45299333Y-124232247D01*
X45299333Y-124232247D02*
X45251714Y-124422723D01*
X45251714Y-124422723D02*
X45204095Y-124517961D01*
X45204095Y-124517961D02*
X45108857Y-124613200D01*
X45108857Y-124613200D02*
X44966000Y-124660819D01*
X44966000Y-124660819D02*
X44727905Y-124660819D01*
X46251714Y-124660819D02*
X45680286Y-124660819D01*
X45966000Y-124660819D02*
X45966000Y-123660819D01*
X45966000Y-123660819D02*
X45870762Y-123803676D01*
X45870762Y-123803676D02*
X45775524Y-123898914D01*
X45775524Y-123898914D02*
X45680286Y-123946533D01*
X52570095Y-125533619D02*
X52570095Y-124533619D01*
X53141523Y-125533619D02*
X52712952Y-124962190D01*
X53141523Y-124533619D02*
X52570095Y-125105047D01*
X56605057Y-106140238D02*
X56557438Y-106235476D01*
X56557438Y-106235476D02*
X56462200Y-106330714D01*
X56462200Y-106330714D02*
X56319342Y-106473571D01*
X56319342Y-106473571D02*
X56271723Y-106568809D01*
X56271723Y-106568809D02*
X56271723Y-106664047D01*
X56509819Y-106616428D02*
X56462200Y-106711666D01*
X56462200Y-106711666D02*
X56366961Y-106806904D01*
X56366961Y-106806904D02*
X56176485Y-106854523D01*
X56176485Y-106854523D02*
X55843152Y-106854523D01*
X55843152Y-106854523D02*
X55652676Y-106806904D01*
X55652676Y-106806904D02*
X55557438Y-106711666D01*
X55557438Y-106711666D02*
X55509819Y-106616428D01*
X55509819Y-106616428D02*
X55509819Y-106425952D01*
X55509819Y-106425952D02*
X55557438Y-106330714D01*
X55557438Y-106330714D02*
X55652676Y-106235476D01*
X55652676Y-106235476D02*
X55843152Y-106187857D01*
X55843152Y-106187857D02*
X56176485Y-106187857D01*
X56176485Y-106187857D02*
X56366961Y-106235476D01*
X56366961Y-106235476D02*
X56462200Y-106330714D01*
X56462200Y-106330714D02*
X56509819Y-106425952D01*
X56509819Y-106425952D02*
X56509819Y-106616428D01*
X55605057Y-105806904D02*
X55557438Y-105759285D01*
X55557438Y-105759285D02*
X55509819Y-105664047D01*
X55509819Y-105664047D02*
X55509819Y-105425952D01*
X55509819Y-105425952D02*
X55557438Y-105330714D01*
X55557438Y-105330714D02*
X55605057Y-105283095D01*
X55605057Y-105283095D02*
X55700295Y-105235476D01*
X55700295Y-105235476D02*
X55795533Y-105235476D01*
X55795533Y-105235476D02*
X55938390Y-105283095D01*
X55938390Y-105283095D02*
X56509819Y-105854523D01*
X56509819Y-105854523D02*
X56509819Y-105235476D01*
X67024095Y-127099819D02*
X67024095Y-127909342D01*
X67024095Y-127909342D02*
X67071714Y-128004580D01*
X67071714Y-128004580D02*
X67119333Y-128052200D01*
X67119333Y-128052200D02*
X67214571Y-128099819D01*
X67214571Y-128099819D02*
X67405047Y-128099819D01*
X67405047Y-128099819D02*
X67500285Y-128052200D01*
X67500285Y-128052200D02*
X67547904Y-128004580D01*
X67547904Y-128004580D02*
X67595523Y-127909342D01*
X67595523Y-127909342D02*
X67595523Y-127099819D01*
X68595523Y-128099819D02*
X68024095Y-128099819D01*
X68309809Y-128099819D02*
X68309809Y-127099819D01*
X68309809Y-127099819D02*
X68214571Y-127242676D01*
X68214571Y-127242676D02*
X68119333Y-127337914D01*
X68119333Y-127337914D02*
X68024095Y-127385533D01*
X59856905Y-88211819D02*
X59856905Y-87211819D01*
X59856905Y-87211819D02*
X60190238Y-87926104D01*
X60190238Y-87926104D02*
X60523571Y-87211819D01*
X60523571Y-87211819D02*
X60523571Y-88211819D01*
X60999762Y-87688009D02*
X61333095Y-87688009D01*
X61475952Y-88211819D02*
X60999762Y-88211819D01*
X60999762Y-88211819D02*
X60999762Y-87211819D01*
X60999762Y-87211819D02*
X61475952Y-87211819D01*
X61856905Y-88164200D02*
X61999762Y-88211819D01*
X61999762Y-88211819D02*
X62237857Y-88211819D01*
X62237857Y-88211819D02*
X62333095Y-88164200D01*
X62333095Y-88164200D02*
X62380714Y-88116580D01*
X62380714Y-88116580D02*
X62428333Y-88021342D01*
X62428333Y-88021342D02*
X62428333Y-87926104D01*
X62428333Y-87926104D02*
X62380714Y-87830866D01*
X62380714Y-87830866D02*
X62333095Y-87783247D01*
X62333095Y-87783247D02*
X62237857Y-87735628D01*
X62237857Y-87735628D02*
X62047381Y-87688009D01*
X62047381Y-87688009D02*
X61952143Y-87640390D01*
X61952143Y-87640390D02*
X61904524Y-87592771D01*
X61904524Y-87592771D02*
X61856905Y-87497533D01*
X61856905Y-87497533D02*
X61856905Y-87402295D01*
X61856905Y-87402295D02*
X61904524Y-87307057D01*
X61904524Y-87307057D02*
X61952143Y-87259438D01*
X61952143Y-87259438D02*
X62047381Y-87211819D01*
X62047381Y-87211819D02*
X62285476Y-87211819D01*
X62285476Y-87211819D02*
X62428333Y-87259438D01*
X63380714Y-88211819D02*
X62809286Y-88211819D01*
X63095000Y-88211819D02*
X63095000Y-87211819D01*
X63095000Y-87211819D02*
X62999762Y-87354676D01*
X62999762Y-87354676D02*
X62904524Y-87449914D01*
X62904524Y-87449914D02*
X62809286Y-87497533D01*
X42211666Y-134424009D02*
X41878333Y-134424009D01*
X41878333Y-134947819D02*
X41878333Y-133947819D01*
X41878333Y-133947819D02*
X42354523Y-133947819D01*
X43259285Y-134947819D02*
X42687857Y-134947819D01*
X42973571Y-134947819D02*
X42973571Y-133947819D01*
X42973571Y-133947819D02*
X42878333Y-134090676D01*
X42878333Y-134090676D02*
X42783095Y-134185914D01*
X42783095Y-134185914D02*
X42687857Y-134233533D01*
X80708833Y-116880819D02*
X80375500Y-116404628D01*
X80137405Y-116880819D02*
X80137405Y-115880819D01*
X80137405Y-115880819D02*
X80518357Y-115880819D01*
X80518357Y-115880819D02*
X80613595Y-115928438D01*
X80613595Y-115928438D02*
X80661214Y-115976057D01*
X80661214Y-115976057D02*
X80708833Y-116071295D01*
X80708833Y-116071295D02*
X80708833Y-116214152D01*
X80708833Y-116214152D02*
X80661214Y-116309390D01*
X80661214Y-116309390D02*
X80613595Y-116357009D01*
X80613595Y-116357009D02*
X80518357Y-116404628D01*
X80518357Y-116404628D02*
X80137405Y-116404628D01*
X81565976Y-116214152D02*
X81565976Y-116880819D01*
X81327881Y-115833200D02*
X81089786Y-116547485D01*
X81089786Y-116547485D02*
X81708833Y-116547485D01*
X69389666Y-87211819D02*
X69389666Y-87926104D01*
X69389666Y-87926104D02*
X69342047Y-88068961D01*
X69342047Y-88068961D02*
X69246809Y-88164200D01*
X69246809Y-88164200D02*
X69103952Y-88211819D01*
X69103952Y-88211819D02*
X69008714Y-88211819D01*
X69770619Y-87211819D02*
X70389666Y-87211819D01*
X70389666Y-87211819D02*
X70056333Y-87592771D01*
X70056333Y-87592771D02*
X70199190Y-87592771D01*
X70199190Y-87592771D02*
X70294428Y-87640390D01*
X70294428Y-87640390D02*
X70342047Y-87688009D01*
X70342047Y-87688009D02*
X70389666Y-87783247D01*
X70389666Y-87783247D02*
X70389666Y-88021342D01*
X70389666Y-88021342D02*
X70342047Y-88116580D01*
X70342047Y-88116580D02*
X70294428Y-88164200D01*
X70294428Y-88164200D02*
X70199190Y-88211819D01*
X70199190Y-88211819D02*
X69913476Y-88211819D01*
X69913476Y-88211819D02*
X69818238Y-88164200D01*
X69818238Y-88164200D02*
X69770619Y-88116580D01*
X51228666Y-88227819D02*
X51228666Y-88942104D01*
X51228666Y-88942104D02*
X51181047Y-89084961D01*
X51181047Y-89084961D02*
X51085809Y-89180200D01*
X51085809Y-89180200D02*
X50942952Y-89227819D01*
X50942952Y-89227819D02*
X50847714Y-89227819D01*
X51657238Y-88323057D02*
X51704857Y-88275438D01*
X51704857Y-88275438D02*
X51800095Y-88227819D01*
X51800095Y-88227819D02*
X52038190Y-88227819D01*
X52038190Y-88227819D02*
X52133428Y-88275438D01*
X52133428Y-88275438D02*
X52181047Y-88323057D01*
X52181047Y-88323057D02*
X52228666Y-88418295D01*
X52228666Y-88418295D02*
X52228666Y-88513533D01*
X52228666Y-88513533D02*
X52181047Y-88656390D01*
X52181047Y-88656390D02*
X51609619Y-89227819D01*
X51609619Y-89227819D02*
X52228666Y-89227819D01*
X57403571Y-92824700D02*
X58546429Y-92824700D01*
X44513571Y-94094700D02*
X45656429Y-94094700D01*
X45085000Y-94666128D02*
X45085000Y-93523271D01*
X78596580Y-126537666D02*
X78644200Y-126585285D01*
X78644200Y-126585285D02*
X78691819Y-126728142D01*
X78691819Y-126728142D02*
X78691819Y-126823380D01*
X78691819Y-126823380D02*
X78644200Y-126966237D01*
X78644200Y-126966237D02*
X78548961Y-127061475D01*
X78548961Y-127061475D02*
X78453723Y-127109094D01*
X78453723Y-127109094D02*
X78263247Y-127156713D01*
X78263247Y-127156713D02*
X78120390Y-127156713D01*
X78120390Y-127156713D02*
X77929914Y-127109094D01*
X77929914Y-127109094D02*
X77834676Y-127061475D01*
X77834676Y-127061475D02*
X77739438Y-126966237D01*
X77739438Y-126966237D02*
X77691819Y-126823380D01*
X77691819Y-126823380D02*
X77691819Y-126728142D01*
X77691819Y-126728142D02*
X77739438Y-126585285D01*
X77739438Y-126585285D02*
X77787057Y-126537666D01*
X77787057Y-126156713D02*
X77739438Y-126109094D01*
X77739438Y-126109094D02*
X77691819Y-126013856D01*
X77691819Y-126013856D02*
X77691819Y-125775761D01*
X77691819Y-125775761D02*
X77739438Y-125680523D01*
X77739438Y-125680523D02*
X77787057Y-125632904D01*
X77787057Y-125632904D02*
X77882295Y-125585285D01*
X77882295Y-125585285D02*
X77977533Y-125585285D01*
X77977533Y-125585285D02*
X78120390Y-125632904D01*
X78120390Y-125632904D02*
X78691819Y-126204332D01*
X78691819Y-126204332D02*
X78691819Y-125585285D01*
X87034761Y-132534819D02*
X86701428Y-132058628D01*
X86463333Y-132534819D02*
X86463333Y-131534819D01*
X86463333Y-131534819D02*
X86844285Y-131534819D01*
X86844285Y-131534819D02*
X86939523Y-131582438D01*
X86939523Y-131582438D02*
X86987142Y-131630057D01*
X86987142Y-131630057D02*
X87034761Y-131725295D01*
X87034761Y-131725295D02*
X87034761Y-131868152D01*
X87034761Y-131868152D02*
X86987142Y-131963390D01*
X86987142Y-131963390D02*
X86939523Y-132011009D01*
X86939523Y-132011009D02*
X86844285Y-132058628D01*
X86844285Y-132058628D02*
X86463333Y-132058628D01*
X87320476Y-131534819D02*
X87653809Y-132534819D01*
X87653809Y-132534819D02*
X87987142Y-131534819D01*
X88272857Y-131630057D02*
X88320476Y-131582438D01*
X88320476Y-131582438D02*
X88415714Y-131534819D01*
X88415714Y-131534819D02*
X88653809Y-131534819D01*
X88653809Y-131534819D02*
X88749047Y-131582438D01*
X88749047Y-131582438D02*
X88796666Y-131630057D01*
X88796666Y-131630057D02*
X88844285Y-131725295D01*
X88844285Y-131725295D02*
X88844285Y-131820533D01*
X88844285Y-131820533D02*
X88796666Y-131963390D01*
X88796666Y-131963390D02*
X88225238Y-132534819D01*
X88225238Y-132534819D02*
X88844285Y-132534819D01*
X85262819Y-126537666D02*
X84786628Y-126870999D01*
X85262819Y-127109094D02*
X84262819Y-127109094D01*
X84262819Y-127109094D02*
X84262819Y-126728142D01*
X84262819Y-126728142D02*
X84310438Y-126632904D01*
X84310438Y-126632904D02*
X84358057Y-126585285D01*
X84358057Y-126585285D02*
X84453295Y-126537666D01*
X84453295Y-126537666D02*
X84596152Y-126537666D01*
X84596152Y-126537666D02*
X84691390Y-126585285D01*
X84691390Y-126585285D02*
X84739009Y-126632904D01*
X84739009Y-126632904D02*
X84786628Y-126728142D01*
X84786628Y-126728142D02*
X84786628Y-127109094D01*
X84262819Y-126204332D02*
X84262819Y-125585285D01*
X84262819Y-125585285D02*
X84643771Y-125918618D01*
X84643771Y-125918618D02*
X84643771Y-125775761D01*
X84643771Y-125775761D02*
X84691390Y-125680523D01*
X84691390Y-125680523D02*
X84739009Y-125632904D01*
X84739009Y-125632904D02*
X84834247Y-125585285D01*
X84834247Y-125585285D02*
X85072342Y-125585285D01*
X85072342Y-125585285D02*
X85167580Y-125632904D01*
X85167580Y-125632904D02*
X85215200Y-125680523D01*
X85215200Y-125680523D02*
X85262819Y-125775761D01*
X85262819Y-125775761D02*
X85262819Y-126061475D01*
X85262819Y-126061475D02*
X85215200Y-126156713D01*
X85215200Y-126156713D02*
X85167580Y-126204332D01*
X59269333Y-117454819D02*
X58936000Y-116978628D01*
X58697905Y-117454819D02*
X58697905Y-116454819D01*
X58697905Y-116454819D02*
X59078857Y-116454819D01*
X59078857Y-116454819D02*
X59174095Y-116502438D01*
X59174095Y-116502438D02*
X59221714Y-116550057D01*
X59221714Y-116550057D02*
X59269333Y-116645295D01*
X59269333Y-116645295D02*
X59269333Y-116788152D01*
X59269333Y-116788152D02*
X59221714Y-116883390D01*
X59221714Y-116883390D02*
X59174095Y-116931009D01*
X59174095Y-116931009D02*
X59078857Y-116978628D01*
X59078857Y-116978628D02*
X58697905Y-116978628D01*
X60174095Y-116454819D02*
X59697905Y-116454819D01*
X59697905Y-116454819D02*
X59650286Y-116931009D01*
X59650286Y-116931009D02*
X59697905Y-116883390D01*
X59697905Y-116883390D02*
X59793143Y-116835771D01*
X59793143Y-116835771D02*
X60031238Y-116835771D01*
X60031238Y-116835771D02*
X60126476Y-116883390D01*
X60126476Y-116883390D02*
X60174095Y-116931009D01*
X60174095Y-116931009D02*
X60221714Y-117026247D01*
X60221714Y-117026247D02*
X60221714Y-117264342D01*
X60221714Y-117264342D02*
X60174095Y-117359580D01*
X60174095Y-117359580D02*
X60126476Y-117407200D01*
X60126476Y-117407200D02*
X60031238Y-117454819D01*
X60031238Y-117454819D02*
X59793143Y-117454819D01*
X59793143Y-117454819D02*
X59697905Y-117407200D01*
X59697905Y-117407200D02*
X59650286Y-117359580D01*
X55985580Y-121070666D02*
X56033200Y-121118285D01*
X56033200Y-121118285D02*
X56080819Y-121261142D01*
X56080819Y-121261142D02*
X56080819Y-121356380D01*
X56080819Y-121356380D02*
X56033200Y-121499237D01*
X56033200Y-121499237D02*
X55937961Y-121594475D01*
X55937961Y-121594475D02*
X55842723Y-121642094D01*
X55842723Y-121642094D02*
X55652247Y-121689713D01*
X55652247Y-121689713D02*
X55509390Y-121689713D01*
X55509390Y-121689713D02*
X55318914Y-121642094D01*
X55318914Y-121642094D02*
X55223676Y-121594475D01*
X55223676Y-121594475D02*
X55128438Y-121499237D01*
X55128438Y-121499237D02*
X55080819Y-121356380D01*
X55080819Y-121356380D02*
X55080819Y-121261142D01*
X55080819Y-121261142D02*
X55128438Y-121118285D01*
X55128438Y-121118285D02*
X55176057Y-121070666D01*
X56080819Y-120118285D02*
X56080819Y-120689713D01*
X56080819Y-120403999D02*
X55080819Y-120403999D01*
X55080819Y-120403999D02*
X55223676Y-120499237D01*
X55223676Y-120499237D02*
X55318914Y-120594475D01*
X55318914Y-120594475D02*
X55366533Y-120689713D01*
X56796666Y-131584819D02*
X56796666Y-132299104D01*
X56796666Y-132299104D02*
X56749047Y-132441961D01*
X56749047Y-132441961D02*
X56653809Y-132537200D01*
X56653809Y-132537200D02*
X56510952Y-132584819D01*
X56510952Y-132584819D02*
X56415714Y-132584819D01*
X57272857Y-132584819D02*
X57272857Y-131584819D01*
X57272857Y-131584819D02*
X57653809Y-131584819D01*
X57653809Y-131584819D02*
X57749047Y-131632438D01*
X57749047Y-131632438D02*
X57796666Y-131680057D01*
X57796666Y-131680057D02*
X57844285Y-131775295D01*
X57844285Y-131775295D02*
X57844285Y-131918152D01*
X57844285Y-131918152D02*
X57796666Y-132013390D01*
X57796666Y-132013390D02*
X57749047Y-132061009D01*
X57749047Y-132061009D02*
X57653809Y-132108628D01*
X57653809Y-132108628D02*
X57272857Y-132108628D01*
X58796666Y-132584819D02*
X58225238Y-132584819D01*
X58510952Y-132584819D02*
X58510952Y-131584819D01*
X58510952Y-131584819D02*
X58415714Y-131727676D01*
X58415714Y-131727676D02*
X58320476Y-131822914D01*
X58320476Y-131822914D02*
X58225238Y-131870533D01*
D11*
X77573571Y-120472419D02*
X77097381Y-120472419D01*
X77097381Y-120472419D02*
X77097381Y-119472419D01*
X77764048Y-119472419D02*
X78335476Y-119472419D01*
X78049762Y-120472419D02*
X78049762Y-119472419D01*
X78811667Y-119900990D02*
X78716429Y-119853371D01*
X78716429Y-119853371D02*
X78668810Y-119805752D01*
X78668810Y-119805752D02*
X78621191Y-119710514D01*
X78621191Y-119710514D02*
X78621191Y-119662895D01*
X78621191Y-119662895D02*
X78668810Y-119567657D01*
X78668810Y-119567657D02*
X78716429Y-119520038D01*
X78716429Y-119520038D02*
X78811667Y-119472419D01*
X78811667Y-119472419D02*
X79002143Y-119472419D01*
X79002143Y-119472419D02*
X79097381Y-119520038D01*
X79097381Y-119520038D02*
X79145000Y-119567657D01*
X79145000Y-119567657D02*
X79192619Y-119662895D01*
X79192619Y-119662895D02*
X79192619Y-119710514D01*
X79192619Y-119710514D02*
X79145000Y-119805752D01*
X79145000Y-119805752D02*
X79097381Y-119853371D01*
X79097381Y-119853371D02*
X79002143Y-119900990D01*
X79002143Y-119900990D02*
X78811667Y-119900990D01*
X78811667Y-119900990D02*
X78716429Y-119948609D01*
X78716429Y-119948609D02*
X78668810Y-119996228D01*
X78668810Y-119996228D02*
X78621191Y-120091466D01*
X78621191Y-120091466D02*
X78621191Y-120281942D01*
X78621191Y-120281942D02*
X78668810Y-120377180D01*
X78668810Y-120377180D02*
X78716429Y-120424800D01*
X78716429Y-120424800D02*
X78811667Y-120472419D01*
X78811667Y-120472419D02*
X79002143Y-120472419D01*
X79002143Y-120472419D02*
X79097381Y-120424800D01*
X79097381Y-120424800D02*
X79145000Y-120377180D01*
X79145000Y-120377180D02*
X79192619Y-120281942D01*
X79192619Y-120281942D02*
X79192619Y-120091466D01*
X79192619Y-120091466D02*
X79145000Y-119996228D01*
X79145000Y-119996228D02*
X79097381Y-119948609D01*
X79097381Y-119948609D02*
X79002143Y-119900990D01*
X80049762Y-119472419D02*
X79859286Y-119472419D01*
X79859286Y-119472419D02*
X79764048Y-119520038D01*
X79764048Y-119520038D02*
X79716429Y-119567657D01*
X79716429Y-119567657D02*
X79621191Y-119710514D01*
X79621191Y-119710514D02*
X79573572Y-119900990D01*
X79573572Y-119900990D02*
X79573572Y-120281942D01*
X79573572Y-120281942D02*
X79621191Y-120377180D01*
X79621191Y-120377180D02*
X79668810Y-120424800D01*
X79668810Y-120424800D02*
X79764048Y-120472419D01*
X79764048Y-120472419D02*
X79954524Y-120472419D01*
X79954524Y-120472419D02*
X80049762Y-120424800D01*
X80049762Y-120424800D02*
X80097381Y-120377180D01*
X80097381Y-120377180D02*
X80145000Y-120281942D01*
X80145000Y-120281942D02*
X80145000Y-120043847D01*
X80145000Y-120043847D02*
X80097381Y-119948609D01*
X80097381Y-119948609D02*
X80049762Y-119900990D01*
X80049762Y-119900990D02*
X79954524Y-119853371D01*
X79954524Y-119853371D02*
X79764048Y-119853371D01*
X79764048Y-119853371D02*
X79668810Y-119900990D01*
X79668810Y-119900990D02*
X79621191Y-119948609D01*
X79621191Y-119948609D02*
X79573572Y-120043847D01*
X81002143Y-119805752D02*
X81002143Y-120472419D01*
X80764048Y-119424800D02*
X80525953Y-120139085D01*
X80525953Y-120139085D02*
X81145000Y-120139085D01*
X81716429Y-119472419D02*
X81811667Y-119472419D01*
X81811667Y-119472419D02*
X81906905Y-119520038D01*
X81906905Y-119520038D02*
X81954524Y-119567657D01*
X81954524Y-119567657D02*
X82002143Y-119662895D01*
X82002143Y-119662895D02*
X82049762Y-119853371D01*
X82049762Y-119853371D02*
X82049762Y-120091466D01*
X82049762Y-120091466D02*
X82002143Y-120281942D01*
X82002143Y-120281942D02*
X81954524Y-120377180D01*
X81954524Y-120377180D02*
X81906905Y-120424800D01*
X81906905Y-120424800D02*
X81811667Y-120472419D01*
X81811667Y-120472419D02*
X81716429Y-120472419D01*
X81716429Y-120472419D02*
X81621191Y-120424800D01*
X81621191Y-120424800D02*
X81573572Y-120377180D01*
X81573572Y-120377180D02*
X81525953Y-120281942D01*
X81525953Y-120281942D02*
X81478334Y-120091466D01*
X81478334Y-120091466D02*
X81478334Y-119853371D01*
X81478334Y-119853371D02*
X81525953Y-119662895D01*
X81525953Y-119662895D02*
X81573572Y-119567657D01*
X81573572Y-119567657D02*
X81621191Y-119520038D01*
X81621191Y-119520038D02*
X81716429Y-119472419D01*
X82478334Y-120091466D02*
X83240239Y-120091466D01*
X84240238Y-120472419D02*
X83668810Y-120472419D01*
X83954524Y-120472419D02*
X83954524Y-119472419D01*
X83954524Y-119472419D02*
X83859286Y-119615276D01*
X83859286Y-119615276D02*
X83764048Y-119710514D01*
X83764048Y-119710514D02*
X83668810Y-119758133D01*
D12*
%TO.C,J5*%
X54294000Y-116145000D02*
X54294000Y-117475000D01*
X52964000Y-116145000D02*
X54294000Y-116145000D01*
X51694000Y-116145000D02*
X49094000Y-116145000D01*
X51694000Y-116145000D02*
X51694000Y-118805000D01*
X49094000Y-116145000D02*
X49094000Y-118805000D01*
X51694000Y-118805000D02*
X49094000Y-118805000D01*
%TO.C,J4*%
X88100000Y-93137000D02*
X87500000Y-92837000D01*
X88100000Y-92537000D02*
X88100000Y-93137000D01*
X87500000Y-92837000D02*
X88100000Y-92537000D01*
X87300000Y-94947000D02*
X86100000Y-94947000D01*
X87300000Y-87927000D02*
X87300000Y-94947000D01*
X86100000Y-96647000D02*
X76460000Y-96647000D01*
X86100000Y-94947000D02*
X86100000Y-96647000D01*
X76460000Y-96647000D02*
X76460000Y-94947000D01*
X76460000Y-94947000D02*
X75260000Y-94947000D01*
X75260000Y-94947000D02*
X75260000Y-87927000D01*
X75260000Y-87927000D02*
X87300000Y-87927000D01*
%TO.C,C3*%
X50838298Y-102645000D02*
X50038298Y-102645000D01*
X50438298Y-103045000D02*
X50438298Y-102245000D01*
X46428600Y-104410000D02*
X46428600Y-96250000D01*
X46388600Y-104410000D02*
X46388600Y-96250000D01*
X46348600Y-104410000D02*
X46348600Y-96250000D01*
X46308600Y-104409000D02*
X46308600Y-96251000D01*
X46268600Y-104407000D02*
X46268600Y-96253000D01*
X46228600Y-104406000D02*
X46228600Y-96254000D01*
X46188600Y-104404000D02*
X46188600Y-96256000D01*
X46148600Y-104401000D02*
X46148600Y-96259000D01*
X46108600Y-104398000D02*
X46108600Y-96262000D01*
X46068600Y-104395000D02*
X46068600Y-96265000D01*
X46028600Y-104391000D02*
X46028600Y-96269000D01*
X45988600Y-104387000D02*
X45988600Y-96273000D01*
X45948600Y-104382000D02*
X45948600Y-96278000D01*
X45908600Y-104378000D02*
X45908600Y-96282000D01*
X45868600Y-104372000D02*
X45868600Y-96288000D01*
X45828600Y-104367000D02*
X45828600Y-96293000D01*
X45788600Y-104360000D02*
X45788600Y-96300000D01*
X45748600Y-104354000D02*
X45748600Y-96306000D01*
X45707600Y-104347000D02*
X45707600Y-101370000D01*
X45707600Y-99290000D02*
X45707600Y-96313000D01*
X45667600Y-104340000D02*
X45667600Y-101370000D01*
X45667600Y-99290000D02*
X45667600Y-96320000D01*
X45627600Y-104332000D02*
X45627600Y-101370000D01*
X45627600Y-99290000D02*
X45627600Y-96328000D01*
X45587600Y-104324000D02*
X45587600Y-101370000D01*
X45587600Y-99290000D02*
X45587600Y-96336000D01*
X45547600Y-104315000D02*
X45547600Y-101370000D01*
X45547600Y-99290000D02*
X45547600Y-96345000D01*
X45507600Y-104306000D02*
X45507600Y-101370000D01*
X45507600Y-99290000D02*
X45507600Y-96354000D01*
X45467600Y-104297000D02*
X45467600Y-101370000D01*
X45467600Y-99290000D02*
X45467600Y-96363000D01*
X45427600Y-104287000D02*
X45427600Y-101370000D01*
X45427600Y-99290000D02*
X45427600Y-96373000D01*
X45387600Y-104277000D02*
X45387600Y-101370000D01*
X45387600Y-99290000D02*
X45387600Y-96383000D01*
X45347600Y-104266000D02*
X45347600Y-101370000D01*
X45347600Y-99290000D02*
X45347600Y-96394000D01*
X45307600Y-104255000D02*
X45307600Y-101370000D01*
X45307600Y-99290000D02*
X45307600Y-96405000D01*
X45267600Y-104244000D02*
X45267600Y-101370000D01*
X45267600Y-99290000D02*
X45267600Y-96416000D01*
X45227600Y-104232000D02*
X45227600Y-101370000D01*
X45227600Y-99290000D02*
X45227600Y-96428000D01*
X45187600Y-104219000D02*
X45187600Y-101370000D01*
X45187600Y-99290000D02*
X45187600Y-96441000D01*
X45147600Y-104207000D02*
X45147600Y-101370000D01*
X45147600Y-99290000D02*
X45147600Y-96453000D01*
X45107600Y-104193000D02*
X45107600Y-101370000D01*
X45107600Y-99290000D02*
X45107600Y-96467000D01*
X45067600Y-104180000D02*
X45067600Y-101370000D01*
X45067600Y-99290000D02*
X45067600Y-96480000D01*
X45027600Y-104165000D02*
X45027600Y-101370000D01*
X45027600Y-99290000D02*
X45027600Y-96495000D01*
X44987600Y-104151000D02*
X44987600Y-101370000D01*
X44987600Y-99290000D02*
X44987600Y-96509000D01*
X44947600Y-104135000D02*
X44947600Y-101370000D01*
X44947600Y-99290000D02*
X44947600Y-96525000D01*
X44907600Y-104120000D02*
X44907600Y-101370000D01*
X44907600Y-99290000D02*
X44907600Y-96540000D01*
X44867600Y-104104000D02*
X44867600Y-101370000D01*
X44867600Y-99290000D02*
X44867600Y-96556000D01*
X44827600Y-104087000D02*
X44827600Y-101370000D01*
X44827600Y-99290000D02*
X44827600Y-96573000D01*
X44787600Y-104070000D02*
X44787600Y-101370000D01*
X44787600Y-99290000D02*
X44787600Y-96590000D01*
X44747600Y-104052000D02*
X44747600Y-101370000D01*
X44747600Y-99290000D02*
X44747600Y-96608000D01*
X44707600Y-104034000D02*
X44707600Y-101370000D01*
X44707600Y-99290000D02*
X44707600Y-96626000D01*
X44667600Y-104016000D02*
X44667600Y-101370000D01*
X44667600Y-99290000D02*
X44667600Y-96644000D01*
X44627600Y-103996000D02*
X44627600Y-101370000D01*
X44627600Y-99290000D02*
X44627600Y-96664000D01*
X44587600Y-103977000D02*
X44587600Y-101370000D01*
X44587600Y-99290000D02*
X44587600Y-96683000D01*
X44547600Y-103957000D02*
X44547600Y-101370000D01*
X44547600Y-99290000D02*
X44547600Y-96703000D01*
X44507600Y-103936000D02*
X44507600Y-101370000D01*
X44507600Y-99290000D02*
X44507600Y-96724000D01*
X44467600Y-103914000D02*
X44467600Y-101370000D01*
X44467600Y-99290000D02*
X44467600Y-96746000D01*
X44427600Y-103892000D02*
X44427600Y-101370000D01*
X44427600Y-99290000D02*
X44427600Y-96768000D01*
X44387600Y-103870000D02*
X44387600Y-101370000D01*
X44387600Y-99290000D02*
X44387600Y-96790000D01*
X44347600Y-103847000D02*
X44347600Y-101370000D01*
X44347600Y-99290000D02*
X44347600Y-96813000D01*
X44307600Y-103823000D02*
X44307600Y-101370000D01*
X44307600Y-99290000D02*
X44307600Y-96837000D01*
X44267600Y-103799000D02*
X44267600Y-101370000D01*
X44267600Y-99290000D02*
X44267600Y-96861000D01*
X44227600Y-103774000D02*
X44227600Y-101370000D01*
X44227600Y-99290000D02*
X44227600Y-96886000D01*
X44187600Y-103748000D02*
X44187600Y-101370000D01*
X44187600Y-99290000D02*
X44187600Y-96912000D01*
X44147600Y-103722000D02*
X44147600Y-101370000D01*
X44147600Y-99290000D02*
X44147600Y-96938000D01*
X44107600Y-103695000D02*
X44107600Y-101370000D01*
X44107600Y-99290000D02*
X44107600Y-96965000D01*
X44067600Y-103668000D02*
X44067600Y-101370000D01*
X44067600Y-99290000D02*
X44067600Y-96992000D01*
X44027600Y-103639000D02*
X44027600Y-101370000D01*
X44027600Y-99290000D02*
X44027600Y-97021000D01*
X43987600Y-103610000D02*
X43987600Y-101370000D01*
X43987600Y-99290000D02*
X43987600Y-97050000D01*
X43947600Y-103580000D02*
X43947600Y-101370000D01*
X43947600Y-99290000D02*
X43947600Y-97080000D01*
X43907600Y-103550000D02*
X43907600Y-101370000D01*
X43907600Y-99290000D02*
X43907600Y-97110000D01*
X43867600Y-103519000D02*
X43867600Y-101370000D01*
X43867600Y-99290000D02*
X43867600Y-97141000D01*
X43827600Y-103486000D02*
X43827600Y-101370000D01*
X43827600Y-99290000D02*
X43827600Y-97174000D01*
X43787600Y-103454000D02*
X43787600Y-101370000D01*
X43787600Y-99290000D02*
X43787600Y-97206000D01*
X43747600Y-103420000D02*
X43747600Y-101370000D01*
X43747600Y-99290000D02*
X43747600Y-97240000D01*
X43707600Y-103385000D02*
X43707600Y-101370000D01*
X43707600Y-99290000D02*
X43707600Y-97275000D01*
X43667600Y-103349000D02*
X43667600Y-101370000D01*
X43667600Y-99290000D02*
X43667600Y-97311000D01*
X43627600Y-103313000D02*
X43627600Y-97347000D01*
X43587600Y-103275000D02*
X43587600Y-97385000D01*
X43547600Y-103237000D02*
X43547600Y-97423000D01*
X43507600Y-103197000D02*
X43507600Y-97463000D01*
X43467600Y-103156000D02*
X43467600Y-97504000D01*
X43427600Y-103114000D02*
X43427600Y-97546000D01*
X43387600Y-103071000D02*
X43387600Y-97589000D01*
X43347600Y-103027000D02*
X43347600Y-97633000D01*
X43307600Y-102981000D02*
X43307600Y-97679000D01*
X43267600Y-102934000D02*
X43267600Y-97726000D01*
X43227600Y-102886000D02*
X43227600Y-97774000D01*
X43187600Y-102835000D02*
X43187600Y-97825000D01*
X43147600Y-102784000D02*
X43147600Y-97876000D01*
X43107600Y-102730000D02*
X43107600Y-97930000D01*
X43067600Y-102675000D02*
X43067600Y-97985000D01*
X43027600Y-102617000D02*
X43027600Y-98043000D01*
X42987600Y-102558000D02*
X42987600Y-98102000D01*
X42947600Y-102496000D02*
X42947600Y-98164000D01*
X42907600Y-102432000D02*
X42907600Y-98228000D01*
X42867600Y-102364000D02*
X42867600Y-98296000D01*
X42827600Y-102294000D02*
X42827600Y-98366000D01*
X42787600Y-102220000D02*
X42787600Y-98440000D01*
X42747600Y-102143000D02*
X42747600Y-98517000D01*
X42707600Y-102061000D02*
X42707600Y-98599000D01*
X42667600Y-101975000D02*
X42667600Y-98685000D01*
X42627600Y-101882000D02*
X42627600Y-98778000D01*
X42587600Y-101783000D02*
X42587600Y-98877000D01*
X42547600Y-101676000D02*
X42547600Y-98984000D01*
X42507600Y-101559000D02*
X42507600Y-99101000D01*
X42467600Y-101428000D02*
X42467600Y-99232000D01*
X42427600Y-101278000D02*
X42427600Y-99382000D01*
X42387600Y-101098000D02*
X42387600Y-99562000D01*
X42347600Y-100863000D02*
X42347600Y-99797000D01*
X50548600Y-100330000D02*
G75*
G02*
X42308600Y-100330000I-4120000J0D01*
G01*
X42308600Y-100330000D02*
G75*
G02*
X50548600Y-100330000I4120000J0D01*
G01*
%TO.C,R1*%
X58152500Y-123449276D02*
X58152500Y-123958724D01*
X57107500Y-123449276D02*
X57107500Y-123958724D01*
%TO.C,R2*%
X80250500Y-126116276D02*
X80250500Y-126625724D01*
X79205500Y-126116276D02*
X79205500Y-126625724D01*
%TO.C,J1*%
X43310000Y-94120000D02*
X43310000Y-91300000D01*
X43310000Y-94120000D02*
X41610000Y-95420000D01*
X43310000Y-91300000D02*
X41610000Y-90000000D01*
X41610000Y-95420000D02*
X32890000Y-95420000D01*
X41610000Y-90000000D02*
X32890000Y-90000000D01*
X32890000Y-95420000D02*
X32890000Y-90000000D01*
%TO.C,D1*%
X51352000Y-125198800D02*
X41612000Y-125198800D01*
X51352000Y-124318800D02*
X51352000Y-125198800D01*
X51352000Y-120638800D02*
X51352000Y-119758800D01*
X51352000Y-119758800D02*
X41612000Y-119758800D01*
X49927000Y-125198800D02*
X49927000Y-119758800D01*
X49807000Y-125198800D02*
X49807000Y-119758800D01*
X49687000Y-125198800D02*
X49687000Y-119758800D01*
X41612000Y-125198800D02*
X41612000Y-124318800D01*
X41612000Y-119758800D02*
X41612000Y-120638800D01*
%TO.C,Q2*%
X57055000Y-111165000D02*
X61696000Y-111165000D01*
X57055000Y-111165000D02*
X57055000Y-100925000D01*
X58565000Y-111165000D02*
X58565000Y-100925000D01*
X61696000Y-111165000D02*
X61696000Y-100925000D01*
X57055000Y-107895000D02*
X58565000Y-107895000D01*
X57055000Y-104194000D02*
X58565000Y-104194000D01*
X57055000Y-100925000D02*
X61696000Y-100925000D01*
%TO.C,MES1*%
X58845000Y-96830000D02*
X60095000Y-96830000D01*
X59135000Y-96540000D02*
X65105000Y-96540000D01*
X65105000Y-96540000D02*
X65105000Y-88920000D01*
X59145000Y-96530000D02*
X59895000Y-96530000D01*
X59895000Y-96530000D02*
X59895000Y-94730000D01*
X61395000Y-96530000D02*
X61395000Y-95780000D01*
X61395000Y-95780000D02*
X64345000Y-95780000D01*
X64345000Y-95780000D02*
X64345000Y-92730000D01*
X58845000Y-95580000D02*
X58845000Y-96830000D01*
X59145000Y-94730000D02*
X59145000Y-96530000D01*
X59895000Y-94730000D02*
X59145000Y-94730000D01*
X59145000Y-93230000D02*
X59895000Y-93230000D01*
X59895000Y-93230000D02*
X59895000Y-92230000D01*
X59145000Y-92230000D02*
X59145000Y-93230000D01*
X59895000Y-92230000D02*
X59145000Y-92230000D01*
X59145000Y-90730000D02*
X59895000Y-90730000D01*
X59895000Y-90730000D02*
X59895000Y-88930000D01*
X61395000Y-89680000D02*
X64345000Y-89680000D01*
X64345000Y-89680000D02*
X64345000Y-92730000D01*
X59145000Y-88930000D02*
X59145000Y-90730000D01*
X59895000Y-88930000D02*
X59145000Y-88930000D01*
X61395000Y-88930000D02*
X61395000Y-89680000D01*
X59135000Y-88920000D02*
X59135000Y-96540000D01*
X65105000Y-88920000D02*
X59135000Y-88920000D01*
D13*
%TO.C,F1*%
X32232600Y-126047500D02*
X32232600Y-133032500D01*
X52298600Y-126047500D02*
X32232600Y-126047500D01*
X52298600Y-126047500D02*
X52298600Y-133032500D01*
X52298600Y-133032500D02*
X32232600Y-133032500D01*
X31546800Y-127838200D02*
G75*
G02*
X31394400Y-127838200I-76200J0D01*
G01*
X31394400Y-127838200D02*
G75*
G02*
X31546800Y-127838200I76200J0D01*
G01*
D12*
%TO.C,R4*%
X80620776Y-117333500D02*
X81130224Y-117333500D01*
X80620776Y-118378500D02*
X81130224Y-118378500D01*
%TO.C,J3*%
X67100000Y-96830000D02*
X68350000Y-96830000D01*
X67390000Y-96540000D02*
X73360000Y-96540000D01*
X73360000Y-96540000D02*
X73360000Y-88920000D01*
X67400000Y-96530000D02*
X68150000Y-96530000D01*
X68150000Y-96530000D02*
X68150000Y-94730000D01*
X69650000Y-96530000D02*
X69650000Y-95780000D01*
X69650000Y-95780000D02*
X72600000Y-95780000D01*
X72600000Y-95780000D02*
X72600000Y-92730000D01*
X67100000Y-95580000D02*
X67100000Y-96830000D01*
X67400000Y-94730000D02*
X67400000Y-96530000D01*
X68150000Y-94730000D02*
X67400000Y-94730000D01*
X67400000Y-93230000D02*
X68150000Y-93230000D01*
X68150000Y-93230000D02*
X68150000Y-92230000D01*
X67400000Y-92230000D02*
X67400000Y-93230000D01*
X68150000Y-92230000D02*
X67400000Y-92230000D01*
X67400000Y-90730000D02*
X68150000Y-90730000D01*
X68150000Y-90730000D02*
X68150000Y-88930000D01*
X69650000Y-89680000D02*
X72600000Y-89680000D01*
X72600000Y-89680000D02*
X72600000Y-92730000D01*
X67400000Y-88930000D02*
X67400000Y-90730000D01*
X68150000Y-88930000D02*
X67400000Y-88930000D01*
X69650000Y-88930000D02*
X69650000Y-89680000D01*
X67390000Y-88920000D02*
X67390000Y-96540000D01*
X73360000Y-88920000D02*
X67390000Y-88920000D01*
%TO.C,J2*%
X56685000Y-94120000D02*
X56685000Y-91300000D01*
X56685000Y-94120000D02*
X54985000Y-95420000D01*
X56685000Y-91300000D02*
X54985000Y-90000000D01*
X54985000Y-95420000D02*
X46265000Y-95420000D01*
X54985000Y-90000000D02*
X46265000Y-90000000D01*
X46265000Y-95420000D02*
X46265000Y-90000000D01*
%TO.C,C2*%
X77317000Y-126224733D02*
X77317000Y-126517267D01*
X76297000Y-126224733D02*
X76297000Y-126517267D01*
%TO.C,RV2*%
X75859000Y-129302000D02*
X75859000Y-134372000D01*
X75859000Y-129302000D02*
X85629000Y-129302000D01*
X75859000Y-134372000D02*
X85629000Y-134372000D01*
X85629000Y-129302000D02*
X85629000Y-134372000D01*
%TO.C,R3*%
X82761500Y-126625724D02*
X82761500Y-126116276D01*
X83806500Y-126625724D02*
X83806500Y-126116276D01*
%TO.C,R5*%
X59690724Y-116092500D02*
X59181276Y-116092500D01*
X59690724Y-115047500D02*
X59181276Y-115047500D01*
%TO.C,C1*%
X56186800Y-123551733D02*
X56186800Y-123844267D01*
X55166800Y-123551733D02*
X55166800Y-123844267D01*
%TO.C,JP1*%
X58960000Y-131130000D02*
X57630000Y-131130000D01*
X58960000Y-129800000D02*
X58960000Y-131130000D01*
X58960000Y-128530000D02*
X58960000Y-125930000D01*
X58960000Y-128530000D02*
X56300000Y-128530000D01*
X58960000Y-125930000D02*
X56300000Y-125930000D01*
X56300000Y-128530000D02*
X56300000Y-125930000D01*
%TO.C,LT8640-1*%
D11*
X87630000Y-98806000D02*
X67310000Y-98806000D01*
X67310000Y-119126000D01*
X87630000Y-119126000D01*
X87630000Y-98806000D01*
%TD*%
%LPC*%
D14*
%TO.C,J5*%
X52964000Y-117475000D03*
D15*
X50424000Y-117475000D03*
%TD*%
D16*
%TO.C,J4*%
X85240000Y-92837000D03*
D17*
X81280000Y-92837000D03*
X77320000Y-92837000D03*
%TD*%
D18*
%TO.C,C3*%
X48178600Y-100330000D03*
D19*
X44678600Y-100330000D03*
%TD*%
D20*
%TO.C,R1*%
X57630000Y-122791500D03*
X57630000Y-124616500D03*
%TD*%
D21*
%TO.C,REF\u002A\u002A*%
X42367200Y-106680000D03*
%TD*%
D20*
%TO.C,R2*%
X79728000Y-125458500D03*
X79728000Y-127283500D03*
%TD*%
D22*
%TO.C,J1*%
X40600000Y-92710000D03*
D23*
X35600000Y-92710000D03*
%TD*%
D24*
%TO.C,D1*%
X52832000Y-122478800D03*
D25*
X40132000Y-122478800D03*
%TD*%
D26*
%TO.C,Q2*%
X60325000Y-108585000D03*
D27*
X60325000Y-106045000D03*
X60325000Y-103505000D03*
%TD*%
D28*
%TO.C,U1*%
X62190000Y-127260000D03*
X62190000Y-122680000D03*
D29*
X64355000Y-122680000D03*
D30*
X65500000Y-121660000D03*
X67790000Y-121660000D03*
D29*
X68935000Y-122680000D03*
D30*
X70080000Y-121660000D03*
D31*
X72390000Y-123825000D03*
D28*
X73390000Y-122680000D03*
X73390000Y-127260000D03*
X73390000Y-131840000D03*
D30*
X67790000Y-132860000D03*
X65500000Y-132860000D03*
D28*
X62190000Y-131840000D03*
X62190000Y-129550000D03*
D32*
X74140000Y-129550000D03*
D30*
X70080000Y-132860000D03*
D33*
X72390000Y-129550000D03*
%TD*%
D34*
%TO.C,MES1*%
X61595000Y-93980000D03*
D35*
X61595000Y-91480000D03*
%TD*%
D36*
%TO.C,F1*%
X35534600Y-127838200D03*
D37*
X35534600Y-131241800D03*
X48996600Y-131241800D03*
X48996600Y-127838200D03*
%TD*%
D38*
%TO.C,R4*%
X79963000Y-117856000D03*
X81788000Y-117856000D03*
%TD*%
D34*
%TO.C,J3*%
X69850000Y-93980000D03*
D35*
X69850000Y-91480000D03*
%TD*%
D22*
%TO.C,J2*%
X53975000Y-92710000D03*
D39*
X48975000Y-92710000D03*
%TD*%
D40*
%TO.C,C2*%
X76807000Y-125508500D03*
X76807000Y-127233500D03*
%TD*%
D41*
%TO.C,RV2*%
X83284000Y-131832000D03*
X80744000Y-131832000D03*
X78204000Y-131832000D03*
%TD*%
D42*
%TO.C,R3*%
X83284000Y-127283500D03*
X83284000Y-125458500D03*
%TD*%
D43*
%TO.C,R5*%
X60348500Y-115570000D03*
X58523500Y-115570000D03*
%TD*%
D40*
%TO.C,C1*%
X55676800Y-122835500D03*
X55676800Y-124560500D03*
%TD*%
D14*
%TO.C,JP1*%
X57630000Y-129800000D03*
D15*
X57630000Y-127260000D03*
%TD*%
D44*
%TO.C,LT8640-1*%
X71120000Y-100076000D03*
X68580000Y-100076000D03*
X68580000Y-102616000D03*
X68580000Y-105156000D03*
X68580000Y-107696000D03*
X68580000Y-110236000D03*
X68580000Y-112776000D03*
D45*
X68580000Y-115316000D03*
X68580000Y-117856000D03*
X71120000Y-117856000D03*
D44*
X83820000Y-100076000D03*
X86360000Y-100076000D03*
X86360000Y-102616000D03*
D45*
X86360000Y-115316000D03*
X86360000Y-117856000D03*
X83820000Y-117856000D03*
%TD*%
D21*
%TO.C,REF\u002A\u002A*%
X42367200Y-116052600D03*
%TD*%
%TO.C,REF\u002A\u002A*%
X86360000Y-109220000D03*
%TD*%
%LPD*%
M02*
