%TF.GenerationSoftware,KiCad,Pcbnew,7.0.8*%
%TF.CreationDate,2024-09-16T20:09:50+09:00*%
%TF.ProjectId,____,fb90fa7f-2e6b-4696-9361-645f70636258,rev?*%
%TF.SameCoordinates,Original*%
%TF.FileFunction,Legend,Top*%
%TF.FilePolarity,Positive*%
%FSLAX46Y46*%
G04 Gerber Fmt 4.6, Leading zero omitted, Abs format (unit mm)*
G04 Created by KiCad (PCBNEW 7.0.8) date 2024-09-16 20:09:50*
%MOMM*%
%LPD*%
G01*
G04 APERTURE LIST*
G04 Aperture macros list*
%AMRoundRect*
0 Rectangle with rounded corners*
0 $1 Rounding radius*
0 $2 $3 $4 $5 $6 $7 $8 $9 X,Y pos of 4 corners*
0 Add a 4 corners polygon primitive as box body*
4,1,4,$2,$3,$4,$5,$6,$7,$8,$9,$2,$3,0*
0 Add four circle primitives for the rounded corners*
1,1,$1+$1,$2,$3*
1,1,$1+$1,$4,$5*
1,1,$1+$1,$6,$7*
1,1,$1+$1,$8,$9*
0 Add four rect primitives between the rounded corners*
20,1,$1+$1,$2,$3,$4,$5,0*
20,1,$1+$1,$4,$5,$6,$7,0*
20,1,$1+$1,$6,$7,$8,$9,0*
20,1,$1+$1,$8,$9,$2,$3,0*%
%AMOutline4P*
0 Free polygon, 4 corners , with rotation*
0 The origin of the aperture is its center*
0 number of corners: always 4*
0 $1 to $8 corner X, Y*
0 $9 Rotation angle, in degrees counterclockwise*
0 create outline with 4 corners*
4,1,4,$1,$2,$3,$4,$5,$6,$7,$8,$1,$2,$9*%
G04 Aperture macros list end*
%ADD10C,0.150000*%
%ADD11C,0.100000*%
%ADD12C,0.120000*%
%ADD13C,0.152400*%
%ADD14C,1.600000*%
%ADD15R,1.600000X1.600000*%
%ADD16RoundRect,0.250001X1.099999X1.099999X-1.099999X1.099999X-1.099999X-1.099999X1.099999X-1.099999X0*%
%ADD17C,2.700000*%
%ADD18RoundRect,0.237500X-0.237500X0.250000X-0.237500X-0.250000X0.237500X-0.250000X0.237500X0.250000X0*%
%ADD19C,5.600000*%
%ADD20R,3.800000X3.800000*%
%ADD21C,3.800000*%
%ADD22R,2.000000X1.905000*%
%ADD23O,2.000000X1.905000*%
%ADD24Outline4P,-1.500000X-0.600000X1.500000X-0.600000X1.500000X0.600000X-1.500000X0.600000X0.000000*%
%ADD25Outline4P,-2.035000X-0.885000X2.035000X-0.885000X2.035000X0.885000X-2.035000X0.885000X0.000000*%
%ADD26Outline4P,-0.600000X-1.500000X0.600000X-1.500000X0.600000X1.500000X-0.600000X1.500000X0.000000*%
%ADD27Outline4P,-0.885000X-2.035000X0.885000X-2.035000X0.885000X2.035000X-0.885000X2.035000X0.000000*%
%ADD28Outline4P,-0.750000X-0.600000X0.750000X-0.600000X0.750000X0.600000X-0.750000X0.600000X0.000000*%
%ADD29Outline4P,-0.500000X-0.600000X0.500000X-0.600000X0.500000X0.600000X-0.500000X0.600000X0.000000*%
%ADD30RoundRect,0.250000X0.750000X-0.600000X0.750000X0.600000X-0.750000X0.600000X-0.750000X-0.600000X0*%
%ADD31O,2.000000X1.700000*%
%ADD32R,2.108200X2.108200*%
%ADD33C,2.108200*%
%ADD34RoundRect,0.237500X-0.250000X-0.237500X0.250000X-0.237500X0.250000X0.237500X-0.250000X0.237500X0*%
%ADD35C,4.000000*%
%ADD36RoundRect,0.237500X-0.237500X0.300000X-0.237500X-0.300000X0.237500X-0.300000X0.237500X0.300000X0*%
%ADD37C,1.440000*%
%ADD38RoundRect,0.237500X0.237500X-0.250000X0.237500X0.250000X-0.237500X0.250000X-0.237500X-0.250000X0*%
%ADD39RoundRect,0.237500X0.250000X0.237500X-0.250000X0.237500X-0.250000X-0.237500X0.250000X-0.237500X0*%
%ADD40R,1.700000X1.700000*%
%ADD41O,1.700000X1.700000*%
%ADD42C,1.524000*%
%ADD43R,1.524000X1.524000*%
G04 APERTURE END LIST*
D10*
G36*
X33747637Y-105011242D02*
G01*
X35678377Y-105011242D01*
X35723815Y-105012153D01*
X35767774Y-105014886D01*
X35810254Y-105019442D01*
X35851255Y-105025820D01*
X35890778Y-105034020D01*
X35928821Y-105044043D01*
X35965386Y-105055888D01*
X36000472Y-105069555D01*
X36034080Y-105085044D01*
X36066208Y-105102356D01*
X36096858Y-105121490D01*
X36126028Y-105142446D01*
X36153720Y-105165224D01*
X36179934Y-105189825D01*
X36204668Y-105216248D01*
X36227923Y-105244494D01*
X36244634Y-105267465D01*
X36260267Y-105291195D01*
X36274821Y-105315684D01*
X36288297Y-105340931D01*
X36300695Y-105366937D01*
X36312015Y-105393701D01*
X36322257Y-105421224D01*
X36331421Y-105449505D01*
X36339507Y-105478545D01*
X36346515Y-105508343D01*
X36352444Y-105538899D01*
X36357296Y-105570214D01*
X36361069Y-105602288D01*
X36363764Y-105635120D01*
X36365382Y-105668710D01*
X36365921Y-105703060D01*
X36365470Y-105731553D01*
X36364405Y-105761398D01*
X36363103Y-105789266D01*
X36361400Y-105820684D01*
X36359860Y-105846576D01*
X36358094Y-105874465D01*
X36356103Y-105904350D01*
X36353887Y-105936232D01*
X36353098Y-105947302D01*
X36115572Y-105960736D01*
X36117432Y-105931846D01*
X36119045Y-105902575D01*
X36120409Y-105872923D01*
X36121525Y-105842889D01*
X36122393Y-105812473D01*
X36123014Y-105781675D01*
X36123386Y-105750496D01*
X36123510Y-105718935D01*
X36122340Y-105684469D01*
X36118830Y-105651365D01*
X36112980Y-105619625D01*
X36104791Y-105589248D01*
X36094261Y-105560234D01*
X36081392Y-105532583D01*
X36066183Y-105506296D01*
X36048634Y-105481371D01*
X36028745Y-105457810D01*
X36006516Y-105435611D01*
X35990397Y-105421570D01*
X35965986Y-105402801D01*
X35939922Y-105385878D01*
X35912205Y-105370801D01*
X35882835Y-105357570D01*
X35851812Y-105346186D01*
X35819136Y-105336648D01*
X35784808Y-105328955D01*
X35748826Y-105323109D01*
X35723920Y-105320237D01*
X35698279Y-105318186D01*
X35671904Y-105316955D01*
X35644794Y-105316545D01*
X33747637Y-105316545D01*
X33747637Y-105011242D01*
G37*
G36*
X34529214Y-102934567D02*
G01*
X36326842Y-102934567D01*
X36326842Y-103209340D01*
X36014211Y-103209340D01*
X36035585Y-103224233D01*
X36056352Y-103239603D01*
X36076514Y-103255450D01*
X36096070Y-103271775D01*
X36115021Y-103288576D01*
X36133365Y-103305854D01*
X36151104Y-103323609D01*
X36168237Y-103341842D01*
X36184764Y-103360551D01*
X36200685Y-103379738D01*
X36216000Y-103399401D01*
X36230709Y-103419542D01*
X36244813Y-103440159D01*
X36258311Y-103461254D01*
X36271203Y-103482825D01*
X36283489Y-103504874D01*
X36298220Y-103534956D01*
X36311503Y-103565210D01*
X36323336Y-103595635D01*
X36333721Y-103626232D01*
X36342656Y-103657001D01*
X36350143Y-103687942D01*
X36356180Y-103719054D01*
X36360769Y-103750338D01*
X36363908Y-103781794D01*
X36365599Y-103813421D01*
X36365921Y-103834602D01*
X36365351Y-103863827D01*
X36363640Y-103892275D01*
X36360790Y-103919946D01*
X36356800Y-103946839D01*
X36351669Y-103972954D01*
X36345399Y-103998292D01*
X36337988Y-104022852D01*
X36329437Y-104046635D01*
X36319746Y-104069640D01*
X36308915Y-104091868D01*
X36296944Y-104113318D01*
X36283832Y-104133990D01*
X36269581Y-104153885D01*
X36254189Y-104173002D01*
X36237657Y-104191342D01*
X36219986Y-104208904D01*
X36193759Y-104231929D01*
X36165911Y-104252689D01*
X36136443Y-104271184D01*
X36105354Y-104287415D01*
X36072644Y-104301380D01*
X36038313Y-104313082D01*
X36014526Y-104319624D01*
X35990018Y-104325160D01*
X35964790Y-104329690D01*
X35938842Y-104333213D01*
X35912173Y-104335729D01*
X35884784Y-104337239D01*
X35856674Y-104337742D01*
X34529214Y-104337742D01*
X34529214Y-104045872D01*
X35767526Y-104045872D01*
X35809672Y-104044665D01*
X35849099Y-104041044D01*
X35885807Y-104035010D01*
X35919796Y-104026561D01*
X35951066Y-104015699D01*
X35979616Y-104002423D01*
X36005448Y-103986734D01*
X36028560Y-103968630D01*
X36048954Y-103948113D01*
X36066628Y-103925181D01*
X36081583Y-103899837D01*
X36093819Y-103872078D01*
X36103336Y-103841905D01*
X36110134Y-103809319D01*
X36114212Y-103774319D01*
X36115572Y-103736905D01*
X36114579Y-103709166D01*
X36111600Y-103681363D01*
X36106636Y-103653496D01*
X36099686Y-103625564D01*
X36090751Y-103597568D01*
X36079830Y-103569508D01*
X36066923Y-103541383D01*
X36052030Y-103513193D01*
X36035152Y-103484940D01*
X36016288Y-103456622D01*
X36002609Y-103437707D01*
X35983497Y-103413380D01*
X35963483Y-103389858D01*
X35942567Y-103367141D01*
X35920750Y-103345229D01*
X35898031Y-103324122D01*
X35874411Y-103303820D01*
X35849888Y-103284322D01*
X35824465Y-103265630D01*
X35798140Y-103247743D01*
X35770913Y-103230661D01*
X35752260Y-103219720D01*
X34529214Y-103219720D01*
X34529214Y-102934567D01*
G37*
G36*
X34912676Y-101083817D02*
G01*
X34998161Y-101358590D01*
X34961264Y-101370773D01*
X34926748Y-101384579D01*
X34894613Y-101400006D01*
X34864858Y-101417056D01*
X34837483Y-101435727D01*
X34812488Y-101456020D01*
X34789875Y-101477935D01*
X34769641Y-101501472D01*
X34751788Y-101526631D01*
X34736315Y-101553412D01*
X34723223Y-101581814D01*
X34712511Y-101611839D01*
X34704180Y-101643486D01*
X34698229Y-101676754D01*
X34694658Y-101711645D01*
X34693468Y-101748157D01*
X34694187Y-101781862D01*
X34696344Y-101814053D01*
X34699940Y-101844730D01*
X34704974Y-101873895D01*
X34711446Y-101901545D01*
X34719357Y-101927683D01*
X34728705Y-101952307D01*
X34739492Y-101975418D01*
X34751718Y-101997015D01*
X34770255Y-102023457D01*
X34775289Y-102029647D01*
X34793321Y-102049396D01*
X34812612Y-102066512D01*
X34833163Y-102080995D01*
X34854973Y-102092845D01*
X34878043Y-102102061D01*
X34902372Y-102108644D01*
X34927960Y-102112594D01*
X34954808Y-102113911D01*
X34980267Y-102113160D01*
X35012209Y-102109820D01*
X35041862Y-102103810D01*
X35069225Y-102095128D01*
X35094298Y-102083774D01*
X35117081Y-102069749D01*
X35137575Y-102053053D01*
X35155778Y-102033685D01*
X35159972Y-102028426D01*
X35175075Y-102006635D01*
X35189853Y-101980951D01*
X35204307Y-101951375D01*
X35214935Y-101926638D01*
X35225380Y-101899712D01*
X35235643Y-101870596D01*
X35245724Y-101839290D01*
X35255622Y-101805795D01*
X35262119Y-101782249D01*
X35268535Y-101757729D01*
X35271713Y-101745104D01*
X35306517Y-101600390D01*
X35316561Y-101560202D01*
X35327001Y-101521612D01*
X35337837Y-101484621D01*
X35349069Y-101449227D01*
X35360697Y-101415431D01*
X35372720Y-101383234D01*
X35385140Y-101352634D01*
X35397956Y-101323633D01*
X35411167Y-101296229D01*
X35424775Y-101270424D01*
X35438778Y-101246217D01*
X35453177Y-101223608D01*
X35467973Y-101202596D01*
X35483164Y-101183183D01*
X35506693Y-101157060D01*
X35514734Y-101149152D01*
X35536954Y-101129510D01*
X35560795Y-101111800D01*
X35586256Y-101096022D01*
X35613338Y-101082176D01*
X35642041Y-101070262D01*
X35672364Y-101060280D01*
X35704308Y-101052230D01*
X35737873Y-101046112D01*
X35773059Y-101041926D01*
X35809865Y-101039672D01*
X35835303Y-101039242D01*
X35866473Y-101039998D01*
X35896784Y-101042267D01*
X35926236Y-101046047D01*
X35954829Y-101051340D01*
X35982564Y-101058145D01*
X36009441Y-101066462D01*
X36035458Y-101076291D01*
X36060617Y-101087633D01*
X36084917Y-101100487D01*
X36108359Y-101114853D01*
X36130942Y-101130731D01*
X36152666Y-101148121D01*
X36173532Y-101167024D01*
X36193539Y-101187439D01*
X36212687Y-101209366D01*
X36230976Y-101232805D01*
X36247317Y-101256289D01*
X36262604Y-101280795D01*
X36276836Y-101306321D01*
X36290015Y-101332868D01*
X36302138Y-101360436D01*
X36313208Y-101389025D01*
X36323223Y-101418634D01*
X36332185Y-101449265D01*
X36340091Y-101480916D01*
X36346944Y-101513589D01*
X36352743Y-101547282D01*
X36357487Y-101581996D01*
X36361177Y-101617731D01*
X36363812Y-101654486D01*
X36365394Y-101692263D01*
X36365921Y-101731060D01*
X36365486Y-101765253D01*
X36364182Y-101798680D01*
X36362008Y-101831342D01*
X36358965Y-101863238D01*
X36355053Y-101894368D01*
X36350271Y-101924732D01*
X36344620Y-101954331D01*
X36338100Y-101983165D01*
X36330710Y-102011232D01*
X36322451Y-102038534D01*
X36313322Y-102065071D01*
X36303324Y-102090841D01*
X36292456Y-102115846D01*
X36280719Y-102140086D01*
X36268113Y-102163560D01*
X36254637Y-102186268D01*
X36240292Y-102208210D01*
X36225078Y-102229387D01*
X36208994Y-102249798D01*
X36192041Y-102269444D01*
X36174218Y-102288324D01*
X36155526Y-102306438D01*
X36135964Y-102323787D01*
X36115534Y-102340370D01*
X36094233Y-102356187D01*
X36072064Y-102371239D01*
X36049024Y-102385525D01*
X36025116Y-102399045D01*
X36000338Y-102411800D01*
X35974691Y-102423789D01*
X35948174Y-102435013D01*
X35920788Y-102445471D01*
X35818817Y-102167034D01*
X35860445Y-102153068D01*
X35899388Y-102137276D01*
X35935645Y-102119657D01*
X35969217Y-102100210D01*
X36000103Y-102078937D01*
X36028303Y-102055836D01*
X36053817Y-102030909D01*
X36076646Y-102004154D01*
X36096788Y-101975573D01*
X36114246Y-101945164D01*
X36129017Y-101912928D01*
X36141103Y-101878865D01*
X36150503Y-101842975D01*
X36157217Y-101805259D01*
X36161246Y-101765715D01*
X36162588Y-101724344D01*
X36162195Y-101697093D01*
X36161014Y-101670753D01*
X36159046Y-101645325D01*
X36156292Y-101620807D01*
X36150683Y-101585740D01*
X36143304Y-101552722D01*
X36134154Y-101521755D01*
X36123233Y-101492838D01*
X36110541Y-101465970D01*
X36096078Y-101441153D01*
X36079843Y-101418386D01*
X36061838Y-101397669D01*
X36041908Y-101378778D01*
X36020584Y-101362406D01*
X35997868Y-101348553D01*
X35973758Y-101337219D01*
X35948256Y-101328403D01*
X35921360Y-101322106D01*
X35893072Y-101318328D01*
X35863391Y-101317069D01*
X35835422Y-101317825D01*
X35808987Y-101320095D01*
X35784088Y-101323879D01*
X35753276Y-101331278D01*
X35725193Y-101341367D01*
X35699838Y-101354147D01*
X35677212Y-101369617D01*
X35657315Y-101387778D01*
X35644183Y-101403164D01*
X35629347Y-101424793D01*
X35614454Y-101451211D01*
X35603247Y-101474168D01*
X35592007Y-101499819D01*
X35580735Y-101528164D01*
X35569431Y-101559203D01*
X35558095Y-101592936D01*
X35550520Y-101616921D01*
X35542930Y-101642104D01*
X35535326Y-101668484D01*
X35527708Y-101696062D01*
X35523893Y-101710300D01*
X35492752Y-101855013D01*
X35482561Y-101893692D01*
X35471982Y-101930805D01*
X35461018Y-101966354D01*
X35449667Y-102000338D01*
X35437929Y-102032757D01*
X35425805Y-102063612D01*
X35413295Y-102092902D01*
X35400398Y-102120628D01*
X35387115Y-102146788D01*
X35373446Y-102171384D01*
X35359390Y-102194416D01*
X35344947Y-102215882D01*
X35330119Y-102235784D01*
X35307151Y-102262703D01*
X35283314Y-102286102D01*
X35261731Y-102303234D01*
X35238656Y-102318681D01*
X35214090Y-102332443D01*
X35188031Y-102344520D01*
X35160480Y-102354912D01*
X35131438Y-102363618D01*
X35100903Y-102370640D01*
X35068877Y-102375976D01*
X35035358Y-102379627D01*
X35000348Y-102381593D01*
X34976179Y-102381967D01*
X34947783Y-102381264D01*
X34920146Y-102379153D01*
X34893267Y-102375635D01*
X34867147Y-102370709D01*
X34841786Y-102364377D01*
X34817182Y-102356637D01*
X34793338Y-102347490D01*
X34770252Y-102336935D01*
X34747924Y-102324973D01*
X34726355Y-102311604D01*
X34705544Y-102296828D01*
X34685492Y-102280645D01*
X34666198Y-102263054D01*
X34647663Y-102244056D01*
X34629886Y-102223651D01*
X34612868Y-102201838D01*
X34598006Y-102180090D01*
X34584102Y-102157436D01*
X34571158Y-102133875D01*
X34559172Y-102109408D01*
X34548146Y-102084034D01*
X34538078Y-102057754D01*
X34528969Y-102030568D01*
X34520819Y-102002475D01*
X34513627Y-101973476D01*
X34507395Y-101943571D01*
X34502121Y-101912759D01*
X34497806Y-101881041D01*
X34494450Y-101848416D01*
X34492053Y-101814885D01*
X34490615Y-101780448D01*
X34490136Y-101745104D01*
X34490548Y-101713995D01*
X34491786Y-101683559D01*
X34493849Y-101653798D01*
X34496738Y-101624710D01*
X34500451Y-101596296D01*
X34504991Y-101568555D01*
X34510355Y-101541489D01*
X34516544Y-101515096D01*
X34523559Y-101489377D01*
X34531399Y-101464332D01*
X34540065Y-101439961D01*
X34549555Y-101416264D01*
X34559871Y-101393240D01*
X34571012Y-101370890D01*
X34582979Y-101349214D01*
X34595771Y-101328212D01*
X34609388Y-101307884D01*
X34639097Y-101269249D01*
X34672108Y-101233309D01*
X34689852Y-101216349D01*
X34708420Y-101200064D01*
X34727814Y-101184452D01*
X34748034Y-101169515D01*
X34769078Y-101155251D01*
X34790948Y-101141660D01*
X34813643Y-101128744D01*
X34837163Y-101116501D01*
X34861509Y-101104933D01*
X34886680Y-101094038D01*
X34912676Y-101083817D01*
G37*
G36*
X33903953Y-100156915D02*
G01*
X34529214Y-100156915D01*
X34529214Y-99727658D01*
X34747812Y-99727658D01*
X34747812Y-100156915D01*
X35855453Y-100156915D01*
X35890797Y-100155944D01*
X35923860Y-100153032D01*
X35954643Y-100148178D01*
X35983146Y-100141383D01*
X36009369Y-100132646D01*
X36033311Y-100121967D01*
X36054974Y-100109347D01*
X36083192Y-100086777D01*
X36106279Y-100059838D01*
X36124236Y-100028531D01*
X36133357Y-100005232D01*
X36140198Y-99979992D01*
X36144758Y-99952811D01*
X36147038Y-99923688D01*
X36147323Y-99908398D01*
X36147075Y-99876694D01*
X36146331Y-99846002D01*
X36145091Y-99816320D01*
X36143354Y-99787650D01*
X36141122Y-99759992D01*
X36138393Y-99733345D01*
X36135168Y-99707709D01*
X36131448Y-99683084D01*
X36347602Y-99697128D01*
X36351896Y-99728049D01*
X36355617Y-99760059D01*
X36358032Y-99784779D01*
X36360125Y-99810112D01*
X36361896Y-99836056D01*
X36363345Y-99862612D01*
X36364472Y-99889780D01*
X36365277Y-99917559D01*
X36365760Y-99945951D01*
X36365921Y-99974954D01*
X36365473Y-100003505D01*
X36364129Y-100031149D01*
X36361890Y-100057887D01*
X36358756Y-100083719D01*
X36354725Y-100108644D01*
X36349799Y-100132663D01*
X36337260Y-100177981D01*
X36321139Y-100219674D01*
X36301435Y-100257742D01*
X36278148Y-100292184D01*
X36251279Y-100323000D01*
X36220828Y-100350191D01*
X36186793Y-100373757D01*
X36149177Y-100393697D01*
X36107977Y-100410012D01*
X36063195Y-100422701D01*
X36014831Y-100431765D01*
X35989305Y-100434937D01*
X35962884Y-100437203D01*
X35935567Y-100438562D01*
X35907355Y-100439016D01*
X34747812Y-100439016D01*
X34747812Y-100730886D01*
X34529214Y-100730886D01*
X34529214Y-100439016D01*
X33966235Y-100439016D01*
X33903953Y-100156915D01*
G37*
G36*
X33747637Y-95759933D02*
G01*
X36326842Y-95759933D01*
X36326842Y-96051803D01*
X34812536Y-96051803D01*
X33997986Y-96044476D01*
X33997986Y-96104926D01*
X34028116Y-96113061D01*
X34057902Y-96121131D01*
X34087345Y-96129137D01*
X34116444Y-96137079D01*
X34145200Y-96144956D01*
X34173612Y-96152768D01*
X34201681Y-96160517D01*
X34229406Y-96168200D01*
X34256788Y-96175820D01*
X34283827Y-96183375D01*
X34310522Y-96190866D01*
X34336873Y-96198292D01*
X34362881Y-96205654D01*
X34388546Y-96212951D01*
X34413867Y-96220184D01*
X34438845Y-96227353D01*
X34463479Y-96234457D01*
X34487769Y-96241497D01*
X34511717Y-96248473D01*
X34535321Y-96255384D01*
X34581498Y-96269013D01*
X34626301Y-96282384D01*
X34669730Y-96295498D01*
X34711786Y-96308354D01*
X34752468Y-96320952D01*
X34791775Y-96333293D01*
X36326842Y-96821168D01*
X36326842Y-97212568D01*
X34795439Y-97690062D01*
X34763613Y-97700205D01*
X34730188Y-97710713D01*
X34695163Y-97721586D01*
X34670925Y-97729037D01*
X34645976Y-97736651D01*
X34620316Y-97744427D01*
X34593945Y-97752365D01*
X34566864Y-97760465D01*
X34539072Y-97768727D01*
X34510569Y-97777151D01*
X34481355Y-97785738D01*
X34451431Y-97794487D01*
X34420795Y-97803398D01*
X34389449Y-97812471D01*
X34373510Y-97817069D01*
X34338269Y-97827151D01*
X34304597Y-97836789D01*
X34272495Y-97845984D01*
X34241962Y-97854735D01*
X34212999Y-97863043D01*
X34185605Y-97870907D01*
X34159780Y-97878327D01*
X34135525Y-97885304D01*
X34102086Y-97894937D01*
X34072177Y-97903572D01*
X34045800Y-97911209D01*
X34016124Y-97919838D01*
X33997986Y-97925146D01*
X33997986Y-97985596D01*
X34022914Y-97986072D01*
X34048543Y-97986431D01*
X34074873Y-97986673D01*
X34101904Y-97986798D01*
X34117665Y-97986817D01*
X34817421Y-97978269D01*
X36326842Y-97978269D01*
X36326842Y-98253042D01*
X33747637Y-98253042D01*
X33747637Y-97739521D01*
X35282093Y-97276071D01*
X35313625Y-97266635D01*
X35341194Y-97258393D01*
X35372122Y-97249154D01*
X35406409Y-97238916D01*
X35431134Y-97231536D01*
X35457352Y-97223713D01*
X35485063Y-97215446D01*
X35514267Y-97206735D01*
X35544965Y-97197581D01*
X35577155Y-97187983D01*
X35610839Y-97177941D01*
X35646015Y-97167456D01*
X35682685Y-97156527D01*
X35701580Y-97150896D01*
X35730593Y-97142374D01*
X35758863Y-97134057D01*
X35786388Y-97125945D01*
X35813169Y-97118038D01*
X35839205Y-97110336D01*
X35864498Y-97102840D01*
X35889046Y-97095548D01*
X35912850Y-97088462D01*
X35947161Y-97078217D01*
X35979798Y-97068433D01*
X36010760Y-97059111D01*
X36040047Y-97050251D01*
X36067661Y-97041852D01*
X36076493Y-97039155D01*
X36076493Y-96978705D01*
X36050971Y-96970786D01*
X36018169Y-96960665D01*
X35989794Y-96951925D01*
X35956216Y-96941593D01*
X35917433Y-96929667D01*
X35873445Y-96916148D01*
X35849500Y-96908790D01*
X35824253Y-96901035D01*
X35797705Y-96892881D01*
X35769857Y-96884329D01*
X35740707Y-96875379D01*
X35710256Y-96866030D01*
X35678503Y-96856283D01*
X35645450Y-96846138D01*
X35611096Y-96835594D01*
X35575440Y-96824652D01*
X35538484Y-96813312D01*
X35500226Y-96801573D01*
X35460667Y-96789436D01*
X35419807Y-96776901D01*
X35377646Y-96763967D01*
X35334184Y-96750635D01*
X35289420Y-96736905D01*
X33747637Y-96266127D01*
X33747637Y-95759933D01*
G37*
G36*
X35451723Y-93653577D02*
G01*
X35479911Y-93654290D01*
X35507708Y-93655480D01*
X35535113Y-93657145D01*
X35562128Y-93659287D01*
X35588751Y-93661904D01*
X35614984Y-93664997D01*
X35640825Y-93668566D01*
X35666275Y-93672610D01*
X35691333Y-93677131D01*
X35716001Y-93682127D01*
X35740277Y-93687599D01*
X35764163Y-93693547D01*
X35810760Y-93706871D01*
X35855792Y-93722098D01*
X35899259Y-93739229D01*
X35941162Y-93758262D01*
X35981501Y-93779199D01*
X36020274Y-93802040D01*
X36057483Y-93826784D01*
X36093127Y-93853431D01*
X36127207Y-93881982D01*
X36143660Y-93896971D01*
X36170574Y-93923365D01*
X36195752Y-93950647D01*
X36219194Y-93978816D01*
X36240899Y-94007872D01*
X36260868Y-94037816D01*
X36279100Y-94068647D01*
X36295596Y-94100365D01*
X36310355Y-94132971D01*
X36323379Y-94166463D01*
X36334665Y-94200843D01*
X36344215Y-94236111D01*
X36352029Y-94272265D01*
X36358107Y-94309307D01*
X36362448Y-94347236D01*
X36365052Y-94386053D01*
X36365921Y-94425757D01*
X36364812Y-94471543D01*
X36361484Y-94516088D01*
X36355939Y-94559394D01*
X36348175Y-94601459D01*
X36338193Y-94642284D01*
X36325993Y-94681868D01*
X36311574Y-94720212D01*
X36294938Y-94757316D01*
X36276083Y-94793180D01*
X36255010Y-94827803D01*
X36231718Y-94861186D01*
X36206209Y-94893329D01*
X36178481Y-94924231D01*
X36148535Y-94953894D01*
X36116371Y-94982316D01*
X36081988Y-95009497D01*
X36050115Y-95032197D01*
X36017083Y-95053432D01*
X35982891Y-95073203D01*
X35947540Y-95091509D01*
X35911030Y-95108351D01*
X35873361Y-95123728D01*
X35834533Y-95137641D01*
X35794545Y-95150089D01*
X35753398Y-95161073D01*
X35711092Y-95170592D01*
X35667627Y-95178647D01*
X35623003Y-95185237D01*
X35577219Y-95190363D01*
X35530276Y-95194024D01*
X35482174Y-95196221D01*
X35457688Y-95196770D01*
X35432913Y-95196953D01*
X35404334Y-95196716D01*
X35376146Y-95196002D01*
X35348349Y-95194812D01*
X35320943Y-95193147D01*
X35293928Y-95191005D01*
X35267305Y-95188388D01*
X35241073Y-95185295D01*
X35215232Y-95181726D01*
X35189782Y-95177682D01*
X35164723Y-95173161D01*
X35140055Y-95168165D01*
X35115779Y-95162693D01*
X35091894Y-95156745D01*
X35045297Y-95143421D01*
X35000264Y-95128194D01*
X34956797Y-95111064D01*
X34914894Y-95092030D01*
X34874556Y-95071093D01*
X34835782Y-95048252D01*
X34798573Y-95023508D01*
X34762929Y-94996861D01*
X34728850Y-94968310D01*
X34712397Y-94953321D01*
X34685482Y-94926848D01*
X34660304Y-94899483D01*
X34636863Y-94871226D01*
X34615157Y-94842076D01*
X34595189Y-94812035D01*
X34576956Y-94781101D01*
X34560460Y-94749276D01*
X34545701Y-94716558D01*
X34532678Y-94682949D01*
X34521391Y-94648447D01*
X34511841Y-94613053D01*
X34504027Y-94576767D01*
X34497949Y-94539590D01*
X34493608Y-94501520D01*
X34491004Y-94462558D01*
X34490136Y-94422704D01*
X34708733Y-94422704D01*
X34709558Y-94452702D01*
X34712034Y-94481789D01*
X34716160Y-94509966D01*
X34721937Y-94537231D01*
X34729365Y-94563585D01*
X34738443Y-94589027D01*
X34749171Y-94613559D01*
X34761550Y-94637179D01*
X34775580Y-94659889D01*
X34791260Y-94681687D01*
X34808591Y-94702574D01*
X34827572Y-94722550D01*
X34848204Y-94741615D01*
X34870487Y-94759768D01*
X34894420Y-94777011D01*
X34920003Y-94793342D01*
X34943662Y-94806873D01*
X34968384Y-94819531D01*
X34994170Y-94831317D01*
X35021020Y-94842229D01*
X35048934Y-94852268D01*
X35077912Y-94861434D01*
X35107953Y-94869728D01*
X35139058Y-94877148D01*
X35171227Y-94883695D01*
X35204460Y-94889370D01*
X35238757Y-94894171D01*
X35274117Y-94898099D01*
X35310541Y-94901155D01*
X35348029Y-94903337D01*
X35386581Y-94904647D01*
X35426196Y-94905083D01*
X35471667Y-94904520D01*
X35515727Y-94902832D01*
X35558374Y-94900017D01*
X35599609Y-94896077D01*
X35639432Y-94891011D01*
X35677843Y-94884819D01*
X35714842Y-94877501D01*
X35750429Y-94869057D01*
X35784604Y-94859488D01*
X35817366Y-94848793D01*
X35848717Y-94836972D01*
X35878656Y-94824025D01*
X35907183Y-94809953D01*
X35934298Y-94794754D01*
X35960000Y-94778430D01*
X35984291Y-94760980D01*
X36004033Y-94745145D01*
X36022502Y-94728627D01*
X36047816Y-94702572D01*
X36070265Y-94674982D01*
X36089848Y-94645857D01*
X36106565Y-94615198D01*
X36120417Y-94583003D01*
X36131402Y-94549273D01*
X36139522Y-94514009D01*
X36143343Y-94489647D01*
X36145890Y-94464602D01*
X36147164Y-94438876D01*
X36147323Y-94425757D01*
X36146505Y-94395985D01*
X36144051Y-94367119D01*
X36139960Y-94339160D01*
X36134233Y-94312107D01*
X36126870Y-94285961D01*
X36117871Y-94260721D01*
X36107236Y-94236387D01*
X36094964Y-94212960D01*
X36081056Y-94190439D01*
X36065511Y-94168825D01*
X36048331Y-94148116D01*
X36029514Y-94128315D01*
X36009061Y-94109419D01*
X35986972Y-94091430D01*
X35963247Y-94074347D01*
X35937885Y-94058171D01*
X35913990Y-94044492D01*
X35889017Y-94031696D01*
X35862966Y-94019782D01*
X35835837Y-94008750D01*
X35807630Y-93998601D01*
X35778345Y-93989335D01*
X35747981Y-93980951D01*
X35716540Y-93973449D01*
X35684020Y-93966831D01*
X35650423Y-93961094D01*
X35615747Y-93956240D01*
X35579993Y-93952269D01*
X35543161Y-93949180D01*
X35505251Y-93946974D01*
X35466263Y-93945650D01*
X35426196Y-93945209D01*
X35381026Y-93945772D01*
X35337258Y-93947460D01*
X35294892Y-93950275D01*
X35253929Y-93954215D01*
X35214368Y-93959281D01*
X35176210Y-93965473D01*
X35139454Y-93972791D01*
X35104101Y-93981235D01*
X35070150Y-93990804D01*
X35037602Y-94001499D01*
X35006456Y-94013320D01*
X34976713Y-94026267D01*
X34948372Y-94040340D01*
X34921434Y-94055538D01*
X34895898Y-94071862D01*
X34871765Y-94089312D01*
X34852023Y-94105069D01*
X34833554Y-94121503D01*
X34808240Y-94147424D01*
X34785791Y-94174869D01*
X34766208Y-94203838D01*
X34749491Y-94234331D01*
X34735640Y-94266349D01*
X34724654Y-94299890D01*
X34716534Y-94334956D01*
X34712713Y-94359180D01*
X34710166Y-94384082D01*
X34708892Y-94409660D01*
X34708733Y-94422704D01*
X34490136Y-94422704D01*
X34491238Y-94377581D01*
X34494543Y-94333650D01*
X34500053Y-94290913D01*
X34507767Y-94249368D01*
X34517684Y-94209015D01*
X34529806Y-94169855D01*
X34544131Y-94131888D01*
X34560661Y-94095113D01*
X34579394Y-94059531D01*
X34600331Y-94025141D01*
X34623472Y-93991944D01*
X34648817Y-93959940D01*
X34676366Y-93929128D01*
X34706119Y-93899509D01*
X34738075Y-93871082D01*
X34772236Y-93843848D01*
X34804331Y-93820779D01*
X34837571Y-93799197D01*
X34871956Y-93779105D01*
X34907486Y-93760500D01*
X34944160Y-93743384D01*
X34981980Y-93727756D01*
X35020944Y-93713617D01*
X35061053Y-93700966D01*
X35102307Y-93689803D01*
X35144706Y-93680129D01*
X35188250Y-93671943D01*
X35232939Y-93665245D01*
X35278773Y-93660036D01*
X35325751Y-93656315D01*
X35373875Y-93654083D01*
X35398366Y-93653525D01*
X35423143Y-93653339D01*
X35451723Y-93653577D01*
G37*
G36*
X34529214Y-91837393D02*
G01*
X36326842Y-92414417D01*
X36326842Y-92769790D01*
X34529214Y-93346814D01*
X34529214Y-93037847D01*
X35512292Y-92763073D01*
X35536449Y-92756576D01*
X35563633Y-92749387D01*
X35598588Y-92740211D01*
X35626208Y-92732992D01*
X35657282Y-92724889D01*
X35691810Y-92715904D01*
X35729792Y-92706037D01*
X35771227Y-92695287D01*
X35816117Y-92683654D01*
X35839856Y-92677507D01*
X35864460Y-92671139D01*
X35889926Y-92664550D01*
X35916256Y-92657741D01*
X35943450Y-92650712D01*
X35971507Y-92643461D01*
X36000427Y-92635990D01*
X36030211Y-92628299D01*
X36060858Y-92620386D01*
X36092369Y-92612254D01*
X36092369Y-92558520D01*
X36064653Y-92550534D01*
X36033712Y-92541843D01*
X36008390Y-92534861D01*
X35981255Y-92527482D01*
X35952305Y-92519705D01*
X35921542Y-92511532D01*
X35888964Y-92502961D01*
X35854573Y-92493994D01*
X35830638Y-92487795D01*
X35805896Y-92481419D01*
X35780348Y-92474867D01*
X35747501Y-92466643D01*
X35716049Y-92458688D01*
X35685992Y-92451001D01*
X35657330Y-92443583D01*
X35630064Y-92436433D01*
X35604193Y-92429551D01*
X35579717Y-92422937D01*
X35549254Y-92414537D01*
X35521271Y-92406613D01*
X35501912Y-92400983D01*
X34529214Y-92126210D01*
X34529214Y-91837393D01*
G37*
G36*
X35475045Y-91252431D02*
G01*
X35516936Y-91251795D01*
X35557582Y-91249884D01*
X35596983Y-91246700D01*
X35635138Y-91242242D01*
X35672049Y-91236510D01*
X35707715Y-91229505D01*
X35742135Y-91221226D01*
X35775311Y-91211673D01*
X35807241Y-91200847D01*
X35837927Y-91188747D01*
X35867367Y-91175373D01*
X35895562Y-91160726D01*
X35922513Y-91144805D01*
X35948218Y-91127610D01*
X35972678Y-91109142D01*
X35995893Y-91089399D01*
X36014230Y-91071878D01*
X36031384Y-91053660D01*
X36047355Y-91034745D01*
X36062144Y-91015134D01*
X36075749Y-90994827D01*
X36093938Y-90963060D01*
X36104586Y-90941011D01*
X36114050Y-90918266D01*
X36122331Y-90894824D01*
X36129430Y-90870686D01*
X36135345Y-90845852D01*
X36140077Y-90820321D01*
X36143626Y-90794093D01*
X36145992Y-90767169D01*
X36147175Y-90739549D01*
X36147323Y-90725478D01*
X36145887Y-90682048D01*
X36141580Y-90640603D01*
X36134400Y-90601143D01*
X36124349Y-90563667D01*
X36111426Y-90528175D01*
X36095632Y-90494668D01*
X36076965Y-90463145D01*
X36055427Y-90433607D01*
X36031017Y-90406054D01*
X36003735Y-90380484D01*
X35973582Y-90356900D01*
X35940556Y-90335300D01*
X35904659Y-90315684D01*
X35865891Y-90298053D01*
X35824250Y-90282406D01*
X35779738Y-90268743D01*
X35868276Y-90004351D01*
X35898893Y-90015743D01*
X35928538Y-90027861D01*
X35957210Y-90040706D01*
X35984911Y-90054277D01*
X36011640Y-90068575D01*
X36037397Y-90083598D01*
X36062182Y-90099348D01*
X36085995Y-90115824D01*
X36108837Y-90133027D01*
X36130706Y-90150956D01*
X36151603Y-90169611D01*
X36171528Y-90188992D01*
X36190481Y-90209100D01*
X36208463Y-90229934D01*
X36225472Y-90251494D01*
X36241509Y-90273781D01*
X36256575Y-90296794D01*
X36270668Y-90320533D01*
X36283790Y-90344998D01*
X36295939Y-90370190D01*
X36307117Y-90396108D01*
X36317323Y-90422752D01*
X36326556Y-90450123D01*
X36334818Y-90478220D01*
X36342108Y-90507043D01*
X36348425Y-90536592D01*
X36353771Y-90566868D01*
X36358145Y-90597870D01*
X36361547Y-90629598D01*
X36363977Y-90662053D01*
X36365435Y-90695234D01*
X36365921Y-90729141D01*
X36364823Y-90777603D01*
X36361532Y-90824682D01*
X36356046Y-90870377D01*
X36348366Y-90914689D01*
X36338491Y-90957618D01*
X36326422Y-90999163D01*
X36312159Y-91039325D01*
X36295701Y-91078103D01*
X36277049Y-91115498D01*
X36256202Y-91151510D01*
X36233161Y-91186138D01*
X36207926Y-91219382D01*
X36180496Y-91251244D01*
X36150872Y-91281722D01*
X36119054Y-91310816D01*
X36085041Y-91338527D01*
X36053442Y-91361818D01*
X36020622Y-91383607D01*
X35986581Y-91403893D01*
X35951318Y-91422676D01*
X35914835Y-91439957D01*
X35877130Y-91455735D01*
X35838203Y-91470010D01*
X35798056Y-91482783D01*
X35756687Y-91494053D01*
X35714098Y-91503820D01*
X35670286Y-91512085D01*
X35625254Y-91518847D01*
X35579001Y-91524106D01*
X35531526Y-91527863D01*
X35482830Y-91530117D01*
X35458024Y-91530680D01*
X35432913Y-91530868D01*
X35404855Y-91530625D01*
X35377162Y-91529895D01*
X35349833Y-91528679D01*
X35322870Y-91526976D01*
X35296272Y-91524786D01*
X35270038Y-91522110D01*
X35244170Y-91518947D01*
X35218666Y-91515298D01*
X35193528Y-91511162D01*
X35168754Y-91506539D01*
X35144345Y-91501430D01*
X35120301Y-91495835D01*
X35096622Y-91489753D01*
X35050359Y-91476128D01*
X35005556Y-91460558D01*
X34962212Y-91443041D01*
X34920329Y-91423578D01*
X34879904Y-91402169D01*
X34840940Y-91378813D01*
X34803435Y-91353511D01*
X34767391Y-91326262D01*
X34732805Y-91297068D01*
X34716060Y-91281741D01*
X34688702Y-91254702D01*
X34663109Y-91226862D01*
X34639281Y-91198221D01*
X34617218Y-91168778D01*
X34596920Y-91138534D01*
X34578387Y-91107489D01*
X34561620Y-91075642D01*
X34546617Y-91042993D01*
X34533379Y-91009543D01*
X34521906Y-90975292D01*
X34512199Y-90940239D01*
X34504256Y-90904385D01*
X34498078Y-90867730D01*
X34493666Y-90830273D01*
X34491018Y-90792015D01*
X34490136Y-90752955D01*
X34490224Y-90749291D01*
X34708733Y-90749291D01*
X34709408Y-90776890D01*
X34711433Y-90803817D01*
X34714808Y-90830070D01*
X34719533Y-90855651D01*
X34725608Y-90880560D01*
X34733033Y-90904796D01*
X34741808Y-90928359D01*
X34751933Y-90951250D01*
X34763409Y-90973467D01*
X34776234Y-90995013D01*
X34790409Y-91015886D01*
X34805934Y-91036086D01*
X34822809Y-91055613D01*
X34841034Y-91074468D01*
X34860610Y-91092650D01*
X34881535Y-91110160D01*
X34910488Y-91131480D01*
X34941019Y-91151018D01*
X34973128Y-91168775D01*
X34995410Y-91179623D01*
X35018394Y-91189678D01*
X35042078Y-91198943D01*
X35066465Y-91207415D01*
X35091552Y-91215095D01*
X35117341Y-91221983D01*
X35143830Y-91228080D01*
X35171022Y-91233385D01*
X35198914Y-91237897D01*
X35227507Y-91241618D01*
X35256802Y-91244547D01*
X35271713Y-91245715D01*
X35271713Y-90271796D01*
X35236016Y-90275083D01*
X35201436Y-90279295D01*
X35167971Y-90284433D01*
X35135624Y-90290496D01*
X35104392Y-90297485D01*
X35074277Y-90305399D01*
X35045278Y-90314238D01*
X35017395Y-90324003D01*
X34990628Y-90334694D01*
X34964978Y-90346310D01*
X34940444Y-90358851D01*
X34917026Y-90372318D01*
X34894725Y-90386710D01*
X34873540Y-90402027D01*
X34853471Y-90418271D01*
X34834518Y-90435439D01*
X34812039Y-90458845D01*
X34791771Y-90483496D01*
X34773714Y-90509392D01*
X34757868Y-90536533D01*
X34744233Y-90564919D01*
X34732809Y-90594550D01*
X34723596Y-90625426D01*
X34716594Y-90657547D01*
X34711804Y-90690914D01*
X34709224Y-90725525D01*
X34708733Y-90749291D01*
X34490224Y-90749291D01*
X34491211Y-90708438D01*
X34494438Y-90665104D01*
X34499817Y-90622953D01*
X34507347Y-90581985D01*
X34517029Y-90542200D01*
X34528861Y-90503598D01*
X34542846Y-90466179D01*
X34558982Y-90429944D01*
X34577269Y-90394891D01*
X34597707Y-90361021D01*
X34620297Y-90328335D01*
X34645039Y-90296831D01*
X34671932Y-90266511D01*
X34700976Y-90237373D01*
X34732172Y-90209419D01*
X34765519Y-90182648D01*
X34797094Y-90159800D01*
X34829843Y-90138426D01*
X34863765Y-90118527D01*
X34898861Y-90100101D01*
X34935130Y-90083150D01*
X34972572Y-90067672D01*
X35011189Y-90053669D01*
X35050978Y-90041140D01*
X35091941Y-90030084D01*
X35134078Y-90020503D01*
X35177388Y-90012396D01*
X35221872Y-90005763D01*
X35267529Y-90000603D01*
X35314360Y-89996918D01*
X35362364Y-89994707D01*
X35386806Y-89994154D01*
X35411542Y-89993970D01*
X35475045Y-89993970D01*
X35475045Y-91252431D01*
G37*
G36*
X33747637Y-89034706D02*
G01*
X35584344Y-89111643D01*
X35584344Y-89336957D01*
X33747637Y-89407177D01*
X33747637Y-89034706D01*
G37*
G36*
X35943991Y-89031043D02*
G01*
X36326842Y-89031043D01*
X36326842Y-89413893D01*
X35943991Y-89413893D01*
X35943991Y-89031043D01*
G37*
X41715333Y-108987580D02*
X41667714Y-109035200D01*
X41667714Y-109035200D02*
X41524857Y-109082819D01*
X41524857Y-109082819D02*
X41429619Y-109082819D01*
X41429619Y-109082819D02*
X41286762Y-109035200D01*
X41286762Y-109035200D02*
X41191524Y-108939961D01*
X41191524Y-108939961D02*
X41143905Y-108844723D01*
X41143905Y-108844723D02*
X41096286Y-108654247D01*
X41096286Y-108654247D02*
X41096286Y-108511390D01*
X41096286Y-108511390D02*
X41143905Y-108320914D01*
X41143905Y-108320914D02*
X41191524Y-108225676D01*
X41191524Y-108225676D02*
X41286762Y-108130438D01*
X41286762Y-108130438D02*
X41429619Y-108082819D01*
X41429619Y-108082819D02*
X41524857Y-108082819D01*
X41524857Y-108082819D02*
X41667714Y-108130438D01*
X41667714Y-108130438D02*
X41715333Y-108178057D01*
X42048667Y-108082819D02*
X42667714Y-108082819D01*
X42667714Y-108082819D02*
X42334381Y-108463771D01*
X42334381Y-108463771D02*
X42477238Y-108463771D01*
X42477238Y-108463771D02*
X42572476Y-108511390D01*
X42572476Y-108511390D02*
X42620095Y-108559009D01*
X42620095Y-108559009D02*
X42667714Y-108654247D01*
X42667714Y-108654247D02*
X42667714Y-108892342D01*
X42667714Y-108892342D02*
X42620095Y-108987580D01*
X42620095Y-108987580D02*
X42572476Y-109035200D01*
X42572476Y-109035200D02*
X42477238Y-109082819D01*
X42477238Y-109082819D02*
X42191524Y-109082819D01*
X42191524Y-109082819D02*
X42096286Y-109035200D01*
X42096286Y-109035200D02*
X42048667Y-108987580D01*
X88566666Y-90894819D02*
X88566666Y-91609104D01*
X88566666Y-91609104D02*
X88519047Y-91751961D01*
X88519047Y-91751961D02*
X88423809Y-91847200D01*
X88423809Y-91847200D02*
X88280952Y-91894819D01*
X88280952Y-91894819D02*
X88185714Y-91894819D01*
X89471428Y-91228152D02*
X89471428Y-91894819D01*
X89233333Y-90847200D02*
X88995238Y-91561485D01*
X88995238Y-91561485D02*
X89614285Y-91561485D01*
X59514819Y-123870666D02*
X59038628Y-124203999D01*
X59514819Y-124442094D02*
X58514819Y-124442094D01*
X58514819Y-124442094D02*
X58514819Y-124061142D01*
X58514819Y-124061142D02*
X58562438Y-123965904D01*
X58562438Y-123965904D02*
X58610057Y-123918285D01*
X58610057Y-123918285D02*
X58705295Y-123870666D01*
X58705295Y-123870666D02*
X58848152Y-123870666D01*
X58848152Y-123870666D02*
X58943390Y-123918285D01*
X58943390Y-123918285D02*
X58991009Y-123965904D01*
X58991009Y-123965904D02*
X59038628Y-124061142D01*
X59038628Y-124061142D02*
X59038628Y-124442094D01*
X59514819Y-122918285D02*
X59514819Y-123489713D01*
X59514819Y-123203999D02*
X58514819Y-123203999D01*
X58514819Y-123203999D02*
X58657676Y-123299237D01*
X58657676Y-123299237D02*
X58752914Y-123394475D01*
X58752914Y-123394475D02*
X58800533Y-123489713D01*
X81612819Y-126537666D02*
X81136628Y-126870999D01*
X81612819Y-127109094D02*
X80612819Y-127109094D01*
X80612819Y-127109094D02*
X80612819Y-126728142D01*
X80612819Y-126728142D02*
X80660438Y-126632904D01*
X80660438Y-126632904D02*
X80708057Y-126585285D01*
X80708057Y-126585285D02*
X80803295Y-126537666D01*
X80803295Y-126537666D02*
X80946152Y-126537666D01*
X80946152Y-126537666D02*
X81041390Y-126585285D01*
X81041390Y-126585285D02*
X81089009Y-126632904D01*
X81089009Y-126632904D02*
X81136628Y-126728142D01*
X81136628Y-126728142D02*
X81136628Y-127109094D01*
X80708057Y-126156713D02*
X80660438Y-126109094D01*
X80660438Y-126109094D02*
X80612819Y-126013856D01*
X80612819Y-126013856D02*
X80612819Y-125775761D01*
X80612819Y-125775761D02*
X80660438Y-125680523D01*
X80660438Y-125680523D02*
X80708057Y-125632904D01*
X80708057Y-125632904D02*
X80803295Y-125585285D01*
X80803295Y-125585285D02*
X80898533Y-125585285D01*
X80898533Y-125585285D02*
X81041390Y-125632904D01*
X81041390Y-125632904D02*
X81612819Y-126204332D01*
X81612819Y-126204332D02*
X81612819Y-125585285D01*
X37766666Y-116230819D02*
X37766666Y-116945104D01*
X37766666Y-116945104D02*
X37719047Y-117087961D01*
X37719047Y-117087961D02*
X37623809Y-117183200D01*
X37623809Y-117183200D02*
X37480952Y-117230819D01*
X37480952Y-117230819D02*
X37385714Y-117230819D01*
X38766666Y-117230819D02*
X38195238Y-117230819D01*
X38480952Y-117230819D02*
X38480952Y-116230819D01*
X38480952Y-116230819D02*
X38385714Y-116373676D01*
X38385714Y-116373676D02*
X38290476Y-116468914D01*
X38290476Y-116468914D02*
X38195238Y-116516533D01*
X44028571Y-112890700D02*
X45171429Y-112890700D01*
X31028571Y-112890700D02*
X32171429Y-112890700D01*
X31600000Y-113462128D02*
X31600000Y-112319271D01*
X56605057Y-106140238D02*
X56557438Y-106235476D01*
X56557438Y-106235476D02*
X56462200Y-106330714D01*
X56462200Y-106330714D02*
X56319342Y-106473571D01*
X56319342Y-106473571D02*
X56271723Y-106568809D01*
X56271723Y-106568809D02*
X56271723Y-106664047D01*
X56509819Y-106616428D02*
X56462200Y-106711666D01*
X56462200Y-106711666D02*
X56366961Y-106806904D01*
X56366961Y-106806904D02*
X56176485Y-106854523D01*
X56176485Y-106854523D02*
X55843152Y-106854523D01*
X55843152Y-106854523D02*
X55652676Y-106806904D01*
X55652676Y-106806904D02*
X55557438Y-106711666D01*
X55557438Y-106711666D02*
X55509819Y-106616428D01*
X55509819Y-106616428D02*
X55509819Y-106425952D01*
X55509819Y-106425952D02*
X55557438Y-106330714D01*
X55557438Y-106330714D02*
X55652676Y-106235476D01*
X55652676Y-106235476D02*
X55843152Y-106187857D01*
X55843152Y-106187857D02*
X56176485Y-106187857D01*
X56176485Y-106187857D02*
X56366961Y-106235476D01*
X56366961Y-106235476D02*
X56462200Y-106330714D01*
X56462200Y-106330714D02*
X56509819Y-106425952D01*
X56509819Y-106425952D02*
X56509819Y-106616428D01*
X55605057Y-105806904D02*
X55557438Y-105759285D01*
X55557438Y-105759285D02*
X55509819Y-105664047D01*
X55509819Y-105664047D02*
X55509819Y-105425952D01*
X55509819Y-105425952D02*
X55557438Y-105330714D01*
X55557438Y-105330714D02*
X55605057Y-105283095D01*
X55605057Y-105283095D02*
X55700295Y-105235476D01*
X55700295Y-105235476D02*
X55795533Y-105235476D01*
X55795533Y-105235476D02*
X55938390Y-105283095D01*
X55938390Y-105283095D02*
X56509819Y-105854523D01*
X56509819Y-105854523D02*
X56509819Y-105235476D01*
X67024095Y-127099819D02*
X67024095Y-127909342D01*
X67024095Y-127909342D02*
X67071714Y-128004580D01*
X67071714Y-128004580D02*
X67119333Y-128052200D01*
X67119333Y-128052200D02*
X67214571Y-128099819D01*
X67214571Y-128099819D02*
X67405047Y-128099819D01*
X67405047Y-128099819D02*
X67500285Y-128052200D01*
X67500285Y-128052200D02*
X67547904Y-128004580D01*
X67547904Y-128004580D02*
X67595523Y-127909342D01*
X67595523Y-127909342D02*
X67595523Y-127099819D01*
X68595523Y-128099819D02*
X68024095Y-128099819D01*
X68309809Y-128099819D02*
X68309809Y-127099819D01*
X68309809Y-127099819D02*
X68214571Y-127242676D01*
X68214571Y-127242676D02*
X68119333Y-127337914D01*
X68119333Y-127337914D02*
X68024095Y-127385533D01*
X59856905Y-88211819D02*
X59856905Y-87211819D01*
X59856905Y-87211819D02*
X60190238Y-87926104D01*
X60190238Y-87926104D02*
X60523571Y-87211819D01*
X60523571Y-87211819D02*
X60523571Y-88211819D01*
X60999762Y-87688009D02*
X61333095Y-87688009D01*
X61475952Y-88211819D02*
X60999762Y-88211819D01*
X60999762Y-88211819D02*
X60999762Y-87211819D01*
X60999762Y-87211819D02*
X61475952Y-87211819D01*
X61856905Y-88164200D02*
X61999762Y-88211819D01*
X61999762Y-88211819D02*
X62237857Y-88211819D01*
X62237857Y-88211819D02*
X62333095Y-88164200D01*
X62333095Y-88164200D02*
X62380714Y-88116580D01*
X62380714Y-88116580D02*
X62428333Y-88021342D01*
X62428333Y-88021342D02*
X62428333Y-87926104D01*
X62428333Y-87926104D02*
X62380714Y-87830866D01*
X62380714Y-87830866D02*
X62333095Y-87783247D01*
X62333095Y-87783247D02*
X62237857Y-87735628D01*
X62237857Y-87735628D02*
X62047381Y-87688009D01*
X62047381Y-87688009D02*
X61952143Y-87640390D01*
X61952143Y-87640390D02*
X61904524Y-87592771D01*
X61904524Y-87592771D02*
X61856905Y-87497533D01*
X61856905Y-87497533D02*
X61856905Y-87402295D01*
X61856905Y-87402295D02*
X61904524Y-87307057D01*
X61904524Y-87307057D02*
X61952143Y-87259438D01*
X61952143Y-87259438D02*
X62047381Y-87211819D01*
X62047381Y-87211819D02*
X62285476Y-87211819D01*
X62285476Y-87211819D02*
X62428333Y-87259438D01*
X63380714Y-88211819D02*
X62809286Y-88211819D01*
X63095000Y-88211819D02*
X63095000Y-87211819D01*
X63095000Y-87211819D02*
X62999762Y-87354676D01*
X62999762Y-87354676D02*
X62904524Y-87449914D01*
X62904524Y-87449914D02*
X62809286Y-87497533D01*
X42211666Y-134424009D02*
X41878333Y-134424009D01*
X41878333Y-134947819D02*
X41878333Y-133947819D01*
X41878333Y-133947819D02*
X42354523Y-133947819D01*
X43259285Y-134947819D02*
X42687857Y-134947819D01*
X42973571Y-134947819D02*
X42973571Y-133947819D01*
X42973571Y-133947819D02*
X42878333Y-134090676D01*
X42878333Y-134090676D02*
X42783095Y-134185914D01*
X42783095Y-134185914D02*
X42687857Y-134233533D01*
X80708833Y-116880819D02*
X80375500Y-116404628D01*
X80137405Y-116880819D02*
X80137405Y-115880819D01*
X80137405Y-115880819D02*
X80518357Y-115880819D01*
X80518357Y-115880819D02*
X80613595Y-115928438D01*
X80613595Y-115928438D02*
X80661214Y-115976057D01*
X80661214Y-115976057D02*
X80708833Y-116071295D01*
X80708833Y-116071295D02*
X80708833Y-116214152D01*
X80708833Y-116214152D02*
X80661214Y-116309390D01*
X80661214Y-116309390D02*
X80613595Y-116357009D01*
X80613595Y-116357009D02*
X80518357Y-116404628D01*
X80518357Y-116404628D02*
X80137405Y-116404628D01*
X81565976Y-116214152D02*
X81565976Y-116880819D01*
X81327881Y-115833200D02*
X81089786Y-116547485D01*
X81089786Y-116547485D02*
X81708833Y-116547485D01*
X69389666Y-87211819D02*
X69389666Y-87926104D01*
X69389666Y-87926104D02*
X69342047Y-88068961D01*
X69342047Y-88068961D02*
X69246809Y-88164200D01*
X69246809Y-88164200D02*
X69103952Y-88211819D01*
X69103952Y-88211819D02*
X69008714Y-88211819D01*
X69770619Y-87211819D02*
X70389666Y-87211819D01*
X70389666Y-87211819D02*
X70056333Y-87592771D01*
X70056333Y-87592771D02*
X70199190Y-87592771D01*
X70199190Y-87592771D02*
X70294428Y-87640390D01*
X70294428Y-87640390D02*
X70342047Y-87688009D01*
X70342047Y-87688009D02*
X70389666Y-87783247D01*
X70389666Y-87783247D02*
X70389666Y-88021342D01*
X70389666Y-88021342D02*
X70342047Y-88116580D01*
X70342047Y-88116580D02*
X70294428Y-88164200D01*
X70294428Y-88164200D02*
X70199190Y-88211819D01*
X70199190Y-88211819D02*
X69913476Y-88211819D01*
X69913476Y-88211819D02*
X69818238Y-88164200D01*
X69818238Y-88164200D02*
X69770619Y-88116580D01*
X51228666Y-88227819D02*
X51228666Y-88942104D01*
X51228666Y-88942104D02*
X51181047Y-89084961D01*
X51181047Y-89084961D02*
X51085809Y-89180200D01*
X51085809Y-89180200D02*
X50942952Y-89227819D01*
X50942952Y-89227819D02*
X50847714Y-89227819D01*
X51657238Y-88323057D02*
X51704857Y-88275438D01*
X51704857Y-88275438D02*
X51800095Y-88227819D01*
X51800095Y-88227819D02*
X52038190Y-88227819D01*
X52038190Y-88227819D02*
X52133428Y-88275438D01*
X52133428Y-88275438D02*
X52181047Y-88323057D01*
X52181047Y-88323057D02*
X52228666Y-88418295D01*
X52228666Y-88418295D02*
X52228666Y-88513533D01*
X52228666Y-88513533D02*
X52181047Y-88656390D01*
X52181047Y-88656390D02*
X51609619Y-89227819D01*
X51609619Y-89227819D02*
X52228666Y-89227819D01*
X57403571Y-92824700D02*
X58546429Y-92824700D01*
X44513571Y-94094700D02*
X45656429Y-94094700D01*
X45085000Y-94666128D02*
X45085000Y-93523271D01*
X78596580Y-126537666D02*
X78644200Y-126585285D01*
X78644200Y-126585285D02*
X78691819Y-126728142D01*
X78691819Y-126728142D02*
X78691819Y-126823380D01*
X78691819Y-126823380D02*
X78644200Y-126966237D01*
X78644200Y-126966237D02*
X78548961Y-127061475D01*
X78548961Y-127061475D02*
X78453723Y-127109094D01*
X78453723Y-127109094D02*
X78263247Y-127156713D01*
X78263247Y-127156713D02*
X78120390Y-127156713D01*
X78120390Y-127156713D02*
X77929914Y-127109094D01*
X77929914Y-127109094D02*
X77834676Y-127061475D01*
X77834676Y-127061475D02*
X77739438Y-126966237D01*
X77739438Y-126966237D02*
X77691819Y-126823380D01*
X77691819Y-126823380D02*
X77691819Y-126728142D01*
X77691819Y-126728142D02*
X77739438Y-126585285D01*
X77739438Y-126585285D02*
X77787057Y-126537666D01*
X77787057Y-126156713D02*
X77739438Y-126109094D01*
X77739438Y-126109094D02*
X77691819Y-126013856D01*
X77691819Y-126013856D02*
X77691819Y-125775761D01*
X77691819Y-125775761D02*
X77739438Y-125680523D01*
X77739438Y-125680523D02*
X77787057Y-125632904D01*
X77787057Y-125632904D02*
X77882295Y-125585285D01*
X77882295Y-125585285D02*
X77977533Y-125585285D01*
X77977533Y-125585285D02*
X78120390Y-125632904D01*
X78120390Y-125632904D02*
X78691819Y-126204332D01*
X78691819Y-126204332D02*
X78691819Y-125585285D01*
X87034761Y-132534819D02*
X86701428Y-132058628D01*
X86463333Y-132534819D02*
X86463333Y-131534819D01*
X86463333Y-131534819D02*
X86844285Y-131534819D01*
X86844285Y-131534819D02*
X86939523Y-131582438D01*
X86939523Y-131582438D02*
X86987142Y-131630057D01*
X86987142Y-131630057D02*
X87034761Y-131725295D01*
X87034761Y-131725295D02*
X87034761Y-131868152D01*
X87034761Y-131868152D02*
X86987142Y-131963390D01*
X86987142Y-131963390D02*
X86939523Y-132011009D01*
X86939523Y-132011009D02*
X86844285Y-132058628D01*
X86844285Y-132058628D02*
X86463333Y-132058628D01*
X87320476Y-131534819D02*
X87653809Y-132534819D01*
X87653809Y-132534819D02*
X87987142Y-131534819D01*
X88272857Y-131630057D02*
X88320476Y-131582438D01*
X88320476Y-131582438D02*
X88415714Y-131534819D01*
X88415714Y-131534819D02*
X88653809Y-131534819D01*
X88653809Y-131534819D02*
X88749047Y-131582438D01*
X88749047Y-131582438D02*
X88796666Y-131630057D01*
X88796666Y-131630057D02*
X88844285Y-131725295D01*
X88844285Y-131725295D02*
X88844285Y-131820533D01*
X88844285Y-131820533D02*
X88796666Y-131963390D01*
X88796666Y-131963390D02*
X88225238Y-132534819D01*
X88225238Y-132534819D02*
X88844285Y-132534819D01*
X85262819Y-126537666D02*
X84786628Y-126870999D01*
X85262819Y-127109094D02*
X84262819Y-127109094D01*
X84262819Y-127109094D02*
X84262819Y-126728142D01*
X84262819Y-126728142D02*
X84310438Y-126632904D01*
X84310438Y-126632904D02*
X84358057Y-126585285D01*
X84358057Y-126585285D02*
X84453295Y-126537666D01*
X84453295Y-126537666D02*
X84596152Y-126537666D01*
X84596152Y-126537666D02*
X84691390Y-126585285D01*
X84691390Y-126585285D02*
X84739009Y-126632904D01*
X84739009Y-126632904D02*
X84786628Y-126728142D01*
X84786628Y-126728142D02*
X84786628Y-127109094D01*
X84262819Y-126204332D02*
X84262819Y-125585285D01*
X84262819Y-125585285D02*
X84643771Y-125918618D01*
X84643771Y-125918618D02*
X84643771Y-125775761D01*
X84643771Y-125775761D02*
X84691390Y-125680523D01*
X84691390Y-125680523D02*
X84739009Y-125632904D01*
X84739009Y-125632904D02*
X84834247Y-125585285D01*
X84834247Y-125585285D02*
X85072342Y-125585285D01*
X85072342Y-125585285D02*
X85167580Y-125632904D01*
X85167580Y-125632904D02*
X85215200Y-125680523D01*
X85215200Y-125680523D02*
X85262819Y-125775761D01*
X85262819Y-125775761D02*
X85262819Y-126061475D01*
X85262819Y-126061475D02*
X85215200Y-126156713D01*
X85215200Y-126156713D02*
X85167580Y-126204332D01*
X59269333Y-117454819D02*
X58936000Y-116978628D01*
X58697905Y-117454819D02*
X58697905Y-116454819D01*
X58697905Y-116454819D02*
X59078857Y-116454819D01*
X59078857Y-116454819D02*
X59174095Y-116502438D01*
X59174095Y-116502438D02*
X59221714Y-116550057D01*
X59221714Y-116550057D02*
X59269333Y-116645295D01*
X59269333Y-116645295D02*
X59269333Y-116788152D01*
X59269333Y-116788152D02*
X59221714Y-116883390D01*
X59221714Y-116883390D02*
X59174095Y-116931009D01*
X59174095Y-116931009D02*
X59078857Y-116978628D01*
X59078857Y-116978628D02*
X58697905Y-116978628D01*
X60174095Y-116454819D02*
X59697905Y-116454819D01*
X59697905Y-116454819D02*
X59650286Y-116931009D01*
X59650286Y-116931009D02*
X59697905Y-116883390D01*
X59697905Y-116883390D02*
X59793143Y-116835771D01*
X59793143Y-116835771D02*
X60031238Y-116835771D01*
X60031238Y-116835771D02*
X60126476Y-116883390D01*
X60126476Y-116883390D02*
X60174095Y-116931009D01*
X60174095Y-116931009D02*
X60221714Y-117026247D01*
X60221714Y-117026247D02*
X60221714Y-117264342D01*
X60221714Y-117264342D02*
X60174095Y-117359580D01*
X60174095Y-117359580D02*
X60126476Y-117407200D01*
X60126476Y-117407200D02*
X60031238Y-117454819D01*
X60031238Y-117454819D02*
X59793143Y-117454819D01*
X59793143Y-117454819D02*
X59697905Y-117407200D01*
X59697905Y-117407200D02*
X59650286Y-117359580D01*
X56752580Y-123870666D02*
X56800200Y-123918285D01*
X56800200Y-123918285D02*
X56847819Y-124061142D01*
X56847819Y-124061142D02*
X56847819Y-124156380D01*
X56847819Y-124156380D02*
X56800200Y-124299237D01*
X56800200Y-124299237D02*
X56704961Y-124394475D01*
X56704961Y-124394475D02*
X56609723Y-124442094D01*
X56609723Y-124442094D02*
X56419247Y-124489713D01*
X56419247Y-124489713D02*
X56276390Y-124489713D01*
X56276390Y-124489713D02*
X56085914Y-124442094D01*
X56085914Y-124442094D02*
X55990676Y-124394475D01*
X55990676Y-124394475D02*
X55895438Y-124299237D01*
X55895438Y-124299237D02*
X55847819Y-124156380D01*
X55847819Y-124156380D02*
X55847819Y-124061142D01*
X55847819Y-124061142D02*
X55895438Y-123918285D01*
X55895438Y-123918285D02*
X55943057Y-123870666D01*
X56847819Y-122918285D02*
X56847819Y-123489713D01*
X56847819Y-123203999D02*
X55847819Y-123203999D01*
X55847819Y-123203999D02*
X55990676Y-123299237D01*
X55990676Y-123299237D02*
X56085914Y-123394475D01*
X56085914Y-123394475D02*
X56133533Y-123489713D01*
X56796666Y-131584819D02*
X56796666Y-132299104D01*
X56796666Y-132299104D02*
X56749047Y-132441961D01*
X56749047Y-132441961D02*
X56653809Y-132537200D01*
X56653809Y-132537200D02*
X56510952Y-132584819D01*
X56510952Y-132584819D02*
X56415714Y-132584819D01*
X57272857Y-132584819D02*
X57272857Y-131584819D01*
X57272857Y-131584819D02*
X57653809Y-131584819D01*
X57653809Y-131584819D02*
X57749047Y-131632438D01*
X57749047Y-131632438D02*
X57796666Y-131680057D01*
X57796666Y-131680057D02*
X57844285Y-131775295D01*
X57844285Y-131775295D02*
X57844285Y-131918152D01*
X57844285Y-131918152D02*
X57796666Y-132013390D01*
X57796666Y-132013390D02*
X57749047Y-132061009D01*
X57749047Y-132061009D02*
X57653809Y-132108628D01*
X57653809Y-132108628D02*
X57272857Y-132108628D01*
X58796666Y-132584819D02*
X58225238Y-132584819D01*
X58510952Y-132584819D02*
X58510952Y-131584819D01*
X58510952Y-131584819D02*
X58415714Y-131727676D01*
X58415714Y-131727676D02*
X58320476Y-131822914D01*
X58320476Y-131822914D02*
X58225238Y-131870533D01*
D11*
X77573571Y-120472419D02*
X77097381Y-120472419D01*
X77097381Y-120472419D02*
X77097381Y-119472419D01*
X77764048Y-119472419D02*
X78335476Y-119472419D01*
X78049762Y-120472419D02*
X78049762Y-119472419D01*
X78811667Y-119900990D02*
X78716429Y-119853371D01*
X78716429Y-119853371D02*
X78668810Y-119805752D01*
X78668810Y-119805752D02*
X78621191Y-119710514D01*
X78621191Y-119710514D02*
X78621191Y-119662895D01*
X78621191Y-119662895D02*
X78668810Y-119567657D01*
X78668810Y-119567657D02*
X78716429Y-119520038D01*
X78716429Y-119520038D02*
X78811667Y-119472419D01*
X78811667Y-119472419D02*
X79002143Y-119472419D01*
X79002143Y-119472419D02*
X79097381Y-119520038D01*
X79097381Y-119520038D02*
X79145000Y-119567657D01*
X79145000Y-119567657D02*
X79192619Y-119662895D01*
X79192619Y-119662895D02*
X79192619Y-119710514D01*
X79192619Y-119710514D02*
X79145000Y-119805752D01*
X79145000Y-119805752D02*
X79097381Y-119853371D01*
X79097381Y-119853371D02*
X79002143Y-119900990D01*
X79002143Y-119900990D02*
X78811667Y-119900990D01*
X78811667Y-119900990D02*
X78716429Y-119948609D01*
X78716429Y-119948609D02*
X78668810Y-119996228D01*
X78668810Y-119996228D02*
X78621191Y-120091466D01*
X78621191Y-120091466D02*
X78621191Y-120281942D01*
X78621191Y-120281942D02*
X78668810Y-120377180D01*
X78668810Y-120377180D02*
X78716429Y-120424800D01*
X78716429Y-120424800D02*
X78811667Y-120472419D01*
X78811667Y-120472419D02*
X79002143Y-120472419D01*
X79002143Y-120472419D02*
X79097381Y-120424800D01*
X79097381Y-120424800D02*
X79145000Y-120377180D01*
X79145000Y-120377180D02*
X79192619Y-120281942D01*
X79192619Y-120281942D02*
X79192619Y-120091466D01*
X79192619Y-120091466D02*
X79145000Y-119996228D01*
X79145000Y-119996228D02*
X79097381Y-119948609D01*
X79097381Y-119948609D02*
X79002143Y-119900990D01*
X80049762Y-119472419D02*
X79859286Y-119472419D01*
X79859286Y-119472419D02*
X79764048Y-119520038D01*
X79764048Y-119520038D02*
X79716429Y-119567657D01*
X79716429Y-119567657D02*
X79621191Y-119710514D01*
X79621191Y-119710514D02*
X79573572Y-119900990D01*
X79573572Y-119900990D02*
X79573572Y-120281942D01*
X79573572Y-120281942D02*
X79621191Y-120377180D01*
X79621191Y-120377180D02*
X79668810Y-120424800D01*
X79668810Y-120424800D02*
X79764048Y-120472419D01*
X79764048Y-120472419D02*
X79954524Y-120472419D01*
X79954524Y-120472419D02*
X80049762Y-120424800D01*
X80049762Y-120424800D02*
X80097381Y-120377180D01*
X80097381Y-120377180D02*
X80145000Y-120281942D01*
X80145000Y-120281942D02*
X80145000Y-120043847D01*
X80145000Y-120043847D02*
X80097381Y-119948609D01*
X80097381Y-119948609D02*
X80049762Y-119900990D01*
X80049762Y-119900990D02*
X79954524Y-119853371D01*
X79954524Y-119853371D02*
X79764048Y-119853371D01*
X79764048Y-119853371D02*
X79668810Y-119900990D01*
X79668810Y-119900990D02*
X79621191Y-119948609D01*
X79621191Y-119948609D02*
X79573572Y-120043847D01*
X81002143Y-119805752D02*
X81002143Y-120472419D01*
X80764048Y-119424800D02*
X80525953Y-120139085D01*
X80525953Y-120139085D02*
X81145000Y-120139085D01*
X81716429Y-119472419D02*
X81811667Y-119472419D01*
X81811667Y-119472419D02*
X81906905Y-119520038D01*
X81906905Y-119520038D02*
X81954524Y-119567657D01*
X81954524Y-119567657D02*
X82002143Y-119662895D01*
X82002143Y-119662895D02*
X82049762Y-119853371D01*
X82049762Y-119853371D02*
X82049762Y-120091466D01*
X82049762Y-120091466D02*
X82002143Y-120281942D01*
X82002143Y-120281942D02*
X81954524Y-120377180D01*
X81954524Y-120377180D02*
X81906905Y-120424800D01*
X81906905Y-120424800D02*
X81811667Y-120472419D01*
X81811667Y-120472419D02*
X81716429Y-120472419D01*
X81716429Y-120472419D02*
X81621191Y-120424800D01*
X81621191Y-120424800D02*
X81573572Y-120377180D01*
X81573572Y-120377180D02*
X81525953Y-120281942D01*
X81525953Y-120281942D02*
X81478334Y-120091466D01*
X81478334Y-120091466D02*
X81478334Y-119853371D01*
X81478334Y-119853371D02*
X81525953Y-119662895D01*
X81525953Y-119662895D02*
X81573572Y-119567657D01*
X81573572Y-119567657D02*
X81621191Y-119520038D01*
X81621191Y-119520038D02*
X81716429Y-119472419D01*
X82478334Y-120091466D02*
X83240239Y-120091466D01*
X84240238Y-120472419D02*
X83668810Y-120472419D01*
X83954524Y-120472419D02*
X83954524Y-119472419D01*
X83954524Y-119472419D02*
X83859286Y-119615276D01*
X83859286Y-119615276D02*
X83764048Y-119710514D01*
X83764048Y-119710514D02*
X83668810Y-119758133D01*
D12*
%TO.C,C3*%
X46002000Y-103378000D02*
G75*
G03*
X46002000Y-103378000I-4120000J0D01*
G01*
X39481000Y-102338000D02*
X39481000Y-100069000D01*
X40721000Y-107292000D02*
X40721000Y-104418000D01*
X38601000Y-105832000D02*
X38601000Y-100924000D01*
X37881000Y-104326000D02*
X37881000Y-102430000D01*
X41442000Y-107435000D02*
X41442000Y-99321000D01*
X40121000Y-102338000D02*
X40121000Y-99692000D01*
X40281000Y-107135000D02*
X40281000Y-104418000D01*
X39681000Y-106822000D02*
X39681000Y-104418000D01*
X40041000Y-102338000D02*
X40041000Y-99731000D01*
X38041000Y-104831000D02*
X38041000Y-101925000D01*
X41562000Y-107446000D02*
X41562000Y-99310000D01*
X38161000Y-105109000D02*
X38161000Y-101647000D01*
X37921000Y-104476000D02*
X37921000Y-102280000D01*
X39481000Y-106687000D02*
X39481000Y-104418000D01*
X40041000Y-107025000D02*
X40041000Y-104418000D01*
X41282000Y-107415000D02*
X41282000Y-99341000D01*
X38721000Y-105982000D02*
X38721000Y-100774000D01*
X41802000Y-107458000D02*
X41802000Y-99298000D01*
X40521000Y-102338000D02*
X40521000Y-99528000D01*
X38001000Y-104724000D02*
X38001000Y-102032000D01*
X39401000Y-106628000D02*
X39401000Y-104418000D01*
X38441000Y-105606000D02*
X38441000Y-101150000D01*
X39281000Y-106534000D02*
X39281000Y-104418000D01*
X39641000Y-106796000D02*
X39641000Y-104418000D01*
X41161000Y-107395000D02*
X41161000Y-104418000D01*
X41402000Y-107430000D02*
X41402000Y-99326000D01*
X40961000Y-102338000D02*
X40961000Y-99402000D01*
X40401000Y-107183000D02*
X40401000Y-104418000D01*
X39721000Y-102338000D02*
X39721000Y-99909000D01*
X41882000Y-107458000D02*
X41882000Y-99298000D01*
X38081000Y-104930000D02*
X38081000Y-101826000D01*
X40001000Y-107005000D02*
X40001000Y-104418000D01*
X40321000Y-107152000D02*
X40321000Y-104418000D01*
X39361000Y-106598000D02*
X39361000Y-104418000D01*
X39321000Y-106567000D02*
X39321000Y-104418000D01*
X40081000Y-107044000D02*
X40081000Y-104418000D01*
X39681000Y-102338000D02*
X39681000Y-99934000D01*
X38521000Y-105723000D02*
X38521000Y-101033000D01*
X40281000Y-102338000D02*
X40281000Y-99621000D01*
X40761000Y-102338000D02*
X40761000Y-99453000D01*
X39921000Y-106962000D02*
X39921000Y-104418000D01*
X39561000Y-106743000D02*
X39561000Y-104418000D01*
X39401000Y-102338000D02*
X39401000Y-100128000D01*
X38241000Y-105268000D02*
X38241000Y-101488000D01*
X41001000Y-107363000D02*
X41001000Y-104418000D01*
X38961000Y-106245000D02*
X38961000Y-100511000D01*
X40841000Y-102338000D02*
X40841000Y-99431000D01*
X40681000Y-107280000D02*
X40681000Y-104418000D01*
X40401000Y-102338000D02*
X40401000Y-99573000D01*
X37841000Y-104146000D02*
X37841000Y-102610000D01*
X46291698Y-105693000D02*
X45491698Y-105693000D01*
X40881000Y-102338000D02*
X40881000Y-99421000D01*
X39761000Y-106871000D02*
X39761000Y-104418000D01*
X39441000Y-102338000D02*
X39441000Y-100098000D01*
X40201000Y-107100000D02*
X40201000Y-104418000D01*
X40601000Y-107255000D02*
X40601000Y-104418000D01*
X40801000Y-102338000D02*
X40801000Y-99442000D01*
X39521000Y-102338000D02*
X39521000Y-100040000D01*
X40441000Y-107199000D02*
X40441000Y-104418000D01*
X40161000Y-107082000D02*
X40161000Y-104418000D01*
X39161000Y-106433000D02*
X39161000Y-104418000D01*
X38881000Y-106162000D02*
X38881000Y-100594000D01*
X41642000Y-107452000D02*
X41642000Y-99304000D01*
X40001000Y-102338000D02*
X40001000Y-99751000D01*
X39201000Y-102338000D02*
X39201000Y-100288000D01*
X39121000Y-102338000D02*
X39121000Y-100359000D01*
X39081000Y-106361000D02*
X39081000Y-100395000D01*
X40441000Y-102338000D02*
X40441000Y-99557000D01*
X41762000Y-107457000D02*
X41762000Y-99299000D01*
X39881000Y-106940000D02*
X39881000Y-104418000D01*
X39801000Y-102338000D02*
X39801000Y-99861000D01*
X38321000Y-105412000D02*
X38321000Y-101344000D01*
X40561000Y-107241000D02*
X40561000Y-104418000D01*
X39441000Y-106658000D02*
X39441000Y-104418000D01*
X39601000Y-102338000D02*
X39601000Y-99986000D01*
X38561000Y-105778000D02*
X38561000Y-100978000D01*
X37801000Y-103911000D02*
X37801000Y-102845000D01*
X38361000Y-105480000D02*
X38361000Y-101276000D01*
X38281000Y-105342000D02*
X38281000Y-101414000D01*
X39201000Y-106468000D02*
X39201000Y-104418000D01*
X41001000Y-102338000D02*
X41001000Y-99393000D01*
X41202000Y-107402000D02*
X41202000Y-99354000D01*
X39521000Y-106716000D02*
X39521000Y-104418000D01*
X40361000Y-102338000D02*
X40361000Y-99588000D01*
X40161000Y-102338000D02*
X40161000Y-99674000D01*
X41362000Y-107426000D02*
X41362000Y-99330000D01*
X39121000Y-106397000D02*
X39121000Y-104418000D01*
X39241000Y-102338000D02*
X39241000Y-100254000D01*
X39841000Y-106918000D02*
X39841000Y-104418000D01*
X40481000Y-102338000D02*
X40481000Y-99543000D01*
X39801000Y-106895000D02*
X39801000Y-104418000D01*
X38841000Y-106119000D02*
X38841000Y-100637000D01*
X39161000Y-102338000D02*
X39161000Y-100323000D01*
X39281000Y-102338000D02*
X39281000Y-100222000D01*
X39881000Y-102338000D02*
X39881000Y-99816000D01*
X41161000Y-102338000D02*
X41161000Y-99361000D01*
X39561000Y-102338000D02*
X39561000Y-100013000D01*
X40641000Y-102338000D02*
X40641000Y-99489000D01*
X40241000Y-102338000D02*
X40241000Y-99638000D01*
X38761000Y-106029000D02*
X38761000Y-100727000D01*
X39961000Y-102338000D02*
X39961000Y-99772000D01*
X41041000Y-107372000D02*
X41041000Y-104418000D01*
X40721000Y-102338000D02*
X40721000Y-99464000D01*
X39321000Y-102338000D02*
X39321000Y-100189000D01*
X40081000Y-102338000D02*
X40081000Y-99712000D01*
X39961000Y-106984000D02*
X39961000Y-104418000D01*
X40481000Y-107213000D02*
X40481000Y-104418000D01*
X41602000Y-107449000D02*
X41602000Y-99307000D01*
X39641000Y-102338000D02*
X39641000Y-99960000D01*
X40201000Y-102338000D02*
X40201000Y-99656000D01*
X40881000Y-107335000D02*
X40881000Y-104418000D01*
X41081000Y-102338000D02*
X41081000Y-99376000D01*
X40761000Y-107303000D02*
X40761000Y-104418000D01*
X45891698Y-106093000D02*
X45891698Y-105293000D01*
X40961000Y-107354000D02*
X40961000Y-104418000D01*
X39921000Y-102338000D02*
X39921000Y-99794000D01*
X37961000Y-104607000D02*
X37961000Y-102149000D01*
X41522000Y-107443000D02*
X41522000Y-99313000D01*
X39361000Y-102338000D02*
X39361000Y-100158000D01*
X39241000Y-106502000D02*
X39241000Y-104418000D01*
X38401000Y-105544000D02*
X38401000Y-101212000D01*
X38921000Y-106204000D02*
X38921000Y-100552000D01*
X40561000Y-102338000D02*
X40561000Y-99515000D01*
X40801000Y-107314000D02*
X40801000Y-104418000D01*
X39721000Y-106847000D02*
X39721000Y-104418000D01*
X41842000Y-107458000D02*
X41842000Y-99298000D01*
X41242000Y-107408000D02*
X41242000Y-99348000D01*
X41121000Y-107388000D02*
X41121000Y-104418000D01*
X38201000Y-105191000D02*
X38201000Y-101565000D01*
X38681000Y-105934000D02*
X38681000Y-100822000D01*
X39761000Y-102338000D02*
X39761000Y-99885000D01*
X40921000Y-107345000D02*
X40921000Y-104418000D01*
X40641000Y-107267000D02*
X40641000Y-104418000D01*
X40681000Y-102338000D02*
X40681000Y-99476000D01*
X40361000Y-107168000D02*
X40361000Y-104418000D01*
X39601000Y-106770000D02*
X39601000Y-104418000D01*
X41121000Y-102338000D02*
X41121000Y-99368000D01*
X41081000Y-107380000D02*
X41081000Y-104418000D01*
X38801000Y-106075000D02*
X38801000Y-100681000D01*
X40241000Y-107118000D02*
X40241000Y-104418000D01*
X40121000Y-107064000D02*
X40121000Y-104418000D01*
X39001000Y-106285000D02*
X39001000Y-100471000D01*
X40321000Y-102338000D02*
X40321000Y-99604000D01*
X40921000Y-102338000D02*
X40921000Y-99411000D01*
X39841000Y-102338000D02*
X39841000Y-99838000D01*
X41722000Y-107455000D02*
X41722000Y-99301000D01*
X38641000Y-105883000D02*
X38641000Y-100873000D01*
X38121000Y-105023000D02*
X38121000Y-101733000D01*
X40841000Y-107325000D02*
X40841000Y-104418000D01*
X40521000Y-107228000D02*
X40521000Y-104418000D01*
X38481000Y-105665000D02*
X38481000Y-101091000D01*
X40601000Y-102338000D02*
X40601000Y-99501000D01*
X41482000Y-107439000D02*
X41482000Y-99317000D01*
X41682000Y-107454000D02*
X41682000Y-99302000D01*
X41041000Y-102338000D02*
X41041000Y-99384000D01*
X41322000Y-107420000D02*
X41322000Y-99336000D01*
X39041000Y-106323000D02*
X39041000Y-100433000D01*
%TO.C,J4*%
X88100000Y-93137000D02*
X87500000Y-92837000D01*
X88100000Y-92537000D02*
X88100000Y-93137000D01*
X87500000Y-92837000D02*
X88100000Y-92537000D01*
X87300000Y-94947000D02*
X86100000Y-94947000D01*
X87300000Y-87927000D02*
X87300000Y-94947000D01*
X86100000Y-96647000D02*
X76460000Y-96647000D01*
X86100000Y-94947000D02*
X86100000Y-96647000D01*
X76460000Y-96647000D02*
X76460000Y-94947000D01*
X76460000Y-94947000D02*
X75260000Y-94947000D01*
X75260000Y-94947000D02*
X75260000Y-87927000D01*
X75260000Y-87927000D02*
X87300000Y-87927000D01*
%TO.C,R1*%
X58152500Y-123449276D02*
X58152500Y-123958724D01*
X57107500Y-123449276D02*
X57107500Y-123958724D01*
%TO.C,R2*%
X80250500Y-126116276D02*
X80250500Y-126625724D01*
X79205500Y-126116276D02*
X79205500Y-126625724D01*
%TO.C,J1*%
X43310000Y-114186000D02*
X43310000Y-111366000D01*
X43310000Y-114186000D02*
X41610000Y-115486000D01*
X43310000Y-111366000D02*
X41610000Y-110066000D01*
X41610000Y-115486000D02*
X32890000Y-115486000D01*
X41610000Y-110066000D02*
X32890000Y-110066000D01*
X32890000Y-115486000D02*
X32890000Y-110066000D01*
%TO.C,Q2*%
X57055000Y-111165000D02*
X61696000Y-111165000D01*
X57055000Y-111165000D02*
X57055000Y-100925000D01*
X58565000Y-111165000D02*
X58565000Y-100925000D01*
X61696000Y-111165000D02*
X61696000Y-100925000D01*
X57055000Y-107895000D02*
X58565000Y-107895000D01*
X57055000Y-104194000D02*
X58565000Y-104194000D01*
X57055000Y-100925000D02*
X61696000Y-100925000D01*
%TO.C,MES1*%
X58845000Y-96830000D02*
X60095000Y-96830000D01*
X59135000Y-96540000D02*
X65105000Y-96540000D01*
X65105000Y-96540000D02*
X65105000Y-88920000D01*
X59145000Y-96530000D02*
X59895000Y-96530000D01*
X59895000Y-96530000D02*
X59895000Y-94730000D01*
X61395000Y-96530000D02*
X61395000Y-95780000D01*
X61395000Y-95780000D02*
X64345000Y-95780000D01*
X64345000Y-95780000D02*
X64345000Y-92730000D01*
X58845000Y-95580000D02*
X58845000Y-96830000D01*
X59145000Y-94730000D02*
X59145000Y-96530000D01*
X59895000Y-94730000D02*
X59145000Y-94730000D01*
X59145000Y-93230000D02*
X59895000Y-93230000D01*
X59895000Y-93230000D02*
X59895000Y-92230000D01*
X59145000Y-92230000D02*
X59145000Y-93230000D01*
X59895000Y-92230000D02*
X59145000Y-92230000D01*
X59145000Y-90730000D02*
X59895000Y-90730000D01*
X59895000Y-90730000D02*
X59895000Y-88930000D01*
X61395000Y-89680000D02*
X64345000Y-89680000D01*
X64345000Y-89680000D02*
X64345000Y-92730000D01*
X59145000Y-88930000D02*
X59145000Y-90730000D01*
X59895000Y-88930000D02*
X59145000Y-88930000D01*
X61395000Y-88930000D02*
X61395000Y-89680000D01*
X59135000Y-88920000D02*
X59135000Y-96540000D01*
X65105000Y-88920000D02*
X59135000Y-88920000D01*
D13*
%TO.C,F1*%
X32232600Y-126047500D02*
X32232600Y-133032500D01*
X52298600Y-126047500D02*
X32232600Y-126047500D01*
X52298600Y-126047500D02*
X52298600Y-133032500D01*
X52298600Y-133032500D02*
X32232600Y-133032500D01*
X31546800Y-127838200D02*
G75*
G03*
X31546800Y-127838200I-76200J0D01*
G01*
D12*
%TO.C,R4*%
X80620776Y-117333500D02*
X81130224Y-117333500D01*
X80620776Y-118378500D02*
X81130224Y-118378500D01*
%TO.C,J3*%
X67100000Y-96830000D02*
X68350000Y-96830000D01*
X67390000Y-96540000D02*
X73360000Y-96540000D01*
X73360000Y-96540000D02*
X73360000Y-88920000D01*
X67400000Y-96530000D02*
X68150000Y-96530000D01*
X68150000Y-96530000D02*
X68150000Y-94730000D01*
X69650000Y-96530000D02*
X69650000Y-95780000D01*
X69650000Y-95780000D02*
X72600000Y-95780000D01*
X72600000Y-95780000D02*
X72600000Y-92730000D01*
X67100000Y-95580000D02*
X67100000Y-96830000D01*
X67400000Y-94730000D02*
X67400000Y-96530000D01*
X68150000Y-94730000D02*
X67400000Y-94730000D01*
X67400000Y-93230000D02*
X68150000Y-93230000D01*
X68150000Y-93230000D02*
X68150000Y-92230000D01*
X67400000Y-92230000D02*
X67400000Y-93230000D01*
X68150000Y-92230000D02*
X67400000Y-92230000D01*
X67400000Y-90730000D02*
X68150000Y-90730000D01*
X68150000Y-90730000D02*
X68150000Y-88930000D01*
X69650000Y-89680000D02*
X72600000Y-89680000D01*
X72600000Y-89680000D02*
X72600000Y-92730000D01*
X67400000Y-88930000D02*
X67400000Y-90730000D01*
X68150000Y-88930000D02*
X67400000Y-88930000D01*
X69650000Y-88930000D02*
X69650000Y-89680000D01*
X67390000Y-88920000D02*
X67390000Y-96540000D01*
X73360000Y-88920000D02*
X67390000Y-88920000D01*
%TO.C,J2*%
X56685000Y-94120000D02*
X56685000Y-91300000D01*
X56685000Y-94120000D02*
X54985000Y-95420000D01*
X56685000Y-91300000D02*
X54985000Y-90000000D01*
X54985000Y-95420000D02*
X46265000Y-95420000D01*
X54985000Y-90000000D02*
X46265000Y-90000000D01*
X46265000Y-95420000D02*
X46265000Y-90000000D01*
%TO.C,C2*%
X77317000Y-126224733D02*
X77317000Y-126517267D01*
X76297000Y-126224733D02*
X76297000Y-126517267D01*
%TO.C,RV2*%
X75859000Y-129302000D02*
X75859000Y-134372000D01*
X75859000Y-129302000D02*
X85629000Y-129302000D01*
X75859000Y-134372000D02*
X85629000Y-134372000D01*
X85629000Y-129302000D02*
X85629000Y-134372000D01*
%TO.C,R3*%
X82761500Y-126625724D02*
X82761500Y-126116276D01*
X83806500Y-126625724D02*
X83806500Y-126116276D01*
%TO.C,R5*%
X59690724Y-116092500D02*
X59181276Y-116092500D01*
X59690724Y-115047500D02*
X59181276Y-115047500D01*
%TO.C,C1*%
X55473000Y-123557733D02*
X55473000Y-123850267D01*
X54453000Y-123557733D02*
X54453000Y-123850267D01*
%TO.C,JP1*%
X58960000Y-131130000D02*
X57630000Y-131130000D01*
X58960000Y-129800000D02*
X58960000Y-131130000D01*
X58960000Y-128530000D02*
X58960000Y-125930000D01*
X58960000Y-128530000D02*
X56300000Y-128530000D01*
X58960000Y-125930000D02*
X56300000Y-125930000D01*
X56300000Y-128530000D02*
X56300000Y-125930000D01*
D11*
%TO.C,LT8640-1*%
X87630000Y-98806000D02*
X67310000Y-98806000D01*
X67310000Y-98806000D02*
X67310000Y-119126000D01*
X67310000Y-119126000D02*
X87630000Y-119126000D01*
X87630000Y-119126000D02*
X87630000Y-98806000D01*
%TD*%
%LPC*%
D14*
%TO.C,C3*%
X40132000Y-103378000D03*
D15*
X43632000Y-103378000D03*
%TD*%
D16*
%TO.C,J4*%
X85240000Y-92837000D03*
D17*
X81280000Y-92837000D03*
X77320000Y-92837000D03*
%TD*%
D18*
%TO.C,R1*%
X57630000Y-122791500D03*
X57630000Y-124616500D03*
%TD*%
D19*
%TO.C,REF\u002A\u002A*%
X41910000Y-91440000D03*
%TD*%
D18*
%TO.C,R2*%
X79728000Y-125458500D03*
X79728000Y-127283500D03*
%TD*%
D20*
%TO.C,J1*%
X40600000Y-112776000D03*
D21*
X35600000Y-112776000D03*
%TD*%
D22*
%TO.C,Q2*%
X60325000Y-108585000D03*
D23*
X60325000Y-106045000D03*
X60325000Y-103505000D03*
%TD*%
D24*
%TO.C,U1*%
X62190000Y-127260000D03*
X62190000Y-122680000D03*
D25*
X64355000Y-122680000D03*
D26*
X65500000Y-121660000D03*
X67790000Y-121660000D03*
D25*
X68935000Y-122680000D03*
D26*
X70080000Y-121660000D03*
D27*
X72390000Y-123825000D03*
D24*
X73390000Y-122680000D03*
X73390000Y-127260000D03*
X73390000Y-131840000D03*
D26*
X67790000Y-132860000D03*
X65500000Y-132860000D03*
D24*
X62190000Y-131840000D03*
X62190000Y-129550000D03*
D28*
X74140000Y-129550000D03*
D26*
X70080000Y-132860000D03*
D29*
X72390000Y-129550000D03*
%TD*%
D30*
%TO.C,MES1*%
X61595000Y-93980000D03*
D31*
X61595000Y-91480000D03*
%TD*%
D32*
%TO.C,F1*%
X35534600Y-127838200D03*
D33*
X35534600Y-131241800D03*
X48996600Y-131241800D03*
X48996600Y-127838200D03*
%TD*%
D34*
%TO.C,R4*%
X79963000Y-117856000D03*
X81788000Y-117856000D03*
%TD*%
D30*
%TO.C,J3*%
X69850000Y-93980000D03*
D31*
X69850000Y-91480000D03*
%TD*%
D20*
%TO.C,J2*%
X53975000Y-92710000D03*
D35*
X48975000Y-92710000D03*
%TD*%
D36*
%TO.C,C2*%
X76807000Y-125508500D03*
X76807000Y-127233500D03*
%TD*%
D37*
%TO.C,RV2*%
X83284000Y-131832000D03*
X80744000Y-131832000D03*
X78204000Y-131832000D03*
%TD*%
D38*
%TO.C,R3*%
X83284000Y-127283500D03*
X83284000Y-125458500D03*
%TD*%
D39*
%TO.C,R5*%
X60348500Y-115570000D03*
X58523500Y-115570000D03*
%TD*%
D36*
%TO.C,C1*%
X54963000Y-122841500D03*
X54963000Y-124566500D03*
%TD*%
D40*
%TO.C,JP1*%
X57630000Y-129800000D03*
D41*
X57630000Y-127260000D03*
%TD*%
D42*
%TO.C,LT8640-1*%
X71120000Y-100076000D03*
X68580000Y-100076000D03*
X68580000Y-102616000D03*
X68580000Y-105156000D03*
X68580000Y-107696000D03*
X68580000Y-110236000D03*
X68580000Y-112776000D03*
D43*
X68580000Y-115316000D03*
X68580000Y-117856000D03*
X71120000Y-117856000D03*
D42*
X83820000Y-100076000D03*
X86360000Y-100076000D03*
X86360000Y-102616000D03*
D43*
X86360000Y-115316000D03*
X86360000Y-117856000D03*
X83820000Y-117856000D03*
%TD*%
D19*
%TO.C,REF\u002A\u002A*%
X41910000Y-120650000D03*
%TD*%
%TO.C,REF\u002A\u002A*%
X86360000Y-109220000D03*
%TD*%
%LPD*%
M02*
