%TF.GenerationSoftware,KiCad,Pcbnew,8.0.5*%
%TF.CreationDate,2024-10-19T02:37:31+09:00*%
%TF.ProjectId,____,fb90fa7f-2e6b-4696-9361-645f70636258,rev?*%
%TF.SameCoordinates,Original*%
%TF.FileFunction,Copper,L2,Bot*%
%TF.FilePolarity,Positive*%
%FSLAX46Y46*%
G04 Gerber Fmt 4.6, Leading zero omitted, Abs format (unit mm)*
G04 Created by KiCad (PCBNEW 8.0.5) date 2024-10-19 02:37:31*
%MOMM*%
%LPD*%
G01*
G04 APERTURE LIST*
G04 Aperture macros list*
%AMRoundRect*
0 Rectangle with rounded corners*
0 $1 Rounding radius*
0 $2 $3 $4 $5 $6 $7 $8 $9 X,Y pos of 4 corners*
0 Add a 4 corners polygon primitive as box body*
4,1,4,$2,$3,$4,$5,$6,$7,$8,$9,$2,$3,0*
0 Add four circle primitives for the rounded corners*
1,1,$1+$1,$2,$3*
1,1,$1+$1,$4,$5*
1,1,$1+$1,$6,$7*
1,1,$1+$1,$8,$9*
0 Add four rect primitives between the rounded corners*
20,1,$1+$1,$2,$3,$4,$5,0*
20,1,$1+$1,$4,$5,$6,$7,0*
20,1,$1+$1,$6,$7,$8,$9,0*
20,1,$1+$1,$8,$9,$2,$3,0*%
G04 Aperture macros list end*
%TA.AperFunction,ComponentPad*%
%ADD10C,3.800000*%
%TD*%
%TA.AperFunction,ComponentPad*%
%ADD11R,1.800000X1.800000*%
%TD*%
%TA.AperFunction,ComponentPad*%
%ADD12C,1.800000*%
%TD*%
%TA.AperFunction,ComponentPad*%
%ADD13R,1.700000X1.700000*%
%TD*%
%TA.AperFunction,ComponentPad*%
%ADD14O,1.700000X1.700000*%
%TD*%
%TA.AperFunction,ComponentPad*%
%ADD15R,1.600000X1.600000*%
%TD*%
%TA.AperFunction,ComponentPad*%
%ADD16O,1.600000X1.600000*%
%TD*%
%TA.AperFunction,ComponentPad*%
%ADD17R,2.000000X1.905000*%
%TD*%
%TA.AperFunction,ComponentPad*%
%ADD18O,2.000000X1.905000*%
%TD*%
%TA.AperFunction,ComponentPad*%
%ADD19O,1.700000X2.000000*%
%TD*%
%TA.AperFunction,ComponentPad*%
%ADD20RoundRect,0.250000X0.600000X0.750000X-0.600000X0.750000X-0.600000X-0.750000X0.600000X-0.750000X0*%
%TD*%
%TA.AperFunction,ComponentPad*%
%ADD21O,3.200000X3.200000*%
%TD*%
%TA.AperFunction,ComponentPad*%
%ADD22R,3.200000X3.200000*%
%TD*%
%TA.AperFunction,ComponentPad*%
%ADD23C,1.600000*%
%TD*%
%TA.AperFunction,ComponentPad*%
%ADD24R,3.800000X3.800000*%
%TD*%
%TA.AperFunction,ComponentPad*%
%ADD25C,2.108200*%
%TD*%
%TA.AperFunction,ComponentPad*%
%ADD26R,2.108200X2.108200*%
%TD*%
%TA.AperFunction,ComponentPad*%
%ADD27C,1.524000*%
%TD*%
%TA.AperFunction,ComponentPad*%
%ADD28R,1.524000X1.524000*%
%TD*%
%TA.AperFunction,ComponentPad*%
%ADD29RoundRect,0.250001X1.099999X1.099999X-1.099999X1.099999X-1.099999X-1.099999X1.099999X-1.099999X0*%
%TD*%
%TA.AperFunction,ComponentPad*%
%ADD30C,2.700000*%
%TD*%
%TA.AperFunction,ViaPad*%
%ADD31C,0.800000*%
%TD*%
%TA.AperFunction,Conductor*%
%ADD32C,0.300000*%
%TD*%
%TA.AperFunction,Conductor*%
%ADD33C,3.000000*%
%TD*%
%TA.AperFunction,Conductor*%
%ADD34C,3.500000*%
%TD*%
%TA.AperFunction,Conductor*%
%ADD35C,1.000000*%
%TD*%
%TA.AperFunction,Conductor*%
%ADD36C,4.000000*%
%TD*%
G04 APERTURE END LIST*
D10*
%TO.P,REF\u002A\u002A,1*%
%TO.N,N/C*%
X50800000Y-107315000D03*
%TD*%
%TO.P,REF\u002A\u002A,1*%
%TO.N,N/C*%
X80010000Y-100965000D03*
%TD*%
%TO.P,REF\u002A\u002A,1*%
%TO.N,N/C*%
X80264000Y-124968000D03*
%TD*%
D11*
%TO.P,D3,1,K*%
%TO.N,Net-(D3-K)*%
X79751000Y-128905000D03*
D12*
%TO.P,D3,2,A*%
%TO.N,/led*%
X82291000Y-128905000D03*
%TD*%
D13*
%TO.P,J2,1,Pin_1*%
%TO.N,GND3*%
X57145000Y-122555000D03*
D14*
%TO.P,J2,2,Pin_2*%
%TO.N,/tx*%
X59685000Y-122555000D03*
%TD*%
D15*
%TO.P,U1,1,~{RESET}/PB5*%
%TO.N,unconnected-(U1-~{RESET}{slash}PB5-Pad1)*%
X55636000Y-104912000D03*
D16*
%TO.P,U1,2,XTAL1/PB3*%
%TO.N,/led*%
X55636000Y-107452000D03*
%TO.P,U1,3,XTAL2/PB4*%
%TO.N,/tx*%
X55636000Y-109992000D03*
%TO.P,U1,4,GND*%
%TO.N,GND3*%
X55636000Y-112532000D03*
%TO.P,U1,5,AREF/PB0*%
%TO.N,/init_6v*%
X63256000Y-112532000D03*
%TO.P,U1,6,PB1*%
%TO.N,/init_5v*%
X63256000Y-109992000D03*
%TO.P,U1,7,PB2*%
%TO.N,/Vref*%
X63256000Y-107452000D03*
%TO.P,U1,8,VCC*%
%TO.N,+5V*%
X63256000Y-104912000D03*
%TD*%
D17*
%TO.P,Q2,1,G*%
%TO.N,Net-(J3-Pin_1)*%
X40640000Y-101600000D03*
D18*
%TO.P,Q2,2,D*%
%TO.N,GND2*%
X40640000Y-99060000D03*
%TO.P,Q2,3,S*%
%TO.N,GND*%
X40640000Y-96520000D03*
%TD*%
D19*
%TO.P,MES1,2,+*%
%TO.N,VDD*%
X57317000Y-130937000D03*
D20*
%TO.P,MES1,1,-*%
%TO.N,GND*%
X59817000Y-130937000D03*
%TD*%
D19*
%TO.P,J3,2,Pin_2*%
%TO.N,VDD*%
X40640000Y-108712000D03*
D20*
%TO.P,J3,1,Pin_1*%
%TO.N,Net-(J3-Pin_1)*%
X43140000Y-108712000D03*
%TD*%
D13*
%TO.P,FAN1,1,Pin_1*%
%TO.N,GND2*%
X65151000Y-129027000D03*
D14*
%TO.P,FAN1,2,Pin_2*%
%TO.N,VDD*%
X65151000Y-131567000D03*
%TD*%
D21*
%TO.P,D1,2,A*%
%TO.N,GND*%
X39751000Y-123825000D03*
D22*
%TO.P,D1,1,K*%
%TO.N,VDD*%
X52451000Y-123825000D03*
%TD*%
D23*
%TO.P,C3,2*%
%TO.N,GND*%
X40513000Y-116205000D03*
D15*
%TO.P,C3,1*%
%TO.N,VDD*%
X44013000Y-116205000D03*
%TD*%
D24*
%TO.P,J1,1,Pin_1*%
%TO.N,GND*%
X40600000Y-90551000D03*
D10*
%TO.P,J1,2,Pin_2*%
%TO.N,Net-(J1-Pin_2)*%
X35600000Y-90551000D03*
%TD*%
D25*
%TO.P,F1,4,4*%
%TO.N,VDD*%
X48996600Y-128854200D03*
%TO.P,F1,3,3*%
X48996600Y-132257800D03*
%TO.P,F1,2,2*%
%TO.N,Net-(J1-Pin_2)*%
X35534600Y-132257800D03*
D26*
%TO.P,F1,1,1*%
X35534600Y-128854200D03*
%TD*%
D27*
%TO.P,LT8640-2,1,Vin*%
%TO.N,VDD*%
X85090000Y-131622800D03*
%TO.P,LT8640-2,2,Vin*%
X87630000Y-131622800D03*
%TO.P,LT8640-2,3,Vin*%
X87630000Y-129082800D03*
%TO.P,LT8640-2,4,EN/UV*%
%TO.N,/init_6v*%
X87630000Y-126542800D03*
%TO.P,LT8640-2,5,MODE*%
%TO.N,unconnected-(LT8640-2-MODE-Pad5)*%
X87630000Y-124002800D03*
%TO.P,LT8640-2,6,INTVCC*%
%TO.N,unconnected-(LT8640-2-INTVCC-Pad6)*%
X87630000Y-121462800D03*
%TO.P,LT8640-2,7,PG*%
%TO.N,unconnected-(LT8640-2-PG-Pad7)*%
X87630000Y-118922800D03*
D28*
%TO.P,LT8640-2,8,GND*%
%TO.N,GND2*%
X87630000Y-116382800D03*
%TO.P,LT8640-2,9,GND*%
X87630000Y-113842800D03*
%TO.P,LT8640-2,10,GND*%
X85090000Y-113842800D03*
D27*
%TO.P,LT8640-2,11,Vout*%
%TO.N,/6VB*%
X72390000Y-131622800D03*
%TO.P,LT8640-2,12,Vout*%
X69850000Y-131622800D03*
%TO.P,LT8640-2,13,Vout*%
X69850000Y-129082800D03*
D28*
%TO.P,LT8640-2,14,GND*%
%TO.N,GND1*%
X69850000Y-116382800D03*
%TO.P,LT8640-2,15,GND*%
X69850000Y-113842800D03*
%TO.P,LT8640-2,16,GND*%
X72390000Y-113842800D03*
%TD*%
%TO.P,LT8640-1,16,GND*%
%TO.N,GND1*%
X66040000Y-103505000D03*
%TO.P,LT8640-1,15,GND*%
X66040000Y-100965000D03*
%TO.P,LT8640-1,14,GND*%
X63500000Y-100965000D03*
D27*
%TO.P,LT8640-1,13,Vout*%
%TO.N,/6VA*%
X50800000Y-100965000D03*
%TO.P,LT8640-1,12,Vout*%
X48260000Y-100965000D03*
%TO.P,LT8640-1,11,Vout*%
X48260000Y-103505000D03*
D28*
%TO.P,LT8640-1,10,GND*%
%TO.N,GND2*%
X66040000Y-116205000D03*
%TO.P,LT8640-1,9,GND*%
X66040000Y-118745000D03*
%TO.P,LT8640-1,8,GND*%
X63500000Y-118745000D03*
D27*
%TO.P,LT8640-1,7,PG*%
%TO.N,unconnected-(LT8640-1-PG-Pad7)*%
X60960000Y-118745000D03*
%TO.P,LT8640-1,6,INTVCC*%
%TO.N,unconnected-(LT8640-1-INTVCC-Pad6)*%
X58420000Y-118745000D03*
%TO.P,LT8640-1,5,MODE*%
%TO.N,unconnected-(LT8640-1-MODE-Pad5)*%
X55880000Y-118745000D03*
%TO.P,LT8640-1,4,EN/UV*%
%TO.N,/init_6v*%
X53340000Y-118745000D03*
%TO.P,LT8640-1,3,Vin*%
%TO.N,VDD*%
X50800000Y-118745000D03*
%TO.P,LT8640-1,2,Vin*%
X48260000Y-118745000D03*
%TO.P,LT8640-1,1,Vin*%
X48260000Y-116205000D03*
%TD*%
%TO.P,LT8640-3,1,Vin*%
%TO.N,VDD*%
X85090000Y-109855000D03*
%TO.P,LT8640-3,2,Vin*%
X87630000Y-109855000D03*
%TO.P,LT8640-3,3,Vin*%
X87630000Y-107315000D03*
%TO.P,LT8640-3,4,EN/UV*%
%TO.N,/init_5v*%
X87630000Y-104775000D03*
%TO.P,LT8640-3,5,MODE*%
%TO.N,unconnected-(LT8640-3-MODE-Pad5)*%
X87630000Y-102235000D03*
%TO.P,LT8640-3,6,INTVCC*%
%TO.N,unconnected-(LT8640-3-INTVCC-Pad6)*%
X87630000Y-99695000D03*
%TO.P,LT8640-3,7,PG*%
%TO.N,unconnected-(LT8640-3-PG-Pad7)*%
X87630000Y-97155000D03*
D28*
%TO.P,LT8640-3,8,GND*%
%TO.N,GND2*%
X87630000Y-94615000D03*
%TO.P,LT8640-3,9,GND*%
X87630000Y-92075000D03*
%TO.P,LT8640-3,10,GND*%
X85090000Y-92075000D03*
D27*
%TO.P,LT8640-3,11,Vout*%
%TO.N,+5V*%
X72390000Y-109855000D03*
%TO.P,LT8640-3,12,Vout*%
X69850000Y-109855000D03*
%TO.P,LT8640-3,13,Vout*%
X69850000Y-107315000D03*
D28*
%TO.P,LT8640-3,14,GND*%
%TO.N,GND3*%
X69850000Y-94615000D03*
%TO.P,LT8640-3,15,GND*%
X69850000Y-92075000D03*
%TO.P,LT8640-3,16,GND*%
X72390000Y-92075000D03*
%TD*%
D29*
%TO.P,J4,1,Pin_1*%
%TO.N,GND3*%
X64920000Y-92625000D03*
D30*
%TO.P,J4,2,Pin_2*%
%TO.N,+5V*%
X60960000Y-92625000D03*
%TO.P,J4,3,Pin_3*%
%TO.N,GND1*%
X57000000Y-92625000D03*
%TO.P,J4,4,Pin_4*%
%TO.N,/6VB*%
X53040000Y-92625000D03*
%TO.P,J4,5,Pin_5*%
%TO.N,/6VA*%
X49080000Y-92625000D03*
%TD*%
D31*
%TO.N,GND3*%
X50927000Y-91059000D03*
X54356000Y-110998000D03*
%TO.N,/tx*%
X57150000Y-114183000D03*
X57128210Y-111991335D03*
%TO.N,GND3*%
X52070000Y-116840000D03*
%TO.N,/led*%
X71755000Y-122682000D03*
%TO.N,/init_5v*%
X72390000Y-106045000D03*
%TD*%
D32*
%TO.N,GND3*%
X54102000Y-98830424D02*
X50940000Y-95668424D01*
X50940000Y-95668424D02*
X50940000Y-91072000D01*
X54102000Y-110744000D02*
X54102000Y-98830424D01*
X54356000Y-110998000D02*
X54102000Y-110744000D01*
X50940000Y-91072000D02*
X50927000Y-91059000D01*
%TO.N,/tx*%
X57150000Y-112013125D02*
X57150000Y-114183000D01*
X57128210Y-111991335D02*
X57150000Y-112013125D01*
D33*
%TO.N,GND2*%
X45720000Y-109220000D02*
X45720000Y-99695000D01*
X52939849Y-114740000D02*
X51240000Y-114740000D01*
X45720000Y-99695000D02*
X45339000Y-99314000D01*
X54170000Y-115970151D02*
X52939849Y-114740000D01*
X54170000Y-116283000D02*
X54170000Y-115970151D01*
X51240000Y-114740000D02*
X45720000Y-109220000D01*
X63578000Y-116283000D02*
X54170000Y-116283000D01*
X66040000Y-118745000D02*
X63578000Y-116283000D01*
D32*
%TO.N,/led*%
X66806295Y-114355000D02*
X62539000Y-114355000D01*
X67945000Y-121285000D02*
X67945000Y-115493705D01*
X62539000Y-114355000D02*
X55636000Y-107452000D01*
X71755000Y-122682000D02*
X69342000Y-122682000D01*
X69342000Y-122682000D02*
X67945000Y-121285000D01*
X67945000Y-115493705D02*
X66806295Y-114355000D01*
%TO.N,GND3*%
X52070000Y-119047606D02*
X55577394Y-122555000D01*
X55577394Y-122555000D02*
X57145000Y-122555000D01*
X52070000Y-116840000D02*
X52070000Y-119047606D01*
%TO.N,/init_5v*%
X72390000Y-107315000D02*
X72390000Y-106045000D01*
X71120000Y-108585000D02*
X72390000Y-107315000D01*
X64663000Y-108585000D02*
X71120000Y-108585000D01*
X63256000Y-109992000D02*
X64663000Y-108585000D01*
%TO.N,+5V*%
X67447000Y-104912000D02*
X69850000Y-107315000D01*
X63256000Y-104912000D02*
X67447000Y-104912000D01*
D33*
%TO.N,VDD*%
X82628000Y-116304800D02*
X82628000Y-111047000D01*
X85090000Y-118766800D02*
X82628000Y-116304800D01*
X85090000Y-131622800D02*
X85090000Y-118766800D01*
X82628000Y-111047000D02*
X85090000Y-108585000D01*
D34*
%TO.N,/6VB*%
X53040000Y-94315000D02*
X53040000Y-92625000D01*
X55880000Y-97155000D02*
X53040000Y-94315000D01*
X67310000Y-97155000D02*
X55880000Y-97155000D01*
X75102000Y-104947000D02*
X67310000Y-97155000D01*
X75102000Y-123830800D02*
X75102000Y-104947000D01*
X69850000Y-129082800D02*
X75102000Y-123830800D01*
D33*
%TO.N,GND2*%
X63500000Y-118745000D02*
X66040000Y-118745000D01*
X66040000Y-116205000D02*
X66040000Y-118745000D01*
D35*
X65151000Y-119634000D02*
X66040000Y-118745000D01*
X65151000Y-129027000D02*
X65151000Y-119634000D01*
D36*
%TO.N,GND*%
X40600000Y-94594192D02*
X40600000Y-90551000D01*
X35052000Y-100142192D02*
X40600000Y-94594192D01*
X35052000Y-116078000D02*
X35052000Y-100142192D01*
X35052000Y-119507000D02*
X39370000Y-123825000D01*
X35052000Y-116078000D02*
X35052000Y-119507000D01*
X39370000Y-123825000D02*
X39751000Y-123825000D01*
D33*
X35179000Y-116205000D02*
X35052000Y-116078000D01*
X40513000Y-116205000D02*
X35179000Y-116205000D01*
D34*
%TO.N,/6VB*%
X69850000Y-129082800D02*
X69850000Y-131622800D01*
X72390000Y-131622800D02*
X69850000Y-131622800D01*
X69850000Y-129082800D02*
X72390000Y-131622800D01*
D33*
%TO.N,VDD*%
X87630000Y-107315000D02*
X85090000Y-109855000D01*
X87630000Y-107315000D02*
X87630000Y-109855000D01*
X87630000Y-109855000D02*
X85090000Y-109855000D01*
%TD*%
%TA.AperFunction,Conductor*%
%TO.N,GND2*%
G36*
X74693159Y-86619055D02*
G01*
X88811046Y-90778790D01*
X88869789Y-90816619D01*
X88898754Y-90880202D01*
X88900000Y-90897734D01*
X88900000Y-95761000D01*
X88880315Y-95828039D01*
X88827511Y-95873794D01*
X88776000Y-95885000D01*
X86387586Y-95885000D01*
X86335017Y-95873306D01*
X74422000Y-90297000D01*
X74421999Y-90297000D01*
X51450509Y-90297000D01*
X51385471Y-90277902D01*
X51385359Y-90278098D01*
X51384554Y-90277633D01*
X51383470Y-90277315D01*
X51380577Y-90275337D01*
X51379733Y-90274850D01*
X51206807Y-90197857D01*
X51206802Y-90197855D01*
X51061001Y-90166865D01*
X51021646Y-90158500D01*
X50832354Y-90158500D01*
X50799897Y-90165398D01*
X50647197Y-90197855D01*
X50647192Y-90197857D01*
X50474266Y-90274850D01*
X50468641Y-90278098D01*
X50467674Y-90276424D01*
X50410561Y-90296798D01*
X50403491Y-90297000D01*
X48387000Y-90297000D01*
X46355000Y-91947999D01*
X46355000Y-100206000D01*
X46335315Y-100273039D01*
X46282511Y-100318794D01*
X46231000Y-100330000D01*
X42088955Y-100330000D01*
X42021916Y-100310315D01*
X42001274Y-100293681D01*
X41997549Y-100289956D01*
X41969068Y-100268635D01*
X41882331Y-100203704D01*
X41882329Y-100203703D01*
X41882328Y-100203702D01*
X41747482Y-100153408D01*
X41747483Y-100153408D01*
X41687883Y-100147001D01*
X41687881Y-100147000D01*
X41687873Y-100147000D01*
X41687864Y-100147000D01*
X39592129Y-100147000D01*
X39592123Y-100147001D01*
X39532516Y-100153408D01*
X39410333Y-100198980D01*
X39340641Y-100203964D01*
X39279318Y-100170479D01*
X39245834Y-100109155D01*
X39243000Y-100082798D01*
X39243000Y-99538795D01*
X39262685Y-99471756D01*
X39279319Y-99451114D01*
X39941765Y-98788668D01*
X40721292Y-98009140D01*
X40782613Y-97975657D01*
X40799239Y-97973205D01*
X40801838Y-97973000D01*
X40801854Y-97973000D01*
X41027745Y-97937222D01*
X41027748Y-97937221D01*
X41027749Y-97937221D01*
X41245255Y-97866549D01*
X41245255Y-97866548D01*
X41245258Y-97866548D01*
X41368967Y-97803514D01*
X41425262Y-97790000D01*
X41529000Y-97790000D01*
X43180000Y-96012000D01*
X43180000Y-87950362D01*
X43199685Y-87883323D01*
X43235215Y-87847189D01*
X45053761Y-86634826D01*
X45120460Y-86614018D01*
X45122544Y-86614000D01*
X74658114Y-86614000D01*
X74693159Y-86619055D01*
G37*
%TD.AperFunction*%
%TD*%
M02*
