%TF.GenerationSoftware,KiCad,Pcbnew,7.0.8*%
%TF.CreationDate,2024-09-19T01:03:28+09:00*%
%TF.ProjectId,____,fb90fa7f-2e6b-4696-9361-645f70636258,rev?*%
%TF.SameCoordinates,Original*%
%TF.FileFunction,Soldermask,Bot*%
%TF.FilePolarity,Negative*%
%FSLAX46Y46*%
G04 Gerber Fmt 4.6, Leading zero omitted, Abs format (unit mm)*
G04 Created by KiCad (PCBNEW 7.0.8) date 2024-09-19 01:03:28*
%MOMM*%
%LPD*%
G01*
G04 APERTURE LIST*
G04 Aperture macros list*
%AMRoundRect*
0 Rectangle with rounded corners*
0 $1 Rounding radius*
0 $2 $3 $4 $5 $6 $7 $8 $9 X,Y pos of 4 corners*
0 Add a 4 corners polygon primitive as box body*
4,1,4,$2,$3,$4,$5,$6,$7,$8,$9,$2,$3,0*
0 Add four circle primitives for the rounded corners*
1,1,$1+$1,$2,$3*
1,1,$1+$1,$4,$5*
1,1,$1+$1,$6,$7*
1,1,$1+$1,$8,$9*
0 Add four rect primitives between the rounded corners*
20,1,$1+$1,$2,$3,$4,$5,0*
20,1,$1+$1,$4,$5,$6,$7,0*
20,1,$1+$1,$6,$7,$8,$9,0*
20,1,$1+$1,$8,$9,$2,$3,0*%
G04 Aperture macros list end*
%ADD10O,3.200000X3.200000*%
%ADD11R,3.200000X3.200000*%
%ADD12RoundRect,0.250001X1.099999X1.099999X-1.099999X1.099999X-1.099999X-1.099999X1.099999X-1.099999X0*%
%ADD13C,2.700000*%
%ADD14R,1.600000X1.600000*%
%ADD15C,1.600000*%
%ADD16C,5.600000*%
%ADD17R,3.800000X3.800000*%
%ADD18C,3.800000*%
%ADD19R,2.000000X1.905000*%
%ADD20O,2.000000X1.905000*%
%ADD21RoundRect,0.250000X0.750000X-0.600000X0.750000X0.600000X-0.750000X0.600000X-0.750000X-0.600000X0*%
%ADD22O,2.000000X1.700000*%
%ADD23R,2.108200X2.108200*%
%ADD24C,2.108200*%
%ADD25C,4.000000*%
%ADD26C,1.440000*%
%ADD27R,1.700000X1.700000*%
%ADD28O,1.700000X1.700000*%
%ADD29C,1.524000*%
%ADD30R,1.524000X1.524000*%
G04 APERTURE END LIST*
D10*
%TO.C,D1*%
X40132000Y-122478800D03*
D11*
X52832000Y-122478800D03*
%TD*%
D12*
%TO.C,J4*%
X85240000Y-92837000D03*
D13*
X81280000Y-92837000D03*
X77320000Y-92837000D03*
%TD*%
D14*
%TO.C,C3*%
X48178600Y-100330000D03*
D15*
X44678600Y-100330000D03*
%TD*%
D16*
%TO.C,REF\u002A\u002A*%
X42367200Y-106680000D03*
%TD*%
D17*
%TO.C,J1*%
X40600000Y-92710000D03*
D18*
X35600000Y-92710000D03*
%TD*%
D19*
%TO.C,Q2*%
X60325000Y-108585000D03*
D20*
X60325000Y-106045000D03*
X60325000Y-103505000D03*
%TD*%
D21*
%TO.C,MES1*%
X61595000Y-93980000D03*
D22*
X61595000Y-91480000D03*
%TD*%
D23*
%TO.C,F1*%
X35534600Y-127838200D03*
D24*
X35534600Y-131241800D03*
X48996600Y-131241800D03*
X48996600Y-127838200D03*
%TD*%
D21*
%TO.C,J3*%
X69850000Y-93980000D03*
D22*
X69850000Y-91480000D03*
%TD*%
D17*
%TO.C,J2*%
X53975000Y-92710000D03*
D25*
X48975000Y-92710000D03*
%TD*%
D26*
%TO.C,RV2*%
X83284000Y-131832000D03*
X80744000Y-131832000D03*
X78204000Y-131832000D03*
%TD*%
D27*
%TO.C,JP1*%
X57630000Y-129800000D03*
D28*
X57630000Y-127260000D03*
%TD*%
D29*
%TO.C,LT8640-1*%
X71120000Y-100076000D03*
X68580000Y-100076000D03*
X68580000Y-102616000D03*
X68580000Y-105156000D03*
X68580000Y-107696000D03*
X68580000Y-110236000D03*
X68580000Y-112776000D03*
D30*
X68580000Y-115316000D03*
X68580000Y-117856000D03*
X71120000Y-117856000D03*
D29*
X83820000Y-100076000D03*
X86360000Y-100076000D03*
X86360000Y-102616000D03*
D30*
X86360000Y-115316000D03*
X86360000Y-117856000D03*
X83820000Y-117856000D03*
%TD*%
D16*
%TO.C,REF\u002A\u002A*%
X42367200Y-116052600D03*
%TD*%
%TO.C,REF\u002A\u002A*%
X86360000Y-109220000D03*
%TD*%
M02*
