%TF.GenerationSoftware,KiCad,Pcbnew,7.0.8*%
%TF.CreationDate,2024-09-16T20:09:50+09:00*%
%TF.ProjectId,____,fb90fa7f-2e6b-4696-9361-645f70636258,rev?*%
%TF.SameCoordinates,Original*%
%TF.FileFunction,Legend,Bot*%
%TF.FilePolarity,Positive*%
%FSLAX46Y46*%
G04 Gerber Fmt 4.6, Leading zero omitted, Abs format (unit mm)*
G04 Created by KiCad (PCBNEW 7.0.8) date 2024-09-16 20:09:50*
%MOMM*%
%LPD*%
G01*
G04 APERTURE LIST*
G04 Aperture macros list*
%AMRoundRect*
0 Rectangle with rounded corners*
0 $1 Rounding radius*
0 $2 $3 $4 $5 $6 $7 $8 $9 X,Y pos of 4 corners*
0 Add a 4 corners polygon primitive as box body*
4,1,4,$2,$3,$4,$5,$6,$7,$8,$9,$2,$3,0*
0 Add four circle primitives for the rounded corners*
1,1,$1+$1,$2,$3*
1,1,$1+$1,$4,$5*
1,1,$1+$1,$6,$7*
1,1,$1+$1,$8,$9*
0 Add four rect primitives between the rounded corners*
20,1,$1+$1,$2,$3,$4,$5,0*
20,1,$1+$1,$4,$5,$6,$7,0*
20,1,$1+$1,$6,$7,$8,$9,0*
20,1,$1+$1,$8,$9,$2,$3,0*%
G04 Aperture macros list end*
%ADD10C,1.600000*%
%ADD11R,1.600000X1.600000*%
%ADD12RoundRect,0.250001X1.099999X1.099999X-1.099999X1.099999X-1.099999X-1.099999X1.099999X-1.099999X0*%
%ADD13C,2.700000*%
%ADD14C,5.600000*%
%ADD15R,3.800000X3.800000*%
%ADD16C,3.800000*%
%ADD17R,2.000000X1.905000*%
%ADD18O,2.000000X1.905000*%
%ADD19RoundRect,0.250000X0.750000X-0.600000X0.750000X0.600000X-0.750000X0.600000X-0.750000X-0.600000X0*%
%ADD20O,2.000000X1.700000*%
%ADD21R,2.108200X2.108200*%
%ADD22C,2.108200*%
%ADD23C,4.000000*%
%ADD24C,1.440000*%
%ADD25R,1.700000X1.700000*%
%ADD26O,1.700000X1.700000*%
%ADD27C,1.524000*%
%ADD28R,1.524000X1.524000*%
G04 APERTURE END LIST*
%LPC*%
D10*
%TO.C,C3*%
X40132000Y-103378000D03*
D11*
X43632000Y-103378000D03*
%TD*%
D12*
%TO.C,J4*%
X85240000Y-92837000D03*
D13*
X81280000Y-92837000D03*
X77320000Y-92837000D03*
%TD*%
D14*
%TO.C,REF\u002A\u002A*%
X41910000Y-91440000D03*
%TD*%
D15*
%TO.C,J1*%
X40600000Y-112776000D03*
D16*
X35600000Y-112776000D03*
%TD*%
D17*
%TO.C,Q2*%
X60325000Y-108585000D03*
D18*
X60325000Y-106045000D03*
X60325000Y-103505000D03*
%TD*%
D19*
%TO.C,MES1*%
X61595000Y-93980000D03*
D20*
X61595000Y-91480000D03*
%TD*%
D21*
%TO.C,F1*%
X35534600Y-127838200D03*
D22*
X35534600Y-131241800D03*
X48996600Y-131241800D03*
X48996600Y-127838200D03*
%TD*%
D19*
%TO.C,J3*%
X69850000Y-93980000D03*
D20*
X69850000Y-91480000D03*
%TD*%
D15*
%TO.C,J2*%
X53975000Y-92710000D03*
D23*
X48975000Y-92710000D03*
%TD*%
D24*
%TO.C,RV2*%
X83284000Y-131832000D03*
X80744000Y-131832000D03*
X78204000Y-131832000D03*
%TD*%
D25*
%TO.C,JP1*%
X57630000Y-129800000D03*
D26*
X57630000Y-127260000D03*
%TD*%
D27*
%TO.C,LT8640-1*%
X71120000Y-100076000D03*
X68580000Y-100076000D03*
X68580000Y-102616000D03*
X68580000Y-105156000D03*
X68580000Y-107696000D03*
X68580000Y-110236000D03*
X68580000Y-112776000D03*
D28*
X68580000Y-115316000D03*
X68580000Y-117856000D03*
X71120000Y-117856000D03*
D27*
X83820000Y-100076000D03*
X86360000Y-100076000D03*
X86360000Y-102616000D03*
D28*
X86360000Y-115316000D03*
X86360000Y-117856000D03*
X83820000Y-117856000D03*
%TD*%
D14*
%TO.C,REF\u002A\u002A*%
X41910000Y-120650000D03*
%TD*%
%TO.C,REF\u002A\u002A*%
X86360000Y-109220000D03*
%TD*%
%LPD*%
M02*
