%TF.GenerationSoftware,KiCad,Pcbnew,8.0.5*%
%TF.CreationDate,2024-10-19T02:37:31+09:00*%
%TF.ProjectId,____,fb90fa7f-2e6b-4696-9361-645f70636258,rev?*%
%TF.SameCoordinates,Original*%
%TF.FileFunction,Soldermask,Top*%
%TF.FilePolarity,Negative*%
%FSLAX46Y46*%
G04 Gerber Fmt 4.6, Leading zero omitted, Abs format (unit mm)*
G04 Created by KiCad (PCBNEW 8.0.5) date 2024-10-19 02:37:31*
%MOMM*%
%LPD*%
G01*
G04 APERTURE LIST*
G04 Aperture macros list*
%AMRoundRect*
0 Rectangle with rounded corners*
0 $1 Rounding radius*
0 $2 $3 $4 $5 $6 $7 $8 $9 X,Y pos of 4 corners*
0 Add a 4 corners polygon primitive as box body*
4,1,4,$2,$3,$4,$5,$6,$7,$8,$9,$2,$3,0*
0 Add four circle primitives for the rounded corners*
1,1,$1+$1,$2,$3*
1,1,$1+$1,$4,$5*
1,1,$1+$1,$6,$7*
1,1,$1+$1,$8,$9*
0 Add four rect primitives between the rounded corners*
20,1,$1+$1,$2,$3,$4,$5,0*
20,1,$1+$1,$4,$5,$6,$7,0*
20,1,$1+$1,$6,$7,$8,$9,0*
20,1,$1+$1,$8,$9,$2,$3,0*%
G04 Aperture macros list end*
%ADD10C,3.800000*%
%ADD11R,1.800000X1.800000*%
%ADD12C,1.800000*%
%ADD13R,1.700000X1.700000*%
%ADD14O,1.700000X1.700000*%
%ADD15R,1.600000X1.600000*%
%ADD16O,1.600000X1.600000*%
%ADD17RoundRect,0.237500X-0.237500X0.250000X-0.237500X-0.250000X0.237500X-0.250000X0.237500X0.250000X0*%
%ADD18RoundRect,0.237500X0.237500X-0.250000X0.237500X0.250000X-0.237500X0.250000X-0.237500X-0.250000X0*%
%ADD19RoundRect,0.237500X0.250000X0.237500X-0.250000X0.237500X-0.250000X-0.237500X0.250000X-0.237500X0*%
%ADD20R,2.000000X1.905000*%
%ADD21O,2.000000X1.905000*%
%ADD22O,1.700000X2.000000*%
%ADD23RoundRect,0.250000X0.600000X0.750000X-0.600000X0.750000X-0.600000X-0.750000X0.600000X-0.750000X0*%
%ADD24O,3.200000X3.200000*%
%ADD25R,3.200000X3.200000*%
%ADD26C,1.600000*%
%ADD27R,3.800000X3.800000*%
%ADD28C,2.108200*%
%ADD29R,2.108200X2.108200*%
%ADD30C,1.524000*%
%ADD31R,1.524000X1.524000*%
%ADD32RoundRect,0.250001X1.099999X1.099999X-1.099999X1.099999X-1.099999X-1.099999X1.099999X-1.099999X0*%
%ADD33C,2.700000*%
G04 APERTURE END LIST*
D10*
%TO.C,REF\u002A\u002A*%
X50800000Y-107315000D03*
%TD*%
%TO.C,REF\u002A\u002A*%
X80010000Y-100965000D03*
%TD*%
%TO.C,REF\u002A\u002A*%
X80264000Y-124968000D03*
%TD*%
D11*
%TO.C,D3*%
X79751000Y-128905000D03*
D12*
X82291000Y-128905000D03*
%TD*%
D13*
%TO.C,J2*%
X57145000Y-122555000D03*
D14*
X59685000Y-122555000D03*
%TD*%
D15*
%TO.C,U1*%
X55636000Y-104912000D03*
D16*
X55636000Y-107452000D03*
X55636000Y-109992000D03*
X55636000Y-112532000D03*
X63256000Y-112532000D03*
X63256000Y-109992000D03*
X63256000Y-107452000D03*
X63256000Y-104912000D03*
%TD*%
D17*
%TO.C,R3*%
X53086000Y-113585000D03*
X53086000Y-111760000D03*
%TD*%
D18*
%TO.C,R2*%
X51181000Y-111760000D03*
X51181000Y-113585000D03*
%TD*%
D19*
%TO.C,R1*%
X66190500Y-123444000D03*
X64365500Y-123444000D03*
%TD*%
D18*
%TO.C,R5*%
X43180000Y-101598100D03*
X43180000Y-99773100D03*
%TD*%
D20*
%TO.C,Q2*%
X40640000Y-101600000D03*
D21*
X40640000Y-99060000D03*
X40640000Y-96520000D03*
%TD*%
D22*
%TO.C,MES1*%
X57317000Y-130937000D03*
D23*
X59817000Y-130937000D03*
%TD*%
D22*
%TO.C,J3*%
X40640000Y-108712000D03*
D23*
X43140000Y-108712000D03*
%TD*%
D13*
%TO.C,FAN1*%
X65151000Y-129027000D03*
D14*
X65151000Y-131567000D03*
%TD*%
D24*
%TO.C,D1*%
X39751000Y-123825000D03*
D25*
X52451000Y-123825000D03*
%TD*%
D26*
%TO.C,C3*%
X40513000Y-116205000D03*
D15*
X44013000Y-116205000D03*
%TD*%
D27*
%TO.C,J1*%
X40600000Y-90551000D03*
D10*
X35600000Y-90551000D03*
%TD*%
D28*
%TO.C,F1*%
X48996600Y-128854200D03*
X48996600Y-132257800D03*
X35534600Y-132257800D03*
D29*
X35534600Y-128854200D03*
%TD*%
D30*
%TO.C,LT8640-2*%
X85090000Y-131622800D03*
X87630000Y-131622800D03*
X87630000Y-129082800D03*
X87630000Y-126542800D03*
X87630000Y-124002800D03*
X87630000Y-121462800D03*
X87630000Y-118922800D03*
D31*
X87630000Y-116382800D03*
X87630000Y-113842800D03*
X85090000Y-113842800D03*
D30*
X72390000Y-131622800D03*
X69850000Y-131622800D03*
X69850000Y-129082800D03*
D31*
X69850000Y-116382800D03*
X69850000Y-113842800D03*
X72390000Y-113842800D03*
%TD*%
%TO.C,LT8640-1*%
X66040000Y-103505000D03*
X66040000Y-100965000D03*
X63500000Y-100965000D03*
D30*
X50800000Y-100965000D03*
X48260000Y-100965000D03*
X48260000Y-103505000D03*
D31*
X66040000Y-116205000D03*
X66040000Y-118745000D03*
X63500000Y-118745000D03*
D30*
X60960000Y-118745000D03*
X58420000Y-118745000D03*
X55880000Y-118745000D03*
X53340000Y-118745000D03*
X50800000Y-118745000D03*
X48260000Y-118745000D03*
X48260000Y-116205000D03*
%TD*%
%TO.C,LT8640-3*%
X85090000Y-109855000D03*
X87630000Y-109855000D03*
X87630000Y-107315000D03*
X87630000Y-104775000D03*
X87630000Y-102235000D03*
X87630000Y-99695000D03*
X87630000Y-97155000D03*
D31*
X87630000Y-94615000D03*
X87630000Y-92075000D03*
X85090000Y-92075000D03*
D30*
X72390000Y-109855000D03*
X69850000Y-109855000D03*
X69850000Y-107315000D03*
D31*
X69850000Y-94615000D03*
X69850000Y-92075000D03*
X72390000Y-92075000D03*
%TD*%
D32*
%TO.C,J4*%
X64920000Y-92625000D03*
D33*
X60960000Y-92625000D03*
X57000000Y-92625000D03*
X53040000Y-92625000D03*
X49080000Y-92625000D03*
%TD*%
M02*
