M48
; DRILL file {KiCad 8.0.5} date 2024-10-19T02:37:31+0900
; FORMAT={-:-/ absolute / inch / decimal}
; #@! TF.CreationDate,2024-10-19T02:37:31+09:00
; #@! TF.GenerationSoftware,Kicad,Pcbnew,8.0.5
; #@! TF.FileFunction,Plated,1,2,PTH
FMAT,2
INCH
; #@! TA.AperFunction,Plated,PTH,ViaDrill
T1C0.0157
; #@! TA.AperFunction,Plated,PTH,ComponentDrill
T2C0.0300
; #@! TA.AperFunction,Plated,PTH,ComponentDrill
T3C0.0315
; #@! TA.AperFunction,Plated,PTH,ComponentDrill
T4C0.0354
; #@! TA.AperFunction,Plated,PTH,ComponentDrill
T5C0.0394
; #@! TA.AperFunction,Plated,PTH,ComponentDrill
T6C0.0433
; #@! TA.AperFunction,Plated,PTH,ComponentDrill
T7C0.0630
; #@! TA.AperFunction,Plated,PTH,ComponentDrill
T8C0.0630
; #@! TA.AperFunction,Plated,PTH,ComponentDrill
T9C0.0669
; #@! TA.AperFunction,Plated,PTH,ComponentDrill
T10C0.0866
; #@! TA.AperFunction,Plated,PTH,ComponentDrill
T11C0.1063
%
G90
G05
T1
X2.005Y-3.585
X2.05Y-4.6
X2.14Y-4.37
X2.2491Y-4.4091
X2.25Y-4.4954
X2.825Y-4.83
X2.85Y-4.175
T2
X1.9Y-3.975
X1.9Y-4.075
X1.9Y-4.575
X1.9Y-4.675
X2.0Y-3.975
X2.0Y-4.675
X2.1Y-4.675
X2.2Y-4.675
X2.3Y-4.675
X2.4Y-4.675
X2.5Y-3.975
X2.5Y-4.675
X2.6Y-3.975
X2.6Y-4.075
X2.6Y-4.575
X2.6Y-4.675
X2.75Y-3.625
X2.75Y-3.725
X2.75Y-4.225
X2.75Y-4.325
X2.75Y-4.482
X2.75Y-4.582
X2.75Y-5.082
X2.75Y-5.182
X2.85Y-3.625
X2.85Y-4.325
X2.85Y-4.482
X2.85Y-5.182
X3.35Y-3.625
X3.35Y-4.325
X3.35Y-4.482
X3.35Y-5.182
X3.45Y-3.625
X3.45Y-3.725
X3.45Y-3.825
X3.45Y-3.925
X3.45Y-4.025
X3.45Y-4.125
X3.45Y-4.225
X3.45Y-4.325
X3.45Y-4.482
X3.45Y-4.582
X3.45Y-4.682
X3.45Y-4.782
X3.45Y-4.882
X3.45Y-4.982
X3.45Y-5.082
X3.45Y-5.182
T3
X1.595Y-4.575
X1.7328Y-4.575
X2.1904Y-4.1304
X2.1904Y-4.2304
X2.1904Y-4.3304
X2.1904Y-4.4304
X2.4904Y-4.1304
X2.4904Y-4.2304
X2.4904Y-4.3304
X2.4904Y-4.4304
T4
X3.1398Y-5.075
X3.2398Y-5.075
T5
X1.6Y-4.28
X1.6984Y-4.28
X2.2498Y-4.825
X2.2566Y-5.155
X2.3498Y-4.825
X2.355Y-5.155
X2.565Y-5.0798
X2.565Y-5.1798
T6
X1.6Y-3.8
X1.6Y-3.9
X1.6Y-4.0
T7
X1.565Y-4.875
X2.065Y-4.875
T8
X1.399Y-5.073
X1.399Y-5.207
X1.929Y-5.073
X1.929Y-5.207
T9
X1.9323Y-3.6467
X2.0882Y-3.6467
X2.2441Y-3.6467
X2.4Y-3.6467
X2.5559Y-3.6467
T10
X2.0Y-4.225
X3.15Y-3.975
X3.16Y-4.92
T11
X1.4016Y-3.565
X1.5984Y-3.565
M30
