M48
; DRILL file {KiCad 7.0.8} date Mon Sep 16 20:09:50 2024
; FORMAT={-:-/ absolute / inch / decimal}
; #@! TF.CreationDate,2024-09-16T20:09:50+09:00
; #@! TF.GenerationSoftware,Kicad,Pcbnew,7.0.8
; #@! TF.FileFunction,Plated,1,2,PTH
FMAT,2
INCH
; #@! TA.AperFunction,Plated,PTH,ViaDrill
T1C0.0157
; #@! TA.AperFunction,Plated,PTH,ComponentDrill
T2C0.0315
; #@! TA.AperFunction,Plated,PTH,ComponentDrill
T3C0.0394
; #@! TA.AperFunction,Plated,PTH,ComponentDrill
T4C0.0433
; #@! TA.AperFunction,Plated,PTH,ComponentDrill
T5C0.0630
; #@! TA.AperFunction,Plated,PTH,ComponentDrill
T6C0.0669
; #@! TA.AperFunction,Plated,PTH,ComponentDrill
T7C0.1063
; #@! TA.AperFunction,Plated,PTH,ComponentDrill
T8C0.1260
%
G90
G05
T1
X2.305Y-4.435
X3.05Y-4.64
T2
X1.58Y-4.07
X1.7178Y-4.07
X2.7Y-3.94
X2.7Y-4.04
X2.7Y-4.14
X2.7Y-4.24
X2.7Y-4.34
X2.7Y-4.44
X2.7Y-4.54
X2.7Y-4.64
X2.8Y-3.94
X2.8Y-4.64
X3.0789Y-5.1902
X3.1789Y-5.1902
X3.2789Y-5.1902
X3.3Y-3.94
X3.3Y-4.64
X3.4Y-3.94
X3.4Y-4.04
X3.4Y-4.54
X3.4Y-4.64
T3
X2.2689Y-5.0102
X2.2689Y-5.1102
X2.425Y-3.6016
X2.425Y-3.7
X2.75Y-3.6016
X2.75Y-3.7
T4
X2.375Y-4.075
X2.375Y-4.175
X2.375Y-4.275
T5
X1.399Y-5.033
X1.399Y-5.167
X1.929Y-5.033
X1.929Y-5.167
T6
X3.0441Y-3.655
X3.2Y-3.655
X3.3559Y-3.655
T7
X1.4016Y-4.44
X1.5984Y-4.44
X1.9281Y-3.65
X2.125Y-3.65
T8
X1.65Y-3.6
X1.65Y-4.75
X3.4Y-4.3
T0
M30
